<svg width="360" height="360" viewBox="0 0 360 360" fill="none" xmlns="http://www.w3.org/2000/svg">
<rect width="360" height="360" rx="82" fill="url(#paint0_radial)"/>
<path fill-rule="evenodd" clip-rule="evenodd" d="M115.133 178.656C115.133 188.957 122.001 194.966 130.585 194.966C148.611 194.108 150.328 166.638 130.585 164.921C127.151 164.063 122.859 166.638 120.284 168.355C117.709 170.93 115.133 174.364 115.133 178.656Z" fill="#0085D5"/>
<path fill-rule="evenodd" clip-rule="evenodd" d="M164.921 229.302C164.921 237.887 170.93 244.754 180.373 244.754C187.24 244.754 194.966 237.887 194.966 231.019V228.444C194.966 216.426 178.656 209.559 169.213 219.001C167.497 220.718 164.921 225.01 164.921 229.302Z" fill="#0085D5"/>
<path fill-rule="evenodd" clip-rule="evenodd" d="M214.709 178.656C214.709 200.975 244.754 199.258 244.754 179.514C244.754 171.789 237.028 164.921 230.161 164.921C222.435 164.921 214.709 170.93 214.709 178.656Z" fill="#0085D5"/>
<path fill-rule="evenodd" clip-rule="evenodd" d="M144.32 159.771C164.063 159.771 165.78 129.727 143.461 129.727C135.735 129.727 129.727 137.452 129.727 145.178C129.727 152.045 136.594 159.771 144.32 159.771Z" fill="#0085D5"/>
<path fill-rule="evenodd" clip-rule="evenodd" d="M200.116 143.461C200.116 166.638 230.161 163.205 230.161 145.178C230.161 135.735 223.293 129.727 213.851 129.727C206.984 129.727 200.116 136.594 200.116 143.461Z" fill="#0085D5"/>
<path fill-rule="evenodd" clip-rule="evenodd" d="M200.116 213.851C200.116 219.86 200.975 221.577 204.408 225.011C219.001 239.604 238.745 219.002 225.869 204.409C216.426 194.966 200.116 201.833 200.116 213.851Z" fill="#0085D5"/>
<path fill-rule="evenodd" clip-rule="evenodd" d="M129.727 215.568C129.727 223.293 135.735 230.161 146.036 230.161C153.762 230.161 159.771 222.435 159.771 214.709C158.913 201.833 144.32 194.966 134.019 204.408C131.443 206.984 129.727 211.276 129.727 215.568Z" fill="#0085D5"/>
<path fill-rule="evenodd" clip-rule="evenodd" d="M164.921 130.585C164.921 134.018 167.497 139.169 169.213 140.886C182.948 154.62 204.408 134.018 189.815 119.425C181.231 110.841 164.921 116.85 164.921 130.585Z" fill="#0085D5"/>
<path fill-rule="evenodd" clip-rule="evenodd" d="M258.489 179.514C258.489 194.966 279.949 193.249 279.949 180.373C279.949 165.78 258.489 165.78 258.489 179.514Z" fill="#0085D5"/>
<path fill-rule="evenodd" clip-rule="evenodd" d="M115.992 253.338C131.443 253.338 129.727 232.736 116.85 232.736C102.257 232.736 102.257 253.338 115.992 253.338Z" fill="#0085D5"/>
<path fill-rule="evenodd" clip-rule="evenodd" d="M232.736 243.037C232.736 257.63 253.338 257.63 253.338 243.037C253.338 229.303 232.736 229.303 232.736 243.037Z" fill="#0085D5"/>
<path fill-rule="evenodd" clip-rule="evenodd" d="M169.213 90.2397C169.213 103.974 190.674 105.691 190.674 89.3813C190.674 77.3635 169.213 76.5051 169.213 90.2397Z" fill="#0085D5"/>
<path fill-rule="evenodd" clip-rule="evenodd" d="M116.85 127.151C125.434 127.151 130.585 116.85 124.576 109.983C118.567 102.257 105.691 106.549 105.691 116.85C105.691 122.001 109.983 127.151 116.85 127.151Z" fill="#0085D5"/>
<path fill-rule="evenodd" clip-rule="evenodd" d="M169.213 268.79C169.213 283.383 190.674 284.241 190.674 268.79C190.674 255.055 169.213 255.914 169.213 268.79Z" fill="#0085D5"/>
<path fill-rule="evenodd" clip-rule="evenodd" d="M232.736 115.133C232.736 132.302 253.338 129.726 253.338 116.85C253.338 109.983 249.046 106.549 241.32 106.549C237.887 106.549 232.736 110.841 232.736 115.133Z" fill="#0085D5"/>
<path fill-rule="evenodd" clip-rule="evenodd" d="M79.9385 179.515C79.9385 190.674 91.0979 193.249 97.1068 188.099C98.8236 186.382 99.682 186.382 99.682 184.665C103.974 176.939 97.9652 170.072 91.0979 169.214C85.089 168.355 79.9385 173.506 79.9385 179.515Z" fill="#0085D5"/>
<path fill-rule="evenodd" clip-rule="evenodd" d="M179.514 66.2039C190.674 66.2039 188.957 50.7524 180.373 50.7524C169.213 50.7524 170.072 66.2039 179.514 66.2039Z" fill="#0085D5"/>
<path fill-rule="evenodd" clip-rule="evenodd" d="M179.515 309.135C190.674 309.135 188.957 293.684 180.373 293.684C176.081 293.684 172.647 297.117 172.647 300.551C171.789 304.843 176.081 309.135 179.515 309.135Z" fill="#0085D5"/>
<path fill-rule="evenodd" clip-rule="evenodd" d="M257.63 93.6732C257.63 103.116 273.081 103.974 273.081 93.6732C273.081 84.2307 257.63 84.2307 257.63 93.6732Z" fill="#0085D5"/>
<path fill-rule="evenodd" clip-rule="evenodd" d="M50.7524 180.373C50.7524 189.816 66.2039 188.957 66.2039 180.373C66.2039 170.931 50.7524 170.072 50.7524 180.373Z" fill="#0085D5"/>
<path fill-rule="evenodd" clip-rule="evenodd" d="M85.9473 266.214C85.9473 275.657 101.399 275.657 101.399 266.214C101.399 255.913 85.9473 256.772 85.9473 266.214Z" fill="#0085D5"/>
<path fill-rule="evenodd" clip-rule="evenodd" d="M293.684 180.373C293.684 188.957 308.277 189.815 309.135 180.373C309.993 170.93 293.684 169.214 293.684 180.373Z" fill="#0085D5"/>
<path fill-rule="evenodd" clip-rule="evenodd" d="M85.9473 93.6731C85.9473 103.116 101.399 103.974 101.399 93.6731C101.399 86.8058 92.8146 84.2306 88.5225 88.5227C87.6641 89.3811 85.9473 91.9563 85.9473 93.6731Z" fill="#0085D5"/>
<path fill-rule="evenodd" clip-rule="evenodd" d="M264.498 273.082C276.515 273.082 275.657 258.489 265.356 258.489C255.914 258.489 256.772 273.082 264.498 273.082Z" fill="#0085D5"/>
<path fill-rule="evenodd" clip-rule="evenodd" d="M174.364 329.737C174.364 333.17 176.939 334.887 179.514 334.887H180.373C182.948 334.887 184.665 333.17 184.665 329.737C184.665 322.869 174.364 323.728 174.364 329.737Z" fill="#0085D5"/>
<path fill-rule="evenodd" clip-rule="evenodd" d="M280.807 285.958C280.807 291.967 291.108 293.684 291.108 285.958C291.108 279.091 280.807 279.949 280.807 285.958Z" fill="#0085D5"/>
<path fill-rule="evenodd" clip-rule="evenodd" d="M174.364 30.1505C174.364 36.1594 184.665 37.0178 184.665 30.1505C184.665 26.7168 182.948 25 180.373 25H179.514C176.939 25 174.364 26.7168 174.364 30.1505Z" fill="#0085D5"/>
<path fill-rule="evenodd" clip-rule="evenodd" d="M280.807 73.9298C280.807 79.9387 291.108 80.7971 291.108 73.9298C291.108 67.0625 280.807 67.0625 280.807 73.9298Z" fill="#0085D5"/>
<path fill-rule="evenodd" clip-rule="evenodd" d="M79.0803 73.9298C79.0803 70.4961 76.505 68.7793 73.9298 68.7793C68.7793 68.7793 67.0625 74.7882 69.6377 77.3634C73.0714 80.7971 79.0803 78.2218 79.0803 73.9298Z" fill="#0085D5"/>
<path fill-rule="evenodd" clip-rule="evenodd" d="M72.2129 291.108C81.6554 291.108 80.797 280.807 73.0713 280.807C66.204 280.807 67.9208 291.108 72.2129 291.108Z" fill="#0085D5"/>
<path fill-rule="evenodd" clip-rule="evenodd" d="M25 178.656C25 181.232 25 184.665 30.1505 184.665C37.0178 184.665 35.301 175.223 31.0089 175.223C28.4337 175.223 25 175.223 25 178.656Z" fill="#0085D5"/>
<path fill-rule="evenodd" clip-rule="evenodd" d="M328.878 184.665C338.321 184.665 334.887 175.223 331.454 175.223C321.153 175.223 324.586 184.665 328.878 184.665Z" fill="#0085D5"/>
<defs>
<radialGradient id="paint0_radial" cx="0" cy="0" r="1" gradientUnits="userSpaceOnUse" gradientTransform="translate(180 180) rotate(90) scale(180)">
<stop stop-color="#0085D5" stop-opacity="0.2"/>
<stop offset="1" stop-color="#0085D5" stop-opacity="0.05"/>
</radialGradient>
</defs>
</svg>
