<svg width="360" height="360" viewBox="0 0 360 360" fill="none" xmlns="http://www.w3.org/2000/svg">
<rect width="360" height="360" rx="82" fill="url(#paint0_linear)" fill-opacity="0.1"/>
<circle cx="180" cy="180" r="155.455" fill="#4681C7" fill-opacity="0.06"/>
<circle cx="180" cy="180" r="155.205" stroke="#2869BF" stroke-opacity="0.04" stroke-width="0.5"/>
<path d="M70.6891 72C70.6891 72 102.24 72.1106 105.027 72.3446C109.149 72.6891 117.389 75.2628 126.488 86.5952C135.587 97.9276 183.835 158.533 183.835 158.533C183.835 158.533 139.365 159.218 133.188 158.189C127.007 157.159 120.826 155.955 113.271 143.593C105.712 131.236 70 72 70 72H70.6891Z" fill="url(#paint1_linear)"/>
<path d="M235.337 182.372C233.401 172.669 226.161 168.921 226.161 168.921C209.682 158.278 169.418 163 158.771 165.573C144.303 169.074 140.432 173.758 139.713 177.765C138.513 184.461 143.052 192.067 143.052 192.067L165.866 229.671C165.866 229.671 161.842 220.704 165.292 209.755C168.61 199.222 189.216 174.843 235.226 182.398" fill="url(#paint2_linear)"/>
<path d="M166.211 230.182C166.211 230.182 162.017 220.874 165.467 209.924C167.87 202.306 179.292 187.434 202.867 182.657L290 288.447C290 288.447 226.591 288.903 220.64 288.218C214.689 287.533 199.579 286.159 188.361 267.386C177.139 248.609 166.211 230.182 166.211 230.182Z" fill="url(#paint3_linear)"/>
<path d="M214.646 197.04C174.378 198.946 166.994 221.857 165.7 228.621C164.679 225.409 163.033 218.237 165.577 210.155C167.981 202.536 179.402 187.664 202.978 182.887L214.646 197.04Z" fill="url(#paint4_linear)"/>
<defs>
<linearGradient id="paint0_linear" x1="43" y1="25" x2="346.5" y2="348" gradientUnits="userSpaceOnUse">
<stop stop-color="#03AAE0"/>
<stop offset="1" stop-color="#E21F24"/>
</linearGradient>
<linearGradient id="paint1_linear" x1="126.917" y1="72.0012" x2="126.917" y2="158.758" gradientUnits="userSpaceOnUse">
<stop stop-color="#02ADE3"/>
<stop offset="1" stop-color="#20457C"/>
</linearGradient>
<linearGradient id="paint2_linear" x1="139.515" y1="195.976" x2="235.338" y2="195.976" gradientUnits="userSpaceOnUse">
<stop stop-color="#E9EAEE"/>
<stop offset="0.1702" stop-color="#DEDFE2"/>
<stop offset="0.4765" stop-color="#C0C0C3"/>
<stop offset="0.8812" stop-color="#8F9090"/>
<stop offset="1" stop-color="#808080"/>
</linearGradient>
<linearGradient id="paint3_linear" x1="227.05" y1="182.655" x2="227.05" y2="288.593" gradientUnits="userSpaceOnUse">
<stop stop-color="#E91E24"/>
<stop offset="0.1952" stop-color="#E41E24"/>
<stop offset="0.428" stop-color="#D51E23"/>
<stop offset="0.6799" stop-color="#BD1D21"/>
<stop offset="0.9438" stop-color="#9C1C1F"/>
<stop offset="1" stop-color="#941C1E"/>
</linearGradient>
<linearGradient id="paint4_linear" x1="198.268" y1="181.172" x2="179.208" y2="233.537" gradientUnits="userSpaceOnUse">
<stop stop-color="#D3312C"/>
<stop offset="0.1721" stop-color="#C22F2B"/>
<stop offset="0.5119" stop-color="#972A27"/>
<stop offset="0.9834" stop-color="#512122"/>
<stop offset="1" stop-color="#4E2122"/>
</linearGradient>
</defs>
</svg>
