<svg width="360" height="360" viewBox="0 0 360 360" fill="none" xmlns="http://www.w3.org/2000/svg">
<rect width="360" height="360" rx="82" fill="#EB1B2A"/>
<path d="M255.818 195.748C255.818 195.748 249.135 216.566 242.433 237.357L237.133 248.784L228.092 276.885C228.092 276.885 220.323 276.62 202.42 276.122C196.804 275.98 191.02 276.853 185.28 278.158L172.923 283.51C164.857 285.836 157.179 288.118 150.445 288.719C138.96 289.74 128.645 289.688 116.824 288.867L107.324 285.759C82.0532 283.316 67.3175 278.662 67.3175 278.662L76.1783 251.13L78.3692 239.199L91.78 197.538L98.0685 183.126L103.071 167.589L105.158 155.936L118.576 114.301L122.576 106.998L132.859 75.0383C132.859 75.0383 147.608 79.9308 172.865 82.5031L183.542 81.4884C195.44 82.3674 205.781 82.4191 217.337 81.3204C224.046 80.6806 231.73 78.1794 239.77 75.6911L246.375 75.4196C253.562 73.4226 260.891 71.9232 267.975 72.2334C285.774 72.996 293.652 73.2545 293.652 73.2545L284.527 101.576L282.633 112.492L269.235 154.088L263.994 165.346L258.08 183.708L255.818 195.748Z" fill="white"/>
<path d="M156.962 164.06C168.828 164.894 179.072 164.939 190.596 163.911C197.395 163.297 205.092 160.815 213.235 158.366L226.607 116.731C218.535 119.161 210.708 121.675 203.987 122.276C192.45 123.311 182.239 123.227 170.353 122.406L156.962 164.06Z" fill="#211E1F"/>
<path d="M130.147 247.323C142.058 248.163 152.309 248.196 163.852 247.168C170.606 246.561 178.322 244.053 186.433 241.616L199.818 200.02C191.707 202.457 183.997 204.939 177.243 205.54C165.739 206.574 155.443 206.496 143.603 205.676L130.147 247.323Z" fill="#211E1F"/>
<path d="M239.772 75.6903L226.607 116.73C236.359 113.796 246.603 111.379 256.401 111.683C274.691 112.239 282.635 112.491 282.635 112.491L296 71.0821C296 71.0821 288.309 70.9076 269.76 70.048C259.949 69.5827 249.531 72.5686 239.772 75.6903Z" fill="#211E1F"/>
<path d="M78.3712 239.198C78.3712 239.198 93.4429 243.897 119.23 246.392C123.063 246.767 126.656 247.077 130.146 247.322L116.826 288.867C113.304 288.628 109.672 288.304 105.826 287.936C80.0387 285.441 64.9992 280.697 64.9992 280.697L78.3712 239.198Z" fill="#211E1F"/>
<path d="M170.352 122.405L183.543 81.4879C180.085 81.2359 176.492 80.9127 172.724 80.5249C146.93 77.9074 131.897 72.9179 131.897 72.9179L118.577 114.301C118.577 114.301 133.59 119.006 159.358 121.507C163.217 121.875 166.849 122.147 170.352 122.405Z" fill="#211E1F"/>
<path d="M91.7814 197.538L105.16 155.935C105.16 155.935 120.193 160.647 145.987 163.129C149.832 163.51 153.439 163.82 156.961 164.059L143.602 205.675C140.079 205.429 136.473 205.145 132.615 204.77C106.834 202.275 91.7814 197.538 91.7814 197.538Z" fill="#211E1F"/>
<path d="M242.436 237.356C242.436 237.356 234.525 237.143 216.273 236.568C206.443 236.264 196.193 238.668 186.433 241.615L172.926 283.509C182.685 280.575 193.052 277.925 202.869 278.106C221.373 278.461 229.057 278.868 229.057 278.868L242.436 237.356Z" fill="#211E1F"/>
<path d="M199.817 200.02L213.234 158.366C222.993 155.438 233.218 153.053 243.035 153.305C261.3 153.796 269.236 154.087 269.236 154.087L255.819 195.748C255.819 195.748 248.212 195.425 229.65 194.94C219.827 194.688 209.589 197.079 199.817 200.02Z" fill="#211E1F"/>
</svg>
