<svg width="360" height="360" viewBox="0 0 360 360" fill="none" xmlns="http://www.w3.org/2000/svg">
<rect width="360" height="360" rx="82" fill="black"/>
<path d="M292.153 254.998C287.768 265.13 282.576 274.456 276.562 283.031C268.363 294.72 261.65 302.811 256.477 307.304C248.458 314.679 239.865 318.456 230.664 318.671C224.059 318.671 216.093 316.791 206.821 312.978C197.518 309.183 188.968 307.304 181.151 307.304C172.953 307.304 164.16 309.183 154.755 312.978C145.335 316.791 137.747 318.778 131.946 318.975C123.122 319.351 114.328 315.467 105.549 307.304C99.9463 302.417 92.9382 294.039 84.5428 282.171C75.5352 269.498 68.1297 254.801 62.328 238.046C56.1147 219.948 53 202.424 53 185.457C53 166.023 57.1995 149.26 65.611 135.214C72.2218 123.931 81.0164 115.031 92.0235 108.497C103.031 101.963 114.924 98.6337 127.732 98.4207C134.74 98.4207 143.93 100.588 155.351 104.849C166.739 109.123 174.052 111.291 177.258 111.291C179.655 111.291 187.778 108.757 201.549 103.703C214.572 99.0168 225.563 97.0763 234.567 97.8407C258.965 99.8098 277.296 109.428 289.486 126.756C267.665 139.977 256.871 158.495 257.086 182.251C257.283 200.755 263.995 216.154 277.188 228.38C283.167 234.054 289.844 238.44 297.273 241.555C295.662 246.227 293.961 250.702 292.153 254.998ZM236.196 34.8016C236.196 49.3049 230.897 62.8466 220.336 75.3807C207.59 90.2812 192.174 98.8915 175.457 97.5328C175.244 95.7929 175.12 93.9616 175.12 92.0373C175.12 78.1141 181.181 63.2136 191.945 51.0304C197.319 44.8618 204.153 39.7327 212.441 35.6412C220.712 31.6106 228.534 29.3816 235.891 29C236.106 30.9388 236.196 32.8778 236.196 34.8014V34.8016Z" fill="white"/>
</svg>
