<svg width="360" height="360" viewBox="0 0 360 360" fill="none" xmlns="http://www.w3.org/2000/svg">
<rect width="360" height="360" rx="82" fill="#143B6D"/>
<path d="M307.638 269.234C290.085 269.234 283.064 262.213 280.723 248.17L276.043 228.277C271.362 236.468 247.957 269.234 196.468 269.234C196.468 269.234 170.723 269.234 143.809 269.234C64.234 269.234 42 215.404 42 175.617C42 131.149 68.9149 82 143.809 82C159.021 82 175.404 82 199.979 82C257.319 82 288.915 114.766 295.936 155.723C301.787 189.66 317 269.234 317 269.234C317 269.234 313.489 269.234 307.638 269.234ZM191.787 111.255C173.064 111.255 168.383 111.255 147.319 111.255C93.4894 111.255 75.9362 145.192 75.9362 175.617C75.9362 206.043 93.4894 239.979 147.319 239.979C169.553 239.979 176.574 239.979 191.787 239.979C247.957 239.979 263.17 204.872 263.17 175.617C263.17 149.872 249.128 111.255 191.787 111.255Z" fill="white"/>
</svg>
