<svg width="360" height="360" viewBox="0 0 360 360" fill="none" xmlns="http://www.w3.org/2000/svg">
<rect width="360" height="360" rx="82" fill="#00529B"/>
<path d="M89.8268 66.3867C61.4815 78.2371 46 99.6204 46 99.6204C50.2691 98.9636 54.4069 95.0885 58.7981 93.409C103.704 76.0791 137.745 82.1122 178.25 115.777C211.474 146.149 223.766 191.918 212.638 236.524C207.214 255.655 197.907 273.877 184.461 289.264C228.541 264.184 253.105 217.777 248.33 166.97C244.06 128.829 216.606 89.8717 182.134 73.4988C169.636 67.0341 136.891 48.9348 89.8268 66.3867Z" fill="white"/>
<path d="M184.316 291.545C222.814 280.399 259.557 243.797 269.136 204.849C280.508 160.891 269.005 115.516 234.739 85.3877H289V291.545" fill="white"/>
<path d="M82.2666 291.545H175.494C160.678 262.806 135.204 241.066 105.376 230.839C101.801 256.641 93.3476 278.503 82.2666 291.545Z" fill="white"/>
<path d="M107.801 175.631C106.919 175.237 106.028 174.871 105.146 174.505C106.619 183.503 107.445 193.12 107.445 203.225C107.445 205.665 107.388 208.076 107.304 210.478C137.667 224.243 163.216 250.758 173.856 281.515L177.356 291.977C178.772 243.365 152.266 196.32 107.801 175.631Z" fill="white"/>
<path d="M134.433 117.066C114.344 107.412 91.0471 102.504 66.4644 106.164C77.2827 110.423 88.542 124 96.5079 143.873C131.252 154.701 161.577 182.624 173.859 216.355C183.552 239.361 184.33 266.515 179.16 291.98C190.542 276.207 196.481 257.723 199.071 238.066C204.625 187.259 179.423 139.688 134.433 117.066Z" fill="white"/>
</svg>
