<svg width="360" height="360" viewBox="0 0 360 360" fill="none" xmlns="http://www.w3.org/2000/svg">
<rect width="360" height="360" rx="82" fill="#C7FFEB"/>
<path d="M121.068 171.884C100.284 171.884 83.3027 189.508 83.3027 210.881V237.933C83.3027 259.306 100.284 276.93 121.068 276.93H138.049C158.833 276.93 175.814 259.306 175.814 237.933V210.881C175.814 189.508 158.833 171.884 138.049 171.884H121.068ZM99.6944 238.576V211.524C99.6944 198.936 109.122 188.865 121.068 188.865H138.049C149.994 188.865 159.422 198.936 159.422 211.524V238.576C159.422 251.164 149.994 261.235 138.049 261.235H121.068C109.122 261.235 99.6944 251.164 99.6944 238.576ZM107.837 58C88.3381 58 72 74.9809 72 95.1222V120.942C72 141.726 88.3381 158.064 107.837 158.064H123.585C143.727 158.064 159.422 141.083 159.422 120.942V95.1222C160.065 74.9809 143.673 58 124.175 58H107.837ZM88.3381 120.942V95.1222C88.3381 83.8195 97.1231 74.3381 107.837 74.3381H123.585C134.299 74.3381 143.084 83.7659 143.084 95.1222V120.942C143.084 132.244 134.299 141.726 123.585 141.726H107.837C97.1767 141.726 88.3381 132.244 88.3381 120.942Z" fill="#005DAA"/>
<path d="M234.308 178.205C209.132 178.205 188.99 199.579 188.99 226.041V260.645C188.99 287.054 209.132 308.481 234.308 308.481H255.682C280.858 308.481 301 287.108 301 260.645V226.041C301 199.632 280.858 178.205 255.682 178.205H234.308ZM205.382 260.592V225.987C205.382 209.006 218.613 194.543 234.308 194.543H255.682C271.43 194.543 284.608 208.364 284.608 225.987V260.592C284.608 277.573 271.377 292.036 255.682 292.036H234.308C217.97 292.09 205.382 277.573 205.382 260.592ZM209.774 64.3208C189.633 64.3208 173.295 81.3017 173.295 102.086V127.905C173.295 148.69 189.633 165.67 209.774 165.67H226.112C246.254 165.67 262.592 148.69 262.592 127.905V102.086C262.592 81.3017 246.254 64.3208 226.112 64.3208H209.774ZM190.276 127.852V102.086C190.276 90.7831 199.061 81.3017 210.417 81.3017H226.755C237.469 81.3017 246.897 90.7295 246.897 102.086V127.905C246.897 139.208 238.111 149.279 226.755 149.279H210.417C199.114 148.636 190.276 139.208 190.276 127.852Z" fill="#A30046"/>
</svg>
