<svg width="360" height="360" viewBox="0 0 360 360" fill="none" xmlns="http://www.w3.org/2000/svg">
<rect width="360" height="360" rx="82" fill="#0096D7"/>
<path d="M269.724 83H59V115.369H259.204V115.394C264.994 115.394 269.649 120.074 269.649 125.833V234.588L269.606 234.663C269.556 240.421 264.882 245.045 259.142 245.045H101.82C96.0556 245.045 91.357 240.384 91.357 234.588V190.634C91.357 184.863 96.0556 180.195 101.82 180.195H237.193V147.838H91.2764C73.4429 147.838 59 162.262 59 180.09V245.126C59 262.947 73.4429 277.409 91.2764 277.409H269.724C287.57 277.409 302 262.947 302 245.126V115.276C302 97.4491 287.57 83 269.724 83Z" fill="white"/>
</svg>
