<svg width="360" height="360" viewBox="0 0 360 360" fill="none" xmlns="http://www.w3.org/2000/svg">
<rect width="360" height="360" rx="82" fill="#123F6E"/>
<path d="M313.229 249.541C313.229 246.592 310.793 244.155 307.844 244.155H49.9774C47.0281 244.155 44.5918 246.592 44.5918 249.541C44.5918 252.49 47.0281 254.926 49.9774 254.926H307.844C310.793 254.926 313.229 252.49 313.229 249.541Z" fill="white"/>
<path d="M195.639 205.174C195.639 206.328 194.742 207.225 193.588 207.225C192.434 207.225 191.536 206.328 191.536 205.174V134.648C191.536 133.494 192.434 132.597 193.588 132.597C194.742 132.597 195.639 133.494 195.639 134.648V205.174ZM214.745 223.254H209.231C207.052 223.254 205.385 221.587 205.385 219.407C205.385 217.355 206.923 215.688 208.847 215.432H209.873C212.181 215.432 214.104 213.508 214.104 211.329C214.104 209.02 212.052 207.225 209.873 207.225C208.077 206.841 206.795 205.045 206.795 203.122V112.465C206.795 110.67 208.334 109.131 210.129 109.131H212.822C216.925 109.131 220.387 105.797 220.387 101.694C220.387 97.5904 217.053 94.1282 212.822 94.1282L142.04 94C137.937 94 134.475 97.3339 134.475 101.565C134.475 105.669 137.809 109.131 142.04 109.131H145.246C147.169 109.131 148.323 110.413 148.58 111.952C148.58 112.08 148.58 112.208 148.58 112.465V177.989C148.58 179.272 148.58 179.272 148.58 177.989V112.465C148.58 112.337 148.58 112.208 148.58 111.952V189.914C148.58 191.325 149.606 192.351 150.888 192.351C152.17 192.351 153.196 191.197 153.196 189.914V177.989V114.901C153.196 114.388 153.324 114.004 153.324 113.491C153.965 111.054 156.145 109.259 158.71 109.259C161.787 109.259 164.223 111.695 164.223 114.773V196.454C164.223 198.634 166.019 200.429 168.199 200.429C170.378 200.429 172.302 198.634 172.302 196.454V121.825C172.43 119.902 174.097 117.85 176.533 117.85C179.098 117.85 180.893 120.03 180.893 122.082V203.122C180.893 205.302 179.098 207.097 177.046 207.097H148.836C146.528 207.097 144.605 208.892 144.605 211.2C144.605 213.508 146.528 215.304 148.836 215.304H177.046C179.226 215.304 181.021 217.227 181.021 219.407C181.021 221.587 179.226 223.254 177.046 223.254H143.451C140.501 223.254 138.065 225.562 138.065 228.511C138.065 231.46 140.501 233.768 143.451 233.768H214.873C217.823 233.768 220.131 231.332 220.131 228.511C220.131 225.562 217.695 223.254 214.745 223.254Z" fill="white"/>
<path d="M287.84 205.173C287.84 206.327 286.943 207.225 285.789 207.225C284.635 207.225 283.737 206.327 283.737 205.173V162.474C283.737 161.319 284.635 160.422 285.789 160.422C286.943 160.422 287.84 161.319 287.84 162.474V205.173ZM314.64 119.902H225.137C222.701 119.902 220.777 121.825 220.777 124.262C220.777 126.698 222.701 128.621 225.137 128.621C233.472 128.621 240.396 135.417 240.781 143.624V190.171C240.781 191.453 241.807 192.479 243.089 192.479C244.371 192.479 245.397 191.453 245.397 190.171V178.63C245.397 178.502 245.397 178.374 245.397 178.117V142.983C245.397 139.905 247.833 137.469 250.911 137.469C253.988 137.469 256.425 139.905 256.425 142.983V196.839C256.425 199.018 258.22 200.814 260.4 200.814C262.58 200.814 264.503 199.018 264.503 196.839V149.907C264.631 147.984 266.298 145.932 268.735 145.932C271.299 145.932 273.094 147.984 273.094 150.164V203.506C273.094 205.686 271.299 207.353 269.119 207.353H241.037C238.729 207.353 236.806 209.148 236.806 211.457C236.806 213.765 238.729 215.56 241.037 215.56H269.376C271.556 215.56 273.351 217.483 273.351 219.663C273.351 221.843 271.556 223.51 269.376 223.51H235.78C232.831 223.51 230.394 225.818 230.394 228.767C230.394 231.717 232.831 234.153 235.78 234.153H307.203C310.152 234.153 312.588 231.717 312.588 228.767C312.588 225.818 310.024 223.51 307.075 223.51H301.561C299.381 223.51 297.714 221.843 297.714 219.663C297.714 217.74 299.253 215.945 301.176 215.688H302.202C304.51 215.688 306.434 213.893 306.434 211.585C306.434 209.277 304.382 207.482 302.074 207.482C301.817 207.482 301.561 207.353 301.433 207.225C300.022 206.584 298.996 205.045 298.996 203.378V144.65C299.125 136.059 306.049 128.75 314.64 128.75C317.076 128.75 319 126.826 319 124.39C319 121.825 316.948 119.902 314.64 119.902Z" fill="white"/>
<path d="M102.806 205.174C102.806 206.328 101.908 207.225 100.754 207.225C99.6002 207.225 98.7026 206.328 98.7026 205.174V162.474C98.7026 161.32 99.6002 160.422 100.754 160.422C101.908 160.422 102.806 161.32 102.806 162.474V205.174ZM114.218 134.648V134.905C114.218 134.905 114.218 134.905 114.218 134.648C114.218 134.777 114.218 134.777 114.218 134.648ZM122.425 223.254H116.911C114.731 223.254 113.064 221.587 113.064 219.407C113.064 217.355 114.603 215.688 116.526 215.432H117.424C119.732 215.432 121.655 213.509 121.655 211.329C121.655 209.021 119.604 207.225 117.424 207.225C115.629 206.841 114.346 205.174 114.346 203.25V166.962C114.346 166.962 114.346 145.291 114.346 141.829V141.316C114.346 141.06 114.346 140.932 114.346 140.675C114.346 140.675 114.346 136.572 114.346 136.444C114.346 134.905 115.629 133.623 117.167 133.623C117.552 133.623 117.937 133.751 118.321 133.879C119.219 134.264 120.373 134.648 121.527 134.648H121.655C122.297 134.648 123.066 134.52 123.707 134.392C127.169 133.494 129.734 130.417 129.734 126.57C129.734 122.851 127.169 119.646 123.707 118.748C122.938 118.62 122.168 118.62 121.271 118.492C121.142 118.492 121.142 118.492 121.014 118.492H114.603H108.063H49.3348H49.2066C49.463 118.492 49.7195 118.492 49.976 118.492C49.7195 118.492 49.463 118.492 49.2066 118.492C48.309 118.492 47.4114 118.62 46.642 118.876C43.4363 119.902 41 122.98 41 126.57C41 130.032 43.3081 132.981 46.3856 134.135C47.1549 134.392 48.0525 134.648 49.0784 134.648C49.2066 134.648 49.3348 134.648 49.463 134.648C50.4889 134.648 51.3865 134.392 52.2841 134.007C52.6687 133.879 53.0534 133.751 53.4381 133.751C54.9768 133.751 56.2591 135.033 56.2591 136.572V137.726C56.2591 137.726 56.2591 139.265 56.2591 141.701C56.2591 151.831 56.3874 177.989 56.3874 177.989C56.3874 178.118 56.3874 178.246 56.3874 178.246V190.043C56.3874 191.325 57.4132 192.351 58.6955 192.351C59.9777 192.351 61.0036 191.325 61.0036 190.043V142.599C61.0036 139.521 63.5681 137.085 66.5174 137.085C69.5948 137.085 72.0312 139.521 72.0312 142.599V156.447V196.454C72.0312 198.634 73.8264 200.429 76.0062 200.429C78.1861 200.429 80.1095 198.634 80.1095 196.454V158.371V149.779C80.2378 147.856 81.9047 145.804 84.3411 145.804C86.9056 145.804 88.7008 147.856 88.7008 150.036V160.679V203.25C88.7008 205.43 86.9056 207.097 84.7257 207.097H56.6438C54.3357 207.097 52.4123 208.892 52.4123 211.2C52.4123 213.509 54.3357 215.304 56.6438 215.304H84.9822C87.1621 215.304 88.9573 217.227 88.9573 219.407C88.9573 221.587 87.1621 223.254 84.9822 223.254H51.2582C48.309 223.254 45.8727 225.562 45.8727 228.511C45.8727 231.46 48.309 233.769 51.13 233.769H122.553C125.502 233.769 127.939 231.332 127.939 228.511C127.81 225.562 125.374 223.254 122.425 223.254Z" fill="white"/>
</svg>
