<svg width="360" height="360" viewBox="0 0 360 360" fill="none" xmlns="http://www.w3.org/2000/svg">
<rect width="360" height="360" rx="82" fill="black"/>
<path fill-rule="evenodd" clip-rule="evenodd" d="M171.088 81.4507L155.424 156.218V29L202.403 91.2342L171.088 81.4507Z" fill="white"/>
<path fill-rule="evenodd" clip-rule="evenodd" d="M247.167 106.945L180.693 144.575L276.207 60.5459L260.503 136.928L247.167 106.945Z" fill="#007EBF"/>
<path fill-rule="evenodd" clip-rule="evenodd" d="M278.303 177.663L205.35 155.03L332 167.009L265.613 207.916L278.303 177.663Z" fill="white"/>
<path fill-rule="evenodd" clip-rule="evenodd" d="M237.067 257.902L213.999 185.087L276.458 295.915L204.98 264.752L237.067 257.902Z" fill="#007EBF"/>
<path fill-rule="evenodd" clip-rule="evenodd" d="M155.595 272.36L196.872 208.088L151.528 326.947L129.818 252.054L155.595 272.36Z" fill="white"/>
<path fill-rule="evenodd" clip-rule="evenodd" d="M89.7416 212.518L166.031 208.622L43 241.011L91.2315 179.74L89.7416 212.518Z" fill="#007EBF"/>
<path fill-rule="evenodd" clip-rule="evenodd" d="M98.2653 126.86L147.835 184.981L47.1924 107.162L125.157 108.071L98.2653 126.86Z" fill="white"/>
</svg>
