<svg width="360" height="360" viewBox="0 0 360 360" fill="none" xmlns="http://www.w3.org/2000/svg">
<rect width="360" height="360" rx="82" fill="#1F4388"/>
<path opacity="0.9" d="M284.674 142.498H216.272C216.202 142.496 216.147 142.439 216.148 142.369V71.4802C216.105 69.0495 218.04 67.0442 220.471 67H164.891C152.584 67.2238 142.786 77.3781 143.002 89.6856V142.652H215.878C215.946 142.653 216.001 142.709 215.999 142.777V218.304H267.172C279.443 218.081 289.212 207.957 288.997 195.686V138.018C289.04 140.448 287.105 142.454 284.674 142.498Z" fill="white"/>
<path opacity="0.9" d="M143.001 217.575V142.652H92.405C79.8098 142.881 69.7827 153.273 70.0036 165.868V218.744C70 218.543 70.1601 218.377 70.3612 218.373H142.577C142.779 218.376 142.939 218.542 142.935 218.744V293.586C142.939 293.787 142.779 293.953 142.577 293.956H194.319C206.509 293.735 216.213 283.678 215.999 271.489V218.304H143.705C143.309 218.297 142.994 217.971 143.001 217.575Z" fill="white"/>
<path opacity="0.3" d="M215.878 142.652H143.001V217.575C142.994 217.971 143.309 218.297 143.705 218.304H215.999V142.778C216 142.71 215.946 142.654 215.878 142.652Z" fill="white"/>
<path opacity="0.3" d="M142.935 293.586V218.744C142.938 218.543 142.778 218.377 142.577 218.373H70.3608C70.1597 218.377 69.9996 218.543 70.0031 218.744V292.672C69.9909 293.369 70.5457 293.944 71.2425 293.957H142.577C142.778 293.953 142.938 293.787 142.935 293.586Z" fill="white"/>
<path opacity="0.3" d="M288.109 67H220.471C218.041 67.0442 216.106 69.0495 216.148 71.4802V142.369C216.147 142.439 216.202 142.497 216.272 142.498H284.674C287.105 142.454 289.04 140.448 288.997 138.018V67.9208C289.006 67.4212 288.608 67.0091 288.109 67Z" fill="white"/>
</svg>
