<svg width="360" height="360" viewBox="0 0 360 360" fill="none" xmlns="http://www.w3.org/2000/svg">
<rect width="360" height="360" rx="82" fill="#ED1C24"/>
<path d="M204.241 56H273V220.615L204.241 56Z" fill="white"/>
<path d="M155.799 56H87V220.615L155.799 56Z" fill="white"/>
<path d="M149.955 187.495L180.028 116.656L223.833 220.606H195.131L182.027 187.495H149.955Z" fill="white"/>
<path d="M109.154 277.637L106.907 264.328C106.266 260.492 105.447 254.497 104.822 250.344H104.579C103.922 254.528 103.005 260.693 102.332 264.36L99.9142 277.637H109.154ZM98.7072 286.31L95.7872 301.08H85L98.456 239.63H111.677L123.9 301.08H113.056L110.201 286.31H98.7072Z" fill="white"/>
<path d="M148.453 273.632C148.453 272.812 148.453 271.855 148.291 270.978C147.861 267.945 146.247 265.212 143.651 265.212C139.198 265.212 137.56 271.628 137.56 279.131C137.56 287.752 139.895 292.66 143.497 292.66C145.144 292.66 147.041 291.816 148.072 288.198C148.323 287.476 148.453 286.511 148.453 285.384V273.632ZM159.525 238V288.337C159.525 292.326 159.728 297.235 159.891 301.071H150.328L149.704 295.952H149.477C147.871 299.108 144.375 301.792 140.197 301.792C131.04 301.792 126.499 291.686 126.499 278.927C126.499 263.379 133.27 255.819 140.652 255.819C144.513 255.819 147.011 257.709 148.269 260.443H148.455V238H159.525Z" fill="white"/>
<path d="M182.584 293.301C186.81 293.301 187.856 285.336 187.856 278.741C187.856 272.472 186.81 264.302 182.398 264.302C177.725 264.302 176.744 272.472 176.744 278.741C176.744 286.309 177.977 293.301 182.486 293.301H182.584ZM182.373 301.793C172.17 301.793 165.77 293.601 165.77 278.937C165.77 262.933 173.986 255.819 182.633 255.819C192.699 255.819 199.009 264.41 199.009 278.677C199.009 297.008 189.122 301.793 182.463 301.793H182.373Z" fill="white"/>
<path d="M216.269 285.173C216.269 286.284 216.472 287.323 216.708 288.019C217.819 291.744 219.701 292.66 221.209 292.66C225.492 292.66 227.22 287.233 227.22 278.554C227.22 270.653 225.394 265.212 221.16 265.212C219.06 265.212 217.291 267.492 216.683 269.941C216.471 270.711 216.269 271.911 216.269 272.739V285.173ZM205.196 238H216.268V261.197H216.446C218.627 257.774 221.532 255.819 225.749 255.819C234.096 255.819 238.289 265.309 238.289 277.719C238.289 293.399 232.035 301.792 223.932 301.792C220.071 301.792 217.5 300.08 215.18 295.742H214.946L214.331 301.071H204.824C204.987 297.381 205.196 292.326 205.196 288.337V238Z" fill="white"/>
<path d="M264.822 274.564C264.879 268.311 263.045 263.929 259.533 263.929C255.526 263.929 253.823 269.795 253.702 274.564H264.822ZM253.661 282.393C253.791 290.446 258.025 293.067 263.281 293.067C266.614 293.067 269.469 292.327 271.578 291.534L273.071 299.499C270.134 300.763 265.6 301.558 261.252 301.558C249.37 301.558 242.88 293.438 242.88 279.569C242.88 264.686 250.408 255.746 260.238 255.746C269.736 255.746 275 263.647 275 276.543C275 279.496 274.878 281.159 274.683 282.455L253.661 282.393Z" fill="white"/>
</svg>
