<svg width="360" height="360" viewBox="0 0 360 360" fill="none" xmlns="http://www.w3.org/2000/svg">
<rect width="360" height="360" rx="82" fill="#004693"/>
<path d="M156.839 281.584C206.846 269.413 217.507 211.56 217.475 164.368C217.451 129.208 211.505 99.9612 211.505 99.9612C99.9838 143.13 74.8708 184.071 74.6484 212.015C74.6484 222.367 77.5933 230.748 79.9588 234.271L80.151 234.168C79.3259 231.28 78.1466 225.581 78.1466 220.84C77.9145 196.01 99.296 159.712 199.254 121.016C199.254 121.016 204.564 147.012 204.608 178.228C204.674 218.435 196.591 267.167 156.554 281.352L156.839 281.584ZM91.513 293.023C91.7451 288.66 94.8052 276.467 101.267 258.397C113.369 224.494 139.036 175.142 186.594 159.73L186.668 173.048C186.668 173.048 140.709 187.747 105.668 260.115C98.6205 274.674 93.8154 289.655 91.8563 293.098L91.513 293.023Z" fill="#6ABD45"/>
<path d="M216.168 91.3554C173.66 107.554 141.312 123.721 117.827 140.147C94.1435 156.712 79.26 173.52 72.3187 191.553C70.6396 195.897 68.9029 202 68.5913 208.083C63.4223 203.76 61.9382 202.531 59.5233 200.517C51.9998 194.236 44 187.032 44 175.496C44 163.965 51.9998 156.752 59.5233 150.487C75.8896 136.848 167.459 60.5559 174.535 54.6497C176.782 52.7729 178.165 52 180.072 52C181.965 52 183.346 52.7729 185.595 54.6497C192.666 60.5559 284.248 136.848 300.614 150.487C308.127 156.752 316.122 163.965 316.122 175.496C316.122 187.032 308.127 194.236 300.614 200.517C284.248 214.157 192.666 290.441 185.595 296.331C183.346 298.228 181.965 299 180.072 299C178.165 299 176.782 298.228 174.535 296.331C173.035 295.089 170.342 292.833 162.774 286.533C185.906 279.523 202.439 262.174 212.204 237.545C219.932 218.065 223.852 193.444 223.852 164.374C223.852 128.268 217.796 98.062 216.168 91.3554Z" fill="white"/>
</svg>
