<svg width="360" height="360" viewBox="0 0 360 360" fill="none" xmlns="http://www.w3.org/2000/svg">
<rect width="360" height="360" rx="82" fill="#EE2722"/>
<g clip-path="url(#clip0)">
<path d="M290.656 231.643V228.502H292.962C294.497 228.502 294.912 228.975 294.912 229.894C294.912 230.834 294.497 231.592 292.689 231.643H290.656ZM292.274 233.56C292.937 233.619 293.575 233.56 294.056 234.063C294.606 234.646 294.606 235.623 294.745 236.68C294.832 237.402 295.025 238.181 295.164 238.874H297.613C297.193 237.766 297.055 236.483 296.888 235.317C296.691 233.983 296.501 233.232 294.803 232.897V232.839C296.446 232.503 297.307 231.395 297.307 229.974C297.307 227.197 294.967 226.585 292.718 226.585H288.738V238.874H290.656V233.56H292.274ZM292.882 243.349C298.673 243.349 303.312 238.684 303.312 232.868C303.312 227.109 298.673 222.437 292.882 222.437C287.069 222.437 282.397 227.109 282.397 232.868C282.397 238.684 287.069 243.349 292.882 243.349ZM292.882 241.52C288.1 241.52 284.238 237.649 284.238 232.868C284.238 228.145 288.1 224.274 292.882 224.274C297.642 224.274 301.483 228.145 301.483 232.868C301.483 237.649 297.642 241.52 292.882 241.52Z" fill="white"/>
<path d="M275.203 137.797H258.406V154.576H275.203C279.19 154.576 282.397 157.823 282.397 161.786C282.397 165.777 279.19 168.984 275.203 168.984H258.406V185.778H275.203C288.458 185.778 299.195 175.03 299.195 161.786C299.195 148.539 288.458 137.797 275.203 137.797ZM179.478 226.585C199.585 226.585 216.914 214.809 225.009 197.768H246.42V226.585H258.406V197.768H275.203C295.091 197.768 311.203 181.656 311.203 161.786C311.203 141.911 295.091 125.794 275.203 125.794H246.42V168.984H229.337C225.854 144.575 204.858 125.794 179.478 125.794H120.409L61.6512 226.585H75.668L92.4617 197.768H152.844V226.585H179.478ZM328 161.786C328 190.935 304.359 214.561 275.203 214.561V243.349H229.629V220.892C217.3 234.675 199.417 243.349 179.478 243.349H136.047V214.561H102.103L85.3094 243.349H32L110.36 109H179.478C199.417 109 217.3 117.698 229.629 131.483V109H275.203C304.359 109 328 132.646 328 161.786ZM136.047 137.797V168.984H109.255L99.4697 185.778H152.844V137.797H136.047ZM217.876 176.175C217.876 197.378 200.678 214.561 179.478 214.561H164.838V197.768H179.478C191.414 197.768 201.086 188.114 201.086 176.175C201.086 164.261 191.414 154.576 179.478 154.576H164.838V137.797H179.478C200.678 137.797 217.876 154.98 217.876 176.175Z" fill="white"/>
<path d="M275.203 137.797H258.406V154.576H275.203C279.19 154.576 282.397 157.823 282.397 161.786C282.397 165.777 279.19 168.984 275.203 168.984H258.406V185.778H275.203C288.458 185.778 299.195 175.03 299.195 161.786C299.195 148.539 288.458 137.797 275.203 137.797ZM179.478 226.585C199.585 226.585 216.914 214.809 225.009 197.768H246.42V226.585H258.406V197.768H275.203C295.091 197.768 311.203 181.656 311.203 161.786C311.203 141.911 295.091 125.794 275.203 125.794H246.42V168.984H229.337C225.854 144.575 204.858 125.794 179.478 125.794H120.409L61.6512 226.585H75.668L92.4617 197.768H152.844V226.585H179.478ZM328 161.786C328 190.935 304.359 214.561 275.203 214.561V243.349H229.629V220.892C217.3 234.675 199.417 243.349 179.478 243.349H136.047V214.561H102.103L85.3094 243.349H32L110.36 109H179.478C199.417 109 217.3 117.698 229.629 131.483V109H275.203C304.359 109 328 132.646 328 161.786ZM136.047 137.797V168.984H109.255L99.4697 185.778H152.844V137.797H136.047ZM217.876 176.175C217.876 197.378 200.678 214.561 179.478 214.561H164.838V197.768H179.478C191.414 197.768 201.086 188.114 201.086 176.175C201.086 164.261 191.414 154.576 179.478 154.576H164.838V137.797H179.478C200.678 137.797 217.876 154.98 217.876 176.175Z" fill="white"/>
<path d="M275.203 137.797H258.406V154.576H275.203C279.19 154.576 282.397 157.823 282.397 161.786C282.397 165.777 279.19 168.984 275.203 168.984H258.406V185.778H275.203C288.458 185.778 299.195 175.03 299.195 161.786C299.195 148.539 288.458 137.797 275.203 137.797ZM179.478 226.585C199.585 226.585 216.914 214.809 225.009 197.768H246.42V226.585H258.406V197.768H275.203C295.091 197.768 311.203 181.656 311.203 161.786C311.203 141.911 295.091 125.794 275.203 125.794H246.42V168.984H229.337C225.854 144.575 204.858 125.794 179.478 125.794H120.409L61.6512 226.585H75.668L92.4617 197.768H152.844V226.585H179.478ZM328 161.786C328 190.935 304.359 214.561 275.203 214.561V243.349H229.629V220.892C217.3 234.675 199.417 243.349 179.478 243.349H136.047V214.561H102.103L85.3094 243.349H32L110.36 109H179.478C199.417 109 217.3 117.698 229.629 131.483V109H275.203C304.359 109 328 132.646 328 161.786ZM136.047 137.797V168.984H109.255L99.4697 185.778H152.844V137.797H136.047ZM217.876 176.175C217.876 197.378 200.678 214.561 179.478 214.561H164.838V197.768H179.478C191.414 197.768 201.086 188.114 201.086 176.175C201.086 164.261 191.414 154.576 179.478 154.576H164.838V137.797H179.478C200.678 137.797 217.876 154.98 217.876 176.175Z" fill="white"/>
</g>
<defs>
<clipPath id="clip0">
<rect x="32" y="109" width="296" height="134.349" fill="white"/>
</clipPath>
</defs>
</svg>
