<svg width="360" height="360" viewBox="0 0 360 360" fill="none" xmlns="http://www.w3.org/2000/svg">
<rect width="360" height="360" rx="82" fill="#E51635"/>
<path d="M179.083 90.2012C179.083 89.8343 179.817 89.8344 180.183 89.8344C180.55 89.8344 180.917 89.8343 181.284 90.2012L290.243 289.775C317.757 261.527 335 223.373 335 180.817C335 95.3373 265.663 26 180.183 26C94.3373 26 25 95.3373 25 180.817C25 223.373 42.2426 261.893 70.1243 289.775" fill="white"/>
<path d="M217.237 187.42L206.598 217.136L259.793 313.988C261.994 312.521 264.195 311.053 266.763 309.586C251.355 271.432 233.379 226.308 217.237 187.42Z" fill="white"/>
<path d="M193.026 223.74L180.186 190.355L167.346 223.74L180.186 247.219" fill="white"/>
<path d="M167.707 239.148L133.955 326.462C136.523 327.562 139.091 328.296 142.026 329.03L176.878 264.829" fill="white"/>
<path d="M189.723 265.196L224.942 329.397C227.51 328.663 229.711 327.929 232.646 326.829L199.261 239.148" fill="white"/>
<path d="M144.596 182.651L158.17 207.231L175.045 176.781L161.471 141.562C156.335 154.035 150.466 167.609 144.596 182.651Z" fill="white"/>
<path d="M142.761 187.42C127.353 226.308 109.01 271.799 93.6016 309.586C95.8027 311.053 98.0039 312.521 100.939 313.621L153.767 216.769" fill="white"/>
<path d="M215.399 182.651C209.163 167.609 203.66 153.669 198.89 141.562L185.316 176.781L201.825 207.231" fill="white"/>
<path d="M162.939 136.793L180.182 167.976L196.691 136.793C186.786 112.946 180.549 96.4375 180.182 95.3369C179.448 96.4375 172.845 112.946 162.939 136.793Z" fill="white"/>
<path d="M180.186 291.976L165.512 334.533C169.914 334.899 175.05 334.899 180.186 334.899C184.956 334.899 190.092 334.899 194.861 334.533" fill="white"/>
</svg>
