<svg width="360" height="360" viewBox="0 0 360 360" fill="none" xmlns="http://www.w3.org/2000/svg">
<rect width="360" height="360" rx="82" fill="#0061AA"/>
<path fill-rule="evenodd" clip-rule="evenodd" d="M105.472 0L0 105.407V254.593L105.472 360H254.515L360 254.593V105.407L254.515 0H105.472Z" fill="#0061AA"/>
<path d="M184.65 238.275H145.139V121.712H184.65C218.091 121.712 243.178 146.462 243.178 179.916C243.178 213.37 218.091 238.275 184.65 238.275ZM184.65 147.124H170.55V212.708H184.65C203.991 212.708 217.767 199.425 217.767 179.916C217.767 160.407 203.991 147.124 184.65 147.124Z" fill="white"/>
<path d="M246.395 240.545V149.238H212.033V119.767H311.006V149.238H276.346V240.545H246.395Z" fill="white"/>
<path d="M308.723 122.037V146.968H274.076V238.275H248.664V146.968H214.303V122.037H308.736H308.723ZM313.276 117.497H209.763V151.456H244.124V242.763H278.577V151.456H313.237V117.497H313.276Z" fill="#0061AA"/>
<path d="M141.079 240.545L135.047 228.624H86.3128L80.1124 240.545H47.5537L110.686 116.991L173.65 240.545H141.079ZM120.324 199.944L110.673 180.979L100.867 199.944H120.324Z" fill="white"/>
<path d="M110.673 121.985L169.928 238.275H142.454L136.422 226.354H84.9378L78.7374 238.275H51.2636L110.673 121.985ZM97.17 202.214H124.021L110.673 175.998L97.17 202.214ZM110.686 111.997L106.639 119.922L47.2295 236.212L43.792 242.815H81.4095L82.7067 240.363L87.6359 230.894H133.568L138.342 240.324L139.639 242.815H177.256L173.897 236.212L114.721 119.922L110.686 111.997ZM104.629 197.609L110.66 185.935L116.627 197.609H104.629Z" fill="#0061AA"/>
</svg>
