<svg width="360" height="360" viewBox="0 0 360 360" fill="none" xmlns="http://www.w3.org/2000/svg">
<rect width="360" height="360" rx="82" fill="#0095D6"/>
<path d="M277.423 240.27L65.3594 236.09L80.5666 117.931L293.595 120.745L277.423 240.27Z" fill="white"/>
<path d="M248.095 158.128L246.129 172.812H253.337L254.642 172.528L255.673 172.157L256.699 171.502L257.634 170.476L258.574 169.348L259.315 167.855L259.691 166.077L259.879 164.488L259.594 162.898L259.036 161.211L257.73 159.53L256.511 158.687L255.013 158.22L253.987 158.128H248.095Z" fill="#ED3426"/>
<path d="M106.699 188.614H118.762L116.792 162.146L106.699 188.614Z" fill="#ED3426"/>
<path d="M99.5882 207.413H120.347L121.099 217.139H202.189L204.983 196.005H180.297L181.42 188.147H206.014L208.817 166.636H184.127L185.346 158.032H209.94L212.744 136.71H158.69L149.152 209.002L138.49 136.71H101.65L69.1026 208.723L68.6302 209.561L86.7733 72H300L288.216 160.46L287.749 157.189L287.002 154.482L286.154 152.516L285.042 150.459L283.63 148.493L282.324 146.807L280.643 145.222L278.581 143.353L276.153 141.667L273.72 140.27L271.196 139.051L268.016 137.928L265.116 137.273L261.372 136.806L259.879 136.71H221.256L210.687 217.139H240.334L243.422 193.389H260.814L262.967 193.292L267.64 192.449L270.449 191.515L273.253 190.204L275.594 188.894L277.931 187.309L280.455 184.967L281.765 183.378L283.63 180.853L284.757 178.893L285.595 176.927L286.438 174.494L272.13 282.789H59L67.6957 217.139H95.9413L99.5882 207.413Z" fill="#ED3426"/>
</svg>
