<svg width="360" height="360" viewBox="0 0 360 360" fill="none" xmlns="http://www.w3.org/2000/svg">
<rect width="360" height="360" rx="82" fill="#FAFF00"/>
<path d="M232.948 182.913L336.268 143.449C337.891 151.255 339.363 159.437 340 168.479L233.632 185.138C233.4 184.491 233.261 183.878 232.948 182.913Z" fill="#EF3120"/>
<path d="M152.399 182.369L30 152.736C31.9009 142.175 36.2011 126.823 40.5708 117.71L153.175 180.097C152.758 180.956 152.549 181.675 152.399 182.369Z" fill="#3F9B2C"/>
<path d="M219.986 162.875L288.464 63.4964C296.404 70.6663 305.711 80.0261 310.997 88.6913L221.713 164.453C221.261 163.97 220.704 163.358 219.986 162.875Z" fill="#3F9B2C"/>
<path d="M160.652 167.568L51.1426 97.2811C56.7641 86.9206 73.8026 67.7301 82.7274 60.8427L162.147 165.908C161.58 166.391 161.104 166.897 160.652 167.568Z" fill="#3F9B2C"/>
<path d="M200.287 153.4L203.243 25.0002C217.302 26.5778 236.624 31.605 247.462 37.1031L202.281 153.789C201.643 153.553 201.064 153.459 200.287 153.4Z" fill="#3F9B2C"/>
<path d="M177.459 155.49L107.277 43.8904C124.802 33.836 145.55 27.3018 163.481 25.0884L179.696 154.736C179.279 154.819 178.12 155.184 177.459 155.49Z" fill="#3F9B2C"/>
<path d="M38.7416 236.761C38.7416 236.761 36.6321 231.263 34.5226 224.257C32.5521 217.7 30.6396 209.882 30.6396 209.882C70.5235 204.714 132.731 204.431 175.582 204.431C175.582 204.431 92.7778 212.225 38.7416 236.761Z" fill="#3F9B2C"/>
<path d="M127.205 324.622C127.205 324.622 117.445 321.525 105.368 314.65C94.2405 308.316 84.2725 299.356 84.2725 299.356C108.277 268.687 186.306 208.266 259.502 204.31C259.502 204.31 184.081 231.247 127.205 324.622Z" fill="#3F9B2C"/>
<path d="M225.052 329.628C225.052 329.628 206.704 335.161 184.113 334.996C161.998 334.832 151.868 331.688 151.868 331.688C156.434 315.865 208.755 223.621 271.415 204.312C271.415 204.312 223.07 256.068 225.052 329.628Z" fill="#3F9B2C"/>
<path d="M67.7083 283.496C67.7083 283.496 62.9097 279.211 54.9352 267.708C47.5867 257.112 44.4688 249.966 44.4688 249.966C64.1847 237.239 133.625 204.309 232.089 204.309C232.089 204.309 146.665 219.802 67.7083 283.496Z" fill="#3F9B2C"/>
</svg>
