<svg width="360" height="360" viewBox="0 0 360 360" fill="none" xmlns="http://www.w3.org/2000/svg">
<rect width="360" height="360" rx="82" fill="white"/>
<path d="M330.85 146.55C318.822 95.1333 281.239 53.5924 232.204 36.0308C243.003 43.947 260.026 60.4711 260.026 85.7568C260.026 120.342 214.22 145.282 202.807 153.851C193.623 164.227 186.052 176.985 186.052 190.935C186.052 226.481 225.941 242.813 245.616 242.813C265.291 242.813 313.326 229.824 326.776 183.71C330.696 170.452 331.541 157.81 330.85 146.55ZM232.166 36.0308C231.782 35.877 231.397 35.7618 231.013 35.6465V35.6849C231.397 35.8002 231.782 35.877 232.166 36.0308Z" fill="#0067AC"/>
<path d="M204.921 152.353C206.535 151.238 208.494 149.932 210.723 148.433C208.494 149.932 206.535 151.238 204.921 152.353ZM214.72 333.003C218.217 332.196 221.675 331.313 225.057 330.275C221.675 331.313 218.217 332.196 214.72 333.003ZM203.038 153.698C203.576 153.313 204.114 152.891 204.767 152.43C204.114 152.891 203.576 153.313 203.038 153.698ZM202.807 153.851C202.807 153.851 202.807 153.89 202.807 153.851C202.884 153.813 202.961 153.736 203.038 153.698C202.961 153.736 202.884 153.813 202.807 153.851ZM330.85 146.627C331.541 157.886 330.658 170.491 326.815 183.748C313.365 229.862 265.33 242.851 245.654 242.851C225.979 242.851 186.091 226.519 186.091 190.973C186.091 177.024 193.661 164.265 202.807 153.89C202.039 154.466 201.385 155.004 200.963 155.427C194.238 162.152 167.914 189.321 175.523 221.715C184.169 258.683 243.733 268.29 243.733 297.611C243.733 314.827 233.665 324.857 225.326 330.237C288.809 310.869 335 251.843 335 181.981C334.962 169.799 333.54 157.963 330.85 146.627ZM330.734 146.166C330.773 146.319 330.811 146.473 330.85 146.627C330.85 146.588 330.85 146.588 330.85 146.55C330.811 146.396 330.773 146.281 330.734 146.166ZM326.968 133.023C328.39 137.327 329.697 141.708 330.773 146.166C329.697 141.708 328.467 137.289 327.045 132.985L326.968 133.023Z" fill="#002D56"/>
<path d="M134.713 330.237C138.479 331.39 142.321 332.35 146.203 333.234V333.196C142.321 332.35 138.479 331.39 134.713 330.237ZM247.538 65.582C241.62 106.546 180.903 103.818 145.741 109.313C108.774 115.077 66.4642 130.449 45.3287 177.523C31.7251 207.843 39.4108 241.083 46.6353 260.951C66.0799 293.73 97.2836 318.747 134.405 330.16C113.154 317.018 69.3463 283.47 69.3463 230.362C69.3463 230.362 60.7384 154.159 143.321 134.753C223.059 116 245.616 105.932 247.538 69.4248C247.615 68.1183 247.615 66.8117 247.538 65.582Z" fill="#455A21"/>
<path d="M56.7417 275.938V275.861C56.2805 275.284 55.8194 274.67 55.3967 274.093C55.8578 274.708 56.2805 275.323 56.7417 275.938ZM213.529 30.6891C202.73 28.3066 191.509 27 179.981 27C94.4013 27 25 96.4013 25 181.981C25 210.84 32.9162 237.817 46.6351 260.912C39.4106 241.045 31.7249 207.766 45.3285 177.485C66.464 130.41 108.735 115.039 145.741 109.275C180.903 103.779 241.62 106.546 247.538 65.5434C246.385 47.9818 231.052 35.7616 213.529 30.6891ZM228.477 34.7625C226.94 34.2629 225.364 33.8018 223.789 33.3407C225.403 33.8018 226.978 34.3398 228.554 34.8778L228.477 34.7625Z" fill="#7AC143"/>
</svg>
