<svg width="360" height="360" viewBox="0 0 360 360" fill="none" xmlns="http://www.w3.org/2000/svg">
<rect width="360" height="360" rx="82" fill="#E31B23"/>
<path d="M29.7519 160.009L29.438 159.126L29.4612 159.118L29.4848 159.111C29.8829 158.992 30.6092 158.764 31.637 158.44C39.8109 155.865 67.0525 147.283 99.8928 140.484C136.821 132.838 181.022 127.403 213.222 135.405L212.996 136.315L213.222 135.405C222.128 137.62 226.819 141.472 228.356 146.505C229.866 151.45 228.208 157.189 225.31 162.905C223.49 166.495 222.304 168.622 221.177 170.599C221.008 170.895 220.841 171.188 220.673 171.481C219.724 173.14 218.762 174.824 217.424 177.349L216.596 176.911L217.424 177.349C216.167 179.724 215.723 181.29 215.796 182.287C215.83 182.748 215.973 183.062 216.186 183.3C216.409 183.55 216.77 183.781 217.341 183.964C218.515 184.338 220.318 184.424 222.812 184.271C225.28 184.119 228.305 183.744 231.864 183.269C232.631 183.166 233.421 183.059 234.234 182.95C248.499 181.022 269.853 178.136 295.389 181.504C300.953 182.238 304.386 183.264 306.633 184.461C308.931 185.685 309.943 187.065 310.709 188.343C310.825 188.537 310.932 188.722 311.036 188.899C311.608 189.883 312.039 190.624 312.987 191.272C314.114 192.044 316.063 192.718 319.978 193.021C324.277 193.354 327.792 193.961 330.478 194.912C333.154 195.86 335.129 197.194 336.158 199.065C337.201 200.964 337.16 203.208 336.257 205.711C335.359 208.2 333.575 211.047 330.967 214.283L329.787 215.748L329.328 213.923C329.291 213.775 329.036 213.4 327.957 213.022C326.951 212.669 325.502 212.411 323.67 212.269C320.02 211.987 315.06 212.177 309.591 212.818C298.634 214.102 285.86 217.169 277.73 221.671C277.548 221.773 277.348 221.847 277.158 221.891C277 221.927 276.718 221.974 276.426 221.893C276.271 221.85 276.003 221.739 275.818 221.455C275.616 221.145 275.632 220.818 275.695 220.598C275.796 220.246 276.061 219.99 276.224 219.846L276.224 219.846C281.446 215.218 290.044 211.273 299.548 208.817C308.848 206.413 319.131 205.406 328.159 206.636C328.791 205.463 328.954 204.559 328.855 203.865C328.747 203.097 328.292 202.41 327.403 201.778C326.499 201.136 325.204 200.599 323.567 200.157C321.939 199.718 320.03 199.389 317.937 199.134L317.935 199.133L317.92 199.132L317.884 199.128L317.744 199.114C317.627 199.102 317.467 199.086 317.269 199.063C316.874 199.019 316.331 198.952 315.685 198.857C314.395 198.668 312.687 198.364 310.929 197.894C309.179 197.426 307.338 196.783 305.804 195.899C304.287 195.024 302.943 193.839 302.407 192.229L302.407 192.229C302.256 191.775 301.708 191.187 300.399 190.588C299.129 190.007 297.33 189.501 295.032 189.087C290.442 188.261 284.044 187.835 276.337 187.815C260.935 187.774 240.451 189.354 219.078 192.502C218.83 192.539 218.555 192.583 218.258 192.631C217.179 192.805 215.819 193.024 214.501 193.076C212.847 193.141 210.966 192.964 209.638 191.872C208.218 190.704 207.72 188.759 208.254 186.001C208.786 183.255 210.368 179.491 213.407 174.337C217.638 167.161 219.854 161.57 220.212 157.213C220.39 155.052 220.108 153.219 219.408 151.648C218.709 150.078 217.568 148.713 215.943 147.525C212.66 145.123 207.458 143.477 200.199 142.378C192.965 141.283 183.813 140.748 172.729 140.481C126.543 139.369 56.4052 155.42 28.3666 162.618L28.3229 162.63L28.2782 162.637L28.1335 161.71C28.2782 162.637 28.2781 162.637 28.278 162.637L28.2777 162.637L28.2768 162.637L28.2739 162.637L28.2641 162.639L28.2286 162.644C28.1984 162.649 28.1551 162.655 28.1016 162.663C27.9947 162.678 27.8455 162.698 27.6751 162.718C27.3449 162.756 26.8964 162.8 26.5216 162.799C26.3482 162.798 26.1131 162.789 25.8988 162.733C25.801 162.707 25.6006 162.646 25.4164 162.487C25.1796 162.282 25.0028 161.934 25.0808 161.527C25.1395 161.221 25.321 161.022 25.4072 160.936C25.5116 160.833 25.6295 160.747 25.7366 160.678C25.9534 160.538 26.2449 160.39 26.6065 160.228C27.1383 159.99 27.8519 159.713 28.4186 159.5C28.7049 159.392 28.9591 159.299 29.1418 159.233L29.3578 159.155L29.4167 159.134L29.4323 159.128L29.4364 159.127L29.4376 159.126L29.4379 159.126L29.438 159.126L29.7519 160.009ZM276.721 220.066C276.721 220.067 276.725 220.066 276.736 220.064C276.726 220.065 276.721 220.066 276.721 220.066Z" fill="white" stroke="white"/>
</svg>
