<svg width="360" height="360" viewBox="0 0 360 360" fill="none" xmlns="http://www.w3.org/2000/svg">
<rect width="360" height="360" rx="82" fill="#0180BD"/>
<path d="M107.958 158.265L51.8682 221.072L117.026 163.639L117.698 163.975L122.736 160.281L128.109 156.586L133.483 153.228L138.521 150.205L143.895 147.518L149.269 145.167L154.642 142.816L160.016 140.801L165.39 139.121L170.764 137.778L176.473 136.434L181.847 135.427L187.221 134.755L192.931 134.419H204.35L209.724 134.755L215.433 135.427L221.143 136.434L227.188 137.442L232.898 138.785L238.608 140.465L244.653 142.48L250.363 144.495L256.408 146.846L262.118 149.533L268.163 152.556L280.255 159.273L286.636 162.967L292.681 166.998L298.727 171.364L292.346 165.99L285.964 160.952L279.583 156.586L273.201 152.22L266.82 148.525L260.775 144.831L254.393 141.136L242.302 135.091L236.257 132.74L230.211 130.389L224.502 128.71L218.456 126.694L212.746 125.687L207.037 124.343L201.327 123.672L195.617 123H189.908H184.198L178.824 123.336L173.451 123.672L168.077 124.679L162.367 126.023L156.993 127.366L151.955 129.046L146.582 131.397L141.544 133.412L136.506 136.099L131.132 139.121L126.094 142.48L121.392 145.839L116.354 149.533L111.316 153.563L106.614 157.258H106.278L107.958 158.265Z" fill="white"/>
<path d="M325.596 188.829L330.298 184.127L335 179.425L330.298 183.455L325.596 187.149L322.573 189.5L319.55 191.851L313.841 195.882L310.818 197.897L308.131 199.576L305.108 201.591L302.422 203.271L299.399 204.614L296.712 206.294L291.002 209.316L288.315 210.66L285.628 212.003L279.919 214.69L277.232 215.698L274.545 216.705L269.171 218.385L263.462 220.064L260.775 220.736L258.088 221.407L255.401 221.743L252.714 222.079L247.34 223.087H244.317L241.966 223.422H239.28L236.593 223.758L233.906 223.422H231.219L228.532 223.087H225.845L220.807 222.079L217.784 221.743L215.433 221.407L212.746 220.736L210.06 220.064L207.709 219.392L205.022 218.385L199.984 216.369L197.297 215.698L194.946 214.354L189.572 212.003L187.221 210.66L184.87 209.316L179.832 206.294L177.145 204.614L174.794 203.271L169.756 199.576L167.069 197.561L164.718 195.882L159.68 191.516L157.329 189.5L154.978 187.149L149.94 182.447L144.903 178.081L139.529 173.715L134.827 170.02L130.125 166.326L125.087 162.967L120.385 159.945L116.018 156.922L111.316 154.235L106.95 151.884L102.248 149.533L97.882 147.854L93.5157 146.174L89.4854 144.831L85.455 143.823L81.0889 143.152L77.0585 142.48L73.364 142.144L69.3337 141.808L65.6392 142.144L61.6089 142.48L57.9144 143.152L54.5558 144.159L50.8614 145.503L47.5028 146.51L44.1441 148.525L40.4496 150.541L37.4269 152.556L34.0683 155.243L31.0455 157.929L28.0227 160.952L25 163.975L28.0227 161.96L31.3813 159.945L34.4041 158.265L37.7627 156.922L41.1213 155.243L44.8158 154.571L48.1744 153.563L51.8689 152.892L55.2275 152.556L58.922 152.22H62.6165L66.3109 152.556L70.0054 153.227L74.0358 153.899L78.0661 154.907L82.0964 155.914L86.1268 157.258L94.1875 160.952L98.5536 162.967L102.92 164.983L107.286 167.669L111.316 170.356L116.018 173.379L120.385 176.402L125.087 179.761L129.789 183.455L134.155 187.149L139.193 191.18L143.895 195.546L148.597 200.248L153.635 204.95L158.337 209.316L163.039 213.347L167.741 217.041L172.443 220.4L174.794 222.079L177.145 223.758L179.832 225.102L182.519 226.445L187.221 228.796L192.259 231.147L194.61 232.155L197.297 233.162L199.648 233.834L202.335 234.506L207.373 235.849L210.06 236.521H212.411L215.098 236.857L217.784 237.193L220.471 237.529H223.158H228.532H231.219L233.906 237.193L236.257 236.857L238.944 236.521L244.653 235.513L247.34 234.842L250.027 234.17L252.714 233.498L255.737 232.827L261.111 230.811L266.82 228.46L269.507 227.453L272.53 225.773L275.217 224.766L278.239 223.087L283.949 219.728L289.659 216.369L292.682 214.354L295.368 212.675L301.414 208.309L307.459 203.942L313.169 199.24L319.215 194.202L325.596 188.829Z" fill="white"/>
</svg>
