<svg width="360" height="360" viewBox="0 0 360 360" fill="none" xmlns="http://www.w3.org/2000/svg">
<rect width="360" height="360" rx="82" fill="url(#paint0_linear)" fill-opacity="0.15"/>
<circle cx="180" cy="180" r="155.455" fill="#4681C7" fill-opacity="0.06"/>
<circle cx="180" cy="180" r="155.205" stroke="#2869BF" stroke-opacity="0.04" stroke-width="0.5"/>
<path d="M125.349 113.452C125.346 99.5416 136.632 88.1688 150.529 88.0763C164.503 87.9837 176.185 99.7 176.011 113.632C175.837 127.551 164.395 138.865 150.556 138.803C136.668 138.741 125.351 127.359 125.349 113.452Z" fill="#44AF2C"/>
<path d="M125.359 247.048C125.431 233.187 136.912 221.814 150.759 221.889C164.612 221.962 176.031 233.423 176.03 247.253C176.029 261.256 164.302 272.838 150.352 272.617C136.431 272.397 125.29 260.998 125.363 247.049" fill="#44AF2C"/>
<path d="M146.288 180.506C146.235 194.402 134.833 205.746 120.951 205.716C107.078 205.686 95.701 194.298 95.6564 180.4C95.6107 166.377 107.279 154.797 121.266 154.981C135.203 155.165 146.34 166.526 146.287 180.505" fill="#44AF2C"/>
<path d="M284.256 180.317C284.27 166.455 295.664 155.03 309.524 154.984C323.342 154.938 334.844 166.312 334.999 180.176C335.155 194.077 323.417 205.809 309.452 205.715C295.574 205.621 284.242 194.198 284.257 180.315" fill="#2E5696"/>
<path d="M254.72 113.646C254.627 99.6231 265.692 88.2748 279.652 88.0785C293.522 87.8834 305.067 99.157 305.21 113.039C305.357 127.257 294.15 138.739 280.049 138.817C266.142 138.893 254.811 127.634 254.719 113.648" fill="#2E5696"/>
<path d="M305.217 247.294C305.197 261.254 293.94 272.559 280.01 272.611C265.943 272.664 254.597 261.165 254.721 246.981C254.843 233.001 266.217 221.753 280.11 221.874C294.058 221.996 305.237 233.314 305.216 247.294" fill="#2E5696"/>
<path d="M214.826 57.0007C228.708 57.0988 239.98 68.5563 239.876 82.468C239.774 96.3283 228.29 107.694 214.447 107.641C200.587 107.587 189.102 96.0964 189.13 82.3141C189.159 68.2876 200.718 56.9003 214.83 57.0007" fill="#3E86CA"/>
<path d="M214.648 303.689C200.588 303.729 189.003 292.157 189.129 278.196C189.254 264.372 200.862 252.924 214.625 253.056C228.586 253.189 239.854 264.498 239.876 278.399C239.899 292.297 228.575 303.649 214.648 303.689Z" fill="#3E86CA"/>
<path d="M258.087 194.209C250.375 194.153 244.256 188.084 244.198 180.435C244.139 172.648 250.414 166.446 258.326 166.473C265.968 166.499 272.183 172.649 272.249 180.253C272.318 187.983 265.941 194.267 258.088 194.21" fill="#4087CA"/>
<path d="M246.547 132.622C246.442 140.347 239.931 146.613 232.196 146.432C224.66 146.256 218.414 139.791 218.561 132.321C218.713 124.66 224.91 118.53 232.496 118.538C240.312 118.545 246.652 124.904 246.547 132.623" fill="#4087CA"/>
<path d="M232.498 242.031C224.604 242.011 218.394 235.724 218.565 227.932C218.73 220.382 225.083 214.204 232.632 214.253C240.366 214.305 246.687 220.765 246.554 228.483C246.424 236.087 240.237 242.051 232.499 242.032" fill="#4087CA"/>
<path d="M69.7555 166.468C77.6384 166.54 83.6995 172.788 83.5434 180.68C83.3918 188.335 77.2638 194.236 69.4935 194.205C61.5872 194.175 55.641 188.019 55.7737 180.002C55.9019 172.28 61.9785 166.397 69.7544 166.467" fill="#A3D235"/>
<path d="M117.108 228.25C117.087 236.066 111.221 241.983 103.424 242.043C95.434 242.104 89.3384 236.092 89.3584 228.17C89.3785 220.343 95.6715 214.16 103.505 214.268C111.123 214.373 117.129 220.546 117.108 228.25Z" fill="#A3D235"/>
<path d="M117.108 132.585C117.079 140.254 110.977 146.395 103.358 146.423C95.5199 146.451 89.3229 140.227 89.3586 132.37C89.3942 124.654 95.3861 118.693 103.154 118.645C111.158 118.596 117.138 124.571 117.108 132.586" fill="#A3D235"/>
<path d="M69.4836 156.356C64.4962 156.293 60.2181 151.951 60.2236 146.955C60.2281 141.969 64.513 137.642 69.5092 137.575C74.6738 137.506 79.0858 141.985 78.9765 147.186C78.8717 152.17 74.472 156.418 69.4836 156.356Z" fill="#C5D506"/>
<path d="M78.9874 213.766C78.9673 218.772 74.6679 223.083 69.6628 223.115C64.6866 223.147 60.3237 218.877 60.2301 213.882C60.1331 208.74 64.6387 204.218 69.7509 204.327C74.7594 204.432 79.0075 208.774 78.9874 213.766Z" fill="#C5D506"/>
<path d="M25.0001 180.294C25.0269 175.213 29.2215 170.973 34.2511 170.941C39.4949 170.907 43.6627 175.236 43.5512 180.6C43.4453 185.733 39.2217 189.842 34.1519 189.745C29.0888 189.647 24.9723 185.397 25.0001 180.294Z" fill="#C5D507"/>
<path d="M202.739 152.364C197.541 152.318 193.328 148.256 193.258 143.222C193.186 138.05 197.563 133.844 202.969 133.892C208.056 133.937 212.273 138.217 212.181 143.244C212.089 148.34 207.875 152.41 202.738 152.365" fill="#81ADE2"/>
<path d="M235.865 180.473C235.821 185.656 231.61 189.937 226.675 189.815C221.658 189.691 217.402 185.397 217.362 180.42C217.32 175.294 221.833 170.795 226.936 170.863C231.901 170.928 235.912 175.242 235.867 180.473" fill="#81ADE2"/>
<path d="M202.751 226.789C197.557 226.747 193.339 222.687 193.26 217.654C193.179 212.476 197.546 208.271 202.961 208.315C208.055 208.355 212.264 212.617 212.183 217.655C212.102 222.743 207.881 226.83 202.751 226.789Z" fill="#81ADE2"/>
<defs>
<linearGradient id="paint0_linear" x1="0" y1="180" x2="360" y2="180" gradientUnits="userSpaceOnUse">
<stop stop-color="#C5D507"/>
<stop offset="0.209809" stop-color="#A3D235"/>
<stop offset="0.378871" stop-color="#44AF2C"/>
<stop offset="0.541347" stop-color="#81ADE2"/>
<stop offset="0.736756" stop-color="#4087CA"/>
<stop offset="1" stop-color="#2E5696"/>
</linearGradient>
</defs>
</svg>
