<svg width="360" height="360" viewBox="0 0 360 360" fill="none" xmlns="http://www.w3.org/2000/svg">
<rect width="360" height="360" rx="82" fill="#0180BD"/>
<path d="M83 292.34V303.65L85.1276 302.082C87.5352 300.29 92.2943 296.427 95.6536 293.516C96.8854 292.452 99.293 290.436 100.973 289.036C118.721 274.255 138.822 254.323 153.435 237.022L159.762 229.576L156.234 227.28C148.34 222.073 137.982 211.883 132.383 203.764C124.768 192.734 116.65 177.673 111.499 165.188C110.155 161.884 108.867 159.141 108.699 159.141C108.307 159.141 102.372 163.732 99.8529 166.027C98.0612 167.707 96.3255 169.835 91.8464 175.937C91.0625 177.001 90.2227 178.513 89.9987 179.297C89.7747 180.081 88.9909 181.928 88.263 183.384C87.0312 186.016 85.9674 189.879 84.6797 196.262C84.3437 197.997 83.7839 199.341 83.5039 199.173C83.224 198.949 83.056 169.499 83.056 126.947L83.112 55L298 179.297L83 304.042L83 292.34Z" fill="#757679"/>
<path d="M83.5039 297.099C83.5039 293.217 83.3359 295.438 83 303.762L86.6393 301.466C88.599 300.178 90.3906 299.115 90.5586 299.115C90.6706 299.115 92.2383 298.219 93.974 297.099C95.7096 295.979 97.8932 294.747 98.8451 294.299C99.8529 293.852 101.421 292.956 102.316 292.396C103.268 291.78 104.892 290.828 105.956 290.268C107.02 289.708 109.371 288.365 111.107 287.189C112.842 286.069 114.466 285.117 114.634 285.117C114.858 285.117 117.042 283.885 119.561 282.374C130.591 275.767 138.206 271.456 138.542 271.568C138.822 271.624 138.99 271.456 138.99 271.176C138.99 270.896 139.661 270.392 140.557 270.056C141.397 269.72 143.189 268.768 144.589 267.984C145.988 267.145 148.004 265.913 149.124 265.297C150.243 264.625 153.155 262.945 155.562 261.546C158.026 260.146 163.401 257.066 167.544 254.659C171.688 252.307 175.495 250.18 175.943 249.844C176.391 249.564 179.806 247.548 183.501 245.421C187.197 243.293 191.564 240.717 193.243 239.654C194.923 238.646 197.275 237.358 198.507 236.854C199.682 236.294 201.418 235.23 202.37 234.447C203.266 233.663 204.329 233.047 204.665 233.047C205.393 233.047 208.361 230.863 207.689 230.807C207.465 230.807 206.345 231.199 205.169 231.703C193.243 236.854 213.36 229.688 225.033 221.646C230.167 218.109 286.172 187.695 298 179.492C272.744 164.743 192.077 117.446 173.534 106.454C170.847 101.079 124.258 112.468 123.698 111.068C122.018 107.149 109.987 161.212 109.651 160.148C109.483 159.589 109.147 159.141 108.867 159.141C108.307 159.141 102.708 163.452 99.8529 166.083C96.1016 169.499 89.1589 179.241 89.1589 181.033C89.1589 181.313 88.7109 182.6 88.0951 183.944C86.4154 187.695 85.3516 191.111 84.9596 193.854C84.3437 198.333 84.0638 199.453 83.5039 199.173C83.224 198.949 83.056 169.051 83.056 126.947L83.112 55V303.594C83.3733 303.146 83.5039 300.981 83.5039 297.099Z" fill="#727C8D"/>
<path d="M83.259 292.396L83 303.762L86.6393 301.466C88.599 300.178 90.3906 299.115 90.5586 299.115C90.6706 299.115 92.2383 298.219 93.974 297.099C95.7096 295.979 97.8932 294.747 98.8451 294.299C99.8529 293.852 101.421 292.956 102.316 292.396C103.268 291.78 104.892 290.828 105.956 290.268C107.02 289.708 109.371 288.365 111.107 287.189C112.842 286.069 114.466 285.117 114.634 285.117C114.858 285.117 117.042 283.885 119.561 282.374C130.591 275.767 138.206 271.456 138.542 271.568C138.822 271.624 138.99 271.456 138.99 271.176C138.99 270.896 139.661 270.392 140.557 270.056C141.397 269.72 143.189 268.768 144.589 267.984C145.988 267.145 148.004 265.913 149.124 265.297C150.243 264.625 153.155 262.945 155.562 261.546C158.026 260.146 163.401 257.066 167.544 254.659C171.688 252.307 175.495 250.18 175.943 249.844C176.391 249.564 179.806 247.548 183.501 245.421C187.197 243.293 191.564 240.717 193.243 239.654C194.923 238.646 197.275 237.358 198.507 236.854C199.682 236.294 201.418 235.23 202.37 234.447C203.266 233.663 204.329 233.047 204.665 233.047C205.393 233.047 208.361 230.863 207.689 230.807C207.465 230.807 206.345 231.199 205.169 231.703C193.243 236.854 176.951 236.91 165.081 231.871C159.538 229.52 158.418 228.904 152.651 224.592C140.109 215.354 129.135 201.245 119.281 181.48C116.594 176.105 114.018 170.842 113.57 169.779C113.122 168.715 112.115 166.363 111.331 164.516C110.547 162.724 109.875 160.932 109.875 160.484C109.875 156.509 98.7891 165.411 93.3021 173.754C89.8307 179.073 88.599 181.312 88.599 182.32C88.599 182.768 88.263 183.496 87.8711 183.888C87.4232 184.28 86.9753 185.288 86.7513 186.016C86.5833 186.799 86.0794 188.927 85.5755 190.775C85.1276 192.622 84.5677 194.862 84.3997 195.758C83.224 201.357 83 190.607 83.056 125.435L83.112 55C171.515 105.764 243.144 147.345 298 179.744L83.259 304.042V292.396Z" fill="#457BBD"/>
<path d="M83 291.948V303.762L86.6393 301.466C88.599 300.178 90.3906 299.114 90.5586 299.114C90.6706 299.114 92.2383 298.219 93.974 297.099C95.7096 295.979 97.8932 294.747 98.8451 294.299C99.8529 293.851 101.421 292.956 102.316 292.396C103.268 291.78 104.892 290.828 105.956 290.268C107.02 289.708 109.371 288.364 111.107 287.189C112.842 286.069 114.466 285.117 114.634 285.117C114.858 285.117 117.042 283.885 119.561 282.373C130.591 275.767 138.206 271.456 138.542 271.567C138.822 271.623 138.99 271.456 138.99 271.176C138.99 270.896 139.661 270.392 140.557 270.056C141.397 269.72 143.189 268.768 144.589 267.984C145.988 267.144 148.004 265.913 149.124 265.297C150.243 264.625 153.155 262.945 155.562 261.545C158.026 260.146 163.401 257.066 167.544 254.659C171.688 252.307 175.495 250.179 175.943 249.844C176.391 249.564 179.806 247.548 183.501 245.42C187.197 243.293 191.564 240.717 193.243 239.653C194.923 238.646 197.275 237.358 198.507 236.854C199.682 236.294 201.418 235.23 202.37 234.446C203.266 233.663 204.329 233.047 204.665 233.047C205.393 233.047 208.361 230.863 207.689 230.807C207.465 230.807 206.345 231.199 205.169 231.703C193.243 236.854 176.951 236.91 165.081 231.871C159.538 229.519 158.418 228.903 152.651 224.592C140.109 215.354 129.135 201.245 119.281 181.48C116.594 176.105 114.018 170.842 113.57 169.778C113.122 168.715 112.115 166.363 111.331 164.515C110.547 162.724 109.875 160.932 109.875 160.484C109.875 156.509 98.7891 165.411 93.3021 173.754C89.8307 179.073 88.599 181.312 88.599 182.32C88.599 182.768 88.263 183.496 87.8711 183.888C87.4232 184.28 86.9753 185.288 86.7513 186.015C86.5833 186.799 86.0794 188.927 85.5755 190.775C85.1276 192.622 84.5677 194.862 84.3997 195.758C84.1198 197.045 83.9518 197.269 83.5039 196.597C82.832 195.59 82.888 58.8071 83.5599 59.199C83.8398 59.367 84.0638 59.9268 84.0078 60.4867C84.0078 60.9906 84.1758 62.4464 84.3997 63.6781C84.6237 64.9099 84.9036 66.5336 85.0156 67.3175C85.1276 68.1013 85.3516 69.5571 85.5195 70.5089C85.6875 71.5167 85.9674 73.0284 86.0794 73.8683C86.5273 77.1157 87.9831 84.5063 88.599 86.9138C88.9349 88.3136 89.3828 90.2172 89.4948 91.113C89.9987 93.9125 90.1107 94.4164 90.5026 95.3683C90.7266 95.8722 90.8385 96.488 90.7826 96.768C90.6706 97.0479 90.8945 98.2797 91.2305 99.5115C91.5104 100.743 92.2383 103.543 92.7982 105.67C93.3581 107.854 93.806 109.982 93.862 110.429C93.918 110.933 94.1979 111.605 94.4219 111.997C94.6458 112.389 94.7018 112.893 94.5339 113.061C94.3659 113.229 94.4779 113.733 94.8698 114.181C95.2057 114.573 95.3177 115.077 95.1497 115.301C94.9258 115.469 95.0378 115.972 95.4297 116.42C95.7656 116.812 95.8776 117.316 95.7096 117.484C95.5417 117.708 95.7096 118.772 96.1016 119.892C96.5495 121.011 97.2773 123.419 97.8372 125.267C98.3971 127.114 99.013 129.186 99.293 129.858C99.5729 130.586 100.245 133.161 100.861 135.569C101.477 138.032 102.484 141.112 103.044 142.455C103.66 143.799 104.668 146.655 105.396 148.782C106.684 152.758 107.355 154.549 108.363 156.733C109.091 158.301 110.659 158.021 114.41 155.669C115.81 154.829 117.154 154.101 117.378 154.101C117.602 154.101 118.945 153.597 120.345 152.926C121.745 152.31 123.424 151.694 124.096 151.638C124.712 151.526 125.664 151.302 126.112 151.078C128.855 149.958 140.781 147.886 144.477 147.942C145.764 147.998 147.108 147.83 147.444 147.607C148.228 147.159 173.143 147.215 174.431 147.663C174.935 147.886 176.503 147.886 177.846 147.719C179.414 147.439 180.478 147.551 180.702 147.942C180.926 148.278 182.102 148.502 183.389 148.502C185.685 148.446 187.812 148.614 192.628 149.286C194.923 149.622 194.979 149.622 194.979 148.054C194.979 147.159 194.755 145.087 194.419 143.407C194.139 141.728 193.747 139.656 193.635 138.704C193.243 136.017 192.46 133.945 189.94 128.906C186.749 122.523 182.941 117.428 177.454 112.389C173.423 108.638 163.793 101.471 162.729 101.471C162.561 101.471 161.161 100.575 159.65 99.5115C158.194 98.4477 156.01 97.1599 154.835 96.712C153.659 96.2081 152.203 95.3683 151.587 94.8084C150.971 94.1925 149.348 93.1847 147.948 92.5688C146.548 91.8969 144.421 90.7211 143.189 89.9933C141.957 89.2654 140.389 88.4255 139.717 88.0896C139.046 87.7537 136.974 86.5219 135.182 85.2341C133.335 84.0024 131.543 82.9946 131.151 82.9946C130.815 82.9946 129.695 82.4347 128.743 81.7628C126.728 80.3071 125.608 79.6352 122.473 78.0115C116.818 75.044 112.395 72.4125 112.227 71.8526C112.115 71.5167 111.667 71.2367 111.219 71.2367C110.323 71.2367 106.236 68.7732 105.676 67.8774C105.508 67.5974 104.948 67.3175 104.5 67.3175C104.052 67.3175 102.652 66.6456 101.309 65.8058C100.021 64.9659 98.0612 63.8461 96.9974 63.2862C95.9336 62.7263 94.3099 61.7745 93.3581 61.1586C92.4622 60.5427 91.2865 59.8709 90.8385 59.7029C89.2708 59.031 84.7357 55.8396 84.6797 55.4464C84.6797 55.2606 155.786 96.6184 298 179.52L83 303.594L83 291.948Z" fill="#5B8DC8"/>
<path d="M83 291.948V303.762L86.6393 301.466C88.599 300.178 90.3906 299.115 90.5586 299.115C90.6706 299.115 92.2383 298.219 93.974 297.099C95.7096 295.979 97.8932 294.747 98.8451 294.3C99.8529 293.852 101.421 292.956 102.316 292.396C103.268 291.78 104.892 290.828 105.956 290.268C107.02 289.708 109.371 288.365 111.107 287.189C112.842 286.069 114.466 285.117 114.634 285.117C114.858 285.117 117.042 283.886 119.561 282.374C130.591 275.767 138.206 271.456 138.542 271.568C138.822 271.624 138.99 271.456 138.99 271.176C138.99 270.896 139.661 270.392 140.557 270.056C141.397 269.72 143.189 268.768 144.589 267.984C145.988 267.145 148.004 265.913 149.124 265.297C150.243 264.625 153.155 262.945 155.562 261.546C158.026 260.146 163.401 257.067 167.544 254.659C171.688 252.307 175.495 250.18 175.943 249.844C176.391 249.564 179.806 247.548 183.501 245.421C187.197 243.293 191.564 240.718 193.243 239.654C194.923 238.646 197.275 237.358 198.507 236.854C199.682 236.294 201.418 235.231 202.37 234.447C203.266 233.663 204.329 233.047 204.665 233.047C205.393 233.047 208.361 230.863 207.689 230.807C207.465 230.807 206.345 231.199 205.169 231.703C193.243 236.854 176.951 236.91 165.081 231.871C159.538 229.52 158.418 228.904 152.651 224.593C140.109 215.354 129.135 201.245 119.281 181.481C116.594 176.106 114.018 170.843 113.57 169.779C113.122 168.715 112.115 166.363 111.331 164.516C110.547 162.724 109.875 160.932 109.875 160.484C109.875 156.509 98.7891 165.412 93.3021 173.754C89.8307 179.073 88.599 181.313 88.599 182.32C88.599 182.768 88.263 183.496 87.8711 183.888C87.4232 184.28 86.9753 185.288 86.7513 186.016C86.5833 186.8 86.0794 188.927 85.5755 190.775C85.1276 192.623 84.5677 194.862 84.3997 195.758C84.1198 197.046 83.9518 197.27 83.5039 196.598C83.056 195.87 82.776 58.5275 83.2799 59.0314C83.3919 59.1433 84.1198 63.1186 84.9036 67.8777C85.6875 72.6368 86.7513 78.4597 87.1992 80.7553C89.4388 91.2254 89.7188 92.9051 89.9987 94.8087C90.1107 95.9285 90.6146 97.9441 91.0625 99.2879C91.5104 100.632 92.0143 102.871 92.2383 104.271C92.4622 105.671 92.9102 107.238 93.1901 107.798C93.4701 108.358 93.806 109.534 93.918 110.486C94.3099 113.509 94.8698 115.749 95.4857 116.477C95.7656 116.869 95.8776 117.317 95.7656 117.484C95.5977 117.652 95.9336 119.332 96.5495 121.236C97.1094 123.139 98.0052 126.219 98.5091 128.067C98.957 129.914 99.5729 131.706 99.7969 131.986C100.021 132.322 100.413 133.442 100.637 134.505C101.085 136.969 104.276 146.935 104.836 147.663C105.06 147.999 105.564 149.231 105.9 150.462C106.292 151.694 106.796 153.206 107.02 153.822C107.299 154.438 107.747 155.613 108.139 156.509C108.923 158.469 109.931 158.413 113.794 156.061C115.586 154.998 117.21 154.102 117.378 154.102C117.602 154.102 118.945 153.598 120.345 152.926C121.745 152.31 123.424 151.694 124.096 151.638C124.712 151.526 125.664 151.302 126.112 151.078C127.008 150.742 130.647 149.902 135.35 149.007C136.918 148.727 140.053 148.335 142.349 148.223C144.645 148.055 146.94 147.775 147.388 147.607C148.284 147.271 172.247 147.383 176.783 147.775C178.35 147.887 180.87 148.055 182.382 148.167C183.949 148.279 186.077 148.503 187.141 148.671C188.204 148.895 190.444 149.175 192.068 149.343C194.979 149.623 194.979 149.623 194.979 148.055C194.979 147.159 194.755 145.087 194.419 143.408C194.139 141.728 193.747 139.656 193.635 138.705C193.243 136.017 192.46 133.945 189.94 128.906C186.749 122.524 182.941 117.428 177.454 112.389C173.479 108.638 163.793 101.471 162.785 101.471C162.561 101.471 160.993 100.464 159.202 99.2319C157.466 98.0001 155.786 96.9923 155.451 96.9923C155.115 96.9923 153.995 96.3204 152.931 95.5366C151.867 94.7527 149.796 93.465 148.228 92.7371C146.716 91.9532 144.421 90.7215 143.189 89.9936C141.957 89.2657 140.389 88.4259 139.717 88.09C139.046 87.754 137.03 86.5222 135.238 85.2905C133.447 84.1147 131.095 82.715 130.031 82.2111C128.967 81.7071 127.456 80.8673 126.672 80.4194C123.201 78.2918 120.513 76.7801 116.874 74.8764C114.746 73.7566 112.674 72.4689 112.339 72.0209C112.003 71.573 111.387 71.2371 110.939 71.2371C110.491 71.1811 109.147 70.4532 107.915 69.5574C106.684 68.6056 104.444 67.2618 102.876 66.478C99.9648 65.0223 96.9414 63.2866 93.638 61.2709C92.5742 60.5991 91.2865 59.8712 90.8385 59.7032C89.2708 59.0314 84.7357 55.84 84.6797 55.4474C84.6797 55.2612 155.786 96.6187 298 179.52L83 303.594V291.948Z" fill="#6B8EB8"/>
<path d="M83.0361 292.396L83 303.762L86.6393 301.466C88.599 300.178 90.3906 299.115 90.5586 299.115C90.6706 299.115 92.2383 298.219 93.974 297.099C95.7096 295.979 97.8932 294.747 98.8451 294.3C99.8529 293.852 101.421 292.956 102.316 292.396C103.268 291.78 104.892 290.828 105.956 290.268C107.02 289.708 109.371 288.365 111.107 287.189C112.842 286.069 114.466 285.117 114.634 285.117C114.858 285.117 117.042 283.886 119.561 282.374C130.591 275.767 138.206 271.456 138.542 271.568C138.822 271.624 138.99 271.456 138.99 271.176C138.99 270.896 139.661 270.392 140.557 270.056C141.397 269.72 143.189 268.768 144.589 267.984C145.988 267.145 148.004 265.913 149.124 265.297C150.243 264.625 153.155 262.945 155.562 261.546C158.026 260.146 163.401 257.067 167.544 254.659C171.688 252.307 175.495 250.18 175.943 249.844C176.391 249.564 179.806 247.548 183.501 245.421C187.197 243.293 191.564 240.718 193.243 239.654C194.923 238.646 197.275 237.358 198.507 236.854C199.682 236.294 201.418 235.231 202.37 234.447C203.266 233.663 204.329 233.047 204.665 233.047C205.393 233.047 208.361 230.863 207.689 230.807C207.465 230.807 206.345 231.199 205.169 231.703C193.243 236.854 176.951 236.91 165.081 231.871C159.538 229.52 158.418 228.904 152.651 224.593C140.109 215.354 129.135 201.245 119.281 181.481C116.594 176.106 114.018 170.843 113.57 169.779C113.122 168.715 112.115 166.363 111.331 164.572C108.867 158.973 108.923 158.749 114.074 156.117C118.777 153.654 127.624 150.686 134.23 149.343C147.108 146.711 172.135 146.711 192.012 149.399L194.923 149.734L195.091 147.607C195.315 145.031 194.251 138.984 193.132 135.849C188.708 123.923 187.141 121.516 177.846 112.389C170.96 105.615 170.568 105.335 144.309 90.2736C138.766 87.0821 131.543 82.8829 128.184 80.9233C124.88 78.9637 122.081 77.3959 121.969 77.3959C121.801 77.3959 119.505 76.0522 116.762 74.4285C108.867 69.6134 102.82 66.198 102.316 66.198C102.036 66.198 101.421 65.8621 100.973 65.4142C100.469 64.9663 98.957 64.0144 97.5573 63.2866C92.2383 60.4311 84.6797 55.84 84.6797 55.4474C84.6797 55.2612 155.786 96.6187 298 179.52L83.0361 304.042V292.396Z" fill="#949598"/>
<path d="M83.392 196.43C83.0001 195.422 82.8881 58.6395 83.28 59.0306C83.392 59.1434 84.1199 63.1187 84.9037 67.8778C89.7748 97.6643 98.3412 131.202 106.852 153.71C107.915 156.453 108.755 158.749 108.755 158.805C108.755 158.917 107.412 159.869 105.844 160.932C101.477 163.844 96.3816 169.107 93.3021 173.754C89.8308 179.073 88.599 181.313 88.599 182.321C88.599 182.768 88.2631 183.496 87.8712 183.888C87.4232 184.28 86.9193 185.288 86.7514 186.016C86.5834 186.8 86.0235 189.207 85.4636 191.335C84.9597 193.518 84.3998 195.758 84.1758 196.318C83.7839 197.326 83.7279 197.326 83.392 196.43Z" fill="#949598"/>
<path d="M83.5179 291.836L83 303.594L85.1276 302.474C90.6146 299.506 93.4141 297.827 94.2539 297.099C94.7018 296.651 95.3177 296.315 95.5417 296.315C96.0456 296.315 112.73 286.685 118.553 283.045C119.169 282.653 120.457 281.982 121.353 281.478C122.305 281.03 124.04 280.022 125.272 279.238C126.504 278.51 128.128 277.558 128.911 277.166C129.695 276.774 132.831 274.983 135.91 273.135C142.461 269.328 143.637 268.6 148.508 265.801C150.523 264.625 153.155 263.113 154.387 262.385C155.618 261.713 158.25 260.202 160.266 259.082C162.281 258.018 164.689 256.618 165.585 256.002C166.536 255.386 167.768 254.659 168.384 254.323C169 253.987 171.128 252.755 173.143 251.523C175.159 250.347 178.294 248.556 180.142 247.604C181.934 246.652 183.725 245.644 184.061 245.364C184.677 244.86 202.09 234.838 206.345 232.543C207.801 231.759 209.704 230.527 210.544 229.799C211.888 228.735 211.552 228.791 208.137 230.303C206.009 231.255 201.81 232.655 198.898 233.495C194.139 234.782 192.572 234.95 184.341 234.95C175.887 234.95 174.711 234.838 170.176 233.439C152.259 227.952 136.47 212.89 122.865 188.367C117.602 178.793 110.043 162.388 109.763 159.7C109.595 158.636 110.267 158.077 114.074 156.117C118.777 153.653 127.624 150.686 134.23 149.342C148.116 146.543 175.719 146.767 195.539 149.902C222.414 154.157 258.303 163.955 286.41 174.761C289.714 175.993 292.737 177.057 293.129 177.057C293.857 177.001 288.37 173.362 286.466 172.578C285.794 172.298 283.891 171.178 282.155 170.114C280.419 168.995 278.852 168.099 278.684 168.099C278.516 168.099 276.948 167.203 275.268 166.139C273.589 165.075 272.133 164.179 271.965 164.179C271.853 164.179 269.893 163.06 267.654 161.772C265.414 160.428 261.943 158.413 259.927 157.237C256.12 155.109 255.56 154.773 243.97 148.11C239.995 145.759 234.956 142.847 232.772 141.616C230.645 140.384 227.733 138.704 226.333 137.864C224.934 137.024 219.279 133.777 213.736 130.586C208.193 127.394 202.09 123.867 200.186 122.691C198.283 121.459 196.547 120.508 196.379 120.508C196.211 120.508 192.348 118.324 187.812 115.692C183.277 113.005 177.678 109.758 175.383 108.414C173.087 107.126 168.944 104.663 166.145 103.039C159.37 98.9516 156.122 97.0479 144.309 90.2732C138.766 87.0818 131.543 82.8826 128.184 80.9229C124.88 78.9633 122.081 77.3956 121.969 77.3956C121.801 77.3956 119.505 76.0518 116.762 74.4281C108.867 69.613 102.82 66.1977 102.316 66.1977C102.036 66.1977 101.421 65.8617 100.973 65.4138C100.469 64.9659 98.957 64.0141 97.5573 63.2862C92.2383 60.4308 84.6797 55.8396 84.6797 55.4464C84.6797 55.2606 155.786 96.6186 298 179.52L83.5179 303.594V291.836Z" fill="#C8C9CB"/>
<path d="M83.392 196.429C83.0001 195.422 82.8881 58.639 83.28 59.0301C83.392 59.143 84.1199 63.1182 84.9037 67.8773C89.7748 97.6638 98.3412 131.202 106.852 153.709C107.915 156.453 108.755 158.748 108.755 158.804C108.755 158.916 107.412 159.868 105.844 160.932C101.477 163.843 96.3816 169.106 93.3021 173.754C89.8308 179.073 88.599 181.312 88.599 182.32C88.599 182.768 88.2631 183.496 87.8712 183.888C87.4232 184.28 86.9193 185.287 86.7514 186.015C86.5834 186.799 86.0235 189.207 85.4636 191.334C84.9597 193.518 84.3998 195.758 84.1758 196.317C83.7839 197.325 83.7279 197.325 83.392 196.429Z" fill="#C8C9CB"/>
<path d="M154.667 225.656C151.755 223.697 148.564 221.345 147.668 220.449C146.716 219.497 145.093 217.93 144.029 216.978C140.501 213.674 137.254 209.867 132.943 203.932C131.991 202.533 130.255 200.237 129.192 198.781C128.128 197.326 126.616 194.918 125.832 193.462C125.048 192.007 123.649 189.375 122.697 187.695C119.505 182.04 115.474 174.202 115.474 173.698C115.474 173.362 114.466 171.01 113.235 168.323C110.659 162.892 109.259 159.141 109.595 158.581C110.155 157.685 119.617 153.43 124.432 151.918C135.462 148.503 144.253 147.383 160.658 147.383C170.624 147.383 186.637 148.447 192.796 149.51L195.259 149.958L195.147 155.221C194.979 162.22 194.251 166.251 191.284 175.378C188.485 183.944 182.27 196.822 176.671 205.78C172.807 211.827 164.353 223.921 161.498 227.336L159.986 229.184L154.667 225.656Z" fill="#B8C7E7"/>
<path d="M83.392 196.43C83.0001 195.422 82.8881 58.6395 83.28 59.0306C83.392 59.1434 84.1199 63.1187 84.9037 67.8778C89.7748 97.6643 98.3412 131.202 106.852 153.71C109.035 159.477 108.979 159.141 107.915 159.141C107.468 159.141 107.076 159.365 107.076 159.645C107.076 159.869 106.124 160.765 104.948 161.492C101.421 163.9 96.1576 169.443 93.3021 173.754C89.8308 179.073 88.599 181.313 88.599 182.321C88.599 182.768 88.2631 183.496 87.8712 183.888C87.4232 184.28 86.9193 185.288 86.7514 186.016C86.5834 186.8 86.0235 189.207 85.4636 191.335C84.9597 193.518 84.3998 195.758 84.1758 196.318C83.7839 197.326 83.7279 197.326 83.392 196.43Z" fill="#B8C7E7"/>
<path d="M154.667 225.656C151.755 223.697 148.564 221.345 147.668 220.449C146.716 219.497 145.092 217.93 144.029 216.978C140.501 213.674 137.254 209.867 132.943 203.932C131.991 202.533 130.255 200.237 129.191 198.781C128.128 197.326 126.616 194.918 125.832 193.462C125.048 192.007 123.648 189.375 122.697 187.695C119.505 182.04 115.474 174.202 115.474 173.698C115.474 173.362 114.466 171.01 113.234 168.323C110.435 162.332 109.259 158.973 109.763 158.469C110.491 157.797 118.217 154.102 119.001 154.102C119.393 154.102 119.953 153.878 120.289 153.598C121.521 152.366 131.039 150.014 139.549 148.727C147.108 147.607 150.915 147.383 160.546 147.383C167.04 147.383 174.711 147.663 177.622 147.943C180.534 148.223 184.565 148.615 186.581 148.783C188.596 148.951 191.452 149.398 192.964 149.734L195.707 150.35L195.315 156.005C194.531 166.979 191.172 178.121 184.621 191.335C179.022 202.533 168.664 218.77 161.497 227.336L159.986 229.184L154.667 225.656Z" fill="#F0EBDE"/>
<path d="M156.962 227.112C154.834 225.88 151.139 223.193 149.291 221.569C148.955 221.289 147.723 220.113 146.492 219.05C144.084 216.866 135.854 207.628 132.942 203.82C130.703 200.909 125.552 192.847 125.552 192.287C125.552 192.063 124.936 190.999 124.208 189.879C121.8 186.352 112.282 166.755 110.994 162.78C110.602 161.548 110.042 160.205 109.706 159.813C109.371 159.365 109.315 158.917 109.651 158.581C110.434 157.797 118.161 154.102 119.001 154.102C119.393 154.102 119.953 153.878 120.289 153.598C121.52 152.366 131.039 150.014 139.549 148.727C149.963 147.215 166.648 146.879 177.902 147.999C181.317 148.335 184.677 148.671 185.46 148.671C186.244 148.727 187.14 149.119 187.476 149.567C187.924 150.126 188.204 150.182 188.484 149.735C188.988 148.895 190.164 148.895 192.907 149.679L194.979 150.238V154.046C194.979 169.107 186.916 189.991 172.975 210.931C168.831 217.146 160.265 228.568 159.761 228.568C159.593 228.512 158.305 227.896 156.962 227.112Z" fill="white"/>
</svg>
