<svg width="360" height="360" viewBox="0 0 360 360" fill="none" xmlns="http://www.w3.org/2000/svg">
<rect width="360" height="360" rx="82" fill="#132635"/>
<path opacity="0.5" d="M224.83 204.825H153.879L145.436 224.377C142.672 230.895 141.289 236.276 141.289 240.522C141.289 246.151 143.56 250.298 148.103 252.965C150.769 254.545 157.336 255.73 167.803 256.52V262H101V256.52C108.209 255.433 114.133 252.471 118.775 247.632C123.416 242.695 129.143 232.573 135.957 217.267L207.796 57H210.61L283.041 221.711C289.954 237.313 295.632 247.138 300.075 251.187C303.433 254.248 308.173 256.026 314.295 256.52V262H217.127V256.52H221.126C228.928 256.52 234.408 255.433 237.568 253.261C239.74 251.681 240.827 249.41 240.827 246.447C240.827 244.67 240.53 242.843 239.938 240.967C239.74 240.078 238.259 236.375 235.494 229.858L224.83 204.825ZM219.793 193.864L189.873 124.691L159.064 193.864H219.793Z" fill="white"/>
<path opacity="0.7" d="M201.83 204.825H130.879L122.436 224.377C119.672 230.895 118.289 236.276 118.289 240.522C118.289 246.151 120.56 250.298 125.103 252.965C127.769 254.545 134.336 255.73 144.803 256.52V262H78V256.52C85.2086 255.433 91.1334 252.471 95.7746 247.632C100.416 242.695 106.143 232.573 112.957 217.267L184.796 57H187.61L260.041 221.711C266.954 237.313 272.632 247.138 277.075 251.187C280.433 254.248 285.173 256.026 291.295 256.52V262H194.127V256.52H198.126C205.928 256.52 211.408 255.433 214.568 253.261C216.74 251.681 217.827 249.41 217.827 246.447C217.827 244.67 217.53 242.843 216.938 240.967C216.74 240.078 215.259 236.375 212.494 229.858L201.83 204.825ZM196.793 193.864L166.873 124.691L136.064 193.864H196.793Z" fill="white"/>
<path d="M173.83 204.825H102.879L94.4364 224.377C91.6715 230.895 90.289 236.276 90.289 240.522C90.289 246.151 92.5602 250.298 97.1026 252.965C99.7688 254.545 106.336 255.73 116.803 256.52V262H50V256.52C57.2086 255.433 63.1334 252.471 67.7746 247.632C72.4157 242.695 78.1431 232.573 84.9567 217.267L156.796 57H159.61L232.041 221.711C238.954 237.313 244.632 247.138 249.075 251.187C252.433 254.248 257.173 256.026 263.295 256.52V262H166.127V256.52H170.126C177.928 256.52 183.408 255.433 186.568 253.261C188.74 251.681 189.827 249.41 189.827 246.447C189.827 244.67 189.53 242.843 188.938 240.967C188.74 240.078 187.259 236.375 184.494 229.858L173.83 204.825ZM168.793 193.864L138.873 124.691L108.064 193.864H168.793Z" fill="white"/>
</svg>
