<svg width="360" height="360" viewBox="0 0 360 360" fill="none" xmlns="http://www.w3.org/2000/svg">
<rect width="360" height="360" rx="82" fill="#00A4E4"/>
<circle cx="180" cy="180" r="155.455" fill="#4681C7" fill-opacity="0.06"/>
<circle cx="180" cy="180" r="155.205" stroke="#2869BF" stroke-opacity="0.04" stroke-width="0.5"/>
<path d="M265.125 117.037C260.262 117.467 254.72 118.576 250.468 119.955C241.488 122.85 234.612 127.057 227.917 133.753C220.181 141.488 215.183 150.332 212.401 161.144C210.863 167.228 210.523 170.146 210.523 177.52C210.501 184.215 210.682 186.047 211.745 191.249C213.622 200.296 218.033 209.412 223.913 216.424C226.221 219.16 231.197 224.001 233.753 225.991C242.099 232.483 251.915 236.328 263.134 237.459C267.183 237.889 276.027 237.64 279.6 237.029C288.195 235.536 295.795 232.37 302.128 227.597C311.108 220.834 317.961 210.95 321.219 200.048C323.028 193.963 323.707 189.191 323.865 180.958L324.001 175.032H299.98H275.981V183.287V191.543H290.457C301.88 191.543 304.933 191.611 304.933 191.815C304.933 192.516 303.553 197.469 302.92 199.075C300.387 205.431 295.999 211.131 290.797 214.818C288.603 216.356 284.237 218.572 281.862 219.341C272.543 222.35 261.551 221.467 252.345 216.966C240.742 211.312 232.576 200.387 229.975 187.065C228.324 178.605 228.98 169.015 231.739 161.121C237.077 145.831 249.45 135.811 265.419 133.843C268.766 133.436 276.14 133.685 279.239 134.318C289.507 136.376 298.396 142.076 305.046 150.897L306.358 152.662L307.964 151.101C308.846 150.264 311.651 147.573 314.207 145.152C316.763 142.732 318.866 140.696 318.911 140.629C319.047 140.312 315.27 135.879 312.827 133.504C306.811 127.646 298.758 122.76 290.683 120.068C284.124 117.874 279.374 117.105 271.684 117.015C268.63 116.992 265.69 116.992 265.125 117.037Z" fill="white" stroke="white" stroke-width="4"/>
<path d="M90.2167 120.792C89.9227 121.448 77.5956 147.618 62.8256 178.922C48.0783 210.249 36 235.921 36 235.989C36 236.057 40.3428 236.079 45.6581 236.057L55.2936 235.989L61.6495 221.92L68.0053 207.851L92.6595 207.829H117.336L123.466 221.897L129.596 235.989L139.231 236.057C144.524 236.079 148.867 236.034 148.867 235.966C148.867 235.785 149.59 237.391 112.112 153.883C106.932 142.303 101.39 129.998 99.8522 126.515C98.2916 123.032 96.9118 120.046 96.7987 119.888C96.6178 119.707 95.713 119.616 93.6774 119.616H90.7596L90.2167 120.792ZM101.481 171.073C106.027 181.365 109.714 189.847 109.669 189.892C109.623 189.937 101.978 189.937 92.7048 189.915L75.8313 189.847L84.449 171.006C89.1763 160.646 93.0893 152.21 93.1345 152.255C93.1798 152.3 96.9344 160.759 101.481 171.073Z" fill="white" stroke="white" stroke-width="4"/>
<path d="M168.766 178.538V235.876H177.587H186.408V178.538V121.199H177.587H168.766V178.538Z" fill="white" stroke="white" stroke-width="4"/>
</svg>
