<svg width="360" height="360" viewBox="0 0 360 360" fill="none" xmlns="http://www.w3.org/2000/svg">
<rect width="360" height="360" rx="82" fill="url(#paint0_angular)" fill-opacity="0.15"/>
<path d="M26.0469 171.006C26.0469 174.157 26.0469 177.308 26.0469 179.409C26.0469 208.82 34.4498 235.08 48.105 258.189C57.5586 225.626 72.2642 190.963 90.121 156.3C67.0122 160.502 46.0045 165.754 26.0469 171.006Z" fill="#FAA61A"/>
<path d="M53.3535 92.2256C79.6135 86.9736 107.974 82.7719 137.386 80.6711C151.041 60.7135 165.746 42.8566 181.502 27.1006C180.452 26.0502 180.452 26.0504 179.402 25C126.882 25 80.6639 52.3103 53.3535 92.2256Z" fill="#FAA61A"/>
<path d="M265.549 50.2085C253.995 95.3757 234.037 144.745 205.676 194.113C197.273 207.769 188.87 221.424 180.467 234.029C188.87 246.633 198.324 259.238 206.727 269.742C219.332 269.742 231.936 268.692 244.541 266.591C252.944 255.037 260.297 242.432 267.65 228.777C290.759 188.861 308.616 148.946 320.17 111.132C308.616 86.9724 289.708 65.9645 265.549 50.2085Z" fill="#FAA61A"/>
<path d="M265.537 50.2095C241.377 34.4535 211.966 25 180.454 25C179.404 25 179.404 25 178.354 25C201.462 50.2096 224.571 78.5703 245.579 112.183C253.982 90.1247 260.285 70.1672 265.537 50.2095Z" fill="#39B54A"/>
<path d="M320.162 113.233C311.759 138.442 301.255 164.702 287.6 192.013C297.053 214.071 305.456 236.13 311.759 257.138C312.809 257.138 313.86 257.138 314.91 256.087C327.515 234.029 334.868 207.769 334.868 180.458C335.918 155.249 330.666 133.19 320.162 113.233Z" fill="#39B54A"/>
<path d="M155.249 194.115C146.846 180.46 139.493 166.805 133.191 152.099C117.435 153.15 102.729 155.251 89.074 157.351C82.7716 168.906 77.5196 179.41 72.2676 190.964C78.57 203.569 85.9228 217.224 93.2756 229.829C116.384 269.744 141.594 304.407 167.854 333.818C172.056 333.818 176.257 333.818 180.459 333.818C205.668 333.818 228.777 327.516 249.785 317.012C217.223 285.5 183.61 243.484 155.249 194.115Z" fill="#39B54A"/>
<path d="M315.968 255.037C282.355 262.389 245.591 267.641 206.727 269.742C220.382 287.599 235.087 303.355 249.793 318.061C278.154 304.405 301.263 282.347 315.968 255.037Z" fill="#0077C0"/>
<path d="M116.381 267.643C92.2216 265.542 69.1128 261.34 48.1048 256.088C48.1048 257.139 47.0547 258.189 47.0547 259.239C72.2643 301.255 116.381 330.667 167.851 334.868C151.044 314.911 133.187 291.802 116.381 267.643Z" fill="#0077C0"/>
<path d="M180.459 78.5715C134.242 78.5715 91.1753 82.7729 52.3105 91.1761C36.5545 114.285 27.1008 140.545 25 169.956C70.1672 157.351 122.687 149.999 179.409 149.999C195.165 149.999 210.921 151.049 226.677 152.1C232.979 138.444 239.282 124.789 244.534 111.134C238.231 100.63 230.878 90.1257 223.526 79.6217C209.87 79.6217 195.165 78.5715 180.459 78.5715Z" fill="#0077C0"/>
<defs>
<radialGradient id="paint0_angular" cx="0" cy="0" r="1" gradientUnits="userSpaceOnUse" gradientTransform="translate(180 180) rotate(90) scale(180)">
<stop offset="0.0978698" stop-color="#3FB6FF"/>
<stop offset="0.21507" stop-color="#FAA61A"/>
<stop offset="0.311713" stop-color="#3AB1FA"/>
<stop offset="0.418077" stop-color="#FAA61A"/>
<stop offset="0.567416" stop-color="#39B54A"/>
<stop offset="0.653782" stop-color="#FAA61A"/>
<stop offset="0.749947" stop-color="#39B54A"/>
<stop offset="0.879242" stop-color="#3EB5FF"/>
<stop offset="0.975699" stop-color="#39B54A"/>
</radialGradient>
</defs>
</svg>
