<svg width="360" height="360" viewBox="0 0 360 360" fill="none" xmlns="http://www.w3.org/2000/svg">
<rect width="360" height="360" rx="82" fill="black"/>
<path fill-rule="evenodd" clip-rule="evenodd" d="M213.538 266.556V209.671H233.429V182.222H126.023V209.671H146.708V234.335C146.708 234.335 93.8002 224.787 88.2314 182.224C88.2314 182.224 85.0494 151.991 125.228 133.692C125.228 133.692 125.239 133.687 125.259 133.678C125.28 133.668 125.307 133.652 125.346 133.635C125.385 133.617 125.435 133.594 125.494 133.569C125.551 133.543 125.62 133.511 125.695 133.476C125.771 133.443 125.862 133.4 125.956 133.358C126.052 133.315 126.156 133.271 126.271 133.219C126.385 133.169 126.507 133.116 126.64 133.058V133.056C126.771 132.999 126.914 132.942 127.062 132.879V132.877C127.212 132.812 127.374 132.748 127.541 132.676V132.674C127.709 132.603 127.885 132.531 128.069 132.455V132.454C128.254 132.38 128.45 132.302 128.652 132.221V132.219C128.853 132.137 129.062 132.058 129.282 131.971V131.969C140.684 127.497 174.673 116.511 213.137 126.53V126.132V92.3198C213.137 92.3198 263.911 96.796 305.421 127.817V127.818C306.09 128.32 306.757 128.826 307.423 129.34C308.087 129.854 308.747 130.379 309.405 130.906C309.405 130.906 336.057 153.183 334.864 179.438C334.864 179.438 340.035 216.831 286.333 245.473C286.336 245.473 258.49 262.179 213.538 266.556Z" fill="#156AA0"/>
<path d="M213.538 217.083C221.448 218.229 251.906 223.892 284.698 246.388M117.851 137.446C130.959 141.55 214.762 164.865 284.835 114.695L117.851 137.446ZM180.123 122.274V182.222V122.274ZM88.1797 181.03H334.984H88.1797ZM124.141 134.199C118.986 143.543 103.28 178.421 124.128 226.595L124.141 134.199ZM213.141 105.488C220.96 111.308 245.363 133.321 245.363 181.427C245.363 181.427 247.247 229.339 213.538 256.093L213.141 105.488ZM213.141 95.8549C224.495 98.5579 293.36 117.561 296.28 181.427C296.28 181.427 298.216 243.703 213.538 263.913L213.141 95.8549ZM119.036 223.942C123.196 222.389 133.126 219.008 146.708 216.512L119.036 223.942Z" stroke="white" stroke-width="1.1342" stroke-miterlimit="2.6131"/>
<path fill-rule="evenodd" clip-rule="evenodd" d="M25.7779 186.598C25.7779 186.598 27.7673 221.206 73.9119 245.87C73.9119 245.87 126.023 277.693 213.54 266.953V209.671H233.828V182.222H126.025V209.671H145.915V233.538C83.064 217.627 89.4278 175.856 89.4278 175.856C98.578 125.733 173.761 122.948 173.761 122.948C173.761 122.948 196.039 121.756 213.542 126.927V92.3198C213.542 92.3198 144.723 79.1927 73.5162 115.392C73.5144 115.392 17.8221 144.431 25.7779 186.598Z" fill="white"/>
</svg>
