<svg width="360" height="360" viewBox="0 0 360 360" fill="none" xmlns="http://www.w3.org/2000/svg">
<rect width="360" height="360" rx="82" fill="#FF9933"/>
<path d="M177.371 325.342C115.561 306.558 70.6386 249.51 70.6386 182C70.6386 113.774 116.519 56.2518 179.267 37.952C185.693 36.0453 184.029 32 176.18 32C92.7416 32 25 99.2775 25 182C25 264.722 92.7416 332 176.18 332C184.029 332 184.503 327.481 177.371 325.342Z" fill="#0099CC"/>
<path d="M99.4004 216.946C98.9262 212.9 98.6841 208.865 98.6841 204.82C98.6841 138.975 151.939 85.7296 217.784 85.7296C280.058 85.7296 298.6 113.542 300.981 111.636C303.594 109.739 278.394 54.5876 205.416 54.5876C139.571 54.5876 86.3262 107.833 86.3262 173.678C86.3262 188.891 89.1811 203.397 94.4067 216.703C96.5454 222.413 99.8745 222.413 99.4004 216.946Z" fill="#0099CC"/>
<path d="M149.319 131.131C180.219 117.583 219.21 117.108 257.474 130.657C283.148 139.686 298.129 152.528 299.319 151.812C301.458 150.863 284.338 123.999 253.671 112.347C216.587 98.3244 176.658 105.699 147.655 128.518C144.326 131.131 145.516 132.795 149.319 131.131Z" fill="#0099CC"/>
</svg>
