<svg width="360" height="360" viewBox="0 0 360 360" fill="none" xmlns="http://www.w3.org/2000/svg">
<rect width="360" height="360" rx="82" fill="#6699CC"/>
<path d="M146.514 107.569C147.768 107.569 149.022 107.569 150.275 108.823C160.306 111.33 170.337 112.584 179.113 115.092L184.129 111.33V110.077L190.398 105.061C191.652 103.807 192.905 105.061 192.905 105.061L196.667 110.077C197.921 111.33 196.667 112.584 196.667 112.584L190.398 116.346C195.413 117.599 199.175 117.599 200.428 117.599C210.459 118.853 219.236 121.361 229.266 123.869C246.82 111.33 258.104 102.554 273.15 93.7768C281.927 88.7615 290.704 85 299.481 85C300.734 86.2538 299.481 90.0153 298.227 92.523C296.973 95.0306 294.465 98.7921 291.958 101.3C289.45 103.807 286.942 107.569 284.435 110.077C279.419 115.092 273.15 120.107 266.881 125.122C261.866 128.884 256.851 133.899 249.328 138.914C248.074 138.914 248.074 140.168 246.82 141.422C245.566 142.676 244.312 142.676 244.312 143.93C243.058 145.184 244.312 147.691 243.059 148.945C243.059 152.707 241.805 167.752 239.297 185.306L244.312 180.291C245.566 179.037 246.82 180.291 246.82 180.291L250.581 185.306C250.581 186.56 250.581 187.814 250.581 187.814L244.312 191.575V190.321L239.297 194.083C238.043 204.113 238.043 214.144 236.789 224.175C236.789 225.428 236.789 226.682 236.789 227.936V236.713C235.536 253.013 235.536 265.551 235.536 269.312C235.536 271.82 235.536 275.581 234.282 276.835C230.52 280.597 226.759 281.851 222.997 284.358C220.49 269.312 216.728 240.474 216.728 240.474V237.967C216.728 235.459 216.728 232.951 215.474 231.698C215.474 229.19 215.474 227.936 214.221 225.428V222.921L209.205 202.86L207.951 200.352L204.19 190.321V187.814L200.428 176.529C192.905 181.545 187.89 185.306 181.621 190.321C175.352 195.337 167.829 200.352 161.56 205.367C159.052 206.621 155.291 209.129 154.037 210.383C145.26 216.652 135.23 220.413 126.453 226.682C123.945 240.474 122.691 255.52 120.184 269.312C120.184 271.82 120.184 274.328 118.93 276.835C117.676 278.089 113.914 280.597 112.661 281.851C111.407 280.597 111.407 276.835 110.153 275.581C106.392 264.297 102.63 253.013 98.8686 241.728C96.3609 242.982 95.1071 242.982 92.5994 242.982C87.5841 246.743 81.315 251.759 75.0459 255.52C78.8073 251.759 91.3456 241.728 91.3456 241.728C91.3456 241.728 92.5995 239.221 95.1072 236.713C86.3304 230.444 76.2997 222.921 66.2691 216.652H65.0153C62.5077 215.398 61.2538 214.144 60 212.89C62.5077 211.636 66.2691 206.621 68.7767 207.875C72.5382 207.875 76.2997 209.129 81.315 210.383C92.5994 212.89 106.392 214.144 117.676 215.398C125.199 207.875 132.722 199.098 140.245 192.829L147.768 186.56C149.022 185.306 172.844 166.499 185.383 157.722C182.875 155.214 176.606 151.453 176.606 151.453L174.098 150.199L165.321 143.93L162.814 142.676L145.26 131.392L142.752 130.138L130.214 125.122L128.96 123.869C128.96 123.869 102.63 112.584 88.838 106.315C90.0919 105.061 91.3456 103.807 93.8532 101.3C96.3609 98.7921 98.8686 96.2844 102.63 96.2844C103.884 96.2844 105.138 97.5383 107.645 97.5383C115.168 100.046 126.453 102.554 138.991 105.061L146.514 107.569Z" fill="white"/>
</svg>
