<svg width="360" height="360" viewBox="0 0 360 360" fill="none" xmlns="http://www.w3.org/2000/svg">
<rect width="360" height="360" rx="82" fill="#106253"/>
<path d="M65 281.98H180.213C180.213 281.98 189.656 283.97 196.915 272.556C202.44 263.87 195.488 251.776 195.488 251.776L137.648 139.087C133.604 147.015 132.934 154.973 132.934 161.571C132.934 168.194 135.788 177.71 141.022 187.377C146.256 197.043 166.386 234.36 166.386 234.36C166.386 234.36 176.819 254.368 177.32 258.165C178.281 265.384 173.348 270.08 169.26 270.08H94.1165C82.4932 270.08 78.2206 261.709 77.9487 255.174L71.0593 270.08L65 281.984" fill="white"/>
<path d="M226.373 281.934H202.16C202.16 281.934 208.006 277.39 210.249 270.029C212.273 263.407 208.108 253.667 208.108 253.667L143.148 127.332L154.568 105.677L228.078 246.471C228.078 246.471 236.943 262.96 234.448 270.014C231.947 277.069 226.378 281.92 226.378 281.92" fill="white"/>
<path d="M258.708 281.937H244.312C244.312 281.937 250.974 271.532 247.954 262.749C242.832 247.862 234.704 233.704 234.704 233.704L160.52 93.5944L179.989 57L295.002 281.947H258.684" fill="white"/>
</svg>
