<svg width="360" height="360" viewBox="0 0 360 360" fill="none" xmlns="http://www.w3.org/2000/svg">
<rect width="360" height="360" rx="82" fill="#009ACE"/>
<path d="M265.158 138.871H283.247L283.528 146.41C286.039 143.326 289.208 140.845 292.803 139.146C296.398 137.448 300.327 136.577 304.303 136.596C324.168 136.596 335 148.879 335 170.282V220.108H316.24V170.954C316.24 159.949 309.502 153.623 300.057 153.623C290.612 153.623 283.918 159.949 283.918 170.954V220.151H265.158V138.871ZM147.722 220.151H128.983V102H147.765L147.722 220.151ZM89.058 138.871H107.623V220.151H89.058L88.7547 211.637C82.093 218.386 73.0628 222.271 63.5821 222.469C41.4207 222.447 25 204.618 25 179.619C25 152.973 42.7855 136.596 63.5821 136.596C68.3137 136.459 73.018 137.358 77.3661 139.228C81.7142 141.099 85.601 143.898 88.7547 147.428L89.058 138.871ZM44.1936 179.619C44.1936 195.217 53.747 205.615 67.0482 205.615C79.1579 205.615 89.9895 196.733 89.9895 179.619C89.9895 162.917 79.6129 153.623 67.1132 153.623C53.1621 153.623 44.1936 164.563 44.1936 179.619ZM226.099 179.619C226.099 162.679 215.419 153.623 203.266 153.623C188.752 153.623 180.368 165.43 180.368 179.619C180.368 194.588 189.402 205.615 203.266 205.615C216.026 205.615 226.099 196.127 226.099 179.619ZM243.798 212.114C243.798 246.992 223.391 258.56 199.367 258.56C189.298 258.729 179.333 256.501 170.295 252.061L174.952 235.943C182.357 240.114 190.717 242.293 199.215 242.269C213.188 242.269 225.059 233.301 225.059 217.161V211.572C221.848 215.094 217.917 217.885 213.533 219.754C209.148 221.622 204.413 222.526 199.648 222.404C177.769 222.404 161.218 204.792 161.218 179.468C161.218 155.205 176.794 136.553 199.735 136.553C204.476 136.395 209.193 137.283 213.552 139.155C217.91 141.027 221.802 143.837 224.951 147.384L225.189 138.827H243.798V212.114Z" fill="#3D3935"/>
</svg>
