<svg width="360" height="360" viewBox="0 0 360 360" fill="none" xmlns="http://www.w3.org/2000/svg">
<rect width="360" height="360" rx="82" fill="#00385F"/>
<path d="M303.713 92C278.117 92 264.752 98.8446 239.625 116.965L154.408 178.352H99.866C84.1051 178.352 71.4063 178.981 61.5355 188.349L47.3956 201.408C47.3956 201.408 88.4101 199.805 126.578 198.364L45 257.228H80.3044L163.792 196.959C180.003 196.31 191.117 196.005 191.297 196.005C210.697 195.5 221.504 178.352 221.504 178.352H189.55L256.953 129.683L206.878 210.775C196.215 229.382 190.973 242.747 189.226 257.049H218.172C219.271 244.962 223.413 232.408 230.871 219.997L299.102 106.158C303.857 98.359 308 92.0006 308 92.0006H303.713V92Z" fill="white"/>
</svg>
