<svg width="360" height="360" viewBox="0 0 360 360" fill="none" xmlns="http://www.w3.org/2000/svg">
<rect width="360" height="360" rx="82" fill="#0076C0"/>
<path d="M180.011 60C94.5603 60 25 112.775 25 177.68C25 242.54 94.5379 299.455 180.011 299.455C265.484 299.455 335 242.54 335 177.68C335.022 112.775 265.484 60 180.011 60ZM180.034 291.42C106.042 291.42 45.8368 238.332 45.8368 177.814C45.8368 117.273 106.042 68.0348 180.034 68.0348C254.048 68.0348 314.23 117.273 314.23 177.814C314.23 238.332 254.048 291.42 180.034 291.42Z" fill="white"/>
<path d="M150.435 228.33L153.099 231.038C153.099 231.06 158.47 234.037 158.47 234.037L163.551 236.812L164.2 237.17L167.937 239.252L174.249 242.698C174.629 242.81 175.39 242.81 175.39 242.81L183.492 242.295C188.147 242.206 193.563 242.295 197.212 243.952C201.218 246.011 199.853 249.726 199.853 249.726C199.853 249.726 203.993 246.772 203.21 243.258C202.807 240.281 199.226 236.364 187.409 235.671C183.693 235.447 178.098 235.962 178.098 235.962H177.583C177.583 235.872 172.279 232.47 172.279 232.47L170.063 231.194C169.75 231.06 162.722 227.345 162.722 227.345C162.722 227.345 158.269 225.599 158.246 225.577C158.246 225.442 154.262 219.87 154.262 219.87L152.808 217.81L148.555 211.678L146.742 209.015C146.63 208.858 144.303 205.255 144.303 205.255C144.504 205.299 146.72 201.898 146.474 198.272C146.16 198.764 145.937 198.876 144.28 200.308C142.602 201.674 137.633 203.912 134.298 204.785L132.799 205.188L144.661 220.765L150.435 228.33ZM169.907 219.511L170.712 220.541C171.048 220.832 176.062 222.824 176.062 222.824C179.419 224.189 184.007 226.293 186.133 227.591L191.795 230.926C192.243 231.105 198.084 230.68 201.912 230.993C206.724 231.373 210.461 233.186 212.408 236.006C215.027 239.722 211.849 243.705 211.849 243.705C212.543 243.347 217.981 239.901 217.601 234.395C217.243 229.113 212.677 224.167 195.734 224.368C195.734 224.323 191.079 221.615 191.079 221.615L189.714 220.81L182.194 216.96C182.194 216.96 176.084 214.879 176.062 214.879C176.062 214.655 174.629 212.193 174.629 212.193C172.637 208.612 169.884 205.076 167.512 201.942L166.773 201.047C166.773 201.047 162.611 195.295 162.118 194.579C163.439 191.737 162.32 187.641 162.32 187.641C162.32 187.641 161.626 189.006 160.462 190.461C159.298 191.938 156.232 194.377 154.083 195.541L152.942 196.28L168.318 217.273L169.907 219.511ZM176.845 181.934C177.785 178.554 175.994 175.242 175.994 175.242L175.077 177.39C174.316 179.248 172.279 181.374 169.123 183.411L168.183 183.926L180.605 201.696C180.605 201.718 181.343 202.86 181.343 202.86L183.716 206.06C184.029 206.374 188.908 209.127 188.908 209.127L190.743 210.156L196.339 213.491L201.464 216.915L201.844 217.027L209.499 217.52C214.109 217.9 216.795 219.623 218.183 220.608C223.017 224.1 220.421 229.314 220.421 229.314C220.421 229.314 226.889 223.204 222.636 216.602C221.047 214.319 218.854 212.126 212.408 211.387L204.508 210.29C204.508 210.223 200.255 207.359 200.255 207.359L194.705 203.912L193.273 203.061L188.707 201.069L176.845 181.934ZM125.189 76.4964C125.592 76.8993 126.89 78.1974 126.89 78.2198L133.157 83.9493C133.157 83.9941 136.738 87.3289 136.738 87.3289C139.379 89.8579 140.006 91.156 139.916 91.6708C139.804 92.1632 139.312 92.387 138.842 92.6556C138.372 92.9241 137.633 93.1032 137.633 93.1032L137.342 95.4756L138.819 95.4084C147.078 95.207 154.844 100.802 159.88 105.547C168.609 113.873 175.211 127.369 176.666 139.969L183.492 175.465L186.066 180.926L186.558 182.046L187.677 184.373C188.64 186.678 190.139 188.737 190.273 188.872C190.43 189.028 193.81 191.714 193.81 191.714L198.734 196.75L200.188 198.317L202.538 200.667C202.717 200.801 209.678 201.696 209.678 201.696C221.786 203.71 221.249 210.425 221.249 210.425C221.249 210.425 228.456 199.368 211.267 195.497C211.267 195.497 205.851 194.467 205.739 194.467V194.445C205.739 194.31 203.814 191.692 203.814 191.692C203.59 191.446 203.165 190.976 203.165 190.976C203.053 190.841 197.928 185.783 197.928 185.783L195.578 183.545C195.578 183.5 193.429 177.793 193.429 177.793L190.385 170.43C189.602 168.169 189.11 164.544 188.416 159.553C188.371 159.351 187.879 155.949 187.879 155.949L185.618 141.066C185.641 140.82 186.133 138.156 186.133 138.156C187.118 132.583 189.199 126.406 192.355 119.781C196.137 111.836 203.926 106.599 204.038 106.554C209.857 102.951 218.384 100.959 222.972 100.086C224.718 99.907 225.277 98.8775 225.591 97.848L225.792 97.2437L225.21 97.1542C222.681 96.6841 219.749 95.8337 219.526 95.3637C219.481 95.2741 219.436 95.0727 219.436 94.916C219.436 94.4684 219.772 93.7522 220.376 92.8346C220.398 92.8346 224.114 89.2536 224.114 89.2536L226.285 87.1051C226.285 87.1051 235.371 78.3093 236.58 77.1455L228.142 74.3031C227.023 75.4445 218.809 83.9717 218.809 83.9717C212.632 90.5965 205.672 98.0942 202.471 99.4146C194.638 102.615 186.603 110.269 183.425 117.61C183.425 117.633 182.037 121.236 181.276 123.206C178.904 116.357 175.927 110.695 171.876 105.748C167.445 100.444 162.029 96.4603 155.292 93.7299C151.644 90.2608 139.625 79.2717 133.112 73.9226L125.189 76.4964ZM157.261 255.657C146.228 261.274 140.118 256.395 142.803 250.487C146.407 252.904 151.98 254.672 157.261 255.657ZM138.327 247.264C130.807 249.323 128.032 244.041 129.8 239.744C131.232 241.4 136.537 246.167 138.327 247.264ZM70.7363 112.731C71.3182 113.134 72.7954 114.209 72.7954 114.209C72.9968 114.343 82.3297 122.087 83.7173 123.25C83.4935 123.855 79.644 134.486 79.644 134.486C76.1302 143.349 72.594 152.279 72.3925 159.329L72.4597 160.47C72.4821 160.627 75.5035 176.428 75.5035 176.428L75.7273 177.592C77.4283 185.895 79.353 195.34 80.1588 202.121C80.3378 204.046 80.8078 205.21 81.5464 205.658C86.1569 210.447 93.6769 220.183 102.764 238.759C103.032 239.252 103.166 239.542 103.301 239.744C104.174 242.295 105.27 244.019 106.568 244.847C108.225 245.876 111.38 245.943 113.439 244.847C118.095 241.803 121.385 237.528 123.421 232.358C124.138 233.209 126.062 235.738 126.376 236.096C118.542 249.659 132.396 254.672 137.298 252.747C134.455 260.961 144.952 267.564 154.822 263.177C156.098 268.504 160.328 270.07 164.356 270.831C168.362 271.637 173.801 272.062 182.709 271.256C196.093 270.16 208.245 266.064 213.125 263.535C223.442 258.275 229.06 251.583 232.372 246.883C232.417 246.772 233.021 246.055 233.424 245.496C234.521 247.443 235.662 249.256 236.96 250.643C240.25 253.866 243.339 255.299 245.868 254.851C247.658 254.515 249.068 253.419 250.008 251.36C254.597 240.326 264.601 226.718 272.434 217.609C272.434 217.587 273.173 216.154 273.173 216.154C274.896 209.686 280.984 193.661 284.229 185L286.534 178.778C286.534 178.733 286.982 177.278 286.982 177.278C287.139 174.794 287.228 172.31 287.228 169.87C287.228 158.724 285.617 148.071 282.551 139.074C281.051 134.508 279.529 131.755 278.097 129.07L276.441 126.048C278.679 122.736 285.169 118.349 290.384 114.835C290.384 114.835 290.675 114.656 290.787 114.611L284.386 107.606C283.983 107.875 279.91 110.695 279.91 110.695C275.254 113.873 270.554 115.149 267.622 113.985C267.197 113.828 263.325 111.635 263.325 111.635C263.101 111.478 262.408 111.165 262.408 111.165C262.273 111.142 261.087 110.986 261.087 110.986C260.93 110.986 259.655 111.277 259.655 111.277L258.804 111.478L260.125 113C262.855 116.245 264.265 119.02 266.235 122.803C266.28 122.892 267.421 125.019 267.421 125.019L268.54 127.637L268.764 128.174L270.241 131.979L270.51 132.785L271.315 134.978L274.404 145.811C277.022 156.844 278.343 165.931 278.41 173.697C278.41 173.809 278.298 174.593 278.298 174.593C278.276 174.637 274.672 184.798 274.672 184.798C270.935 195.362 266.257 208.5 265.205 213.916L264.981 214.565C254.977 224.995 247.882 237.304 244.861 244.645C244.391 245.608 244.055 245.742 243.921 245.764C243.451 245.854 242.287 244.78 241.66 244.198C239.154 241.937 237.654 237.237 237.833 232.246C238.079 226.159 240.698 220.72 245.085 217.296C245.801 216.759 245.532 215.751 245.376 215.17C244.167 208.231 246.114 197.6 250.411 194.579L251.508 193.773L250.434 192.945C238.169 183.433 232.171 165.864 231.656 152.749L231.589 151.025L229.687 151.831C229.463 152.01 228.747 153.129 228.747 153.129C228.254 155.681 228.053 158.277 228.053 160.784C228.053 167.52 229.351 173.406 229.888 175.51C231.589 182.762 235.17 189.454 240.429 195.497L240.653 195.765C238.37 198.63 237.363 205.613 237.363 210.984C237.363 212.64 237.453 214.05 237.654 215.214C231.925 220.16 230.336 226.45 230.022 230.903C230.022 230.903 230.201 235.648 230.201 235.693C230.134 235.581 227.404 239.229 227.404 239.229L226.866 240.012C221.428 247.51 217.601 252.747 208.492 257.425C198.554 262.573 179.352 266.131 166.863 264.9C162.275 264.385 162.767 260.267 162.767 260.066C162.767 259.506 162.969 258.902 163.394 258.365C163.394 258.365 164.311 257.38 164.58 257.089C176.397 258.432 187.655 257 192.333 254.515C192.534 254.336 193.966 252.188 193.966 252.188L194.526 251.181L193.384 251.449C183.335 253.978 163.394 250.666 152.83 246.19C141.102 241.176 137.521 236.432 127.92 223.764L125.234 220.25C125.145 216.714 124.182 213.11 122.481 210.067C120.87 207.224 118.744 205.411 118.117 204.919C118.833 202.793 119.258 199.838 119.258 196.705C119.258 192.453 118.475 188.156 116.998 185.761C124.138 180.188 127.741 174.458 127.651 167.878C127.584 164.767 125.883 160.023 125.883 160.023L123.153 158.747L123.332 160.56C124.428 171.683 114.066 178.89 107.195 183.702C107.195 183.724 105.181 185.089 105.181 185.089L106.501 185.917C111.873 189.275 111.962 200.577 110.731 206.933L110.664 207.291L110.955 207.806L111.268 207.963C111.224 207.94 113.842 210.044 113.842 210.044C119.258 217.318 118.811 228.576 112.857 235.223C111.649 236.476 111 236.633 110.664 236.611C109.769 236.432 109.075 234.35 108.874 233.656C108.829 233.567 107.195 230.165 107.195 230.165C102.517 220.407 98.5784 212.215 89.4693 201.338C89.4693 201.316 89.2455 200.465 89.2455 200.465C87.4774 186.208 85.2616 175.645 83.0907 165.461L81.9045 159.933C81.9045 159.911 81.7702 158.501 81.7702 158.501C82.4192 147.668 85.7764 139.163 89.6931 129.316L92.0655 123.161L94.035 118.461C94.0574 118.461 94.3931 117.767 94.3931 117.767C96.6983 114.477 99.8093 111.344 103.569 108.457L105.248 107.203L103.055 106.286C103.055 106.286 98.8022 106.756 94.5274 108.859L93.7664 109.218C90.6331 110.672 87.0521 111.814 84.344 110.762C84.344 110.762 77.1597 106.487 76.8016 106.286L70.7363 112.731Z" fill="white"/>
</svg>
