<svg width="360" height="360" viewBox="0 0 360 360" fill="none" xmlns="http://www.w3.org/2000/svg">
<rect width="360" height="360" rx="82" fill="#FA6801"/>
<path d="M61 133.044C61 92.7027 93.7027 60 134.044 60V133.044H61Z" fill="white"/>
<path d="M143.721 60H216.764V133.044H143.721V60Z" fill="white"/>
<path d="M225.957 60C266.298 60 299.001 92.7027 299.001 133.044H225.957V60Z" fill="white"/>
<path d="M225.957 142.718H299.001V215.761H225.957V142.718Z" fill="white"/>
<path d="M61 142.718H134.044V215.761H61V142.718Z" fill="white"/>
<path d="M61 224.953H134.044V297.996C93.7027 297.996 61 265.293 61 224.953Z" fill="white"/>
<path d="M225.957 224.953H299.001V297.996C258.66 297.996 225.957 265.293 225.957 224.953Z" fill="white"/>
<path d="M143.721 224.953H216.764C216.764 265.293 184.062 297.996 143.721 297.996V224.953Z" fill="white"/>
</svg>
