<svg width="360" height="360" viewBox="0 0 360 360" fill="none" xmlns="http://www.w3.org/2000/svg">
<rect width="360" height="360" rx="82" fill="black"/>
<path d="M144.047 313.358C99.8641 305.815 61.7758 278.162 41.2023 238.689C19.2427 196.556 19.6234 147.167 42.2328 104.988C60.5345 70.846 94.1547 44.4145 131.239 35.0139C145.96 31.2821 148.641 30.9871 167.71 31.0004C184.377 31.012 185.874 31.1104 194.101 32.7357C222.778 38.4007 247.851 51.7517 268.367 72.2814C291.697 95.6261 305.65 124.944 309.365 158.43C309.747 161.877 309.997 192.545 310 236.451C310.004 301.838 309.909 308.83 309.007 309.176C307.703 309.676 230.275 309.676 228.971 309.176C228.077 308.833 227.973 304.994 227.973 272.298C227.973 252.227 227.731 235.655 227.436 235.473C226.918 235.152 214.331 248.401 174.763 290.915C154.163 313.05 152.599 314.635 151.452 314.548C151.023 314.516 147.691 313.98 144.047 313.358ZM227.842 201.024C227.965 179.933 227.789 167.474 227.322 164.181C224.047 141.08 207.79 122.09 185.191 114.965C157.211 106.143 126.653 119.252 113.288 145.81C108.848 154.632 106.348 166.913 107.063 176.383C108.924 201.043 124.844 221.985 147.668 229.799C151.056 230.959 155.39 232.168 157.299 232.486C159.208 232.804 175.819 233.025 194.213 232.977L227.657 232.89L227.842 201.024Z" fill="#50104A"/>
</svg>
