<svg width="360" height="360" viewBox="0 0 360 360" fill="none" xmlns="http://www.w3.org/2000/svg">
<rect width="360" height="360" rx="82" fill="#1F3462"/>
<path d="M87.2578 181.39C87.2578 181.39 103.76 185.516 107.428 178.64C116.596 161.679 90.4667 107.586 90.4667 107.586C90.4667 107.586 120.722 177.723 155.561 210.27C174.355 228.148 196.359 229.065 211.486 220.813C242.2 204.311 282.998 121.797 287.582 113.546C292.166 105.294 257.785 187.808 245.867 206.603C233.948 225.397 223.405 246.484 184.44 247.859C137.683 249.693 87.2578 181.39 87.2578 181.39Z" fill="#1F99D6"/>
<path d="M46 128.216C46 119.048 53.3345 111.713 62.5027 111.713C71.6708 111.713 79.0054 119.048 79.0054 128.216C79.0054 137.384 71.6708 144.719 62.5027 144.719C53.3345 144.719 46 137.384 46 128.216Z" fill="#BCDCF5"/>
<path d="M160.603 47.5334C160.603 47.5334 172.522 43.4077 174.355 45.2413C178.023 49.367 177.106 53.9511 167.938 64.4944C158.311 75.0378 131.265 103.918 131.265 103.918C131.265 103.918 186.732 53.9511 202.318 58.9936C215.154 63.1192 209.653 81.4555 207.819 87.8732C205.527 94.291 180.315 162.594 89.0916 304.7C88.1747 306.075 223.405 144.716 229.364 75.9546C234.407 17.7368 205.986 25.0714 203.694 25.5298C179.398 30.5723 160.603 47.5334 160.603 47.5334Z" fill="white"/>
</svg>
