<svg width="360" height="360" viewBox="0 0 360 360" fill="none" xmlns="http://www.w3.org/2000/svg">
<rect width="360" height="360" rx="82" fill="#135EAB"/>
<path d="M325.939 129.735C325.515 128.222 324.436 127.365 323.044 127.576C321.642 127.776 320.684 129.069 320.896 130.471C340.594 256.993 181.423 343.2 91.121 223.043C86.7638 217.243 78.9469 214.722 71.1402 214.722C55.5368 214.722 42.8887 227.44 42.8887 243.124C42.8887 248.036 44.0486 252.646 46.2171 256.67C72.7541 303.46 122.742 335 180.132 335C265.25 335 334.26 265.607 334.26 180.005C334.26 161.86 331.547 147.174 325.939 129.735Z" fill="#ED2724"/>
<path d="M215.13 171.064C219.114 175.35 225.751 177.287 232.044 177.287C246.417 177.287 258.087 165.557 258.087 151.093C258.087 145.909 256.282 141.279 254.133 136.952C217.087 69.808 93.9738 80.913 94.9017 185.699C94.9118 187.011 95.9507 188.069 97.2619 188.069C98.2906 188.069 99.1885 187.403 99.491 186.465C117.021 132.463 180.262 126.634 215.13 171.064Z" fill="#ED2724"/>
<path d="M34.3211 230.265C34.8454 231.646 35.8239 232.635 37.2159 232.423C38.6077 232.223 39.5761 230.931 39.3745 229.529C19.666 103.007 178.837 16.7999 269.139 136.957C273.496 142.757 281.313 145.278 289.12 145.278C304.723 145.278 317.372 132.56 317.372 116.866C317.372 111.964 316.212 107.354 314.033 103.33C287.506 56.5398 237.519 25 180.128 25C95.0102 25 26 94.3934 26 179.996C26 198.14 28.3906 212.917 34.3213 230.265" fill="white"/>
<path d="M145.132 188.934C141.148 184.647 134.511 182.721 128.218 182.721C113.835 182.721 102.175 194.441 102.175 208.905C102.175 214.089 103.97 218.718 106.129 223.045C143.175 290.19 266.288 279.085 265.36 174.309C265.35 172.996 264.311 171.93 263 171.93C261.961 171.93 261.074 172.605 260.771 173.534C243.241 227.536 180 233.366 145.132 188.936" fill="white"/>
</svg>
