<svg width="360" height="360" viewBox="0 0 360 360" fill="none" xmlns="http://www.w3.org/2000/svg">
<rect width="360" height="360" rx="82" fill="#D4004B"/>
<path d="M305.657 94.8818C304.97 93.2682 302.91 92.6846 301.537 93.4399L301.193 93.5085C294.67 96.5985 235.275 123.79 180 123.79C124.381 123.79 65.3297 96.5641 58.8065 93.5085C58.4632 93.4399 58.4632 93.4742 58.4632 93.4055L58.1199 93.2682C57.7766 93.0965 57.0899 93.4399 56.7466 93.5772C55.7166 93.8175 55.03 94.0235 54.3433 94.7789C54.3433 94.9162 54.3433 95.0535 54.3433 95.1565C54.3433 95.1908 54.3433 95.1908 54.3433 95.1908C54.3433 95.4312 54.3433 95.7401 54.3433 95.9805C54.3433 96.1521 54 96.2551 54 96.3925C54 97.4224 54.6866 98.3837 55.3733 99.0017C56.0599 99.3794 113.395 138.415 142.234 188.884C170.73 238.151 176.567 306.301 176.91 309.15C176.91 310.833 178.283 312 180 312C181.717 312 183.09 310.695 183.09 309.013C183.777 301.769 189.956 236.675 217.422 188.884C246.262 138.93 303.94 99.3794 304.283 99.036C305.313 98.4867 305.657 97.5254 305.657 96.5641C306 96.4954 306 96.4268 306 96.2895C306 95.8431 306 95.3625 305.657 94.8818Z" fill="white"/>
</svg>
