<svg width="360" height="360" viewBox="0 0 360 360" fill="none" xmlns="http://www.w3.org/2000/svg">
<rect width="360" height="360" rx="82" fill="#346094"/>
<path opacity="0.6" d="M229.244 251.883C213.132 286.636 166.373 314.754 125.302 314.754C84.2308 314.754 64.0111 286.636 80.1237 251.883C121.195 164.054 243.777 82.543 243.777 82.543C243.777 82.543 271.263 162.158 229.244 251.883Z" fill="#346094"/>
<path d="M263.681 44C263.681 44 118.984 146.046 73.1738 244.302C55.1656 282.845 77.9128 314.123 123.723 314.755C83.5996 314.123 64.0118 286.321 80.1243 251.884C121.196 164.055 243.778 82.5438 243.778 82.5438C243.778 82.5438 271.264 162.159 229.561 251.884C213.448 286.637 167.006 314.755 125.619 314.755C172.693 314.755 225.453 283.161 243.462 244.302C290.22 143.835 263.681 44 263.681 44Z" fill="#0B305C"/>
<path d="M221.03 259.782C206.813 290.112 164.162 315.07 125.618 315.07C87.0745 315.07 67.4866 290.428 81.3877 259.782C117.088 183.01 216.291 120.14 216.291 120.14C216.291 120.14 257.678 181.115 221.03 259.782Z" fill="#C1CBDD"/>
<path d="M195.441 274.315C183.119 298.958 150.262 317.914 121.828 316.966C93.3943 316.018 80.4411 295.167 92.7625 270.84C123.724 208.917 200.496 160.263 200.496 160.263C183.435 226.293 219.136 227.241 195.441 274.315Z" fill="white"/>
<path d="M123.722 246.83C123.722 246.83 82.3353 294.22 115.192 301.17C115.192 300.854 101.607 285.689 123.722 246.83Z" fill="#9AACC9"/>
</svg>
