<svg width="360" height="360" viewBox="0 0 360 360" fill="none" xmlns="http://www.w3.org/2000/svg">
<rect width="360" height="360" rx="82" fill="#569BBE"/>
<circle cx="180" cy="180" r="155.455" fill="#4681C7" fill-opacity="0.06"/>
<circle cx="180" cy="180" r="155.205" stroke="#2869BF" stroke-opacity="0.04" stroke-width="0.5"/>
<path d="M209.156 89.6809L101.825 89.5895L85.2241 106.368L209.156 106.433C228.1 106.433 243.407 121.459 243.407 139.974V297.114H260.588L260.642 139.974C260.642 112.194 237.586 89.6809 209.156 89.6809ZM295 297.114L294.984 139.974C294.984 93.6901 256.552 56.0107 209.151 56.0107L135.023 56L118.427 72.7786L209.156 72.8001C247.066 72.8001 277.797 102.939 277.797 139.974V297.114H295ZM209.156 123.206L68.6497 123.174L52 139.942H52.2257L52 139.974L52.0054 213.177C52.0054 255.871 84.5415 291.218 126.837 296.479L142.697 280.373L137.844 280.346C99.9175 280.346 69.1763 250.196 69.1763 213.177V139.947H86.3849L86.3419 213.177C86.3419 240.93 109.398 263.454 137.844 263.454H159.406L175.98 246.692H137.844C118.889 246.692 103.588 231.676 103.588 213.177V139.947H120.619L120.635 213.177C120.689 222.432 128.353 229.908 137.839 229.908H192.544L209.097 213.194L137.839 213.177V139.958L209.151 139.974V297.114H226.365L226.359 139.974C226.305 130.703 218.636 123.206 209.156 123.206Z" fill="white"/>
</svg>
