<svg width="360" height="360" viewBox="0 0 360 360" fill="none" xmlns="http://www.w3.org/2000/svg">
<rect width="360" height="360" rx="82" fill="#003F5F"/>
<path d="M238.443 180.21V179.953C238.443 153.64 258.694 133 286.043 133C304.492 133 316.351 140.739 324.359 151.838L305.515 166.41C300.358 159.959 294.429 155.833 285.786 155.833C273.135 155.833 264.241 166.542 264.241 179.696V179.953C264.241 193.502 273.135 204.073 285.786 204.073C295.201 204.073 300.742 199.689 306.162 193.112L325 206.523C316.483 218.263 305 226.912 285.013 226.912C259.216 226.912 238.443 207.176 238.443 180.21Z" fill="white"/>
<path d="M89.2958 189.884L79.7921 161.982L70.1629 189.884H89.2958ZM68.6114 134.545H91.3247L124.936 225.486H101.262L96.067 209.362H64.1704L58.4231 225.486H35L68.6114 134.545Z" fill="white"/>
<path d="M214.192 134.547H192.007L173.439 186.971L155.123 134.547H132.937L117.234 181.518L131.065 218.93L145.148 175.419L162.045 225.482H184.947L201.837 175.419L218.52 225.482H244.908L214.192 134.547Z" fill="white"/>
</svg>
