<svg width="360" height="360" viewBox="0 0 360 360" fill="none" xmlns="http://www.w3.org/2000/svg">
<rect width="360" height="360" rx="82" fill="#035643"/>
<path d="M75 65V295.631L335 182.907L75 65ZM125.532 202.774L122.508 194.136H105.233L102.209 202.774H90.1163L107.392 159.153H122.076L139.352 202.774H125.532ZM197.226 202.774H186.86V166.495L176.495 203.206H165.698L156.196 166.495V203.206H145.831V159.153H165.266L172.608 188.522L179.518 159.153H198.09L197.226 202.774ZM227.458 203.638C214.07 203.206 205.864 194.568 205.864 181.179C205.864 167.791 214.07 158.721 227.458 158.721C237.824 158.289 249.053 160.017 249.053 172.542H236.96C236.528 168.223 233.073 166.927 229.186 166.927C220.98 166.927 217.957 174.269 217.957 181.179C217.957 189.817 222.276 195.432 230.914 195.432C233.073 195.432 234.801 195 236.96 194.568V186.362H227.89V178.156H248.621V201.478C239.983 202.774 238.256 203.638 227.458 203.638Z" fill="white"/>
<path d="M113.851 167.792L108.236 185.932H119.897L114.283 167.792H113.851Z" fill="white"/>
</svg>
