<svg width="360" height="360" viewBox="0 0 360 360" fill="none" xmlns="http://www.w3.org/2000/svg">
<rect width="360" height="360" rx="82" fill="black"/>
<path fill-rule="evenodd" clip-rule="evenodd" d="M94.0636 215.459V143.022H101.487C101.487 143.022 111.161 145.722 119.935 157.647C128.708 169.344 130.732 175.868 130.732 175.868C130.732 175.868 134.783 162.819 143.781 154.499C153.004 146.174 159.75 143.024 159.75 143.024H167.174V163.497C167.174 163.497 177.973 141 203.394 141C228.816 141 237.812 167.322 237.812 167.322H219.366C219.366 167.322 216.889 159.225 203.167 159.225C189.22 159.225 182.247 171.371 182.247 180.145C182.247 189.143 190.567 202.642 203.167 202.642C215.54 202.642 221.838 190.492 221.838 190.492H201.143V172.046H240.962V143.024H277.407V161.697H258.736V172.046H277.182V190.269H258.959V198.589H277.182V215.686H241.189V195.666C241.189 195.666 233.091 219.063 203.169 219.063C173.474 219.063 168.3 194.542 168.3 194.542V215.461H149.627V176.545C149.627 176.545 143.328 177.896 142.205 192.518C140.854 206.914 140.854 215.686 140.854 215.686H120.834C120.834 215.686 120.609 199.49 119.26 192.068C117.01 179.019 112.284 177.896 112.284 177.896V215.688L94.0636 215.459ZM281.458 215.686V143.022H287.082C287.082 143.022 300.131 152.698 306.431 160.57C312.505 168.444 314.53 170.466 314.53 170.466V143.022H335V215.686H315.881C315.881 215.686 317.004 209.84 310.256 198.364C303.731 187.121 300.131 183.969 300.131 183.969V215.688H281.458V215.686ZM47.2714 165.071C29.2738 193.415 25 215.686 25 215.686H44.5716C44.5716 215.686 45.247 212.313 46.3708 207.591C47.4965 203.09 48.17 199.04 48.17 199.04H71.3438V215.686H87.9906V143.022C87.9906 143.022 65.269 136.724 47.2714 165.071ZM56.7195 181.717C56.7195 181.717 58.969 176.993 63.2427 171.821C67.2933 167.097 71.3419 165.746 71.3419 165.746L71.5671 181.719H56.7195V181.717Z" fill="#B5D6EF"/>
</svg>
