<svg width="360" height="360" viewBox="0 0 360 360" fill="none" xmlns="http://www.w3.org/2000/svg">
<rect width="360" height="360" rx="82" fill="#AF282F"/>
<path d="M84.6529 285V260.46H105.985V155.323H84.7331V143.133H63L67.0098 139.765L180.728 46.497C181.079 46.032 181.534 45.6547 182.055 45.395C182.577 45.1352 183.152 45 183.735 45C184.318 45 184.893 45.1352 185.415 45.395C185.937 45.6547 186.391 46.032 186.742 46.497C195.564 54.5166 204.546 62.0551 213.528 69.6737C214.796 70.6649 216.333 71.2517 217.939 71.3578C226.6 71.3578 235.261 71.3578 243.922 71.3578H246.97V78.7358C247.21 81.8588 247.21 84.9958 246.97 88.1188C246.401 91.5122 246.862 94.9981 248.291 98.128C249.72 101.258 252.053 103.889 254.989 105.682C268.382 116.508 281.213 128.137 294.285 139.444L296.852 141.77H279.93V154.922H258.678V260.3H279.529V284.92H198.852V260.46H219.543V222.046H145.041V260.3H165.891V285H84.6529ZM145.041 192.133H219.703V155.323H198.611V142.812H165.891V155.323H145.041V192.133Z" fill="white"/>
</svg>
