<svg width="360" height="360" viewBox="0 0 360 360" fill="none" xmlns="http://www.w3.org/2000/svg">
<rect width="360" height="360" rx="82" fill="#0B3865"/>
<path d="M273.772 273.617L207.527 246.22L180 312.576L152.532 246.22L86.2405 273.617L113.761 207.359L47.3726 179.851L113.761 152.364L86.2405 86.0984L152.532 113.489L180 47.2305L207.527 113.489L207.191 113.663L273.773 86.0979L246.356 152.363L312.699 179.851L246.336 207.358L273.772 273.617ZM180 25C94.417 25 25 94.3977 25 180C25 265.628 94.417 335.019 180 335.019C265.602 335.019 335 265.628 335 180C335 94.3977 265.602 25 180 25Z" fill="white"/>
<path d="M259.76 100.117L123.619 156.507L180.003 179.855L203.351 236.187L259.76 100.117Z" fill="white"/>
</svg>
