<svg width="360" height="363" viewBox="0 0 360 363" fill="none" xmlns="http://www.w3.org/2000/svg">
<rect y="3" width="360" height="360" rx="82" fill="black"/>
<path d="M179.873 117.254V170.312L185.417 178.555C188.464 183.083 196.127 194.49 202.455 203.923C208.782 213.356 217.983 227.085 222.917 234.428C227.851 241.772 233.976 250.944 236.559 254.804L241.261 261.828L278.645 261.857C299.195 261.857 316.001 261.77 316.001 261.683C316.001 261.567 313.562 257.939 310.573 253.614C307.583 249.289 299.834 238.028 293.361 228.623C273.014 199.076 254.148 171.676 249.678 165.204C247.298 161.779 242.625 154.987 239.287 150.111C235.92 145.234 231.16 138.327 228.693 134.727C226.197 131.128 218.157 119.431 210.785 108.75C203.412 98.0397 193.515 83.6433 188.755 76.7353C183.995 69.8564 180.047 64.1965 179.989 64.1965C179.931 64.1965 179.873 88.0841 179.873 117.254Z" fill="#D21241"/>
<path d="M171.304 76.8202C166.515 83.7571 156.588 98.1826 149.216 108.893C141.843 119.574 133.804 131.271 131.307 134.87C128.84 138.469 124.08 145.377 120.713 150.254C117.375 155.13 112.702 161.922 110.322 165.347C105.852 171.819 86.9861 199.219 66.6395 228.766C60.167 238.17 52.4173 249.432 49.4277 253.757C46.4381 258.082 44 261.71 44 261.826C44 261.913 60.8055 262 81.3843 262L118.74 261.971L123.442 254.947C128.26 247.72 141.64 227.779 160.478 199.741C166.37 190.947 173.191 180.759 175.658 177.102L180.128 170.426L180.069 117.31L179.982 64.1943L171.304 76.8202Z" fill="white"/>
</svg>
