<svg width="360" height="360" viewBox="0 0 360 360" fill="none" xmlns="http://www.w3.org/2000/svg">
<rect width="360" height="360" rx="82" fill="black"/>
<path d="M52.2176 255.25C76.8781 283.973 109.952 304.572 146.798 314.146C179.872 320.818 214.397 317.337 245.15 303.411C260.527 296.448 274.453 286.584 286.348 274.399C287.508 272.658 286.928 270.337 285.187 269.176C283.737 268.596 281.706 268.596 280.255 269.176C257.625 280.781 233.255 288.905 208.304 293.257C181.903 296.158 155.212 294.417 129.681 287.744C103.57 279.041 78.6189 266.565 55.9892 250.608C54.2485 250.028 52.5077 250.899 52.2176 252.639C51.9275 253.8 51.9275 254.67 52.2176 255.25Z" fill="#F39700"/>
<path d="M261.397 261.343C271.262 259.312 281.416 259.022 291.57 259.893H291.86C295.052 260.763 297.083 263.954 296.502 267.436C294.471 277.3 291.28 286.874 287.218 295.868C286.928 296.738 287.509 297.609 288.379 297.899C288.959 298.189 289.249 297.899 289.83 297.609C302.015 288.035 308.978 273.528 308.978 257.862C309.268 253.8 306.657 250.318 302.595 249.738C287.799 247.127 272.712 250.318 259.947 258.442C259.366 259.022 259.076 259.893 259.657 260.763C260.237 261.343 260.817 261.633 261.397 261.343Z" fill="#F39700"/>
<path d="M210.334 222.176C205.112 227.979 199.02 233.201 192.347 237.843C179.871 245.096 165.655 249.158 151.149 249.448C138.384 249.158 125.908 244.806 115.754 237.263C98.6368 221.596 91.9639 197.806 98.9269 175.466C105.31 156.028 120.106 140.361 139.254 133.108C160.143 126.725 181.902 123.534 203.952 123.534V100.614C202.501 90.1697 194.088 82.0462 183.643 80.8857C176.97 80.0153 170.588 80.8857 164.495 83.4968C155.791 87.5585 149.699 95.3919 147.668 104.966C146.217 107.867 143.026 109.608 139.834 109.028L108.501 106.126C105.6 105.256 103.569 102.935 103.279 99.7437C105.6 84.0771 113.723 70.4412 125.618 60.577C141.575 48.3918 161.304 41.719 181.612 42.0091C200.18 42.2992 218.458 48.1017 233.835 59.1264C246.6 69.861 253.563 85.8178 252.693 102.355V181.559C252.983 188.232 254.723 194.904 257.625 200.707L267.489 214.923C268.649 217.244 268.649 219.565 267.489 221.886L238.477 246.546C235.865 247.997 232.964 247.707 230.643 246.256C223.1 239.003 216.137 230.88 210.334 222.176ZM203.662 150.225C194.668 149.935 185.384 150.515 176.39 151.966C165.365 154.287 156.081 161.54 150.569 171.404C146.217 182.139 146.797 194.324 152.6 204.769C159.563 213.472 171.458 216.374 181.612 212.312C193.507 204.769 201.631 192.293 203.662 178.077V150.225Z" fill="white"/>
</svg>
