<svg width="360" height="360" viewBox="0 0 360 360" fill="none" xmlns="http://www.w3.org/2000/svg">
<rect width="360" height="360" rx="82" fill="black"/>
<path d="M180 21.0413C94.3928 21.0413 25 92.4516 25 180.539C25 268.608 94.3928 340 180 340C265.607 340 335 268.608 335 180.539C335 92.4516 265.607 21.0413 180 21.0413ZM269.735 189.313L220.499 219.224C211.096 224.907 195.696 234.291 186.293 239.992L137.058 269.867C127.655 275.605 119.955 271.218 119.955 260.168V199.012C119.955 187.962 119.955 169.878 119.955 158.809V97.7269C119.955 86.6766 127.655 82.2898 137.058 87.9908L186.293 117.884C195.696 123.603 211.096 132.932 220.499 138.652L269.735 168.545C279.138 174.246 279.138 183.575 269.735 189.313Z" fill="#F5D300"/>
</svg>
