<svg width="360" height="360" viewBox="0 0 360 360" fill="none" xmlns="http://www.w3.org/2000/svg">
<rect width="360" height="360" rx="82" fill="#005DAA"/>
<path d="M206.458 197.334C206.203 197.334 205.948 197.334 205.693 197.334C205.269 200.561 204.929 203.704 204.419 207.016C204.844 207.696 205.184 208.29 205.608 209.055C206.543 210.584 207.392 212.282 208.157 213.896C204.589 213.471 201.107 212.962 197.54 212.622C196.605 213.896 195.841 215.085 194.992 216.359C194.822 216.614 194.312 217.548 194.057 217.633C193.123 216.104 192.274 214.661 191.339 213.132C190.15 212.877 188.876 212.452 187.772 212.197C187.092 212.367 186.498 212.452 185.818 212.622C184.629 212.877 183.525 213.132 182.336 213.302C181.062 213.556 180.043 213.981 178.344 213.981H176.136C174.607 213.556 173.163 213.217 171.634 212.962C171.21 212.962 170.7 212.792 170.36 212.792C169.681 212.622 168.916 212.622 168.322 212.537C168.067 212.707 167.897 212.792 167.642 213.047C167.387 213.302 166.963 213.556 166.708 213.811C166.198 214.746 165.689 215.765 165.179 216.614C164.924 217.039 164.754 217.294 164.5 217.633C163.48 216.104 162.461 214.576 161.442 213.132H151.759C151.759 212.367 151.589 211.688 151.589 210.923C152.609 209.904 153.628 208.97 154.647 207.951C154.222 204.978 153.883 202.09 153.458 199.287C153.203 197.589 153.458 196.484 152.269 195.55C152.269 196.994 152.439 198.778 152.014 199.882C151.504 201.58 150.57 202.685 149.296 203.704C148.617 204.213 148.107 204.893 147.512 205.403C146.238 206.422 144.54 207.951 141.992 207.356C139.529 206.847 137.405 205.148 135.621 203.874C134.942 204.298 134.347 204.638 133.668 204.893C132.734 205.403 131.884 205.827 130.865 206.337C130.101 206.762 129.421 207.271 128.572 207.526C127.298 207.951 125.599 207.781 124.58 207.356C122.881 206.592 122.117 205.063 120.843 204.044C119.569 204.978 118.295 205.827 116.851 206.762C115.916 207.441 115.152 208.036 114.048 208.545C112.774 209.055 110.82 208.97 109.716 208.375C109.037 208.121 108.442 207.696 107.932 207.356C106.743 206.422 105.894 204.893 104.96 203.619C104.705 203.194 104.45 202.855 104.195 202.43C104.195 202.43 104.025 202.43 104.025 202.6C103.516 203.619 101.732 204.298 100.543 204.808C99.269 205.318 98.0799 205.827 96.9758 206.337C96.2113 206.762 95.4469 207.101 94.4277 207.356C92.729 207.781 90.6905 207.356 89.5864 206.677C88.0575 205.742 87.2931 204.214 86.3588 202.685C85.9341 202.005 85.5944 201.411 85.3396 200.731C85.0848 201.241 84.83 201.75 84.5752 202.26C83.8957 203.279 83.5559 204.214 82.7915 205.063C81.3476 206.847 78.7146 207.271 76.1665 208.036C74.7226 208.46 73.1938 208.8 71.8348 209.225C69.7963 209.649 67.7579 208.715 66.7387 207.951C65.7194 207.186 64.955 205.912 64.7002 204.214C64.5303 203.279 64.5303 202.26 64.4454 201.411C64.1906 201.835 63.7659 202.345 63.5111 202.685C62.8316 203.704 62.0672 204.638 61.048 205.403C59.7739 206.422 57.9903 207.101 56.4615 207.866C54.423 208.8 52.3845 209.904 50.1762 210.584C48.6474 211.093 46.6938 211.263 45.165 210.584C42.7019 209.564 42.1073 206.847 41.3429 204.044C41.173 203.279 40.9182 202.515 40.8333 201.58C39.3894 202.77 38.0304 203.874 36.5865 205.063C34.633 205.827 32.5945 206.507 30.7259 207.271C29.7917 207.696 28.9423 207.951 28.008 208.29C27.8381 208.46 27.2436 208.715 27.0737 208.545C26.5641 207.611 25.8846 206.847 25.375 205.997V201.156C45.3349 181.621 65.1249 162.17 85.0848 142.635C97.4854 140.851 109.971 139.153 122.372 137.369C123.9 138.388 125.429 139.577 126.958 140.597C129.421 142.295 131.714 143.824 134.093 145.438C135.621 146.627 137.32 147.646 138.849 148.751C139.613 149.005 140.378 149.43 141.142 149.685C142.586 150.194 143.86 150.874 145.219 151.384C147.428 150.874 149.466 150.364 151.589 149.685C153.033 148.92 154.562 148.156 155.921 147.392C157.875 146.372 159.743 145.438 161.697 144.419C163.395 143.145 165.009 141.701 166.708 140.427C170.7 137.369 174.522 134.142 178.429 130.999C179.193 130.319 179.958 129.725 180.892 129.045C182.676 127.771 184.46 126.497 186.243 125.223C187.432 124.459 188.451 123.525 189.556 122.76C190.32 122.59 191.084 122.505 191.849 122.336C193.548 121.911 195.161 121.826 196.945 121.401C197.964 121.231 198.899 121.146 199.918 120.892C202.975 122.166 206.033 123.44 209.091 124.714C210.28 125.138 210.79 125.393 212.318 125.393H215.546C215.971 125.818 216.31 126.073 216.82 126.412C217.499 126.922 218.094 127.347 218.774 127.856C219.538 129.555 220.302 131.084 220.982 132.698H212.828C211.809 133.377 210.874 133.972 209.855 134.651C208.921 135.161 208.157 135.67 207.307 136.18C206.543 136.944 205.778 137.624 205.014 138.388C204.504 138.813 203.995 139.323 203.57 139.662C203.145 140.427 202.891 141.106 202.551 141.871C202.041 142.805 201.617 143.824 201.107 144.674C201.277 145.183 201.362 145.693 201.532 146.202C201.701 146.627 201.701 146.967 201.786 147.392C202.551 147.901 203.315 148.326 204.08 148.835C205.269 149.6 206.373 150.279 207.562 151.044H211.639H214.357C221.237 146.712 228.286 142.21 235.166 137.879C247.991 139.662 260.562 141.361 273.387 143.145C278.738 148.411 284.259 153.592 289.61 158.858C295.98 164.973 302.435 171.258 308.805 177.374C309.994 178.563 311.099 179.582 312.288 180.686C312.967 181.366 313.732 181.96 314.326 182.725C315.26 183.489 316.11 184.423 316.874 185.273C318.658 187.226 320.611 189.095 322.395 191.048C325.708 194.531 329.02 197.928 332.333 201.496V206.252C331.908 207.441 331.568 208.46 331.313 209.564C328.595 208.545 325.962 207.271 323.244 206.082C322.055 205.572 320.951 205.063 319.932 204.638C318.998 203.619 318.148 202.6 317.129 201.58C316.874 202.515 316.704 203.364 316.45 204.298C315.685 207.271 315.006 209.819 312.458 210.923C310.249 211.858 307.701 210.923 305.917 210.244C303.964 209.48 302.18 208.545 300.397 207.781C298.953 207.101 297.594 206.507 296.405 205.572C295.47 204.893 294.876 203.874 294.196 203.024C293.942 202.6 293.517 202.09 293.262 201.75C293.092 205.233 292.328 207.526 290.035 208.8C289.1 209.31 287.062 209.819 285.703 209.564C284.259 209.14 282.9 208.8 281.626 208.545C279.333 207.866 277.294 207.526 275.511 206.252C274.321 205.318 273.727 204.044 272.962 202.77C272.708 202.26 272.283 201.58 272.028 201.071C271.773 201.58 271.349 202.26 271.094 202.77C270.075 204.468 269.31 205.997 267.612 207.016C266.422 207.696 264.554 208.036 262.855 207.526C261.921 207.271 261.156 206.847 260.392 206.507C259.118 205.997 257.929 205.488 256.655 204.978C255.211 204.298 253.682 203.789 252.918 202.515C252.918 202.515 252.918 202.515 252.748 202.515C252.238 203.194 251.813 203.789 251.304 204.553C249.86 206.507 249.096 208.036 246.463 208.63C245.783 208.8 244.934 208.885 244.169 208.8C243.745 208.63 243.405 208.545 242.895 208.545C241.961 208.121 241.366 207.611 240.602 207.101C239.073 206.082 237.629 205.063 236.1 204.044C234.826 205.063 234.062 206.592 232.533 207.356C231.344 207.866 229.56 208.036 228.286 207.611C227.522 207.356 226.757 206.847 226.078 206.422C225.398 205.997 224.634 205.742 224.04 205.403C223.105 204.893 222.256 204.383 221.322 203.959C220.897 204.214 220.642 204.468 220.302 204.723C219.538 205.148 218.858 205.488 218.094 205.997C217.075 206.677 216.056 207.271 214.527 207.526C212.233 207.951 210.79 206.592 209.685 205.742C208.921 205.063 208.242 204.298 207.477 203.789C207.477 201.92 206.458 200.391 206.458 197.334Z" fill="white"/>
<path d="M264.554 175.59L278.738 202.684C279.163 203.364 279.757 203.873 280.522 204.128C281.201 204.383 287.911 206.082 287.911 206.082C289.61 206.252 290.374 205.657 290.459 204.298C290.714 202.599 291.139 197.673 291.139 197.673C291.309 196.739 291.139 194.955 290.374 194.106C289.355 193.172 272.708 170.324 272.708 170.324C272.283 169.899 271.943 169.899 271.943 170.749C271.943 171.598 271.519 174.995 271.519 174.995C271.519 174.995 271.519 176.015 271.009 176.269C270.499 176.524 269.565 176.524 269.056 176.269C268.376 176.099 265.064 175.08 265.064 175.08C265.064 175.08 264.299 174.91 264.554 175.59Z" fill="#000101"/>
<path d="M250.37 180.346L257.249 199.542C257.674 200.221 258.014 200.986 258.693 201.241C259.373 201.495 265.064 204.043 265.064 204.043C265.998 204.298 267.017 204.298 267.781 203.364C268.461 202.43 271.094 197.758 271.094 197.758C271.519 196.824 271.349 195.974 270.924 195.295C270.499 194.616 262.6 177.798 262.6 177.798C262.346 177.289 261.836 177.289 261.666 177.628C261.496 178.053 259.628 181.196 259.628 181.196C259.628 181.196 259.203 181.96 258.863 182.13C258.439 182.3 257.674 181.875 256.655 181.62C255.636 181.366 250.794 179.667 250.794 179.667C250.794 179.667 250.115 179.837 250.37 180.346Z" fill="#000101"/>
<path d="M236.44 182.725C237.374 183.234 241.282 185.443 241.282 185.443C242.046 185.698 242.725 185.613 243.235 185.018C243.66 184.508 245.783 181.451 245.783 181.451C246.038 181.026 246.717 181.281 246.972 181.96C247.227 182.64 252.493 197.419 252.493 197.419C252.748 198.098 252.748 198.608 252.493 199.117C252.068 199.627 248.756 204.468 248.756 204.468C248.246 205.148 246.802 205.742 245.698 204.978C244.509 204.044 241.112 201.665 241.112 201.665C240.602 201.241 240.177 200.646 239.923 199.967C239.753 199.287 235.591 183.234 235.591 183.234C235.591 182.64 235.931 182.385 236.44 182.725Z" fill="#000101"/>
<path d="M223.19 182.979C223.19 182.979 227.437 185.697 228.031 185.952C228.541 186.207 228.966 186.462 229.306 186.122C229.73 185.697 231.259 184.338 231.769 183.914C232.278 183.489 232.958 184.168 232.958 184.593C233.128 185.018 236.525 198.777 236.525 199.202C236.695 199.627 236.78 200.136 236.355 200.646C235.846 201.325 233.552 203.619 233.128 204.128C232.703 204.638 231.854 204.638 231.089 204.128C230.325 203.619 226.503 201.665 225.823 201.325C225.144 200.901 224.634 200.561 224.549 199.797C224.379 198.862 222.341 184.338 222.256 183.914C222.256 182.979 222.765 182.724 223.19 182.979Z" fill="#000101"/>
<path d="M219.198 182.385L221.491 200.052C221.661 200.561 220.981 201.241 220.557 201.495C220.132 201.75 217.329 203.449 217.329 203.449C216.395 203.959 215.885 204.128 215.036 203.619C214.271 203.109 212.233 201.071 211.723 200.561C211.299 200.306 211.044 199.627 210.959 199.032C210.959 198.353 210.959 194.191 210.789 191.218C210.619 187.736 210.025 183.829 209.855 183.149C209.685 182.64 209.855 181.875 210.364 182.385C210.874 182.81 212.912 184.338 213.422 184.593C213.932 184.848 214.356 185.273 215.206 184.423C216.14 183.659 218.009 182.385 218.263 182.13C218.858 181.875 219.113 181.96 219.198 182.385Z" fill="#000101"/>
<path d="M141.227 182.385L138.934 200.052C138.764 200.561 139.444 201.241 139.868 201.495C140.293 201.75 143.096 203.449 143.096 203.449C144.03 203.959 144.54 204.128 145.389 203.619C146.153 203.109 148.192 201.071 148.702 200.561C149.126 200.306 149.381 199.627 149.466 199.032C149.466 198.353 149.466 194.191 149.636 191.218C149.806 187.736 150.4 183.829 150.57 183.149C150.74 182.64 150.57 181.875 150.061 182.385C149.551 182.81 147.512 184.338 147.003 184.593C146.493 184.848 146.069 185.273 145.219 184.423C144.285 183.659 142.416 182.385 142.161 182.13C141.567 181.875 141.312 181.96 141.227 182.385Z" fill="#000101"/>
<path d="M137.235 182.979C137.235 182.979 132.988 185.697 132.393 185.952C131.884 186.207 131.459 186.462 131.119 186.122C130.695 185.697 129.166 184.338 128.656 183.914C128.147 183.489 127.467 184.168 127.467 184.593C127.297 185.018 123.9 198.777 123.9 199.202C123.73 199.627 123.645 200.136 124.07 200.646C124.494 201.325 126.873 203.619 127.297 204.128C127.722 204.638 128.571 204.638 129.336 204.128C130.1 203.619 133.922 201.665 134.602 201.325C135.281 200.901 135.791 200.561 135.876 199.797C136.046 198.862 138.084 184.338 138.169 183.914C138.169 182.979 137.659 182.724 137.235 182.979Z" fill="#000101"/>
<path d="M123.985 182.725C123.051 183.234 119.144 185.443 119.144 185.443C118.379 185.698 117.7 185.613 117.19 185.018C116.766 184.508 114.642 181.451 114.642 181.451C114.387 181.026 113.708 181.281 113.453 181.96C113.198 182.385 107.847 197.334 107.847 197.334C107.593 198.013 107.593 198.523 107.847 199.032C108.272 199.542 111.585 204.383 111.585 204.383C112.094 205.063 113.538 205.657 114.642 204.893C115.831 203.959 119.399 201.581 119.399 201.581C119.908 201.156 120.333 200.561 120.588 199.882C120.758 199.202 124.919 183.149 124.919 183.149C124.834 182.64 124.495 182.385 123.985 182.725Z" fill="#000101"/>
<path d="M110.055 180.346L103.175 199.542C102.751 200.221 102.411 200.986 101.732 201.241C101.052 201.495 95.3614 204.043 95.3614 204.043C94.4271 204.298 93.3229 204.298 92.6434 203.364C91.964 202.43 89.331 197.758 89.331 197.758C88.9063 196.824 89.0761 195.974 89.5008 195.295C89.9255 194.616 97.8245 177.798 97.8245 177.798C98.0793 177.289 98.504 177.289 98.7588 177.628C98.9287 178.053 100.712 181.196 100.712 181.196C100.712 181.196 101.137 181.96 101.477 182.13C101.901 182.3 102.666 181.875 103.515 181.62C104.534 181.366 109.376 179.667 109.376 179.667C109.376 179.667 110.31 179.837 110.055 180.346Z" fill="#000101"/>
<path d="M95.8716 175.59L81.6874 202.684C81.2627 203.364 80.6681 203.873 79.9037 204.128C79.2242 204.383 72.5143 206.082 72.5143 206.082C70.8156 206.252 70.0512 205.657 69.9662 204.298C69.7114 202.599 69.2868 197.673 69.2868 197.673C69.1169 196.739 69.2868 194.955 70.0512 194.106C70.8156 193.256 87.5479 170.239 87.5479 170.239C87.9726 169.814 88.3123 169.814 88.3123 170.664C88.3123 171.513 88.737 174.91 88.737 174.91C88.737 174.91 88.737 175.93 89.2466 176.184C89.7563 176.439 90.6905 176.439 91.2851 176.184C91.7947 176.015 95.2771 174.995 95.2771 174.995C95.2771 174.995 96.1264 174.91 95.8716 175.59Z" fill="#000101"/>
<path d="M256.23 150.024L267.951 159.962C268.631 160.387 268.885 160.641 269.99 161.151C271.009 161.576 276.02 163.359 276.02 163.359C276.53 163.529 276.784 163.105 276.699 162.595C276.445 162.085 275.68 157.329 275.425 157.074C275.171 156.649 274.916 156.31 274.406 156.14C273.982 155.885 259.458 147.306 259.458 147.306C259.203 147.137 259.033 146.882 258.778 147.137C258.523 147.306 256.74 149.175 256.315 149.6C256.4 149.515 255.975 149.77 256.23 150.024Z" fill="#000101"/>
<path d="M250.879 154.611L261.241 169.475C261.666 169.899 261.921 170.154 262.26 170.239C262.685 170.409 266.847 171.768 266.847 171.768C267.272 171.938 267.866 171.598 268.036 171.258C268.206 170.834 268.715 165.992 268.715 165.653C268.715 165.228 268.715 164.888 268.291 164.633C268.036 164.378 254.446 151.978 254.446 151.978C254.191 151.808 253.937 151.553 253.682 151.808C253.427 152.063 251.728 153.337 250.964 154.016C250.879 154.101 250.794 154.356 250.879 154.611Z" fill="#000101"/>
<path d="M241.705 160.217L249.35 175.165C249.52 175.59 249.605 175.675 250.284 175.93C250.963 176.185 255.89 177.459 255.89 177.459C256.314 177.628 256.824 177.459 256.909 177.034C257.079 176.609 259.117 172.702 259.117 172.702C259.287 172.447 259.372 171.683 258.947 171.258C258.523 170.834 248.84 155.885 248.84 155.885C248.585 155.63 248.415 155.375 248.076 155.715C247.566 156.14 242.98 158.773 242.045 159.197C241.79 159.452 241.451 159.707 241.705 160.217Z" fill="#000101"/>
<path d="M231.089 164.208L235.42 177.373C235.59 177.798 235.845 178.053 236.1 178.138C236.524 178.308 240.686 180.346 240.686 180.346C241.196 180.516 241.875 180.176 242.13 179.922C242.385 179.667 245.103 175.59 245.103 175.59C245.358 175.165 245.358 174.401 245.273 174.316C245.103 174.061 239.242 161.406 239.242 161.406C239.072 161.151 238.733 160.726 238.478 160.896C237.289 161.575 232.193 163.189 231.683 163.189C231.173 163.444 230.919 163.869 231.089 164.208Z" fill="#000101"/>
<path d="M227.776 181.45C227.776 181.45 223.274 179.667 222.935 179.497C222.51 179.327 222.68 179.242 222.51 178.987L220.047 165.907C220.047 165.737 220.217 165.652 220.556 165.483C221.066 165.483 226.077 164.718 227.946 164.209C228.201 164.039 228.456 164.378 228.625 164.463C228.625 164.463 232.363 176.694 232.447 177.119C232.617 177.374 232.447 177.883 232.193 178.138C232.193 178.138 229.135 180.941 228.88 181.111C228.625 181.45 228.116 181.62 227.776 181.45Z" fill="#000101"/>
<path d="M206.033 166.162C207.732 166.332 214.187 166.417 216.99 165.992C217.414 165.992 217.499 166.502 217.499 166.502C217.499 166.502 219.198 176.609 219.198 176.864C219.198 177.119 219.368 177.628 218.943 177.883C218.519 178.138 215.716 179.922 214.951 180.431C214.187 180.941 213.677 180.856 213.423 180.601C213.168 180.431 209.6 178.563 209.346 178.308C209.176 178.138 209.091 178.053 208.921 177.798L205.693 166.672C205.778 166.926 205.608 166.162 206.033 166.162Z" fill="#000101"/>
<path d="M154.392 166.162C152.693 166.332 146.238 166.417 143.435 165.992C143.011 165.992 142.926 166.502 142.926 166.502C142.926 166.502 141.227 176.609 141.227 176.864C141.227 177.119 141.057 177.628 141.482 177.883C141.906 178.138 144.709 179.922 145.474 180.431C146.238 180.941 146.748 180.856 147.003 180.601C147.257 180.431 150.825 178.563 151.079 178.308C151.249 178.138 151.334 178.053 151.504 177.798L154.732 166.672C154.647 166.926 154.817 166.162 154.392 166.162Z" fill="#000101"/>
<path d="M132.648 181.45C132.648 181.45 137.15 179.667 137.489 179.497C137.914 179.327 137.744 179.242 137.914 178.987L140.377 165.907C140.377 165.737 140.207 165.652 139.868 165.483C139.358 165.483 134.347 164.718 132.478 164.209C132.223 164.039 131.969 164.378 131.799 164.463C131.799 164.463 128.062 176.694 127.977 177.119C127.807 177.374 127.977 177.883 128.231 178.138C128.231 178.138 131.289 180.941 131.544 181.111C131.799 181.45 132.308 181.62 132.648 181.45Z" fill="#000101"/>
<path d="M129.336 164.208L125.004 177.373C124.834 177.798 124.579 178.053 124.324 178.138C123.9 178.308 119.738 180.346 119.738 180.346C119.228 180.516 118.549 180.176 118.294 179.922C118.039 179.667 115.321 175.59 115.321 175.59C115.066 175.165 115.066 174.401 115.151 174.316C115.321 174.061 121.182 161.406 121.182 161.406C121.352 161.151 121.691 160.726 121.946 160.896C123.135 161.575 128.231 163.189 128.741 163.189C129.251 163.444 129.506 163.869 129.336 164.208Z" fill="#000101"/>
<path d="M118.719 160.217L111.075 175.165C110.905 175.59 110.82 175.675 110.14 175.93C109.461 176.185 104.535 177.459 104.535 177.459C104.11 177.628 103.6 177.459 103.515 177.034C103.346 176.609 101.307 172.702 101.307 172.702C101.137 172.447 101.052 171.683 101.477 171.258C101.902 170.834 111.584 155.885 111.584 155.885C111.839 155.63 112.009 155.375 112.349 155.715C112.858 156.14 117.445 158.773 118.464 159.197C118.634 159.452 118.974 159.707 118.719 160.217Z" fill="#000101"/>
<path d="M109.545 154.611L99.1833 169.475C98.7586 169.899 98.5038 170.154 98.1641 170.239C97.7394 170.409 93.5776 171.768 93.5776 171.768C93.1529 171.938 92.5583 171.598 92.3885 171.258C92.2186 170.834 91.709 165.992 91.709 165.653C91.709 165.228 91.709 164.888 92.1337 164.633C92.3885 164.378 105.978 151.978 105.978 151.978C106.233 151.808 106.488 151.553 106.743 151.808C106.997 152.063 108.696 153.337 109.461 154.016C109.545 154.101 109.63 154.356 109.545 154.611Z" fill="#000101"/>
<path d="M104.195 150.024L92.4735 159.962C91.794 160.387 91.5392 160.641 90.435 161.151C89.4158 161.576 84.4046 163.359 84.4046 163.359C83.895 163.529 83.6401 163.105 83.7251 162.595C83.9799 162.085 84.6594 157.329 84.9142 157.074C85.169 156.649 85.4238 156.31 85.9334 156.14C86.3581 155.885 100.882 147.306 100.882 147.306C101.137 147.137 101.307 146.882 101.562 147.137C101.816 147.306 103.77 149.175 104.11 149.6C104.025 149.515 104.449 149.77 104.195 150.024Z" fill="#000101"/>
<path d="M207.307 157.074C206.033 157.329 202.975 157.499 202.041 157.329C201.276 157.329 201.022 157.754 200.852 158.603C200.682 159.537 199.917 164.379 199.833 165.228C199.663 166.162 199.153 166.417 198.134 165.907C197.2 165.483 195.076 163.614 194.567 163.189C194.057 162.765 193.377 162.765 192.868 163.444C192.358 164.209 190.15 168.031 189.64 169.05C188.961 170.069 188.451 169.984 187.857 169.305C187.177 168.625 185.393 165.058 185.054 164.548C184.629 163.869 184.119 163.614 183.355 164.379C182.591 165.143 179.788 168.965 179.108 169.729C178.429 170.494 177.834 170.239 177.325 169.475C176.815 168.54 175.796 164.718 175.541 164.124C175.371 163.359 174.607 163.189 174.012 163.614C173.248 164.039 169.51 167.606 168.746 168.201C167.982 168.71 167.727 168.371 167.302 167.436C166.877 166.502 166.283 163.359 166.113 162.425C165.943 161.491 165.688 161.236 164.669 161.151C163.65 160.981 158.384 160.641 157.11 160.472C155.921 160.302 156.345 159.962 156.94 158.943C157.704 157.923 161.696 154.356 162.461 153.847C163.225 153.337 162.886 152.827 162.291 152.572C161.781 152.318 157.025 150.109 156.685 149.77C156.176 149.345 157.11 148.581 158.129 147.816C159.318 147.052 162.121 145.863 164.499 144.843C165.688 144.334 166.708 143.569 167.812 142.38C169.001 141.191 174.861 135.755 180.043 131.678L180.552 131.254C185.563 127.262 190.15 123.44 195.416 122.675C201.022 121.741 205.353 122.93 207.137 124.459C207.307 124.629 207.392 124.714 207.562 124.883C208.071 125.393 208.751 126.073 209.6 126.327C210.025 126.497 210.534 126.497 211.554 126.497C212.828 126.497 214.611 126.667 215.8 126.922C217.244 127.347 218.858 127.941 220.047 130.999C219.368 130.999 218.518 130.999 217.584 131.169H217.074C214.611 131.424 210.959 131.933 207.222 134.906C202.72 138.473 201.191 143.23 200.937 144.504C200.682 145.438 200.512 147.306 201.956 148.581L202.466 149.09C203.4 150.024 206.797 154.186 207.477 155.121C208.326 156.055 208.751 156.819 207.307 157.074ZM204.249 202.6C204.249 204.128 203.994 205.148 203.485 205.572C202.975 206.082 201.786 205.742 201.022 205.572C200.342 205.402 199.493 205.572 198.983 204.893C198.474 204.213 197.539 202.685 194.991 202.685H194.227C191.509 202.685 190.659 204.213 190.235 204.893C189.725 205.572 188.961 205.402 188.196 205.572C187.517 205.742 186.243 205.997 185.733 205.572C185.224 205.063 184.969 204.128 184.969 202.6C184.799 188.755 189.216 176.524 194.567 176.524C200.002 176.524 204.334 188.84 204.249 202.6ZM205.778 211.773C204.759 211.603 202.041 211.093 200.172 211.093C198.134 211.263 196.35 211.603 196.095 212.367C195.841 213.132 195.331 214.83 195.076 215.085C194.906 215.255 194.651 215.255 194.397 215.085C194.142 214.83 193.632 213.302 193.377 212.367C193.123 211.603 191.594 210.923 189.385 210.923C187.602 210.923 184.799 211.603 183.61 211.603C182.591 211.773 183.61 210.159 184.289 209.819C185.309 209.31 187.092 208.8 189.64 208.375C190.914 208.12 192.103 206.931 192.443 206.592C192.698 206.082 193.632 205.572 194.651 205.572H194.821C195.841 205.572 196.775 206.252 197.03 206.592C197.284 207.101 198.474 208.29 199.833 208.375C202.381 208.8 204.164 209.31 205.183 209.819C205.778 210.244 206.967 211.858 205.778 211.773ZM176.73 211.773C175.711 211.603 172.908 211.008 170.954 211.093C168.746 211.263 167.387 211.773 166.962 212.537C166.708 213.301 166.198 215 165.943 215.255C165.688 215.425 165.434 215.425 165.264 215.255C165.009 215 164.499 213.471 164.244 212.537C163.99 211.773 162.291 211.263 160.168 211.263C158.384 211.263 155.666 211.773 154.562 211.943C153.543 212.112 154.562 210.499 155.241 210.159C156.261 209.649 158.044 209.14 160.592 208.715C162.036 208.46 163.055 207.271 163.395 206.931C163.65 206.422 164.584 205.912 165.603 205.912H165.773C166.793 205.912 167.727 206.592 167.982 206.931C168.236 207.441 169.426 208.63 170.785 208.715C173.333 209.14 175.116 209.649 176.135 210.159C176.645 210.244 177.749 211.858 176.73 211.773ZM165.773 176.524C171.039 176.524 175.456 188.925 175.371 202.6C175.371 204.128 175.116 205.148 174.607 205.572C174.097 206.082 172.908 205.742 172.144 205.572C171.464 205.402 170.615 205.572 170.105 204.893C169.595 204.213 168.661 202.685 166.113 202.685H165.349C162.631 202.685 161.781 204.213 161.357 204.893C160.847 205.572 160.083 205.402 159.318 205.572C158.639 205.742 157.365 205.997 156.855 205.572C156.345 205.063 156.091 204.128 156.091 202.6C156.091 188.84 160.422 176.524 165.773 176.524ZM333.521 198.862C331.228 196.569 279.162 144.928 278.058 143.739C276.784 142.55 275.34 141.446 273.302 141.021C271.858 140.766 239.667 136.435 238.139 136.265C236.44 136.095 235.336 136.435 233.637 137.284L233.467 137.454C232.788 137.879 218.858 147.137 217.499 148.156C216.225 149.09 215.715 149.175 215.291 149.175H209.26C206.458 149.175 205.693 147.986 204.504 147.137L203.994 146.627C203.485 146.117 203.57 145.353 203.74 145.183C204.419 142.72 206.033 139.323 209.091 137.029C212.318 134.481 215.376 134.057 217.669 133.802H218.179C219.198 133.632 219.962 133.632 220.727 133.802C221.746 133.802 222.935 133.972 223.19 133.632C223.445 133.377 223.445 132.443 223.36 131.933V132.018C221.831 126.412 219.113 125.138 216.735 124.629C215.291 124.374 213.422 124.204 212.148 124.119C211.639 124.119 210.874 124.119 210.704 123.949C210.534 123.949 210.195 123.524 209.94 123.27C209.685 123.015 209.515 122.845 209.43 122.76C206.882 120.467 201.361 119.448 195.586 120.297C189.725 121.231 184.714 125.138 179.448 129.47L178.938 129.895C173.672 134.141 167.812 139.577 166.538 140.851C165.603 141.786 164.754 142.295 163.82 142.805C163.82 142.805 158.809 145.098 156.43 146.117C154.986 146.797 153.712 147.646 152.693 148.411C152.184 148.835 151.504 149.175 151.164 149.43H145.304C144.879 149.43 144.37 149.26 143.095 148.411C141.652 147.476 127.722 138.218 127.128 137.709L126.958 137.539C125.259 136.605 124.155 136.35 122.456 136.52C120.757 136.35 88.5668 140.766 87.2078 141.021C85.1694 141.446 83.6405 142.72 82.4514 143.739C81.1774 144.928 29.2817 196.569 26.9884 198.862C25.9692 200.136 24.7801 201.665 25.0349 203.704C25.7144 208.97 26.7336 209.564 27.2433 209.819C27.6679 210.074 28.0077 210.244 28.5173 210.244C29.7064 210.244 31.0654 209.734 32.849 208.97C34.123 208.46 38.2 206.507 39.9836 205.233C41.5124 204.044 44.3153 200.901 44.3153 200.901C44.3153 200.901 44.9948 200.136 45.3346 199.967C45.7592 199.967 45.8442 200.476 45.8442 200.646C45.8442 200.816 46.8634 205.233 46.8634 205.402C47.2881 206.592 47.373 207.101 47.8826 207.611C48.3922 208.12 49.3265 208.035 50.6855 207.441C52.1294 206.931 57.99 204.213 58.8393 203.704C59.7736 203.194 60.3682 202.685 60.8778 201.92C60.8778 201.92 84.6598 168.71 85.1694 167.946C85.679 167.181 85.3392 167.181 84.7447 167.181C84.7447 167.181 81.9418 167.606 80.7527 167.691C79.5636 167.861 79.4787 167.266 79.4787 166.247L79.7335 161.491C79.7335 160.726 79.2239 160.726 78.5444 161.236C67.9274 172.193 39.0493 202.175 37.8602 203.024C36.841 203.959 33.8682 205.572 31.8298 206.337C30.8105 206.761 28.6022 207.866 28.2625 207.356C28.0077 206.846 27.583 205.402 27.3282 203.279C27.1583 202.345 27.7529 201.58 28.5173 200.561C47.2031 182.045 82.7062 146.627 83.8953 145.693C85.1694 144.504 86.1886 143.739 87.3777 143.654C96.7206 142.38 121.097 139.068 122.286 138.898C123.475 138.728 124.07 138.898 125.259 139.577C126.193 140.257 139.868 149.26 141.142 150.194C142.586 151.214 143.605 151.723 144.879 151.723C144.879 151.723 152.269 151.723 153.797 151.893C154.817 152.063 155.751 152.573 156.345 152.912C157.025 153.422 157.11 153.931 156.855 154.356C156.43 154.781 155.156 156.395 154.647 157.159C154.137 157.839 153.458 157.839 153.458 157.839H145.559C143.52 157.839 142.501 157.584 139.528 156.055C136.555 154.526 123.56 146.117 122.286 145.438C121.012 144.673 119.568 144.673 118.039 144.758L107.592 145.778C106.573 145.948 105.384 147.222 106.573 148.326C107.592 149.345 115.491 154.611 119.908 156.225C124.24 157.923 134.347 162.51 140.717 163.529C147.257 164.548 152.948 163.359 154.562 163.105C155.751 162.935 157.025 162.935 157.365 163.359C157.789 163.784 157.874 164.548 157.535 165.143C157.11 165.822 151.929 178.563 151.419 192.407C151.164 201.495 153.373 206.846 153.458 207.101C153.458 207.356 153.288 207.781 152.948 208.035C151.929 208.97 150.485 211.008 149.975 212.537C149.551 213.811 149.296 215.085 149.72 215.34C150.145 215.595 153.712 214.83 157.11 214.576C159.828 214.406 161.442 214.406 161.696 214.576C162.121 214.83 162.376 215 162.461 215.51C162.886 216.529 164.244 218.992 164.754 219.247C165.009 219.417 165.264 219.417 165.519 219.247C166.028 218.822 167.472 216.444 167.812 215.51C167.982 215 168.236 214.83 168.576 214.576C169.001 214.321 170.785 214.321 172.908 214.406C174.946 214.66 177.155 215.34 179.703 215.34C182.251 215.34 184.459 214.66 186.498 214.406C188.536 214.151 190.49 214.236 190.829 214.576C191.254 214.83 191.339 215 191.594 215.51C192.018 216.529 193.377 218.822 193.887 219.247C194.142 219.417 194.397 219.417 194.651 219.247C195.161 218.992 196.605 216.444 196.945 215.51C197.115 215 197.369 214.83 197.709 214.576C198.134 214.321 199.663 214.321 202.296 214.576C205.778 214.83 209.43 215.595 209.685 215.34C210.11 215.085 209.855 213.811 209.43 212.537C208.921 211.008 207.477 208.97 206.458 208.035C206.033 207.781 205.948 207.356 205.948 207.101C205.948 206.846 208.241 201.495 207.986 192.407C207.477 178.733 202.211 165.822 201.871 165.143C201.446 164.463 201.616 163.869 202.041 163.359C202.466 162.935 203.74 162.85 204.844 163.105C206.373 163.359 212.233 164.548 218.688 163.529C225.228 162.51 235.166 158.008 239.497 156.225C243.829 154.526 251.728 149.43 252.832 148.326C253.852 147.306 252.832 146.032 251.813 145.778L241.366 144.758C239.837 144.589 238.393 144.758 237.119 145.438C235.845 146.202 222.765 154.526 219.877 156.055C216.905 157.584 215.546 157.754 213.507 157.839C212.318 157.839 211.808 157.584 211.554 156.904C211.129 156.225 209.6 153.337 209.091 152.827C208.411 152.148 208.581 151.808 209.091 151.808H214.696C215.97 151.808 216.99 151.298 218.433 150.279C219.707 149.345 233.297 140.342 234.316 139.662C235.506 138.983 236.1 138.898 237.289 138.983C238.478 139.153 262.855 142.465 272.198 143.739C273.387 143.994 274.406 144.758 275.68 145.778C276.699 146.797 312.372 182.045 331.058 200.646C331.992 201.665 332.332 202.43 332.247 203.364C331.992 205.572 331.568 206.931 331.313 207.441C331.058 207.951 328.765 206.761 327.746 206.422C325.707 205.657 322.734 204.128 321.715 203.109C320.526 202.09 291.648 172.278 281.031 161.321C280.521 160.811 279.842 160.811 279.842 161.576L280.097 166.332C280.097 167.266 279.927 167.861 278.823 167.776C277.634 167.606 274.831 167.266 274.831 167.266C274.321 167.096 273.896 167.266 274.406 168.031C274.916 168.795 298.698 202.005 298.698 202.005C299.377 202.769 299.887 203.279 300.736 203.789C301.67 204.298 307.531 207.016 308.89 207.526C310.334 208.035 311.183 208.205 311.693 207.696C312.202 207.186 312.457 206.677 312.712 205.487C312.712 205.318 313.731 200.731 313.731 200.731C313.731 200.561 313.901 200.052 314.241 200.052C314.666 200.052 315.26 200.986 315.26 200.986C315.26 200.986 318.063 204.213 319.592 205.318C321.375 206.592 325.367 208.545 326.726 209.055C328.51 209.734 329.954 210.329 331.058 210.329C331.568 210.329 331.992 210.159 332.332 209.904C332.757 209.649 333.861 208.97 334.54 203.789C335.645 201.495 334.54 200.136 333.521 198.862Z" fill="#000101"/>
<path d="M192.868 129.725C194.907 128.536 197.455 127.262 202.466 127.687C202.975 127.687 203.995 127.941 204.249 128.111C204.504 128.366 204.419 128.791 203.825 128.791C203.145 128.791 202.381 128.621 202.126 129.3C201.871 129.98 201.871 131.763 200.342 132.273C199.153 132.698 197.879 132.443 197.03 131.509C196.266 130.744 195.076 130.829 194.057 130.829C193.038 130.829 192.359 130.999 192.104 130.659C191.934 130.489 192.189 130.065 192.868 129.725Z" fill="#000101"/>
<path d="M197.369 206.167C196.944 205.657 195.925 204.893 194.821 204.893C193.717 204.893 192.613 205.573 192.273 206.167C191.848 206.677 190.574 208.121 189.215 208.206C186.243 208.63 184.374 209.14 183.185 209.734C182.505 210.159 181.231 212.452 182.42 212.282C183.694 212.113 186.752 211.348 188.96 211.518C191.424 211.688 193.037 211.688 193.462 212.537C193.887 213.472 194.396 215.255 194.651 215.51C194.906 215.765 195.161 215.68 195.416 215.51C195.84 215.255 196.35 213.472 196.605 212.537C197.029 211.603 198.813 211.603 201.191 211.603C203.23 211.603 206.287 212.113 207.476 212.282C208.75 212.452 207.476 210.074 206.712 209.734C205.523 209.055 203.484 208.545 200.682 208.206C198.898 208.036 197.709 206.762 197.369 206.167Z" fill="white"/>
<path d="M177.409 209.819C176.22 209.139 174.182 208.63 171.379 208.29C169.85 208.035 168.576 206.761 168.321 206.252C167.897 205.742 166.877 204.978 165.773 204.978H165.603C164.414 204.978 163.395 205.657 163.055 206.252C162.63 206.761 161.526 208.205 159.997 208.29C157.025 208.715 155.156 209.224 153.967 209.819C153.288 210.244 152.014 212.537 153.203 212.367C154.477 212.197 157.449 211.603 159.488 211.687C161.951 211.857 163.735 211.687 164.074 212.622C164.499 213.556 165.009 215.34 165.263 215.594C165.518 215.764 165.773 215.849 166.028 215.594C166.453 215.34 166.962 213.556 167.217 212.622C167.642 211.687 169.255 211.603 171.719 211.603C173.757 211.603 176.985 212.282 178.259 212.367C179.278 212.537 178.004 210.244 177.409 209.819Z" fill="white"/>
</svg>
