<svg width="360" height="360" viewBox="0 0 360 360" fill="none" xmlns="http://www.w3.org/2000/svg">
<rect width="360" height="360" rx="82" fill="black"/>
<path d="M259.316 135H256.581C256.297 136.434 255.66 139.461 251.957 139.461C248.698 139.461 241.593 135 233.727 135C221.895 135 209.948 142.334 209.948 157.308C209.948 170.312 218.341 176.065 230.443 183.027C249.749 194.33 251.839 198.782 251.839 206.282C251.839 213.348 246.597 220.848 236.084 220.848C218.341 220.848 211.691 203.79 209.173 197.602H206.18L210.094 225.431H212.973C212.973 223.349 214.305 221.099 217.056 221.099C220.98 221.099 227.429 225.549 237.41 225.549C256.187 225.549 265.092 212.974 265.092 201.81C265.092 174.877 221.244 172.246 221.244 152.591C221.244 144.424 227.942 140.371 234.529 140.371C248.293 140.371 256.697 152.185 258.936 162.958H262.22L259.316 135Z" fill="#ECC73F"/>
<path d="M327.215 135H324.463C324.218 136.434 323.537 139.461 319.856 139.461C316.592 139.461 309.514 135 301.623 135C289.814 135 277.85 142.334 277.85 157.308C277.85 170.312 286.242 176.065 298.33 183.027C317.648 194.33 319.723 198.782 319.723 206.282C319.723 213.348 314.496 220.848 304.002 220.848C286.242 220.848 279.582 203.79 277.069 197.602H274.064L277.993 225.431H280.891C280.891 223.349 282.195 221.099 284.944 221.099C288.893 221.099 295.328 225.549 305.287 225.549C324.094 225.549 333.005 212.974 333.005 201.81C333.005 174.877 289.149 172.246 289.149 152.591C289.149 144.424 295.841 140.371 302.389 140.371C316.197 140.371 324.604 152.185 326.837 162.958H330.116L327.215 135Z" fill="#ECC73F"/>
<path d="M50.0491 223.752L72.6308 153.492L94.7449 223.752H120.808L87.9518 136.444H59.836L27 223.752H50.0491Z" fill="white"/>
<path d="M119.271 223.752H140.017V156.86H140.242L168.459 223.752H200.391V136.444H179.635V201.26L179.421 201.494L151.53 136.444H119.271V223.752Z" fill="white"/>
</svg>
