<svg width="360" height="360" viewBox="0 0 360 360" fill="none" xmlns="http://www.w3.org/2000/svg">
<rect width="360" height="360" rx="82" fill="#0067A5"/>
<path fill-rule="evenodd" clip-rule="evenodd" d="M233.336 124.013C219.548 110.927 200.909 102.883 180.392 102.883C159.17 102.883 139.951 111.522 126.057 125.451L117.984 117.968V40H242.021L242.046 117.96L233.336 124.013Z" fill="white"/>
<path fill-rule="evenodd" clip-rule="evenodd" d="M195.045 137.51C195.045 131.323 203.156 130.355 199.255 116.702C211.281 119.303 221.525 128.587 230.462 137.51H195.045Z" fill="white"/>
<path fill-rule="evenodd" clip-rule="evenodd" d="M164.482 137.51H129.062C136.861 127.103 148.242 119.303 160.251 116.706C156.354 130.356 164.482 131.33 164.482 137.51Z" fill="white"/>
<path fill-rule="evenodd" clip-rule="evenodd" d="M244.746 164.802C249.313 190.152 241.819 208.348 230.132 222.979C230.132 222.979 206.398 178.132 203.797 173.253C201.214 168.381 203.797 168.058 206.713 167.736C209.01 167.736 244.746 164.802 244.746 164.802Z" fill="white"/>
<path fill-rule="evenodd" clip-rule="evenodd" d="M114.753 164.802C114.753 164.802 150.511 167.736 152.786 167.736C155.698 168.058 158.313 168.381 155.698 173.253C153.112 178.132 129.377 222.979 129.377 222.979C117.68 208.355 110.207 190.152 114.753 164.802Z" fill="white"/>
<path fill-rule="evenodd" clip-rule="evenodd" d="M207.393 239.882C199.927 243.779 190.487 245.725 179.757 245.732C169.035 245.732 159.609 243.779 152.136 239.882C152.136 239.882 177.49 199.9 179.757 199.9C182.032 199.9 207.393 239.882 207.393 239.882Z" fill="white"/>
<path fill-rule="evenodd" clip-rule="evenodd" d="M223.068 243.709C223.068 243.709 188.533 193.728 186.577 190.471C184.631 187.232 183.005 185.284 179.759 185.284C176.506 185.284 174.876 187.232 172.934 190.471C171.205 193.345 143.385 233.741 136.9 243.135C149.278 251.65 164.267 256.628 180.418 256.628L117.985 320.298V242.316L132.305 239.704C137.237 230.442 158.743 190.386 165.45 177.807C172.934 163.831 164.798 157.981 153.753 157.332C143.499 156.73 126.791 153.963 108.078 153.566C105.126 161.716 103.524 170.589 103.524 179.752C103.524 203.993 114.775 225.623 132.305 239.704L117.985 242.316H40.0142L40 117.968H117.985L126.057 125.452C119.711 131.812 114.474 139.282 110.636 147.542L162.208 147.577C167.321 147.577 171.45 146.089 173.831 143.64C176.921 140.497 177.137 135.799 172.934 130.675C165.45 121.575 171.939 112.801 179.759 113.131C187.558 113.457 194.046 121.575 186.577 130.675C182.374 135.799 182.601 140.497 185.666 143.64C188.065 146.089 192.179 147.577 197.299 147.577L250.25 147.563C246.136 138.669 240.371 130.682 233.337 124.013L242.047 117.961H320V242.316H242.047L227.536 240.495C245.629 226.423 257.287 204.454 257.287 179.752C257.287 170.504 255.671 161.648 252.67 153.431C233.439 153.729 216.243 156.719 205.754 157.332C194.702 157.974 186.577 163.831 194.046 177.8C201.541 191.779 226.562 238.539 227.536 240.495L242.047 242.316V320.298H117.985L180.418 256.628C196.19 256.628 210.853 251.869 223.068 243.709Z" fill="white"/>
</svg>
