<svg width="360" height="360" viewBox="0 0 360 360" fill="none" xmlns="http://www.w3.org/2000/svg">
<rect width="360" height="360" rx="82" fill="#E11C23"/>
<circle cx="180" cy="180" r="155.455" fill="#4681C7" fill-opacity="0.06"/>
<circle cx="180" cy="180" r="155.205" stroke="#2869BF" stroke-opacity="0.04" stroke-width="0.5"/>
<path fill-rule="evenodd" clip-rule="evenodd" d="M190.96 138.078C171.638 137.962 153.897 149.748 146.033 167.897L153.288 220.365C159.955 228.423 169.182 234.357 180.063 236.713C200.794 241.201 221.311 231.369 231.816 213.744L228.011 235.558H228.014L255.924 235.626L264.418 187.851L285.086 235.745C285.448 235.587 311.177 235.422 312.444 235.686L329.001 140.209L301.205 140.131L292.61 188.214L271.528 140.136H244.653L238.068 177.9C234.407 159.065 220.217 143.375 200.73 139.155C197.452 138.446 194.187 138.098 190.959 138.079L190.96 138.078ZM190.413 163.073C192.524 163.047 194.66 163.381 196.756 164.108C207.939 167.987 213.792 181.62 209.831 194.569C205.871 207.517 193.593 214.873 182.41 210.994C171.227 207.116 165.374 193.474 169.335 180.525C172.553 170.004 181.262 163.182 190.413 163.073Z" fill="white"/>
<path d="M99.2376 111.001V111.098L95.9666 117.352L91.06 126.75V126.782L87.7248 133.102L83.1709 141.787L82.4333 143.213L80.8619 146.194L74.9291 157.536L67.9701 170.855L60.8507 184.434L58.9907 187.966H58.67H41.7054L41.7373 187.999H41.6731V188.161L38.0172 195.387L37.9853 195.355L30 211.104H46.8685L42.6353 219.757V219.79L41.6732 221.734L41.4487 222.188L34.9708 235.507H51.3902H65.3724L65.3082 235.377L65.4044 235.507L73.9669 219.109L78.168 211.105H112.161H112.867L115.625 211.072L114.086 200.507L114.021 200.086L113.989 199.956L113.893 199.502V199.372L113.861 199.21L113.476 196.812V196.779L113.412 196.326L112.194 187.965L112.162 188.224V187.997H90.0659L95.197 178.178L103.022 163.206V163.174L103.439 162.364L110.815 148.235H110.975L113.22 164.341L116.363 186.798V186.831L116.523 187.868L119.602 210.099L119.57 210.035L121.269 221.798L121.622 224.423L122.263 229.155V229.187L122.328 229.155V229.317L122.263 229.187L123.161 235.538H123.193H125.182H149.041H150.42L149.041 225.46V225.298H149.009L148.817 223.807L148.175 219.206L147.149 211.622L145.802 201.836L144.167 190.072L142.66 179.054L141.409 170.077L140.094 160.582L138.587 149.693L137.015 138.384L136.438 134.235L136.278 133.069L136.214 132.615L134.867 122.796L133.263 111.032L133.231 111.292V111H99.2378L99.2376 111.001ZM87.0192 148.236H87.0834L87.0515 148.268L87.0195 148.236H87.0192ZM77.1099 187.642H77.1418L77.3984 187.998H77.3022L77.1098 187.642H77.1099ZM119.698 210.262H119.762V210.359L119.698 210.262Z" fill="white"/>
</svg>
