<svg width="360" height="360" viewBox="0 0 360 360" fill="none" xmlns="http://www.w3.org/2000/svg">
<rect width="360" height="360" rx="82" fill="#00853F"/>
<path d="M179.919 309.874C261.353 309.874 335 252.936 335 179.937C335 106.939 261.515 50 179.919 50C98.4851 50 25 106.939 25 179.937C25 253.098 98.4851 309.874 179.919 309.874Z" fill="white"/>
<path d="M87.0856 200.322H131.799L109.523 145.147L87.0856 200.322ZM255.532 257.946C209.681 257.946 173.26 222.85 173.26 177.795C173.26 132.741 209.681 97.6446 255.532 97.6446C285.124 97.6446 310.651 112.173 325.284 134.7C302.521 84.2589 243.5 49.1624 179.601 49.1624C97.8167 49.1624 24.1621 106.46 24.1621 180.081C24.1621 201.792 30.6658 222.033 41.7222 239.827L102.207 101.073H119.442L184.479 255.008H153.911L142.205 226.114H77.1674L62.2089 265.129C91.4756 293.369 134.238 311.162 179.601 311.162C248.866 311.162 312.277 270.026 330.162 212.729C316.992 239.663 288.701 257.946 255.532 257.946ZM203.014 177.795C203.014 207.668 227.891 231.012 255.532 231.012C283.173 231.012 308.049 207.668 308.049 177.795C308.049 147.923 283.173 124.579 255.532 124.579C227.891 124.579 203.014 147.923 203.014 177.795Z" fill="#00853F"/>
</svg>
