<svg width="360" height="360" viewBox="0 0 360 360" fill="none" xmlns="http://www.w3.org/2000/svg">
<rect width="360" height="360" rx="82" fill="#D1A40B"/>
<path d="M270.429 188.149L271.105 62.2566C271.105 52.1568 262.63 48.4241 256.942 52.8185C253.285 55.6254 239.631 68.6655 239.631 68.6655C105.112 194.582 118.473 180.143 82.1159 213.994C47.1804 244.518 62.3855 307.778 109.406 307.778C127.028 307.807 146.58 307.961 146.58 307.961L205.253 248.885C205.253 248.885 140.796 248.885 130.479 248.532C112.378 247.883 111.038 224.109 127.055 211.286C132.819 205.509 211.136 133.118 211.136 133.118C211.136 133.118 211.144 256.423 211.144 275.454C211.144 289.637 206.789 308 225.687 308C230.936 297.772 270.429 188.149 270.429 188.149Z" fill="white"/>
</svg>
