<svg width="360" height="360" viewBox="0 0 360 360" fill="none" xmlns="http://www.w3.org/2000/svg">
<rect width="360" height="360" rx="82" fill="#1654A4"/>
<path d="M72.464 182.879H100.332L86.7812 143.468H86.4745L72.464 182.879ZM74.7579 117H98.9513L139.102 224.384H114.596L106.493 200.484H66.2956L57.9 224.384H34" fill="white"/>
<path d="M212.99 185.747C212.99 173.403 208.042 160.62 194.345 160.62C180.334 160.62 175.84 173.11 175.84 185.747C175.84 198.384 180.641 210.407 194.492 210.407C208.449 210.407 212.99 198.384 212.99 185.747ZM155.221 146.636H175.546V156.558H175.84C180.941 148.283 189.397 144.522 198.979 144.522C223.38 144.522 234.336 164.234 234.336 186.34C234.336 207.099 222.919 226.492 200.2 226.492C190.877 226.492 182.015 222.437 176.873 214.768H176.567V251.752H155.221" fill="white"/>
<path d="M253.059 117.006H274.398V157.457H274.858C280.313 148.748 289.636 144.527 297.578 144.527C320.297 144.527 325.999 157.324 325.999 176.563V224.39H304.666V180.491C304.666 167.7 300.885 161.379 290.963 161.379C279.399 161.379 274.398 167.847 274.398 183.645V224.39H253.059" fill="white"/>
</svg>
