<svg width="360" height="360" viewBox="0 0 360 360" fill="none" xmlns="http://www.w3.org/2000/svg">
<rect width="360" height="360" rx="82" fill="#BDCC31"/>
<path d="M209.806 116.645C209.806 116.645 219.427 98.0905 182.318 70.6022C147.957 44.4883 190.564 17 190.564 17C190.564 17 187.128 39.6778 207.057 60.9813C231.797 87.0952 209.806 116.645 209.806 116.645Z" fill="black"/>
<path d="M228.362 121.456C257.225 122.83 284.026 146.196 294.334 176.433C276.467 149.632 248.979 131.764 228.362 121.456Z" fill="#D92231"/>
<path d="M181.634 305.628C169.264 302.88 158.269 296.695 150.71 284.325C144.525 274.704 134.217 268.519 120.473 271.268C99.8565 275.391 82.6763 260.273 72.3682 236.908C110.852 254.088 152.084 279.515 181.634 305.628Z" fill="#D92231"/>
<path d="M207.057 124.89C211.181 123.516 215.304 122.829 219.427 122.141C260.659 149.63 290.209 179.867 299.143 203.232C299.143 206.668 299.143 210.104 298.456 213.54C268.219 146.881 138.337 103.587 138.337 103.587C209.806 133.824 295.02 196.36 292.271 236.218V236.905C292.271 237.592 291.584 238.279 291.584 238.967C267.532 168.871 128.716 122.141 128.716 122.141C198.811 152.378 283.337 214.227 281.963 254.085C281.276 254.772 281.276 255.46 280.588 256.147C255.162 186.052 117.72 140.696 117.72 140.696C185.067 169.559 265.47 227.284 270.968 267.142C270.28 268.517 268.906 269.204 268.219 270.578C239.356 203.232 107.412 159.251 107.412 159.251C170.635 186.739 246.228 239.654 259.285 278.825C257.911 280.199 256.536 281.573 254.475 282.261C220.114 219.038 97.1041 177.805 97.1041 177.805C156.204 203.232 225.612 250.649 244.854 289.133C242.792 290.507 240.73 291.882 238.669 292.569C198.811 234.156 86.1088 196.36 86.1088 196.36C140.398 219.725 202.934 261.644 228.361 298.066C225.612 299.441 222.863 300.128 220.801 301.502C175.446 248.587 76.4879 215.602 76.4879 215.602C124.592 236.218 179.569 271.953 209.119 304.939C204.996 305.626 201.56 306.313 197.436 307C156.204 269.204 90.9192 243.09 71.6774 236.218C58.6205 205.981 56.5588 164.061 70.9902 133.137C99.8529 71.9751 182.318 61.667 207.057 124.89Z" fill="#DB2233"/>
</svg>
