<svg width="360" height="360" viewBox="0 0 360 360" fill="none" xmlns="http://www.w3.org/2000/svg">
<rect width="360" height="360" rx="82" fill="black"/>
<path d="M240.475 176.466C235.778 177.898 230.992 179.017 226.146 179.811C213.306 182.046 200.095 184.092 186.51 185.766C173.898 187.358 161.447 190.032 149.298 193.771C139.13 196.726 129.726 201.867 121.755 208.843C114.246 216.191 110.299 226.446 110.968 236.939C110.782 244.021 112.318 251.042 115.43 257.41C118.448 263.328 122.625 268.58 127.712 272.854C133.215 277.319 139.536 280.672 146.322 282.71C152.977 284.941 159.955 286.072 166.976 286.063C178.225 286.14 189.409 284.377 200.097 280.85C210.191 277.541 219.545 272.297 227.637 265.406C244.133 250.941 253.282 229.841 252.571 207.915V168.838H251.638C249.087 172.772 245.065 175.521 240.475 176.466Z" fill="#43BFE4"/>
<path d="M179.995 25C94.397 25 25 94.3955 25 179.999C25 265.602 94.397 334.999 179.995 334.999C265.603 334.999 335 265.6 335 179.999C335 94.3955 265.603 25 179.995 25ZM273.038 238.801C263.639 264.768 243.186 285.225 217.216 294.62C201.059 300.061 183.976 302.211 166.976 300.95C146.094 300.259 125.817 293.82 108.362 282.34C108.362 282.34 62.2117 248.662 94.9625 207.913C103.045 197.966 113.556 190.275 125.478 185.583C139.171 180.207 153.488 176.581 168.095 174.791L216.288 168.836C222.613 168.836 228.195 167.348 233.032 166.415C237.387 165.662 241.525 163.947 245.125 161.391C248.444 158.826 251.02 155.423 252.573 151.53C254.496 146.289 255.376 140.729 255.174 135.156C255.471 126.505 253.754 117.904 250.15 110.036C246.993 103.662 242.17 98.2606 236.196 94.4015C229.913 90.3882 222.895 87.6617 215.542 86.4036C207.293 85.0971 198.955 84.5376 190.608 84.7327C173.935 83.4201 157.331 88.0292 143.715 97.7541C132.791 106.997 125.155 119.532 121.947 133.478C119.714 140.552 115.808 144.27 108.737 143.903C101.674 144.241 95.5598 139.023 94.7841 131.994C95.8275 122.153 98.9335 112.643 103.9 104.081C108.779 94.2397 115.843 85.6475 124.553 78.9592C133.705 72.0182 144.137 66.9585 155.255 64.0747C168.011 60.7147 181.143 59.0286 194.332 59.0498C202.374 59.0709 210.38 60.1355 218.149 62.2148C228.924 64.0264 239.187 68.0866 248.29 74.1232C257.236 80.2808 264.469 88.6023 269.32 98.3105C275.546 110.889 278.364 124.872 277.507 138.875C277.507 138.875 277.507 146.321 277.507 180.742V183.723C277.321 202.247 275.641 220.729 272.483 238.984L273.038 238.801Z" fill="#43BFE4"/>
</svg>
