<svg width="360" height="360" viewBox="0 0 360 360" fill="none" xmlns="http://www.w3.org/2000/svg">
<rect width="360" height="360" rx="82" fill="black"/>
<path fill-rule="evenodd" clip-rule="evenodd" d="M313.353 153.069C301.397 153.069 291.712 162.641 291.712 174.448C291.712 186.255 301.397 195.827 313.353 195.827C325.31 195.827 335 186.255 335 174.448C335 162.641 325.31 153.069 313.353 153.069ZM68.2878 174.448C68.2878 186.255 58.5976 195.827 46.6466 195.827C34.6902 195.827 25 186.255 25 174.448C25 162.641 34.6902 153.069 46.6466 153.069C58.5976 153.069 68.2878 162.641 68.2878 174.448Z" fill="#F84018"/>
<path fill-rule="evenodd" clip-rule="evenodd" d="M170.657 184.074H196.446L187.2 149.99H180.07L170.657 184.074ZM241.524 238.586H211.524L203.095 208.121H164.169L155.906 238.586H126.552L161.256 121H206.82L241.524 238.586Z" fill="white"/>
</svg>
