<svg width="360" height="360" viewBox="0 0 360 360" fill="none" xmlns="http://www.w3.org/2000/svg">
<rect width="360" height="360" rx="82" fill="#0000FF"/>
<path d="M294.98 117.7C292.163 105.25 286.124 93.758 277.468 84.3765C268.137 74.9752 256.526 68.1562 243.77 64.5863C226.356 59.8062 208.335 57.6065 190.282 58.0576H83V302.885H192.016C209.646 303.342 227.234 300.966 244.11 295.846C256.66 292.152 267.987 285.154 276.906 275.582C285.825 266.011 292.009 254.219 294.81 241.44C298.435 226.413 300.171 210.992 299.978 195.535V164.932C300.214 149.044 298.536 133.186 294.98 117.7ZM230.848 116.272L212.656 244.262C212.063 248.456 209.968 252.291 206.759 255.056C203.551 257.82 199.448 259.325 195.212 259.292H144.207L169.2 98.7941H215.615C217.815 98.7815 219.993 99.2438 221.999 100.149C224.005 101.055 225.791 102.383 227.237 104.042C228.683 105.701 229.755 107.652 230.378 109.763C231.001 111.873 231.161 114.094 230.848 116.272Z" fill="white"/>
</svg>
