<svg width="360" height="360" viewBox="0 0 360 360" fill="none" xmlns="http://www.w3.org/2000/svg">
<rect width="360" height="360" rx="82" fill="#2091B7"/>
<path d="M144.178 250.215C156.584 251.926 194.426 240.961 218.582 230.485C218.582 230.485 199.261 282.41 193.946 300.54C188.631 318.655 188.631 331.132 195.396 331.935C202.158 332.745 209.876 325.902 210.848 317.451C211.818 308.994 202.158 301.347 204.563 290.874C206.993 280.409 235.985 212.779 254.815 191.435C254.815 191.435 291.057 179.364 307.959 176.948C324.883 174.534 310.363 172.52 303.601 172.926C296.839 173.327 224.385 184.191 206.025 189.424C194.424 191.045 199.259 193.853 202.158 196.671C205.069 199.489 209.401 208.343 216.653 201.904C223.895 195.468 244.183 194.26 244.183 194.26C244.183 194.26 221.966 218.417 211.818 224.053C201.678 229.685 153.847 249.016 142.738 237.339C131.619 225.663 147.07 197.476 175.584 177.352C204.086 157.222 255.781 119.781 263.024 122.205C270.277 124.61 260.619 137.095 260.619 137.095C260.619 137.095 281.399 124.615 291.526 119.779C301.674 114.95 303.126 103.281 292.984 104.081C282.833 104.88 240.807 111.728 180.897 161.649C120.991 211.576 91.5104 242.968 144.178 250.215Z" fill="white"/>
<path d="M203.767 62.0466C209.008 47.6645 215.548 34.3155 211.624 28.6687C207.682 23.0256 195.901 24.0338 191.321 30.7208C186.731 37.4007 185.429 38.4267 165.769 61.0206C151.286 77.6757 107.664 122.555 75.0736 156.254C61.6335 159.277 47.8991 162.774 48.5509 165.793C49.104 168.385 60.8123 166.607 63.2668 168.458C51.0427 181.156 41.6288 191.016 38.0569 195.052C24.9594 209.953 40.0216 217.653 52.4673 208.405C64.9242 199.158 53.7802 197.112 57.719 191.468C60.7843 187.044 81.4092 170.437 90.2942 163.376C99.2536 160.579 109.317 157.561 118.61 155.517C134.149 152.079 156.893 147.891 175.032 144.891C170.27 168.062 166.099 193.793 165.117 203.269C163.804 216.114 165.769 223.81 174.948 223.81C184.114 223.81 184.114 206.862 181.504 201.219C178.878 195.576 175.611 189.4 181.504 160.135C182.496 155.164 183.664 149.419 184.9 143.324C192.079 142.217 197.899 141.418 201.141 141.134C210.777 140.288 194.623 138.772 185.897 138.518C191.884 109.386 199.642 73.3543 203.767 62.0466ZM134.347 146.781C116.927 150.194 103.772 151.753 92.9684 153.213C93.1174 152.615 93.3389 152.006 93.7319 151.407C96.3428 147.294 93.0801 152.941 114.031 128.295C134.997 103.645 191.32 53.8313 191.32 55.3721C191.32 56.913 186.729 96.4541 180.189 122.133C178.861 127.292 177.537 133.156 176.198 139.31C168.002 140.563 152.599 143.208 134.347 146.781Z" fill="white"/>
</svg>
