<svg width="360" height="360" viewBox="0 0 360 360" fill="none" xmlns="http://www.w3.org/2000/svg">
<rect width="360" height="360" rx="82" fill="#0D2240"/>
<path d="M89.8265 268.744C88.8175 269.501 83.2683 272.78 74.9445 272.78H73.9355V270.762H74.9445C79.2325 270.762 83.0161 269.753 85.2862 268.744C87.8086 267.735 89.0698 266.726 89.8265 266.474L90.331 266.726C90.331 266.726 91.5922 267.735 94.1146 268.744C96.6369 269.753 100.168 270.762 104.708 270.762C109.249 270.762 114.041 269.501 118.077 267.231L118.834 266.726C119.338 266.222 119.591 267.483 119.843 266.222L120.6 266.474C120.6 266.474 121.861 267.483 124.383 268.492C126.905 269.501 130.437 270.51 135.229 270.51C139.517 270.51 143.301 269.501 145.571 268.492C148.093 267.483 149.355 266.474 150.111 266.474L150.616 266.726C150.616 266.726 151.877 267.735 154.399 268.744C156.922 269.753 160.453 270.762 165.246 270.762C169.786 270.762 174.578 269.501 178.614 267.231L179.371 266.726C179.875 266.474 180.128 267.483 180.38 266.474L180.884 266.726C180.884 266.726 182.145 267.735 184.668 268.744C187.19 269.753 190.722 270.762 195.262 270.762C199.55 270.762 203.333 269.753 205.856 268.744C208.378 267.735 209.639 266.726 210.648 266.474L211.153 266.726C211.153 266.726 212.414 267.735 214.936 268.744C217.459 269.753 220.99 270.762 225.783 270.762C230.323 270.762 235.115 269.501 239.151 267.231L239.908 266.726C240.412 266.222 240.665 267.483 240.917 266.222L241.674 266.474C241.674 266.474 242.935 267.483 245.457 268.492C247.979 269.501 251.511 270.51 256.303 270.51C260.591 270.51 264.375 269.501 266.645 268.492C269.167 267.483 270.429 266.474 271.185 266.474L271.942 266.726C271.942 266.726 273.203 267.735 275.726 268.744C278.248 269.753 281.779 270.762 286.572 270.762H287.581V272.78H286.572C278.248 272.78 272.951 269.753 271.185 268.744C270.176 269.501 264.375 272.78 256.303 272.78C248.232 272.78 242.682 269.753 241.169 268.744L240.665 268.996C236.377 271.519 231.332 272.78 226.287 272.78C217.963 272.78 212.666 269.753 210.901 268.744C209.892 269.501 204.09 273.032 195.766 273.032C187.695 273.032 182.145 270.005 180.632 268.996L180.128 269.248C175.84 271.771 170.795 273.032 165.75 273.032C157.426 273.032 152.129 270.005 150.364 268.996C149.355 269.753 143.805 273.032 135.482 273.032C127.41 273.032 121.861 270.005 120.347 268.996L119.843 269.248C115.555 271.771 110.51 273.032 105.465 273.032C96.8892 273.032 91.3399 269.753 89.8265 268.744Z" fill="white"/>
<path d="M102.691 282.617L102.187 282.87C97.6464 285.644 92.6017 286.653 87.3047 286.653V284.635C92.3494 284.383 96.8897 283.626 101.178 281.104L101.935 280.599C102.439 280.095 102.691 281.356 102.943 280.347L103.7 280.599C103.7 280.599 104.961 281.608 107.484 282.617C110.006 283.626 113.79 284.635 118.33 284.635C122.87 284.635 126.402 283.626 128.924 282.617C131.446 281.608 132.96 280.599 133.464 280.599L133.969 280.852C133.969 280.852 135.23 281.861 137.752 282.87C140.275 283.878 144.058 284.887 148.598 284.887C153.391 284.887 158.183 283.626 162.219 281.356L162.976 280.852C163.48 280.347 163.733 281.608 163.985 280.599L164.489 280.852C164.489 280.852 165.751 281.861 168.273 282.87C170.795 283.878 174.579 284.887 179.119 284.887C183.659 284.887 187.191 283.878 189.713 282.87C192.236 281.861 193.749 280.852 194.506 280.599L195.262 280.852C195.262 280.852 196.524 281.861 199.046 282.87C201.568 283.878 205.352 284.887 209.892 284.887C214.685 284.887 219.477 283.626 223.513 281.356L224.27 280.852C224.774 280.347 225.026 281.608 225.279 280.599L225.783 280.852C225.783 280.852 227.044 281.861 229.567 282.87C232.089 283.878 235.873 284.887 240.413 284.887C244.953 284.887 248.484 283.878 251.007 282.87C253.529 281.861 255.043 280.852 255.547 280.852L256.304 281.104C256.304 281.104 257.565 282.113 260.087 283.122C262.61 284.131 266.393 285.14 270.934 285.14H271.943V287.158H270.934C262.61 287.158 257.061 283.878 255.295 282.87C254.286 283.626 248.485 286.905 240.161 286.905C231.837 286.905 226.288 283.878 224.522 282.87L224.018 283.122C219.729 285.644 214.432 286.905 209.388 286.905C201.064 286.905 195.515 283.878 193.749 282.617C192.74 283.374 186.939 286.905 178.362 286.905C170.039 286.905 164.489 283.878 162.976 282.617L162.472 283.122C158.184 285.644 152.886 286.905 147.842 286.905C139.518 286.905 133.969 283.626 132.203 282.617C131.194 283.374 125.393 286.653 117.069 286.653C110.006 286.905 104.457 283.878 102.691 282.617Z" fill="white"/>
<path d="M149.608 296.49L149.103 296.995C144.563 299.517 139.266 300.778 134.221 300.778C128.167 300.778 121.861 299.517 116.564 296.743L117.573 294.977C122.618 297.752 128.672 298.76 134.221 298.76C139.014 298.76 144.058 297.499 148.094 295.229L148.851 294.725C149.355 294.22 149.608 295.481 149.86 294.22L150.364 294.472C150.364 294.472 151.878 295.481 154.4 296.49C156.922 297.499 160.706 298.508 165.499 298.508C170.039 298.508 173.822 297.499 176.345 296.49C178.867 295.481 180.381 294.472 181.137 294.22L181.642 294.472C181.642 294.472 183.155 295.481 185.678 296.49C188.2 297.499 191.983 298.508 196.776 298.508C201.568 298.508 206.613 297.247 210.649 294.977L211.406 294.472C211.91 293.968 212.163 295.229 212.415 294.22L213.171 294.472C213.171 294.472 214.685 295.481 217.207 296.49C219.73 297.499 223.513 298.508 228.306 298.508C233.855 298.508 239.656 297.247 244.701 294.22L245.71 295.986C240.665 299.013 234.359 300.526 228.306 300.526C219.73 300.526 214.18 297.499 212.415 296.238L211.91 296.743C207.37 299.265 202.073 300.526 197.028 300.526C188.452 300.526 182.903 297.247 181.137 296.238C180.128 296.995 174.075 300.526 165.499 300.526C157.175 300.778 151.373 297.752 149.608 296.49Z" fill="white"/>
<path d="M158.689 166.335H202.074L210.145 246.799H150.617L158.689 166.335Z" fill="white"/>
<path d="M158.689 162.299H202.074L205.353 157.254H155.41L158.689 162.299Z" fill="white"/>
<path d="M198.04 153.219L195.265 147.922H165.501L162.727 153.219H198.04Z" fill="white"/>
<path d="M195.264 116.14H165.5V143.634H195.264V116.14Z" fill="white"/>
<path d="M165.501 112.104H195.265L198.04 108.068H162.727L165.501 112.104Z" fill="white"/>
<path d="M187.189 92.1777H173.568V104.033H187.189V92.1777Z" fill="white"/>
<path d="M180.38 76.2861L171.047 88.1413H189.965L180.38 76.2861Z" fill="white"/>
<path d="M245.458 239.484H265.637L268.412 234.692H242.684L245.458 239.484Z" fill="white"/>
<path d="M95.1242 239.484H115.303L118.078 234.692H92.3496L95.1242 239.484Z" fill="white"/>
<path d="M135.229 271.771C144.31 271.771 150.111 267.483 150.111 267.483C150.111 267.483 155.913 271.771 165.246 271.771C174.326 271.771 180.128 267.483 180.128 267.483H180.38C180.38 267.483 185.929 271.771 195.514 271.771C204.595 271.771 210.396 267.483 210.396 267.483C210.396 267.483 216.198 271.771 225.53 271.771C230.575 271.771 234.863 270.509 237.386 269.248L239.656 250.835H120.6L122.87 269.248C125.644 270.509 129.932 271.771 135.229 271.771Z" fill="white"/>
<path d="M256.05 271.77C261.347 271.77 265.635 270.257 268.157 268.996L265.635 243.268H245.204L242.934 268.744C245.456 270.005 249.996 271.77 256.05 271.77Z" fill="white"/>
<path d="M104.961 271.77C110.762 271.77 115.05 270.005 117.573 268.744L115.303 243.268H95.1236L92.8535 268.996C95.1237 270.257 99.4117 271.77 104.961 271.77Z" fill="white"/>
<path d="M150.111 100.502L114.041 76.5391L115.302 74.7734C127.662 83.0973 140.022 91.1689 152.129 99.4927L150.868 101.258L150.111 100.502Z" fill="white"/>
<path d="M246.464 77.0436L210.394 101.258L209.133 99.4927C221.492 91.1689 233.852 83.0973 245.959 74.7734L247.221 76.5391L246.464 77.0436Z" fill="white"/>
<path d="M150.618 117.402L58.2991 129.257L58.0469 127.239C89.0721 123.203 120.35 119.167 151.627 115.131L151.879 117.149L150.618 117.402Z" fill="white"/>
<path d="M301.708 129.004L209.389 116.897L209.641 114.879C240.666 118.915 271.944 122.95 303.221 126.986L302.969 129.004H301.708Z" fill="white"/>
<path d="M151.119 133.04L48.9624 214.765L47.7012 213.251C82.0055 185.757 116.31 158.263 150.614 130.77L151.875 132.283L151.119 133.04Z" fill="white"/>
<path d="M311.545 214.26L209.389 132.283L210.65 130.77C244.954 158.263 279.259 185.757 313.563 213.251L312.302 214.765L311.545 214.26Z" fill="white"/>
<path d="M34.3327 179.956C34.3327 250.078 97.1399 307.084 180.378 307.084C263.617 307.084 325.667 250.33 325.667 179.956C325.667 109.834 263.869 53.3328 180.378 53.3328C97.1399 53.3328 34.3327 109.582 34.3327 179.956ZM25 179.956C25 103.276 93.1041 44 180.378 44C267.653 44 335 103.528 335 179.956C335 256.384 267.653 316.417 180.378 316.417C93.1041 316.417 25 256.384 25 179.956Z" fill="white"/>
</svg>
