<svg width="360" height="360" viewBox="0 0 360 360" fill="none" xmlns="http://www.w3.org/2000/svg">
<rect width="360" height="360" rx="82" fill="#181716"/>
<path d="M235.128 115.5C242.077 115.5 248.729 112.168 252.927 106.589C255.836 102.707 257.376 98.1025 257.376 93.2515C257.376 88.405 255.836 83.7893 252.927 79.908C248.729 74.3325 242.077 71 235.128 71C222.857 71 212.874 80.9795 212.874 93.2506C212.873 105.518 222.857 115.5 235.128 115.5Z" fill="#D71712"/>
<path d="M319.838 116.835C319.594 116.54 319.101 116.509 318.526 116.688C318.416 116.727 318.319 116.766 318.21 116.807C301.513 122.933 264.715 129.605 215.183 120.801C156.189 110.321 135.014 115.59 124.611 119.395C124.517 119.428 124.433 119.456 124.346 119.495C123.719 119.757 123.324 120.165 123.354 120.582C123.38 121.015 123.837 121.365 124.505 121.545C124.54 121.548 124.565 121.554 124.597 121.567C199.075 138.294 152.976 200.563 51.2984 259.304C51.1145 259.39 50.9415 259.486 50.7937 259.592C50.2134 259.989 49.907 260.483 50.025 260.9C50.1647 261.375 50.8487 261.622 51.7147 261.581C51.7949 261.574 51.8751 261.571 51.9445 261.562C69.6767 259.965 95.8023 250.479 127.17 236.517C127.183 236.508 127.186 236.504 127.209 236.5C130.869 234.874 134.602 233.181 138.4 231.43C154.255 224.492 172.252 217.996 183.671 221.592C198.731 226.336 201.629 237.556 203.43 258.821C203.442 258.93 203.456 259.036 203.465 259.152C203.54 259.704 203.756 260.105 204.11 260.214C204.495 260.332 204.95 260.06 205.342 259.562C205.386 259.498 205.432 259.437 205.483 259.373C212.799 249.308 239.957 209.974 241.491 178.921C277.973 157.767 308.411 136.064 319.414 118.715C319.557 118.532 319.673 118.336 319.769 118.147C320.041 117.622 320.084 117.131 319.838 116.835Z" fill="#D71712"/>
</svg>
