<svg width="360" height="360" viewBox="0 0 360 360" fill="none" xmlns="http://www.w3.org/2000/svg">
<rect width="360" height="360" rx="82" fill="black"/>
<path d="M245.326 274.5L180 236.882L114.674 274.5C112.854 275.511 110.427 275.511 108.606 274.5L39.0339 234.253C37.2131 233.242 36 231.219 36 228.994V148.702C36 146.478 37.2131 144.455 39.0339 143.444L176.966 63.7584C178.787 62.7472 181.213 62.7472 183.034 63.7584L320.966 143.444C322.786 144.455 324 146.478 324 148.702V229.197C324 231.421 322.786 233.242 320.966 234.455L251.393 274.702C249.573 275.511 247.146 275.511 245.326 274.5V274.5ZM111.64 259.332L165.236 228.388L111.64 197.444L58.0452 228.388L111.64 259.332ZM255.64 255.085L309.236 224.141V162.253L255.64 193.197V255.085ZM241.078 255.085V193.197L180 158.006L126.405 188.95L241.078 255.085ZM50.7643 215.444L97.0785 188.748L50.7643 162.253V215.444ZM111.64 180.253L172.517 145.062V83.1745L58.0452 149.309L111.64 180.253ZM248.359 180.253L301.955 149.309L187.281 83.1745V145.062L248.359 180.253Z" fill="#01B0BA"/>
</svg>
