<svg width="360" height="360" viewBox="0 0 360 360" fill="none" xmlns="http://www.w3.org/2000/svg">
<rect width="360" height="360" rx="82" fill="black"/>
<path d="M234.618 165.314C231.62 165.314 229.152 167.606 229.152 170.426V200.576H192.126L187.541 192.289L179.608 178.538V155.088C179.608 152.268 177.139 149.976 174.142 149.976H147.343C144.346 149.976 141.877 152.268 141.877 155.088V200.753H136.764L124.247 178.713V155.088C124.247 152.268 121.778 149.976 118.78 149.976H91.9815C88.9842 149.976 86.5154 152.268 86.5154 155.088V200.753H78.0519L66.2395 153.853C65.7093 151.561 63.419 149.976 60.9501 149.976H46.3153C43.8482 149.976 41.731 151.561 41.0259 153.853L28.1549 205.514C27.4497 208.334 29.2135 211.155 32.2107 211.683C32.3875 211.683 32.5642 211.683 32.7391 211.683C32.9159 211.683 33.2694 211.683 33.4443 211.683C33.7978 211.683 34.1494 211.683 34.3262 211.683C36.4416 211.332 38.2053 209.921 38.7337 207.806L50.7229 160.024H56.8942L68.5317 207.101C69.0601 209.393 71.3522 211.155 73.8211 211.155H91.9815C94.9788 211.155 97.4459 208.863 97.4459 206.042V160.201H113.668V179.948C113.668 180.83 113.843 181.71 114.373 182.416L129.006 208.334C129.888 209.921 131.826 210.978 133.767 210.978H147.52C150.517 210.978 152.984 208.686 152.984 205.865V160.201H169.206V179.948C169.206 180.83 169.383 181.71 169.911 182.416L184.544 208.334C185.249 209.568 186.484 210.45 187.895 210.803C188.423 210.978 188.777 210.978 189.305 210.978H234.969C237.967 210.978 240.436 208.686 240.436 205.865V170.603C240.082 167.606 237.615 165.314 234.618 165.314Z" fill="white"/>
<path d="M329.473 149.094C326.475 148.564 323.655 150.327 323.126 153.148L313.429 200.753H310.609L301.263 154.03C300.735 151.561 298.62 149.799 295.974 149.799H285.749C283.103 149.799 280.988 151.561 280.459 154.03L270.937 200.576H268.117L258.596 154.03C258.066 151.561 255.951 149.799 253.307 149.799H248.899H201.823C198.825 149.799 196.358 152.091 196.358 154.912V190.174C196.358 192.995 198.825 195.287 201.823 195.287C204.82 195.287 207.289 192.995 207.289 190.174V160.201H248.899V160.378L258.243 206.924C258.773 209.393 260.888 211.155 263.532 211.155H275.345C277.99 211.155 280.106 209.393 280.634 206.924L290.156 160.378H291.566L301.087 206.924C301.617 209.393 303.732 211.155 306.376 211.155H318.189C320.834 211.155 322.95 209.393 323.478 206.924L333 158.614V151.386C332.295 150.151 331.06 149.271 329.473 149.094Z" fill="white"/>
</svg>
