<svg width="360" height="360" viewBox="0 0 360 360" fill="none" xmlns="http://www.w3.org/2000/svg">
<rect width="360" height="360" rx="82" fill="#0F238C"/>
<path d="M257.001 122.667C190.742 64.7141 87.3485 88.2759 86.3344 141.335C71.3004 42.8908 190.346 22.3384 256.994 53.3339C258.181 69.1403 259.371 86.1582 257.001 122.667Z" fill="white"/>
<path d="M202.027 154.067C185.334 147.552 161.047 141.624 161.012 122.644C160.998 114.891 164.187 106.473 179.667 101.335C126.333 106.668 108.548 171.545 167.535 203.791C177.815 209.411 195.667 215.372 195.667 234.666C195.667 257.203 170.907 265.35 154.619 265.006C127.562 264.437 105.808 254.985 81 237.332V301.333C110.358 313.971 158.177 328.546 206.115 313.803C244.857 301.888 278.333 269.366 278.333 234.665C278.335 178.2 229.329 164.725 202.027 154.067Z" fill="white"/>
</svg>
