<svg width="360" height="360" viewBox="0 0 360 360" fill="none" xmlns="http://www.w3.org/2000/svg">
<rect width="360" height="360" rx="82" fill="#00238B"/>
<path d="M126.959 214.813H80.2263L71.3418 241.467H43L91.1543 112.108H115.853L164.274 241.467H135.933L126.959 214.813ZM87.4228 193.224H119.763L103.504 144.803L87.4228 193.224Z" fill="white"/>
<path d="M203.811 121.703V145.336H220.247V164.171H203.811V212.148C203.811 215.702 204.492 218.249 205.854 219.789C207.216 221.329 209.823 222.099 213.673 222.099C216.516 222.099 219.033 221.891 221.224 221.477V240.934C216.19 242.474 211.007 243.244 205.676 243.244C187.67 243.244 178.49 234.152 178.134 215.968V164.171H164.097V145.336H178.134V121.703H203.811Z" fill="white"/>
<path d="M259.606 155.82C266.417 147.646 274.976 143.559 285.282 143.559C306.131 143.559 316.704 155.672 317 179.897V241.467H291.324V180.608C291.324 175.099 290.139 171.042 287.77 168.436C285.401 165.77 281.462 164.438 275.953 164.438C268.431 164.438 262.982 167.34 259.606 173.145V241.467H233.929V105H259.606V155.82Z" fill="white"/>
</svg>
