<svg width="360" height="360" viewBox="0 0 360 360" fill="none" xmlns="http://www.w3.org/2000/svg">
<rect width="360" height="360" rx="82" fill="#75CB97"/>
<path d="M213.941 216.606C212.73 214.618 211.501 212.639 210.307 210.654C209.173 208.759 208.06 206.853 206.968 204.934C206.415 204.063 205.918 203.158 205.48 202.223C205.361 202.107 205.266 201.967 205.204 201.812C203.909 199.509 202.609 197.209 201.335 194.899C197.35 187.757 193.428 180.585 189.309 173.518C185.756 167.423 182.072 161.409 178.049 155.609C176.126 152.831 174.114 150.136 172.011 147.523C171.749 147.193 171.085 146.467 171.085 146.467L171.383 147.026C171.383 147.026 173.763 150.966 174.713 152.954C176.135 155.937 177.284 159.043 178.144 162.233C178.65 164.072 179.054 165.938 179.355 167.822C179.599 169.378 179.813 170.938 179.926 172.512C180.141 175.422 180.045 178.333 179.986 181.24C179.93 182.834 179.787 184.423 179.557 186.002C178.504 194.023 175.765 201.73 171.523 208.618C170.588 210.142 169.576 211.618 168.493 213.04C168.413 213.162 168.341 213.287 168.273 213.415C167.678 214.115 167.103 214.811 166.523 215.499C165.874 216.284 165.19 217.034 164.493 217.775C161.275 221.191 157.641 224.19 153.676 226.703C152.135 227.688 150.537 228.575 148.915 229.426C148.721 229.492 148.542 229.593 148.385 229.723C146.829 230.417 145.29 231.149 143.698 231.762C142.031 232.403 140.345 232.974 138.639 233.476C136.257 234.153 133.831 234.664 131.378 235.006C129.488 235.303 127.586 235.44 125.676 235.544C123.31 235.649 120.941 235.6 118.581 235.398C113.981 235.03 109.444 234.098 105.071 232.622C104.107 232.3 103.154 231.946 102.196 231.607C100.667 230.92 99.1161 230.283 97.6193 229.524C95.4186 228.409 93.2887 227.16 91.2419 225.783C90.8729 225.533 90.4682 225.331 90.0813 225.108C85.799 221.796 81.7935 218.198 78.4754 213.895C78.4248 213.832 78.3593 213.778 78.3028 213.719C77.1838 212.192 76.0649 210.663 75.0591 209.059C74.7793 208.609 74.5055 208.166 74.2347 207.705C73.9639 207.243 73.705 206.788 73.4461 206.327C73.1872 205.866 72.9402 205.401 72.6962 204.934C72.4522 204.467 72.2171 203.997 71.9879 203.524C71.7588 203.05 71.5326 202.577 71.3184 202.098C71.1041 201.619 70.8898 201.14 70.6875 200.655C70.4851 200.17 70.2857 199.685 70.0923 199.197C69.8989 198.709 69.7203 198.215 69.5417 197.709C69.3632 197.203 69.1936 196.718 69.0299 196.221C68.8662 195.724 68.7115 195.218 68.5597 194.712C68.4079 194.206 68.2621 193.697 68.1312 193.185C68.0002 192.673 67.8633 192.159 67.7413 191.644C67.6431 191.251 67.5509 190.858 67.4437 190.453C67.4289 190.397 67.4259 190.355 67.411 190.299C67.411 190.299 63.2596 175.717 68.6014 162.798C71.738 155.204 32.2657 156.847 30.2808 157.234C29.0458 157.478 26.9746 198.896 26.9746 198.896C26.9746 198.896 27.0163 199.122 27.0282 199.194C27.7275 202.384 28.5608 205.443 29.5666 208.538C32.6033 218.021 37.0332 226.999 42.7111 235.178C43.6247 236.49 45.7822 239.344 45.7822 239.344C48.3445 242.649 51.1179 245.784 54.085 248.73C56.9075 251.524 59.9011 254.138 63.0484 256.56C63.9747 257.322 64.9423 258.032 65.9469 258.688C66.4524 259.11 66.9874 259.496 67.5479 259.842C72.4279 263.17 77.5935 266.058 82.9838 268.472C84.3156 269.105 85.6783 269.67 87.0668 270.166C87.1534 270.219 87.2428 270.268 87.3346 270.312C88.8969 270.945 90.4801 271.52 92.0782 272.055C96.4757 273.525 100.972 274.681 105.532 275.516C107.318 275.844 109.103 276.15 110.889 276.367C112.377 276.546 113.865 276.722 115.353 276.823C117.218 276.951 119.084 277.094 120.956 277.12C123.206 277.162 125.454 277.134 127.7 277.037C129.259 276.972 130.812 276.835 132.366 276.719C133.919 276.603 135.464 276.364 137.008 276.156C139.13 275.859 141.234 275.481 143.332 275.055C146.266 274.46 149.147 273.653 152.013 272.793C157.127 271.227 162.103 269.244 166.892 266.862C166.898 266.813 166.898 266.763 166.892 266.714C166.898 266.763 166.898 266.813 166.892 266.862C167.19 266.767 167.474 266.637 167.74 266.473C169.341 265.633 170.936 264.779 172.502 263.866C180.173 259.408 187.214 253.945 193.437 247.62C193.773 247.284 194.083 246.915 194.416 246.573C195.33 245.635 196.202 244.659 197.074 243.68C198.151 242.469 199.183 241.225 200.151 239.925C200.493 239.463 202.469 236.931 203.085 236.11C205.233 233.196 207.19 230.145 208.941 226.977C210.132 224.893 211.223 222.767 212.215 220.596C212.545 219.876 212.864 219.153 213.194 218.436C213.45 217.876 213.575 217.245 214.006 216.772C213.989 216.715 213.967 216.659 213.941 216.606ZM148.59 229.884C148.671 229.965 148.74 230.058 148.796 230.158C148.74 230.058 148.671 229.965 148.59 229.884Z" fill="url(#paint0_linear)"/>
<path d="M221.655 145.69V80H180.174C180.21 84.0234 180.004 88.0349 180.058 92.0672C180.085 94.0789 180.058 96.0936 180.058 98.1053C183.004 100.246 185.843 102.518 188.575 104.92C191.08 107.136 193.497 109.447 195.824 111.854C196.236 112.229 196.604 112.65 196.919 113.11C197.999 114.131 198.895 115.321 199.934 116.383C200.505 116.978 200.999 117.642 201.538 118.27C202.431 119.306 203.252 120.392 204.127 121.436C208.192 126.281 211.819 131.444 215.31 136.712C217.344 139.779 219.314 142.888 221.22 146.038C221.313 146.19 221.67 146.8 221.67 146.8C221.67 146.8 221.655 145.949 221.655 145.69Z" fill="#0066FE"/>
<path d="M153.233 84.725C149.043 83.4066 144.767 82.3775 140.436 81.645C137.691 81.1788 134.927 80.8256 132.145 80.5856C130.342 80.4308 128.536 80.3416 126.729 80.2314C125.902 80.2969 125.075 80.2314 124.244 80.2314H121.09C120.388 80.2314 119.682 80.3058 118.98 80.2493C116.242 80.4189 113.507 80.6302 110.782 80.9754C107.427 81.4066 104.097 82.0146 100.806 82.7967C94.1516 84.3859 87.6793 86.6597 81.4928 89.5817C78.8145 90.8494 76.1898 92.26 73.6186 93.7479C72.0771 94.6407 70.5683 95.5989 69.0834 96.584C67.9615 97.3279 66.8366 98.0719 65.7742 98.8903C65.6997 98.923 65.628 98.9619 65.5599 99.0063C63.9529 100.197 62.3668 101.387 60.8253 102.664C58.2201 104.792 55.7288 107.056 53.3617 109.446C51.2673 111.541 49.2808 113.741 47.4099 116.037C46.9725 116.582 46.4606 117.073 46.1363 117.707C45.9706 117.834 45.8311 117.991 45.7256 118.171C40.0922 125.421 35.4968 133.421 32.0722 141.94C31.7242 142.713 31.426 143.508 31.1794 144.32C31.0902 144.529 30.989 144.734 30.9116 144.948C29.133 149.806 27.74 154.796 26.7454 159.872C26.0372 163.287 25.5403 166.743 25.2574 170.219C25.0223 173.859 24.8259 182.787 25.2455 187.411C25.4419 189.572 25.7008 191.729 26.043 193.875C26.3406 195.693 26.5787 197.357 27.0132 199.148L67.4139 190.405C67.4139 190.405 67.0181 188.206 66.8187 186.995C66.6074 185.617 66.4765 184.23 66.3753 182.828C66.2399 180.898 66.2071 178.962 66.2771 177.028C66.3886 173.784 66.7788 170.555 67.4436 167.377C68.021 164.627 68.7907 161.92 69.747 159.277C69.8035 159.122 70.982 156.161 71.5742 154.861C73.3724 150.937 75.6193 147.235 78.2699 143.829L78.6003 143.317C79.493 142.148 80.5167 141.097 81.5107 140.02C84.0219 137.3 86.8016 134.84 89.8075 132.679L90.0307 132.467C90.0307 132.467 91.099 131.705 91.6495 131.342C94.9762 129.179 98.5041 127.342 102.184 125.858C106.193 124.226 110.376 123.058 114.65 122.376C118.081 121.829 121.556 121.616 125.027 121.739C129.518 121.853 133.982 122.477 138.332 123.599C141.737 124.492 148.537 127.387 148.724 127.468C148.912 126.944 149.474 127.524 149.656 127.048C150.048 126.021 163.047 90.9536 163.601 89.4537C163.675 89.2514 163.345 88.7187 163.431 88.5312C163.285 88.4509 156.536 85.7726 153.233 84.725Z" fill="url(#paint1_linear)"/>
<path d="M304.488 235.941C301.534 235.949 298.584 235.698 295.674 235.191C290.664 234.333 285.835 232.638 281.389 230.176C275.923 227.165 271.224 223.183 266.926 218.701C263.322 214.891 259.992 210.831 256.96 206.551C256.183 205.473 255.416 204.39 254.645 203.307C254.615 203.186 254.555 203.076 254.469 202.986C253.606 201.682 252.731 200.391 251.883 199.081C248.086 193.216 244.569 187.178 241.117 181.101C240.441 179.911 239.718 178.747 239.033 177.56C238.56 176.735 235.584 171.203 234.668 169.549C230.481 162.005 226.273 154.476 221.818 147.087L221.199 146.039C219.286 142.892 217.316 139.784 215.289 136.713C211.798 131.445 208.17 126.282 204.105 121.437C203.23 120.393 202.4 119.307 201.516 118.271C200.978 117.643 200.484 116.968 199.912 116.384C198.874 115.322 197.978 114.131 196.898 113.111C196.582 112.651 196.215 112.23 195.803 111.855C193.477 109.448 191.061 107.137 188.553 104.921C185.831 102.511 182.995 100.239 180.045 98.1063L179.647 97.8296C175.352 94.7707 170.814 92.0675 166.079 89.747C165.169 89.3036 163.354 88.4912 163.354 88.4912L161.363 93.5086C160.878 94.812 148.697 127.434 148.697 127.434C148.697 127.434 150.87 128.639 151.938 129.282C157.568 132.683 162.455 136.986 166.916 141.78C167.672 142.593 168.404 143.414 169.124 144.262C169.674 144.911 170.719 146.265 170.719 146.265L171.118 146.777L171.335 147.033L172.046 147.833C172.046 147.833 176.144 153.113 178.06 155.868C182.084 161.671 185.768 167.686 189.321 173.78C193.44 180.845 197.356 188.023 201.347 195.162C202.632 197.471 203.922 199.776 205.215 202.075C205.278 202.23 205.372 202.369 205.492 202.486C205.93 203.42 206.427 204.326 206.98 205.197C208.069 207.119 209.182 209.026 210.319 210.916C211.509 212.913 212.738 214.892 213.953 216.868L214.25 217.335C216.804 221.457 219.464 225.504 222.285 229.456C223.514 231.185 224.737 232.917 226.073 234.566C226.089 234.604 226.108 234.641 226.13 234.676C230.52 240.493 235.349 245.965 240.575 251.043C245.149 255.471 250.131 259.457 255.454 262.947C262.898 267.843 271.043 271.579 279.61 274.026C282.69 274.887 285.814 275.582 288.969 276.109C291.163 276.484 293.368 276.775 295.584 276.981C297.465 277.157 299.355 277.252 301.238 277.383H303.619L305 277.365V235.923C304.821 235.929 304.655 235.941 304.488 235.941Z" fill="#003380"/>
<defs>
<linearGradient id="paint0_linear" x1="29.4386" y1="222.438" x2="212.578" y2="203.19" gradientUnits="userSpaceOnUse">
<stop stop-color="#074097"/>
<stop offset="0.2" stop-color="#08419A"/>
<stop offset="0.34" stop-color="#0A44A3"/>
<stop offset="0.46" stop-color="#0D49B2"/>
<stop offset="0.49" stop-color="#0E4AB7"/>
<stop offset="0.52" stop-color="#0D4BBB"/>
<stop offset="0.84" stop-color="#045FEB"/>
<stop offset="1" stop-color="#0166FE"/>
</linearGradient>
<linearGradient id="paint1_linear" x1="152.364" y1="75.3421" x2="17.8415" y2="188.218" gradientUnits="userSpaceOnUse">
<stop stop-color="#003380"/>
<stop offset="0.03" stop-color="#003380"/>
<stop offset="0.23" stop-color="#003380"/>
<stop offset="0.4" stop-color="#023787"/>
<stop offset="0.57" stop-color="#063E94"/>
<stop offset="0.77" stop-color="#074097"/>
<stop offset="0.79" stop-color="#074097"/>
<stop offset="0.88" stop-color="#074097"/>
</linearGradient>
</defs>
</svg>
