<svg width="360" height="360" viewBox="0 0 360 360" fill="none" xmlns="http://www.w3.org/2000/svg">
<rect width="360" height="360" rx="82" fill="#0566B0"/>
<path fill-rule="evenodd" clip-rule="evenodd" d="M111.405 223.821C111.405 223.821 112.021 226.532 113.541 225.51C115.06 224.49 115.676 222.96 117.196 222.96C118.715 222.96 125.049 221.769 126.569 222.96C128.088 224.15 128.241 223.129 129 223.129C129.76 223.129 131.992 223.525 131.992 223.525C133.935 223.323 133.539 220.234 132.135 219.331C130.108 217.744 127.38 216.724 125.353 215.135C125.15 213.604 124.948 212.073 124.745 210.542C125.303 209.75 125.86 208.955 126.417 208.161C126.417 205.61 126.417 203.059 126.417 200.507C126.113 199.827 125.809 199.147 125.505 198.466C125.404 196.539 125.303 194.611 125.201 192.683C124.948 192.343 124.695 192.003 124.441 191.663C124.441 190.926 124.441 190.189 124.441 189.451C124.948 188.715 125.974 187.978 126.481 187.24C126.633 185.823 125.954 184.822 126.106 183.405C125.751 181.591 125.708 179.36 125.353 177.545C125.353 175.334 125.353 173.123 125.353 170.912C126.823 170.474 127.179 169.822 127.284 169.163C127.419 168.315 127.004 167.316 126.569 165.299C126.366 154.696 126.268 143.677 126.065 133.074C126.874 131.807 127.843 131.152 127.863 130.213C127.879 129.482 127.094 128.873 126.113 128.049C126.113 127.312 126.113 126.575 126.113 125.837C126.113 125.837 127.785 122.436 129.152 122.436C130.52 122.436 131.432 121.415 131.432 120.395C132.68 117.915 130.064 117.673 130.064 117.673C127.17 117.613 123.891 117.761 121.067 117.702C118.577 117.649 116.532 117.386 114.108 117.333C113.045 117.39 111.981 117.446 110.917 117.503C108.303 118.297 108.852 119.717 109.853 120.51C111.069 121.275 112.106 122.151 113.5 122.181C115.202 122.216 116.556 122.774 117.147 124.477C117.3 131.28 117.451 138.084 117.603 144.888C117.654 149.906 117.809 154.924 117.859 159.941C117.91 164.958 117.857 169.976 117.907 174.994C118.008 180.891 118.11 186.787 118.211 192.683C118.211 192.683 117.907 194.895 117.451 195.405C116.996 195.915 117.147 200.337 117.147 200.337C118.83 201.803 118.473 201.598 117.3 203.569C117.198 207.935 117.096 212.3 116.995 216.666C116.59 217.46 116.185 218.254 115.78 219.047C115.78 219.047 111.405 221.61 111.405 223.821ZM37.8123 244.965C35.5589 244.502 35.1364 243.411 35.9368 242.768C36.4171 242.383 37.7011 242.397 38.2783 242.127C39.123 241.729 39.9858 241.208 40.4944 240.579C41.3635 239.502 40.8363 237.012 41.8735 234.982C42.8702 226.421 43.1688 215.078 42.1726 211.263C41.5746 205.382 42.1885 185.849 42.1885 183.374C42.8503 182.184 43.0987 182.087 43.1038 180.003C43.1056 179.188 43.6536 177.921 43.0698 176.913C42.223 175.947 42.479 172.167 42.4127 170.036C42.3148 166.865 42.5475 166.891 43.43 164.017C43.7623 162.936 43.8748 161.65 43.43 160.614C42.711 158.939 41.6713 160.874 41.7405 157.51C41.9101 149.346 42.2145 141.132 41.9998 132.972C42.0463 132.245 43.2574 132.112 43.4945 131.424C43.7959 130.55 43.8958 129.47 43.4945 128.64C43.2672 128.169 41.9954 128.781 41.6223 128.424C39.3421 126.246 36.4769 124.877 35.1556 121.97C34.6435 120.843 35.4695 118.348 36.5552 117.809C38.3538 116.915 41.6995 117.839 43.6675 117.499C44.7258 117.317 45.3956 116.687 46.4677 116.64C54.8296 116.272 63.4343 115.436 71.7663 116.261C73.1 116.394 73.5397 118.746 74.7554 119.331C76.4218 120.131 78.8586 119.96 80.1359 121.326C82.1833 123.516 83.6523 125.32 83.9121 128.355C84.231 132.08 84.8711 136.299 84.8398 139.161C84.8134 141.557 84.0932 143.719 83.025 145.78C81.5619 148.605 79.8202 151.241 77.9341 154.031C76.8469 155.639 74.9118 157.132 74.4564 158.965C73.9859 160.861 78.8834 159.469 79.8854 161.129C80.8484 162.725 79.0638 164.594 79.6021 166.392C80.0829 167.996 82.8596 168.152 83.1892 169.796C84.0397 174.039 82.1631 178.526 82.8904 182.793C83.123 184.159 85.2907 184.208 85.5014 185.578C85.7572 188.539 85.6658 191.673 85.6888 194.818C85.713 198.167 85.8428 201.53 85.8 204.713C85.7177 205.912 84.147 206.614 84.0067 207.807C83.6326 210.983 84.7239 214.569 84.0226 217.684C83.2836 220.964 80.6466 223.28 79.6178 226.476C78.7268 229.243 78.9796 233.284 77.5416 235.019C75.1635 235.766 72.2034 237.44 70.3301 238.835C67.5928 240.871 65.8429 243.205 65.0014 243.279C63.9321 244.23 61.6701 243.595 60.3444 244.09C59.1218 244.544 59.0066 245.569 57.7175 245.402C56.6995 245.272 57.0168 244.426 56.2228 243.755C55.7606 243.362 54.8717 243.337 54.4294 243.755C51.7462 245.915 53.7475 245.349 50.7007 245.067C47.6056 244.782 41.5813 245.737 37.8135 244.965H37.8123ZM55.1513 232.544C55.8489 231.204 56.5464 229.863 57.2442 228.521C57.0444 224.087 56.8454 219.651 56.646 215.216C57.2442 214.39 57.8419 213.565 58.4396 212.739C58.4396 208.272 58.4396 203.804 58.4396 199.337C58.4396 197.305 58.1565 195.275 58.1565 193.244C56.0581 191.509 57.0615 191.534 58.7542 189.531C58.7542 187.572 59.2268 185.991 59.2268 184.03C59.0271 182.38 58.828 180.73 58.6286 179.079C58.9279 178.255 59.2268 177.429 59.5256 176.604C59.5256 174.122 59.8087 172.114 59.8087 169.631C59.8087 167.301 59.8762 166.52 60.3023 166.666C60.7284 166.812 61.5137 167.886 62.9474 169.264C64.0368 170.312 65.1268 171.36 66.2165 172.407C68.2295 174.342 70.1896 174.518 69.3738 177.687C68.6114 180.652 70.8026 181.475 70.1216 184.418C69.6014 186.665 68.9175 188.039 69.069 189.433C69.1594 190.269 69.5512 191.111 70.4577 192.154C71.2957 193.117 71.5749 193.057 71.0741 194.243C70.2974 196.08 69.6354 197.151 69.5577 198.254C69.4576 199.671 70.2297 200.323 70.9069 202.826C71.461 204.874 71.4091 206.232 70.8963 208.286C70.2891 210.722 69.6819 213.158 69.0745 215.595C69.0061 217.437 68.8383 219.281 68.7074 221.126C68.5094 223.936 68.1349 224.008 66.1811 226.016C64.4062 227.841 62.1218 229.402 60.4094 231.033C58.5164 231.755 57.0437 231.822 55.1506 232.544H55.1513ZM59.7246 154.358C61.2412 154.402 61.9194 154.552 62.3895 154.359C62.8599 154.164 63.1225 153.626 63.8085 152.296C64.6944 150.575 66.0065 148.426 67.0948 148.264C68.9283 147.992 69.8848 147.719 69.8848 147.719C69.8848 147.719 70.8443 147.537 70.5161 145.173C70.1876 142.808 69.511 140.534 70.1073 139.898C70.7031 139.261 70.829 137.442 70.1947 136.715C69.561 135.988 68.9582 135.26 69.9824 134.259C71.0064 133.259 71.7124 131.584 69.2654 131.857C66.8186 132.13 66.8489 131.071 66.5662 130.343C66.2831 129.616 63.6142 129.782 62.2187 129.702C60.8246 129.975 59.6522 129.884 59.6924 131.339C59.7331 132.793 59.4986 139.807 59.5187 140.535C59.5388 141.262 59.7246 154.357 59.7246 154.357V154.358ZM137.124 218.198C137.015 218.816 135.596 218.82 135.705 219.44C135.857 220.305 135.914 221.656 136.785 221.769C139.313 222.096 142.778 221.091 145.285 221.554C146.275 221.737 146.329 223.425 147.236 223.86C147.982 223.847 149.13 223.874 150.075 223.86C150.803 223.481 150.607 222.146 151.317 221.732C152.191 221.221 153.383 221.027 154.333 221.376C154.844 221.564 154.147 222.909 154.688 222.974C159.11 222.806 163.06 223.291 167.244 222.974C168.079 222.836 167.228 221.64 167.912 221.143C168.69 220.578 170.62 221.564 170.751 220.611C171.43 215.684 170.37 210.183 170.833 205.232C170.981 203.647 172.501 202.707 172.842 201.152C172.955 200.634 173.576 200.624 173.625 200.114C173.797 198.337 173.766 196.182 173.316 194.433C172.72 193.822 170.898 193.599 170.3 193.878C169.627 194.374 170.239 196.134 169.787 196.837C169.563 197.185 168.767 196.488 168.545 196.837C168.327 197.18 168.609 197.743 168.709 198.189C168.769 198.455 168.763 198.68 168.545 198.789C167.382 199.371 165.669 197.99 164.642 198.789C163.635 199.572 164.766 201.089 163.913 202.039C162.532 203.578 159.571 204.48 158.195 206.025C156.559 207.861 156.705 209.736 154.825 211.321C153.353 212.561 150.852 212.691 149.068 213.415C147.001 214.256 146.013 215.804 143.866 216.408C143.217 216.592 142.425 215.457 142.624 214.812C144.233 209.596 146.324 204.352 148.061 199.177C149.175 195.857 149.698 193.763 150.902 190.473C152.148 187.07 153.776 182.862 155.81 179.862C156.21 179.271 157.547 179.657 157.761 178.975C158.293 177.282 157.298 175.365 157.761 173.652C158.104 172.385 159.438 171.169 160.543 170.459C161.288 169.979 162.479 170.648 162.808 169.824C163.577 167.902 162.859 165.866 163.343 163.853C163.67 162.497 164.601 161.666 165.194 160.403C165.98 158.726 165.923 157.271 166.79 155.635C167.497 154.304 168.983 152.441 169.411 150.996C169.999 149.011 169.517 148.037 169.709 145.975C169.76 145.42 170.573 145.113 170.596 144.556C170.871 137.88 171.224 131.18 170.833 124.509C170.801 123.965 169.58 123.988 169.591 123.444C169.633 121.405 169.88 119.604 169.768 117.767C169.747 117.408 169.871 117.114 169.512 117.099C163.956 116.866 158.473 116.992 152.914 117.057C148.36 117.11 143.795 116.745 139.253 117.057C138.565 117.104 137.949 117.223 137.479 117.725C137.027 118.207 136.803 119.236 136.829 119.896C136.949 122.861 136.769 126.088 136.829 129.654C136.84 130.314 138.141 129.919 138.366 130.541C138.991 132.273 139.039 134.205 138.898 136.04C138.853 136.63 138.136 137.424 138.15 138.015C138.435 140.067 138.701 141.518 139.075 143.492C139.291 144.255 139.948 144.852 140.14 145.621C140.369 146.54 139.531 148.398 140.476 148.459C140.79 148.479 141.885 148.663 142.446 148.459C143.168 148.198 142.181 146.874 142.446 146.153C142.634 145.642 143.602 145.626 143.688 145.089C144.157 142.167 143.342 138.744 143.806 135.821C143.947 134.931 144.457 133.99 145.225 133.515C145.878 133.111 147.059 134.122 147.531 133.515C148.185 132.674 147.542 131.704 147.946 130.718C148.525 129.307 149.467 128.006 150.607 126.992C151.655 126.061 152.702 124.947 154.096 124.802C157.211 124.479 160.937 124.769 165.155 124.587C165.551 124.57 165.657 125.178 165.688 125.573C165.837 127.519 166.191 130.162 165.688 131.428C164.957 133.265 163.304 135.315 161.626 137.223C160.479 138.527 159.318 139.682 158.433 140.989C157.371 142.557 158.957 144.695 158.414 146.508C157.857 148.363 156.338 150.335 155.16 151.872C154.194 153.133 152.774 153.779 151.869 155.084C150.738 156.714 150.079 158.319 149.365 160.169C148.772 161.707 148.389 163.331 148.124 164.959C147.914 166.245 148.528 167.698 147.946 168.862C147.52 169.715 146.558 169.558 145.937 170.281C145.077 171.286 144.573 172.573 144.163 173.83C143.678 175.319 143.638 176.201 142.88 177.57C142.03 179.107 140.324 180.592 139.55 182.168C138.707 183.888 138.61 185.977 138.188 187.846C137.781 189.652 137.44 191.354 137.066 193.168C136.609 195.388 136.133 197.644 136.179 199.91C136.193 200.599 136.923 201.074 137.244 201.684C137.515 202.199 138.137 202.728 137.954 203.281C137.702 204.035 136.292 204.09 136.179 204.877C136.063 205.69 136.27 206.441 136.867 207.007C137.386 207.497 138.446 207.283 138.819 207.893C139.22 208.55 139.148 209.505 138.819 210.199C138.545 210.778 137.585 210.637 137.46 211.265C136.949 213.817 137.576 215.635 137.124 218.198ZM290.948 243.341C290.615 242.284 291.446 242.078 291.999 241.526C292.808 240.72 293.59 239.932 293.911 238.343C294.032 237.741 294.649 236.767 294.791 235.801C295.001 234.392 294.68 232.923 294.296 232.012C293.793 230.82 292.966 230.198 293.266 229.06C293.372 228.332 295.017 228.243 296.313 227.667C296.993 227.365 297.576 226.775 297.793 226.22C298.077 225.489 297.133 225.614 296.652 224.686C296.139 223.698 296.063 222.218 295.669 221.482C294.98 220.199 293.72 218.478 293.675 217.021C293.551 213.135 294.677 209.212 294.821 205.473C294.943 202.338 295.685 201.591 295.445 198.378C295.327 196.779 294.467 195.615 293.579 193.982C292.845 192.628 291.88 191.288 291.51 190.012C290.853 187.74 291.513 185.047 291.115 182.715C291.038 182.259 289.892 181.7 289.85 181.238C289.554 178.037 289.915 174.76 289.709 171.594C289.604 170.999 289.121 170.885 289.065 170.283C288.897 168.509 289.063 166.781 289.058 165.247C289.052 163.893 288.866 162.737 288.866 161.164C288.866 160.577 288.379 160.176 288.36 159.589C288.242 156.128 288.386 152.306 288.341 148.84C288.291 145.149 288.066 141.813 288.36 138.138C288.411 137.518 289.663 137.533 289.639 136.913C289.523 134.097 289.279 132.977 289.345 130.144C289.352 129.817 290.021 129.058 290.048 128.732C290.243 126.376 290.535 124.017 289.935 122C289.501 120.54 288.406 120.085 287.148 119.142C286.038 118.31 284.8 116.957 283.773 116.199C282.459 115.227 281.583 114.446 280.588 112.992C279.989 112.117 280.977 112.04 282.08 112.008C283.496 111.967 285.043 112.09 286.391 112.301C286.847 112.373 287.705 113.159 288.136 113.326C289.176 113.729 289.856 113.206 290.92 113.538C291.732 113.792 295.123 115.559 296.035 116.085C297.282 116.804 297.686 117.848 298.987 118.458C299.222 118.567 303.243 119.719 303.71 119.835C304.799 120.107 305.475 119.311 306.564 119.583C307.829 119.898 310.078 120.535 311.498 120.961C312.298 121.2 312.803 122.145 313.623 122.308C317.595 123.101 316.885 121.777 320.031 124.922C320.958 125.849 322.488 126.594 323.179 127.708C324.155 129.279 324.257 131.206 324.877 132.919C325.36 134.251 326.438 135.345 326.693 136.76C327.382 140.569 326.663 144.53 327.13 148.372C327.273 149.545 328.48 150.783 328.606 151.959C329.087 156.46 329.168 160.904 328.62 165.397C328.435 166.911 327.16 167.527 326.933 169.036C326.554 171.567 327.31 174.158 327.13 176.711C327.046 177.934 326.366 179.21 325.724 180.254C325.256 181.013 324.185 181.287 323.841 182.11C322.938 184.27 323.165 187.222 322.746 189.563C322.615 194.029 322.707 197.494 322.899 201.958C323.035 205.104 323.357 207.928 322.955 211.051C322.814 212.133 321.909 212.727 321.747 213.807C321.299 216.791 321.683 219.856 321.395 222.859C321.345 223.37 320.588 223.962 320.48 224.464C320.279 227.208 320.087 231.214 318.891 234.304C318.104 236.342 316.189 238.396 314.35 239.576C312.569 240.72 310.654 240.966 308.602 241.49C307.306 241.819 305.854 241.66 304.667 242.275C303.955 242.645 304.432 242.65 303.782 243.115C303.407 243.381 302.759 243.404 302.405 243.115C301.905 242.705 302.06 242.538 301.477 242.261C300.587 241.84 299.428 241.873 298.524 242.261C297.872 242.541 298.11 243.05 297.413 243.186C296.005 243.461 294.356 243.816 292.834 243.776C291.924 243.753 291.205 244.164 290.948 243.341ZM304.158 142.276C306.134 142.172 306.522 142.064 308.281 143.01C310.101 143.985 310.482 144.629 311.593 146.392C312.167 146.945 312.74 147.499 313.312 148.052C315.65 150.308 316.753 153.492 317.708 156.476C317.864 159.716 318.56 165.391 316.943 168.331C316.136 169.798 315.817 170.93 315.68 172.176C315.298 175.659 314.31 175.115 313.304 177.753C313.031 178.469 313.091 179.359 313.066 181.058C312.978 187.122 312.888 193.188 312.8 199.252C312.743 203.127 312.014 204.976 310.448 208.554C309.529 210.264 309.046 211.367 309.046 213.308C309.046 215.609 308.576 216.669 307.661 218.765C307.105 220.041 306.546 221.318 305.99 222.595C305.329 224.108 304.723 224.651 304.284 224.448C303.846 224.247 303.575 223.298 303.582 221.829C303.62 214.425 303.659 207.023 303.698 199.619C303.782 191.748 303.867 183.876 303.952 176.005C303.853 174.315 303.916 173.94 302.807 172.687C302.703 170.138 302.211 168.986 301.404 166.56C300.386 164.647 300.502 163.251 300.478 161.065C300.414 155.594 300.349 150.123 300.286 144.652C300.247 141.295 301.006 142.443 304.158 142.276ZM175.148 236.395C174.539 233.418 174.965 231.052 175.124 228.813C175.2 228.28 176.277 228.778 176.57 228.327C177.006 227.652 177.401 226.728 177.112 225.977C176.939 225.528 176.633 226.148 176.374 225.741C176.017 225.181 176.143 224.275 176.555 223.754C177.156 222.991 178.359 223.189 178.77 222.308C179.331 221.106 178.369 219.595 178.77 218.332C178.898 217.93 179.936 218.742 180.035 218.332C180.503 216.4 179.921 214.335 180.216 212.369C180.293 211.856 180.745 211.619 180.805 211.104C181.055 208.95 181.186 206.734 180.805 204.599C180.568 203.273 179.497 202.319 179.312 200.984C178.642 196.146 178.439 190.878 179.061 186.033C179.545 182.271 181.943 176.454 183.351 172.933C184.232 170.73 184.664 171.417 185.456 169.18C185.698 168.496 185.866 167.7 185.637 167.011C185.352 166.154 184.34 165.499 184.483 164.607C184.657 163.514 186.001 163.542 186.36 162.494C186.847 161.069 185.866 159.399 186.36 157.976C186.94 156.303 188.941 155.341 189.432 153.639C189.9 152.015 189.398 149.42 189.857 147.793C190.764 144.578 191.853 142.501 193.408 139.544C194.325 137.798 195.92 136.323 196.637 134.484C197.328 132.713 197.257 130.368 197.564 128.882C196.434 127.471 193.843 129.441 192.143 128.827C191.28 128.516 191.283 127.105 190.429 126.769C188.6 126.645 186.852 126.603 185.55 127.579C183.804 128.889 183.79 130.424 183.107 132.496C182.087 135.593 182.865 139.073 181.591 142.074C181.088 143.261 179.034 143.594 178.047 144.423C177.525 144.861 177.283 145.318 176.602 145.318C175.92 145.318 175.326 145.083 175.156 144.423C174.81 143.082 175.223 141.651 175.156 140.267C175.103 139.178 174.52 138.07 174.795 137.014C174.938 136.464 176.196 136.677 176.24 136.111C176.781 129.902 176.038 123.733 176.133 117.8C176.166 115.717 176.719 116.026 178.769 116.005C182.223 115.97 187.698 115.996 191.668 115.976C198.633 115.941 205.616 115.681 212.562 115.872C213.596 115.946 214.942 116.33 215.014 117.364C215.16 119.454 213.76 121.47 212.791 123.327C212.278 124.309 211.133 124.951 210.756 125.991C210.115 127.754 210.811 129.843 210.134 131.593C209.72 132.667 207.615 132.865 207.212 133.942C206.639 135.466 207.628 137.307 207.03 138.821C206.734 139.573 205.131 139.144 204.862 139.905C203.953 142.484 204.487 145.397 203.779 148.037C203.386 149.495 202.281 150.517 202.082 152.013C201.54 156.073 202.434 160.22 202.082 164.301C202.005 165.187 201.069 165.798 200.816 166.65C200.22 168.654 199.845 170.819 199.158 172.794C198.862 173.647 197.763 174.089 197.532 174.963C197.193 176.244 198.043 177.716 197.532 178.938C196.889 180.475 194.625 181.103 194.279 182.733C193.304 187.332 194.848 192.182 194.13 196.828C193.809 198.907 191.976 200.541 191.6 202.611C191.116 205.277 191.951 208.43 191.286 211.057C190.645 213.593 188.806 215.792 187.884 218.239C187.668 220.64 184.791 222.843 186.36 224.658C188.252 224.908 191.392 225.294 193.588 224.295C194.599 223.837 193.428 221.716 194.311 221.043C197.009 218.982 200.106 218.239 203.134 216.706C204.865 215.829 207.043 214.992 208.588 213.815C209.372 213.216 209.461 211.795 210.393 211.465C210.955 211.266 211.071 212.63 211.658 212.73C213.677 213.074 215.428 212.211 217.41 212.73C218.202 212.938 218.178 214.004 218.384 214.797C218.569 215.506 218.889 216.271 218.495 216.886C218.257 217.256 217.395 216.843 217.228 217.249C216.885 218.084 217.018 219.081 217.228 219.958C217.394 220.641 218.019 221.066 218.077 221.765C218.387 225.428 218.489 229.137 218.077 232.789C217.991 233.555 217.556 234.359 216.789 234.438C211.577 234.198 206.759 234.581 201.54 234.596C201.002 234.549 201.311 233.598 200.816 233.386C199.47 232.809 197.043 232.729 195.614 233.057C193.953 233.437 193.814 234.804 192.143 235.137C189.13 235.74 185.649 235.15 182.612 235.609C181.538 235.771 180.718 236.682 179.665 236.945C178.204 237.309 175.9 237.699 175.148 236.395ZM94.6545 244.882C92.4011 245.673 89.7722 244.884 87.3838 244.935C86.6477 244.951 85.4495 245.529 84.7424 245.321C83.9705 245.095 82.7541 243.565 83.2366 242.92C85.1216 240.406 88.8378 240.093 90.5589 237.466C91.5711 235.921 90.623 233.841 91.0579 232.046C91.1914 231.494 92.1575 231.545 92.4432 231.056C92.6754 230.658 92.7436 230.022 92.4432 229.671C91.7569 228.87 91.3223 230.55 91.0516 228.151C90.8092 226.005 90.7583 223.826 90.9573 221.682C91.0824 220.317 92.0749 220.606 92.2625 219.886C92.6118 218.545 91.885 217.552 92.2448 216.213C92.4062 215.612 93.5197 215.764 93.8281 215.223C94.1221 214.708 94.157 213.937 93.8281 213.442C93.154 212.431 91.3216 212.447 91.1174 211.249C90.7419 209.045 90.9431 206.679 90.9818 204.493C91.0232 202.164 90.8633 199.829 91.0576 197.456C91.0933 197.016 92.0898 197.035 92.2448 196.621C92.5455 195.819 92.3553 194.899 92.2448 194.048C92.1564 193.366 92.3661 191.971 92.3137 191.285C92.2336 190.231 91.7807 189.839 92.2706 188.903C92.6121 188.25 93.7256 188.643 93.8281 187.913C94.3695 184.059 93.2139 180.108 93.6301 176.238C93.7008 175.582 94.7331 175.686 94.9066 175.05C95.1859 174.024 95.2723 172.845 94.8176 171.884C94.6032 171.43 93.5917 171.428 93.5526 170.928C93.1082 165.272 93.8815 159.926 93.4323 154.271C93.3902 153.741 92.0895 154.484 92.0653 152.185C92.0386 149.777 91.8166 147.531 91.8492 145.761C91.8744 144.402 94.8055 144.366 94.7745 143.007C94.7272 140.937 95.0535 138.601 94.5765 136.477C94.4232 135.794 93.5322 135.907 93.2345 135.272C92.9542 134.676 93.2187 134.082 93.4751 133.474C93.7831 132.743 94.6198 132.281 94.8176 131.512C95.1798 130.107 95.1435 128.573 94.8176 127.158C94.7109 126.696 93.9122 126.243 93.6902 125.824C93.2791 125.046 93.4649 124.36 92.9158 123.673C92.5364 123.199 91.416 123.491 90.9543 123.096C89.7662 122.082 89.0811 120.954 88.0846 120.03C87.1478 119.162 85.8851 118.508 85.1634 117.23C84.6996 116.409 85.2398 114.989 85.9894 114.416C86.5651 113.976 87.4668 114.075 88.1062 114.416C88.6261 114.693 88.6159 115.797 89.1989 115.878C91.7497 116.233 94.2814 115.111 96.7966 115.663C97.893 115.905 97.9514 117.289 98.9735 117.753C99.6571 118.064 100.89 117.463 101.512 117.884C102.425 118.501 103.2 119.814 103.92 120.547C104.845 121.49 105.643 121.909 106.115 123.244C106.712 124.929 106.45 126.658 106.424 128.411C106.401 129.958 106.653 131.524 106.511 133.095C106.463 133.624 105.448 133.375 105.306 133.887C105.057 134.785 105.235 135.791 105.702 136.597C106.042 137.184 106.961 136.885 107.182 137.526C107.698 139.024 107.764 140.86 107.38 142.397C107.237 142.969 106.133 142.6 106.098 143.188C105.654 150.629 105.543 158.135 106.296 165.551C106.424 166.811 108.416 167.26 108.55 168.519C109.297 175.538 108.617 182.643 108.327 189.695C108.286 190.698 107.789 191.958 107.38 192.707C106.923 193.543 107.207 194.379 107.224 195.302C107.246 196.489 107.104 197.784 107.285 198.996C107.388 199.688 108.796 200.347 108.748 201.045C108.615 202.969 108.888 203.878 109.006 205.775C109.063 206.688 107.4 207.259 106.872 208.006C106.493 208.543 106.262 209.584 106.571 210.165C106.863 210.713 107.387 210.435 107.552 211.034C107.787 211.881 107.806 212.596 107.38 213.366C107.105 213.861 106.091 213.796 105.995 214.354C105.725 215.92 106.614 217.532 106.391 219.105C106.324 219.576 105.273 219.426 105.203 219.896C104.851 222.244 105.601 224.679 105.203 227.02C105.053 227.904 103.683 228.302 103.62 229.197C103.584 229.698 104.769 229.349 105.005 229.791C105.379 230.492 104.441 231.944 105.203 232.166C107.735 232.907 110.869 232.715 113.42 232.046C114.865 231.665 115.477 229.639 116.965 229.499C118.758 229.329 120.081 230.513 121.853 230.83C124.189 231.251 126.745 231.327 129.037 230.71C130.39 230.346 131.176 228.91 132.565 228.725C138.579 227.917 144.16 228.413 150.229 228.382C155.967 228.35 163.307 228.061 167.567 228.526C169.997 228.607 167.362 237.202 168.238 241.741C168.429 242.73 169.273 243.283 169.781 244.197C170.59 245.656 170.904 246.397 168.802 246.388C164.85 246.369 160.851 246.674 156.562 246.492C155.72 246.457 155.76 244.833 154.979 244.512C154.123 244.162 153.108 244.928 152.208 244.711C150.861 244.385 149.342 243.094 147.967 242.93C144.299 242.49 140.603 243.41 136.945 242.904C136.114 242.79 136 241.183 135.164 241.121C126.611 240.496 118.417 241.394 109.856 240.928C108.022 240.827 107.855 240.188 106.691 239.849C105.044 239.374 102.099 239.184 100.548 239.911C97.6569 241.264 97.6661 243.824 94.6541 244.882H94.6545ZM197.604 211.444C195.818 211.391 195.699 208.522 195.841 206.762C195.986 204.962 198.337 205.056 199.176 203.457C199.787 202.293 198.871 200.246 199.568 199.131C200.319 197.93 202.353 197.974 203.104 196.774C203.534 196.087 202.892 194.771 202.912 193.962C202.959 192.046 203.389 190.634 203.301 188.72C203.255 187.724 202.841 185.925 203.03 184.947C203.289 183.609 204.085 183.934 204.48 182.63C204.971 181 204.154 179.144 204.675 177.523C204.883 176.882 206.564 177.204 206.444 176.541C206.298 175.734 204.827 176.168 204.68 175.362C204.235 172.907 204.21 170.018 204.872 167.613C205.286 166.109 206.993 164.958 207.427 163.457C207.879 161.886 206.921 160.103 207.427 158.546C207.768 157.49 209.514 157.267 209.784 156.189C210.418 153.648 209.852 150.531 210.513 147.996C210.86 146.666 211.554 145.159 212.405 144.325C212.916 143.825 213.376 143.461 213.615 142.673C213.943 141.592 213.138 140.684 213.323 139.57C213.486 138.585 214.239 137.952 214.716 137.076C215.32 135.969 215.572 134.567 216.152 133.449C216.997 131.814 218.135 130.446 218.741 128.707C219.194 127.41 218.222 125.295 218.801 124.048C219.622 122.284 221.743 122.327 222.552 120.556C223.205 119.126 222.062 117.257 222.749 115.842C223.247 114.811 224.373 114.356 225.516 114.311C226.355 114.278 227.373 114.858 227.658 115.645C228.22 117.188 227.713 119.042 228.349 120.556C229.464 123.219 231.398 124.788 232.471 127.469C233.029 128.867 232.425 130.876 232.767 132.343C233.232 134.336 233.558 136.346 234.217 138.287C235.034 140.704 236.205 143.049 236.892 145.504C237.5 147.678 237.646 150.037 238.115 152.25C238.458 153.864 239.086 155.347 239.642 156.897C239.88 157.563 240.685 157.394 240.877 158.076C241.213 159.28 240.202 160.59 240.484 161.808C240.819 163.264 242.387 164.739 242.644 166.211C243.063 168.597 242.626 170.879 242.684 173.301C242.737 175.515 242.972 177.57 243.262 179.692C243.442 180.998 244.164 182.86 244.198 183.809C244.319 187.344 244.476 190.825 244.515 194.365C244.575 199.537 244.575 205.067 244.316 210.231C244.286 210.833 243.567 211.141 243.356 211.707C242.554 213.847 241.883 215.031 241.369 217.259C241.097 218.434 241.088 219.699 240.583 220.795C240.273 221.468 238.89 222.019 238.656 222.722C238.136 224.286 238.774 225.859 238.659 227.811C238.562 229.491 237.867 230.457 237.167 232.019C236.688 233.087 235.909 234.752 235.614 235.865C235.291 237.073 235.871 238.398 235.517 239.598C235.33 240.225 234.474 240.528 234.338 241.169C233.998 242.77 234.632 244.518 234.141 246.078C233.864 246.963 233.672 246.834 232.828 247.215C232.23 247.482 230.658 247.787 230.568 247.135C230.188 244.401 230.958 242.502 230.524 239.774C230.017 236.582 228.682 234.641 227.877 231.508C227.486 229.988 228.185 227.24 227.463 225.847C226.163 223.337 222 222.322 222.182 219.502C222.356 216.773 223.987 214.997 225.648 212.778C226.783 211.258 227.521 208.776 228.227 207.044C228.747 205.767 229.05 204.271 229.073 203.012C229.108 201.132 228.599 200.313 227.176 199.144C224.202 196.701 219.397 194.467 215.696 192.667C215.153 192.403 214.517 193.439 214.517 194.042C214.517 194.646 215.223 195.115 215.294 195.714C215.5 197.474 214.434 199.3 215.197 200.899C216.002 202.588 219.178 203.08 218.708 204.89C218.391 206.102 218.093 206.53 217.064 207.121C216.441 207.481 215.748 207.456 215.019 207.49C212.831 207.59 210.582 206.815 208.468 207.262C206.173 207.749 204.119 208.809 201.998 209.866C200.594 210.567 199.158 211.492 197.604 211.444ZM216.953 183.981C216.934 182.248 216.892 180.543 216.895 178.839C216.899 177.334 216.936 175.829 217.054 174.306C217.131 173.317 218.037 172.562 218.153 171.577C218.348 169.948 217.348 167.993 217.804 166.427C217.987 165.791 219.599 166.428 219.964 165.894C220.084 165.719 220.328 164.699 220.735 163.83C220.98 163.308 221.489 162.84 221.489 162.64C221.489 162.349 221.47 160.281 221.688 158.489C221.815 157.449 221.975 156.571 222.134 156.564C222.291 156.557 222.449 157.419 223.001 158.137C223.635 158.962 223.85 159.781 224.405 160.653C224.732 161.169 225.085 161.775 225.625 161.985C226.314 162.253 227.139 161.876 227.824 162.153C228.336 162.359 228.462 163.164 228.923 163.484C229.235 163.701 229.95 163.288 230.022 163.684C230.348 165.467 230.066 167.854 230.35 169.646C230.419 170.076 231.368 169.876 231.389 170.312C231.534 173.432 231.606 176.557 231.595 179.683C231.587 182.44 231.514 185.199 231.372 187.955C231.333 188.74 229.258 188.795 228.678 188.354C227.558 187.5 226.848 186.51 225.382 186.157C224.771 186.01 224.801 185.042 224.221 184.849C222.936 184.421 221.313 184.314 219.969 184.314C219.092 184.314 217.825 184.624 216.953 184.514C216.793 184.494 216.955 184.157 216.953 183.981ZM258.671 130.2C258.674 131.995 258.866 133.94 258.871 135.82C258.88 138.239 258.704 140.407 258.713 142.845C258.722 145.442 258.915 148.31 258.915 150.85C258.915 152.914 258.538 156.882 258.699 158.596C258.903 160.801 259.025 161.182 262.039 161.182C263.497 161.182 265.474 159.686 266.931 158.174C267.928 157.14 267.778 155.353 268.16 154.58C268.724 153.444 269.687 152.405 269.888 151.087C270.145 149.39 269.525 147.99 270.656 146.905C271.102 146.476 271.523 141.606 271.523 140.534C271.523 139.006 269.918 136.741 268.074 134.714C266.812 133.327 265.299 132.083 264.655 131.133C263.473 129.393 262.588 128.63 261.188 128.317C258.63 127.746 258.669 127.981 258.671 130.2ZM245.166 225.794C244.689 227.679 246.141 228.449 247.858 229.558C249.572 230.668 251.556 232.12 253.423 233.651C256.583 236.24 258.734 240.966 260.79 245.62C261.848 244.495 261.102 239.249 261.695 236.106C261.822 235.433 262.548 234.947 262.616 234.265C262.86 231.822 262.919 229.336 262.616 226.9C262.502 225.991 261.623 225.327 261.389 224.445C261.204 223.752 261.248 222.997 261.389 222.295C261.56 221.439 262.231 220.71 262.308 219.84C262.541 217.293 262.692 214.696 262.308 212.168C262.164 211.214 260.702 210.674 260.774 209.713C260.836 208.916 262.557 208.975 262.616 208.178C262.784 205.897 261.993 203.695 261.711 201.426C261.073 196.325 260.702 191.194 260.175 186.08C259.986 184.238 259.25 182.382 259.562 180.556C260.522 178.065 261.399 175.507 262.324 173.497C262.775 172.905 263.37 174.062 263.828 174.648C265.324 176.558 267.311 178.922 267.741 181.309C268.268 184.235 266.682 186.824 267.02 189.779C267.119 190.641 268.447 190.486 268.754 191.298C270.219 195.176 271.41 199.185 272.131 203.267C272.952 207.919 273.216 212.663 273.358 217.386C273.42 219.44 273.332 221.554 272.744 223.523C271.905 226.337 270.158 228.579 269.291 231.297C268.384 234.14 268.091 234.989 271.1 234.988C272.291 234.986 273.681 235.033 274.6 235.493C277.063 236.724 278.079 239.564 280.417 241.017C280.923 241.331 281.583 241.766 282.279 242.155C285.594 244.012 285.959 242.73 286.649 239.827C287.56 235.988 287.791 232.527 288.381 228.741C288.682 226.821 288.619 224.852 288.703 222.91C288.823 220.143 289.031 217.39 288.888 214.622C288.823 213.331 288.83 211.918 287.983 210.94C287.347 210.206 285.471 210.956 285.221 210.019C284.877 208.735 286.73 207.666 286.755 206.336C286.248 202.748 285.783 199.537 285.723 196C285.654 191.831 284.761 193.929 283.378 192.295C282.543 191.308 282.283 190.437 282.152 189.15C281.766 185.382 282.312 181.214 281.736 177.472C281.479 175.798 280.697 174.148 279.589 172.868C279.188 172.404 278.451 173.094 278.176 172.545C277.717 171.626 279.129 170.997 278.59 170.121C277.338 168.087 274.717 166.535 272.73 165.211C272.134 164.814 271.086 165.717 270.58 165.211C270.075 164.704 270.087 163.15 270.58 162.632C274.119 162.12 275.941 160.454 277.669 158.459C280.014 155.754 281.16 152.739 282.335 149.359C282.878 147.801 282.184 145.98 282.365 144.341C282.702 141.308 284.292 138.553 283.762 135.548C282.992 131.177 280.838 127.26 278.361 123.578C276.986 121.534 274.849 119.722 272.622 118.668C270.764 117.788 269.208 118.524 267.235 117.947C264.951 117.278 263.12 116 260.79 115.523C258.975 115.151 257.071 115.908 255.265 115.491C254.138 115.231 253.955 113.964 252.81 113.788C252.021 113.667 251.214 114.81 250.418 114.878C244.913 115.344 240.394 114.278 234.916 115C234.099 115.108 234.331 116.02 235.009 116.489C236.022 117.19 237.562 116.844 238.693 117.333C240.722 118.212 242.283 119.395 243.787 121.016C245.033 122.357 245.54 123.848 246.671 125.926C247.136 126.778 248.473 125.143 249.435 125.006C250.648 124.832 251.492 124.8 252.258 125.758C252.947 126.617 251.522 127.763 250.71 128.504C249.067 130.002 247.948 130.796 246.495 131.79C245.501 132.471 243.741 133.082 243.003 134.412C241.365 137.363 243.308 140.718 243.939 144.034C244.169 145.243 244.434 146.426 244.708 147.625C245.6 151.525 245.3 154.771 245.843 158.734C246.019 160.016 246.928 161.132 247.071 162.417C247.24 163.945 246.965 165.071 247.194 166.591C247.289 167.238 247.819 167.925 247.992 168.556C248.757 171.362 249.429 174.887 249.526 177.794C249.84 187.303 249.276 196.619 249.755 206.123C249.799 206.988 251.098 207.329 251.276 208.178C251.552 209.494 250.675 211.006 250.233 212.276C248.417 217.476 246.287 221.367 245.166 225.794Z" fill="white"/>
</svg>
