<svg width="360" height="360" viewBox="0 0 360 360" fill="none" xmlns="http://www.w3.org/2000/svg">
<rect width="360" height="360" rx="82" fill="#1F356E"/>
<path d="M288 73H73V288H288V73Z" stroke="white" stroke-width="6" stroke-miterlimit="10"/>
<path d="M133.328 112L155.175 250.591H137.84L134.1 221.264H112.134L108.335 250.591H91L112.758 112H133.328ZM131.131 198.378L123.147 136.044H122.909L114.954 198.378H131.131Z" fill="white"/>
<path d="M205.928 146.171L190.315 250.596H171.822L155.764 146.171H172.416L181.321 220.884H181.588L190.048 146.171H205.928Z" fill="white"/>
<path d="M243.924 112.001C247.153 111.974 250.358 112.569 253.363 113.752C256.347 115.005 258.926 117.059 260.813 119.689C263.139 122.952 264.794 126.645 265.681 130.553C266.937 136.032 267.515 141.644 267.403 147.264C267.559 153.833 266.502 160.373 264.286 166.558C263.521 168.916 262.299 171.099 260.69 172.984C259.08 174.868 257.115 176.417 254.906 177.541V177.927C257.381 178.603 259.663 179.85 261.57 181.566C263.477 183.282 264.956 185.421 265.889 187.811C268.883 194.858 270.272 202.483 269.955 210.133C269.966 215.334 269.539 220.527 268.679 225.657C267.968 230.174 266.503 234.538 264.345 238.569C262.434 242.133 259.696 245.187 256.361 247.474C252.719 249.777 248.467 250.926 244.161 250.769H216.021V112.001H243.924ZM237.453 168.874C239.352 169.04 241.263 168.746 243.025 168.018C244.787 167.289 246.347 166.147 247.575 164.688C249.682 161.928 250.751 157.238 250.751 150.618C250.751 143.999 249.801 139.369 247.782 136.638C246.718 135.251 245.325 134.153 243.728 133.443C242.131 132.732 240.382 132.433 238.64 132.571H232.703V168.874H237.453ZM239.204 230.021C241.06 230.084 242.904 229.712 244.59 228.934C246.276 228.155 247.755 226.992 248.91 225.538C251.364 222.57 252.591 217.069 252.591 209.035C252.659 205.683 252.33 202.335 251.611 199.061C251.119 196.784 250.225 194.613 248.97 192.65C247.992 191.148 246.6 189.962 244.962 189.236C243.348 188.594 241.624 188.272 239.887 188.286H232.733V230.021H239.204Z" fill="white"/>
</svg>
