<svg width="360" height="360" viewBox="0 0 360 360" fill="none" xmlns="http://www.w3.org/2000/svg">
<rect width="360" height="360" rx="82" fill="#FD1C48" fill-opacity="0.15"/>
<path d="M180 334.981C265.604 334.981 335 265.59 335 179.991C335 94.3917 265.604 25 180 25C94.3959 25 25 94.3917 25 179.991C25 265.59 94.3959 334.981 180 334.981Z" fill="#CC092F"/>
<path d="M316.571 221.864C298.843 214.799 282.614 217.167 266.347 227.028C266.347 227.028 260.418 230.646 258.643 231.763C251.063 236.518 243.913 241.023 237.039 241.023C230.481 241.023 224.027 239.267 221.297 226.58C217.039 206.79 206.653 158.16 202.118 134.074C199.455 119.917 197.994 112.289 196.476 107.105C193.803 97.9979 188.915 93.0432 181.975 92.2509C181.975 92.2509 180.887 92.0981 179.999 92.0981C179.12 92.0981 177.918 92.27 177.918 92.27C171.044 93.091 166.185 98.0456 163.531 107.105C162.013 112.289 160.553 119.917 157.889 134.074C153.355 158.16 142.968 206.79 138.71 226.58C135.98 239.267 129.526 241.023 122.968 241.023C116.095 241.023 108.944 236.518 101.364 231.763C99.5887 230.646 93.6507 227.028 93.6507 227.028C77.3931 217.167 61.1545 214.799 43.4362 221.864C39.608 223.391 35.8375 225.102 32.248 226.83C34.7015 234.524 37.7557 242.097 41.3166 249.209C45.2402 247.281 49.355 245.367 53.5555 244.126C59.6079 242.341 65.8132 242.245 71.8275 244.26C77.6699 246.217 82.8727 249.682 88.0565 252.937C97.8226 259.076 108.887 266.035 122.968 266.035C143.837 266.035 158.481 253.577 163.159 231.849C166.786 215.009 174.825 177.415 179.989 151.487C179.989 151.487 193.221 215.009 196.839 231.849C201.517 253.577 216.17 266.035 237.039 266.035C251.12 266.035 262.185 259.076 271.951 252.937C277.134 249.682 282.337 246.217 288.18 244.26C294.184 242.245 300.399 242.341 306.452 244.126C310.652 245.367 314.761 247.283 318.684 249.211C322.255 242.099 325.301 234.523 327.754 226.828C324.165 225.1 320.399 223.391 316.571 221.864Z" fill="white"/>
</svg>
