<svg width="360" height="360" viewBox="0 0 360 360" fill="none" xmlns="http://www.w3.org/2000/svg">
<rect width="360" height="360" rx="82" fill="black"/>
<path d="M180.083 224.628C180.083 224.628 168.241 210.117 161.236 202.278L151.396 225.462C165.573 246.477 174.913 264.657 180.083 273.33C190.09 256.318 214.608 205.948 265.145 158.747L259.474 145.57C226.617 169.921 198.597 200.944 180.083 224.628Z" fill="#059BD2"/>
<path d="M253.804 280.169H294L258.641 195.44C248.3 206.448 239.46 217.29 231.621 227.631L253.804 280.169Z" fill="#FC6600"/>
<path d="M197.596 50H197.429H162.404H162.237L66 280.168H106.196L175.747 116.048L179.083 107.208H180.917L184.253 116.048L204.935 164.75C214.108 155.577 224.115 146.57 234.623 138.064L197.596 50Z" fill="#FC6600"/>
</svg>
