<svg width="360" height="360" viewBox="0 0 360 360" fill="none" xmlns="http://www.w3.org/2000/svg">
<rect width="360" height="360" rx="82" fill="#E12A27"/>
<path d="M195.544 208.795L180.669 181.252L165.234 208.795H195.544ZM96.4506 271.066L231.636 271.139C228.232 268.811 223.964 259.706 223.964 259.706L97.3828 259.757C84.3956 258.842 82.6421 239.151 99.2017 239.594L212.852 239.665L206.357 227.912H95.6646C68.4205 229.104 67.4657 268.829 96.4506 271.066ZM284.154 238.602L215.482 114.847C215.325 120.392 210.138 128.441 210.138 128.441L273.824 243.257C279.317 255.083 262.88 266.214 255.244 251.493L198.993 149.158L192.183 161.185L246.885 260.19C261.137 283.476 296.247 265.075 284.154 238.602ZM162.447 85.7284L93.0117 210.788C97.7531 208.375 106.674 209.105 106.674 209.105L171.842 92.0746C178.984 81.176 197.085 89.3285 188.603 103.578L129.542 208.795H142.927L200.378 106.127C212.655 81.7378 178.566 61.5025 162.447 85.7284ZM302.963 234.636C316.192 261.623 294.591 290.654 271.681 290.757L92.324 290.775L91.5656 290.835C60.9935 290.654 46.6887 256.64 57.6806 236.246L149.2 71.8973C164.397 48.6312 199.33 50.0294 213.36 72.1668L300.164 229.401L302.963 234.636Z" fill="white"/>
</svg>
