<svg width="360" height="360" viewBox="0 0 360 360" fill="none" xmlns="http://www.w3.org/2000/svg">
<rect width="360" height="360" rx="82" fill="black"/>
<path d="M179.879 94.8759H142.935L61.8027 230.097C54.3172 215.126 50.2123 198.223 50.2123 180.355C50.2123 119.264 98.9883 69.5221 159.113 69.5221C201.853 69.5221 238.797 94.6345 256.665 130.854V226.958L179.879 94.8759ZM127.481 185.425L159.596 127.957L191.953 185.425H127.481ZM159.355 291.187C120.479 291.187 86.4321 270.421 67.1149 239.031H97.781L113.476 210.779H205.958L221.894 239.031H251.353C232.277 270.18 197.989 291.187 159.355 291.187ZM290.47 239.031V187.599C290.47 165.867 299.163 154.035 319.446 154.035C323.31 154.035 325 154.035 325 154.035V127.474C325 127.474 322.102 126.749 316.066 127.232C297.473 128.923 289.022 147.032 289.022 147.032V127.232H271.636C251.594 84.9759 208.614 56 159.355 56C90.537 56 35 111.779 35 180.355C35 248.931 90.537 304.951 159.355 304.951C206.682 304.951 247.973 278.39 268.98 239.272L290.47 239.031Z" fill="white"/>
</svg>
