<svg width="360" height="360" viewBox="0 0 360 360" fill="none" xmlns="http://www.w3.org/2000/svg">
<rect width="360" height="360" rx="82" fill="#005595"/>
<path d="M317.963 137.359V126.119C315.42 128.177 308.738 133.014 301.968 133.014C293.411 133.014 284.84 125.171 284.84 125.171C284.84 125.171 284.745 125.267 284.554 125.421V125.406C283.238 126.553 277.203 131.507 270.572 132.735H270.558C270.095 132.831 269.624 132.897 269.161 132.941H269.08C268.617 132.992 268.169 133.014 267.698 133.014C259.142 133.014 250.6 125.171 250.6 125.171H250.571C250.571 125.171 242.014 133.014 233.443 133.014C229.503 133.014 225.607 131.338 222.498 129.552C220.785 128.538 219.065 127.045 217.573 125.164C216.117 123.333 215.103 121.378 214.507 119.533H214.478L183.619 21.7152L148.864 131.199L34 130.419L127.385 197.334L91.1602 306.311L183.619 238.176L276.063 306.311L243.609 208.691C240.632 210.184 237.03 211.492 233.392 211.492C224.85 211.492 216.264 204.31 216.264 204.31C216.264 204.31 207.708 211.492 199.151 211.492C190.602 211.492 182.024 203.656 182.024 203.656C182.024 203.656 182.017 204.31 182.009 204.31V191.52C182.017 191.52 182.024 191.52 182.024 191.52C182.024 191.52 190.602 199.37 199.151 199.37C207.708 199.37 216.264 191.52 216.264 191.52C216.264 191.52 224.85 199.37 233.392 199.37C240.868 199.37 248.336 193.402 250.122 191.88V178.31C248.299 179.736 240.868 185.154 233.421 185.154C224.85 185.154 216.308 177.979 216.308 177.979C216.308 177.979 207.73 185.154 199.174 185.154C190.617 185.154 182.053 177.325 182.053 177.325C182.053 177.325 182.046 177.979 182.031 177.979V165.196C182.046 165.196 182.053 165.196 182.053 165.196C182.053 165.196 190.617 173.04 199.174 173.04C207.73 173.04 216.308 165.196 216.308 165.196C216.308 165.196 224.85 173.04 233.421 173.04C241.985 173.04 250.549 165.196 250.549 165.196L250.556 165.211V165.196C250.571 165.196 250.585 165.196 250.585 165.196C250.585 165.196 259.112 173.04 267.669 173.04C268.147 173.04 268.61 173.025 269.065 172.974C269.08 172.974 269.109 172.974 269.139 172.959C269.602 172.922 270.072 172.856 270.543 172.768C270.543 172.768 270.543 172.768 270.558 172.768C273.299 172.253 275.924 171.106 278.166 169.849L284.385 165.402V151.663C282.819 152.854 276.982 157.044 270.558 158.242C270.543 158.242 270.543 158.242 270.543 158.242C270.072 158.323 269.602 158.389 269.139 158.426C269.109 158.426 269.08 158.426 269.065 158.441C268.61 158.485 268.154 158.507 267.691 158.507H267.669C259.112 158.507 250.549 151.325 250.549 151.325C250.549 151.325 241.985 158.507 233.421 158.507C224.85 158.507 216.308 151.325 216.308 151.325C216.308 151.325 207.73 158.507 199.174 158.507C190.617 158.507 182.053 150.678 182.053 150.678C182.053 150.678 182.046 151.325 182.031 151.325V138.542C182.046 138.542 182.053 138.542 182.053 138.542V138.91C182.053 138.91 182.061 138.726 182.061 138.542C182.149 138.623 190.647 146.386 199.174 146.386C203.018 146.386 206.826 144.798 209.906 143.048C213.677 141.086 216.323 138.91 216.323 138.91C216.323 138.91 218.727 140.894 222.226 142.784C225.372 144.643 229.378 146.386 233.421 146.386C237.258 146.386 241.059 144.798 244.124 143.063C247.91 141.1 250.571 138.91 250.571 138.91C250.571 138.91 253.151 141.034 256.848 142.982C259.928 144.746 263.787 146.386 267.669 146.386C268.147 146.386 268.61 146.363 269.065 146.319C269.08 146.319 269.109 146.312 269.139 146.312C269.602 146.268 270.072 146.202 270.543 146.121C270.543 146.121 270.543 146.121 270.558 146.121C273.961 145.489 277.203 143.864 279.724 142.291C282.789 140.564 284.84 138.91 284.84 138.91C284.84 138.91 287.288 140.931 290.831 142.835C293.955 144.658 297.94 146.386 301.953 146.386C305.643 146.386 309.297 144.915 312.303 143.254C314.773 142.012 316.802 140.637 317.963 139.777V139.476C317.978 139.468 317.978 139.461 318 139.446V137.359H317.963Z" fill="white"/>
</svg>
