<svg width="360" height="360" viewBox="0 0 360 360" fill="none" xmlns="http://www.w3.org/2000/svg">
<rect width="360" height="360" rx="82" fill="#006FCF"/>
<path d="M290.232 171.376H312.343V120H288.281V127.154L283.728 120H262.918V129.105L259.016 120H220.646C219.345 120 218.045 120.65 216.744 120.65C215.443 120.65 214.793 121.301 213.492 121.951C212.192 122.601 211.541 122.601 210.241 123.252V120H100.334L97.0824 128.454L93.8307 120H67.8174V129.105L63.9154 120H43.1047L34 142.111V171.376H48.9577L51.559 164.223H56.7617L59.363 171.376H173.822V164.873L178.374 171.376H210.241V167.474C210.891 168.125 212.192 168.125 212.842 168.775C213.492 169.425 214.793 169.425 215.443 170.076C216.744 170.726 218.045 170.726 219.345 170.726H242.757L245.359 163.572H250.561L253.163 170.726H285.029V164.223L290.232 171.376ZM326 236.41V188.285H147.158L142.606 194.788L138.053 188.285H86.0267V239.661H138.053L142.606 233.158L147.158 239.661H179.675V228.606H178.374C182.927 228.606 186.829 227.955 190.08 226.655V240.312H213.492V233.808L218.045 240.312H314.944C318.846 239.011 322.748 238.361 326 236.41Z" fill="white"/>
<path d="M314.944 224.053H297.385V231.207H314.294C321.448 231.207 326 226.654 326 220.151C326 213.648 322.098 210.396 315.595 210.396H307.791C305.84 210.396 304.539 209.095 304.539 207.144C304.539 205.193 305.84 203.893 307.791 203.893H322.748L326 196.739H308.441C301.287 196.739 296.735 201.291 296.735 207.144C296.735 213.648 300.637 216.899 307.14 216.899H314.944C316.895 216.899 318.196 218.2 318.196 220.151C318.846 222.752 317.546 224.053 314.944 224.053ZM283.078 224.053H265.519V231.207H282.428C289.581 231.207 294.134 226.654 294.134 220.151C294.134 213.648 290.232 210.396 283.728 210.396H275.924C273.973 210.396 272.673 209.095 272.673 207.144C272.673 205.193 273.973 203.893 275.924 203.893H290.882L294.134 196.739H276.575C269.421 196.739 264.869 201.291 264.869 207.144C264.869 213.648 268.771 216.899 275.274 216.899H283.078C285.029 216.899 286.33 218.2 286.33 220.151C286.98 222.752 285.029 224.053 283.078 224.053ZM260.316 203.242V196.089H233.002V230.556H260.316V223.403H240.806V216.249H259.666V209.095H240.806V202.592H260.316V203.242ZM216.094 203.242C219.345 203.242 220.646 205.193 220.646 207.144C220.646 209.095 219.345 211.046 216.094 211.046H206.339V202.592L216.094 203.242ZM206.339 218.2H210.241L220.646 230.556H230.401L218.695 217.55C224.548 216.249 227.8 212.347 227.8 207.144C227.8 200.641 223.247 196.089 216.094 196.089H197.884V230.556H205.688L206.339 218.2ZM185.528 207.795C185.528 210.396 184.227 212.347 180.976 212.347H170.57V203.242H180.325C183.577 203.242 185.528 205.193 185.528 207.795ZM162.766 196.089V230.556H170.57V218.85H180.976C188.129 218.85 193.332 214.298 193.332 207.144C193.332 200.641 188.78 195.438 181.626 195.438L162.766 196.089ZM151.06 230.556H160.815L147.158 212.997L160.815 196.089H151.06L142.606 207.144L134.151 196.089H124.396L138.053 212.997L124.396 229.906H134.151L142.606 218.85L151.06 230.556ZM121.795 203.242V196.089H94.4811V230.556H121.795V223.403H102.285V216.249H121.145V209.095H102.285V202.592H121.795V203.242ZM279.826 142.111L293.483 162.922H303.238V128.454H295.434V151.216L293.483 147.964L281.127 128.454H270.722V162.922H278.526V139.51L279.826 142.111ZM246.009 141.461L248.61 134.307L251.212 141.461L254.463 149.265H242.757L246.009 141.461ZM259.666 162.922H268.12L253.163 128.454H242.757L227.8 162.922H236.254L239.506 155.768H256.414L259.666 162.922ZM223.247 162.922L226.499 155.768H224.548C218.695 155.768 215.443 151.866 215.443 146.013V145.363C215.443 139.51 218.695 135.608 224.548 135.608H233.002V128.454H223.898C213.492 128.454 207.639 135.608 207.639 145.363V146.013C207.639 156.418 213.492 162.922 223.247 162.922ZM193.982 162.922H201.786V129.104H193.982V162.922ZM177.074 135.608C180.325 135.608 181.626 137.559 181.626 139.51C181.626 141.461 180.325 143.412 177.074 143.412H167.318V134.957L177.074 135.608ZM167.318 150.565H171.22L181.626 162.922H191.381L179.675 149.915C185.528 148.614 188.78 144.712 188.78 139.51C188.78 133.006 184.227 128.454 177.074 128.454H158.864V162.922H166.668L167.318 150.565ZM153.011 135.608V128.454H125.697V162.922H153.011V155.768H133.501V148.614H152.361V141.461H133.501V134.957H153.011V135.608ZM93.8307 162.922H100.984L110.739 134.957V162.922H118.543V128.454H105.537L97.7327 151.866L89.9287 128.454H76.922V162.922H84.7261V134.957L93.8307 162.922ZM51.559 141.461L54.1604 134.307L56.7617 141.461L60.0134 149.265H48.3074L51.559 141.461ZM65.216 162.922H73.6704L58.7127 128.454H48.9577L34 162.922H42.4543L45.706 155.768H62.6147L65.216 162.922Z" fill="#006FCF"/>
</svg>
