<svg width="360" height="360" viewBox="0 0 360 360" fill="none" xmlns="http://www.w3.org/2000/svg">
<rect width="360" height="360" rx="82" fill="#2E2A25"/>
<path d="M247.065 110.349C281.011 110.349 297.411 121.919 297.411 139.845C297.411 185.742 188.582 249.31 109.63 249.31C88.271 249.31 59.1567 243.207 59.1567 219.814C59.1567 175.443 164.935 110.349 247.065 110.349ZM87.7625 262.914C184.259 262.914 325 180.529 325 127.513C325 107.806 304.785 97 272.365 97C176.377 97 35.0006 178.749 35.0006 232.401C34.8733 251.853 54.1983 262.914 87.7625 262.914Z" fill="#35A8D8"/>
<path d="M143.575 223.883L165.697 174.045L184.641 223.883H202.821L176.377 154.212L198.88 105.9H190.998L173.071 145.439L158.069 105.9H140.016L162.392 165.146L135.82 223.883H143.575ZM247.065 165.527C248.591 168.07 252.023 173.537 254.057 176.715C256.346 180.529 259.524 184.471 261.05 192.862C266.39 188.666 271.348 184.343 275.671 179.894C273.636 173.664 270.585 168.578 268.297 164.891C265.881 161.077 262.194 155.102 260.669 152.686C257.109 146.965 253.422 140.354 253.167 131.581C252.659 115.562 265.754 105.773 270.458 102.849L269.695 101.577C260.796 105.518 238.801 116.198 239.691 142.642C239.945 150.779 243.124 159.297 247.065 165.527ZM228.63 214.22V105.9H211.594V223.12C217.442 220.323 223.163 217.399 228.63 214.22ZM115.097 223.883H132.896C132.896 223.883 113.825 145.694 110.774 132.853C107.596 119.249 102.764 105.773 77.9727 105.773C76.8285 105.773 74.4128 105.773 74.2858 105.9L74.4131 107.044C85.7283 108.57 89.2881 114.291 91.4494 125.225L66.2764 223.883H73.396L81.2785 192.099H107.85L115.097 223.883ZM82.8039 185.615L95.009 135.777L106.451 185.615H82.8039ZM277.578 192.099C272.619 195.913 267.407 199.6 261.813 203.287C260.923 222.103 239.691 238.122 223.417 243.716L223.926 244.861C234.733 242.953 278.086 230.621 277.578 192.099Z" fill="white"/>
</svg>
