<svg width="360" height="360" viewBox="0 0 360 360" fill="none" xmlns="http://www.w3.org/2000/svg">
<rect width="360" height="360" rx="82" fill="#D8212F"/>
<path d="M263.655 134.029C251.755 108.85 232.322 67.0006 180 67.0006C127.678 67.0006 108.242 108.85 96.3453 134.029C84.439 159.215 44 246.024 44 246.024H158.083L161.839 213.733H198.155L201.92 246.024H316C316 246.024 275.564 159.215 263.655 134.029ZM165.698 177.687L174.413 110.631H185.584L194.305 177.687H165.698Z" fill="white"/>
<path d="M236.542 108.144C236.542 125.486 221.68 132.662 221.68 148.202C221.68 158.799 225.371 170.534 226.761 174.754C228.154 178.965 247.928 238.986 247.928 238.986H304.326L254.929 133.306C253.755 130.847 250.324 123.637 246.363 116.087C240.968 105.786 234.075 97.1051 234.075 97.1051C234.075 97.1051 236.542 102.456 236.542 108.144Z" fill="url(#paint0_linear)"/>
<path d="M103.651 135.793C100.382 142.838 94.6801 155.058 88.3137 168.681L55.4287 238.982V238.986H58.2695L90.7192 169.653C98.6275 152.801 105.271 138.732 106.775 135.793C111.003 127.507 132.626 77.2365 180.737 77.2365C212.144 77.2365 230.626 93.755 233.636 96.67C221.23 84.3925 205.12 74.028 180.737 74.028C132.528 74.028 114.464 112.507 103.651 135.793ZM234.074 97.1051C234.074 97.1051 233.929 96.9534 233.636 96.67L234.074 97.1051Z" fill="url(#paint1_linear)"/>
<defs>
<linearGradient id="paint0_linear" x1="201.706" y1="213.123" x2="299.249" y2="180.675" gradientUnits="userSpaceOnUse">
<stop offset="0.126171" stop-color="white"/>
<stop offset="0.845033" stop-color="#D8212F"/>
</linearGradient>
<linearGradient id="paint1_linear" x1="203.624" y1="83.9407" x2="86.5282" y2="83.9407" gradientUnits="userSpaceOnUse">
<stop stop-color="white"/>
<stop offset="0.557292" stop-color="#D8212F"/>
<stop offset="1" stop-color="white"/>
</linearGradient>
</defs>
</svg>
