<svg width="360" height="360" viewBox="0 0 360 360" fill="none" xmlns="http://www.w3.org/2000/svg">
<rect width="360" height="360" rx="82" fill="#ED192D"/>
<path d="M235.401 132.09C228.791 131.449 219.198 130.808 212.158 130.808C177.822 130.808 123.026 137.877 123.026 160.439C123.026 197.712 240.393 227.305 310.904 227.305C314.749 227.305 324.954 226.97 329 226.33C283.549 222.59 178.893 194.183 178.893 160.506C178.893 142.535 208.61 134.883 235.401 132.09Z" fill="#64696E"/>
<path d="M135.921 132.092C129.312 131.451 120.33 130.562 113.291 130.562C74.9655 130.562 25 141.628 25 166.199C25 210.952 137.537 240.401 218.358 240.401C222.194 240.401 239.888 239.444 243.944 238.813C190.229 234.394 79.4035 205.768 79.4035 164.544C79.4035 143.216 105.811 135.22 135.921 132.092Z" fill="#64696E"/>
</svg>
