<svg width="360" height="360" viewBox="0 0 360 360" fill="none" xmlns="http://www.w3.org/2000/svg">
<rect width="360" height="360" rx="82" fill="#0082CA"/>
<path d="M131.874 208.417C131.099 206.093 129.162 204.737 126.838 204.737C126.257 204.737 125.676 204.737 124.901 204.931C121.609 205.706 119.672 205.899 117.155 206.093C112.313 206.287 111.538 204.35 111.151 198.927V124.557C110.957 122.814 110.182 121.071 108.827 120.103L108.439 119.909C108.246 119.715 108.052 119.715 107.858 119.522C103.791 117.197 97.0127 115.261 91.3962 113.711L91.0088 113.518C84.2303 111.968 76.6771 111 69.3176 111C64.8631 111 60.9897 111.387 59.4403 111.581C56.1479 111.968 47.4326 113.324 44.5276 114.292C43.7529 114.486 40.8478 115.842 40.8478 118.553C40.8478 119.909 42.3972 124.363 42.3972 124.363C43.3655 127.462 44.5276 128.237 46.4643 128.624C48.0137 128.818 51.3061 128.043 53.6301 127.656C59.4403 126.687 63.1201 126.106 65.8315 126.106C69.3176 126.106 73.5784 125.913 78.8075 126.687C88.4911 128.237 92.3645 131.142 92.3645 131.142V159.999H91.5898L70.8669 160.58C42.5908 161.548 29.8085 172.588 30.0022 194.86C30.0022 204.931 33.1009 213.065 39.1047 218.294C44.7212 223.136 52.8555 225.847 62.7327 225.847C74.1594 225.847 83.843 222.361 93.3329 214.808L94.3013 214.033L94.6886 215.002C97.0127 220.037 100.886 223.33 106.309 224.685C108.633 225.266 111.538 225.654 115.024 225.654C115.993 225.654 116.767 225.654 117.542 225.46C120.641 225.073 124.901 224.492 129.55 222.168C132.067 221.006 134.004 219.456 133.81 216.745C133.81 214.421 131.874 208.417 131.874 208.417ZM92.9455 201.638L92.5582 201.832L92.1709 202.219C85.1987 207.061 74.9341 210.16 66.4125 210.16C54.0175 209.966 49.563 205.512 49.1757 193.504C49.3694 179.754 54.0175 175.493 69.5112 174.524L90.8152 173.556H91.7835H92.7519V201.638H92.9455Z" fill="white"/>
<path d="M146.98 268.262H146.399C142.719 268.262 139.814 268.068 136.715 267.487C134.972 267.1 134.198 264.776 134.585 261.677C134.585 261.677 134.779 258.191 135.36 255.867C135.747 253.349 137.103 252.187 138.265 252.187H138.652H139.621C140.202 252.187 140.976 252.381 141.751 252.381C143.494 252.574 145.431 252.768 146.786 252.768C158.794 252.574 165.379 248.314 170.027 237.081L175.644 223.524L176.225 222.168L176.418 221.587L176.225 221.006L139.04 122.814C138.846 122.427 138.846 121.846 138.846 121.458C138.846 121.071 138.846 120.296 139.427 119.715C139.814 119.328 140.395 118.941 141.17 118.941H155.308C157.438 118.941 158.794 120.103 159.375 121.652L183.778 191.955L185.327 196.603L187.07 191.955L212.441 122.039C213.022 120.103 214.572 118.747 216.315 118.747H216.508H216.896H228.516C229.484 118.747 230.259 118.941 230.646 119.328C231.227 119.715 231.227 120.296 231.227 120.877C231.227 121.458 231.034 122.039 230.84 122.621L189.201 234.176C180.098 258.966 168.671 268.262 146.98 268.262Z" fill="white"/>
<path d="M314.313 224.879C311.989 224.879 309.858 223.717 308.696 221.586L286.618 187.5L285.843 186.338L285.068 187.5L262.99 221.78C261.828 223.91 259.891 225.072 257.373 225.072H256.986H245.172C244.203 225.072 243.429 224.879 242.848 224.491C242.267 224.104 241.879 223.136 241.879 222.361C241.879 221.393 242.267 220.424 242.848 219.456L274.997 170.457L275.385 169.876L274.997 169.295L245.366 123.588C244.785 122.814 244.591 122.039 244.591 121.264C244.591 119.328 246.334 118.166 248.077 118.166H259.31C261.634 118.166 263.571 119.134 264.345 120.877L285.262 152.445L286.037 153.607L286.811 152.445L307.534 121.071C308.503 119.328 310.439 118.166 312.57 118.166H323.996C325.739 118.166 327.482 119.328 327.482 121.264C327.482 122.039 327.289 122.62 326.708 123.395L297.076 169.101L296.689 169.682L297.076 170.263L329.032 218.875C329.806 219.843 330 220.812 330 221.78C330 222.555 329.613 223.523 329.032 223.91C328.451 224.298 327.676 224.491 326.708 224.491H314.894L314.313 224.879Z" fill="white"/>
</svg>
