<svg width="360" height="360" viewBox="0 0 360 360" fill="none" xmlns="http://www.w3.org/2000/svg">
<rect width="360" height="360" rx="82" fill="#D52B1E"/>
<path fill-rule="evenodd" clip-rule="evenodd" d="M216.301 112.089H237.36L211.045 158.255L211.005 158.292C203.177 171.747 186.566 172.698 178.645 171.703C164.713 169.955 159.081 162.048 163.368 154.15C171.374 140.125 179.39 126.104 187.414 112.089H208.573L187.297 148.974C186.283 150.812 184.821 153.498 188.32 154.188C191.121 154.741 192.948 153.837 194.712 150.646L216.301 112.089ZM255.218 128.761L241.534 152.674C241.34 153.078 241.431 153.538 241.597 153.975C241.91 154.683 242.756 154.559 243.503 154.559H253.216L244.297 170.159H231.426C226.546 170.159 223.837 168.486 221.26 165.141C217.649 160.534 217.415 155.435 219.896 150.88L247.087 103.317H269.776L264.758 112.089H276.272L266.765 128.761H255.218ZM156.839 118.4C158.922 114.913 157.834 113.182 154.47 112.86C150.447 112.474 147.889 114.53 146.57 116.861L136.539 134.43H147.684L156.839 118.4ZM165.774 92.331C182.49 94.4287 187.671 103.824 182.289 113.759L149.943 170.126H127.232L137.036 152.994H125.908L116.111 170.126H93.2299L128.337 108.76C136.936 92.3263 156.547 91.1677 165.774 92.3263V92.331ZM296.31 138.186C299.431 132.141 300.973 127.868 297.326 127.23C293.432 126.551 288.756 132.701 284.399 141.148C281.281 147.194 280.096 151.711 283.264 152.333C287.618 153.19 291.145 148.203 296.31 138.186ZM304.147 108.916C319.231 109.727 323.067 122.031 317.703 137.275C308.819 162.534 292.914 172.945 276.298 172.058C259.853 171.172 257.587 158.362 262.948 143.115C270.439 121.816 286.765 107.984 304.147 108.916ZM227.284 200.622C232.846 201.986 238.322 210.204 234.993 216.348L210.858 258.669H189.776L209.898 223.454C210.732 221.88 209.977 219.537 207.433 218.992C204.583 218.38 202.675 221.223 201.278 223.699L181.287 258.653H160.048L193.317 200.613H212.645L210.416 204.57C210.416 204.57 217.109 198.13 227.284 200.622ZM133.955 202.253L82.7692 240.338H112.216L101.728 258.653H39L50.9181 237.96L103.87 199.221H73.0585L83.5938 180.79H146.221L133.955 202.253ZM263.286 225.776C265.879 220.326 266.956 216.535 263.7 215.939C260.616 215.374 257.019 219.518 253.506 225.774L263.286 225.776ZM271.899 197.576C286.983 198.384 289.762 210.721 284.399 226.01C283.431 228.776 282.318 231.489 281.066 234.139H250.217C248.278 239.028 247.455 243.681 249.908 244.165C252.541 244.683 255.276 241.929 258.171 237.456H279.388C270.18 254.499 257.886 261.633 244.043 260.888C227.597 260.005 226.383 247.16 231.748 231.868C239.242 210.51 254.515 196.642 271.899 197.576ZM151.157 226.925C154.276 220.861 155.82 216.577 152.173 215.939C148.282 215.257 143.603 221.426 139.246 229.894C136.125 235.956 134.941 240.486 138.111 241.112C142.46 241.971 145.99 236.968 151.157 226.925ZM158.997 197.576C174.08 198.384 177.913 210.721 172.548 226.01C163.662 251.339 147.758 261.78 131.14 260.888C114.695 260.005 112.429 247.16 117.795 231.868C125.289 210.51 141.615 196.642 158.997 197.576Z" fill="white"/>
</svg>
