<svg width="360" height="360" viewBox="0 0 360 360" fill="none" xmlns="http://www.w3.org/2000/svg">
<rect width="360" height="360" rx="82" fill="#003057"/>
<path d="M157.454 95.5863L151.521 102.55C151.005 103.066 150.748 103.84 150.49 104.614V204.431C150.49 205.205 150.747 205.978 151.521 206.494L157.454 213.458C158.228 213.974 159.002 214.49 160.033 214.49C161.065 214.49 161.581 213.974 162.613 213.458L168.545 206.494C169.06 205.978 169.318 205.205 169.576 204.431V104.614C169.576 103.84 169.318 103.066 168.545 102.55L162.355 95.5863C161.581 95.0704 160.807 94.5547 159.775 94.5547C159.002 94.5547 157.97 94.8125 157.454 95.5863Z" fill="white"/>
<path d="M134.756 114.156C134.24 114.156 133.724 114.672 133.208 115.188L127.276 122.152C126.76 122.668 126.76 123.184 126.76 123.7V205.204C126.76 205.72 126.76 206.236 127.276 206.752L133.208 214.231C133.724 214.747 134.24 215.263 134.756 215.263C135.272 215.263 135.788 214.747 136.304 214.231L142.235 207.267C142.493 206.751 142.752 206.236 142.752 205.72V123.184C142.752 122.668 142.751 122.152 142.235 121.636L136.304 114.672C136.304 114.156 135.787 114.156 134.756 114.156Z" fill="white"/>
<path d="M111.543 136.853C111.027 136.853 110.511 136.853 109.995 137.368L104.063 143.301C103.547 143.817 103.547 143.817 103.547 144.332V184.053C103.547 184.569 103.547 185.085 104.063 185.085L109.995 191.017C110.769 191.791 112.059 191.791 113.091 191.017L119.022 185.085C119.538 184.569 119.539 184.569 119.539 184.053V144.332C119.539 143.817 119.538 143.301 119.022 143.301L113.091 137.368C112.575 137.11 112.059 136.853 111.543 136.853Z" fill="white"/>
<path d="M212.65 94.5547C211.618 94.5547 211.102 95.0704 210.07 95.5863L204.137 102.55C203.622 103.066 203.364 103.84 203.106 104.614V204.431C203.106 205.205 203.364 205.978 204.137 206.494L210.07 213.458C210.844 213.974 211.618 214.49 212.65 214.49C213.681 214.49 214.197 213.974 215.229 213.458L221.161 206.494C221.677 205.978 221.934 205.205 222.192 204.431V104.614C222.192 103.84 221.935 103.066 221.161 102.55L214.971 95.5863C214.197 95.0704 213.681 94.5547 212.65 94.5547Z" fill="white"/>
<path d="M235.863 114.67L229.93 121.634C229.414 122.15 229.415 122.666 229.415 123.182V204.686C229.415 205.202 229.414 205.718 229.93 206.234L235.863 213.198C236.379 213.714 236.895 214.23 237.411 214.23C237.927 214.23 238.442 213.714 238.958 213.198L244.891 205.718C245.406 205.202 245.406 204.687 245.406 204.171V123.182C245.406 122.666 245.406 122.15 244.891 121.634L238.958 114.67C238.442 114.155 237.927 113.639 237.411 113.639C236.379 114.155 235.863 114.155 235.863 114.67Z" fill="white"/>
<path d="M259.077 137.368L253.144 143.301C252.628 143.817 252.628 143.817 252.628 144.332V184.053C252.628 184.569 252.628 185.085 253.144 185.085L258.56 191.017C259.334 191.791 260.624 191.791 261.656 191.017L267.588 185.085C268.103 184.569 268.104 184.569 268.104 184.053V144.332C268.104 143.817 268.103 143.301 267.588 143.301L261.656 137.368C261.14 136.853 260.624 136.853 260.108 136.853C259.592 136.853 259.334 137.11 259.077 137.368Z" fill="white"/>
<path d="M219.357 270.974C247.213 271.748 274.036 261.689 294.412 242.861C318.657 218.1 329.232 188.438 329.232 150.265C329.232 76.7564 277.905 28.0084 198.206 28.0084C146.363 27.4926 97.099 50.706 64.8583 91.4582C42.1608 119.572 30.0383 154.65 30.0383 190.76C29.0066 234.091 48.8674 275.359 83.4294 301.668C109.222 321.27 145.847 334.424 190.21 332.877C219.356 331.845 248.244 324.365 263.719 312.758C276.358 303.215 270.684 303.215 266.815 303.731C264.494 304.247 262.43 304.763 260.367 305.794C238.701 316.111 214.972 321.528 190.985 321.786C110.512 321.786 58.6683 273.554 58.6683 194.37C58.6683 140.464 80.8507 95.0692 120.055 66.4394C144.3 48.9005 173.704 39.873 203.623 40.131C271.715 40.131 319.947 83.9784 319.431 148.976C318.916 189.212 311.951 211.394 290.801 235.639C273.52 254.467 248.244 264.268 222.709 261.947C200.012 259.884 197.433 246.214 197.433 235.381V89.3949C197.433 88.1052 197.174 86.8155 196.4 85.7838L191.242 77.7882C190.21 76.2406 188.663 75.2089 186.6 75.2089C184.794 75.2089 183.247 76.2406 181.958 77.7882L176.799 85.7838C176.283 86.8155 175.766 88.1052 175.766 89.3949V235.381C176.024 253.178 194.596 268.911 219.357 270.974Z" fill="white"/>
</svg>
