<svg width="360" height="360" viewBox="0 0 360 360" fill="none" xmlns="http://www.w3.org/2000/svg">
<rect width="360" height="360" rx="82" fill="#1D439C"/>
<circle cx="180" cy="180" r="155.455" fill="#4681C7" fill-opacity="0.06"/>
<circle cx="180" cy="180" r="155.205" stroke="#2869BF" stroke-opacity="0.04" stroke-width="0.5"/>
<path d="M128.286 243.221C111.369 243.221 95.8208 237.428 83.4915 227.715C97.8273 195.357 127.038 151.945 166.869 109.548C187.203 122.373 200.709 145.018 200.709 170.826C200.709 181.843 198.228 192.294 193.825 201.646C181.19 195.796 169.407 188.48 159.41 179.241L181.233 220.207C168.01 234.373 149.194 243.221 128.286 243.221ZM55.8833 170.826C55.8833 130.817 88.2913 98.4094 128.286 98.4094C139.005 98.4094 149.165 100.742 158.34 104.911C119.097 139.595 88.7096 179.908 70.7296 214.748C61.4206 202.546 55.8833 187.352 55.8833 170.826ZM202.921 205.531C207.849 194.988 210.585 183.219 210.585 170.826C210.585 142.218 195.987 117.02 173.824 102.273C187.025 88.6891 201.312 75.2679 216.519 62.4422C198.695 72.9282 181.949 84.9314 166.472 97.8989C155.064 91.915 142.068 88.5118 128.286 88.5118C82.8463 88.5118 46 125.379 46 170.826C46 191.337 53.5153 210.125 65.9439 224.518C50.176 258.613 47.418 285.994 61.3142 295.254C76.1818 305.172 108.526 287.192 127.938 257.911C127.938 257.911 97.9194 284.995 81.4283 278.784C71.2826 274.941 71.2472 259.421 79.6133 237.166C93.2543 247.191 110.072 253.111 128.286 253.111C150.839 253.111 171.25 244.05 186.118 229.374L189.039 234.876C224.907 231.962 332 229.126 332 229.126C332 223.986 261.094 228.651 202.921 205.531Z" fill="white"/>
</svg>
