<svg width="360" height="360" viewBox="0 0 360 360" fill="none" xmlns="http://www.w3.org/2000/svg">
<rect width="360" height="360" rx="82" fill="#CD2E29"/>
<path fill-rule="evenodd" clip-rule="evenodd" d="M144.863 140.586C154.062 144.165 163.262 148 172.207 152.342C143.557 163.835 115.869 177.595 89.4063 193.49C80.4605 188.886 71.2612 184.29 62.062 180.198C88.6384 164.867 116.24 151.578 144.863 140.586ZM110.615 128.576C80.9938 138.045 52.3291 150.281 25 165.12C33.6886 168.445 42.3772 171.766 50.8124 175.344C77.1729 159.733 104.99 146.724 133.871 136.501C126.203 133.687 118.54 130.876 110.615 128.576Z" fill="#2267AD"/>
<path fill-rule="evenodd" clip-rule="evenodd" d="M206.967 139.312C183.498 128.097 159.24 118.615 134.387 110.942C125.441 113.495 116.752 116.306 108.317 119.12C133.9 126.807 158.85 136.461 182.944 147.996C190.869 144.929 198.786 142.122 206.967 139.312ZM245.047 128.066C221.277 117.588 196.486 108.899 171.184 102C163.006 103.532 155.085 105.321 147.164 107.364C172.209 114.778 196.739 123.977 220.256 135.223C228.43 132.665 236.865 130.112 245.047 128.066ZM306.378 148.511C246.318 168.702 190.093 197.579 139.24 233.615C152.018 241.536 164.284 249.714 176.294 258.656C224.681 220.314 278.076 188.758 335.001 164.863C325.659 159.07 316.112 153.615 306.378 148.511ZM264.977 129.087C202.617 145.443 144.097 172.023 91.1934 207.289C102.95 213.167 114.706 219.302 126.205 225.944C178.087 190.165 235.59 162.052 296.921 143.65C286.447 138.544 275.966 133.433 264.977 129.087Z" fill="white"/>
</svg>
