<svg width="360" height="360" viewBox="0 0 360 360" fill="none" xmlns="http://www.w3.org/2000/svg">
<rect width="360" height="360" rx="82" fill="#252969"/>
<path fill-rule="evenodd" clip-rule="evenodd" d="M242.179 156.507C250.112 167.633 257.4 178.917 263.997 190.621C251.681 199.406 239.176 207.744 226.727 216.048L226.755 216.694L247.245 216.348L270.433 200.76C273.92 205.644 277.263 210.65 279.136 216.211L318.507 215.8C317.658 215.586 316.969 214.578 316.279 214.085L297.107 182.715L336 156.227L335.964 155.597L312.503 156.358C306.659 163.557 297.762 167.127 290.405 172.44C287.179 167.172 282.744 162.419 281.949 156.226L242.179 156.507ZM129.352 134L54.4091 134.317L54.5352 140.157L35.2949 208.022L30 217.714L110.091 217.668C117.336 217.83 123.542 215.568 126.843 209.836C129.247 201.416 133.565 193.496 132.59 184.113C131.421 180.463 128.662 177.096 125.22 174.885C128.613 173.941 131.993 172.719 134.654 170.145C140.336 162.965 142.073 153.932 142.301 145.062C141.015 139.634 135.225 134.931 129.352 134ZM88.7891 147.858L108.44 148.02C111.171 149.509 110.182 153.322 109.548 155.349C107.825 159.447 107.944 164.896 103.919 167.62L81.3832 167.718L88.7891 147.858ZM77.4264 181.472L98.31 181.387C101.202 182.612 100.47 186.545 99.6828 188.723C97.0364 193.462 100.08 200.759 94.4382 203.399L71.7128 203.368C72.6825 196.117 75.5294 188.735 77.4264 181.472ZM218.026 156.872L152.286 157.086L147.645 168.166C163.493 165.884 180.617 167.407 196.479 166.99C197.858 167.62 198.567 168.991 198.728 170.379C198.089 172.277 198.269 174.819 195.964 175.873L152.702 176.836L145.165 180.347C139.022 186.675 137.682 194.817 137.154 203.302C137.522 208.24 141.014 212.766 145.542 215.354C155.621 218.345 169.735 216.876 181.656 216.532C184.392 215.847 186.184 213.143 187.479 210.965C188.468 212.745 189.226 214.742 189.813 216.64L220.751 216.777L219.754 212.616L228.886 179.016C230.314 174.671 231.695 168.578 228.6 164.696C226.511 160.798 222.144 158.321 218.026 156.872ZM193.617 187.694L189.018 203.991L187.033 205.546L171.416 205.794C164.692 202.111 171.205 194.649 171.799 189.315L174.333 187.749L193.617 187.694Z" fill="white"/>
</svg>
