<svg width="360" height="360" viewBox="0 0 360 360" fill="none" xmlns="http://www.w3.org/2000/svg">
<rect width="360" height="360" rx="82" fill="#8A0025"/>
<path d="M250.25 133.862V156.932H252.705C253.687 145.25 260.478 138.039 267.345 138.039L278.88 138.073V214.498C279.446 220.972 273.675 223.374 266.635 223.325L266.661 225.753H312.378L312.367 223.302C305.115 222.486 299.151 222.671 299.23 215.74L299.253 138.073H309.95C316.82 138.073 325.326 143.985 325.326 156.932H328V133.862H250.25H250.25ZM216.253 147.505C216.215 143.985 218.938 139.902 223.713 139.902C231.954 139.902 233.503 148.581 231.452 152.849C227.981 160.082 223.014 161.865 222.866 161.578C220.056 156.932 216.302 151.814 216.253 147.505ZM203.445 200.844C197.122 188.859 201.802 180.297 207.951 175.088C207.951 175.088 220.056 199.579 232.717 212.243C227.792 216.609 212.876 218.717 203.445 200.844ZM139.258 180.437H144.335C157.562 179.311 162.351 188.882 163.05 198.857C163.9 210.876 159.088 221.24 146.941 221.24C141.502 221.24 139.266 219.276 139.266 213.142L139.258 180.437H139.258ZM183.74 209.712C187.487 217.361 196.862 228.737 212.453 228.994C221.035 229.134 229.015 226.841 238.488 217.875C241.865 220.828 246.654 225.753 253.97 226.176C256.029 226.297 262.333 225.1 267.481 218.581C271.82 213.081 272.712 208.863 272.833 208.723L270.578 207.034C269.124 210.026 266.71 212.243 263.681 212.243C257.981 212.243 257.664 210.03 251.013 203.378C257.63 193.668 257.264 188.667 260.867 183.534C264.523 178.325 267.624 175.372 273.815 175.156V172.554H250.949V174.869C255.519 174.526 256.248 178.129 255.659 181.139C254.465 187.265 248.063 199.771 247.217 198.872C237.506 188.599 225.541 166.224 225.541 166.224C234.266 161.438 237.786 151.444 237.786 148.91C237.786 140.238 233.227 132.94 220.479 131.32C212.733 130.334 198.097 136.808 197.817 150.319C197.689 156.437 201.473 162.564 205.417 170.163C195.117 174.22 187.034 182.219 183.616 192.591C179.582 183.058 168.485 179.247 161.244 177.298H161.535C166.97 175.526 183.461 172.229 182.754 156.891C181.829 136.752 156.066 133.296 146.892 133.919H106.878V136.532C112.834 136.94 118.662 135.384 118.662 145.295L118.685 214.154C118.685 222.464 114.183 222.562 106.931 223.378L106.897 225.753H148.591C171.117 225.976 180.586 219.559 183.74 209.712H183.74ZM34 225.753H75.6682C104.646 224.768 112.808 215.163 112.808 200.27C112.808 184.735 99.2028 179.972 90.2173 177.551C95.2143 176.565 110.062 170.654 109.85 156.622C109.548 136.468 83.2109 133.299 74.0327 133.923H34.0189V136.54C39.9753 136.948 45.807 135.384 45.807 145.303L45.7805 213.886C45.7805 222.195 41.2519 222.562 34 223.378V225.753ZM66.3616 180.297H71.4341C83.1467 180.006 89.9378 186.631 90.7121 198.593C91.4939 210.706 86.5573 220.828 74.0365 220.972C68.6013 221.036 66.3616 219.008 66.3616 212.878V180.297ZM72.3104 138.825C85.1749 139.694 88.5667 150.802 88.5743 154.893C88.6007 167.209 84.733 176.637 66.4522 176.078V138.825C66.6109 138.825 70.8864 138.731 72.3104 138.825ZM145.218 138.87C158.087 139.739 161.478 150.847 161.482 154.938C161.509 167.255 157.637 176.682 139.36 176.123V138.87C139.519 138.87 143.794 138.776 145.218 138.87Z" fill="white"/>
</svg>
