<svg width="360" height="360" viewBox="0 0 360 360" fill="none" xmlns="http://www.w3.org/2000/svg">
<rect width="360" height="360" rx="82" fill="#F6EB16"/>
<path d="M31.8189 124.602L92.7453 77L315 98.231L298.169 276.831L75.5427 255.971L25 196.85L31.8189 124.602Z" fill="#010101"/>
<path fill-rule="evenodd" clip-rule="evenodd" d="M35.4772 126.454L94.1921 81.0515L310.937 101.866L294.892 272.768L77.4063 251.954L28.6816 195.403L35.4772 126.454Z" fill="#F6EB16"/>
<path fill-rule="evenodd" clip-rule="evenodd" d="M135.761 118.397L184.962 123.097L183.549 137.833L161.391 135.715L160.94 140.461L181.153 142.395L179.856 155.905L159.76 153.994L159.25 159.354L181.905 161.519L180.562 175.526L131.004 170.78L135.761 118.397Z" fill="#010101"/>
<path fill-rule="evenodd" clip-rule="evenodd" d="M192.302 158.208L182.994 171.938C182.994 171.938 194.686 178.224 210.906 179.635C227.101 181.072 238.978 176.429 242.787 168.673C246.607 160.94 242.034 152.142 234.533 149.7C227.02 147.268 213.996 144.676 215.351 142.093C216.705 139.524 224.879 140.056 229.844 142.128C234.811 144.201 236.166 145.439 236.166 145.439L244.709 133.227C244.709 133.227 235.633 126.582 218.649 125.575C201.656 124.568 189.165 133.076 188.297 140.982C187.417 148.889 192.499 153.555 200.22 156.38C200.22 156.38 206.772 158.487 211.715 159.563C216.647 160.652 219.784 163.904 213.892 165.062C207.999 166.219 195.878 161.867 192.302 158.208Z" fill="#010101"/>
<path fill-rule="evenodd" clip-rule="evenodd" d="M259.92 147.582L245.438 146.204L247.059 129.152L302.834 134.477L301.213 151.529L286.719 150.14L283.339 185.574L256.899 183.052L259.92 147.582Z" fill="#010101"/>
<path fill-rule="evenodd" clip-rule="evenodd" d="M139.872 178.27L165.468 180.586L162.747 210.314C162.747 210.314 160.223 217.445 168.744 218.267C177.276 219.077 176.895 211.414 176.895 211.414L179.695 182.068L205.394 184.522L202.095 219.112C202.095 219.112 199.062 237.993 167.633 234.995C136.215 231.995 136.643 212.132 136.643 212.132L139.872 178.27Z" fill="#010101"/>
<path fill-rule="evenodd" clip-rule="evenodd" d="M234.87 187.346L242.209 201.805L251.679 188.956L281.511 191.791L253.681 219.367L251.528 241.894L225.354 239.393L227.461 217.236L205.141 184.626L234.87 187.346Z" fill="#010101"/>
<path fill-rule="evenodd" clip-rule="evenodd" d="M123.353 202.523C123.353 202.523 134.131 200.404 133.853 189.395C133.576 178.375 111.58 175.642 111.58 175.642L75.2771 172.042L70.3223 224.61C70.3223 224.61 99.2979 227.655 107.736 228.337C116.176 229.009 133.181 228.291 134.86 217.42C136.527 206.54 123.353 202.523 123.353 202.523ZM98.5684 187.474C98.5684 187.474 109.717 186.443 109.103 191.675C108.477 196.896 97.8853 194.534 97.8853 194.534L98.5684 187.474ZM96.2415 214.283L96.8201 205.741C96.8201 205.741 110.758 205.22 110.306 211.205C109.855 217.19 96.2415 214.283 96.2415 214.283Z" fill="#010101"/>
<path d="M118.05 142.291C118.05 142.291 128.829 140.172 128.551 129.163C128.273 118.155 106.277 115.398 106.277 115.398L69.9622 111.811L65.0195 164.379C65.0195 164.379 93.9952 167.423 102.423 168.095C110.861 168.789 127.867 168.06 129.546 157.19C131.224 146.308 118.05 142.291 118.05 142.291ZM93.4856 127.381C93.4856 127.381 104.646 126.362 104.032 131.583C103.407 136.803 92.8139 134.442 92.8139 134.442L93.4856 127.381ZM91.1702 154.203L91.7488 145.648C91.7488 145.648 105.675 145.139 105.236 151.124C104.785 157.097 91.1702 154.203 91.1702 154.203Z" fill="#010101"/>
<path d="M57.2757 164.818C56.7661 170.248 51.9507 174.219 46.5326 173.709C41.1037 173.189 37.1324 168.372 37.6416 162.943C38.1631 157.525 42.9785 153.555 48.4081 154.064C53.8258 154.585 57.7964 159.401 57.2757 164.818Z" fill="#010101"/>
<path d="M53.6756 164.483C53.3526 167.909 50.308 170.422 46.8693 170.097C43.4425 169.773 40.9309 166.717 41.2547 163.291C41.5903 159.864 44.6355 157.352 48.0617 157.676C51.4882 158 54.0001 161.045 53.6756 164.483Z" fill="white"/>
<path d="M281.707 196.954C281.927 194.627 283.999 192.915 286.326 193.134C288.653 193.354 290.378 195.437 290.157 197.765C289.938 200.092 287.853 201.805 285.527 201.585C283.2 201.354 281.486 199.281 281.707 196.954ZM289.115 197.66C289.312 195.681 288.016 194.118 286.255 193.956C284.484 193.783 282.922 195.079 282.737 197.047C282.54 199.027 283.837 200.589 285.596 200.763C287.367 200.925 288.929 199.641 289.115 197.66ZM284.531 194.79L286.302 194.963C287.46 195.067 288.038 195.53 287.946 196.537C287.865 197.36 287.356 197.707 286.569 197.707L287.657 199.918L286.73 199.836L285.7 197.649L285.156 197.602L284.959 199.663L284.068 199.581L284.531 194.79ZM285.226 196.919L286.001 197.001C286.534 197.048 286.996 197.024 287.055 196.375C287.113 195.82 286.614 195.681 286.151 195.635L285.353 195.554L285.226 196.919Z" fill="#010101"/>
</svg>
