<svg width="360" height="360" viewBox="0 0 360 360" fill="none" xmlns="http://www.w3.org/2000/svg">
<rect width="360" height="360" rx="82" fill="#005288"/>
<path d="M239.669 122.8C251.93 126.183 263.707 129.789 275 133.54V108.525C264.161 104.85 252.868 101.383 241.183 98.1471C146.528 71.9791 63.8416 72.7399 56.5232 99.7766C53.2022 111.961 65.8711 127.475 89.4331 143.195C86.9962 145.486 85.1819 148.015 84.3978 150.921C80.9846 163.49 94.4683 179.526 119.353 195.708C117.4 197.776 115.862 199.99 115.155 202.543C107.829 229.564 178.615 272.705 273.286 298.835C273.855 298.989 274.416 299.112 275 299.266V294.146C190.1 270.146 126.01 235.898 131.153 216.926C132.16 213.274 135.642 210.453 141.231 208.454C168.383 222.722 203.407 236.413 242.513 247.23C253.552 250.258 264.384 252.926 275 255.186V250.504C266.352 248.467 257.565 246.246 248.609 243.786C209.05 232.846 173.887 219.67 147.65 206.678C171.804 201.597 219.65 206.217 275 219.57V194.717C241.982 186.991 211.233 182.732 185.68 181.971C159.758 173.361 136.772 164.036 118.369 154.826C146.397 149.537 203.607 156.264 267.559 173.938C270.08 174.614 272.525 175.36 275 176.044V151.006C273.009 150.421 271.056 149.868 269.058 149.315C188.978 127.213 117.684 124.384 93.1153 140.39C78.3478 130.404 70.5989 121.233 72.5053 114.16C77.7328 94.8723 152.578 98.7157 239.669 122.8ZM170.213 181.971C148.511 182.563 131.906 186.168 122.735 192.702C106.814 182.271 98.3966 172.661 100.403 165.297C101.441 161.384 105.492 158.486 111.796 156.441C128.478 165.328 148.265 174.03 170.213 181.971Z" fill="white"/>
</svg>
