<svg width="360" height="360" viewBox="0 0 360 360" fill="none" xmlns="http://www.w3.org/2000/svg">
<rect width="360" height="360" rx="82" fill="#33348E"/>
<path fill-rule="evenodd" clip-rule="evenodd" d="M96.3344 180.027H43V193.257H94.6974V203.703H43V216.935H94.6974V227.377H43V240.611H313V227.377H197.365V216.935H313V203.703H197.365V193.257H313V180.027H197.365V169.581H313V156.352H198.022L96.3344 180.027ZM196.996 145.907H313V132.676H196.996V145.907ZM196.996 122.231H313V109H196.996V122.231ZM113.923 180.55H170.778L113.923 192.466V180.55ZM113.923 203.226H170.778L113.923 215.141V203.226ZM113.923 225.899H170.778L113.923 237.814V225.899Z" fill="white"/>
</svg>
