<svg width="360" height="360" viewBox="0 0 360 360" fill="none" xmlns="http://www.w3.org/2000/svg">
<rect width="360" height="360" rx="82" fill="#00589D"/>
<path d="M335 180C335 210.656 325.909 240.624 308.878 266.113C291.846 291.603 267.638 311.47 239.316 323.201C210.993 334.933 179.828 338.002 149.761 332.021C119.694 326.041 92.0756 311.278 70.3985 289.601C48.7214 267.924 33.9591 240.306 27.9783 210.239C21.9976 180.172 25.0672 149.007 36.7987 120.684C48.5303 92.3615 68.397 68.1538 93.8866 51.1222C119.376 34.0906 149.344 25 180 25C221.108 25 260.533 41.3303 289.601 70.3984C318.67 99.4665 335 138.891 335 180Z" fill="white"/>
<path d="M114.087 171.919L26.5027 201.737C25.4981 194.535 24.996 187.272 25.0001 180C24.9724 158.07 29.6166 136.386 38.6236 116.391L114.454 169.816C114.921 170.15 115.122 170.45 115.122 170.784C115.122 171.118 114.654 171.652 114.12 171.819L114.087 171.919ZM179.432 25C150.05 25.0703 121.298 33.5267 96.5565 49.3753L160.166 116.724C160.6 117.158 160.901 117.426 161.268 117.426C161.635 117.426 162.069 117.192 162.203 116.457C163.038 112.183 179.432 25 179.432 25ZM130.648 136.792C130.644 136.528 130.587 136.267 130.482 136.024L95.5882 49.9763C70.9922 65.9471 51.4079 88.5408 39.091 115.155L129.012 137.393C129.278 137.425 129.548 137.425 129.814 137.393C129.929 137.398 130.044 137.379 130.151 137.337C130.259 137.295 130.356 137.231 130.438 137.149C130.52 137.068 130.583 136.97 130.625 136.863C130.667 136.755 130.687 136.64 130.682 136.525L130.648 136.792ZM245.913 171.919L333.497 201.804C334.502 194.602 335.004 187.339 335 180.067C335.026 158.137 330.382 136.453 321.376 116.457L245.546 169.882C245.079 170.216 244.878 170.517 244.878 170.851C244.878 171.185 245.346 171.719 245.88 171.886L245.913 171.919ZM197.764 116.457C197.764 117.192 198.332 117.426 198.699 117.426C199.066 117.426 199.4 117.158 199.801 116.724L263.477 49.3753C238.725 33.5223 209.961 25.0658 180.568 25C180.568 25 196.963 112.183 197.764 116.457ZM230.22 137.66C230.475 137.69 230.733 137.69 230.988 137.66L320.909 115.155C308.603 88.5441 289.03 65.9505 264.445 49.9763L229.552 136.024C229.446 136.267 229.389 136.528 229.385 136.792C229.385 137.023 229.476 137.243 229.639 137.406C229.802 137.569 230.023 137.66 230.253 137.66" fill="#F26924"/>
<path d="M179.998 335C217.07 334.999 252.915 321.714 281.033 297.554C309.151 273.393 327.68 239.957 333.262 203.307L275.429 211.388C275.089 211.41 274.765 211.538 274.502 211.754C274.239 211.969 274.049 212.261 273.96 212.59C268.218 229.247 258.146 244.076 244.778 255.554C231.411 267.032 215.229 274.745 197.895 277.902C206.221 273.85 212.927 267.095 216.919 258.74C220.911 250.385 221.952 240.924 219.873 231.901C217.794 222.878 212.717 214.826 205.472 209.06C198.227 203.295 189.241 200.156 179.981 200.156C170.722 200.156 161.736 203.295 154.49 209.06C147.245 214.826 142.169 222.878 140.089 231.901C138.01 240.924 139.052 250.385 143.043 258.74C147.035 267.095 153.741 273.85 162.067 277.902C144.737 274.748 128.558 267.039 115.191 255.568C101.824 244.096 91.7499 229.274 86.003 212.623C85.9135 212.295 85.7239 212.003 85.4605 211.787C85.1972 211.572 84.8732 211.444 84.5338 211.421L26.7344 203.34C32.3156 239.99 50.845 273.427 78.963 297.587C107.081 321.748 142.926 335.033 179.998 335.033" fill="#F26924"/>
</svg>
