<svg width="360" height="360" viewBox="0 0 360 360" fill="none" xmlns="http://www.w3.org/2000/svg">
<rect width="360" height="360" rx="82" fill="#9B6621"/>
<path d="M109.263 58.1768C106.248 58.1768 104.693 58.4392 104.517 58.981C104.376 59.4248 103.937 67.3301 103.55 76.5141C101.608 123.093 101.805 121.775 92.784 131.443C82.7211 142.077 78.8981 147.921 76.1297 156.841C74.9872 160.498 74.9213 163.389 75.0443 211.331C75.1155 239.278 75.3731 269.335 75.6068 277.684L76.0286 293.284L81.5654 293.103L87.1462 292.922V286.154C87.1462 282.437 86.8957 253.505 86.6013 221.998L86.0784 164.433L87.4846 159.951C89.2027 154.502 92.7137 149.405 100.184 141.583C111.961 129.279 113.059 125.28 114.465 90.1698C114.826 81.1615 115.292 70.3956 115.489 66.2649C115.911 57.5643 116.206 58.0037 109.293 58.0037L109.263 58.1768ZM144.505 58.8184L144.948 73.4513C145.19 81.4929 145.81 94.8954 146.315 103.201C147.734 126.49 149.101 130.489 159.586 141.607C171.802 154.614 173.911 159.228 173.955 173.992C174.087 213.365 173.511 271.985 172.971 274.182C172.303 277.17 169.93 279.85 167.522 280.378C166.814 280.527 161.194 281.388 155.042 282.307C141.244 284.368 140.189 284.834 140.189 288.766C140.189 293.688 139.218 293.556 180.265 293.556L216.782 293.578L218.372 291.992C219.242 291.122 219.959 289.672 219.959 288.753C219.959 287.022 217.41 283.92 215.96 283.92C215.503 283.911 209.764 283.063 203.217 282.03C191.528 280.18 191.264 280.114 189.331 277.987L187.34 275.816L186.918 254.944C186.685 243.475 186.496 218.559 186.496 199.576C186.496 169.783 186.624 164.641 187.52 161.609C189.599 154.622 192.178 150.755 201.318 141.176C210.678 131.333 212.787 125.664 214.106 106.988C214.875 95.9149 216.074 69.0219 216.074 62.6063V58.5855H144.448L144.505 58.8184ZM249.967 58.8184C246.834 58.8184 244.255 59.0355 244.299 59.3018C244.444 66.9039 246.364 107.639 246.83 112.912C248.13 127.721 250.152 131.983 261.243 143.584C266.077 148.637 269.416 153.12 271.13 156.767C274.008 162.875 274.065 164.281 273.301 219.605C272.905 248.212 272.576 276.731 272.576 282.882V294H284.177L284.295 271.018C284.37 258.362 284.475 246.586 284.515 244.784C284.559 243.013 284.814 224.614 285.077 203.917C285.596 163.007 285.482 161.117 281.984 152.504C280.266 148.22 275.612 141.167 271.877 137.124C270.396 135.534 267.439 132.335 265.242 130.006C258.958 123.282 258.211 119.943 257.156 93.3574C256.792 84.3491 256.321 72.968 256.093 68.0903L255.671 59.2578H250.002L249.967 58.8184Z" fill="white"/>
</svg>
