<svg width="360" height="360" viewBox="0 0 360 360" fill="none" xmlns="http://www.w3.org/2000/svg">
<rect width="360" height="360" rx="82" fill="#008540"/>
<path d="M171.37 156.465C108.645 170.919 102.373 229.553 104.282 253.007C111.099 251.643 117.917 249.734 123.917 247.825C123.644 226.553 131.281 187.282 176.551 176.1C223.731 164.646 250.73 201.463 258.639 221.371C265.73 221.644 272.275 222.19 279.093 223.553C278.548 208.281 242.003 139.829 171.37 156.465Z" fill="#FFE600"/>
<path d="M30.0996 220.279C30.645 217.279 32.8267 213.461 39.3719 214.552C48.6443 216.188 85.4611 225.461 84.3702 230.915C83.8248 233.915 79.1886 238.006 37.4629 229.551C29.5541 228.188 29.8269 222.188 30.0996 220.279Z" fill="#FFE600"/>
<path d="M67.1921 139.555C68.5556 137.101 72.6464 134.374 78.3734 137.919C86.2822 142.828 116.827 164.373 112.736 170.645C112.19 171.463 108.1 171.191 70.4647 151.01C63.374 147.464 66.1012 141.464 67.1921 139.555Z" fill="#FFE600"/>
<path d="M160.186 84.1934C163.186 83.3752 167.822 85.0115 169.186 91.8295C171.095 100.829 176.277 137.646 169.459 138.464C168.913 138.464 167.277 137.646 164.55 131.646C161.823 125.374 157.732 108.192 153.914 95.3748C152.005 87.466 158.277 84.4661 160.186 84.1934Z" fill="#FFE600"/>
<path d="M265.999 99.741C268.999 101.377 271.726 105.741 267.362 111.741C261.635 119.104 242.545 150.194 237.091 146.376C236.545 146.103 235.454 143.376 237.091 137.103C238.727 130.831 247.181 116.922 254.817 103.559C258.635 96.7411 263.817 98.6501 265.999 99.741Z" fill="#FFE600"/>
<path d="M332.815 160.01C334.724 163.01 334.997 168.465 328.452 171.465C319.997 175.555 288.635 193.555 285.362 187.555C285.09 187.009 285.362 184.282 290.271 179.919C295.453 175.555 307.998 166.556 320.815 158.374C327.361 154.283 331.451 158.101 332.815 160.01Z" fill="#FFE600"/>
</svg>
