<svg width="360" height="360" viewBox="0 0 360 360" fill="none" xmlns="http://www.w3.org/2000/svg">
<rect width="360" height="360" rx="82" fill="#003F86"/>
<path d="M179.985 25C144.742 25 112.242 36.7962 86.1802 56.6041H273.795C247.761 36.7962 215.261 25 179.985 25Z" fill="white"/>
<path d="M335 179.988C335 173.589 334.586 167.33 333.796 161.144H26.1701C25.4479 167.33 25 173.595 25 179.988C25 185.385 25.2743 190.715 25.7894 195.944H334.171C334.726 190.715 335 185.38 335 179.988Z" fill="white"/>
<path d="M179.984 335C216.986 335 250.891 322.039 277.54 300.474H82.4624C109.112 322.039 143.017 335 179.984 335Z" fill="white"/>
<path d="M307.181 91.4727H52.8195C45.323 102.166 39.1701 113.856 34.5625 126.274H325.443C320.836 113.856 314.644 102.166 307.181 91.4727Z" fill="white"/>
<path d="M33.5645 230.771C37.8642 243.188 43.6419 254.878 50.7913 265.611H309.178C316.327 254.878 322.139 243.188 326.438 230.771H33.5645Z" fill="white"/>
</svg>
