<svg width="360" height="360" viewBox="0 0 360 360" fill="none" xmlns="http://www.w3.org/2000/svg">
<rect width="360" height="360" rx="82" fill="black"/>
<path d="M143.881 330.427C143.881 291.759 143.881 253.515 143.881 215.271C106.063 215.271 68.2438 215.271 30 215.271C30.8499 214.421 31.2748 213.572 31.6997 213.147C42.323 202.523 52.9463 191.9 63.9944 181.277C64.8443 180.427 66.1191 179.577 67.3939 179.577C104.363 179.577 140.907 179.577 177.876 179.577C178.301 179.577 178.726 179.577 179.576 179.577C179.576 180.427 179.576 181.702 179.576 182.552C179.576 219.096 179.576 255.64 179.576 292.184C179.576 293.459 179.151 295.158 177.876 296.433C167.253 307.481 156.204 318.104 145.156 329.153C145.156 329.578 144.731 329.578 143.881 330.427Z" fill="white"/>
<path d="M180 179.151C180 177.876 180 177.026 180 176.176C180 140.057 180 104.363 180 68.2437C180 66.1191 180.424 64.8443 182.124 63.1446C192.322 52.9463 202.946 42.7479 213.144 32.1247C213.569 31.6997 214.419 30.8499 215.694 30C215.694 68.2437 215.694 106.063 215.694 143.881C253.937 143.881 291.756 143.881 330 143.881C329.15 144.731 329.15 145.156 328.725 145.581C318.102 156.204 307.479 167.253 296.855 177.876C296.006 178.726 294.731 179.151 293.456 179.151C256.487 179.151 219.518 179.151 182.549 179.151C181.274 179.576 180.849 179.151 180 179.151Z" fill="#D5190D"/>
</svg>
