<svg width="360" height="360" viewBox="0 0 360 360" fill="none" xmlns="http://www.w3.org/2000/svg">
<rect width="360" height="360" rx="82" fill="black"/>
<path d="M58 158.421V285.913L67.9789 213.158V148.391L58 158.421Z" fill="#97D700"/>
<path d="M91.1478 125.5L79.3086 137.386L67.9789 213.431L58 286.186L78.1962 212.828L91.1478 125.5Z" fill="#88D312"/>
<path d="M124.763 92.1953L109.858 107.054L78.1962 213.092L58 286.45L88.4088 213.789L124.763 92.1953Z" fill="#79CF25"/>
<path d="M160.234 56.2429L88.4088 213.354L58 286.015L98.4859 215.396L180.523 36L160.234 56.2429Z" fill="#6ACB37"/>
<path d="M58 285.621L108.325 218.162L206.894 61.9763L199.649 54.7363L98.4859 215.002L58 285.621Z" fill="#5BC74A"/>
<path d="M58 286.401L117.752 223.214L230.941 86.8085L223.842 79.7041L108.325 218.942L58 286.401Z" fill="#4CC35C"/>
<path d="M58 286.511L126.759 228.615L253.694 109.667L246.59 102.609L117.752 223.324L58 286.511Z" fill="#43C168"/>
<path d="M58 286.304L135.209 234.629L275.84 131.605L268.688 124.454L126.759 228.408L58 286.304Z" fill="#39BE73"/>
<path d="M58 286.154L143.057 241.49L298.032 153.647L290.698 146.313L135.209 234.479L58 286.154Z" fill="#30BC7F"/>
<path d="M58 286.334L150.39 249.47L303 184.24V173.373L143.057 241.669L58 286.334Z" fill="#26B98B"/>
<path d="M58 285.986L157.121 257.526L303 213.002V202.509L150.39 249.122L58 285.986Z" fill="#1CB796"/>
<path d="M58 285.535L163.3 266.036L303 238.735V228.522L157.121 257.076L58 285.535Z" fill="#13B5A2"/>
<path d="M58 286.237L168.96 276.253L303 263.582V253.505L163.3 266.737L58 286.237Z" fill="#0AB2AD"/>
<path d="M58 286.379H303V276.396H168.96L58 286.379Z" fill="#00B0B9"/>
</svg>
