<svg width="360" height="360" viewBox="0 0 360 360" fill="none" xmlns="http://www.w3.org/2000/svg">
<rect width="360" height="360" rx="82" fill="#1870CA"/>
<rect x="25" y="25" width="310" height="310" rx="155" fill="white"/>
<path d="M335 180C335 94.5583 265.442 25 180 25C94.5584 25 25 94.5583 25 180C25 265.442 94.5584 335 180 335C265.442 335 335 265.989 335 180ZM327.332 180C327.332 261.608 261.608 327.332 180 327.332C98.3923 327.332 32.6679 261.608 32.6679 180C32.6679 98.3922 98.94 32.6678 180 32.6678C261.608 32.6678 327.332 98.9399 327.332 180ZM318.021 180C318.021 131.254 293.375 80.318 239.7 64.4346C228.746 61.1484 219.435 58.9576 208.481 58.9576C183.834 58.9576 182.739 73.1979 171.237 73.1979C164.664 73.1979 160.283 68.8162 160.283 62.7915C160.283 52.9329 171.785 45.265 190.406 45.265C207.385 45.265 221.078 49.6466 223.269 50.742L223.816 49.6466C219.435 48.0035 203.004 42.5265 180 42.5265C130.707 42.5265 80.3181 67.7208 64.4347 120.848C61.1485 131.802 58.9577 141.661 58.9577 152.067C58.9577 177.261 73.198 178.357 73.198 189.859C73.198 195.883 68.8164 200.265 62.7916 200.265C52.933 200.265 45.2651 188.763 45.2651 170.141C45.2651 153.163 49.6467 139.47 50.1944 137.279L49.0991 136.731C48.0037 141.661 41.9787 157.544 41.9787 180.548C41.9787 230.389 67.1733 280.23 120.3 296.661C131.255 299.947 141.113 302.138 151.519 302.138C176.714 302.138 177.262 287.35 188.763 287.35C194.788 287.35 199.717 292.279 199.717 298.304C199.717 307.615 188.216 315.283 169.594 315.283C152.615 315.283 138.922 310.901 136.732 310.353L136.184 311.449C141.113 313.64 156.997 318.021 180 318.021C229.293 318.021 279.682 292.827 295.565 239.7C298.852 228.746 301.043 219.435 301.043 209.028C301.043 183.834 286.802 182.738 286.802 171.237C286.802 164.664 291.184 160.283 297.209 160.283C307.067 160.283 314.735 171.784 314.735 190.954C314.735 207.933 310.353 221.078 309.806 223.816L310.901 224.364C313.092 218.887 318.021 203.004 318.021 180ZM265.99 221.078C265.99 240.247 249.558 260.512 224.912 260.512C195.336 260.512 180.548 235.318 180.548 213.41C180.548 182.191 201.908 169.046 211.219 164.117C209.576 163.021 207.933 161.378 206.838 159.187C196.431 166.307 187.12 172.88 167.403 184.382C166.308 198.074 165.212 212.862 161.926 223.269C154.806 245.177 139.47 261.06 119.753 261.06C103.322 261.06 95.1061 249.011 95.1061 235.866C95.1061 226.555 100.583 214.505 110.442 205.194C123.039 194.24 136.732 187.12 155.353 177.261C155.901 174.523 156.449 172.332 156.449 169.046C151.52 173.428 144.947 175.071 139.47 175.071C130.707 175.071 123.039 167.403 121.396 159.187C109.346 158.092 100.583 149.876 100.035 136.184C100.035 126.325 103.869 117.562 110.442 117.562C113.18 117.562 113.728 119.753 113.728 121.396C113.728 123.039 111.537 128.516 111.537 133.993C111.537 139.47 114.276 147.138 120.848 147.138C120.848 124.682 137.279 96.2014 156.449 96.2014C169.046 96.2014 171.237 105.512 171.237 109.894C171.237 130.159 150.972 152.615 134.541 158.092C135.088 159.735 136.732 164.664 141.661 164.664C148.233 164.664 155.901 158.64 159.735 153.71C161.378 144.947 167.951 131.802 176.714 131.802C180 131.802 181.643 134.541 181.643 137.279C181.643 143.852 175.071 152.067 169.594 157.544C169.046 161.926 168.498 166.855 168.498 170.689C183.286 161.378 190.954 156.996 202.456 148.781C201.361 146.042 201.36 142.208 201.36 138.922C201.36 118.657 214.505 96.2014 232.032 96.2014C241.891 96.2014 246.82 103.322 246.82 110.989C246.82 125.777 234.223 138.375 216.696 151.519C217.792 154.806 219.982 158.092 223.269 159.735C223.816 158.64 229.293 158.092 234.223 158.092C239.152 158.092 246.82 159.187 246.82 164.664C246.82 170.689 238.604 171.784 232.032 171.784C228.746 172.332 222.721 170.689 222.721 170.689C213.41 173.428 195.336 183.834 195.336 211.219C195.336 229.841 206.838 246.82 224.912 246.82C238.604 246.82 249.558 236.413 250.106 220.53C250.106 210.124 245.724 199.717 235.318 199.717C230.389 199.717 225.459 203.551 225.459 209.028C224.912 217.792 231.484 218.339 231.484 223.816C231.484 227.65 228.746 229.293 225.459 229.293C216.696 229.293 210.124 220.53 210.124 210.124C210.124 196.979 221.626 186.572 235.866 186.572C256.679 187.12 265.99 203.551 265.99 221.078ZM234.77 113.18C234.77 110.989 234.223 108.251 231.484 108.251C224.912 108.251 215.053 121.943 215.053 139.47C227.65 128.516 234.77 119.205 234.77 113.18ZM158.64 111.537C158.64 109.346 157.544 108.799 155.901 108.799C146.59 108.799 133.993 132.35 133.993 146.59C147.686 138.375 158.64 120.848 158.64 111.537ZM153.71 191.502C134.541 200.813 109.894 217.792 109.894 235.866C109.894 242.438 113.18 246.82 119.753 246.82C138.375 247.367 149.876 217.244 153.71 191.502Z" fill="#1870CA"/>
</svg>
