<svg width="360" height="360" viewBox="0 0 360 360" fill="none" xmlns="http://www.w3.org/2000/svg">
<rect width="360" height="360" rx="82" fill="#E10601"/>
<path d="M86.4381 188.35C118.066 181.555 113.749 143.715 112.822 135.447C111.263 122.694 96.2735 100.424 75.9335 102.203C50.3248 104.484 46.5865 141.475 46.5865 141.475C43.1176 158.603 54.8629 195.161 86.4381 188.35ZM145.173 124.918C162.632 124.918 176.744 104.798 176.744 79.9448C176.744 55.087 162.632 35 145.173 35C127.706 35 113.557 55.087 113.557 79.9448C113.557 104.798 127.702 124.918 145.173 124.918ZM220.444 127.877C243.816 130.938 258.79 106.006 261.785 87.1152C264.846 68.2484 249.746 46.3045 233.238 42.5377C216.657 38.726 195.958 65.2692 194.093 82.5852C191.819 103.766 197.096 124.885 220.444 127.877ZM312.998 159.615C312.998 150.58 305.518 123.343 277.66 123.343C249.746 123.343 246.057 149.045 246.057 167.206C246.057 184.538 247.501 208.715 282.166 207.964C316.794 207.196 312.998 168.712 312.998 159.615ZM277.66 238.935C277.66 238.935 241.531 210.988 220.444 180.772C191.811 136.219 151.188 154.363 137.606 176.988C124.066 199.671 103.015 213.995 100.004 217.799C96.9632 221.525 56.3689 243.461 65.3758 283.516C74.4031 323.539 106.06 322.78 106.06 322.78C106.06 322.78 129.391 325.062 156.449 319.009C183.563 312.974 206.891 320.491 206.891 320.491C206.891 320.491 270.139 341.7 287.422 300.889C304.726 260.112 277.66 238.935 277.66 238.935Z" fill="#2319DC"/>
<path d="M150.784 199.978V226.864H128.877C128.877 226.864 106.982 228.68 99.3177 253.497C96.6446 270.066 101.677 279.824 102.554 281.909C103.44 283.99 110.516 296.111 128.285 299.67H169.394V200.271L150.784 199.978ZM150.453 283.354H133.892C133.892 283.354 122.355 282.754 118.842 269.47C117.03 263.585 119.111 256.786 120.025 254.113C120.862 251.436 124.735 245.249 132.721 242.865H150.449L150.453 283.354Z" fill="white"/>
<path d="M179.467 229.277V281.612C179.467 281.612 180.324 294.635 198.689 299.381H245.997V229.269H225.579V281.902H206.096C206.096 281.902 199.869 280.996 198.697 275.993V228.967L179.467 229.277Z" fill="white"/>
</svg>
