<svg width="360" height="360" viewBox="0 0 360 360" fill="none" xmlns="http://www.w3.org/2000/svg">
<rect width="360" height="360" rx="82" fill="url(#paint0_angular)"/>
<circle cx="180" cy="180" r="155.455" fill="#4681C7" fill-opacity="0.06"/>
<circle cx="180" cy="180" r="155.205" stroke="#2869BF" stroke-opacity="0.04" stroke-width="0.5"/>
<path d="M221.545 221.947C217.918 224.607 215.258 226.3 215.258 226.3C174.629 256.53 122.392 270.556 122.392 270.556C122.392 270.556 118.764 271.524 114.411 273.216C137.386 296.191 169.308 310.459 204.617 310.459C247.18 310.459 285.149 290.145 308.123 257.255C285.149 266.203 253.468 249.516 221.545 221.947Z" fill="url(#paint1_linear)"/>
<path d="M333.033 174.063C333.033 173.095 333.033 172.37 333.033 171.403C333.033 169.71 333.033 167.775 332.066 166.082C332.066 165.115 332.066 164.389 332.066 163.422C332.066 161.729 331.098 159.069 331.098 157.134V156.167C330.131 153.507 330.131 150.846 329.405 149.154C329.405 148.186 329.405 148.186 328.438 147.461C327.471 145.768 327.471 143.833 326.745 142.14C326.745 141.173 325.778 140.447 325.778 140.447C324.81 138.754 324.81 136.82 324.085 135.127C324.085 134.16 323.118 134.16 323.118 133.434C322.15 131.741 321.425 129.081 320.457 127.146C320.457 126.179 319.49 125.453 319.49 125.453C318.523 123.76 317.797 122.793 317.797 121.1L316.83 120.133C306.189 141.415 276.201 160.762 238.958 174.063C240.651 181.076 241.618 190.024 238.958 198.005C236.298 207.678 227.35 216.626 221.304 221.947C252.259 249.516 285.149 266.203 308.124 258.222C312.477 251.935 317.072 245.889 319.732 238.634C319.732 237.666 320.699 237.666 320.699 236.941C321.666 235.973 321.666 234.28 322.392 233.313C323.359 232.346 323.359 231.62 324.085 229.686C324.085 228.718 325.052 227.993 325.052 227.993C326.02 226.3 326.02 225.332 326.745 224.365C326.745 223.398 326.745 223.398 327.712 222.672C328.68 220.979 328.68 220.012 329.405 218.319V217.594C331.098 212.273 332.066 206.953 333.033 201.632V200.665C333.033 198.005 334 196.312 334 193.652C334 192.684 334 192.684 334 191.959C334 189.299 334 186.638 334 183.978C333.033 179.383 333.033 176.723 333.033 174.063Z" fill="url(#paint2_linear)"/>
<path d="M312.717 112.152C311.75 111.185 311.024 109.492 310.057 108.525C308.364 106.832 307.396 104.172 305.704 102.237C304.736 101.27 304.736 100.544 304.011 99.5768C303.043 97.8839 301.351 96.9166 300.383 95.2237C276.441 69.5889 242.826 53.6276 204.857 53.6276C192.523 53.6276 180.915 55.3204 169.549 58.948C176.562 66.9286 181.883 72.2491 181.883 72.2491C181.883 72.2491 217.191 112.878 235.087 160.036C235.087 160.036 237.747 165.357 238.714 172.37C274.99 158.102 305.945 139.722 316.586 118.44C315.377 116.505 314.41 113.845 312.717 112.152Z" fill="url(#paint3_linear)"/>
<path d="M239.199 173.337C237.506 166.324 235.572 161.003 235.572 161.003C217.917 114.087 182.367 73.2162 182.367 73.2162C182.367 73.2162 177.047 66.9285 170.033 59.9152C168.341 60.8825 167.373 60.8825 165.68 61.608C165.68 61.608 165.68 61.608 164.713 61.608C163.02 62.5754 162.053 62.5754 160.36 63.3009C160.36 63.3009 160.36 63.3009 159.393 63.3009C155.039 64.9937 150.445 66.9285 146.091 69.5887C145.124 70.556 144.399 70.556 142.464 71.2815C141.497 71.2815 141.497 72.2489 140.771 72.2489C139.804 73.2162 139.078 73.2163 138.111 73.9418C137.143 73.9418 136.418 74.9091 136.418 74.9091C135.451 75.8765 134.725 75.8765 133.758 76.602C132.79 77.5693 132.065 77.5693 131.097 78.2948C130.13 79.2622 129.405 79.2622 129.405 79.9877C128.437 80.9551 127.712 81.6806 126.744 82.6479L125.777 83.6153C124.084 84.5826 123.117 86.2755 121.424 87.2429L120.457 88.2102C119.489 89.1775 117.796 89.9031 116.829 90.8704C91.1942 113.12 76.9258 145.768 76.9258 182.043C76.9258 194.377 78.6186 205.985 82.2462 217.352C84.9064 225.332 87.5667 233.313 91.9197 240.326V241.294C91.9197 242.986 92.8871 243.954 93.6126 244.921C93.6126 244.921 93.6126 245.889 94.58 245.889C95.5473 246.856 96.2728 248.549 97.2402 249.516C99.9004 253.144 102.561 257.497 105.221 261.124C105.221 262.092 106.188 262.092 106.188 262.817C107.156 263.785 107.881 264.51 108.848 265.477C109.816 266.445 109.816 266.445 110.541 267.17C111.509 268.138 112.234 268.863 112.234 269.831C113.201 270.798 113.201 270.798 113.927 271.523C114.894 272.491 114.894 272.491 115.62 273.216C119.973 272.249 123.601 270.556 123.601 270.556C123.601 270.556 175.838 255.562 216.466 226.3C216.466 226.3 219.127 224.607 222.754 221.947C229.042 216.626 237.023 207.678 240.408 198.005C241.859 189.298 240.892 180.35 239.199 173.337Z" fill="url(#paint4_radial)"/>
<path d="M160.359 137.787C152.378 115.538 140.045 94.4982 129.404 79.2624C117.796 61.6082 108.122 50 108.122 50C108.122 50 49.5973 76.6022 31.9432 135.127C14.289 193.652 49.5973 247.582 49.5973 247.582C49.5973 247.582 67.2515 242.261 89.5006 232.588C106.429 225.574 124.809 215.659 141.738 203.325C141.738 203.325 160.359 190.992 164.712 175.03C168.34 159.069 160.359 137.787 160.359 137.787Z" fill="url(#paint5_radial)"/>
<defs>
<radialGradient id="paint0_angular" cx="0" cy="0" r="1" gradientUnits="userSpaceOnUse" gradientTransform="translate(180 180) rotate(90) scale(180)">
<stop offset="0.293564" stop-color="#7AB7F3" stop-opacity="0.15"/>
<stop offset="0.587768" stop-color="#89EB62" stop-opacity="0.15"/>
<stop offset="0.766769" stop-color="#C7FB6C" stop-opacity="0.15"/>
<stop offset="0.965944" stop-color="#EDF478" stop-opacity="0.15"/>
</radialGradient>
<linearGradient id="paint1_linear" x1="159.809" y1="318.164" x2="264.583" y2="213.39" gradientUnits="userSpaceOnUse">
<stop stop-color="#C4CA80"/>
<stop offset="0.5048" stop-color="#DBE08C"/>
</linearGradient>
<linearGradient id="paint2_linear" x1="327.048" y1="124.78" x2="256.484" y2="247.001" gradientUnits="userSpaceOnUse">
<stop stop-color="#9FBC6E"/>
<stop offset="0.4025" stop-color="#AFCE79"/>
</linearGradient>
<linearGradient id="paint3_linear" x1="291.236" y1="151.592" x2="174.282" y2="53.4558" gradientUnits="userSpaceOnUse">
<stop stop-color="#9EC382"/>
<stop offset="0.1641" stop-color="#83B06B"/>
<stop offset="0.3227" stop-color="#70A35A"/>
<stop offset="0.4324" stop-color="#699E54"/>
</linearGradient>
<radialGradient id="paint4_radial" cx="0" cy="0" r="1" gradientUnits="userSpaceOnUse" gradientTransform="translate(158.738 165.92) scale(95.4406)">
<stop stop-color="#496F93"/>
<stop offset="0.8595" stop-color="#6799CB"/>
</radialGradient>
<radialGradient id="paint5_radial" cx="0" cy="0" r="1" gradientUnits="userSpaceOnUse" gradientTransform="translate(95.7598 149.214) scale(85.5236)">
<stop stop-color="#E6F2F8"/>
<stop offset="0.0897934" stop-color="#D1E3F1"/>
<stop offset="0.279" stop-color="#ABC9E3"/>
<stop offset="0.4672" stop-color="#8DB4D9"/>
<stop offset="0.652" stop-color="#78A5D1"/>
<stop offset="0.8316" stop-color="#6B9CCD"/>
<stop offset="1" stop-color="#6799CB"/>
</radialGradient>
</defs>
</svg>
