<svg width="360" height="360" viewBox="0 0 360 360" fill="none" xmlns="http://www.w3.org/2000/svg">
<rect width="360" height="360" rx="82" fill="#FAB834"/>
<path d="M277.311 167.299L280.562 153.53H273.295V113.37H277.311L280.562 98.4539H273.295V63.2666H79V296H273.295V232.127H277.311L280.562 217.402H273.295V167.299H277.311Z" fill="black"/>
<path d="M280.561 73.9761V56H86.457V127.331C108.64 146.263 129.103 165.769 148.8 187.187C188.003 144.351 232.178 106.677 280.561 73.9761Z" fill="#FAB834"/>
<path d="M280.561 183.746V153.34C249.39 180.304 220.705 211.475 195.271 244.368C200.243 251.826 205.98 258.328 210.761 265.595C231.414 236.145 255.127 209.181 280.561 183.746Z" fill="#FAB834"/>
<path d="M164.29 205.929C169.262 212.431 174.999 218.168 179.78 224.861C210.187 187.952 243.653 154.295 280.561 125.61V98.6455C237.916 129.626 198.712 165.769 164.29 205.929Z" fill="#FAB834"/>
<path d="M164.29 244.366C159.318 237.864 153.581 230.406 148.8 223.904C143.063 230.406 138.09 237.1 133.31 244.366C139.047 251.825 144.019 258.327 148.8 265.594C153.581 259.092 158.553 251.825 164.29 244.366Z" fill="#FAB834"/>
<path d="M179.78 266.55C174.808 274.008 169.071 281.275 164.29 289.498H194.696C189.724 281.275 184.752 274.008 179.78 266.55Z" fill="#FAB834"/>
<path d="M117.437 266.55C112.465 274.008 107.684 281.275 102.712 289.498H133.118C128.146 281.275 122.409 274.008 117.437 266.55Z" fill="#FAB834"/>
<path d="M225.678 288.733H280.562V216.638C260.865 239.586 242.124 263.299 225.678 288.733Z" fill="#FAB834"/>
<path d="M86.457 265.785C91.4292 258.327 96.21 251.825 101.182 244.558C96.21 238.056 91.4292 231.363 86.457 225.626V265.785Z" fill="#FAB834"/>
<path d="M116.673 224.669C121.645 218.167 127.382 211.474 132.163 205.737C117.438 188.526 101.757 173.036 86.2666 157.354V190.056C96.9758 200.956 106.92 212.43 116.673 224.669Z" fill="#FAB834"/>
</svg>
