<svg width="360" height="360" viewBox="0 0 360 360" fill="none" xmlns="http://www.w3.org/2000/svg">
<rect width="360" height="360" rx="82" fill="black"/>
<path d="M266.841 187.813C283.811 181.392 303.533 166.715 303.533 142.407C303.533 112.136 277.39 97 240.239 97C191.622 97 191.622 97 191.622 97C191.622 258.905 191.622 258.905 191.622 258.905C220.517 258.905 220.517 258.905 220.517 258.905C220.517 192.4 220.517 192.4 220.517 192.4C237.487 192.4 237.487 192.4 237.487 192.4C282.435 258.905 282.435 258.905 282.435 258.905C315 258.905 315 258.905 315 258.905L266.841 187.813ZM234.735 171.76C220.517 171.76 220.517 171.76 220.517 171.76C220.517 116.263 220.517 116.263 220.517 116.263C238.405 116.263 238.405 116.263 238.405 116.263C261.796 116.263 274.638 123.602 274.638 143.783C274.638 165.339 259.044 171.76 234.735 171.76Z" fill="white"/>
<path d="M134.768 172.219C148.986 167.633 162.746 156.625 162.746 136.444C162.746 97.0001 115.046 97 99.9104 97C49 97 49 97 49 97C49 258.905 49 258.905 49 258.905C97.6172 258.905 97.6172 258.905 97.6172 258.905C126.054 258.905 171.919 252.025 171.919 212.122C171.919 190.107 158.618 175.888 134.768 172.219ZM96.2413 116.722C117.798 116.722 132.475 119.015 132.475 138.279C132.475 164.422 105.873 163.046 93.0307 163.046C78.3538 163.046 78.3538 163.046 78.3538 163.046C78.3538 116.264 78.3538 116.263 78.3538 116.263L96.2413 116.722ZM96.6999 237.806C78.3538 237.348 78.3538 237.348 78.3538 237.348C78.3538 184.144 78.3538 184.144 78.3538 184.144C95.324 184.144 95.3239 184.144 95.3239 184.144C121.008 184.144 141.648 187.813 141.648 210.746C141.648 233.22 124.678 237.806 96.6999 237.806Z" fill="white"/>
</svg>
