<svg width="360" height="360" viewBox="0 0 360 360" fill="none" xmlns="http://www.w3.org/2000/svg">
<rect width="360" height="360" rx="82" fill="#4CADC7"/>
<path d="M81 303.735C93.1779 282.078 100.618 268.344 113.146 248.709C150.561 192.511 156.745 173.879 197.27 121.736C201.574 117.63 218.132 95.8122 222.217 92.5749C198.456 90.5425 171.254 100.02 163.089 103.113C130.723 118.642 113.146 140.519 110.026 146.8C105.777 154.033 103.737 164.352 106.962 170.641C109.006 174.899 114.166 180.969 125.619 180.969C119.274 188.422 112.121 188.421 104.762 188.421C92.4487 188.421 86.1089 180.969 82.8842 173.879C79.9209 165.431 82.0198 155.054 85.0846 147.803C95.509 122.908 128.683 103.113 145.452 96.8318C177.602 85.3325 194.211 81.2268 230.605 83.4699C237.801 76.0167 247.218 69.9045 252.537 66.7009C261.73 60.4285 271.139 60.4286 277.483 61.4318C283.654 62.452 284.678 67.7211 283.654 71.9279C282.643 75.0051 280.383 77.0368 277.483 80.2235C276.298 76.0167 272.151 69.9045 263.821 72.9395C259.686 75.005 255.597 78.2002 245.169 86.3536C254.463 88.8564 261.031 91.7913 265.166 95.5935C268.095 98.3071 270.035 100.862 271.139 103.113C274.579 110.177 278.495 124.922 267.915 139.516C262.755 145.738 250.278 164.352 212.812 170.641C222.217 176.914 238.825 186.23 231.629 214.329C229.581 224.657 218.132 254.991 189.051 269.355C179.807 273.613 166.15 275.637 152.656 269.355C145.452 266.321 140.128 260.039 135.883 254.991L144.271 236.147C143.412 239.393 140.128 244.452 141.152 247.546C145.452 254.991 158.958 257.738 168.299 258.186C174.837 258.497 180.658 256.659 185.822 252.967C205.018 239.234 223.616 199.483 212.812 186.23C208.665 179.721 202.598 176.914 194.211 175.911C187.006 175.911 179.865 176.736 173.353 182.184L185.822 160.315C184.962 163.341 186.34 163.864 187.006 164.352C190.488 166.974 202.598 167.446 212.812 164.352C241.034 155.054 258.662 122.908 255.597 108.323C254.615 104.824 251.462 97.836 236.949 93.7978C232.7 96.8318 218.132 115.615 205.659 134.39C188.026 160.315 169.378 189.266 153.676 221.621C140.128 246.526 133.843 263.295 122.554 290.163L81 303.735Z" fill="white"/>
</svg>
