<svg width="360" height="360" viewBox="0 0 360 360" fill="none" xmlns="http://www.w3.org/2000/svg">
<rect width="360" height="360" rx="82" fill="#263D96"/>
<path fill-rule="evenodd" clip-rule="evenodd" d="M159.425 29.4471L153.559 32.8146L148.411 36.7252L146.81 40.2809L144.674 43.3004L144.174 44.3863L144 45.4723L144.326 46.675L146.281 52.0048L149.656 54.141L153.559 58.58L156.405 61.2452L160.489 63.1994L164.58 64.4454H170.265L174.002 65.1558L178.079 65.5107L183.59 65.8659L188.912 66.2211L195.488 65.6914L200.47 64.2647L206.509 61.7737L209.182 58.7611L212.194 55.9151L214.685 52.0045L214.496 47.9204L213.439 42.0547L207.045 32.8143L201.36 28.5491L198.558 27.1738L196.45 26.3487L194.43 26.0653L187.854 26.6012L181.286 25.5215L178.078 25L174.001 25.8827L168.664 26.599L165.289 27.8369L159.425 29.4471Z" fill="#F15029"/>
<path fill-rule="evenodd" clip-rule="evenodd" d="M151.078 126.638L182.702 127.355L187.424 126.37L193.507 126.246L199.568 126.876L204.203 128.18L207.744 130.621L209.033 132.236L209.851 134.01L210.054 135.9L209.511 137.811L208.084 139.708L205.665 141.504L201.987 142.229L195.571 142.243L178.22 140.933L151.701 137.921L150.694 137.48L150.1 136.437L149.84 133.193L151.078 126.638Z" fill="#ED192E"/>
<path fill-rule="evenodd" clip-rule="evenodd" d="M155.699 172.827L160.494 174.68L162.912 175.549L165.287 175.487L186.78 174.516L195.398 175.261L202.154 176.92L205.181 177.725L206.919 178.435L208.339 179.492L209.86 182.171L210.106 184.8L209.461 187.016L208.288 188.457V189.898L187.273 189.857L180.234 189.939L173.289 189.332L166.294 188.1L160.095 187.1L155.569 186.412L153.809 185.928L152.585 184.784L150.811 181.091L150.015 177.101L155.699 172.843L155.699 172.827ZM159.957 155.789L162.673 157.476L164.44 158.505L166.359 159.026L167.757 158.743L169.343 157.955L170.972 157.173L172.529 156.855L175.303 157.832L178.257 158.846L180.734 158.093L183.239 157.339L186.23 158.447L187.671 159.026H189.098L198.309 157.774L205.362 158.903L205.819 159.201L205.985 159.556L205.79 160.424L205.479 161.358L205.761 162.272L207.513 163.306L209.498 164.082L210.287 164.676L210.808 165.552L210.954 166.833L210.599 168.621L209.947 169.512L208.709 170.2L204.704 171.062L192.126 171.554L174.08 169.201L158.402 166.318L156.099 165.348L154.339 163.305L153.238 160.843L152.855 158.627L159.957 155.789Z" fill="#EC047C"/>
<path fill-rule="evenodd" clip-rule="evenodd" d="M155.701 196.995L165.289 198.241L168.446 198.567L171.234 198.112L174.906 197.722L180.706 198.2L189.034 198.323L197.449 197.882L200.287 197.82L202.793 198.826L207.138 202.476L208.557 204.243L209.412 206.38L209.622 208.654L209.086 210.964L206.544 218.104L205.081 221.232L202.96 223.745L201.779 224.289L200.288 224.391L196.754 223.727L193.046 222.727L189.86 222.329L187.6 222.907L185.558 223.885L183.458 224.776L181.061 225.042L174.254 223.26L170.438 222.696L165.999 223.472L164.796 223.554L163.703 223.076L162.61 222.497L161.386 222.185L158.685 222.103L157.671 221.805L157.113 221.169L153.92 216.187L150.4 212.088L148.995 210.22L148.503 208.011L149.35 205.412L151.233 202.653L155.701 196.995Z" fill="#AA118E"/>
<path fill-rule="evenodd" clip-rule="evenodd" d="M168.135 246.756L171.655 246.571L175.24 246.918L195.632 248.932L201.353 249.808L206.798 251.307L209.239 252.805L211.411 255.043L213.251 258.251L214.692 262.596L215.764 269.983L215.408 273.668L214.025 277.079L212.172 279.273L209.688 281.15L203.119 284.01L185.776 286.204L180.338 285.494L174.993 283.996L169.75 282.526L164.587 281.933L157.331 281.056L151.921 278.384L148.279 274.575L146.324 270.251L145.846 265.407L147.004 261.279L149.365 257.854L152.494 255.051L159.308 251.293L163.964 249.677L165.108 249.098L165.898 248.279L166.767 247.432L168.135 246.756Z" fill="#3A3899"/>
<path fill-rule="evenodd" clip-rule="evenodd" d="M184.71 296.714L191.379 297.321L198.339 299.871L200.366 301.761L202.032 303.303L205.559 304.056L207.188 304.52L208.289 305.526L210.063 313.463L210.208 318.525L209.397 322.696L207.877 325.353L205.762 327.634L200.049 331.262L192.865 333.659L184.841 334.877L176.564 335L168.663 334.123L161.74 332.299L156.411 329.597L154.745 328.012L153.601 326.136L152.189 321.878L151.696 317.135L152.674 313.007L154.796 309.488L157.758 306.526L164.905 302.398L171.56 300.545L178.259 298.525L184.71 296.714Z" fill="#062849"/>
</svg>
