<svg width="360" height="360" viewBox="0 0 360 360" fill="none" xmlns="http://www.w3.org/2000/svg">
<rect width="360" height="360" rx="82" fill="url(#paint0_radial)"/>
<path fill-rule="evenodd" clip-rule="evenodd" d="M180.375 171.102L252.433 45H107.567L180.375 171.102ZM229.165 60.7627C234.419 58.5109 237.421 56.2591 241.174 54.0072L241.925 54.7579C239.673 57.7603 236.671 60.0121 234.419 65.2663L188.632 144.08C185.63 148.584 184.128 152.337 182.627 156.09L181.876 155.339C181.876 150.835 182.627 146.332 182.627 141.077V88.5351L229.165 60.7627ZM177.373 88.5351V141.077C177.373 146.332 178.123 150.835 178.123 155.339L177.373 156.09C175.872 152.337 174.37 148.584 171.368 144.08L126.332 65.2663C123.329 60.0121 120.327 57.7603 118.075 54.7579L118.826 54.0072C122.579 56.2591 125.581 58.5109 130.835 60.7627L177.373 88.5351ZM213.402 158.341C208.148 161.344 205.145 163.596 201.392 165.847L200.642 165.097C202.893 162.094 205.896 159.092 208.148 153.838L253.935 75.7748C256.937 71.2712 258.438 66.7675 259.939 63.7651H260.69C260.69 68.2688 259.939 73.523 259.939 78.0266V131.32L213.402 158.341ZM100.811 131.32V78.0266C100.811 73.523 100.06 68.2688 100.06 63.7651H100.811C101.562 66.7675 103.063 71.2712 106.065 75.7748L151.852 153.838C154.855 159.092 157.107 162.094 159.358 165.097L158.608 165.847C155.605 163.596 151.852 161.344 146.598 158.341L100.811 131.32ZM265.194 131.32V78.0266C265.194 73.523 264.443 68.2688 264.443 63.7651H265.194C266.695 66.7675 268.196 71.2712 271.198 75.7748L316.235 153.838C319.237 159.092 322.24 162.094 324.491 165.097L323.741 165.847C319.988 163.596 316.985 161.344 311.731 158.341L265.194 131.32ZM48.2687 158.341C43.0145 161.344 40.0121 163.596 36.2591 165.847V165.097C37.7603 162.094 40.7627 159.092 43.7651 153.838L89.552 75.7748C91.8039 71.2712 93.3051 66.7675 94.8063 63.7651H95.5569C95.5569 68.2688 94.8063 73.523 94.8063 78.0266V131.32L48.2687 158.341ZM182.627 270.932V217.639C182.627 213.136 181.876 207.881 181.876 203.378H182.627C184.128 206.38 185.63 210.884 188.632 215.387L234.419 294.201C236.671 298.705 239.673 301.707 241.925 304.709L241.174 305.46C237.421 303.208 234.419 300.956 229.165 297.954L182.627 270.932ZM130.835 297.954C125.581 300.956 122.579 303.208 118.826 305.46L118.075 304.709C120.327 301.707 123.329 298.705 126.332 294.201L171.368 215.387C174.37 210.884 175.872 206.38 177.373 203.378H178.123C178.123 207.881 177.373 213.136 177.373 217.639V270.932L130.835 297.954ZM97.8087 310.714L169.867 184.613H25L97.8087 310.714ZM146.598 201.126C151.852 198.123 155.605 195.872 158.608 193.62L159.358 194.37C157.107 197.373 154.855 200.375 151.852 204.879L106.065 283.692C103.063 288.196 101.562 292.7 100.811 295.702L100.06 294.952C100.06 291.199 100.811 285.944 100.811 281.441V228.148L146.598 201.126ZM94.8063 228.148V281.441C94.8063 285.944 95.5569 291.199 95.5569 294.952L94.8063 295.702C93.3051 292.7 91.8039 288.196 89.552 283.692L43.7651 204.879C40.7627 200.375 37.7603 197.373 36.2591 194.37V193.62C40.0121 195.872 43.0145 198.123 48.2687 201.126L94.8063 228.148ZM262.191 310.714L335 184.613H190.133L262.191 310.714ZM259.939 228.148V281.441C259.939 285.944 260.69 291.199 260.69 294.952L259.939 295.702C258.438 292.7 256.937 288.196 253.935 283.692L208.148 204.879C205.896 200.375 202.893 197.373 200.642 194.37L201.392 193.62C205.145 195.872 208.148 198.123 213.402 201.126L259.939 228.148ZM311.731 201.126C316.985 198.123 319.988 195.872 323.741 193.62L324.491 194.37C322.24 197.373 319.237 200.375 316.235 204.879L271.198 283.692C268.196 288.196 266.695 292.7 265.194 295.702L264.443 294.952C264.443 291.199 265.194 285.944 265.194 281.441V228.148L311.731 201.126ZM223.16 51.0048C229.165 51.0048 233.668 50.2542 238.172 49.5036V50.2542C235.169 51.7555 230.666 53.2566 226.162 56.2591L180.375 83.2808L133.838 56.2591C129.334 53.2566 124.83 51.7555 121.828 50.2542V49.5036C126.332 50.2542 130.835 51.0048 136.84 51.0048H223.16ZM141.344 190.617C146.598 190.617 151.102 189.867 155.605 189.867C152.603 191.368 148.099 192.869 143.596 195.872L97.8087 222.893L51.2712 195.872C47.5182 192.869 42.2639 191.368 39.2615 189.867C43.7651 189.867 48.2687 190.617 54.2736 190.617H141.344ZM305.726 190.617C311.731 190.617 316.235 189.867 320.738 189.867C317.736 191.368 313.232 192.869 308.729 195.872L262.191 222.893L216.404 195.872C211.901 192.869 207.397 191.368 204.395 189.867C208.898 189.867 213.402 190.617 219.407 190.617H305.726ZM54.2736 168.85C48.2687 168.85 43.7651 168.85 39.2615 169.6V168.85C42.2639 167.349 47.5182 165.847 51.2712 163.596L97.8087 136.574L143.596 163.596C148.099 165.847 152.603 167.349 155.605 168.85V169.6C151.102 168.85 146.598 168.85 141.344 168.85H54.2736ZM25 174.855H169.867L97.8087 48.753L25 174.855ZM219.407 168.85C213.402 168.85 208.898 168.85 204.395 169.6V168.85C207.397 167.349 211.901 165.847 216.404 163.596L262.191 136.574L308.729 163.596C313.232 165.847 317.736 167.349 320.738 168.85V169.6C316.235 168.85 311.731 168.85 305.726 168.85H219.407ZM190.133 174.855H335L262.191 48.753L190.133 174.855ZM107.567 314.467H252.433L180.375 188.366L107.567 314.467ZM136.84 308.462C130.835 308.462 126.332 308.462 121.828 309.213V308.462C124.83 307.712 129.334 306.211 133.838 303.208L180.375 276.186L226.162 303.208C230.666 306.211 235.169 307.712 238.172 308.462V309.213C233.668 308.462 229.165 308.462 223.16 308.462H136.84Z" fill="#2E4B7D"/>
<defs>
<radialGradient id="paint0_radial" cx="0" cy="0" r="1" gradientUnits="userSpaceOnUse" gradientTransform="translate(180 180) rotate(90) scale(180)">
<stop stop-color="#0044BA" stop-opacity="0.15"/>
<stop offset="1" stop-color="#0044BA" stop-opacity="0.05"/>
</radialGradient>
</defs>
</svg>
