<svg width="360" height="360" viewBox="0 0 360 360" fill="none" xmlns="http://www.w3.org/2000/svg">
<rect width="360" height="360" rx="82" fill="#1A64B7"/>
<path d="M305.001 274.985H253.027C253.027 274.985 261.346 270.971 261.346 256.683V180.184C261.346 165.294 251.213 158.601 240.299 155.179C231.096 152.359 219.496 155.433 212.709 159.278C201.156 165.82 189.256 171.705 177.336 177.655V107.774C177.336 95.4595 175.879 93.7299 173.351 90.139L220.953 66.2624V148.12C237.714 141.201 257.906 124.215 280.005 132.694C289.706 136.416 305.001 149.05 305.001 165.332V274.985Z" fill="white"/>
<path d="M221.003 249.478C221.003 260.524 215.72 275 201.789 275L177.339 274.991L177.292 181.082C177.292 181.082 194.805 181.073 200.229 181.082C211.753 181.082 221.05 187.362 221.003 202.881V249.478Z" fill="white"/>
<path d="M136.913 274.985H55C66.7033 260.086 124.148 174.976 136.913 115.849V274.985Z" fill="white"/>
</svg>
