<svg width="360" height="360" viewBox="0 0 360 360" fill="none" xmlns="http://www.w3.org/2000/svg">
<rect width="360" height="360" rx="82" fill="#231815"/>
<path d="M153.022 132.572C143.896 141.698 117.658 167.556 105.489 180.865C118.418 193.414 130.967 205.202 144.276 217.751C144.276 217.751 155.684 228.778 157.205 229.539H200.175C202.456 228.778 203.977 227.257 207.78 223.455L249.989 180.865C234.398 165.275 219.568 150.825 204.738 136.755C201.315 133.333 199.034 129.15 194.851 129.15C183.063 129.15 169.754 129.15 158.346 128.769C157.585 128.769 155.304 130.671 153.022 132.572ZM150.74 91.5038C140.093 92.2643 140.473 91.5037 132.108 97.9682L77.3499 153.867C81.913 158.43 86.0959 161.852 90.2788 166.415L150.74 105.573C153.783 102.912 158.346 104.052 161.768 103.672H206.639C212.343 104.813 215.005 108.616 219.568 111.658L323.379 210.146C326.422 210.526 324.901 235.243 325.281 245.89L324.52 249.313L254.932 319.661C254.932 319.661 242.003 333.731 237.06 332.97H124.883C116.137 331.449 116.517 328.027 111.193 323.083L38.9434 254.636C33.6197 246.27 35.5211 220.032 35.1408 212.427L121.841 294.944C127.544 300.268 125.263 302.549 138.572 304.831H234.398C239.342 304.07 242.003 302.169 247.327 297.226L308.549 235.243V234.102L294.099 221.173L242.003 275.551C231.736 284.677 228.694 293.043 215.385 295.704C191.428 295.704 161.008 295.324 138.572 295.704C131.727 294.564 129.826 292.282 125.263 287.339L42.746 209.385C33.2395 197.977 35.1408 191.893 35.1408 175.922V172.88C35.1408 168.697 35.1408 166.415 35.1408 163.373L141.614 264.143C146.558 268.326 152.642 266.424 159.106 266.805H211.202C217.667 266.805 220.709 265.284 226.032 260.72L277.748 208.624L278.889 207.484L264.819 194.555L216.906 243.228C215.385 245.13 203.217 257.678 199.034 256.918H146.938C141.994 256.538 142.375 254.256 140.854 253.495L35.1408 153.106L34 151.585V115.841C34.3803 114.32 38.1829 110.137 41.225 107.475L52.6328 96.0669C54.1539 94.5458 58.717 89.9827 59.8578 88.4616L114.996 32.5632C117.658 29.1408 122.221 28.3803 127.164 28H227.173C228.694 28.3803 229.835 28.3803 230.976 28.7606L234.398 29.9013C241.243 32.5631 245.806 35.225 251.51 41.6895L319.197 105.954C326.422 116.981 324.52 134.854 324.52 149.304L228.694 58.0407C224.131 54.6183 221.089 56.1395 219.948 55.7592H127.544C119.939 56.1395 116.137 61.0828 110.813 66.7868L49.2105 128.009L60.9986 138.656L130.206 69.0684C133.248 65.646 138.192 65.6459 143.135 65.6459H220.709C222.61 65.6459 225.652 67.167 230.215 71.3499L321.858 158.43C326.041 160.712 323.76 175.542 324.52 199.498L211.582 94.1656C207.78 90.363 206.639 91.5038 205.118 91.5038H150.74Z" fill="#AC162C"/>
</svg>
