<svg width="360" height="360" viewBox="0 0 360 360" fill="none" xmlns="http://www.w3.org/2000/svg">
<rect width="360" height="360" rx="82" fill="#0071F7"/>
<path d="M320.531 228.222C324.027 233.115 323.328 239.407 319.133 242.902C314.24 246.398 307.249 245.698 303.754 241.504L279.286 210.046L255.518 240.805C252.022 245.698 245.032 245.698 240.138 242.203C235.245 238.708 234.546 232.416 238.041 227.523L266.004 191.171L238.041 154.819C234.546 149.926 235.944 142.935 240.138 139.44C245.032 135.944 252.022 137.342 255.518 141.537L279.286 172.995L303.754 142.935C307.249 138.041 313.541 137.342 319.133 140.838C324.027 144.333 324.027 151.324 320.531 156.217L293.268 191.87L320.531 228.222ZM193.3 224.027C175.124 224.027 160.444 210.046 160.444 191.87C160.444 174.393 175.124 159.713 193.3 159.713C211.476 159.713 226.157 174.393 226.157 191.87C225.458 210.046 210.777 224.027 193.3 224.027ZM96.8285 224.027C78.6526 224.027 63.9721 210.046 63.9721 191.87C63.9721 174.393 78.6526 159.713 96.8285 159.713C115.004 159.713 129.685 174.393 129.685 191.87C129.685 210.046 115.004 224.027 96.8285 224.027ZM193.3 138.741C173.027 138.741 154.851 149.926 145.763 166.703C136.676 149.926 118.5 138.741 97.5276 138.741C84.9443 138.741 73.7591 142.935 64.6712 149.227V104.486C64.6712 98.8935 59.7777 94 54.1851 94C47.8935 94 43 98.8935 43 104.486V192.569C43.6991 221.93 67.4675 244.999 96.8285 244.999C117.801 244.999 135.976 233.115 145.064 216.337C154.152 233.115 172.328 244.999 192.601 244.999C222.661 244.999 247.129 221.231 247.129 191.171C247.828 162.509 223.36 138.741 193.3 138.741Z" fill="white"/>
</svg>
