<svg width="360" height="360" viewBox="0 0 360 360" fill="none" xmlns="http://www.w3.org/2000/svg">
<rect width="360" height="360" rx="82" fill="white"/>
<mask id="mask0" mask-type="alpha" maskUnits="userSpaceOnUse" x="0" y="0" width="360" height="360">
<rect width="360" height="360" rx="82" fill="#0071F7"/>
</mask>
<g mask="url(#mask0)">
<path d="M299.45 251.05L274.783 201.5L274.733 201.483C287.033 189.217 301.9 171.267 301.9 140.983C301.9 124.633 299.217 111.783 294.133 100.55C309.833 123.1 319.083 150.45 319.083 179.983C319.083 206 311.833 230.217 299.45 251.05ZM259.45 294.2V209.333L287.983 267.683C279.767 277.817 270.15 286.733 259.45 294.2ZM76.4168 273.3C76.7667 273.183 77.1667 273.05 77.4833 272.967L77.4999 272.95C78.6499 272.567 79.4667 272.283 79.4667 272.283V272.133C97.5832 265.433 113.883 249.183 117.633 225.783V304.633C101.967 296.817 88.0333 286.167 76.4168 273.3ZM61.7999 105.95V254.05C48.2834 232.583 40.3501 207.233 40.3501 179.983C40.3501 152.75 48.2834 127.417 61.7999 105.95ZM117.633 55.3668V128.683C113.033 104.6 90.7834 91.7666 76.0999 87.0333C87.7667 74.0333 101.833 63.2667 117.633 55.3668ZM179.717 114.35C174.55 87.0501 160.1 66.1166 136.717 47.4833C150.267 43.0834 164.7 40.6334 179.717 40.6334V114.35ZM259.45 81.2332C291.883 104.333 297.267 163.033 259.45 193.717V81.2332ZM202.483 42.6501C216.4 44.9501 229.6 49.2833 241.817 55.3668V92.5667C234.933 72.2501 221.817 56.2668 202.483 42.6501ZM241.817 167.033V304.633C228.117 311.467 213.166 316.116 197.367 318.133V224.033C207.95 218.383 231.016 199.983 241.817 167.033ZM197.367 59.45C244.183 88.5999 242.467 172 197.367 204.8V59.45ZM179.717 160.75V319.367C164.167 319.367 149.25 316.7 135.3 312V224.417C145.667 218.683 171.933 199.55 179.717 160.75ZM135.3 68.5333C175.883 94.9501 179.333 174.85 135.3 205.516V68.5333ZM97.4332 177.033L97.3666 176.917C97.3666 176.917 113.517 167.183 117.633 147.15V206.883C114.15 188.683 100.433 179.067 97.4332 177.033ZM79.4667 171.3V104.817C108.017 116.333 112.767 154.383 79.4667 171.3ZM79.4667 253.933V183.667C111.667 201 108.783 239.25 79.4667 253.933ZM0 0V360H360V0H0Z" fill="#EE3A3F"/>
</g>
</svg>
