<svg width="360" height="360" viewBox="0 0 360 360" fill="none" xmlns="http://www.w3.org/2000/svg">
<rect width="360" height="360" rx="82" fill="#00FF75"/>
<path d="M93.9489 176.93C103.428 179.14 110.084 181.817 113.915 184.961C119.416 189.43 122.166 195.226 122.166 202.348C122.166 209.862 119.145 216.076 113.104 220.987C105.688 226.93 94.9067 229.902 80.7613 229.902H30V227.176C34.6169 227.176 37.7358 226.758 39.3566 225.923C41.0265 225.039 42.1807 223.91 42.8193 222.534C43.5069 221.159 43.8507 217.77 43.8507 212.367V147.534C43.8507 142.132 43.5069 138.743 42.8193 137.367C42.1807 135.943 41.0265 134.813 39.3566 133.978C37.6866 133.143 34.5678 132.726 30 132.726V130H77.888C89.332 130 97.4361 131.031 102.2 133.094C106.965 135.108 110.722 138.153 113.472 142.23C116.223 146.257 117.598 150.555 117.598 155.123C117.598 159.936 115.855 164.234 112.367 168.016C108.88 171.749 102.741 174.72 93.9489 176.93ZM67.1316 174.941C74.1061 174.941 79.2387 174.155 82.5295 172.583C85.8694 171.012 88.4234 168.802 90.1916 165.953C91.9597 163.104 92.8438 159.47 92.8438 155.049C92.8438 150.629 91.9597 147.019 90.1916 144.219C88.4725 141.37 85.9921 139.209 82.7505 137.736C79.5088 136.262 74.3026 135.55 67.1316 135.599V174.941ZM67.1316 180.688V212.736L67.058 216.419C67.058 219.072 67.721 221.085 69.0472 222.461C70.4224 223.787 72.4361 224.45 75.0884 224.45C79.0177 224.45 82.6277 223.59 85.9185 221.871C89.2584 220.103 91.8124 217.574 93.5806 214.283C95.3487 210.943 96.2328 207.235 96.2328 203.158C96.2328 198.492 95.1523 194.317 92.9912 190.634C90.8301 186.901 87.8585 184.298 84.0766 182.824C80.2947 181.351 74.6464 180.639 67.1316 180.688Z" fill="black"/>
<path d="M168.212 184.666V212.367C168.212 217.77 168.531 221.184 169.17 222.608C169.858 223.983 171.036 225.088 172.706 225.923C174.425 226.758 177.544 227.176 182.063 227.176V229.902H131.302V227.176C135.918 227.176 139.037 226.758 140.658 225.923C142.328 225.039 143.482 223.91 144.121 222.534C144.808 221.159 145.152 217.77 145.152 212.367V147.534C145.152 142.132 144.808 138.743 144.121 137.367C143.482 135.943 142.328 134.813 140.658 133.978C138.988 133.143 135.869 132.726 131.302 132.726V130H174.843C189.185 130 199.474 132.554 205.712 137.662C211.95 142.77 215.069 149.155 215.069 156.817C215.069 163.301 213.055 168.851 209.028 173.468C205 178.084 199.45 181.228 192.377 182.898C187.613 184.077 179.558 184.666 168.212 184.666ZM168.212 135.747V178.919C169.833 179.018 171.061 179.067 171.896 179.067C177.888 179.067 182.505 177.299 185.747 173.762C188.988 170.177 190.609 164.651 190.609 157.186C190.609 149.769 188.988 144.342 185.747 140.904C182.505 137.466 177.667 135.747 171.233 135.747H168.212Z" fill="black"/>
<path d="M259.789 184.371V212.367C259.789 217.77 260.108 221.184 260.747 222.608C261.434 223.983 262.613 225.088 264.283 225.923C265.953 226.758 269.072 227.176 273.639 227.176V229.902H222.51V227.176C227.127 227.176 230.246 226.758 231.866 225.923C233.536 225.039 234.691 223.91 235.329 222.534C236.017 221.159 236.361 217.77 236.361 212.367V147.534C236.361 142.132 236.017 138.743 235.329 137.367C234.691 135.943 233.536 134.813 231.866 133.978C230.196 133.143 227.078 132.726 222.51 132.726V130H268.924C281.007 130 289.848 130.835 295.447 132.505C301.046 134.175 305.614 137.269 309.15 141.788C312.687 146.257 314.455 151.513 314.455 157.554C314.455 164.921 311.803 171.012 306.498 175.825C303.109 178.87 298.369 181.154 292.279 182.677L316.297 216.493C319.44 220.864 321.675 223.59 323.001 224.671C325.015 226.194 327.348 227.028 330 227.176V229.902H298.541L266.346 184.371H259.789ZM259.789 135.378V179.14H263.988C270.815 179.14 275.923 178.527 279.312 177.299C282.701 176.022 285.354 173.762 287.269 170.521C289.234 167.23 290.216 162.957 290.216 157.701C290.216 150.088 288.423 144.465 284.838 140.83C281.302 137.195 275.58 135.378 267.672 135.378H259.789Z" fill="black"/>
</svg>
