<svg width="360" height="360" viewBox="0 0 360 360" fill="none" xmlns="http://www.w3.org/2000/svg">
<rect width="360" height="360" rx="82" fill="#00578E"/>
<path d="M283 63.2456L75 63V63.2456V296.785H283V63.2456ZM237.815 222.622V232.445C214.976 232.445 200.733 225.078 191.647 215.992C193.12 220.166 194.839 224.587 197.05 228.762C212.521 259.458 239.779 275.175 279.562 275.666V288.436C223.817 287.945 197.786 258.721 185.508 234.164C182.806 228.762 180.596 223.359 178.877 218.202C160.459 263.633 110.117 264.124 109.38 264.124V249.881C111.836 249.881 171.51 247.916 171.51 179.647H186.736C186.736 111.378 246.164 110.887 248.62 110.887V96.6435C247.883 96.6435 197.541 97.3802 179.123 142.566C177.404 137.409 175.194 132.006 172.492 126.603C160.214 102.537 134.183 73.3141 78.438 72.8229V66.438H279.562V179.893H186.49C186.49 181.612 187.472 222.622 237.815 222.622ZM78.438 85.5927C117.975 86.0838 145.479 101.8 160.95 132.497C163.161 136.917 164.88 141.092 166.353 145.267C157.267 136.181 143.024 128.813 120.185 128.813V138.636C170.528 138.636 171.51 177.928 171.51 179.647H78.438V85.5927Z" fill="white"/>
</svg>
