<svg width="360" height="360" viewBox="0 0 360 360" fill="none" xmlns="http://www.w3.org/2000/svg">
<rect width="360" height="360" rx="82" fill="#552448"/>
<path d="M180 25C94.4606 25 25 94.4606 25 180C25 265.539 94.4606 335 180 335C265.539 335 335 265.539 335 180C335 94.4606 265.539 25 180 25ZM180 327.282C98.9626 327.282 32.7178 261.359 32.7178 180C32.7178 98.9627 98.6411 32.7178 180 32.7178C261.037 32.7178 327.282 98.6411 327.282 180C327.282 261.037 261.359 327.282 180 327.282ZM296.732 217.303C298.983 217.303 300.913 215.373 300.913 212.801C300.913 210.55 298.983 208.62 296.732 208.62C294.481 208.62 292.23 210.55 292.23 212.801C292.552 215.373 294.481 217.303 296.732 217.303ZM63.5892 217.303C65.8402 217.303 67.7697 215.373 67.7697 213.122C67.7697 210.871 65.8402 208.942 63.5892 208.942C61.3382 208.942 59.4087 210.871 59.4087 213.122C59.0871 215.373 61.0166 217.303 63.5892 217.303ZM67.4481 183.537L51.3693 183.216L51.6909 174.533C51.6909 171.317 53.6203 170.031 55.8713 170.031C57.8008 170.031 59.0871 171.317 59.4087 172.925C59.7303 171.317 61.3382 169.71 63.5892 170.031C66.1618 170.031 68.0913 171.639 67.7697 174.855L67.4481 183.537ZM56.1929 173.568C55.2282 173.568 54.5851 174.212 54.5851 175.498V179.678H58.1224V175.498C57.8008 174.533 57.1577 173.568 56.1929 173.568ZM62.6245 173.568C61.6597 173.568 60.695 174.212 60.695 175.498V180H64.2324V175.498C64.5539 174.212 63.9108 173.568 62.6245 173.568ZM68.7344 161.67L52.9772 158.133L55.2282 146.878L58.1224 147.521L56.5145 155.239L59.7303 155.882L61.3382 148.164L64.2324 148.807L62.6245 156.525L66.1618 157.168L67.7697 149.45L70.6639 150.093L68.7344 161.67ZM77.417 134.015L70.9855 134.658L70.0207 136.909L75.4875 139.16L74.2013 142.376L59.0871 136.266L61.9813 129.191C63.2676 125.975 66.1618 125.01 69.056 126.297C71.6286 127.261 72.2718 129.834 72.2718 131.442L79.3465 130.477L77.417 134.015ZM67.1265 129.191C65.8402 128.548 64.8755 129.191 64.2324 130.477L62.9461 133.693L67.1265 135.301L68.4129 132.085C69.056 131.12 68.4128 129.834 67.1265 129.191ZM88.029 115.042L79.9896 115.685L80.6328 117.614L84.8132 120.508L82.8838 123.402L69.3776 114.398L71.307 111.504L77.417 115.363L74.5228 106.68L76.7738 103.143L79.668 112.79L90.6016 111.826L88.029 115.042ZM92.5311 105.394L91.888 102.178C93.4959 102.178 95.4253 101.535 97.0332 99.9274C98.3195 98.6411 98.3195 97.3548 97.6763 96.7116C95.7469 94.7821 90.6017 102.822 86.0996 98.6411C84.1701 96.7116 84.1701 93.4959 86.7427 90.9233C88.6722 88.9938 90.6016 88.029 92.8527 88.029L93.4959 91.2448C91.5664 91.2448 89.9585 92.2095 88.9938 93.4958C88.029 94.4606 87.7075 95.4253 88.6722 96.3901C90.6017 97.9979 95.7469 90.2801 100.249 94.4606C102.5 96.39 102.5 99.6058 99.6058 102.822C97.0332 104.429 94.7822 105.073 92.5311 105.394ZM118.579 85.4564L114.72 79.9896L108.61 84.4917L112.469 89.9585L109.575 91.8879L100.249 78.7033L103.143 76.7738L106.68 81.9191L113.112 77.417L109.575 72.2718L112.469 70.3423L121.795 83.527L118.579 85.4564ZM129.512 79.3465L122.438 64.8755L125.654 63.2676L132.728 77.7386L129.512 79.3465ZM149.772 71.3071L144.948 66.805L142.376 67.4481L143.983 72.9149L140.768 73.8797L135.944 58.444L143.34 56.193C146.556 55.2282 149.129 56.8361 150.093 59.7303C151.058 62.3029 149.772 64.5539 148.164 65.5187L153.631 70.3423L149.772 71.3071ZM146.878 60.695C146.556 59.4087 145.27 59.0872 143.983 59.4087L140.446 60.3735L141.732 64.5539L145.27 63.5892C146.556 63.2677 147.199 62.3029 146.878 60.695ZM161.67 68.7344L159.741 52.6556L170.996 51.3693L171.317 54.2635L163.278 55.2282L163.6 58.7656L171.317 57.8008L171.639 60.695L163.921 61.6598L164.243 65.1971L172.282 64.2324L172.604 67.1265L161.67 68.7344ZM204.44 69.6992L205.726 62.946L198.33 61.6598L197.044 68.4129L193.506 67.7697L196.4 51.6909L199.938 52.334L198.651 58.7656L206.048 60.0519L207.334 53.9419L210.871 54.5851L207.977 70.6639L204.44 69.6992ZM226.629 77.0954V74.2012L220.197 71.6287L218.268 73.8797L214.73 72.2718L226.629 59.7303L230.488 61.3382L230.166 78.7033L226.629 77.0954ZM227.272 63.5892L222.448 69.056L227.272 70.9855V63.5892ZM238.205 83.2054L245.28 71.9502L241.421 69.3776L243.029 66.805L253.963 73.5581L252.355 76.1307L248.496 73.5581L241.421 84.8133L238.205 83.2054ZM259.429 99.6058L263.932 94.4606L258.143 89.3154L253.641 94.4606L251.068 92.2095L262.002 80.3112L264.575 82.5622L260.394 87.3859L266.183 92.5311L270.363 87.7075L272.936 89.9585L262.002 101.857L259.429 99.6058ZM274.222 117.614L275.83 115.042L271.649 109.253L268.755 109.896L266.504 106.68L283.226 102.178L285.799 105.716L276.151 120.187L274.222 117.614ZM281.94 106.68L274.865 108.61L277.759 112.79L281.94 106.68ZM284.834 137.552L293.838 130.477L282.583 132.407L280.975 129.191L293.838 118.579L295.446 122.116L285.799 129.512L297.697 127.583L298.662 130.156L289.014 137.552L300.913 135.622L302.521 139.16L285.799 141.411L284.834 137.552ZM291.587 162.313L294.16 160.705L292.873 153.952L289.979 153.631L289.336 149.772L306.38 152.666L307.344 156.846L292.552 166.172L291.587 162.313ZM303.164 155.56L295.768 154.274L296.732 159.098L303.164 155.56ZM292.873 176.141H299.627L308.952 169.71V173.568L302.521 177.749L308.952 181.608V185.467L299.305 179.357H292.552L292.873 176.141ZM74.2013 253.963L79.9896 250.104L75.8091 243.672L70.0207 247.531L68.0913 244.637L81.5975 235.633L83.527 238.527L78.0602 242.064L82.2407 248.496L87.7075 244.958L89.6369 247.853L76.1307 256.857L74.2013 253.963ZM88.3506 259.429C91.888 255.892 96.7116 255.892 100.249 259.429C103.786 262.967 103.786 267.79 100.249 271.328C96.7116 274.865 91.888 274.865 88.3506 271.328C85.1348 268.112 84.8133 262.967 88.3506 259.429ZM97.9979 269.077C100.249 266.826 100.571 263.932 98.3195 261.68C96.0685 259.429 93.1743 259.751 90.9232 262.002C88.6722 264.253 88.3506 267.147 90.6016 269.398C92.8527 271.328 95.7469 271.328 97.9979 269.077ZM114.72 291.587L121.151 281.618L110.861 289.014L109.575 288.05L112.147 275.83L105.716 285.799L102.822 283.869L111.504 270.363L115.685 272.936L113.434 283.548L122.116 277.116L126.297 279.689L117.614 293.195L114.72 291.587ZM128.226 298.662L134.014 283.548L144.627 287.728L143.662 290.622L136.266 287.728L134.979 290.944L142.376 293.838L141.411 296.732L134.014 293.838L132.728 297.376L140.124 300.27L139.16 303.164L128.226 298.662ZM148.807 303.164L151.058 300.913C152.023 302.199 153.631 303.807 155.56 304.129C157.49 304.45 158.454 303.807 158.776 302.842C159.419 299.948 149.772 300.27 151.058 294.16C151.701 291.587 154.274 289.658 158.133 290.622C160.705 291.266 162.635 292.23 163.921 294.16L161.67 296.411C160.705 294.803 159.097 294.16 157.49 293.838C156.203 293.517 155.239 294.16 154.917 295.124C154.274 297.697 163.921 297.697 162.635 303.807C161.992 306.701 159.419 308.631 155.239 307.666C152.023 306.38 150.093 305.093 148.807 303.164ZM171.639 308.952L172.282 292.873L183.859 293.195V296.089L175.819 295.768V299.305L183.537 299.627V302.521L175.819 302.199V305.736L183.859 306.058V308.952H171.639ZM203.475 307.344L199.295 302.199L196.722 302.521L197.687 308.309L194.149 308.952L191.577 292.873L198.973 291.587C202.189 290.944 204.761 292.873 205.083 295.768C205.404 298.662 204.118 300.27 202.189 301.234L206.691 306.701L203.475 307.344ZM202.189 296.411C201.867 295.124 200.902 294.481 199.616 294.803L196.079 295.446L196.722 299.627L200.259 298.983C201.546 298.662 202.51 297.697 202.189 296.411ZM221.483 302.521L210.228 289.336L213.766 288.05L222.127 298.34V285.156L225.664 283.869L225.342 301.234L221.483 302.521ZM239.492 294.803L231.774 280.654L234.668 279.046L242.386 293.195L239.492 294.803ZM246.245 281.618C243.351 277.438 244.315 272.614 248.174 269.72C251.068 267.469 253.963 267.79 255.892 268.755L254.284 271.649C252.998 271.006 251.068 271.006 249.782 271.971C247.531 273.9 246.888 276.795 248.817 279.367C250.747 281.94 253.641 282.261 256.214 280.654C257.5 279.689 258.143 278.081 257.822 276.473L261.037 275.83C261.359 278.081 260.716 280.975 258.143 283.226C254.284 286.12 249.461 285.799 246.245 281.618ZM271.006 272.293L259.108 261.359L266.826 252.998L269.077 254.927L263.61 260.716L266.183 262.967L271.649 257.178L273.9 259.108L268.434 264.896L271.006 267.469L276.473 261.68L278.724 263.61L271.006 272.293ZM282.905 255.249L281.618 252.033C283.226 251.712 285.156 250.747 286.442 248.817C287.407 247.21 287.407 245.923 286.442 245.602C284.191 243.994 280.654 252.998 275.508 249.782C273.257 248.174 272.614 245.28 274.865 242.064C276.151 239.813 278.081 238.527 280.332 237.884L281.297 240.778C279.689 241.1 278.081 242.386 277.116 243.672C276.473 244.959 276.473 245.923 277.116 246.566C279.367 247.853 282.905 239.17 288.05 242.386C290.622 243.994 291.266 246.888 289.014 250.747C287.085 253.32 284.834 254.606 282.905 255.249ZM151.058 175.498H124.367V111.183H150.415C161.349 111.183 168.745 117.936 168.745 127.905C168.745 135.622 164.243 140.446 159.097 142.376C165.207 144.305 169.71 151.058 169.71 157.811C169.71 168.423 162.313 175.498 151.058 175.498ZM133.05 167.458H149.45C156.525 167.458 160.384 163.6 160.384 157.168C160.384 152.023 156.846 146.878 149.45 146.878H133.05V167.458ZM133.05 138.517H148.807C155.239 138.517 159.097 134.979 159.097 128.869C159.097 123.081 154.917 119.222 148.807 119.222H133.05V138.517ZM236.919 175.498H227.915V146.556H194.471V175.498H185.467V111.183H194.471V138.195H227.915V111.183H236.919V175.498ZM175.498 252.033H166.494V223.091H133.05V252.033H124.046V187.718H133.05V214.73H166.494V187.718H175.498V252.033ZM213.122 252.998C203.153 252.998 194.471 249.461 188.361 242.707L188.039 242.386L193.506 235.311L193.828 235.954C196.079 238.527 202.51 244.958 213.122 244.958C223.734 244.958 227.272 239.492 227.272 234.668C227.272 227.593 219.876 225.664 211.193 223.413C201.224 220.84 189.969 217.624 189.969 205.083C189.969 194.471 199.295 187.075 212.158 187.075C221.483 187.075 229.201 190.29 234.99 196.079L235.311 196.4L229.844 203.154L229.523 202.51C224.056 196.4 216.66 195.114 211.836 195.114C204.44 195.114 199.295 198.973 199.295 204.44C199.295 210.228 206.048 212.158 214.087 214.087C224.699 216.981 236.598 220.197 236.598 234.025C236.919 243.029 230.809 252.998 213.122 252.998Z" fill="white"/>
</svg>
