<svg width="360" height="360" viewBox="0 0 360 360" fill="none" xmlns="http://www.w3.org/2000/svg">
<rect width="360" height="360" rx="82" fill="#B1D2E8"/>
<path fill-rule="evenodd" clip-rule="evenodd" d="M30 197.531V162.292H67.2049C67.2049 162.292 70.644 162.292 72.1177 163.961C73.5914 165.63 74.0009 167.368 74.0995 169.627C74.1974 171.886 73.2966 174.194 72.0034 175.521C72.0034 175.521 70.906 176.604 69.2358 177.207C69.2358 177.207 71.9048 178.24 73.1004 179.665C73.8298 180.536 75.2944 181.68 75.4749 186.74C75.6551 191.799 73.0025 194.535 72.5272 195.088C72.0522 195.646 69.7595 197.531 65.8786 197.531H30ZM57.1834 172.395H45.2208V175.366H57.429C57.6045 175.366 57.9037 175.342 58.264 175.021C58.6844 174.65 58.6978 174.113 58.6978 173.917C58.6978 173.722 58.6571 173.189 58.2396 172.762C57.8221 172.338 57.1834 172.395 57.1834 172.395ZM59.4596 184.993H45.2208V187.892H59.7461C59.8771 187.892 60.221 187.843 60.4747 187.607C60.9188 187.191 60.9417 186.601 60.9417 186.459C60.9417 186.32 61.0152 185.812 60.581 185.38C60.1472 184.945 59.4596 184.993 59.4596 184.993Z" fill="#231F20"/>
<path fill-rule="evenodd" clip-rule="evenodd" d="M83.1299 197.532V162.28H117.032C121.388 162.472 123.239 163.664 124.713 164.991C126.187 166.318 127.563 169.383 127.449 172.444C127.334 175.506 126.581 178.192 124.518 180.321C122.454 182.45 119.194 182.808 119.194 182.808L128.169 197.532H111.663L103.607 184.135H98.1039V197.532H83.1299ZM98.1039 175.367H110.32C110.32 175.367 110.926 175.318 111.227 175.005C111.524 174.704 111.622 174.268 111.622 173.926C111.622 173.58 111.59 173.263 111.227 172.843C110.869 172.428 110.206 172.436 110.206 172.436H98.1039V175.367Z" fill="#231F20"/>
<path d="M134.279 162.28H149.409V183.728C149.409 183.728 149.425 185.69 150.46 186.476C151.489 187.262 152.556 188.019 155.731 188.019C158.906 188.019 160.331 186.806 160.53 186.525C160.726 186.248 161.462 185.873 161.56 184.135C161.658 182.401 161.56 162.28 161.56 162.28H175.807V184.807C175.807 184.807 175.823 189.932 172.599 192.879C172.599 192.879 170.222 195.354 166.062 196.481C166.062 196.481 160.864 198.081 155.421 197.991C150.846 197.914 147.643 197.637 142.844 195.976C139.045 194.662 137.389 192.911 137.145 192.651C136.9 192.39 134.23 190.164 134.279 184.135V162.28Z" fill="#231F20"/>
<path d="M185.234 197.58H199.396V187.379L204.211 183.545L213.431 197.58H231.248L215.69 174.834L229.791 162.28H210.712L199.396 173.706V162.28H185.234" fill="#231F20"/>
<path d="M235.665 197.482V162.284H276.712V171.976H250.709V174.508H270.602V184.127H250.709V186.651H276.712V197.482" fill="#231F20"/>
<path fill-rule="evenodd" clip-rule="evenodd" d="M284.963 197.532V162.28H318.867C323.223 162.472 325.07 163.664 326.544 164.991C328.017 166.318 329.394 169.383 329.28 172.444C329.165 175.506 328.412 178.192 326.349 180.321C324.285 182.45 321.029 182.808 321.029 182.808L330 197.532H313.494L305.438 184.135H299.935V197.532H284.963ZM299.935 175.367H312.151C312.151 175.367 312.757 175.318 313.062 175.005C313.355 174.704 313.453 174.268 313.453 173.926C313.453 173.58 313.421 173.263 313.062 172.843C312.7 172.428 312.037 172.436 312.037 172.436H299.935V175.367Z" fill="#231F20"/>
<path d="M93.325 159.805C93.325 159.805 66.7 123.915 81.6835 108.882C93.6304 97.1385 126.675 101.714 157.815 116.677C198.008 136.522 213.195 152.112 224.939 159.805C225.195 159.915 217.551 159.805 217.551 159.805C176.65 126.398 107.149 91.224 85.2271 112.729C73.0782 125.079 101.425 156.667 102.614 159.805H93.325Z" fill="#0071BC"/>
<path d="M138.887 159.805C197.808 111.007 232.835 103.871 259.97 103.871C285.582 103.871 286.392 121.134 286.494 123.914C286.949 136.37 278.092 150.088 271.713 159.805H265.84C270.802 153.43 289.836 128.421 278.902 115.969C269.568 105.34 237.696 110.807 214.005 121.13C191.124 129.434 161.865 150.19 151.969 159.805C151.969 159.805 138.805 159.87 138.887 159.805Z" fill="#0071BC"/>
<path d="M123.04 109.073C123.04 104.062 127.103 100 132.113 100C137.124 100 141.187 104.062 141.187 109.073C141.187 114.084 137.124 118.147 132.113 118.147C127.103 118.147 123.04 114.084 123.04 109.073Z" fill="#0071BC"/>
<path d="M93.325 200.25C93.325 200.25 66.7 236.14 81.6835 251.173C93.6304 262.921 126.675 258.341 157.815 243.378C198.008 223.538 213.195 207.944 224.939 200.25C225.195 200.14 217.551 200.25 217.551 200.25C176.65 233.661 107.149 268.835 85.2271 247.326C73.0782 234.976 101.425 203.389 102.614 200.25H93.325Z" fill="#0071BC"/>
<path d="M138.887 200.25C197.808 249.048 232.835 256.187 259.97 256.187C285.582 256.187 286.392 238.924 286.494 236.14C286.949 223.688 278.092 209.971 271.713 200.25H265.84C270.802 206.628 289.836 231.634 278.902 244.086C269.568 254.714 237.696 249.251 214.005 238.924C191.124 230.62 161.865 209.869 151.969 200.25C151.969 200.25 138.805 200.185 138.887 200.25Z" fill="#0071BC"/>
<path d="M123.04 250.985C123.04 245.975 127.103 241.912 132.113 241.912C137.124 241.912 141.187 245.975 141.187 250.985C141.187 255.996 137.124 260.059 132.113 260.059C127.103 260.059 123.04 255.996 123.04 250.985Z" fill="#0071BC"/>
</svg>
