<svg width="360" height="360" viewBox="0 0 360 360" fill="none" xmlns="http://www.w3.org/2000/svg">
<rect width="360" height="360" rx="82" fill="#15538A"/>
<path fill-rule="evenodd" clip-rule="evenodd" d="M151.471 129.454C192.896 129.454 201.107 158.263 201.107 171.357C201.107 187.442 191.778 206.897 163.787 206.897H147.738C140.274 206.897 137.662 206.897 137.662 175.472V129.454H151.471ZM116.017 204.651C116.017 206.894 114.898 208.39 112.283 208.39H100.339V216.248H158.56C208.193 216.248 222.374 190.435 222.374 169.483C222.374 145.913 204.088 130.575 182.442 126.457V126.085C197.742 120.099 212.298 108.876 212.298 90.9145C212.298 69.2158 195.13 55 169.755 55H94V62.8546H108.931C115.648 62.8546 116.02 72.5839 116.02 98.3974V204.651H116.017ZM173.488 123.842C165.653 121.971 161.172 121.971 137.662 121.971V68.8441C137.662 64.3512 138.78 64.3512 142.514 64.3512H162.666C174.982 64.3512 192.521 72.5839 192.521 95.0293C192.525 108.876 185.058 117.481 173.488 123.842Z" fill="white"/>
<path fill-rule="evenodd" clip-rule="evenodd" d="M194.759 237.577C236.184 237.577 244.398 266.006 244.398 279.103C244.398 295.565 235.438 315.021 207.075 315.021H191.401C183.565 315.021 180.953 315.021 180.953 283.587V237.574H194.759V237.577ZM159.305 312.399C159.305 314.646 158.561 316.517 155.575 316.517H143.63V324H201.848C251.856 324 266.037 298.555 266.037 277.607C266.037 254.04 247.379 238.696 225.734 234.581V233.837C241.033 228.226 255.589 217 255.589 199.041C255.589 176.971 238.425 163.127 213.418 163.127H137.288V170.61H152.216C158.933 170.61 159.305 180.336 159.305 206.524V312.399ZM216.776 231.963C208.944 230.091 204.464 229.716 180.953 229.716V176.968C180.953 172.103 182.072 172.103 185.805 172.103H205.957C218.273 172.103 236.184 180.705 236.184 202.778C236.184 216.997 228.346 225.602 216.776 231.963Z" fill="white"/>
</svg>
