<svg width="360" height="360" viewBox="0 0 360 360" fill="none" xmlns="http://www.w3.org/2000/svg">
<rect width="360" height="360" rx="82" fill="#14315D"/>
<path d="M239.478 222.608H233.049V224.587H252.667V222.608H247.392V188.153L246.732 188.812L245.908 189.307L244.259 189.801L242.446 190.131H234.038V192.109H239.478V222.608Z" fill="white"/>
<path d="M114.847 222.608H108.253V224.587H127.871V222.608H122.596V188.153L121.936 188.812L121.112 189.307L119.463 189.801L117.65 190.131H109.077V192.109H114.847V222.608Z" fill="white"/>
<path d="M262.395 222.609H256.13V224.588H276.078V222.609H270.308V192.11H284.486V222.609H279.21V224.588H298.664V222.609H292.234V188.154L291.74 188.813L290.915 189.308L289.102 189.802L287.123 190.132H270.308C271.16 183.04 268.123 173.047 274.264 167.382L275.418 166.557L276.408 165.898L277.562 165.568L278.881 165.403L280.199 165.073L281.848 164.909H283.167L284.321 165.073L285.31 165.568L286.134 165.898L286.959 166.392L287.453 166.722L287.783 167.382L287.948 167.876L287.783 168.371L287.453 168.865L286.464 169.36L285.64 170.019C283.271 172.102 284.244 174.899 286.794 176.119C289.102 177.306 291.712 175.531 292.564 173.316C294.177 167.917 288.904 163.694 283.991 163.095C266.791 160.966 261.032 175.597 262.395 190.132H255.306V192.11H262.395V222.609Z" fill="white"/>
<path d="M53.1884 199.528C68.9434 201.454 70.2156 221.65 53.8478 223.598C42.3434 224.197 36.2683 214.374 35.3836 203.979H33.2405V225.246H35.3836L35.7133 224.092L36.043 223.268L36.7025 222.773L37.8565 222.608C40.8459 222.872 44.341 224.548 47.2535 225.411C53.2324 226.527 60.1317 226.068 65.0582 222.114C72.7846 216.064 73.3891 200.603 65.388 194.582C55.7987 186.908 31.1275 190.244 39.6699 171.008C49.8362 160.226 64.5225 170.373 65.388 183.702H67.5311V166.227H65.5528C64.2064 174 48.8718 154.437 35.7133 170.843C32.2815 175.753 32.7101 181.394 33.735 186.999C37.1558 196.044 44.5662 197.311 53.1884 199.528Z" fill="white"/>
<path d="M212.772 217.99L212.937 220.133L213.432 221.782L214.256 223.101L215.41 224.09L216.564 224.914L218.212 225.574L220.191 225.739C224.592 226.706 229.648 224.826 231.401 220.298L229.753 219.309L228.928 220.628L227.609 221.947L227.115 222.277L226.291 222.771L225.466 223.101H223.653L222.993 222.936L222.169 222.771L221.839 222.277L221.18 221.782L221.015 220.958L220.685 219.804L220.52 218.815V192.107H229.753V190.129H220.52V179.578H219.037C218.02 187.17 213.778 190.415 206.178 190.129V192.107H212.772V217.99Z" fill="white"/>
<path d="M187.879 222.608H193.484V195.571L193.154 194.417L192.66 193.263L192.165 192.769L191.341 192.109L190.517 191.615L189.527 191.285C184.417 190.791 180.397 194.772 177.822 198.704V222.608H183.757V224.587H163.645V222.608H169.744V192.109H163.645V190.131H172.712L174.69 189.801L175.514 189.637L176.339 189.472L177.658 188.153V195.242C181.408 190.274 186.612 187.271 192.989 188.483L195.133 188.977L197.276 190.131L198.595 191.45L199.914 192.934L200.738 194.747L201.232 196.726L201.562 198.869V222.608H207.662V224.587H187.879V222.608Z" fill="white"/>
<path d="M103.803 213.211C102.072 221.253 93.0956 226.784 86.3281 220.465L85.5038 218.816L84.6796 216.838L84.3498 214.53V201.012L84.6796 198.703C85.4901 195.524 87.6223 191.499 91.2739 191.12C93.4913 190.296 96.8984 190.79 98.6926 192.439L99.0223 192.933L99.5169 193.593V194.747L99.1872 195.241L98.3629 195.901L97.8683 197.055C95.9889 201.061 101.778 203.622 104.298 200.682C112.101 187.894 77.8681 180.522 75.7771 205.298C72.7849 228.301 101.861 234.258 105.782 213.211H103.803Z" fill="white"/>
<path d="M326.693 213.211C325.426 221.569 315.406 226.501 309.548 220.299L308.394 218.651L307.899 216.837L307.405 214.364L307.24 211.727V203.814L307.405 201.011L307.899 198.703C308.199 195.079 310.922 191.872 314.329 190.79C318.192 190.529 318.288 190.647 321.747 192.273L322.242 192.933L322.572 193.592V194.581L322.407 195.241L321.582 195.9L320.923 197.054C319.975 198.357 320.852 200.632 322.242 201.341L322.736 201.506L323.561 201.835H324.385L326.034 201.506L326.693 201.011L327.352 200.681C332.469 193.111 320.368 187.317 314.164 188.811C305.407 189.512 299.483 196.648 298.667 205.132C295.969 226.6 323.344 235.34 329.001 213.211H326.693Z" fill="white"/>
<path d="M158.696 212.881C158.215 217.615 153.494 223.6 148.309 223.102C137.929 223.781 139.083 210.765 139.407 204.144H161.498C162.611 197.123 156.629 190.389 149.958 188.977C142.048 187.048 134.184 192.785 131.824 200.187C129.156 208.059 130.763 217.736 137.429 223.102C147.133 229.397 159.179 224.754 160.839 212.881H158.696ZM153.585 201.506V201.836L153.255 202.165H139.737C137.616 187.012 155.602 186.592 153.585 201.506Z" fill="white"/>
<path d="M85.1735 127.978C104.476 125.766 103.822 150.962 85.1735 148.586V127.978ZM76.9306 174.304H71.6551V176.447C82.5852 176.07 107.089 181.178 109.738 163.918C110.367 154.826 104.305 150.663 95.7245 149.74V149.41C103.673 148.874 108.861 142.673 107.265 134.902L107.1 133.913L106.44 132.594L105.781 131.77L105.121 130.781L104.297 129.957L102.319 128.308L101.165 127.813L99.6811 127.319L98.1974 126.659L94.9002 126.165L91.2733 126H71.4902V127.978H76.9306V174.304ZM85.1735 150.399C106.828 147.127 106.905 178.032 85.1735 174.304V150.399Z" fill="white"/>
<path d="M113.2 161.281C113.725 182.861 142.883 182.861 143.699 161.281C142.891 139.264 113.442 139.747 113.2 161.281ZM135.786 163.094C135.89 169.68 135.063 176.074 127.048 175.294C118.734 174.002 121.221 162.811 120.784 156.994C120.814 151.004 123.18 146.35 129.686 147.103L130.675 147.432L131.829 147.597L132.654 148.257L133.478 148.586L133.972 149.411L134.467 150.07C136.665 154.439 135.467 158.357 135.786 163.094Z" fill="white"/>
<path d="M191.508 161.281C192.016 182.867 221.452 182.87 222.007 161.281C221.704 139.547 191.766 139.528 191.508 161.281ZM214.423 163.095C214.459 169.258 213.363 176.121 205.686 175.294C197.091 174.421 199.753 162.935 199.256 157.16C199.075 151.096 201.358 146.386 207.994 147.103L209.148 147.433L210.137 147.598L210.961 148.257L211.785 148.587L212.28 149.411L212.775 150.071C215.063 155.14 214.275 157.729 214.423 163.095Z" fill="white"/>
<path d="M243.769 174.302H248.221V151.882L247.726 150.563L247.396 149.738C246.273 148.843 244.978 147.766 243.44 147.925L242.286 148.255L240.967 148.584L239.813 149.244L238.659 150.068L237.67 150.892L236.68 152.046L235.856 153.036L235.197 154.354V174.302H240.637V176.446H222.173V174.302H227.943V147.925H222.173V146.111H230.086L232.229 145.947L233.054 145.782L233.878 145.452L234.372 145.122L235.032 144.463V150.398H235.197L236.351 149.244L237.505 147.925L238.659 147.101C241.61 144.914 242.975 145.089 246.242 144.463L248.715 144.793L250.858 145.287L252.507 146.276L253.661 147.595L254.65 149.079L255.31 150.398L255.639 152.046V174.302H259.761V176.446H243.769V174.302Z" fill="white"/>
<path d="M158.201 164.084C164.109 164.023 166.738 171.931 161.169 174.8C154.355 177.234 149.269 172.915 148.475 165.897H146.826L147.156 177.108H148.804L149.134 175.789L149.629 175.624H150.618L151.277 175.789L152.761 176.613L154.904 177.108C158.295 178.264 163.713 177.316 165.95 174.47C171.269 168.34 169.093 158.572 160.345 157.324C137.855 155.783 160.54 136.547 164.631 154.027H166.28L166.115 145.29H164.631L164.466 145.784L164.301 146.114L164.136 146.609C162.65 146.713 159.669 144.971 158.201 144.96C153.959 144.956 151.591 145.216 148.804 148.752C144.287 156.42 149.189 163.748 158.201 164.084Z" fill="white"/>
<path d="M190.682 171.667C189.552 173.569 187.011 175.399 184.747 174.47L184.087 174.305L183.593 173.976L183.098 173.316L182.933 172.657L182.439 171.832V147.928H190.682V146.114H182.439V135.893H181.12C180.743 141.542 175.927 146.667 170.074 146.114V147.928H175.185V170.678L175.35 172.492L175.679 173.976L176.504 175.13L178.812 176.778L180.295 177.108L181.944 177.438C185.788 177.998 189.753 176.806 191.836 173.316L190.682 171.667Z" fill="white"/>
</svg>
