<svg width="360" height="360" viewBox="0 0 360 360" fill="none" xmlns="http://www.w3.org/2000/svg">
<rect width="360" height="360" rx="82" fill="#ED1556"/>
<path d="M305.347 141.274C290.626 126.561 262.9 112.406 235.751 125.95L232.932 127.653L234.059 124.258C247.63 97.1274 233.46 69.3825 218.728 54.6507C188.718 24.6521 140.076 16.7001 102.683 54.093C35.8948 120.896 114.569 202.989 76.1028 278.811L71 289.586L81.1981 283.906C157.004 245.439 239.113 324.118 305.905 257.314C343.294 219.925 335.357 171.272 305.347 141.274ZM242.542 228.401C206.079 264.864 161.265 221.913 119.885 242.913L114.304 245.993L117.1 240.12C138.103 198.729 95.1559 153.919 131.604 117.455C152.023 97.0554 178.58 101.396 194.951 117.763C202.998 125.798 202.949 147.052 195.543 161.859L194.925 163.711L196.469 162.77C211.292 155.387 234.192 157.003 242.235 165.042C258.613 181.425 262.95 207.986 242.542 228.401Z" fill="white"/>
</svg>
