<svg width="360" height="360" viewBox="0 0 360 360" fill="none" xmlns="http://www.w3.org/2000/svg">
<rect width="360" height="360" rx="82" fill="#232A79"/>
<path d="M144.399 72.8022L181.302 110.507L218.205 72.8022H288V169.873H259.119L249.493 181.104L259.119 191.534H288V213.996H250.295L180.5 145.004V166.664L243.075 230.041H288V250.899H234.25C215.799 234.052 198.951 214.799 180.5 198.754V218.81L228.634 267.746H287.198V288.604H219.007L180.5 250.899L144.399 288.604H73V191.534H102.683L113.112 181.104L102.683 169.873H73V149.015H112.31L129.157 165.06L140.388 153.828L121.134 132.97H74.6045V110.507H127.552L155.631 137.784L166.06 126.552L134.772 94.4627H74.6045V72L144.399 72.8022Z" fill="white"/>
</svg>
