<svg width="360" height="360" viewBox="0 0 360 360" fill="none" xmlns="http://www.w3.org/2000/svg">
<rect width="360" height="360" rx="82" fill="#BE3949"/>
<path d="M160.834 302.695V289.016C159.496 273.565 149.017 264.599 140.431 259.307C129.619 250.949 120.066 243.665 118.327 222.996L117.96 103.935C118.14 95.9817 128.585 96.1994 128.761 103.935L128.968 191.415C133.33 220.205 173.17 218.607 175.341 189.755L175.038 103.935C174.716 86.2779 147.945 86.2779 148.097 103.935L147.845 191.706C147.824 194.548 144.335 200.405 142.734 200.451C141.132 200.497 137.465 194.229 137.48 191.877L137.603 103.935C137.14 86.2779 109.772 86.2779 109.934 103.935L110.127 222.415C111.565 244.536 120.671 255.134 134.634 265.247C144.058 272.483 151.116 276.967 152.381 288.731L152.243 302.695H96.4955C83.0293 302.695 58 283.739 58 264.382V97.2955C58 78.03 79.2813 56.8907 99.0808 57.0004H261.698C285.503 57.0004 302.862 80.523 302.862 97.2955L303 262.733C303 282.462 279.791 302.695 261.628 302.695H208.717L208.983 287.55C210.226 277.514 219.073 269.883 225.662 265.812C236.809 258.723 249.081 246.844 251.078 222.472V103.935C251.078 86.2779 223.398 86.2779 223.398 103.935L223.472 192.072C223.067 197.106 216.482 205.233 207.498 203.963C210.363 200.9 213.162 195.535 213.155 191.316L213.059 103.935C213.059 86.2779 185.972 86.2779 185.972 103.935L185.898 192.533C191.31 217.883 223.587 220.206 231.885 193.199L232.075 103.935C232.075 96.4179 242.392 96.4179 242.392 103.935L242.61 223.411C241.236 241.671 234.466 249.002 221.155 258.78C207.89 268.236 203.604 274.514 200.586 286.331L200.046 302.671L160.834 302.695ZM150.986 203.84C153.325 201.407 155.784 195.945 156.157 192.027L156.21 103.935C156.21 96.4179 166.801 96.4179 166.873 103.935L166.77 192.682C163.862 201.632 156.379 204.912 150.986 203.84ZM194.067 189.827L194.084 103.935C194.084 96.4179 204.571 96.4179 204.571 103.935L204.838 190.219C204.831 193.81 201.733 200.555 199.323 200.469C196.912 200.383 193.976 193.623 194.067 189.827Z" fill="white"/>
</svg>
