<svg width="360" height="360" viewBox="0 0 360 360" fill="none" xmlns="http://www.w3.org/2000/svg">
<rect width="360" height="360" rx="82" fill="#003B70"/>
<circle cx="180" cy="180" r="155.455" fill="#4681C7" fill-opacity="0.06"/>
<circle cx="180" cy="180" r="155.205" stroke="#2869BF" stroke-opacity="0.04" stroke-width="0.5"/>
<path d="M123.695 231.887L123.18 232.385C114.877 240.845 105.266 245.329 95.3627 245.329C74.6914 245.329 59.6861 229.822 59.6861 208.425C59.6861 187.067 74.6914 171.537 95.3627 171.537C105.266 171.537 114.877 176.039 123.18 184.522L123.695 185.035L136.989 168.96L136.634 168.524C125.578 155.46 112.313 149.099 96.0044 149.099C79.6397 149.099 64.6802 154.607 53.8989 164.539C42.1848 175.295 36 190.463 36 208.425C36 226.377 42.1848 241.583 53.8989 252.342C64.6802 262.32 79.6397 267.797 96.0044 267.797C112.313 267.797 125.578 261.44 136.634 248.37L136.989 247.965L123.695 231.887Z" fill="white"/>
<path d="M150.427 265.609H173.912V150.962H150.427V265.609Z" fill="white"/>
<path d="M265.9 240.68C259.634 244.495 253.803 246.413 248.567 246.413C240.979 246.413 237.55 242.409 237.55 233.488V172.656H261.469V151.067H237.55V115.394L214.531 127.713V151.067H194.673V172.656H214.531V237.369C214.531 255 224.975 267.044 240.565 267.357C251.151 267.565 257.532 264.411 261.408 262.106L261.635 261.937L267.289 239.832L265.9 240.68L265.9 240.68Z" fill="white"/>
<path d="M285.354 265.609H308.855V150.962H285.354V265.609Z" fill="white"/>
<path fill-rule="evenodd" clip-rule="evenodd" d="M322.919 130.619C301.42 100.168 265.717 82 229.393 82C193.083 82 157.373 100.168 135.91 130.619L134.809 132.186H161.878L162.178 131.861C180.603 112.845 204.654 102.789 229.393 102.789C254.135 102.789 278.181 112.845 296.641 131.861L296.94 132.186H324.001L322.919 130.619Z" fill="#D9261C"/>
</svg>
