<svg width="360" height="360" viewBox="0 0 360 360" fill="none" xmlns="http://www.w3.org/2000/svg">
<rect width="360" height="360" rx="82" fill="black"/>
<path fill-rule="evenodd" clip-rule="evenodd" d="M104.083 237.944C151.722 177.129 206.793 122.734 267.27 74.0816C269.297 72.3923 272.676 72.7302 274.703 74.7573C278.42 79.1495 282.474 83.8796 286.528 88.2718C288.893 90.6368 288.218 94.3533 285.853 96.3805C213.888 148.411 155.1 215.308 100.705 284.907C98.6775 287.61 94.6231 287.61 92.596 285.245L80.433 271.393C79.4194 270.717 79.0815 269.703 79.0815 268.69L73 213.281C73 211.929 73.3379 210.915 74.0136 209.564L89.5552 188.279C92.2581 184.562 98.6775 185.914 99.0153 190.982C100.705 206.523 102.394 222.403 104.083 237.944Z" fill="#EA8C00"/>
</svg>
