<svg width="360" height="360" viewBox="0 0 360 360" fill="none" xmlns="http://www.w3.org/2000/svg">
<rect width="360" height="360" rx="82" fill="#ED1C2E"/>
<path d="M123.76 120.529L123.719 152.186C123.596 153.412 122.643 153.556 122.483 152.258C121.27 134.665 100.616 118.296 81.2424 125.315C58.1297 133.693 54.9525 159.161 57.4606 178.815C58.4552 186.603 60.5855 193.693 65.9682 200.341C71.3783 207.03 78.798 211.495 87.8018 212.276C102.439 213.537 115.498 206.8 123.608 195.432C123.819 195.124 124.502 195.591 124.406 195.784C115.375 216.127 86.6706 225.083 65.3856 212.761C37.5457 196.64 32.9414 163.206 49.9157 138.83C63.8789 118.767 92.6291 113.341 115.038 125.249C118.421 127.045 120.881 123.271 122.57 120.522L123.76 120.529Z" fill="black"/>
<path d="M307.935 208.837C307.935 213.532 316.356 214.427 319.153 214.375V216.489H280.637V214.375C282.935 214.427 292.372 213.532 292.372 208.837V127.541C292.372 121.187 281.916 121.954 280.637 121.724V119.603H319.153V121.726C317.879 121.956 307.935 121.068 307.935 127.543V208.837Z" fill="black"/>
<path d="M278.347 120.528L278.304 152.185C278.174 153.412 277.221 153.555 277.061 152.258C275.857 134.664 255.2 118.296 235.827 125.315C212.717 133.693 209.535 159.159 212.043 178.814C213.04 186.602 215.173 193.692 220.551 200.34C225.965 207.029 233.385 211.495 242.382 212.276C257.021 213.536 270.081 206.8 278.188 195.431C278.399 195.124 279.089 195.59 278.994 195.784C269.953 216.127 241.251 225.083 219.968 212.76C192.126 196.64 187.526 163.205 204.505 138.83C218.466 118.769 247.221 113.341 269.628 125.249C273.005 127.044 275.461 123.271 277.157 120.522L278.347 120.528Z" fill="black"/>
<path d="M145.016 179.191L158.77 146.189L173.397 179.191H145.016ZM202.585 210.599L162.784 120.122L122.987 210.474C121.598 213.044 119.827 214.036 116.741 215.062V216.528L142.378 216.542V215.065C136.943 214.234 130.431 213.453 132.432 207.67L142.396 185.493L142.423 185.411H176.151L176.181 185.475L186.384 208.945C188.551 214.3 179.952 215.072 176.049 215.065V216.549L211.381 216.528V214.999C209.214 214.999 204.626 214.933 202.585 210.599Z" fill="black"/>
<path d="M320 231.63H45.6001V240.916H320V231.63Z" fill="white"/>
</svg>
