<svg width="360" height="360" viewBox="0 0 360 360" fill="none" xmlns="http://www.w3.org/2000/svg">
<rect width="360" height="360" rx="82" fill="url(#paint0_angular)" fill-opacity="0.15"/>
<path d="M251.294 193.405L252.164 193.258L253.041 193.094L253.9 192.879L254.782 192.766L255.636 192.534L256.484 192.286L257.293 191.924L258.084 191.692L258.882 191.455L259.645 191.127L260.47 191.002L261.256 190.759L262.082 190.646L262.868 190.392L263.693 190.307L264.525 190.228L265.35 190.199L266.17 190.154L267.007 190.143L267.838 190.154L268.663 190.131L269.495 190.114L270.32 190.16L271.151 190.188L271.966 190.437H272.797L273.611 190.572L274.408 190.804L275.2 191.042L275.601 191.138L275.997 191.24L276.845 191.336L277.62 191.602L278.372 191.958L279.22 192.212L280.04 192.546L280.888 192.778L281.753 192.97L282.624 193.128L283.483 193.337L284.36 193.417H284.371L285.253 193.343L286.135 193.507L287.028 193.535L287.916 193.518L288.787 193.354L289.68 193.394L290.551 193.213L290.992 193.156L291.427 193.1L292.321 193.043L293.135 192.682L293.978 192.433L294.419 192.337L294.848 192.252L295.708 192.026L296.494 191.675L297.291 191.353L298.128 191.104L298.993 190.974V190.736L298.218 190.38L297.534 189.832L296.703 189.589L295.985 189.114L295.21 188.763L294.419 188.446L293.576 188.249L292.841 187.796L291.999 187.61L291.207 187.316L290.41 186.988L289.612 186.694L288.787 186.462L287.956 186.281L287.142 186.009L286.299 185.862L285.462 185.682L284.642 185.467L283.783 185.382L282.946 185.212L282.092 185.161L281.244 185.116L280.413 184.884L279.554 184.924L278.705 184.799L277.863 184.681L277.003 184.652L276.15 184.681L275.302 184.669L274.442 184.766L273.577 184.658L272.729 184.799L271.858 184.822L271.027 185.048L270.167 185.127L269.325 185.291L268.488 185.506L267.668 185.778L266.843 186.004L266.012 186.19L265.175 186.422L264.349 186.637L263.586 187.089L262.755 187.31L261.918 187.536L261.177 187.994L260.352 188.209L259.532 188.503L258.802 188.972L258.016 189.317L257.225 189.645L256.428 189.973L255.698 190.442L254.884 190.725L254.087 191.053L253.335 191.483L252.617 191.963L251.848 192.342L251.05 192.682L250.287 193.1L250.389 193.303L251.294 193.405Z" fill="#94D8E9"/>
<path d="M228.03 209.101L228.878 209.146L229.709 209.123L230.541 209.073L231.366 209.208L232.186 209.327L233.011 209.395L233.826 209.548L234.663 209.57L235.471 209.757L236.291 209.887L237.043 210.254L237.88 210.373L238.615 210.769L239.452 210.876L240.243 211.272L241.074 211.583L241.917 211.849L242.793 212.001L243.647 212.233L244.524 212.369L245.417 212.375L246.305 212.318L247.181 212.454L248.069 212.55L248.951 212.465L249.833 212.386L250.715 212.335L251.603 212.284L252.485 212.188L253.322 211.883L254.187 211.707L255.08 211.611L255.894 211.3L256.725 210.995L257.477 210.616L258.28 210.418L259.066 210.136L259.892 210.068L260.689 209.847L261.475 209.525L262.312 209.531L263.12 209.327L263.946 209.31L264.766 209.135L265.603 209.208L266.422 209.169L267.259 209.22L268.09 209.203L268.916 209.112L269.747 209.169L270.573 209.242L271.393 209.417L271.8 209.457L272.218 209.491L273.038 209.576L273.83 209.847L274.638 210.022L275.413 210.305L276.227 210.469L276.979 210.803L277.776 211.029L278.624 211.289L279.484 211.476L280.315 211.804L281.186 211.951L282.034 212.126L282.922 212.256L283.792 212.448L284.674 212.51L285.562 212.42L286.444 212.437L287.326 212.369L288.22 212.459L289.102 212.42L289.989 212.352L290.86 212.188L291.742 212.064L292.551 211.668L293.433 211.543L294.23 211.159L295.123 211.052L295.853 210.628L296.644 210.384L297.453 210.198L298.239 209.938L299.076 209.864L299.46 209.728L299.862 209.61L300.676 209.446L301.496 209.395L301.903 209.293L302.31 209.197L303.152 209.304L303.978 209.237L304.809 209.174L305.635 209.146L306.466 209.118L307.291 209.27L308.111 209.338L308.937 209.372L309.768 209.401L310.594 209.48L311.425 209.519L312.194 209.859L313.014 209.989L313.799 210.266L314.031 210.333L314.591 210.492L315.354 210.797L316.152 211.023L316.977 211.216L317.752 211.589L318.589 211.741L319.408 211.968L319.629 211.713L319.086 211.029L318.713 210.266L318.283 209.519L317.972 208.716L317.367 208.077L316.932 207.354L316.536 206.579L316.084 205.855L315.456 205.25L315.1 204.459L314.427 203.882L313.975 203.153L313.477 202.457L312.946 201.79L312.352 201.179L311.764 200.546L311.215 199.884L310.56 199.33L309.932 198.748L309.27 198.205L308.631 197.64L308.01 197.052L307.348 196.52L306.732 195.955L306.211 195.83L305.329 196L304.442 196.006L303.548 195.881L302.678 196.062L301.818 196.3L300.953 196.492H300.048L299.211 196.78L298.414 197.187L297.583 197.459L296.78 197.662L296.006 197.951L295.169 198.058L294.383 198.296L293.597 198.573L293.201 198.657L292.794 198.737L291.963 198.782L291.149 198.929L290.34 199.132L289.514 199.144L288.683 199.172L287.858 199.127L287.027 199.279L286.201 199.104L285.37 199.172L284.544 199.087L283.702 199.132L282.888 198.957L282.079 198.787L281.254 198.748L280.445 198.573L279.653 198.296L278.822 198.211L278.07 197.838L277.233 197.747L276.504 197.357L275.673 197.023L274.791 196.882L273.943 196.667L273.078 196.469L272.252 196.113L271.37 196.062L270.494 195.909L269.611 195.847L268.718 195.859L267.836 195.938L266.948 195.955L266.066 195.859L265.173 195.909L264.291 196.017L263.42 196.141L262.544 196.283L261.684 196.537L260.876 196.916L260.028 197.131L259.168 197.351L258.371 197.577L257.608 197.888L256.855 198.239L256.041 198.403L255.244 198.635L254.43 198.804L253.61 198.918L252.773 198.878L251.953 198.974L251.642 199.07L251.139 199.223L250.308 199.251L249.482 199.296L248.651 199.166L247.769 199.144L246.898 199.155L246.016 199.212L245.14 199.127L244.28 198.94L243.421 198.821L242.556 198.68L241.708 198.493L241.561 198.443L240.877 198.946L240.147 199.381L239.536 200.003L238.728 200.325L238.055 200.857L237.331 201.292L236.63 201.784L235.929 202.265L235.251 202.785L234.6 203.339L233.922 203.848L233.159 204.25L232.537 204.849L231.858 205.369L231.191 205.889L230.433 206.308L229.76 206.822L229.104 207.371L228.375 207.817L227.764 208.417L227.029 208.852L227.188 209.282L228.03 209.101Z" fill="#007EC5"/>
<path d="M324.988 231.525L324.881 230.688L324.791 229.936L324.779 229.84L324.824 228.986L324.604 228.155L324.57 227.307L324.338 226.487L324.372 225.622L323.982 224.83L324.027 223.959L323.654 223.173L323.484 222.342L323.224 221.534L323.258 220.646L322.902 219.866L322.614 219.068L322.252 218.299L322.184 218.249L321.381 218.107L320.572 217.977L320.177 217.887L319.775 217.796L318.995 217.61L318.152 217.678L317.35 217.508L316.643 217.033L315.845 216.869L315.082 216.592L314.257 216.501L313.482 216.043L312.577 215.981L311.803 215.467L310.875 215.523L310.027 215.297L309.173 215.077L308.291 214.992L307.398 215.077L306.522 214.794L305.64 214.788L304.757 214.833L303.875 214.947L302.988 215.054L302.117 215.184L301.235 215.241L300.387 215.54L299.934 215.529L299.476 215.518L298.64 215.806L297.831 216.173L296.994 216.417L296.254 216.818L295.417 216.92L294.653 217.265L293.845 217.434L292.997 217.457L292.199 217.638L291.397 217.802L290.577 217.938L289.762 218.09L288.943 218.26L288.117 218.266L287.286 218.254L286.449 218.141L285.629 218.102L285.211 218.215L284.792 218.328L283.972 218.028L283.158 217.949L282.304 218.119L281.479 218.022L280.693 217.717L279.879 217.57L279.059 217.423L278.284 217.112L277.436 217.044L276.684 216.688L275.955 216.287L275.073 216.145L274.202 215.959L273.359 215.732L272.534 215.393L271.652 215.303L270.798 215.065L269.927 214.907L269.034 214.986L268.146 214.862L267.264 214.952L266.382 214.969L265.5 215.06L264.612 214.98L263.742 215.195L262.848 215.178L261.966 215.325L261.112 215.535L260.298 215.925L259.478 216.236L258.574 216.321L257.855 216.762L257.03 216.875L256.487 217.01L256.221 217.067L255.447 217.35L254.621 217.457L253.869 217.887L253.044 217.972L252.201 217.904L251.398 218.152L250.567 218.26L249.742 218.277L248.91 218.328L248.074 218.107L247.242 218.13L246.428 218.085L245.591 218.107L244.766 218.056L243.957 217.858L243.098 218.028L242.278 217.881L241.469 217.689L240.661 217.491L239.909 217.101L239.14 216.807L238.326 216.643L237.568 216.315L236.669 216.224L235.815 215.993L235.029 215.535L234.164 215.342L233.271 215.331L232.852 215.144L232.434 214.963L231.546 214.873L231.501 214.867L230.659 214.85L229.771 214.913L228.883 214.924L228.442 214.913L227.995 214.896L227.119 215.071L226.226 214.969L225.338 214.992L224.49 215.314L223.591 215.32L222.714 215.489L221.9 215.863L221.029 216.026L220.628 216.207L220.221 216.383L220.243 216.456L220.272 216.535L219.457 216.818L218.655 217.135L217.857 217.468L217.1 217.881L216.302 218.22L215.488 218.554L214.781 219.063L214.046 219.532L213.441 220.171L212.791 220.748L212.084 221.234L211.44 221.794L210.795 222.359L210.162 222.936L209.506 223.484L208.98 224.174L208.324 224.723L207.668 225.271L207.046 225.848L206.351 226.351L205.836 227.058L205.158 227.578L204.434 228.053L203.88 228.709L203.309 229.348L202.551 229.778L201.935 230.366L201.488 231.14L200.895 231.689L201.059 231.672L201.901 231.926L202.721 232.26L203.603 232.379L204.428 232.69L205.265 233.034L206.164 232.989L207.052 232.984L207.923 233.176L208.805 233.181L209.693 233.215L210.58 233.357L211.457 233.091L212.35 233.17L213.238 233.119L214.097 232.893L214.957 232.678L215.867 232.661L216.681 232.294L217.467 231.881L218.372 231.791L219.175 231.587L219.904 231.169L220.696 230.931L221.487 230.682L222.335 230.677L223.099 230.281L223.924 230.207L224.744 230.1L225.57 230.06L226.407 230.106L227.226 230.032L228.052 229.987L228.883 229.976L229.709 230.021L230.545 229.795L231.365 229.992L232.196 230.009L233.028 230.038L233.825 230.343L234.639 230.456L235.453 230.597L236.256 230.79L237.11 230.812L237.845 231.236L238.608 231.553L239.462 231.593L240.254 232.005L241.113 232.22L241.961 232.458L242.793 232.791L243.686 232.769L244.534 233.068L245.41 233.198L246.304 233.125L247.197 233.063L248.074 233.334L248.967 233.306L249.838 233.125L250.72 233.046L251.619 233.165L252.49 232.972L253.338 232.684L254.169 232.396L255.085 232.384L255.888 232L256.674 231.587L257.482 231.366L258.274 231.146L259.116 231.072L259.897 230.778L260.694 230.592L261.514 230.456L262.317 230.292L263.137 230.236L263.939 229.981L264.771 229.896L265.596 229.789L266.427 229.891L267.264 229.766L268.095 229.778L268.91 230.055L269.741 230.089L270.566 230.072L271.397 230.185L272.2 230.366L273.065 230.236L273.857 230.484L274.643 230.773L275.418 231.078L276.243 231.18L276.984 231.547L277.798 231.711L278.64 231.994L279.438 232.407L280.286 232.65L281.202 232.622L282.061 232.831L282.915 233.018L283.808 233.029L284.679 233.176L285.567 233.249L286.449 233.159L287.331 233.193L288.213 233.034L289.101 233.018L289.983 233.006L290.865 232.95L291.747 232.848L292.567 232.452L293.426 232.265L293.981 232.096L294.269 231.994L295.14 231.847L295.914 231.542L296.649 231.129L297.424 230.818L298.232 230.626L299.092 230.688L299.855 230.298L300.669 230.128L301.501 230.094L302.315 229.93L303.146 229.913L303.983 230.009L304.814 229.987L305.64 229.891L306.471 229.862L307.285 230.083L308.116 230.077L308.942 230.083L309.762 230.185L310.587 230.287L311.418 230.326L312.232 230.507L313.041 230.677L313.855 230.852L314.652 231.089L315.438 231.333L316.19 231.666L316.993 232.068L317.887 232.147L318.718 232.446L319.543 232.763L320.397 233.029L321.291 233.018L322.184 232.989L323.043 233.317L323.942 233.193L324.824 233.125L324.921 233.148H324.932L325 232.373L324.988 231.525Z" fill="#43C5E4"/>
<path d="M145.974 115.948L146.019 116.434L146.861 117.158L147.5 117.904L147.84 118.153L148.009 118.328L148.546 118.809L148.936 119.391L149.745 120.059L150.288 120.5L150.91 121.252L151.814 122.275L152.855 123.18L153.873 124.096L154.726 125.164L155.789 126.035L156.785 126.974L156.852 127.036L157.107 127.324L157.785 128.116L158.492 128.868L158.526 128.89L158.617 129.004L159.499 129.722L159.917 130.361L160.646 130.881L161.613 131.814L162.433 132.916L162.852 133.267V133.273L162.863 133.278L163.49 133.798L163.926 134.166L164.288 134.754L165.068 135.444L165.209 135.551L165.385 135.766L166.363 136.693L166.527 136.903L166.753 137.134L167.279 137.734L168.28 138.661L169.207 139.667L169.727 140.052L170.14 140.578L170.875 141.296L171.112 141.454L171.192 141.539L171.978 142.161L172.379 142.709L172.843 143.19L173.074 143.518L174.07 144.31L174.539 144.92L175.302 145.446L176.077 146.294L176.184 146.255L176.846 146.379L177.479 145.785V144.768L177.417 144.253L177.479 142.992L177.338 141.658L177.355 141.205L177.417 140.21L177.4 139.894L177.406 139.701L177.372 139.385L177.343 138.814L177.287 138.045L177.281 137.672L177.343 136.767L177.439 136.037L177.423 135.715L177.428 135.659L177.49 134.647L177.321 133.634L177.377 132.628V132.526L177.49 131.876L177.383 130.807V130.598L177.502 129.597L177.456 128.585L177.383 128.054L177.423 127.703L177.372 127.256L177.496 126.567L177.332 125.792L177.439 124.921L177.372 124L177.451 123.536L177.242 122.784L177.162 122.049L176.224 120.873L175.879 120.505L175.579 120.036L174.759 119.38L174.041 118.628L173.809 118.43L173.419 117.921L172.515 117.169L171.808 116.434L171.163 115.609L170.383 114.924L170.202 114.755L169.608 114.088L168.675 113.302L168.251 112.651L167.386 112.114L166.73 111.238L166.012 110.576L165.967 110.531L165.26 109.762L164.536 109.197L163.915 108.332L162.891 107.444L162.795 107.342L162.371 106.777L161.54 106.155L160.85 105.369L160.154 104.605L159.414 103.876L158.843 103.486L158.074 102.723L157.701 102.282L157.237 101.648L156.293 101.507L155.461 101.829L154.76 102.564L154.455 103.277L153.776 103.938L153.03 105.075L152.668 105.51L152.369 105.844L152.289 105.951L152.159 106.115L152.012 106.33L151.769 106.669L151.249 107.54L150.684 108.383L150.554 108.563L149.717 109.349L148.925 110.446L148.241 111.617L147.444 112.697L147.235 113.025L147.02 113.228L146.624 113.946L145.872 114.902L145.906 115.247L145.838 115.677L145.974 115.948Z" fill="#007933"/>
<path d="M160.993 96.4506V96.4563L161.078 96.5411L161.734 97.2309L162.073 97.5532L162.955 98.5257L163.182 98.7971L163.504 99.029L164.001 99.487L164.595 100.052L164.754 100.245L165.506 100.997L166.303 101.709L167.043 102.478L167.485 102.874L168.033 103.485L168.717 104.174L169.215 104.813L169.944 105.413L170.035 105.503L170.091 105.554L170.724 106.3L171.437 106.871L171.985 107.556L172.183 107.759L172.228 107.816L172.347 107.929L172.969 108.568L173.405 108.969L173.738 109.314L174.501 110.049L175.287 110.767L175.791 111.248L176.034 111.514L176.073 111.497L176.927 111.779L177.459 110.965L177.357 110.292L177.436 109.512L177.425 108.93L177.436 108.811L177.419 108.641L177.402 108.064L177.374 106.611L177.368 106.295L177.447 105.582L177.351 104.553V104.468L177.442 103.439L177.368 102.783L177.379 102.269V100.827L177.436 99.3795L177.402 98.1582L177.413 98.0677L177.385 97.7228L177.346 96.6429L177.357 96.0548L177.408 95.0427L177.396 94.1324L177.408 93.7818L177.402 92.7075L177.306 91.9103L177.385 90.7059L177.436 89.2641L177.34 88.399V87.3473L177.413 86.2786L177.419 85.2043L177.413 85.1647L177.436 84.9273L177.363 83.5137V83.4515L177.374 82.79L177.425 81.9984L177.379 81.563L177.363 80.6018L177.47 79.1599L177.329 77.9951V77.7124L176.955 77L176.209 77.2601L176.158 77.2375L175.683 77.7633L175.434 78.0065L175.242 78.2439L175.18 78.3174L174.462 79.1769L174.06 79.6236L173.263 80.336L172.777 81.0937L172.602 81.3085L171.867 81.9362L171.188 82.7447L170.837 83.1744L170.272 83.7116L169.39 84.882L168.367 85.9281L167.92 86.5444L167.722 86.7705L166.981 87.5452L166.687 87.924L166.461 88.1502L165.545 89.2867L164.578 90.3893L163.662 91.5314L162.933 92.47L162.922 92.4813L162.203 93.2673L161.893 93.7875L161.853 93.8384L160.909 94.9579L160.914 95.0653L160.598 95.7269L160.993 96.4506Z" fill="#A5CF4F"/>
<path d="M183.864 106.029L183.858 106.255L183.824 107.68L183.841 107.906L183.824 108.347L183.898 109.291L183.824 110.53L184.288 111.248L185.13 111.073L185.928 110.292L186.759 109.557L187.025 109.258L187.166 109.128L187.59 108.641L188.257 107.923L188.268 107.912L189.168 107.16L190.117 106.125L190.864 105.339L191.231 104.977L192.136 104.18L193.137 103.196L193.674 102.608L193.804 102.518L194.596 101.749L194.895 101.415L195.104 101.217L195.913 100.233L196.009 100.12L197.044 99.2043L198.067 98.2431L198.373 97.9038L198.474 97.8134L199.215 96.9935L199.995 96.2132L200.386 95.4781L200.041 94.7487L199.441 93.8045L198.689 93.0016L197.96 92.1648L197.332 91.2714L196.637 90.4119L196.529 90.2932L196.467 90.2027L196.213 89.9653L195.879 89.6034L195.212 88.7383L194.861 88.4047L194.584 88.0145L193.646 86.9176L193.193 86.3918L193.069 86.2334L192.99 86.1543L192.707 85.8207L191.735 84.7577L190.847 83.6212L189.818 82.6091L188.873 81.5178L188.042 80.4718L188.025 80.4435L188.008 80.4322L187.98 80.387L187.053 79.5784L186.533 78.8264L186.193 78.4475L186.052 78.2496L185.82 78.0348L185.798 78.0122L185.057 77.2036L184.248 77.0453L183.717 77.7068L183.807 78.685L183.762 79.143L183.807 79.8498V79.9063L183.728 81.0033L183.807 81.5404L183.796 82.0041V82.7617L183.722 83.1971L183.853 84.2036L183.869 84.3902L183.892 85.0291L183.785 86.2843V86.3239L183.762 86.4822L183.785 86.7197L183.773 87.7092L183.796 88.6308V88.6648V89.7617V89.773L183.785 90.5703L183.745 91.9951L183.739 93.4257L183.779 94.8505V95.4329L183.745 96.3319L183.739 97.1009L183.717 97.7003L183.762 99.1308L183.739 100.205L183.717 100.703L183.762 101.794L183.734 102.891L183.739 102.936L183.717 103.405L183.785 103.976L183.717 105.073L183.864 106.029Z" fill="#62BB46"/>
<path d="M177.273 197.933L177.431 197.176L177.347 196.587L177.409 196.192L177.307 195.892L177.341 195.174L176.719 194.348L176.572 194.071L176.278 193.455L175.294 192.573L174.932 192.205L174.83 192.087L174.191 191.34L173.581 190.848L173.439 190.707L172.557 189.74L172.292 189.469L172.145 189.186L171.851 189.011L171.647 188.796L171.025 188.31L170.697 187.835L170.126 187.348L169.815 186.919L168.786 186.201L168.645 186.054L167.91 185.126L167.48 184.798L167.152 184.42L166.462 183.882L165.993 183.345L165.229 182.265L164.726 181.864L164.483 181.502L163.754 180.846L163.211 180.529L162.431 179.523L161.43 178.675L161.277 178.522L160.977 178.047L160.508 177.708L159.688 176.758L159.604 176.634L159.411 176.532L158.631 175.927L157.839 174.87L157.545 174.689L157.483 174.581L156.731 173.948L156.092 173.202L155.617 172.857L155.041 172.274L154.713 171.788L153.955 171.375V171.37L153.158 170.318L152.44 169.803L151.874 169.074L151.156 168.407L150.511 167.66L149.844 166.937L149.081 166.315L148.793 166.111L148.504 165.749L147.667 165.088L147.594 165.008L146.978 164.245L146.791 164.081L146.655 163.912L146.118 163.425L145.671 162.769L144.987 162.063L144.258 161.441L143.964 161.079L143.065 160.14L142.364 159.507L142.177 159.309L141.459 158.63L140.696 158.003L139.989 157.319L139.915 157.257L139.406 156.431L138.824 155.928L138.745 155.786L138.033 155.108L137.478 154.712L137.461 154.689L137.139 154.407L136.664 153.694L135.935 153.033L135.177 152.4L134.504 151.681L133.82 150.98L133.108 150.302L132.339 149.68L132.333 149.669L131.926 149.165L131.739 149.007L131.683 148.95L131.078 148.159L130.405 148.102L130.066 147.927L129.365 148.707L129.28 149.889L129.285 150.505L129.268 150.607L129.071 151.534L128.974 152.479L129.031 152.761L128.861 153.423L128.89 154.712L128.957 156.007L129.274 157.053L129.291 157.358L129.155 158.365L129.359 158.919L129.432 159.75L129.336 160.327L129.551 161.294L129.709 161.746L129.76 162.396L129.89 163.227V163.239L129.896 163.273L129.958 163.668L129.998 163.787L130.071 164.206L130.405 165.144L130.428 165.201L130.62 166.162L130.846 167.434L130.97 167.694L131.01 168.045L131.315 168.989L131.745 169.634L131.807 169.826L132.045 171.109L132.237 171.471L132.333 171.777L132.661 172.331L132.995 173.326L133.057 173.609L133.13 173.71L133.52 174.683L134.063 175.848L134.64 176.809L134.725 177.193L135.194 177.708L135.409 178.053L135.929 179.235L136.591 180.343L137.348 181.383L137.976 182.508L138.23 182.763L138.377 183.046L139.005 183.815L139.463 184.702L140.051 185.494L140.198 185.601L140.226 185.652L141.233 186.495L141.889 187.625L142.726 188.609L143.331 189.079L143.381 189.141L143.512 189.231L143.743 189.412L144.326 189.915L144.71 190.605L145.468 191.244L146.209 191.894L146.995 192.505L147.537 192.912L148.414 193.856L148.996 194.128L149.284 194.371L150.082 194.948L150.302 195.134L150.511 195.355L150.63 195.406L150.839 195.587L151.648 196.152L152.44 196.757L153.31 197.074L153.757 197.453L154.871 198.097L155.38 198.352L155.855 198.736L156.426 198.928L157.104 199.381L157.839 199.641L158.518 200.031L159.129 200.268L159.451 200.449L160.599 201.037L161.837 201.405L162.583 201.705L163.047 201.987L163.59 202.061L164.257 202.281L165.456 202.756L165.829 202.835L165.88 202.852L166.796 203.231L167.322 203.254L167.927 203.486L169.17 203.836L169.996 203.825L170.675 204.006L171.183 204.125L171.698 204.362L172.128 204.323L172.603 204.407L173.456 204.345L174.276 204.532L175.17 204.69L175.537 204.848L176.481 204.662L176.691 204.368L176.826 204.323L177.409 203.096L177.386 202.813L177.397 202.106L177.403 201.117L177.42 200.839L177.505 200.331L177.488 198.951L177.273 197.933Z" fill="#A5CF4F"/>
<path d="M183.799 141.358V141.669L183.838 142.059L183.799 143.117L183.81 143.258L183.725 143.727L183.878 144.621L183.725 145.78L183.799 145.808L184.341 146.379L185.02 146.283L185.139 146.328L185.789 145.554L185.812 145.531L186.626 144.864L187.089 144.287L188.107 143.467L189.057 142.478L190.069 141.556L190.934 140.482L191.862 139.521L192.512 139.034L192.534 139.006L192.987 138.667L193.473 138.034L194.027 137.627L194.711 136.846L195.186 136.286L195.842 135.721L196.854 134.805L197.312 134.296L197.685 133.974L198.036 133.476L198.443 132.996L199.122 132.481L199.631 131.91L199.698 131.848L199.913 131.588L200.479 130.921L201.304 130.282L202.028 129.541L202.435 129.162L202.656 129.009L203.605 128.026L203.815 127.743L204.261 127.392L204.725 126.72L205.551 126.103L206.144 125.408L206.444 125.199L206.896 124.605L207.405 124.102L207.727 123.706L207.801 123.632L208.44 122.886L208.519 122.818L209.311 122.23L209.808 121.608L210.266 121.173L211.256 120.234L211.42 120.081L211.482 120.036L211.55 119.957L212.245 119.295L213.189 118.312L213.489 118.001L213.676 117.848L214.399 117.119L215.197 116.457L215.327 115.671L215.163 114.998L214.693 114.077L214.66 114.037L214.53 113.771L213.772 112.618L212.924 111.532L212.443 110.831L212.364 110.661L211.731 109.847L211.171 108.971L210.572 108.134L209.933 107.506L209.644 107.105L208.875 105.963L208.689 105.754L208.649 105.703L207.971 104.922L207.433 104.029L207.343 103.922L207.241 103.746L206.715 103.13L206.223 102.361L205.517 101.592L204.719 101.049L204.024 101.434L203.758 101.394L202.803 102.344L201.898 103.345L201.892 103.356L201.576 103.594L201.417 103.854L200.976 104.317L199.958 105.194L199.574 105.657L199.399 105.793L198.771 106.624L198.053 107.365L197.216 107.981L197.165 108.038L197.143 108.055L196.967 108.281L196.56 108.779L196.063 109.367L195.695 109.712L195.056 110.181L194.87 110.441L194.316 110.905L193.812 111.515L193.631 111.662L193.162 112.182L192.421 112.787L191.511 113.76L191.488 113.783L191.438 113.833L191.37 113.913L190.618 114.755L190.595 114.778L189.928 115.236L189.289 116.05L189.057 116.321L188.718 116.638L188.424 116.966L187.745 117.407L187.333 118.035L186.784 118.481L186.422 118.888L186.366 118.939L186.236 119.098L185.896 119.482L185.478 119.929L184.884 120.358L184.63 120.856L183.985 121.591L183.946 122.015L183.895 122.1L183.872 122.909L183.861 123.101L183.804 124.435L183.731 125.781L183.833 126.703L183.776 127.24L183.782 127.816L183.697 128.45L183.833 129.541L183.838 130.333L183.736 131.367L183.787 132.396L183.753 133.425L183.765 133.646V133.793L183.77 135.122L183.81 136.45L183.725 137.383L183.703 137.547V137.644L183.691 137.785L183.708 137.909L183.731 138.576L183.866 139.351L183.686 140.454L183.799 141.358Z" fill="#A5CF4F"/>
<path d="M232.174 156.004L232.072 154.861L232.135 154.415L232.112 154.234L232.225 153.425L231.993 152.391L232.157 151.452L232.072 151.203L232.101 150.966L231.892 149.744L231.648 148.625L231.643 148.54L231.032 147.867L230.19 148.105L230.093 148.201L229.161 148.947L228.194 149.829L227.82 150.366L227.244 150.768L226.526 151.446L226.339 151.786L225.44 152.634L224.552 153.601L224.009 154.172L223.823 154.319L223.127 155.014L223.122 155.02L222.675 155.427L222.262 156.015L221.663 156.337L221.013 157.078L220.323 157.785L219.667 158.525L219.006 159.255L218.293 159.933L218.056 160.16L217.123 160.951L216.614 161.556L216.144 161.963L215.438 162.653L214.703 163.309L214.657 163.388L214.312 163.688L213.402 164.615L212.82 165.491L212.78 165.554L211.955 166.125L211.836 166.294L211.57 166.475L210.66 167.408L210.055 168.126L209.919 168.251L209.258 168.991L208.573 169.693L208.534 169.749L207.923 170.224L206.922 171.061L206.628 171.53L206.402 171.683L205.933 172.395L205.164 172.978L204.372 173.792L204.361 173.803L203.592 174.42L203.061 175.273L202.416 175.952L201.506 176.704L201.132 177.094L200.906 177.298L200.177 177.953L199.47 178.638L199.091 179.254L198.859 179.576L197.717 180.272L197.361 180.662L197.338 180.673L196.666 181.386L196.485 181.668L196.015 182.245L195.829 182.466L195.337 182.839L194.63 183.523L193.935 184.213L193.183 184.852L192.578 185.643L192.493 185.756L192.317 185.926L191.543 186.706L191.124 186.972L190.746 187.481L190.468 187.752L189.965 188.154L189.705 188.335L189.677 188.391L189.451 188.572L188.518 189.482L187.692 190.5L187.353 190.902L187.019 191.196L186.262 191.835L185.804 192.417L184.843 193.186L184.565 193.723L184.198 193.989L184.062 194.86L183.955 195.284L183.74 195.974L183.802 196.997L183.83 197.234L183.678 198.354L183.74 199.541L183.802 200.729L183.83 200.961L183.819 201.068L183.943 202.063L183.746 203.098L184.011 203.516L184.085 203.946L184.667 204.709L185.634 204.828L186.086 204.658L186.906 204.653L187.952 204.325L188.54 204.257L189.547 204.325L190.157 204.093L190.729 204.065L191.068 203.963H191.498L191.927 203.703L191.973 203.692L193.211 203.352L193.641 203.217L194.364 203.205L195.224 202.877L195.738 202.821L195.993 202.696L196.258 202.64L197.005 202.244L197.717 202.091L198.136 202.029L198.204 201.973L199.329 201.39L200.578 201.062L201.732 200.486L201.924 200.373L202.642 200.011L203.558 199.643L204.457 199.225L205.023 198.846L205.192 198.75L206.193 197.969L206.922 197.585L207.821 197.161L208.132 196.923L208.494 196.748L208.833 196.477L209.535 196.177L210.36 195.634L211.118 194.995L211.915 194.419L212.678 193.791L213.476 193.203L214.205 192.541L214.889 191.823L214.9 191.806L215.641 191.286L216.625 190.449L217.083 189.969L217.162 189.924L217.835 189.2L218.406 188.374L219.203 187.769L219.825 186.995L219.933 186.831L220.114 186.655L220.566 185.977L221.03 185.434L221.652 184.665L222.217 183.862L222.619 183.172L223.156 182.494L223.489 182.019L223.97 181.465L224.168 180.826L224.366 180.396L224.965 179.757L225.338 178.841L225.446 178.66L225.847 178.106L226.526 177.009L226.803 176.093L227.266 175.398L227.662 174.493L227.888 173.888L228.137 173.498L228.471 172.491L228.855 171.785L229.144 170.84L229.375 170.258L229.59 169.913L229.652 169.382L229.754 168.963L229.85 168.307L230.212 167.408L230.648 166.249L230.687 166.147L230.896 165.181L230.891 164.287L230.987 163.874L231.207 163.23L231.298 162.772L231.411 162.399L231.422 161.234L231.795 160.323L231.711 159.549L231.908 158.571V158.508L231.954 158.356L231.92 158.09L231.931 157.276L232.174 156.004Z" fill="#62BB46"/>
<path d="M183.83 183.402L184.316 184.029L184.961 183.888L185.165 183.99L185.894 183.323L185.905 183.317V183.311L186.12 183.119L186.578 182.412L187.37 181.96L188.037 181.219L188.687 180.462L189.111 179.941L189.711 179.427L190.66 178.562L190.689 178.522L190.87 178.426L191.164 177.872L191.429 177.51L191.542 177.397L192.261 177.007L192.888 176.226L193.488 175.424L194.364 174.903L194.658 174.4L195.178 174.004L195.783 173.173L196.394 172.721L196.643 172.455L196.988 172.206L197.762 171.166L198.865 170.453L199.334 169.758L199.984 169.294L200.555 168.463L201.217 167.722L201.975 167.072L202.789 166.484L203.049 166.004L203.298 165.823L204.31 165.025L204.79 164.302L204.796 164.296L205.073 163.9L205.967 163.058L206.933 162.21L207.81 161.282L207.855 161.226L208.398 160.892L209.031 160.129L209.342 159.682L209.608 159.467L209.924 159.117L210.484 158.789L210.829 158.155L211.383 157.624L211.423 157.59L211.819 157.324L211.92 157.189L212.384 156.815L212.87 156.176L213.21 155.916L213.877 155.181L214.685 154.593L214.861 154.345L215.155 154.164L215.992 153.191L216.828 152.224L217.117 151.975L217.433 151.738L217.484 151.653L217.79 151.387L218.592 150.42L218.773 150.279L219.48 149.584L220.029 149.041L220.487 148.662L221.109 147.87L221.634 147.537L221.787 147.316L222.369 146.926L223.093 145.886L223.393 145.665L224.162 145.111L224.631 144.342L225.055 143.958L225.836 143.336L226.537 142.663L226.893 142.414L227.424 141.651L227.928 141.232L228.51 140.412L228.753 139.66L228.911 139.259L228.521 138.055L227.956 136.918L227.843 136.765L227.775 136.488L227.294 135.606L226.904 134.679L226.429 133.938L226.271 133.503L225.802 132.807L225.434 132.061L225.197 131.049L224.744 130.161L224.071 129.381L223.704 128.442L223.229 127.56L222.765 126.667L222.245 125.808L222.149 125.672L222.138 125.644L221.753 125.101L221.674 124.982L221.205 124.1L220.673 123.246L220.244 122.766L220.08 122.438L219.282 121.753L218.248 122.127L217.739 122.607L217.512 122.794L217.473 122.856L217.315 123.014L216.845 123.783L216.155 124.247L215.811 124.631L215.488 124.824L214.618 125.768L213.758 126.724L213.6 126.91L213.391 127.074L212.684 127.758L211.994 128.471L211.909 128.595L210.982 129.381L210.264 130.37L209.936 130.591L209.58 131.145L209.365 131.383L209.139 131.575L208.5 131.931L207.934 132.581L207.391 133.022L206.526 133.955L206.294 134.266L205.723 134.736L205.277 135.499L205.135 135.652L204.282 136.087L203.575 136.771L203.072 137.58L202.992 137.659L202.975 137.676L202.24 138.219L201.5 138.874L201.273 139.208L201.093 139.372L200.702 139.881L200.131 140.282L199.425 140.967L199.193 141.351L198.328 142.024L198.062 142.437L197.366 143.087L196.62 143.731L196.58 143.782L196.513 143.828L195.67 144.783L195.557 144.908L195.263 145.156L195.161 145.309L194.782 145.699L193.985 146.706L192.973 147.497L192.611 147.989L192.572 148.012L192.272 148.436L192.204 148.532L191.82 148.922L191.09 149.318L190.378 149.985L189.699 150.703L189.53 151.003L189.4 151.144L188.399 151.936L187.556 152.897L187.432 153.078L186.872 153.44L186.324 154.277L186.261 154.339L185.741 154.678L185.006 155.741L184.854 155.95L184.305 156.442L184.209 156.878L184.169 156.929L184.107 157.307L184.085 157.403L183.751 158.353L183.836 158.874L183.689 159.676L183.796 161L183.836 161.904L183.734 162.374L183.802 162.798L183.723 163.64L183.768 163.94L183.66 164.381L183.621 165.382L183.734 165.896L183.655 166.281L183.841 167.084V167.383L183.898 167.83L183.632 168.916L183.813 170.233V170.312L183.802 170.386L183.824 170.572L183.847 171.545L183.841 171.584L183.717 172.393L183.728 173.394L183.751 173.857L183.728 174.18L183.819 174.915L183.858 175.395L183.615 176.402L183.649 177.403L183.728 177.629L183.627 178.138L183.655 179.449L183.7 180.761L183.785 181.864L183.644 182.401L183.83 183.402Z" fill="#007933"/>
<path d="M177.473 179.811L177.4 179.122L177.496 178.749L177.354 178.019L177.366 177.454L177.485 176.798L177.287 176.001L177.338 174.762L177.321 173.49L177.287 172.557L177.417 171.946L177.281 170.974L177.309 170.397L177.468 169.707L177.338 168.989L177.411 168.051L177.405 167.327L177.422 167.186L177.439 165.919L177.343 164.664L177.36 163.397L177.292 162.849L177.287 162.232L177.417 161.254L177.422 160.287L177.371 159.615L177.343 158.354L177.315 158.235L177.309 157.342L176.738 156.499L176.286 155.589L175.653 155.136L175.319 154.746L174.844 154.379L174.77 154.305L174.211 153.463L173.385 152.897L172.763 152.117L171.994 151.512L171.706 151.094L171.107 150.534L170.733 149.957L170.388 149.77L169.942 149.233L169.484 148.871L169.32 148.583L168.579 147.927L167.889 147.305L167.166 146.587L166.38 145.846L165.905 145.326L165.396 144.733L164.989 144.371L164.451 143.698L163.694 143.053L162.925 142.437L162.314 141.645L161.952 141.312L161.8 141.114L160.918 140.192L160.233 139.638L160.199 139.593L159.572 138.818L159.442 138.75L159.142 138.343L158.22 137.467L157.485 136.76L157.48 136.743L157.451 136.72L157.299 136.579L156.377 135.697L156.106 135.499L156.027 135.414L155.297 134.753L154.749 133.905L154.33 133.707L153.742 132.915L152.843 132.242L152.544 131.948L152.459 131.875L151.842 131.213L150.977 130.275L149.937 129.517L149.909 129.483L149.637 129.132L149.168 128.386L148.342 127.815L147.766 127.006L147.223 126.662L146.556 125.887L146.386 125.61L145.645 124.954L144.984 124.225L144.26 123.557L143.502 122.924L143.208 122.658L142.858 122.178L142.242 122.014L141.874 121.844L141.348 122.189L140.964 122.376L140.229 123.433L139.901 124.586L139.663 124.931L138.996 125.678L138.329 126.775L137.746 127.917L137.707 128.024L137.334 128.454L136.932 129.393L136.768 129.794L136.474 130.133L136.078 131.377L135.943 131.592L135.524 132.078L134.976 132.926L134.88 133.373L134.767 133.577L134.631 134.103L134.145 134.77L133.839 135.573L133.602 135.861L133.291 136.969L132.912 137.54L132.533 138.479L132.104 139.395L132.488 140.661L133.082 141.487L133.557 141.764L134.207 142.595L134.948 143.161L135.202 143.596L136.045 144.161L136.763 144.863L136.797 144.891L137.057 145.207L137.916 146.163L138.759 147.147L139.799 147.927L140.579 148.956L141.552 149.804L142.015 150.121L142.315 150.545L143.022 151.246L143.638 152.038L144.068 152.258L144.266 152.524L145.306 153.287L145.838 154.056L146.228 154.345L146.946 155.085L147.212 155.493L147.93 155.951L148.02 156.024L148.15 156.177L148.603 156.912L149.343 157.573L149.988 158.337L150.683 159.043L151.548 159.569L151.865 159.909L152.363 160.757L153.431 161.503L153.759 161.803L154.257 162.481L154.998 163.137L155.614 163.929L155.625 163.94L155.976 164.392L156.541 164.726L156.982 165.354L157.706 165.829L157.91 166.089L158.023 166.213L158.373 166.761L158.746 167.016L158.769 167.039L159.238 167.361L159.775 168.164L160.33 168.429L160.624 168.814L161.506 169.73L161.579 169.792L161.896 170.25L162.738 170.81L162.795 170.855L163.287 171.562L163.705 171.884L163.993 172.348L164.689 172.868L165.079 173.388L165.967 174.31L166.985 175.096L167.358 175.486L167.573 175.791L168.336 176.43L168.992 177.177L169.653 177.906L169.704 177.934L170.564 178.765L170.739 178.952L170.988 179.376L171.751 179.919L171.825 179.975L172.571 180.558L172.622 180.631L173.086 181.491L173.707 181.836L174.092 182.124L174.59 182.791L174.64 182.825L174.991 183.379L175.766 183.933L175.958 184.233L176.93 184.505L177.513 183.617L177.485 183.532L177.4 182.35L177.462 181.689L177.468 181.666V181.66L177.524 181.084L177.473 179.811Z" fill="#62BB46"/>
<path d="M95.0344 222.112L95.3115 221.874L95.6168 221.688L95.843 221.428L96.007 221.281L96.8551 220.331L97.1717 219.958L97.5901 219.483L97.8785 219.16L98.3648 218.685L99.1677 218.261L99.4843 217.792L99.637 217.685L100.564 216.797L100.858 216.424L101.164 216.084L101.39 215.773L102.396 215.021L103.278 214.1L104.143 213.206L104.703 212.675L104.794 212.528L105.054 212.257L105.506 211.623L106.117 211.301L106.654 210.515L106.801 210.396L106.829 210.379L107.513 209.916L107.564 209.825L107.83 209.622L108.605 208.581L109.543 207.727L110.476 206.857L110.945 206.212L111.669 205.737L112.297 204.985L112.998 204.295L113.371 203.719L114.01 203.164L114.977 202.339L115.152 202.096L115.752 201.485L116.458 200.801L117.086 200.038L117.878 199.438L118.194 199.014L118.567 198.737L118.827 197.759L118.37 196.837L117.318 196.102L116.238 195.803L115.689 195.401L115.633 195.379L115.062 194.881L114.163 194.327L114.05 194.197L113.886 194.163L112.834 193.626L112.201 193.417L112.184 193.4L111.42 193.043L110.606 192.348L110.024 192.167L109.549 191.907L108.633 191.477L108.463 191.387L108.282 191.279L107.248 190.686L106.891 190.442L105.992 190.001L105.274 189.809L104.884 189.487L103.646 189.136L103.239 189.001L103.137 188.961L102.289 188.35L101.339 188.011L99.9876 188.271L99.7218 188.774L99.1846 189.283L98.1499 190.086L97.8446 190.476L97.183 191.115L96.4763 191.822L95.8203 192.574L95.0514 193.213L94.7856 193.609L94.5764 193.801L93.5982 194.638L92.8293 195.684L91.7889 196.464L91.5854 196.69L91.5345 196.73L91.5005 196.787L90.9464 197.431L90.2057 198.494L89.6233 199.031L89.4367 199.207L89.2671 199.376L88.2211 200.139L87.503 201.129L86.6605 201.689L85.9707 202.396L85.6201 202.854L85.5523 202.916L84.7154 203.9L83.7542 204.753L82.8156 205.635L81.9957 206.41L81.7074 206.557L81.0175 207.275L80.3503 208.005L80.3221 208.05L79.9828 208.242L79.2421 209.311L79.0951 209.475L79.0442 209.509L78.1904 210.057L77.8625 210.673L77.3706 211.069L76.3528 211.855L75.8552 212.703L75.4933 212.969L74.7809 213.653L74.7187 213.738L74.6678 213.783L73.7122 214.648L73.356 215.146L72.6153 215.683L72.2195 216.288L71.9311 216.503L71.0095 217.385L70.4497 218.143L69.8108 218.488L69.562 218.9L69.1832 219.166L68.6404 219.861L68.4933 219.98L67.8544 220.585L67.3682 220.964L67.0628 221.247L67.0063 221.286L66.9893 221.309L66.4409 221.846L65.6493 222.864L65.1235 223.367L64.9821 223.469L64.281 224.17L63.8004 224.837L62.873 225.516L62.2115 226.206L62.1493 226.239L61.8948 226.522L61.0524 227.314L61.0411 227.331L60.6961 227.602L59.9781 228.292L59.6219 228.863L59.2487 229.14L58.5928 230.005L57.8464 230.367L57.3997 230.842L57.3602 230.87L57.3093 230.938L57.1679 231.091L56.5968 231.916L56.5742 232.674L57.1057 233.313L57.1227 233.364L57.3658 233.347L58.1008 233.392L58.4684 233.29L59.6614 233.403L60.6113 233.358L61.0297 233.392L61.9966 233.353L62.9692 233.386L63.9417 233.364L64.9142 233.251L65.7228 233.211L65.9829 233.222L67.2494 233.2L68.3577 233.16L68.81 233.155L69.7769 233.07L69.8787 233.075L71.0321 233.341L71.6824 233.228L71.7163 233.234L72.6888 233.398L73.1581 233.245L73.5596 233.302L74.3908 233.307L74.6396 233.392L74.9335 233.302L76.0927 233.222L76.8221 233.234L77.5402 233.358L78.5127 233.398L79.4004 233.126L79.6662 233.149L80.4521 233.33L81.4246 233.324L82.3915 233.392L83.3584 232.991L83.4489 232.957L83.8277 232.855L83.8899 232.815L84.2914 232.685L85.0886 232.109L85.3374 231.769L86.0046 231.193L86.1742 230.972L86.5304 230.735L87.1241 229.932L87.4181 229.598L87.7405 229.298L88.0627 228.942L88.5321 228.541L89.007 228.049L89.6459 227.585L90.5223 226.647L91.0764 226.183L91.5175 225.945L92.0999 225.126L92.6427 224.521L93.259 223.944L94.1637 223.05L95.0344 222.112Z" fill="#E82C2A"/>
<path d="M130.29 221.89L130.946 221.082L131.76 220.426L132.252 219.878L132.416 219.764L132.931 219.171L133.185 218.916L133.332 218.718L134.22 217.757L135.164 216.796L136.142 215.857L137.081 214.885L137.822 214.127L138.308 213.765L139.06 213.059L139.467 212.131L138.913 211.328L138.907 211.311L138.014 210.763L137.364 210L136.838 209.66L136.798 209.621L135.673 208.88L134.627 208.009L134.22 207.744L134.09 207.608L133.259 207.02L132.36 206.534L132.184 206.409L131.393 205.567L130.873 205.188L130.85 205.165L130.782 205.126L130.302 204.781L129.125 204.097L128.04 203.288L127.91 203.203L127.525 202.847L126.875 202.542L125.84 201.727L125.778 201.733L125.054 201.552L124.529 201.846L124.308 201.869L123.986 202.242L123.55 202.581L123.217 203.101L122.414 203.865L122.046 204.277L121.34 204.781L120.735 205.64L120.226 206.149L119.491 206.754L118.473 207.67L117.857 208.365L117.709 208.473L117.02 209.242L116.403 209.915L115.606 210.548L115.487 210.633L115.363 210.831L114.713 211.645L114.04 212.357L113.469 212.928L112.785 213.584L111.739 214.472L111.207 215.122V215.128L110.438 215.823L109.697 216.547L108.928 217.243L108.651 217.667L107.826 218.289L107.074 219.188L106.791 219.487L106.056 220.211L105.756 220.624L104.97 221.229L104.083 222.179L103.834 222.365L103.777 222.456L103.008 223.129L102.081 224.13L101.08 225.057L100.453 225.916L100.249 226.08L99.8873 226.487L99.2032 227.041L98.7112 227.669L98.0157 228.201L97.5182 228.715L97.2298 228.919L96.817 229.445L96.5852 229.688L96.2007 230.185L95.788 230.638L95.1094 231.135L94.397 231.882L94.1426 232.781L94.9625 233.295L95.4713 233.193L96.359 233.255L96.8001 233.278L96.9923 233.323L98.0101 233.352L99.0165 233.278L99.5594 233.205L100.532 233.261L101.787 233.199L102.053 233.233H103.065L104.071 233.289L104.349 233.239L104.705 233.289L106.096 233.216L106.373 233.193L107.108 233.239L108.12 233.312L109.126 233.357L110.138 233.239L111.151 233.278L112.157 233.188L112.366 233.193L113.039 233.267L113.333 233.239L114.176 233.306L115.193 233.227L115.453 233.239L115.815 233.289L116.002 233.272L116.194 233.289L117.206 233.323L117.777 233.114L118.705 233.012L119.575 232.306L119.915 232.113L120.644 231.373L120.672 231.339L120.876 231.158L121.464 230.44L122.125 229.903L122.312 229.659L122.821 229.269L123.499 228.449L123.567 228.393L124.37 227.72L125.156 227.041L125.495 226.482L125.648 226.357L126.655 225.453L127.531 224.418L128.096 223.768L128.577 223.276L128.831 223.083L129.555 222.625L130.29 221.89Z" fill="#C3271B"/>
<path d="M163.535 231.99L162.992 231.532L162.444 231.029L161.539 230.277L161.16 229.881L160.437 229.106L159.566 228.479L158.893 227.97L158.056 227.184L157.038 226.126L155.874 225.244L154.822 224.215L154.432 223.932L154.036 223.514L153.391 223.107L152.611 222.315L151.469 221.394L150.971 220.958L150.785 220.749L150.446 220.5L150.361 220.433L149.315 219.584L149.123 219.415L148.987 219.324L148.065 218.612L146.917 217.707L146.205 217.102L145.809 216.752L145.029 216.418L144.271 216.819L143.53 217.594L142.733 218.301L142.479 218.584L142.236 218.81L141.574 219.522L141.246 219.833L140.72 220.427L140.477 220.687L139.714 221.315L138.973 222.078L138.232 222.847L137.769 223.441L137.271 223.893L137.152 224.006L136.711 224.334L135.988 225.114L135.609 225.538L135.258 225.889L135.162 225.991L134.45 226.579L133.709 227.336L133.308 227.755L133.194 227.84L132.188 228.823L131.747 229.304L131.447 229.592L130.673 230.316L130.006 231.159L129.508 231.651L129.237 231.894L129.248 231.916L129.135 232.719L129.785 233.115L129.791 233.138L131.244 233.29L132.691 233.256L134.144 233.222L134.563 233.217L135.173 233.279L136.242 233.222L136.819 233.205H137.039L137.661 233.217L138.396 233.268L139.465 233.279L140.539 233.29L140.754 233.268L141.382 233.296L142.818 233.251L143.762 233.211L144.548 233.205L145.136 233.234L145.9 233.313L146.522 233.251L147.16 233.239L147.341 233.228L148.048 233.273L149.123 233.183L150.197 233.319L150.615 233.262L151.497 233.296L152.549 233.172L153.403 233.29L154.483 233.245L155.546 233.307L155.772 233.29H155.828L157.276 233.211L158.718 233.239L159.402 233.228L159.832 233.29L160.9 233.307L161.087 233.29L161.601 233.324L162.597 233.2L163.049 233.211L163.716 232.787L163.535 231.99Z" fill="#E82C2A"/>
<path d="M56.9829 222.237L57.7858 221.677L58.1533 221.332L58.4926 221.095L58.911 220.58L59.1824 220.286L59.4368 219.936L59.9853 219.336L60.6016 218.918L60.8108 218.635L61.2349 218.296L61.9756 217.431L62.7107 216.848L62.9085 216.503L63.0273 216.39L64.0224 215.542L64.5992 214.801L64.7406 214.7L65.0006 214.377L65.8883 213.716L66.352 212.964L66.7987 212.585L67.2114 212.087L67.6298 211.759L68.1387 211.256L68.201 211.205L68.2914 211.109L68.5628 210.843L68.8568 210.476L68.8625 210.47L69.6371 209.854L69.9594 209.39L70.44 209.028L70.9602 208.31L71.65 207.711L72.3285 206.999L72.7243 206.529L73.1258 206.19L73.4764 205.777L73.6912 205.585L74.251 204.98L75.0086 204.369L75.2801 204.03L75.8568 203.572L76.6258 202.956L77.3043 202.249L77.898 201.452L78.6387 200.802L78.9496 200.417L79.6847 199.84L79.9901 199.541L80.0918 199.473L80.1371 199.399L80.6177 198.936L81.4884 197.969L82.3761 197.013L82.4496 196.923L82.8002 196.612L83.3373 195.888L84.3269 195.277L85.1863 194.288L86.0118 193.394L86.3171 193.18L87.0466 192.518L87.5441 191.823L87.9117 191.495L88.6524 190.703L89.1443 190.443L89.8058 189.714L90.5013 189.024L91.1119 188.243L91.2759 188.057L91.5982 187.802L92.0845 187.175L92.4576 186.807L92.8195 185.953L92.8365 185.936L92.7573 185.869L92.0619 185.218L91.1232 185.032L90.4504 185.151L89.9302 185.162L89.2178 185.009L88.2848 184.806L87.9512 184.89L87.3349 184.738L86.0458 184.766L84.7566 184.828L84.5587 184.885L84.3721 184.851L83.3939 185.077L82.4044 185.06L81.839 185.241L80.9174 185.309L80.6912 185.348H80.4481L80.0296 185.462L79.6564 185.529L78.3616 185.631L77.0894 185.829L76.9424 185.874L76.541 185.914L75.8455 186.236L74.5959 186.485L73.3237 186.711L72.6113 187.062L71.7575 187.141L71.062 187.633L70.9376 187.678L70.1743 187.819L69.9085 187.848L69.8406 187.882L69.6484 187.915L68.7381 188.39L68.0878 188.605L67.856 188.73L67.2736 188.916L66.075 189.391L65.7583 189.538L65.3229 189.685L65.1024 189.844L64.9102 189.94L63.7963 190.596L63.6153 190.709L62.6937 191.031L61.8116 191.495L60.9861 192.043L60.8108 192.224L60.415 192.456L59.3746 193.225L58.2495 193.847L57.9837 194.107L57.7349 194.271L56.9886 194.932L56.1517 195.458L55.8633 195.718L55.1057 196.097L54.4441 196.889L53.8448 197.302L53.5677 197.505L53.1324 197.76L52.1485 198.596L51.3456 199.62L50.5031 200.598L50.1582 200.926L49.5306 201.35L48.9199 202.13L48.2019 202.814L47.9813 203.25L47.857 203.397L46.907 204.279L46.6017 204.923L46.3925 205.155L45.9741 205.834L45.4086 206.382L45.0241 207.185L44.7019 207.587L44.0969 208.367L43.6163 209.238L42.9773 209.995L42.5476 210.889L42.4741 211.121L42.0896 211.895L41.3772 212.969L41.0775 213.835L40.71 214.377L40.2915 215.271L40.235 215.463L39.7205 216.464L39.6017 216.877L39.466 217.069L39.4208 217.487L39.3586 217.708L38.9515 218.72L38.8214 218.935L38.7819 219.2L38.4765 220.128L38.0016 221.326L37.7415 222.587L37.2722 223.797L36.9273 225.041V225.222L36.7972 225.545L36.6106 226.517L36.6728 226.964L36.3958 227.569L36.4806 228.519L36.311 229.469V229.768L36.2261 230.147L36 231.414L36.0735 231.634L36.2657 232.273L36.311 232.335L36.4354 232.697L36.7124 232.827L36.8142 232.952L37.504 233.206L37.6623 233.285L38.9911 233.161L39.2851 233.195L40.4273 233.376L41.8069 233.359L42.2084 233.28L42.5985 233.285L43.5823 233.257L43.9442 233.183L44.5662 233.285L45.2899 233.031L45.533 233.014L46.4491 232.663L47.3481 232.188L47.6308 231.792L48.1849 231.171L48.3376 231.018L48.6825 230.718L49.3779 230.011L50.1752 229.406L50.7406 228.677L50.9329 228.507L51.5661 228.004L51.8262 227.648L51.9619 227.512L52.7818 226.477L53.8392 225.686L54.4272 224.838L54.9248 224.38L55.0491 224.244L55.6316 223.78L55.9538 223.351L56.3553 223.034L56.9546 222.259L56.9829 222.237Z" fill="#EA5329"/>
<defs>
<radialGradient id="paint0_angular" cx="0" cy="0" r="1" gradientUnits="userSpaceOnUse" gradientTransform="translate(180 180) rotate(90) scale(180)">
<stop offset="0.167807" stop-color="#E82C2A"/>
<stop offset="0.502765" stop-color="#A5CF4F"/>
<stop offset="0.824922" stop-color="#43C5E4"/>
</radialGradient>
</defs>
</svg>
