<svg width="360" height="360" viewBox="0 0 360 360" fill="none" xmlns="http://www.w3.org/2000/svg">
<rect width="360" height="360" rx="82" fill="black"/>
<path d="M335 150.631L334.571 150.286C278.198 152.575 225.31 170.196 189.748 192.136C188.258 189.829 186.574 187.666 184.697 185.393C216.622 165.692 261.149 149.25 299.076 144.283L298.563 144.005C257.967 148.08 218.263 160.414 190.018 175.711C188.881 173.707 187.509 171.653 185.943 169.691C210.653 155.472 242.442 144.022 272.801 138.465L272.363 138.154C236.928 143.517 204.886 153.417 182.761 165.97C181.161 164.185 179.41 162.501 177.49 160.767C179.806 159.37 182.213 158.023 184.739 156.684C185.834 157.812 186.911 158.957 187.93 160.144L189.176 158.949C188.477 157.77 187.728 156.667 186.92 155.539C205.121 146.303 227.692 138.954 245.254 135.51L244.775 135.216C226.817 138.406 202.916 143.845 184.613 152.592C169.585 134.77 139.066 122.604 94.7071 114L94.3199 114.253C134.428 123.345 163.81 136.984 181.893 153.923C179.267 155.27 176.783 156.684 174.46 158.199C153.176 140.705 115.544 125.012 65.9312 117.687L65.5104 117.932C109.238 125.871 145.835 141.648 170.469 160.994C168.019 162.863 165.847 164.766 164.012 166.837C136.659 147.474 93.3348 131.183 35.4041 123.673L35 123.943C82.9205 131.587 132.836 148.475 166.714 176.957C162.244 180.787 158.632 184.803 156.123 188.895L157.546 190.393C161.217 186.824 165.435 183.338 170.099 179.92C171.858 181.436 173.576 183.069 175.243 184.694C163.591 192.675 155.239 201.296 151.493 209.597L153.034 210.86C159.508 203.384 168.541 195.95 179.275 188.836C181.22 190.983 183.081 193.029 184.84 195.26C162.976 209.664 148.546 225.542 145.322 240.183L147.022 241.336C156.233 225.778 171.033 212.198 188.738 200.277C191.491 204.133 194.017 208.082 196.256 212.316L197.814 211.314C197.014 206.776 195.381 202.205 192.981 197.667C237.484 169.439 298.108 152.87 335 150.631ZM166.394 168.538C168.516 166.795 170.856 165.052 173.416 163.327C175.335 164.96 177.179 166.559 178.938 168.193C176.455 169.733 174.114 171.232 171.934 172.899C170.174 171.367 168.314 169.986 166.394 168.538ZM175.613 176.098C177.844 174.541 180.143 173.143 182.508 171.661C184.268 173.471 185.935 175.239 187.492 177.117C185.177 178.363 182.938 179.777 180.791 181.065C179.183 179.398 177.448 177.698 175.613 176.098Z" fill="#EF3E42"/>
</svg>
