<svg width="360" height="360" viewBox="0 0 360 360" fill="none" xmlns="http://www.w3.org/2000/svg">
<rect width="360" height="360" rx="82" fill="#ED1B2E"/>
<path d="M240.836 73.3406C244.55 64.3787 243.62 52.7784 246.403 44.2744C235.295 46.1247 219.253 35.0309 219.227 35.0001L217.991 44.8922C212.424 43.0388 201.914 37.4712 201.914 37.4712V43.0315C203.302 55.5404 184.135 55.395 184.601 68.3835C187.69 69.9244 191.862 66.6828 196.346 67.7585C200.671 69.2994 205.621 71.6252 207.474 76.4151C208.245 80.8924 203.913 83.3709 202.524 86.9251C198.97 92.7979 205.468 107.793 194.493 105.474C189.536 100.379 177.172 106.099 177.172 106.099C177.172 106.099 174.854 87.5502 167.898 80.747C158.624 71.1601 144.254 72.3957 131.418 73.326C129.565 76.1025 126.003 75.0196 123.379 75.7973C108.995 80.4345 98.6379 93.1105 88.1351 104.246C68.8085 126.494 85.6565 189.569 85.6565 189.569C85.6565 189.569 98.02 163.904 109.148 153.089H111.009C114.258 158.344 118.43 170.395 118.43 170.395C118.43 170.395 123.372 158.802 129.557 156.178C133.112 159.892 132.036 172.256 132.036 172.256L143.782 162.363C143.782 162.363 145.948 164.842 145.635 166.695C146.107 180.912 155.229 190.034 166.045 198.233C170.217 199.468 173.647 201.794 178.408 202.565L179.804 248.319H140.075L126.468 235.955L77 235.338L77.6105 282.335H124.608L141.398 270.124L179.026 270.582V324.993H184.226C188.648 324.993 191.494 324.993 200.656 325V316.926V268.118L241.395 268.031L241.613 284.646L282.891 258.218L243.322 233.477L242.079 247.708L199.108 247.556L198.803 201.336C204.545 200.689 206.202 199.585 209.924 198.24C215.04 196.823 217.802 196.27 222.294 193.29C227.862 190.819 233.11 186.807 237.129 182.162C248.882 167.633 254.13 144.287 244.55 127.134C246.563 121.101 242.856 110.591 247.639 105.488C251.644 108.573 257.033 109.97 261.206 111.051L261.253 111.063C260.94 103.017 261.711 96.8319 256.921 88.1753C253.977 79.9838 243.932 79.8312 240.836 73.3406Z" fill="#FFDF1C"/>
</svg>
