<svg width="360" height="360" viewBox="0 0 360 360" fill="none" xmlns="http://www.w3.org/2000/svg">
<rect width="360" height="360" rx="82" fill="black"/>
<path fill-rule="evenodd" clip-rule="evenodd" d="M291.233 264.845V129.108H317V101.002H232.678V129.108H258.449V244.819L282.45 264.845H291.233ZM87.1766 262.67C85.5759 263.981 83.2379 264.845 81.1451 264.845H78.1083C74.4568 264.845 70.6811 264.065 67.3571 262.712C64.0332 261.317 60.7915 259.181 58.2486 256.638C55.662 254.052 53.5289 250.811 52.1347 247.488C50.7349 244.09 50.0098 240.452 50 236.777V129.108C50 125.497 50.7794 121.763 52.1347 118.357C53.5477 114.945 55.6261 111.848 58.2486 109.247C60.8335 106.702 64.0332 104.529 67.3571 103.133C70.6811 101.779 74.4552 101 78.1083 101H101.539C105.148 101 108.924 101.739 112.29 103.133C115.656 104.527 118.856 106.702 121.399 109.247C123.943 111.792 126.118 114.993 127.514 118.357C128.91 121.721 129.647 125.497 129.647 129.108V166.53H96.8612V136.124C96.8612 134.36 96.0818 132.432 94.8087 131.159C93.5372 129.886 91.5671 129.108 89.8035 129.108C87.9979 129.108 86.0697 129.928 84.8385 131.159C83.567 132.432 82.828 134.359 82.828 136.124V229.761C82.828 231.525 83.6896 233.535 84.8385 234.686C86.1116 235.957 88.0382 236.777 89.8035 236.777C91.609 236.777 93.5776 235.915 94.8087 234.686C95.9995 233.495 96.8612 231.525 96.8612 229.761V189.959H129.646V214.167C129.646 218.23 128.661 222.498 126.98 226.067C125.297 229.761 122.589 233.166 119.553 235.71L87.1766 262.67Z" fill="white"/>
<path fill-rule="evenodd" clip-rule="evenodd" d="M267.844 264.846H99.1602L183.482 194.638L267.844 264.846Z" fill="#FADF3C" stroke="#FADF3C" stroke-width="2.80147" stroke-miterlimit="2.613"/>
<path fill-rule="evenodd" clip-rule="evenodd" d="M231.86 222.703L205.927 101H161.078L135.146 222.703L183.482 182.45V182.49L231.86 222.703ZM174.127 173.096L183.48 129.108V129.231L192.878 173.096H174.127Z" fill="white"/>
</svg>
