<svg width="360" height="360" viewBox="0 0 360 360" fill="none" xmlns="http://www.w3.org/2000/svg">
<rect width="360" height="360" rx="82" fill="#41535D"/>
<path d="M242.391 250.069L326 213.552L316.98 192.783L256.176 219.198L241.327 186.227L299.503 160.095L290.32 139.408L231.916 165.368L216.922 132.279L280.69 104.728L271.688 83.987L184.587 121.813L205.656 77.3492L188.497 60L34 118.385L50.8764 135.462L91.6399 119.94L136.595 165.487L128.848 181.426C120.264 199.121 111.062 220.362 111.062 241.267C111.062 281.857 143.988 313.055 184.587 313.055C198.6 313.055 211.721 309.309 222.878 302.771L213.403 282.357C205.228 287.84 195.262 290.45 184.587 290.45C157.418 290.45 135.395 268.418 135.395 241.267C135.395 214.07 157.418 192.038 184.587 192.038C203.391 192.038 220.05 200.431 230.661 223.981L242.391 250.069ZM173.767 88.9699L146.997 144.064L114.799 111.475L173.767 88.9699Z" fill="white"/>
<path d="M184.585 169.297C192.696 169.297 200.489 170.552 207.781 172.852L184.585 121.814L160.834 173.034C168.309 170.616 176.292 169.297 184.585 169.297Z" fill="#7DC242"/>
</svg>
