<svg width="360" height="360" viewBox="0 0 360 360" fill="none" xmlns="http://www.w3.org/2000/svg">
<rect width="360" height="360" rx="82" fill="black"/>
<path d="M330 155.926H311.268L298.142 178.493C296.519 180.853 295.929 182.327 292.242 182.475H283.245V132.475H266.431V227.46H283.245V197.814H290.619C294.159 197.962 294.897 199.289 296.224 201.501L311.121 227.46H330L309.351 191.619L330 155.926ZM224.838 132.475H241.652V227.46H224.838V132.475ZM188.555 159.171C183.54 155.926 177.64 154.304 171.74 154.451C161.858 154.304 152.419 159.171 146.962 167.431V132.622H130.147V227.608H146.962V216.103C152.419 224.363 161.858 229.23 171.74 229.083C177.64 229.23 183.54 227.46 188.555 224.363C193.569 221.118 197.699 216.546 200.206 211.089C203.156 205.041 204.631 198.404 204.631 191.767C204.631 185.13 203.156 178.493 200.206 172.593C197.699 167.136 193.569 162.416 188.555 159.171ZM181.917 208.286C178.083 212.563 173.068 214.776 167.168 214.776C161.268 214.776 156.401 212.563 152.714 208.286C148.879 204.009 146.962 198.404 146.962 191.767C146.962 185.13 149.027 179.525 152.714 175.248C156.401 170.97 161.268 168.758 167.168 168.758C173.215 168.758 178.083 170.97 181.917 175.248C185.752 179.525 187.67 184.982 187.67 191.767C187.817 198.404 185.752 204.009 181.917 208.286ZM103.451 202.976C90.767 215.956 69.9705 216.398 56.9911 203.714C44.0118 191.03 43.5693 170.233 56.2537 157.254C68.9381 144.274 89.7345 143.832 102.714 156.516C103.009 156.811 103.156 156.959 103.451 157.254L111.711 142.947C102.714 135.277 91.2094 131 79.41 131C52.1239 131 30 152.976 30 180.115C30 207.254 52.1239 229.23 79.41 229.23C91.2094 229.23 102.714 225.1 111.711 217.431L103.451 202.976Z" fill="white"/>
</svg>
