<svg width="360" height="360" viewBox="0 0 360 360" fill="none" xmlns="http://www.w3.org/2000/svg">
<rect width="360" height="360" rx="82" fill="#006A4D"/>
<path d="M165.938 178.275C175.732 175.015 177.507 166.796 177.488 160.096C177.468 149.853 170.245 141.008 148.865 141.008L108.953 141V217.896H148.755C170.268 217.896 178.181 206.854 178.181 195.792C178.181 182.396 165.938 178.275 165.938 178.275ZM127.896 157.73H154.766L154.861 157.75C157.892 158.285 160.1 160.863 160.1 163.887C160.1 166.985 157.734 169.902 154.609 170.327L127.907 170.37L127.896 157.73ZM153.471 199.973H127.896V187.104H154.097L154.156 187.112C157.415 187.482 159.888 190.194 159.888 193.41C159.888 196.926 156.963 199.925 153.471 199.973Z" fill="white"/>
<path d="M267.545 141.016H334.985L334.946 157.793H286.287L286.334 170.189H330.202V187.057H286.334V200.469H335.001L334.989 218.057H267.545" fill="white"/>
<path d="M228.317 141.111H187.535V218.034H206.261V186.908L226.888 186.889C232.793 186.979 237.387 191.813 237.387 197.781V217.963L255.716 217.955L255.684 193.136C255.684 181.633 244.571 178.232 244.571 178.232C244.571 178.232 255.932 174.839 255.932 161.242C255.932 144.603 241.639 141.111 228.317 141.111ZM238.541 164.974C238.202 167.505 235.675 170.249 232.518 170.249L206.194 170.257V157.943H232.526C235.675 157.943 238.139 160.254 238.541 163.297" fill="white"/>
<path d="M96.8098 199.445C96.5461 199.449 71.2107 199.937 62.4638 199.086C48.3868 197.709 43.3953 187.273 43.3953 178.762C43.3953 168.138 50.6346 160.328 61.8457 158.863C67.1836 158.163 96.3453 158.493 96.6563 158.493L97.2664 158.505L97.3294 141.011H96.7114L63.6998 141.074C60.0231 141.299 53.9294 141.669 47.6861 144.219C41.6987 146.967 36.4789 151.187 32.5857 156.434C27.6257 163.111 25 171.043 25 179.357C25 181.978 25.2086 184.573 25.6298 187.064C28.0036 198.724 35.6522 208.381 46.6154 213.569C50.3157 215.199 56.0276 217.147 67.5379 217.797L73.7419 217.927L96.7508 217.946H97.3609L97.4239 199.437" fill="white"/>
</svg>
