<svg width="360" height="360" viewBox="0 0 360 360" fill="none" xmlns="http://www.w3.org/2000/svg">
<rect width="360" height="360" rx="82" fill="black"/>
<path d="M180.233 23C93.7607 23 25 93.6023 25 179.604C25 266.547 93.7607 337.167 180.233 337.167C267.162 337.167 335 266.56 335 179.631C335.015 93.6297 267.162 23 180.233 23ZM180.233 89.4736C250.839 89.4736 302.562 134.312 324.419 179.631C302.562 225.642 250.839 270.693 180.233 270.693C109.171 270.693 57.8621 225.627 36.0195 179.631C57.8621 134.327 109.186 89.501 180.233 89.501V89.4737V89.4736ZM180.233 96.6007C134.237 96.6007 96.7367 133.828 96.7367 179.604C96.7367 226.071 134.237 263.1 180.233 263.1C226.229 263.1 263.236 226.068 263.236 179.631C263.236 133.856 226.229 96.6007 180.233 96.6007Z" fill="white"/>
</svg>
