<svg width="360" height="360" viewBox="0 0 360 360" fill="none" xmlns="http://www.w3.org/2000/svg">
<rect width="360" height="360" rx="82" fill="#009E2C"/>
<path fill-rule="evenodd" clip-rule="evenodd" d="M185.577 127.738C208.691 127.289 231.667 124.067 254.013 118.142C262.374 135.47 268.482 154.542 270.193 174.794H185.588V127.738H185.577ZM185.577 115.597V31.8482C200.209 44.4653 228.324 71.4213 248.24 107.063C227.747 112.292 206.723 115.156 185.577 115.597ZM173.415 115.565C152.276 115.056 131.261 112.179 110.763 106.987C130.669 71.3564 158.795 44.4436 173.415 31.8374V115.565ZM173.415 127.705V174.794H88.8108C90.5111 154.488 96.6409 135.373 105.023 118.012C124.442 123.135 147.564 127.12 173.415 127.705ZM76.6053 174.794H25C25.8686 147.127 34.186 120.207 49.0753 96.872C63.1645 104.047 77.8558 109.972 92.9804 114.579C84.4138 132.893 78.2298 153.134 76.6053 174.794ZM76.1721 186.957C76.2912 207.815 80.8507 228.208 89.7855 248.049C76.0143 252.406 62.6173 257.868 49.7251 264.381C34.707 241.255 26.1822 214.518 25.0433 186.967H76.1721V186.957ZM88.3343 186.957H173.415V233.916C149.126 234.506 125.001 238.07 101.579 244.529C92.8829 225.772 88.4642 206.559 88.3343 186.957ZM173.415 246.056V328.928C143.492 305.448 121.388 280.951 107.222 255.554C128.835 249.792 151.054 246.604 173.415 246.056ZM185.577 246.035C207.959 246.504 230.202 249.672 251.825 255.468C237.659 280.897 215.533 305.427 185.577 328.928V246.035ZM185.577 233.894V186.957H270.659C270.529 206.526 266.132 225.685 257.468 244.432C234.044 237.902 209.889 234.362 185.577 233.894ZM282.81 186.957H334.935C333.747 214.524 325.178 241.267 310.123 264.392C296.892 257.959 283.227 252.458 269.229 247.93C278.142 228.133 282.68 207.783 282.81 186.957ZM282.388 174.794C280.763 153.167 274.601 132.969 266.067 114.677C281.447 109.883 296.436 103.916 310.903 96.8287C325.813 120.171 334.139 147.109 335 174.794H282.388ZM303.864 86.7351C289.873 93.4776 275.383 99.1296 260.522 103.641C241.287 67.9124 214.071 40.6206 197.523 26C232.32 29.888 279.788 49.1222 303.864 86.7351ZM161.329 26.13C144.77 40.7831 117.684 67.999 98.5037 103.587C83.9006 99.2439 69.7059 93.6304 56.0823 86.8108C60.4143 81.0817 97.3341 34.0251 161.329 26.13ZM56.8296 274.399C69.1955 268.269 82.03 263.133 95.2114 259.041C109.225 285.077 130.951 310.105 160.257 333.964C92.1248 322.852 60.9667 279.77 56.8296 274.399ZM198.574 334.094C227.977 310.17 249.778 285.066 263.803 258.977C276.604 262.994 289.698 268.095 303.03 274.442C290.469 290.84 274.758 304.564 256.821 314.808C238.883 325.051 219.08 331.608 198.574 334.094Z" fill="white"/>
</svg>
