<svg width="360" height="360" viewBox="0 0 360 360" fill="none" xmlns="http://www.w3.org/2000/svg">
<rect width="360" height="360" rx="82" fill="black"/>
<path d="M154.812 179.513L77 45.0155L193.615 112.289L154.812 179.513Z" fill="#F79210"/>
<path d="M310.175 179.513H154.838L193.65 112.289L310.175 179.513Z" fill="#E52F1F"/>
<path d="M310.148 179.513L193.623 112.289L232.455 45.0155L310.148 179.513Z" fill="#CF181F"/>
<path d="M193.615 112.273L77 45.0001H232.446L193.615 112.273Z" fill="#E85726"/>
<path d="M77 314L154.812 179.503L193.615 246.727L77 314Z" fill="#F9A70D"/>
<path d="M193.64 246.723L154.838 179.499H310.165L193.64 246.723Z" fill="#E85726"/>
<path d="M310.148 179.503L232.455 314L193.623 246.727L310.148 179.503Z" fill="#CF181F"/>
<path d="M232.456 314H77L193.624 246.727L232.456 314Z" fill="#E52F1F"/>
</svg>
