<svg width="360" height="360" viewBox="0 0 360 360" fill="none" xmlns="http://www.w3.org/2000/svg">
<rect width="360" height="360" rx="82" fill="#520B90"/>
<path d="M321.471 226.4C325.349 230.4 325.145 236.8 321.063 240.7C305.247 255.3 284.636 263.4 262.901 263.4C241.371 263.4 220.862 255.5 205.148 241.1C200.964 237.3 200.76 230.9 204.638 226.9C208.515 222.8 215.046 222.6 219.127 226.4C231.066 237.3 246.575 243.3 262.901 243.3C279.33 243.3 295.043 237.2 306.982 226.1C311.063 222.1 317.594 222.3 321.471 226.4ZM261.779 117.2C278.717 117.2 294.635 123.6 306.778 135.2C307.492 135.9 308.41 136.5 309.329 137C313.308 139 318.41 138.5 321.675 135.2C325.655 131.2 325.349 124.7 321.267 120.8C305.349 105.5 284.227 97 261.881 97C239.841 97 219.025 105.2 203.107 120.2C187.393 135 178.108 154.9 177.19 176.3L176.067 187.2C172.496 219.1 145.048 243.1 112.191 243.1C76.7843 243.1 48.0096 214.9 48.0096 180.2C48.0096 145.5 76.7843 117.3 112.191 117.3C129.13 117.3 145.048 123.7 157.19 135.3C161.272 139.2 167.802 139.1 171.782 135.2C175.761 131.2 175.659 124.8 171.68 120.9C155.762 105.6 134.64 97.1 112.293 97.1C100.865 97.1 89.7431 99.3 79.2332 103.6C69.1315 107.8 60.0501 113.8 52.2952 121.4C44.5403 129 38.4181 137.9 34.1325 147.8C29.7448 158.1 27.5 168.9 27.5 180.2C27.5 191.4 29.7448 202.3 34.1325 212.6C38.4181 222.5 44.5403 231.4 52.2952 239C60.0501 246.6 69.1315 252.6 79.2332 256.8C89.7431 261.1 100.763 263.3 112.293 263.3C133.313 263.3 153.517 255.7 169.027 241.9C184.536 228.2 194.23 209.6 196.577 189.3L197.699 178V177.4C199.128 143.7 227.29 117.2 261.779 117.2Z" fill="#BBBDBE"/>
</svg>
