<svg width="360" height="360" viewBox="0 0 360 360" fill="none" xmlns="http://www.w3.org/2000/svg">
<rect width="360" height="360" rx="82" fill="#00843D"/>
<path d="M269.603 218.897C246.477 206.43 208.302 201.704 177.694 201.704C155.956 201.423 134.269 204.026 113.214 209.44C103.778 211.373 94.667 214.659 86.174 219.2C78.9524 189.794 71.2119 172.471 49.2919 155.446C56.8767 147.554 65.6508 140.895 75.2983 135.714C83.8951 154.071 95.8043 157.427 101.089 158.028C109.517 158.971 117.694 154.815 121.897 147.451C124.427 143.109 125.72 138.162 125.638 133.137C125.448 125.846 123.497 118.707 119.964 112.333C130.286 108.004 141.283 105.518 152.462 104.981C152.146 107.477 151.973 109.989 151.947 112.501C151.947 126.3 156.544 137.219 165.188 143.152C172.933 148.562 183.233 148.562 190.978 143.152C200.094 137.007 204.993 125.57 204.993 111.17C205.054 108.813 204.924 106.456 204.604 104.121C215.515 105.051 226.209 107.706 236.289 111.987C232.535 118.452 230.451 125.751 230.226 133.224C230.144 138.365 231.497 143.429 234.139 147.84C238.753 155.485 247.545 159.563 256.362 158.158C267.026 156.653 276.008 148.311 281.469 135.546C291.121 140.921 299.835 147.831 307.264 156.009C284.008 170.923 277.469 189.967 269.603 218.811V218.897ZM244.284 248.432C222.485 253.769 200.094 256.298 177.651 255.952C155.212 256.294 132.821 253.769 111.022 248.432C93.8238 243.788 88.8378 238.889 87.934 237.124C96.0075 230.793 105.348 226.261 115.32 223.844C135.787 219.351 156.699 217.202 177.651 217.436C200.094 217.146 222.485 219.706 244.284 225.046C263.415 230.205 267.497 235.749 267.497 236.826C267.497 237.898 263.199 243.446 244.284 248.649V248.432ZM322.611 151.706C311.03 137.967 296.557 126.953 280.224 119.468L272.699 116.026L270.507 123.766C266.723 137.565 259.588 143.325 254.17 144.099C250.957 144.687 247.709 143.234 246.005 140.445C243.125 135.758 243.169 126.089 252.193 112.977L256.838 106.569L249.53 102.958C233.067 94.4777 214.866 89.9328 196.353 89.6777L187.281 89.375L189.218 98.2312C193.257 117.016 188.656 127.805 182.983 131.589C180.072 133.704 176.133 133.704 173.223 131.589C167.852 127.892 163.64 117.405 167.852 98.9188L169.958 89.5912L157.88 90.4518C140.682 91.6539 127.441 92.6009 106.723 102.958L99.2854 106.569L103.969 113.232C112.57 125.699 112.57 135.33 109.733 140.186C108.362 142.754 105.573 144.233 102.68 143.926C97.5643 143.369 90.4724 137.652 85.7027 123.334L82.9913 115.17L75.5535 119.468C56.6821 129.954 43.0562 139.07 33.3827 152.956L29.3438 158.759L35.147 163.057C59.1773 179.65 65.7978 193.492 74.481 231.234C73.7459 232.994 73.3654 234.876 73.361 236.783C73.361 259.823 127.311 270.357 177.439 270.357C227.562 270.357 281.469 259.823 281.469 236.783C281.473 235.2 281.214 233.63 280.695 232.138L281.512 229.129C291.056 193.967 295.355 177.846 321.664 164.13L329.958 159.831L322.611 151.706Z" fill="#D6BA75"/>
<path d="M178.275 170.626C174.167 170.578 170.798 173.869 170.751 177.973C170.703 182.081 173.994 185.449 178.102 185.497C182.21 185.544 185.574 182.254 185.622 178.146C185.622 174.081 182.34 170.777 178.275 170.751" fill="#D6BA75"/>
<path d="M150.063 173.75C145.955 173.75 142.625 177.08 142.625 181.188C142.625 185.296 145.955 188.626 150.063 188.626C154.171 188.626 157.501 185.296 157.501 181.188C157.501 177.08 154.171 173.75 150.063 173.75Z" fill="#D6BA75"/>
<path d="M207.221 173.751C204.203 173.699 201.453 175.477 200.259 178.248C199.07 181.025 199.671 184.246 201.79 186.4C203.904 188.553 207.113 189.211 209.911 188.069C212.704 186.927 214.529 184.207 214.529 181.185C214.529 177.081 211.2 173.751 207.092 173.751" fill="#D6BA75"/>
<path d="M121.981 177.656C117.873 177.635 114.522 180.943 114.5 185.051C114.474 189.159 117.787 192.506 121.895 192.532C126.003 192.554 129.35 189.246 129.372 185.137C129.384 183.166 128.61 181.271 127.227 179.866C125.839 178.465 123.953 177.669 121.981 177.656Z" fill="#D6BA75"/>
<path d="M93.6833 187.032C89.6098 187.079 86.3449 190.409 86.3752 194.483C86.4055 198.552 89.7266 201.834 93.8001 201.817C97.8693 201.804 101.164 198.495 101.164 194.426C101.164 192.45 100.373 190.556 98.9676 189.168C97.5622 187.775 95.6595 187.01 93.6833 187.032Z" fill="#D6BA75"/>
<path d="M235.26 178.438C232.251 178.42 229.526 180.224 228.359 183C227.195 185.776 227.822 188.985 229.946 191.121C232.069 193.253 235.269 193.897 238.054 192.751C240.839 191.601 242.655 188.89 242.655 185.875C242.668 183.908 241.894 182.014 240.506 180.621C239.118 179.225 237.232 178.438 235.26 178.438Z" fill="#D6BA75"/>
<path d="M264.039 187.031C259.961 187.053 256.67 190.374 256.688 194.452C256.705 198.53 260.017 201.825 264.095 201.821C268.173 201.812 271.477 198.504 271.477 194.426C271.477 192.458 270.69 190.569 269.293 189.181C267.901 187.792 266.006 187.018 264.039 187.031Z" fill="#D6BA75"/>
</svg>
