<svg width="360" height="360" viewBox="0 0 360 360" fill="none" xmlns="http://www.w3.org/2000/svg">
<rect width="360" height="360" rx="82" fill="black"/>
<path d="M312 99.8598L227.793 147.7L222.895 163.624L217.987 267.724L55 267.386L156.741 156.235L154.389 149.768C154.389 149.768 141.474 153.174 142.28 138.689C143.051 124.844 149.297 125.789 149.297 125.789L184.215 129.351L249.41 75.4978L312 99.8598Z" fill="white"/>
<path d="M307.831 101.651C307.682 101.987 226.03 148.196 226.158 148.888C226.271 149.491 221.798 166.275 221.9 166.638C221.96 166.848 217.23 267.722 217.23 267.722L56.8613 267.389C56.8613 267.389 156.754 157.042 157.124 156.228C157.282 155.88 154.833 149.487 154.833 149.487C154.833 149.487 141.823 152.834 142.606 138.685C143.353 125.186 149.597 126.149 149.597 126.149L184.224 129.675L248.322 77.6938C248.318 77.6919 307.987 101.295 307.831 101.651Z" fill="white"/>
<path d="M303.665 103.44C303.371 104.11 224.268 148.691 224.527 150.075C224.752 151.279 220.704 168.928 220.907 169.649C221.026 170.072 216.474 267.714 216.474 267.714L58.7266 267.388C58.7266 267.388 156.77 157.845 157.509 156.216C157.825 155.518 155.281 149.201 155.281 149.201C155.281 149.201 142.176 152.494 142.935 138.678C143.661 125.523 149.901 126.505 149.901 126.505L184.235 129.996L247.234 79.8865C247.232 79.8885 303.977 102.728 303.665 103.44Z" fill="white"/>
<path d="M299.486 105.229C299.043 106.235 222.492 149.188 222.882 151.265C223.22 153.072 219.596 171.581 219.901 172.664C220.079 173.299 215.704 267.712 215.704 267.712L60.5762 267.394C60.5762 267.394 156.769 158.652 157.88 156.209C158.352 155.165 155.714 148.925 155.714 148.925C155.714 148.925 142.512 152.158 143.249 138.676C143.953 125.867 150.187 126.867 150.187 126.867L184.23 130.323L246.133 82.0828C246.133 82.0828 299.954 104.162 299.486 105.229Z" fill="white"/>
<path d="M295.315 107.022C294.724 108.364 220.726 149.683 221.244 152.453C221.695 154.862 218.495 174.233 218.904 175.678C219.143 176.524 214.945 267.71 214.945 267.71L62.4375 267.396C62.4375 267.396 156.782 159.46 158.259 156.2C158.889 154.809 156.154 148.644 156.154 148.644C156.154 148.644 142.857 151.82 143.57 138.674C144.252 126.209 150.485 127.229 150.485 127.229L184.236 130.646L245.039 84.2786C245.041 84.2786 295.941 105.599 295.315 107.022Z" fill="white"/>
<path d="M291.163 108.811C290.424 110.489 218.978 150.178 219.626 153.641C220.19 156.649 217.415 176.886 217.925 178.692C218.221 179.75 214.205 267.706 214.205 267.706L64.3164 267.398C64.3164 267.398 156.811 160.264 158.659 156.19C159.448 154.451 156.615 148.363 156.615 148.363C156.615 148.363 143.222 151.48 143.913 138.668C144.574 126.549 150.802 127.589 150.802 127.589L184.261 130.973L243.967 86.4746C243.967 86.4746 291.946 107.034 291.163 108.811Z" fill="white"/>
<path d="M286.993 110.602C286.108 112.614 217.212 150.674 217.991 154.831C218.667 158.442 216.317 179.539 216.928 181.707C217.286 182.976 213.443 267.705 213.443 267.705L66.1777 267.404C66.1777 267.404 156.822 161.071 159.04 156.185C159.987 154.096 157.059 148.083 157.059 148.083C157.059 148.083 143.571 151.144 144.241 138.664C144.877 126.889 151.104 127.947 151.104 127.947L184.27 131.295L242.877 88.6689C242.877 88.6709 287.932 108.467 286.993 110.602Z" fill="white"/>
<path d="M282.826 112.394C281.792 114.742 215.451 151.173 216.358 156.02C217.146 160.234 215.223 182.193 215.935 184.721C216.352 186.201 212.689 267.704 212.689 267.704L68.043 267.407C68.043 267.407 156.839 161.879 159.427 156.176C160.532 153.743 157.507 147.803 157.507 147.803C157.507 147.803 143.922 150.81 144.57 138.663C145.185 127.232 151.408 128.312 151.408 128.312L184.283 131.624L241.793 90.8701C241.789 90.8681 283.921 109.903 282.826 112.394Z" fill="white"/>
<path d="M278.649 114.184C277.467 116.867 213.677 151.671 214.713 157.212C215.614 162.027 214.116 184.845 214.928 187.737C215.404 189.429 211.92 267.702 211.92 267.702L69.8926 267.411C69.8926 267.411 156.841 162.687 159.796 156.17C161.059 153.387 157.938 147.526 157.938 147.526C157.938 147.526 144.259 150.473 144.882 138.661C145.475 127.576 151.694 128.673 151.694 128.673L184.276 131.948L240.688 93.0659C240.692 93.0639 279.9 111.338 278.649 114.184Z" fill="white"/>
<path d="M274.483 115.972C273.155 118.993 211.915 152.164 213.081 158.395C214.097 163.813 213.022 187.497 213.939 190.748C214.473 192.652 211.168 267.695 211.168 267.695L71.7617 267.41C71.7617 267.41 156.86 163.489 160.184 156.157C161.606 153.026 158.39 147.239 158.39 147.239C158.39 147.239 144.615 150.13 145.217 138.652C145.789 127.911 152.003 129.028 152.003 129.028L184.296 132.27L239.608 95.2571C239.604 95.2591 275.889 112.772 274.483 115.972Z" fill="white"/>
<path d="M270.298 117.763C268.822 121.117 210.134 152.658 211.43 159.584C212.557 165.603 211.909 190.149 212.926 193.762C213.521 195.877 210.392 267.693 210.392 267.693L73.6055 267.412C73.6055 267.412 156.855 164.295 160.55 156.149C162.129 152.67 158.816 146.962 158.816 146.962C158.816 146.962 144.944 149.794 145.523 138.65C146.073 128.253 152.283 129.387 152.283 129.387L184.283 132.593L238.498 97.4529C238.498 97.4549 271.864 114.207 270.298 117.763Z" fill="white"/>
<path d="M266.141 119.554C264.518 123.244 208.381 153.157 209.809 160.775C211.048 167.396 210.823 192.804 211.941 196.779C212.596 199.107 209.646 267.693 209.646 267.693L75.4805 267.42C75.4805 267.42 156.878 165.103 160.942 156.145C162.68 152.319 159.27 146.683 159.27 146.683C159.27 146.683 145.303 149.458 145.86 138.65C146.388 128.599 152.597 129.753 152.597 129.753L184.304 132.924L237.42 99.655C237.422 99.6511 267.862 115.64 266.141 119.554Z" fill="white"/>
<path d="M261.983 121.345C260.214 125.371 206.627 153.653 208.183 161.963C209.535 169.185 209.735 195.457 210.956 199.793C211.672 202.331 208.899 267.691 208.899 267.691L77.3535 267.422C77.3535 267.422 156.901 165.912 161.337 156.137C163.23 151.963 159.728 146.402 159.728 146.402C159.728 146.402 145.666 149.12 146.2 138.644C146.704 128.939 152.91 130.113 152.91 130.113L184.327 133.246L236.346 101.847C236.344 101.847 263.863 117.077 261.983 121.345Z" fill="white"/>
<path d="M257.806 123.135C255.886 127.496 204.854 154.149 206.54 163.15C208.006 170.976 208.631 198.109 209.953 202.807C210.728 205.557 208.133 267.686 208.133 267.686L79.209 267.424C79.209 267.424 156.909 166.716 161.712 156.127C163.763 151.603 160.164 146.122 160.164 146.122C160.164 146.122 146.005 148.784 146.519 138.64C147.002 129.281 153.202 130.473 153.202 130.473L184.326 133.57L235.248 104.043C235.245 104.043 259.84 118.512 257.806 123.135Z" fill="white"/>
<path d="M253.644 124.924C251.579 129.621 203.098 154.645 204.912 164.338C206.49 172.767 207.539 200.76 208.964 205.818C209.799 208.779 207.381 267.681 207.381 267.681L81.0762 267.424C81.0762 267.424 156.926 167.519 162.1 156.117C164.31 151.247 160.616 145.839 160.616 145.839C160.616 145.839 146.36 148.444 146.851 138.634C147.311 129.619 153.51 130.83 153.51 130.83L184.341 133.892L234.165 106.239C234.161 106.239 255.834 119.945 253.644 124.924Z" fill="white"/>
<path d="M249.469 126.715C247.255 131.748 201.326 155.141 203.271 165.53C204.961 174.558 206.436 203.415 207.962 208.834C208.855 212.007 206.616 267.681 206.616 267.681L82.9316 267.43C82.9316 267.43 156.933 168.327 162.475 156.11C164.843 150.891 161.052 145.56 161.052 145.56C161.052 145.56 146.702 148.106 147.17 138.632C147.609 129.961 153.802 131.192 153.802 131.192L184.341 134.218L233.067 108.435C233.067 108.435 251.817 121.38 249.469 126.715Z" fill="white"/>
<path d="M245.3 128.506C242.938 133.874 199.558 155.639 201.634 166.718C203.436 176.346 205.336 206.065 206.965 211.849C207.917 215.235 205.856 267.677 205.856 267.677L84.793 267.434C84.793 267.434 156.944 169.136 162.858 156.102C165.382 150.537 161.494 145.28 161.494 145.28C161.494 145.28 147.049 147.77 147.494 138.63C147.909 130.303 154.1 131.554 154.1 131.554L184.35 134.544L231.977 110.631C231.975 110.631 247.802 122.815 245.3 128.506Z" fill="white"/>
<path d="M241.126 130.298C238.616 136 197.791 156.136 199.995 167.907C201.91 178.142 204.236 208.721 205.964 214.864C206.978 218.46 205.092 267.678 205.092 267.678L86.6484 267.441C86.6484 267.441 156.951 169.945 163.233 156.097C165.915 150.183 161.932 145.004 161.932 145.004C161.932 145.004 147.392 147.437 147.813 138.629C148.207 130.646 154.394 131.917 154.394 131.917L184.35 134.872L230.879 112.83C230.881 112.828 243.785 124.251 241.126 130.298Z" fill="white"/>
<path d="M236.967 132.086C234.31 138.126 196.035 156.63 198.369 169.094C200.397 179.928 203.146 211.372 204.979 217.876C206.05 221.687 204.344 267.673 204.344 267.673L88.5215 267.44C88.5215 267.44 156.974 170.747 163.628 156.086C166.47 149.824 162.388 144.72 162.388 144.72C162.388 144.72 147.751 147.096 148.153 138.622C148.524 130.987 154.707 132.274 154.707 132.274L184.37 135.193L229.801 115.023C229.801 115.023 239.781 125.685 236.967 132.086Z" fill="white"/>
<path d="M232.788 133.878C229.983 140.253 194.261 157.127 196.724 170.284C198.865 181.721 202.039 214.027 203.972 220.892C205.103 224.912 203.575 267.671 203.575 267.671L90.3711 267.443C90.3711 267.443 156.976 171.555 163.997 156.08C166.997 149.468 162.819 144.441 162.819 144.441C162.819 144.441 148.085 146.76 148.464 138.622C148.814 131.328 154.993 132.637 154.993 132.637L184.366 135.519L228.7 117.219C228.7 117.217 235.76 127.12 232.788 133.878Z" fill="white"/>
<path d="M228.626 135.666C225.675 142.377 192.503 157.621 195.096 171.469C197.35 183.511 200.949 216.677 202.983 223.903C204.175 228.135 202.823 267.664 202.823 267.664L92.2422 267.445C92.2422 267.445 156.997 172.361 164.387 156.069C167.544 149.112 163.273 144.16 163.273 144.16C163.273 144.16 148.444 146.421 148.802 138.616C149.128 131.666 155.305 132.992 155.305 132.992L184.385 135.84L227.622 119.411C227.622 119.413 231.755 128.553 228.626 135.666Z" fill="white"/>
<path d="M224.457 137.458C221.357 144.503 190.739 158.116 193.461 172.66C195.827 185.303 199.851 219.33 201.986 226.919C203.235 231.362 202.065 267.663 202.065 267.663L94.1016 267.45C94.1016 267.45 157.008 173.168 164.768 156.06C168.083 148.757 163.715 143.88 163.715 143.88C163.715 143.88 148.789 146.082 149.123 138.613C149.43 132.009 155.603 133.355 155.603 133.355L184.392 136.168L226.528 121.612C226.53 121.612 227.742 129.989 224.457 137.458Z" fill="white"/>
<path d="M220.289 139.249C217.042 146.628 188.975 158.614 191.828 173.848C194.306 187.091 198.756 221.983 200.993 229.931C202.304 234.586 201.31 267.661 201.31 267.661L95.9668 267.453C95.9668 267.453 157.023 173.972 165.151 156.054C168.624 148.401 164.161 143.599 164.161 143.599C164.161 143.599 149.14 145.748 149.453 138.61C149.737 132.352 155.906 133.716 155.906 133.716L184.403 136.491L225.444 123.807C225.442 123.805 223.731 131.423 220.289 139.249Z" fill="white"/>
<path d="M216.122 141.04C212.728 148.755 187.212 159.112 190.194 175.038C192.788 188.882 197.66 224.636 199.998 232.947C201.366 237.814 200.552 267.659 200.552 267.659L97.8301 267.455C97.8301 267.455 157.036 174.779 165.536 156.046C169.167 148.045 164.607 143.319 164.607 143.319C164.607 143.319 149.491 145.408 149.78 138.604C150.041 132.69 156.206 134.076 156.206 134.076L184.413 136.816L224.354 126.001C224.352 126.001 219.721 132.858 216.122 141.04Z" fill="white"/>
<path d="M211.941 142.829C208.399 150.882 185.436 159.606 188.547 176.226C191.251 190.673 196.551 227.288 198.992 235.962C200.421 241.038 199.782 267.655 199.782 267.655L99.6816 267.458C99.6816 267.458 157.038 175.586 165.907 156.039C169.696 147.687 165.039 143.04 165.039 143.04C165.039 143.04 149.827 145.072 150.094 138.603C150.333 133.035 156.494 134.438 156.494 134.438L184.41 137.144L223.253 128.2C223.253 128.198 215.694 134.294 211.941 142.829Z" fill="white"/>
<path d="M207.777 144.619C204.087 153.006 183.676 160.102 186.916 177.414C189.734 192.462 195.457 229.943 198.001 238.976C199.487 244.267 199.029 267.653 199.029 267.653L101.547 267.461C101.547 267.461 157.055 176.394 166.294 156.03C170.239 147.333 165.487 142.759 165.487 142.759C165.487 142.759 150.18 144.734 150.423 138.599C150.641 133.374 156.8 134.797 156.8 134.797L184.421 137.468L222.167 130.396C222.167 130.394 211.689 135.726 207.777 144.619Z" fill="white"/>
<path d="M203.608 146.41C199.769 155.132 181.91 160.6 185.28 178.603C188.21 194.254 194.359 232.595 197.004 241.988C198.551 247.489 198.269 267.648 198.269 267.648L103.408 267.463C103.408 267.463 157.066 177.196 166.674 156.018C170.778 146.973 165.931 142.476 165.931 142.476C165.931 142.476 150.529 144.393 150.749 138.592C150.944 133.714 157.1 135.155 157.1 135.155L184.428 137.787L221.077 132.587C221.075 132.589 207.676 137.161 203.608 146.41Z" fill="white"/>
<path d="M199.436 148.2C195.45 157.259 180.142 161.094 183.643 179.791C186.687 196.045 193.259 235.247 196.005 245.002C197.612 250.717 197.507 267.646 197.507 267.646L105.266 267.466C105.266 267.466 157.075 178.002 167.051 156.01C171.313 146.617 166.369 142.197 166.369 142.197C166.369 142.197 150.871 144.055 151.07 138.588C151.242 134.056 157.393 135.516 157.393 135.516L184.432 138.112L219.982 134.783C219.985 134.785 203.66 138.596 199.436 148.2Z" fill="white"/>
<path d="M195.281 149.989C191.148 159.384 178.392 161.59 182.021 180.981C185.176 197.833 192.173 237.9 195.022 248.018C196.688 253.94 196.763 267.644 196.763 267.644L107.143 267.47C107.143 267.47 157.102 178.812 167.448 156.004C171.867 146.263 166.827 141.916 166.827 141.916C166.827 141.916 151.233 143.719 151.409 138.588C151.56 134.399 157.707 135.878 157.707 135.878L184.453 138.439L218.905 136.983C218.907 136.981 199.661 140.031 195.281 149.989Z" fill="white"/>
<path d="M191.105 151.781C186.824 161.51 176.621 162.087 180.38 182.168C183.65 199.625 191.072 240.552 194.021 251.032C195.749 257.169 196 267.641 196 267.641L108.998 267.473C108.998 267.473 157.109 179.618 167.825 155.997C172.403 145.908 167.265 141.637 167.265 141.637C167.265 141.637 151.575 143.384 151.729 138.583C151.857 134.738 158.001 136.239 158.001 136.239L184.456 138.763L217.81 139.178C217.812 139.178 195.642 141.467 191.105 151.781Z" fill="white"/>
<path d="M186.938 153.57C182.51 163.635 174.859 162.584 178.747 183.356C182.129 201.415 189.976 243.203 193.028 254.045C194.813 260.394 195.244 267.64 195.244 267.64L110.863 267.476C110.863 267.476 157.124 180.423 168.209 155.988C172.945 145.553 167.713 141.359 167.713 141.359C167.713 141.359 151.928 143.049 152.06 138.582C152.165 135.083 158.306 136.599 158.306 136.599L184.469 139.09L216.726 141.373C216.724 141.375 191.631 142.903 186.938 153.57Z" fill="white"/>
<path d="M215.634 143.571C215.634 143.571 187.619 144.338 182.769 155.364C178.193 165.765 173.093 163.08 177.111 184.549C180.606 203.208 188.878 245.862 192.031 257.063C193.877 263.622 194.484 267.64 194.484 267.64L112.725 267.484C112.725 267.484 157.136 181.234 168.592 155.984C173.486 145.2 168.157 141.082 168.157 141.082C168.157 141.082 152.277 142.713 152.386 138.582C152.471 135.427 158.608 136.965 158.608 136.965L184.478 139.42L215.634 143.571Z" fill="white"/>
<path d="M227.786 147.7L307.676 102.312C290.149 107.964 217.754 131.926 207.966 145.32C198.577 158.17 198.826 171.265 200.485 179.723C201.754 186.193 208.964 210.037 210.933 223.152C212.9 236.269 217.978 267.723 217.978 267.723L222.886 163.624L227.786 147.7Z" fill="white"/>
<path d="M312.01 99.8598L249.42 75.4978L184.225 129.349L181.254 129.039L221.482 194.734L222.908 163.624L227.806 147.7L312.01 99.8598Z" fill="white"/>
</svg>
