<svg width="360" height="360" viewBox="0 0 360 360" fill="none" xmlns="http://www.w3.org/2000/svg">
<rect width="360" height="360" rx="82" fill="#3982E8"/>
<path d="M180.446 306.875C110.143 306.875 53.125 249.857 53.125 179.554C53.125 109.25 110.143 52.2321 180.446 52.2321C210.339 52.2321 238.018 62.75 259.607 79.9107L275.661 56.6607C249.643 36.1786 216.429 24 181 24C95.1964 24 26 93.1964 26 179C26 264.804 95.1964 334 181 334C216.429 334 249.089 321.821 275.107 301.893L259.054 278.643C238.018 296.357 210.339 306.875 180.446 306.875Z" fill="#0C3793"/>
<path d="M53.6787 179.553C53.6787 249.857 110.697 306.875 181 306.875C210.893 306.875 238.018 296.91 259.607 279.75L243.554 255.946C226.393 270.339 204.25 278.642 180.447 278.642C125.643 278.642 81.3573 234.357 81.3573 179.553C81.3573 124.75 125.643 80.4638 180.447 80.4638C204.804 80.4638 226.393 89.321 244.107 103.16L260.161 80.4638C238.572 63.3031 210.893 52.7852 181 52.7852C110.697 52.2317 53.6787 109.25 53.6787 179.553Z" fill="white"/>
</svg>
