<svg width="360" height="360" viewBox="0 0 360 360" fill="none" xmlns="http://www.w3.org/2000/svg">
<rect width="360" height="360" rx="82" fill="#231F20"/>
<path d="M247.823 42.0003H125.943V75.542H247.823V42.0003Z" fill="#E51636"/>
<path d="M247.788 266.97C247.788 283.299 248.788 304.062 251.02 318H160.87C130.718 318 108 293.007 108 256.118C108 202.104 153.64 179.255 201.207 178.849V175.14C201.207 153.204 192.629 137.831 169.795 137.831C154.77 137.831 137.572 142.236 126.184 149.48V118.025C136.543 111.49 154.205 102.985 179.807 102.985C233.952 102.985 247.788 138.193 247.788 182.935V266.97ZM202.395 283.719L202.453 209.536C184.501 209.812 151.988 214.781 151.988 251.38C151.988 275.113 164.637 283.69 174.735 283.69L202.395 283.719Z" fill="white"/>
</svg>
