<svg width="360" height="360" viewBox="0 0 360 360" fill="none" xmlns="http://www.w3.org/2000/svg">
<rect width="360" height="360" rx="82" fill="#E31836"/>
<path d="M74.5734 199.122C68.1071 210.839 65.6557 222.343 70.1899 231.235C84.3222 258.975 149.977 258.58 213.077 232.149C228.949 225.506 243.336 217.752 255.764 209.426C292.739 184.657 307.069 156.714 296.489 135.949C282.351 108.209 224.98 105.264 161.886 131.69C155.129 134.521 148.647 137.528 142.472 140.676L137.169 140.712C146.165 135.767 156.22 130.698 166.379 126.445C238.11 96.3984 309.292 97.6086 325.362 129.145C337.427 152.824 319.051 185.903 276.763 214.111C262.724 223.475 245.133 233.053 227.261 240.542C155.524 270.583 83.6518 268.729 67.5822 237.192C61.8898 226.025 62.8718 212.932 70.408 199.075L74.5734 199.122ZM89.2767 179.027C93.3798 174.472 97.6441 170.841 102.957 166.421L103.092 163.035C96.4547 168.317 90.5128 173.724 85.3554 179.151L89.2767 179.027Z" fill="white"/>
<path d="M94.6728 177.184C89.4894 196.76 73.7104 204.478 57.8122 204.478C35.3438 204.478 27.8545 190.818 32.1601 170.557C35.7698 150.644 50.5408 137.166 72.2042 137.166C88.3725 137.166 100.671 143.726 96.4798 165.711H73.1856C74.6607 155.256 72.298 153.838 69.1869 153.879C62.6219 153.879 60.5755 160.585 58.3992 170.822C56.3373 180.529 55.3293 187.764 61.7177 187.764C65.0001 187.764 67.6286 185.821 70.8436 177.184H94.6728Z" fill="white"/>
<path d="M128.006 153.343H130.483C134.561 153.343 136.633 154.849 137.682 157.42C138.799 160.084 138.367 164.608 137.048 170.82C135.729 177.031 134.238 181.555 131.984 184.215C129.844 186.791 127.133 188.297 123.056 188.297H120.573L128.006 153.343ZM92.6724 202.829H124.219C143.925 202.829 159.086 190.868 163.194 171.526C167.229 152.543 161.973 138.81 136.321 138.81H106.28L92.6724 202.829Z" fill="white"/>
<path d="M168.81 138.809H191.517L188.385 178.988H188.562L203.047 138.809H229.302L226.705 178.988H226.882L240.832 138.809H263.539L236.096 202.812H208.599L211.482 161.288H211.305L196.539 202.812H169.044L168.81 138.809Z" fill="white"/>
</svg>
