<svg width="360" height="360" viewBox="0 0 360 360" fill="none" xmlns="http://www.w3.org/2000/svg">
<rect width="360" height="360" rx="82" fill="#E95504"/>
<path fill-rule="evenodd" clip-rule="evenodd" d="M25 180.366C25 94.2136 94.2136 25 179.625 25C213.495 25 244.416 36.0428 270.192 53.7147C205.4 64.7575 69.9211 98.6359 27.2154 207.607C25.7459 198.601 25.0051 189.491 25 180.366ZM301.863 84.6449C322.475 110.411 335 144.29 335 180.366C335 265.769 265.054 334.983 179.634 334.983C143.279 335.073 108.065 322.293 80.2312 298.906C111.153 303.32 150.178 300.389 188.47 290.07C243.684 275.338 276.821 252.528 278.295 251.046V198.771C258.416 210.555 232.649 220.857 206.874 228.227C142.816 245.882 105.265 231.908 120.722 186.987C142.083 123.67 255.468 89.7914 301.863 84.6449Z" fill="white"/>
</svg>
