<svg width="360" height="360" viewBox="0 0 360 360" fill="none" xmlns="http://www.w3.org/2000/svg">
<rect width="360" height="360" rx="82" fill="#26326F"/>
<path d="M236.533 75.5717C221.32 76.6947 206.48 78.3885 192.769 82.8938C177.932 87.2141 164.596 95.1017 150.887 102.242C170.795 76.6947 196.526 52.8416 223.011 35C228.08 47.9637 232.59 61.8602 236.533 75.5717Z" fill="white"/>
<path d="M238.224 81.9548C243.104 96.607 248.553 110.884 252.683 125.719C240.475 118.206 226.766 112.197 211.742 110.319C178.873 107.127 147.882 114.076 120.647 127.032C152.012 105.248 183.941 84.9619 223.012 81.5796L238.224 81.9548" fill="white"/>
<path d="M216.246 116.702C187.325 114.075 159.526 129.665 146.378 155.397C129.847 196.151 147.128 239.725 167.977 273.534C151.073 258.697 136.234 240.856 124.591 222.636C111.818 203.101 107.873 170.232 122.9 149.571C144.687 120.084 179.812 108.249 216.246 116.702Z" fill="white"/>
<path d="M148.63 121.214C128.907 131.728 111.444 151.824 109.377 173.988C105.432 206.482 123.274 230.898 143.187 254.186C119.144 240.099 83.2704 218.318 84.0208 184.69C83.0828 153.893 114.073 134.17 138.114 123.841C141.681 123.093 144.688 121.024 148.63 121.214Z" fill="white"/>
<path d="M183.19 243.299C200.472 251.934 225.263 249.117 241.041 239.351L256.816 226.202L241.041 274.471L238.784 276.168C205.355 278.985 173.987 266.959 156.708 237.472C147.504 223.576 145.066 206.857 144.5 189.203C146.751 211.368 161.969 234.28 183.19 243.299Z" fill="white"/>
<path d="M237.846 281.612C232.778 295.889 229.771 311.098 223.759 325C194.272 305.462 170.982 275.788 157.083 245.175C175.49 272.411 205.73 283.3 237.846 281.612Z" fill="white"/>
</svg>
