<svg width="360" height="360" viewBox="0 0 360 360" fill="none" xmlns="http://www.w3.org/2000/svg">
<rect width="360" height="360" rx="82" fill="#1574C4"/>
<path d="M335 179.983C335 265.615 265.606 335.008 180 335.008C94.3935 335.008 25 265.615 25 179.983C25 94.3937 94.3935 25 180 25C265.606 25 335 94.3937 335 179.983Z" fill="#7FCC28"/>
<path d="M173.307 334.941C174.748 334.991 176.18 335.008 177.613 335.008C180.646 335.008 183.655 334.899 186.621 334.747L186.536 333.93C194.921 276.334 219.097 210.1 288.971 205.516C345.927 201.774 254.278 201.715 254.278 201.715C225.181 203.898 202.092 222.192 188.963 258.427L188.668 257.778C198.738 203.612 224.271 146.504 288.971 142.257C345.927 138.499 254.278 138.44 254.278 138.44C216.957 141.254 189.528 170.579 180.318 230.172L179.635 229.97C170.391 170.512 143.004 141.254 105.716 138.44C105.716 138.44 14.0681 138.499 71.0155 142.257C135.648 146.504 161.181 203.46 171.293 257.576L171.133 258.747C158.046 222.31 134.898 203.898 105.716 201.715C105.716 201.715 14.0681 201.774 71.0155 205.516C141.108 210.117 165.217 276.704 173.517 334.435L173.307 334.941Z" fill="white"/>
<path d="M180 178.67C176.368 181.113 163.079 140.564 162.127 135.635C157.104 109.369 178.002 70.2608 179.797 73.0668H180.185C181.98 70.2608 202.878 109.369 197.856 135.635C196.903 140.564 183.615 181.113 179.983 178.67H179.999" fill="white"/>
</svg>
