<svg width="360" height="360" viewBox="0 0 360 360" fill="none" xmlns="http://www.w3.org/2000/svg">
<rect width="360" height="360" rx="82" fill="black"/>
<path d="M287.679 287.679C294.702 280.655 294.845 269.124 287.679 262.005L245.728 220.054L274.866 220.339C286.255 220.624 292.852 212.651 292.852 202.638C292.852 192.388 284.832 184.368 274.866 184.368H238.61C230.637 184.368 224.183 189.303 221.715 195.757C217.16 207.621 207.811 217.017 195.757 221.715C189.256 224.278 184.368 230.637 184.368 238.61V274.866C184.368 284.832 192.34 292.852 202.638 292.852C212.604 292.852 220.624 286.255 220.339 274.866L220.054 245.728L262.005 287.679C269.124 294.797 280.655 294.655 287.679 287.679ZM287.679 73.3211C280.703 66.2977 269.124 66.1553 262.005 73.3211L220.054 115.272L220.339 86.1342C220.624 74.7448 212.604 68.1484 202.638 68.1484C192.388 68.1484 184.368 76.1685 184.368 86.1342V122.39C184.368 130.363 189.303 136.817 195.757 139.285C207.621 143.84 216.97 153.189 221.715 165.243C224.278 171.744 230.637 176.632 238.61 176.632H274.866C284.832 176.632 292.852 168.66 292.852 158.362C292.852 148.396 286.255 140.376 274.866 140.661L245.728 140.946L287.679 98.9947C294.797 91.8763 294.655 80.2971 287.679 73.3211ZM73.3211 73.3211C66.2977 80.3446 66.2027 91.8763 73.3211 98.9947L115.272 140.946L86.1342 140.661C74.7448 140.376 68.1484 148.349 68.1484 158.362C68.1484 168.612 76.1685 176.632 86.1342 176.632H122.39C130.363 176.632 136.817 171.697 139.285 165.243C143.84 153.379 153.189 143.983 165.243 139.285C171.744 136.722 176.632 130.363 176.632 122.39V86.1342C176.632 76.1685 168.66 68.1484 158.362 68.1484C148.396 68.1484 140.376 74.7448 140.661 86.1342L140.946 115.272L98.9947 73.3211C91.8763 66.1553 80.2971 66.2977 73.3211 73.3211ZM73.3211 287.679C80.2971 294.702 91.8763 294.845 98.9947 287.679L140.946 245.728L140.661 274.866C140.376 286.255 148.349 292.852 158.362 292.852C168.612 292.852 176.632 284.832 176.632 274.866V238.61C176.632 230.637 171.697 224.183 165.243 221.715C153.379 217.16 144.03 207.811 139.285 195.757C136.722 189.256 130.363 184.368 122.39 184.368H86.1342C76.1685 184.368 68.1484 192.34 68.1484 202.638C68.1484 212.604 74.7448 220.624 86.1342 220.339L115.272 220.054L73.3211 262.005C66.1553 269.124 66.2977 280.655 73.3211 287.679Z" fill="#00965E"/>
</svg>
