<svg width="360" height="360" viewBox="0 0 360 360" fill="none" xmlns="http://www.w3.org/2000/svg">
<rect width="360" height="360" rx="82" fill="black"/>
<path d="M147.753 27.2868C152.526 25.2541 158.655 24.5765 164.784 25.2541C166.14 25.2541 167.495 25.9317 168.881 25.9317C184.557 29.3504 194.752 44.3187 191.364 60.673L179.106 122.671L147.753 27.2868ZM89.1729 53.158C92.5916 49.0617 97.3346 46.3514 103.464 44.2879C104.819 43.6103 106.174 43.6103 107.56 43.6103C123.237 40.1916 138.882 49.7393 142.301 66.0936L155.914 127.384L89.1729 53.158ZM45.5923 100.866C46.9474 96.0918 50.3661 91.318 55.14 87.2525C56.4951 85.8974 57.1727 85.2198 58.5587 84.5422C71.4942 74.9945 89.8813 77.7356 99.429 90.6712L137.558 141.028L45.5923 100.866ZM25.1725 161.478C24.4949 156.027 25.8501 150.575 28.5912 145.124C29.2688 143.769 29.9464 143.091 30.6239 141.705C38.7857 127.414 56.4951 122.641 70.1391 130.802L125.3 161.447H25.1725V161.478ZM31.3015 225.509C28.5912 220.735 27.2053 215.284 27.2053 209.155C27.2053 207.8 27.2053 206.445 27.2053 205.059C28.5604 188.704 42.8819 177.124 59.2054 178.479L121.881 184.608L31.3015 225.509ZM63.3017 282.026C59.2054 279.315 55.8175 274.541 53.0764 268.412C52.3988 267.057 52.3988 265.702 51.7213 264.316C46.9474 249.317 55.14 232.316 70.1083 227.542L130.043 207.122L63.3017 282.026ZM115.075 320.185C110.301 318.83 104.85 316.089 100.076 312.024C99.3981 311.346 98.043 309.991 97.3654 309.313C86.4626 297.733 87.1401 278.668 99.3982 267.766L145.72 224.863L115.075 320.185ZM178.428 333.799C173.655 335.154 167.526 334.476 161.397 332.444C160.041 331.766 158.686 331.766 157.978 331.088C142.979 324.959 136.172 307.25 142.979 292.959L168.172 235.057L178.428 333.799ZM241.074 320.863C236.977 323.573 231.526 325.637 224.719 326.314C223.364 326.314 222.009 326.314 220.623 326.314C204.269 326.314 191.333 313.379 191.333 297.025L190.656 233.671L241.074 320.863ZM293.524 283.381C290.814 288.155 286.718 292.251 281.266 294.961C279.911 295.639 279.234 296.316 277.848 296.316C262.849 303.123 245.847 296.316 239.01 282.026L212.431 224.801L293.524 283.381ZM326.233 227.542C325.555 232.993 323.523 238.445 319.426 243.219C318.749 244.574 318.071 245.251 316.716 245.929C305.813 258.187 287.426 258.865 275.168 248.639L227.46 207.122L326.233 227.542ZM333.717 163.511C335.072 168.285 335.75 174.414 333.717 180.543C333.717 181.898 333.04 183.253 332.362 183.961C327.588 199.638 311.234 207.8 295.588 203.026L234.945 183.961L333.717 163.511ZM313.975 102.221C317.394 106.317 320.104 111.091 321.459 117.898C321.459 119.253 322.137 120.608 322.137 121.994C324.169 138.348 312.589 152.639 296.265 153.994L233.589 161.478L313.975 102.221ZM271.041 54.544C275.815 56.5767 280.589 59.9954 283.977 65.4468C284.654 66.802 285.332 67.4795 286.009 68.8655C294.171 82.4787 289.428 100.866 275.784 109.058L221.331 141.028L271.041 54.544ZM212.461 27.9644C217.913 27.9644 223.364 29.3196 228.816 32.7383C230.171 33.4158 230.848 34.0934 232.234 34.771C245.17 44.3187 248.589 62.7057 239.041 75.6413L202.267 127.414L212.461 27.9644Z" fill="white"/>
</svg>
