<svg width="360" height="360" viewBox="0 0 360 360" fill="none" xmlns="http://www.w3.org/2000/svg">
<rect width="360" height="360" rx="82" fill="#DB155C"/>
<path fill-rule="evenodd" clip-rule="evenodd" d="M182.513 31.5671C191.751 32.2268 223.744 40.805 238.591 121.294L259.373 116.02C259.373 116.02 246.178 34.8662 195.705 30.2472C193.396 29.9176 187.792 29.9176 185.812 30.2472C181.193 30.9069 183.173 30.9069 179.543 31.8967C179.543 31.8967 180.863 31.237 182.513 31.5671Z" fill="white"/>
<path fill-rule="evenodd" clip-rule="evenodd" d="M198.346 88.3053C198.346 88.3053 178.554 69.174 163.377 112.06L142.266 114.695C142.266 114.695 148.865 90.615 165.027 78.4118C165.027 78.4118 182.513 64.225 198.346 88.3053Z" fill="white"/>
<path fill-rule="evenodd" clip-rule="evenodd" d="M102.349 182.982C102.349 182.982 86.5167 171.769 104.988 161.541C104.988 161.541 115.216 155.602 136.327 150.983C136.327 150.983 133.688 169.79 136.327 198.819C137.647 216.301 141.276 235.107 148.535 255.888C148.535 255.888 157.113 282.277 173.275 290.196C173.275 290.196 184.822 297.455 196.695 279.968C196.695 279.968 186.472 285.247 179.213 276.009C179.213 276.009 170.306 266.116 166.346 251.929C166.346 251.929 186.472 253.578 207.253 252.258C207.253 252.258 210.883 243.685 212.531 230.158C212.531 230.158 190.101 231.808 161.067 229.168C161.067 229.168 151.834 192.55 156.783 147.684C156.783 147.684 231.993 136.471 284.447 169.79L320.4 157.582V137.461L285.437 148.344C285.437 148.344 253.771 129.872 205.272 127.233C205.272 127.233 139.297 122.284 99.3795 144.389C99.3795 144.389 76.9487 154.943 87.1764 170.779C87.1764 170.779 91.4611 177.373 102.349 182.982Z" fill="white"/>
<path fill-rule="evenodd" clip-rule="evenodd" d="M40 167.15C40 167.15 40 173.089 40.3301 177.374C40.6602 182.653 40.3301 184.637 40.6602 188.591C41.3199 193.211 41.3199 203.438 60.7813 218.281C77.9376 231.808 106.307 241.701 126.103 245.66C126.103 245.66 122.144 232.468 121.484 223.56C121.484 223.56 78.9274 215.312 54.517 191.891C54.517 191.891 43.9592 184.637 40 167.15Z" fill="white"/>
<path fill-rule="evenodd" clip-rule="evenodd" d="M173.273 329.122C173.273 329.122 172.613 329.784 179.872 329.784C184.491 330.113 187.46 330.113 194.054 329.451C202.964 328.46 221.108 321.206 229.682 309.326C229.682 309.326 246.839 292.505 257.39 247.309C257.39 247.309 296.32 238.735 319.408 217.29V195.189C319.408 195.189 300.278 214.655 261.353 223.558C261.353 223.558 263.329 200.798 263.001 193.539C263.001 193.539 260.033 195.189 240.57 199.478C240.57 199.478 239.58 282.277 202.964 316.257C202.964 316.257 188.12 331.104 173.273 329.122Z" fill="white"/>
</svg>
