<svg width="360" height="360" viewBox="0 0 360 360" fill="none" xmlns="http://www.w3.org/2000/svg">
<rect width="360" height="360" rx="82" fill="black"/>
<path d="M28 188.014C28 203.547 36.7472 207.208 51.4466 207.208H77.7606C94.1513 207.208 97.3855 200.178 97.3855 191.241V186.26H81.0673C81.0673 192.852 78.8632 193.583 71.513 193.583H54.0933C46.3751 193.583 44.7586 190.654 44.7586 182.962V177.247C44.7586 170.655 46.3751 166.626 54.9751 166.626H72.7616C77.6135 166.626 80.4073 167.724 80.4073 171.533V172.998H96.7233C96.8716 157.981 93.857 153 70.6311 153H51.4466C36.7472 153 28 156.663 28 172.193V188.014Z" fill="white"/>
<path d="M101.178 188.014C101.178 203.547 109.924 207.208 124.624 207.208H144.248C162.624 207.208 170.563 206.478 170.563 191.241V176.149H133.959V187.137H154.245V188.674C154.245 193.803 149.982 194.463 145.72 194.463H128.299C120.067 194.463 117.935 192.483 117.935 183.401V176.808C117.935 167.724 120.067 165.746 128.299 165.746H146.013C151.233 165.746 154.245 166.406 154.245 171.679H170.269V169.995C170.269 159.666 167.696 153 149.174 153H124.624C109.924 153 101.178 156.663 101.178 172.193V188.014Z" fill="white"/>
<path d="M174.663 206.622H190.979V168.089H191.128L221.777 206.622H247.061V153.585H230.743V192.116H230.598L199.947 153.585H174.663V206.622Z" fill="white"/>
<path d="M253.058 206.622H274.964L292.53 187.356L310.098 206.622H332L305.905 180.031L330.164 153.585H309.068L292.53 172.118L275.994 153.585H254.897L279.152 180.031L253.058 206.622Z" fill="white"/>
</svg>
