<svg width="360" height="360" viewBox="0 0 360 360" fill="none" xmlns="http://www.w3.org/2000/svg">
<rect width="360" height="360" rx="82" fill="#DA0B3F"/>
<mask id="mask0" mask-type="alpha" maskUnits="userSpaceOnUse" x="26" y="25" width="310" height="310">
<rect x="26" y="25" width="310" height="310" rx="155" fill="#C4C4C4"/>
</mask>
<g mask="url(#mask0)">
<path fill-rule="evenodd" clip-rule="evenodd" d="M123.121 113.41L121.74 114.204C115.45 114.117 119.682 111.862 115.325 110.496C111.482 109.293 109.14 110.929 107.399 112.569C104.831 114.997 103.691 114.689 100.204 116.127C95.9096 117.902 97.54 119.085 93.4376 120.124C89.2487 121.187 89.6142 121.216 87.5029 124.395C85.7235 127.073 84.7328 127.978 82.8187 130.464C79.3271 134.999 77.1629 138.289 76.6916 146.003C72.2141 150.399 62.7687 151.163 67.4962 162.475C72.6855 174.897 77.9228 169.328 83.9873 167.159C87.1663 168.958 97.5881 179.966 99.2377 187.618C102.763 203.97 107.548 220.374 111.742 236.163C115.469 250.192 118.985 259.267 125.396 270.968C129.517 278.495 151.399 308.639 158.431 310.948C172.998 315.733 183.949 302.94 192.562 297.674C205.148 289.979 216.277 281.443 227.04 271.689C233.466 265.87 239.444 259.214 244.719 252.265C246.677 249.687 253.347 239.121 255.151 238.024C258.335 239.111 259.508 241.299 264.51 239.164C267.645 237.827 270.021 235.389 271.084 233.008C282.059 233.523 280.044 228.396 287.46 226.857C290.297 226.266 291.057 226.025 293.433 224.9C292.885 223.438 292.466 223.332 292.399 221.495L296.391 218.032C296.227 215.738 296.217 217.359 295.895 216.498C294.241 212.088 297.53 210.958 296.232 206.071L294.02 213.059L293.091 210.818C291.735 211.698 292.005 212.65 290.643 212.891L291.24 208.764C290.057 209.707 289.138 210.881 289.076 212.054C288.941 207.139 290.047 202.012 289.725 196.246C289.484 191.913 288.628 184.987 287.017 181.794C287.239 184.708 288.523 188.032 288.085 191.461C287.724 194.279 286.907 193.562 286.204 195.342C286.171 195.428 286.123 195.597 286.099 195.688L284.021 203.186C283.492 204.84 284.209 202.426 283.891 205.172C283.651 207.245 281.963 208.264 280.919 210.01C279.842 211.814 281.665 210.231 279.693 211.996L279.01 210.789C278.957 210.679 278.875 210.496 278.817 210.371C278.149 208.971 278.851 209.678 277.899 208.428C277.668 208.861 277.759 208.894 277.485 209.596C277.437 209.717 277.37 209.909 277.317 210.034C277.264 210.174 277.182 210.361 277.125 210.496L275.715 206.86C274.912 207.11 275.99 206.927 275.066 207.384C273.162 208.327 275.86 208.394 273.994 207.634C273.32 203.979 273.907 202.344 275.441 199.954C277.1 201.315 278.24 203.849 281.198 200.454C279.851 196.607 277.269 198.025 273.979 196.582C273.109 196.203 273.479 196.193 272.637 197.28C272.575 197.357 272.474 197.578 272.363 197.708C271.632 195.765 271.887 195.909 270.209 194.962L272.734 201.767C270.242 199.17 267.15 194.466 266.448 190.124C268.174 191.691 270.185 191.672 272.397 190.321C272.546 186.295 271.421 187.902 268.434 185.964C266.318 184.588 265.592 183.131 263.846 181.587C261.802 179.774 260.903 179.432 260.494 175.859C260.114 172.526 260.268 172.166 262.812 171.228C262.908 171.194 263.129 171.103 263.206 171.074C263.288 171.045 263.495 171.002 263.606 170.906C257.099 164.668 260.177 177.167 243.382 164.947C232.59 157.098 228.247 162.619 217.268 159.344C216.748 157.406 216.787 155.054 217.643 153.366C218.34 151.981 220.403 150.423 221.582 149.062C219.408 149.446 216.941 150.649 216.171 151.914C212.608 157.795 215.782 157.377 204.446 165.894C187.965 178.283 199.281 183.602 198.901 189.041C198.531 194.298 190.187 196.76 185.666 209.962C183.391 216.608 182.208 232.811 177.956 236.817C174.239 233.585 173.296 228.584 170.04 225.712C166.044 222.182 164.226 219.734 160.619 216.002C154.521 209.688 149.144 200.868 144.902 192.788C142.608 188.416 132.638 169.256 134.918 165.24L138.64 159.33C152.073 130.791 130.277 141.92 155.309 128.122C159.662 125.722 163.735 123.39 167.963 121.043L186.883 110.63C190.052 108.957 190.384 107.807 194.707 108.211C198.377 112.713 201.301 117.873 205.466 122.053C207.842 124.438 208.683 125.708 212.136 127.386C216.941 129.719 216.599 129.257 220.476 126.862C225.222 123.933 230.917 120.903 236.303 118.181C242.137 115.233 246.835 112.256 251.505 108.986C250.438 97.5587 245.34 86.8869 244.517 79.5478C246.061 77.9704 246.441 78.2445 248.153 76.5564C248.187 69.6888 240.838 54.4144 232.634 60.1471C226.824 54.3519 223.64 46.5271 215.561 43.0452C212.68 41.8044 210.342 43.9012 207.837 45.3921C203.085 48.22 198.372 50.9228 193.351 53.6545C188.878 56.088 182.703 60.325 178.529 61.9025C178.548 71.3864 181.395 79.2978 184.266 87.0552C175.081 93.5093 154.607 103.806 143.921 109.572C139.636 111.886 134.274 114.944 130.046 116.536C127.81 112.684 128.195 113.742 123.116 113.381L123.121 113.41Z" fill="#0A4A78"/>
<path fill-rule="evenodd" clip-rule="evenodd" d="M222.577 162.141L226.574 163.748C223.496 165.994 221.995 162.978 217.407 163.83C209.4 165.316 207.548 163.377 200.719 171.183C199.185 172.934 197.665 177.43 197.588 180.268C201.291 182.009 200.113 182.148 205.49 181.836C209.645 181.59 211.338 182.288 212.954 184.606C212.944 182.038 212.891 183.476 213.516 182.547C216.599 182.057 215.748 181.494 218.297 182.879C219.441 183.504 218.932 183.375 220.437 183.764C224.496 184.808 224.308 185.5 227.641 185.601C232.398 185.75 229.911 184.841 232.09 184.043C234.288 185.957 233.932 187.857 235.788 189.627L237.909 187.939C238.005 187.852 238.183 187.698 238.265 187.626C238.342 187.559 238.491 187.4 238.621 187.313C239.52 188.15 239.963 188.674 240.872 189.603C241.434 190.17 241.603 190.218 242.093 190.8C244.339 193.484 244.156 198.216 248.711 195.316C249.177 197.437 252.246 201.674 253.155 206.075C252.693 203.829 253.462 203.8 253.943 203.194C255.588 210.932 256.026 208.758 257.185 211.62C258.493 214.866 257.151 218.584 258.152 221.835C259.368 219.93 259.186 214.885 259.359 211.836C259.45 210.239 259.489 208.604 259.969 206.998C260.489 205.262 260.152 205.834 260.811 205.858C264.452 205.974 259.07 208.345 261.706 206.464C261.715 203.838 261.504 200.284 262.408 198.168L263.812 195.937C264.259 195.417 264.322 195.528 264.938 194.912C267.39 197.144 266.861 202.747 267.039 205.882C267.054 206.161 267.14 207.45 267.179 207.671L267.862 209.778C268.516 192.839 265.981 194.816 262.336 192.878L262.249 183.408C260.167 181.812 261.917 183.37 259.715 182.571C254.905 180.835 254.761 178.984 254.501 176.541C252.337 177.906 253.217 177.757 251.385 175.593L249.072 173.881C246.287 172.717 245.537 171.048 244.508 170.452L239.982 168.326C238.188 167.302 236.014 168.677 232.003 164.402C227.463 159.573 229.887 162.444 225.944 162.579C225.386 162.598 223.827 162.214 222.572 162.156L222.577 162.141Z" fill="#FEFEFE"/>
<path fill-rule="evenodd" clip-rule="evenodd" d="M186.494 59.4241C186.941 60.3715 187.331 61.1362 187.951 61.4392C190.207 62.5357 185.431 60.1215 190.106 61.3094L191.212 64.5557L189.654 64.3969C190.337 67.196 191.539 69.5573 192.655 71.4522L197.248 78.0025C196.012 73.7174 193.982 73.3278 193.16 68.7638C198.258 71.8129 195.31 77.4831 202.043 78.6277C201.1 75.5594 199.931 75.1025 199.287 71.5676L201.288 73.6308C201.865 74.4532 202.235 75.29 202.754 76.3096C203.822 78.392 204.644 80.0994 206.082 81.5614L204.356 76.7954C208.069 80.4312 213.883 92.719 216.788 98.2257C218.664 101.785 220.563 105.704 222.646 109.1C225.074 113.062 226.868 116.035 229.186 119.541C226.57 96.1576 224.435 100.173 216.596 86.4092C213.58 81.1141 211.31 79.4405 211.277 75.8527C211.397 75.9633 211.58 75.973 211.637 76.1942L213.999 79.4549C214.84 81.0035 215.557 82.2443 216.321 83.6967C218.014 86.9238 219.462 89.0062 221.41 91.4926C219.443 83.3601 209.444 68.4801 203.307 62.5886C196.094 55.6632 197.176 51.4599 186.499 59.4289L186.494 59.4241Z" fill="#FEFEFE"/>
<path fill-rule="evenodd" clip-rule="evenodd" d="M233.242 240.573C232.646 246.19 231.569 243.189 229.154 246.936L226.779 249.441C226.687 249.523 226.543 249.629 226.456 249.716L224.937 252.245C223.335 254.405 222.643 253.193 221.359 255.968C219.791 259.363 219.675 262.037 216.703 263.663C217.569 264.471 219.579 265.692 220.762 265.38C221.724 265.125 220.969 264.148 224.21 264.144L221.998 261.508C225.148 261.782 224.35 261.657 227.471 260.791L228.904 260.359C227.38 259.608 225.918 258.603 224.326 258.108C225.634 257.156 223.475 257.141 226.682 257.598C227.26 257.68 227.885 258.242 229.433 258.497L226.365 255.708L231.78 257.127C230.54 255.347 229.693 255.357 228.847 253.823C230.79 254.116 230.136 254.193 231.819 254.823C233.483 252.851 232.141 252.899 235.142 252.76C234.243 251.726 234.113 251.692 233.367 250.471C234.772 250.331 237.008 248.773 237.253 248.398C238.84 245.979 236.503 245.854 240.389 244.868C240.456 244.849 240.658 244.834 240.769 244.762C240.24 242.829 240.836 243.613 240.586 241.016C241.639 241.222 242.789 241.747 243.909 240.982L241.399 239.856C241.471 239.866 241.716 239.616 241.784 239.741L245.025 237.433C245.891 236.788 244.982 237.774 245.804 236.908C247.819 234.797 246.126 231.498 246.093 230.95C246.026 229.791 247.055 228.834 246.713 226.28C241.914 232.147 245.814 223.88 239.302 233.075C239.225 233.181 239.124 233.325 239.047 233.426L236.436 237.404C233.978 241.747 234.262 240.03 233.238 240.568L233.242 240.573Z" fill="#FDE3CB"/>
<path fill-rule="evenodd" clip-rule="evenodd" d="M81.987 137.633C80.2412 137.936 81.5445 135.57 80.4095 138.23C80.4144 142.38 79.8084 141.25 79.0918 144.905C88.268 140.861 82.3958 141.649 85.9787 139.009C86.8636 138.355 86.0797 138.946 87.157 138.393L88.7729 137.585C92.2116 139.225 94.1978 141.212 97.1219 143.034C100.363 145.054 106.014 146.334 103.432 139.73C100.392 139.293 101.258 140.976 97.9347 140.447C97.9058 138.09 99.0023 136.46 98.3771 135.036C96.6939 131.179 97.2277 135.724 95.3569 131.747L92.8993 132.545L92.6348 130.405C92.3222 130.424 91.0477 130.799 90.9756 130.804C89.9224 130.867 90.788 131.343 87.9313 129.573C86.5847 128.741 88.0804 129.131 86.325 128.731C83.1989 132.276 82.5401 131.112 81.987 137.633Z" fill="#FDE3CB"/>
<path fill-rule="evenodd" clip-rule="evenodd" d="M89.8203 125.063C92.9367 129.401 100.882 125.289 104.445 139.914C105.099 142.603 104.58 141.886 106.432 142.954C107.822 143.863 111.506 143.608 112.857 143.021C113.867 140.496 112.818 138.486 111.496 137.212C109.437 137.832 111.212 137.76 110.327 139.429L105.802 140.131C106.489 136.586 108.009 135.725 111.496 134.73C110.534 132.138 111.525 134.821 109.851 132.874L108.764 131.493C108.649 131.402 108.235 131.137 108.091 131.046L107.297 130.599C104.503 128.954 103.503 128.612 105.047 126.852C100.939 126.573 98.9532 123.563 95.5626 124.198L96.1349 122.264C89.8251 123.293 90.6908 122.173 89.8203 125.063Z" fill="#FDE3CB"/>
<path fill-rule="evenodd" clip-rule="evenodd" d="M99.5448 174.13C100.425 172.659 103.705 168.946 104.869 168.128C103.032 164.382 104.143 164.661 101.161 161.573C101.719 158.62 101.95 159.024 103.051 156.913C97.4336 159.222 92.2491 162.453 90.4023 167.72C92.0664 166.878 93.3745 165.618 94.4518 164.291C93.7352 166.95 92.3549 166.551 91.2873 169.956C91.3594 170.004 91.5085 169.932 91.5277 170.023C91.9846 172.26 90.9025 168.013 93.3697 171.971L93.7208 172.548C94.9135 174.212 94.2546 172.668 96.2889 173.856C98.405 175.092 97.1161 173.674 97.573 175.746C98.9148 173.399 97.6885 174.674 99.54 174.135L99.5448 174.13Z" fill="#FDE3CB"/>
<path fill-rule="evenodd" clip-rule="evenodd" d="M230.859 228.015L230.845 228.001C231.677 227.592 231.196 227.823 230.859 228.015ZM230.931 228.087C230.441 228.27 230.614 228.155 230.859 228.015L230.931 228.087ZM186.633 289.151C188.609 287.973 187.787 288.358 188.773 287.117C189.966 285.612 190.36 286.285 192.038 285.179L195.366 282.505C195.448 282.413 195.559 282.274 195.636 282.178L200.017 277.008C201.729 275.416 201.354 277.388 203.095 275.522L202.71 272.295L205.418 271.448L203.682 270.183C207.967 268.452 202.124 268.053 208.592 268.091C207.048 265.369 207.337 267.197 207.847 263.691L211.656 264.653L209.424 261.781C209.496 261.844 210.203 261.652 210.323 261.594C211.213 261.171 211.117 261.185 211.463 260.916L209.068 259.218C210.525 257.968 211.785 258.992 210.429 256.289C212.358 256.558 212.055 257.131 213.709 256.246C212.613 255.51 211.463 254.861 210.554 253.731C211.502 253.206 212.112 253.899 213.219 253.062L211.559 251.028L215.984 251.778L211.997 248.787L218.528 250.754C217.71 248.498 215.715 248.195 213.243 247.262C213.363 247.166 213.584 246.916 213.651 247.05L215.426 246.723C215.614 246.738 217.446 247.224 218.114 247.325C218.013 247.204 217.85 246.877 217.797 246.978L215.772 245.107C214.878 244.242 215.508 245.069 214.734 243.987C217.619 244.732 218.259 246.045 221.332 245.627C220.611 245.228 219.855 244.603 218.841 244.049L216.499 242.645C215.44 241.717 216.359 242.799 215.484 241.505L221.231 243.088C220.139 241.27 220.808 242.39 219.692 241.279C218.413 240.01 219.023 241.26 218.206 239.538L222.784 240.64L221.164 238.384L225.126 238.822C224.121 237.73 222.505 236.302 221.592 235.133L225.713 235.989L224.395 233.406L228.171 234.618C227.603 232.661 227.238 232.964 226.391 231.209L230.508 232.3C229.767 230.064 229.782 231.362 228.849 229.28C231.956 229.237 230.489 229.65 233.355 230.535L230.922 228.073C231.128 227.996 231.456 227.861 231.946 227.659C232.047 227.616 232.239 227.544 232.35 227.496L233.6 226.794C232.893 226.144 232.336 225.774 231.821 224.572L235.37 224.403C234.307 223.081 234.048 223.302 232.898 222.008C235.183 220.984 234.808 222.258 237.188 223.196C236.005 220.604 234.668 220.84 233.499 218.584C237.323 219.671 237.145 219.031 240.002 221.224C238.4 217.988 236.327 218.777 234.461 215.025C237.044 215.261 237.02 217.718 240.382 217.44C239.309 216.766 235.659 212.957 234.851 211.389C238.054 212.669 239.069 214.386 241.911 215.583C240.487 212.683 238.011 212.322 235.827 208.922C239.15 210 238.79 211.63 242.402 212.212C241.113 208.783 236.5 208.143 234.937 204.719L239.487 206.287C237.727 203.132 236.149 203.266 234.062 201.184C234.062 199.515 233.475 201.17 235.885 200.02L227.257 195.37C230.383 194.691 231.138 196.259 234.149 196.745C232.566 195.264 229.763 193.898 227.069 193.104C228.248 192.614 227.978 192.926 228.849 192.676C229.008 192.628 229.181 192.585 229.344 192.537L229.844 192.373L230.859 191.989C224.646 190.83 224.872 188.925 224.02 188.651C221.183 188.338 215.873 187.574 213.214 187.665C206.591 187.896 210.814 191.33 206.726 188.911C207.471 192.797 206.764 190.56 206.264 191.128C206.202 191.195 206.043 191.291 205.971 191.359L203.335 193.888C203.133 193.975 203.032 193.994 202.989 193.975C202.965 194.004 202.936 194.033 202.907 194.066L199.882 193.576L201.489 197.967C199.69 197.264 199.786 196.812 198.497 195.278C198.569 197.524 199.031 197.428 199.796 199.265L197.728 198.943L198.454 201.66C197.574 201.174 197.256 201.011 196.444 200.496C197.521 205.31 196.617 201.232 195.482 204.743C195.463 204.796 195.434 204.969 195.415 205.017L195.314 205.233C194.111 207.321 195.458 204.926 194.828 205.642C193.491 207.152 193.755 210.201 192.298 211.813L189.682 209.192C190.273 212.63 191.447 212.068 191.5 215.227C189.412 214.169 189.72 211.12 188.831 213.789C188.114 215.939 189.34 217.257 189.773 219.483C188.186 218.954 189.513 219.815 188.22 218.353L187.157 216.906C187.094 216.824 186.979 216.646 186.873 216.531C187.532 219.378 188.297 220.104 187.287 222.331C186.628 223.783 187.874 221.566 186.993 223.191C186.387 224.307 186.892 223.682 185.931 223.802C186.95 226.524 187.046 225.019 187.234 228.184L187.864 231.478C187.878 231.589 187.878 231.766 187.893 231.877C188.109 233.608 192.534 239.538 193.986 241.154C193.904 241.207 193.736 241.125 193.707 241.236C193.313 242.732 192.288 240.13 191.923 242.847C191.894 243.054 192.077 244.17 192.139 244.588L189.494 243.415L191.322 246.651L188.109 244.146C186.897 242.934 186.411 242.732 185.589 241.121C185.32 242.111 185.002 243.727 184.411 244.583C182.992 244.165 182.819 244.771 181.785 243.843C181.367 243.468 179.977 241.342 179.828 241.13C180.159 243.602 181.684 245.964 180.934 247.536C179.866 246.469 179.26 245.386 178.837 243.823C178.827 245.54 179.101 245.449 179.226 247.017L178.366 258.319C175.316 270.688 173.826 267.783 172.907 271.328L174.33 263.234L171.753 270.65C170.911 269.698 170.906 269.529 171.277 267.529C171.551 266.052 171.743 265.715 171.83 263.936L169.771 266.201C169.68 266.288 169.512 266.437 169.377 266.547L170.627 260.589C169.839 261.642 168.747 263.854 167.444 264.273L168.487 260.074L165.751 262.431L167.27 256.602L164.467 257.713C165.034 255.544 165.409 255.539 166.212 253.524C164.539 254.341 164.39 254.918 163.144 256.304C162.442 257.087 162.942 256.664 162.153 257.27L164.082 252.105C163.067 253.057 162.605 253.755 161.427 254.399C160.013 255.173 159.888 254.399 158.864 256.914C158.748 256.789 158.604 256.405 158.546 256.515L156.219 254.481C155.286 253.774 155.858 254.452 155.295 253.716C158.416 249.522 156.666 251.788 158.941 251.889L160.177 251.893C162.312 251.773 162.75 250.936 163.995 248.926C163.548 247.579 163.601 248.397 162.995 247.604L162.471 246.925C160.855 244.598 160.59 241.64 159.513 239.307L159.138 237.922C158.792 236.335 155.213 233.055 154.045 231.545L152.857 229.718C152.79 229.602 152.698 229.448 152.636 229.333C151.472 227.116 152.035 227.847 152.539 225.245C149.409 225.918 152.107 227.15 148.432 228.006C149.399 224.36 150.481 225.625 151.813 222.436C149.322 223.619 151.092 223.038 149.505 224.134C147.668 225.404 149.837 225.082 146.638 225.072C146.917 221.234 149.24 222.206 149.967 217.81C149.856 217.704 149.654 217.42 149.596 217.531L146.879 214.741C146.287 213.525 145.657 211.389 145.306 210.447C142.512 211.197 141.377 212.962 139.102 214.03L141.021 210.548L137.64 212.505C138.544 208.961 139.602 210.221 141.194 207.253L136.991 209.778C138.015 207.268 138.564 207.143 139.554 205.277C136.909 206.191 137.659 207.532 134.875 208.701C135.096 203.887 141.247 205.402 138.439 200.924C136.077 201.646 135.303 203.286 133.331 204.363C133.528 200.525 140.507 200.987 136.827 194.898L133.802 190.017C133.071 189.238 130.518 188.839 132.879 185.943L130.561 186.569C131.643 182.803 129.503 182.707 129.868 181.37C129.912 181.221 130.72 179.961 130.955 179.499L128.844 178.902C129.46 173.718 128.176 175.223 127.449 171.992C126.978 169.909 127.786 170.4 127.166 169.12C126.386 167.509 126.449 169.366 125.021 166.716L131.263 166.23L133.485 162.363C130.484 162.536 129.815 163.118 127.949 161.329C129.44 160.675 129.291 161.108 130.359 160.637C132.667 159.617 131.754 159.521 132.581 158.675L134.822 157.328C137.318 156.251 136.111 157.477 137.183 155.63C132.542 156.881 133.951 156.313 133.043 155.385L137.602 153.889C136.082 152.855 133.567 153.596 134.211 151.643C134.543 150.643 137.155 149.979 138.439 149.445L137.308 148.128L140.588 146.781L138.145 146.06C138.078 146.04 137.89 146.026 137.785 145.968C139.045 144.617 139.473 144.429 139.694 142.987L140.131 141.606C140.247 141 140.271 141.674 140.107 140.404L139.497 133.969C139.578 131.584 139.824 130.184 138.116 128.708L134.062 125.764C131.888 123.528 133.442 125.461 133.677 122.105C130.801 123.485 133.168 123.932 130.301 122.499C129.104 121.898 127.382 120.758 126.632 120.07C125.285 118.844 124.525 117.896 124.612 116.357C124.65 115.703 124.761 115.607 124.847 115.655C124.799 115.559 124.737 115.424 124.65 115.227C124.198 114.655 123.131 114.453 122.741 113.895C119.153 116.478 120.745 122.643 122.688 125.207C127.108 131.031 130.628 128.116 131.33 133.993C131.802 137.937 130.133 138.081 127.791 142.482L127.382 143.265L127.175 143.669C125.074 147.916 126.247 146.132 126.136 147.858C125.915 151.35 122.193 150.96 119.36 152.673C117.153 154.005 117.811 155.01 117.768 155.202L117.508 156.284C116.922 157.352 115.089 157.939 114.118 159.17C114.128 159.324 114.118 159.526 114.089 159.785C113.926 161.214 113.526 161.363 112.314 162.56C116.402 160.353 115.416 162.036 115.777 162.301C114.507 162.94 113.632 163.897 112.411 164.821C112.507 164.826 113.699 164.537 114.632 165.114L112.661 166.874C112.709 166.865 112.911 166.749 112.959 166.874C113.007 167.004 113.252 166.923 113.315 166.937L115.724 167.533L113.392 168.793L115.652 170.068C114.421 171.097 114.844 170.655 114.089 171.698C116.826 174.358 115.383 173.934 116.321 175.579C116.648 176.156 118.167 177.508 118.076 178.801C117.946 180.61 115.253 181.129 119.163 183.669C117.331 185.785 118.365 184.948 118.158 186.751C117.893 189.06 117.561 187.829 116.917 190.392C119.86 189.055 117.061 189.151 120.562 188.382C120 189.666 119.533 190.272 118.913 191.325C120.601 190.387 119.658 190.19 121.471 191.243C120.096 192.623 117.778 196.687 115.431 197.207C112.512 197.851 115.219 197.534 112.69 196.355L114.786 192.71C114.07 192.32 114.839 191.883 111.482 192.917C112.093 191.08 112.406 191.407 112.045 190.233L110.785 188.011C108.775 184.674 110.232 184.991 109.443 181.5C109.03 179.686 107.717 178.042 107.173 176.046C106.899 175.041 106.817 173.579 106.36 172.65C106.216 172.357 105.817 171.852 105.591 171.626C104.62 170.65 104.807 171.049 104.148 170.592L99.5313 174.098L98.1895 177.527L100.642 176.171C101.061 177.094 100.719 177.238 100.185 178.455C103.22 177.012 101.96 177.479 102.484 179.08L102.215 181.884L103.85 182.206C102.571 185.169 102.475 185.27 103.215 187.79L105.322 196.961C105.649 199.587 106.101 198.731 106.894 200.655C107 200.915 108.784 199.371 106.697 203.319L109.102 202.18C108.712 204.594 109.462 202.862 109.366 205.171C109.361 205.262 109.323 205.455 109.318 205.546C109.131 207.855 111.026 212.173 109.612 215.958L111.843 214.386C111.848 217.367 110.843 216.555 110.617 218.608L112.521 217.04L110.987 221.345C112.882 222.331 111.28 220.561 113.19 221.378L111.588 226.741C113.156 224.918 112.738 223.581 114.551 222.206C115.792 224.697 112.795 226.255 112.829 229.578C113.974 227.784 113.555 227.169 115.489 226.361L114.137 231.406C115.541 229.487 115.099 229.381 117.177 228.467L115.878 232.166C115.912 232.209 116.061 232.175 116.085 232.281C116.325 233.286 116.455 232.243 117.403 232.748L115.859 236.364C116.523 236.811 116.773 235.59 117.946 236.335L116.888 239.36C118.076 240 116.614 239.346 117.643 239.332L118.494 239.317C118.533 239.317 118.696 239.283 118.783 239.332L117.451 242.323C117.557 242.371 117.759 242.26 117.792 242.39C117.864 242.66 119.538 242.015 118.898 245.208C119.735 244.3 119.937 243.689 120.788 244.122L119.726 247.719C120.471 247.988 119.884 248.224 121.433 246.714L119.846 254.736L122.438 249.647C123.183 252.557 121.308 254.928 121.385 258.189C121.928 256.573 124.035 253.548 124.328 252.192L123.251 258.449C124.742 257.227 125.271 255.717 126.319 254.346L125.17 259.685L128.493 260.882L127.584 265.658L129.176 264.965L128.483 269.572C128.95 268.077 129.44 267.769 130.426 266.985L129.859 271.059C130.686 271.443 130.474 271.347 131.571 270.707C131.667 270.65 131.835 270.472 131.98 270.371C131.595 277.166 132.951 269.577 133.018 276.839C133.61 276.368 133.346 276.556 133.889 276.065L134.981 275.094C135.024 276.96 135.173 276.887 135.317 277.008L136.712 277.041L136.101 280.692C138.703 278.821 139.261 279.609 139.405 283.433L140.266 282.721C140.973 282.207 140.55 282.452 141.18 282.11L141.449 286.097C143.017 284.679 141.848 285.03 142.921 285.578L143.238 292.066C143.945 290.69 143.647 289.675 144.421 288.43L145.186 291.739C147.211 290.512 145.576 290.656 146.951 290.806L146.653 294.86L148.856 292.604C148.567 297.226 149.635 294.797 150.799 298.808C151.414 300.939 151.457 302.497 153.304 304.079C154.939 305.479 156.974 307.629 159.095 307.917C159.614 307.989 159.426 307.855 160.624 308.1C162.173 308.417 162.899 308.73 164.765 308.725C170.132 308.706 179.433 304.099 180.852 299.087C181.92 295.307 181.439 295.014 184.815 295.297C184.925 292.431 182.54 291.546 186.623 289.108L186.633 289.151Z" fill="#FDE3CB"/>
</g>
</svg>
