<svg width="360" height="360" viewBox="0 0 360 360" fill="none" xmlns="http://www.w3.org/2000/svg">
<rect width="360" height="360" rx="82" fill="#00747F"/>
<path fill-rule="evenodd" clip-rule="evenodd" d="M52.0088 149.002C36.6947 150.931 25 164.013 25 179.443C25 194.997 36.9363 208.262 52.2505 210.07H91.4214V187.114H107.967V210.066L125.121 210.07V149H107.967V171.731H91.4214V149.002H74.2675V194.687H56.0358C47.6749 194.687 40.6864 187.804 40.6864 179.441C40.6864 171.08 47.6749 164.379 56.0358 164.379H71.3006V149H52.0088V149.002ZM165.198 149.002V194.687H144.352V164.381H162.231V149.002H128.375V210.066L181.368 210.07V183.863L191.842 210.07H203.477L213.951 183.863V210.07L230.119 210.066L230.122 149.002H210.73L197.659 184.594L184.591 149.002H165.198ZM307.991 149.002C323.305 150.931 335 164.013 335 179.443C335 194.997 323.062 208.262 307.75 210.07H292.001V194.687H303.966C312.323 194.687 319.314 187.804 319.314 179.441C319.314 171.08 312.323 164.379 303.966 164.379H288.477V210.068L234.761 210.064V149.002H268.616V164.381H250.737V194.689H272.059V149.004L307.991 149.002ZM253.234 187.116H268.259V171.733H253.234V187.116ZM146.852 187.116H161.875V171.733H146.852V187.116Z" fill="white"/>
</svg>
