<svg width="360" height="360" viewBox="0 0 360 360" fill="none" xmlns="http://www.w3.org/2000/svg">
<rect width="360" height="360" rx="82" fill="#FFCE34"/>
<path d="M173.707 61V176.774C200.326 176.796 225.866 166.254 244.72 147.463C263.573 128.671 274.199 103.165 274.265 76.5465V61H173.707Z" fill="black"/>
<path d="M274.261 298.999V183.226C247.65 183.204 222.118 193.748 203.278 212.542C184.438 231.335 173.83 256.841 173.786 283.452V298.999H274.261Z" fill="black"/>
<path d="M139.387 298.998C111.912 293.455 87.2016 278.575 69.4502 256.884C51.6988 235.193 42 208.027 42 179.999C42 151.97 51.6988 124.805 69.4502 103.114C87.2016 81.4236 111.912 66.5436 139.387 61V298.998Z" fill="#F57F29"/>
</svg>
