<svg width="360" height="360" viewBox="0 0 360 360" fill="none" xmlns="http://www.w3.org/2000/svg">
<rect width="360" height="360" rx="82" fill="#F48DA1"/>
<mask id="mask0" mask-type="alpha" maskUnits="userSpaceOnUse" x="0" y="0" width="360" height="360">
<rect width="360" height="360" rx="82" fill="#10376F"/>
</mask>
<g mask="url(#mask0)">
<path d="M229.139 195.775L228.553 195.857L227.932 195.933L227.282 196.021L226.603 196.103L225.906 196.191L225.179 196.279L224.43 196.367L223.668 196.455L222.087 196.636L220.464 196.824L218.806 197.005L217.131 197.187L215.468 197.368L213.822 197.544L212.217 197.708L211.432 197.79L210.665 197.872L209.915 197.948L209.189 198.024L208.486 198.095L207.806 198.165L207.156 198.229L206.535 198.294L205.944 198.352L205.387 198.411C200.151 198.932 194.498 199.208 188.594 199.53C183.352 199.852 177.887 199.577 172.328 199.647C166.787 199.665 161.134 199.665 155.505 199.003C144.042 197.609 141.664 196.004 138.554 195.617C132.193 194.838 127.39 193.672 121.989 192.507C117.596 191.57 113.039 190.562 110.345 190.468C110.046 190.17 109.085 188.272 108.898 187.862C105.993 180.974 106.063 181.823 103.087 171.865C101.623 166.968 99.7018 156.812 98.6943 150.269C97.8977 144.98 96.82 143.451 96.4335 142.192C94.9222 137.137 95.4494 134.114 95.1741 128.602C94.9222 123.108 94.647 109.677 94.9223 104.118C95.3323 95.3556 95.8829 94.231 97.1188 88.8773C98.3781 83.5237 101.096 77.9649 103.41 72.9978C105.425 68.6985 106.45 64.7623 109.402 60.9198C112.793 56.5502 113.637 54.5821 115.329 52.9772C115.47 52.8424 116.724 52.5203 116.934 52.4969C121.093 51.1497 124.871 50.7162 127.021 50.0309C127.548 49.9841 129.698 50.2125 130.225 50.2125C131.162 50.2125 137.137 50.441 146.057 50.646C150.702 50.7631 156.173 51.1966 162.095 51.3079C167.431 51.4484 173.148 51.4952 179.029 51.6065C184.429 51.6768 189.965 51.4484 195.482 51.4952C200.561 51.5596 205.616 51.9756 210.536 51.9932C215.866 52.0166 221.015 51.8116 225.794 51.7647C231.218 51.7237 236.209 51.4952 240.555 51.3547C247.145 51.1263 252.27 51.1497 254.994 50.5991C260.207 49.5682 264.12 49 267.552 49C268.495 49.2519 268.882 49.5916 269.661 49.9372C272.589 51.2844 276.637 54.2834 276.637 54.2834C276.637 56.1812 275.951 68.6985 276.865 77.3909C277.369 82.358 278.265 88.0104 279.015 93.7975C279.729 99.2684 280.093 103.615 280.872 108.921C281.651 114.228 283.548 121.802 284.187 126.084C285.399 133.839 285.722 129.651 286.799 136.129C288.217 144.499 287.414 143.632 288.351 153.268C288.879 158.756 287.965 170.377 287.092 175.942C286.202 181.612 283.824 186.029 281.967 186.808C278.148 188.453 265.748 190.193 268.22 189.807C261.905 190.814 262.403 190.058 258.631 190.814C248.767 192.782 246.641 192.343 239.94 192.964C233.69 193.579 238.476 194.106 231.171 195.09C230.627 195.16 229.871 195.687 229.139 195.775Z" fill="#273896"/>
<path d="M125.821 62.0306L125.927 61.8081L126.026 61.5972L126.231 61.1871L126.436 60.8064L126.636 60.455L126.841 60.127L127.046 59.8282L127.251 59.5471L127.461 59.2952L127.672 59.0609L127.883 58.85L128.106 58.6568L128.328 58.4811L128.551 58.3288L128.785 58.1882L129.025 58.0594L129.266 57.9539L129.517 57.8543L129.781 57.7665L130.045 57.6962L130.326 57.6318L130.607 57.579L130.906 57.5263L131.21 57.4911L131.527 57.456L131.855 57.4208L132.194 57.3975L132.546 57.374L132.915 57.3506L133.29 57.3272L133.682 57.3037L134.092 57.2803L134.514 57.251C137.173 57.046 140.465 57.8016 144.835 58.4635C147.74 58.8969 147.763 58.03 151.582 59.0785C154.447 59.8575 154.974 59.6525 159.39 60.3378C162.84 60.865 173.343 63.1787 177.443 63.6121C181.104 63.9753 184.97 65.8965 188.929 66.1952C192.701 66.4939 196.544 66.8161 200.369 66.9977C204.164 67.1792 208.007 67.2964 211.691 67.3843C215.651 67.4546 219.517 66.6755 223.107 66.6286C227.09 66.5876 230.751 65.879 234.002 65.6271C238.465 65.305 242.103 64.643 244.504 63.9109C249.009 62.5344 252.74 62.7628 255.897 63.3368C260.085 64.0456 262.809 65.7618 264.408 69.3289C265.69 72.1698 264.912 74.9345 265.667 80.0832C266.036 82.5315 264.865 86.6317 264.824 91.6164C264.777 95.0254 264.958 98.8678 265.029 102.945C265.052 106.67 265.597 110.542 265.69 114.495C265.761 118.32 265.737 122.21 265.825 125.982C265.942 130.012 266.124 133.877 266.264 137.515C266.399 141.609 266.493 145.364 266.604 148.568C266.833 155.157 267.817 153.506 267.178 159.574C266.604 165.109 268.414 166.117 263.148 170.258C261.022 171.927 257.754 174.007 253.062 174.446C251.644 174.581 248.025 175.746 242.624 177.052C239.654 177.808 236.128 178.564 232.169 179.477C228.988 180.186 225.327 180.69 221.625 181.422C218.304 182.066 214.825 182.453 211.14 183.027C207.802 183.572 204.188 183.712 200.621 184.146C197.253 184.579 193.732 184.239 190.206 184.556C186.938 184.831 183.64 185.13 180.301 185.288C177.554 185.405 180.348 186.184 178.884 186.664C175.516 187.783 174.602 187.373 168.194 187.256C164.996 187.233 161.815 187.256 157.879 187.028C154.47 186.823 150.669 186.524 147.101 186.137C143.534 185.745 140.102 184.673 136.781 184.011C132.985 183.279 129.184 183.32 126.231 182.131C122.483 180.62 119.437 179.091 118.09 176.689C117.012 174.786 116.713 170.281 116.327 165.408C116.051 162.274 116.256 158.613 116.233 154.63C116.192 151.315 115.594 147.765 115.711 144.034C115.799 140.561 115.753 136.918 115.958 133.216C116.145 129.736 116.28 126.187 116.532 122.643C116.807 119.099 117.791 115.597 118.09 112.07C118.406 108.527 119.074 105.047 119.39 101.638C119.782 98.1122 119.689 94.6857 120.058 91.4114C120.491 87.8208 121.381 84.4528 121.815 81.2956C122.365 77.4063 121.979 73.7923 122.506 70.887C123.443 65.7384 125.136 62.675 125.821 62.0306Z" fill="white"/>
<path d="M306.112 263.206L305.884 263.282L305.62 263.364L305.322 263.452L304.994 263.546L304.636 263.645L304.244 263.745L303.828 263.85L303.383 263.961L302.92 264.073L302.428 264.19L301.913 264.307L301.38 264.418L300.823 264.535L300.249 264.653L299.663 264.764L299.054 264.875L298.439 264.986L297.807 265.092L296.506 265.291L295.177 265.467L293.818 265.619L292.447 265.742L291.07 265.824L289.706 265.865L289.032 265.871L288.358 265.859C284.586 265.771 279.116 266.34 272.321 266.638C267.535 266.82 262.527 265.976 256.576 266.316C251.75 266.591 246.537 266.521 241.113 266.89C235.712 267.236 230.107 267.898 224.296 268.355C219.054 268.741 216.055 268.126 210.59 268.606C205.072 269.063 200.749 267.277 195.144 267.827C190.042 268.308 181.232 268.401 176.154 268.929C170.935 269.473 164.966 271.558 159.864 272.15C154.575 272.771 150.229 272.361 145.197 273.046C139.885 273.755 133.846 275.471 128.908 276.227C123.689 277.023 118.675 277.873 113.989 278.722C108.905 279.636 104.125 280.186 99.8259 281.165C95.8897 282.061 92.4338 283.432 89.2767 284.369C81.8377 286.682 76.0038 288.006 71.476 288.65C61.7761 289.998 57.4474 288.006 54.7706 284.093C52.4159 280.62 51.5901 275.014 50.9516 270.141C50.1491 264.26 50.401 266.984 49.3701 261.56C47.8823 253.576 46.5585 248.492 51.3616 243.461C53.8569 240.807 58.2968 237.761 63.422 235.43C70.8141 231.47 67.8854 232.021 78.3408 227.81C82.4586 226.164 87.5605 224.354 93.5995 222.385C98.2678 220.874 103.692 219.873 109.573 218.268C114.446 216.944 119.706 215.638 125.429 214.332C130.484 213.213 135.767 211.608 141.537 210.513C146.638 209.529 152.015 208.591 157.691 207.678C163.156 206.781 168.902 206.166 174.895 205.364C180.201 204.655 185.766 204.175 191.53 203.554C196.631 203.009 201.874 202.025 207.339 201.568C212.646 201.111 219.991 201.633 225.643 201.246C230.634 200.924 233.879 199.917 239.145 199.665C244.293 199.413 249.553 199.325 254.954 199.143C260.214 198.979 265.614 198.845 271.155 198.751C275.753 198.681 280.422 198.411 285.225 198.388C292.98 198.388 300.53 198.821 304.466 201.34C310.347 205.112 309.685 207.332 309.914 214.747C310.189 223.053 309.41 219.023 310.757 227.259C312.198 236.162 312.386 243.917 312.977 251.649C313.276 255.656 310.623 259.158 306.112 263.206Z" fill="#273896"/>
<path d="M173.621 214.058C170.804 214.058 168.349 216.119 168.349 218.89C168.349 221.66 170.804 223.722 173.621 223.722H173.768H174.06H174.353H174.646L174.793 223.576H175.086L175.378 223.43H175.525L175.818 223.283L175.964 223.137H176.257L176.403 222.99L176.696 222.844L176.843 222.697L176.989 222.551L177.282 222.404L177.428 222.112L177.575 221.965L177.721 221.819L177.868 221.672L178.014 221.379L178.161 221.233L178.307 220.94L178.454 220.794V220.501L178.6 220.354V220.062L178.746 219.769V219.622V219.329V219.036V218.89C178.746 216.119 176.386 214.058 173.621 214.058ZM158.831 222.844C156.037 222.844 153.559 224.906 153.559 227.676C153.559 230.464 156.623 231.191 159.417 231.191H159.563H159.856H160.149L160.295 231.044H160.588H160.881H161.028H161.321L161.467 230.898H161.76H161.906L162.053 230.751H162.346L162.492 230.605L162.638 230.459H162.785L163.078 230.312L163.224 230.166H163.371V230.019L163.517 229.873L163.663 229.726L163.81 229.58L163.956 229.433V229.141L164.103 228.994V228.848V228.555L164.249 228.408V228.116V227.823V227.676C164.249 224.906 161.596 222.844 158.831 222.844ZM171.425 237.048C168.631 237.048 165.403 238.12 166.592 241.734C167.488 244.364 168.631 246.859 171.425 246.859H171.717H172.01H172.303H172.45L172.743 246.713H173.035L173.328 246.567L173.475 246.42H173.768L173.914 246.274L174.207 246.127L174.353 245.981L174.646 245.834L174.793 245.688L174.939 245.541L175.232 245.249L175.378 245.102L175.525 244.956L175.671 244.663L175.818 244.516L175.964 244.224L176.111 244.077L176.257 243.784V243.638L176.403 243.345L176.55 243.052V242.906L176.696 242.613V242.32V242.027V241.881V241.588C176.696 238.817 174.219 237.048 171.425 237.048ZM91.324 238.952C89.112 239.497 87.6631 241.856 87.6631 244.516C87.663 247.586 89.5844 249.788 92.349 249.788H92.6419H92.9348L93.0812 249.642H93.3741H93.667L93.8134 249.495H94.1063L94.3992 249.349H94.5456L94.8385 249.202L94.9849 249.056L95.1313 248.91L95.4242 248.763L95.5706 248.617L95.7171 248.47L96.01 248.324L96.1564 248.177L96.3028 247.884L96.4493 247.738L96.5957 247.592L96.7421 247.299V247.152L96.8886 246.859L97.035 246.713V246.42L97.1814 246.127V245.981L97.3279 245.688V245.395V245.102V244.809L97.4743 244.516C97.4744 241.476 95.143 238.952 92.349 238.952C92.0035 238.952 91.64 238.874 91.324 238.952ZM129.397 238.952C126.609 238.952 124.419 241.289 124.419 244.077C124.419 246.848 124.366 248.084 129.397 249.202H129.69L129.983 249.349H130.13H130.422L130.715 249.202H130.862H131.155L131.301 249.056L131.594 248.91H131.74L132.033 248.763L132.18 248.617L132.326 248.47L132.473 248.324L132.765 248.177L132.912 247.884L133.058 247.738L133.205 247.592L133.351 247.299L133.498 247.152L133.644 246.859V246.713L133.79 246.42L133.937 246.127V245.981L134.083 245.688V245.395L134.23 245.102V244.956V244.663V244.37V244.077C134.23 241.289 132.191 238.952 129.397 238.952ZM142.87 243.784C140.468 243.784 138.623 245.559 138.623 248.324C138.623 251.094 140.468 253.01 142.87 253.01H143.162L143.309 252.863H143.602H143.748H144.041L144.187 252.717H144.48L144.627 252.57H144.773L145.066 252.424L145.213 252.278L145.359 252.131H145.652L145.798 251.985L145.945 251.838L146.091 251.692L146.238 251.545L146.384 251.252L146.53 251.106L146.677 250.96L146.823 250.813L146.97 250.52L147.116 250.374V250.227L147.263 249.935V249.788L147.409 249.495V249.202V249.056L147.556 248.763V248.47V248.324C147.555 245.559 145.248 243.784 142.87 243.784ZM122.368 254.913C119.575 254.914 117.56 256.805 117.536 259.599C117.448 266.371 121.039 264.543 122.368 264.725H122.661H122.954H123.247H123.394H123.686L123.979 264.578H124.126L124.419 264.432H124.565L124.858 264.285L125.004 264.139L125.297 263.992L125.444 263.846L125.737 263.7L125.883 263.553L126.029 263.407L126.176 263.114L126.322 262.967L126.469 262.675L126.615 262.528L126.762 262.235L126.908 262.089L127.054 261.796L127.201 261.649V261.357L127.347 261.064V260.917L127.494 260.624V260.332V260.039L127.64 259.746V259.599C127.64 256.805 125.162 254.913 122.368 254.913ZM105.528 257.989C102.758 257.989 100.842 260.197 100.842 262.967C100.842 265.738 102.758 268.386 105.528 268.386H105.675L105.968 268.239H106.26H106.553L106.7 268.093H106.993L107.286 267.946H107.432L107.725 267.8L107.871 267.653L108.164 267.507L108.311 267.361L108.603 267.214L108.75 267.068L108.896 266.921L109.043 266.628L109.336 266.482L109.482 266.335L109.629 266.043L109.775 265.896L109.921 265.603L110.068 265.457V265.164L110.214 265.018L110.361 264.725V264.432L110.507 264.285V263.992L110.654 263.7V263.553V263.26V262.967C110.654 260.197 108.316 257.989 105.528 257.989Z" fill="white"/>
<path d="M222.222 218.45C218.379 218.45 215.485 221.49 215.485 225.332C215.485 229.198 218.379 232.654 222.222 232.654H222.514H222.954H223.247L223.686 232.508L223.979 232.361H224.272L224.711 232.215L225.004 232.068L225.297 231.922L225.59 231.775L225.882 231.629L226.175 231.336L226.468 231.19L226.761 230.897L227.054 230.75L227.347 230.458L227.64 230.165L227.786 230.018L228.079 229.725L228.225 229.432L228.518 229.14L228.665 228.847L228.811 228.407L228.958 228.115L229.104 227.822L229.25 227.529L229.397 227.089V226.797L229.543 226.504V226.064V225.772V225.332C229.543 221.49 226.111 218.45 222.222 218.45ZM131.431 221.378C129.393 221.378 128.063 223.024 128.063 225.039C128.063 227.025 129.393 228.847 131.431 228.847H131.577H131.87H132.017H132.163L132.31 228.7H132.456L132.749 228.554H132.895L133.042 228.407H133.188L133.335 228.261L133.481 228.115H133.628L133.774 227.968L133.92 227.822L134.067 227.675L134.213 227.529L134.36 227.382V227.236L134.506 227.089L134.653 226.943V226.797L134.799 226.65L134.945 226.504V226.211V226.064L135.092 225.918V225.772V225.625L135.238 225.332V225.186V225.039C135.238 223.024 133.423 221.378 131.431 221.378ZM263.517 221.378C259.651 221.378 257.073 223.956 257.073 227.822C257.073 231.664 259.651 234.558 263.517 234.558H263.956H264.249L264.542 234.411H264.981L265.274 234.265H265.567L266.006 234.118L266.299 233.972L266.592 233.826L266.885 233.679L267.177 233.533L267.47 233.386L267.763 233.24L267.91 233.093L268.203 232.8L268.495 232.654L268.642 232.361L268.935 232.215L269.081 231.922L269.228 231.629L269.52 231.336L269.667 231.043L269.813 230.75L269.96 230.458V230.165L270.106 229.872L270.253 229.579V229.286L270.399 228.847V228.554V228.261V227.822C270.399 223.956 267.382 221.378 263.517 221.378ZM248.873 234.265C245.007 234.265 241.258 236.842 241.258 240.708C241.258 244.58 245.007 248.176 248.873 248.176H249.166L249.605 248.03H249.898H250.337L250.63 247.883L250.923 247.737L251.216 247.591L251.655 247.444L251.948 247.298L252.241 247.151L252.534 247.005L252.827 246.858L252.973 246.566L253.266 246.273L253.559 246.126L253.852 245.833L253.998 245.54L254.291 245.248L254.438 244.955L254.584 244.662L254.877 244.369L255.023 244.076L255.17 243.783L255.316 243.49L255.463 243.051V242.758L255.609 242.465L255.755 242.026V241.733V241.44L255.902 241.001V240.708C255.902 236.842 252.739 234.265 248.873 234.265ZM114.005 240.122C111.996 240.122 110.198 241.622 110.198 243.637C110.198 245.628 112.453 246.126 114.444 246.126H114.591H114.737H114.884H115.177H115.323H115.469H115.616L115.762 245.98H115.909H116.055H116.202L116.348 245.833H116.494H116.641L116.787 245.687H116.934L117.08 245.54H117.227V245.394L117.373 245.248H117.52V245.101L117.666 244.955V244.808H117.812V244.662V244.515L117.959 244.369V244.223V243.93V243.783V243.637C117.959 241.622 116.02 240.122 114.005 240.122ZM230.422 242.465C226.55 242.465 223.979 245.792 223.979 249.641C223.979 253.483 226.679 256.816 230.568 256.816H230.861H231.301L231.593 256.67H232.033L232.326 256.523H232.618L232.911 256.377L233.351 256.23L233.644 256.084L233.936 255.937L234.229 255.645L234.522 255.498L234.815 255.352L235.108 255.059L235.254 254.912L235.547 254.62L235.84 254.327L235.987 254.034L236.279 253.887L236.426 253.594L236.572 253.302L236.719 253.009L237.012 252.569L237.158 252.277V251.984L237.304 251.691L237.451 251.251V250.959L237.597 250.666V250.226V249.934V249.494C237.597 245.652 234.288 242.465 230.422 242.465ZM158.668 248.03C156.653 248.03 154.861 249.389 154.861 251.398C154.861 253.413 156.653 254.912 158.668 254.912H158.815H159.107H159.254H159.4H159.547L159.693 254.766H159.986H160.132L160.279 254.62H160.425L160.572 254.473L160.718 254.327H160.865L161.011 254.18L161.158 254.034L161.304 253.887H161.45L161.597 253.741L161.743 253.594V253.448L161.89 253.302L162.036 253.155V253.009L162.183 252.862V252.716L162.329 252.423V252.277V252.13L162.475 251.984V251.837V251.544V251.398C162.475 249.389 160.677 248.03 158.668 248.03ZM88.0858 260.77C86.0708 260.77 84.7178 262.65 84.7178 264.87C84.7178 267.067 86.0708 268.677 88.0858 268.677H88.3787H88.5251L88.6716 268.531H88.818H88.9644H89.2573L89.4037 268.385H89.5502L89.6966 268.238H89.843L89.9895 268.092H90.1359L90.2824 267.945L90.4288 267.799L90.5752 267.652H90.7217V267.506L90.8681 267.36L91.0145 267.213L91.161 267.067V266.92L91.3074 266.774V266.627L91.4538 266.334V266.188L91.6003 266.042V265.895V265.749L91.7467 265.456V265.309V265.163V264.87C91.7468 262.65 90.0715 260.77 88.0858 260.77Z" fill="#FFF216"/>
<path d="M232.329 75.8394V76.8644V87.8471V88.8722H233.354H237.601V92.6795L237.308 92.5331L237.015 93.4117L232.036 96.3404L196.013 108.202H195.866L156.914 102.344V97.8048H161.6H162.625V96.7797V85.797V84.772H161.6H150.471H149.446V85.797V96.7797V97.8048H150.471H154.864V103.076V103.809L155.45 104.102L187.08 121.82L181.076 125.188H180.93L141.099 138.514L154.864 106.445L152.814 105.566L138.17 139.978L137.292 142.175L139.635 141.443L181.809 127.238H181.955L189.277 123.138L198.063 128.117L182.834 126.946L182.687 129.142L201.138 130.46L201.87 132.51L202.456 133.535L203.628 133.096L230.718 119.331L229.547 117.427L203.774 130.606L203.335 129.289L203.628 128.703L203.042 128.41L202.895 128.264L199.088 117.427L232.183 98.537L235.844 97.3655L230.718 114.059L232.915 114.791L238.187 97.5119L252.245 114.791L231.597 118.745L231.89 120.795L254.588 116.549L256.345 116.256L255.173 114.791L238.919 94.8761L239.065 94.5832H239.212L239.797 94.2903V93.7046V88.8722H244.337H245.362V87.8471V76.8644V75.8394H244.337H233.354H232.329ZM234.379 77.8895H243.312V86.8221H234.379V77.8895ZM151.496 86.8221H160.575V95.7547H151.496V86.8221ZM222.079 101.905L198.356 115.377L197.917 114.059L195.866 114.791L196.452 116.402L189.13 120.502L161.454 104.98L196.013 110.398H196.306H196.599L222.079 101.905ZM197.184 118.599L199.82 126.653L191.473 121.82L197.184 118.599ZM252.83 122.406V126.213H248.877H247.851V127.238V138.221V139.246H248.877H259.859H260.884V138.221V127.238V126.213H259.859H255.027V122.553L252.83 122.406ZM249.902 128.264H258.834V137.196H249.902V128.264ZM179.466 132.51V134.707H175.219H174.194V135.732V146.714V147.74H175.219H186.202H187.227V146.714V135.732V134.707H186.202H181.662V132.51H179.466ZM203.335 135.439V137.635H199.527H198.502V138.66V149.643V150.668H199.527H210.51H211.535V149.643V138.66V137.635H210.51H205.531V135.439H203.335ZM176.244 136.757H185.177V145.689H176.244V136.757ZM200.552 139.686H209.485V148.618H200.552V139.686ZM136.706 145.104L135.388 147.593L131.727 145.689L130.849 145.25L130.263 146.275L125.284 155.94L124.845 156.819L125.87 157.404L135.681 162.383L136.56 162.822L137.145 161.797L142.124 152.133L142.564 151.254L141.538 150.668L137.292 148.472L138.61 146.275L136.706 145.104ZM131.727 148.179L139.635 152.133L135.681 159.894L127.773 155.94L131.727 148.179Z" fill="#273896"/>
<path d="M238.178 91.9336C235.343 91.9336 233.052 94.218 233.052 97.0589C233.052 99.8704 235.343 102.184 238.178 102.184H238.47H238.763H239.056L239.203 102.038H239.495L239.788 101.891H239.935L240.228 101.745H240.521L240.667 101.598L240.96 101.452L241.106 101.306L241.253 101.159L241.546 101.013L241.692 100.866L241.838 100.72L241.985 100.573L242.131 100.28L242.278 100.134L242.424 99.9876L242.571 99.6947L242.717 99.5483L242.864 99.2554L243.01 99.109V98.8161L243.156 98.6697V98.3768L243.303 98.0839V97.791V97.6446V97.3517V97.0589C243.303 94.218 241.018 91.9336 238.178 91.9336ZM196.736 105.552C193.895 105.552 191.611 107.842 191.611 110.677C191.611 113.489 193.895 115.803 196.736 115.803H197.029H197.322H197.468L197.761 115.656H198.054L198.201 115.51H198.493L198.786 115.363H198.933L199.226 115.217L199.372 115.071L199.665 114.924L199.811 114.778L199.958 114.631L200.251 114.485L200.397 114.338L200.543 114.045L200.69 113.899L200.836 113.753L200.983 113.606L201.129 113.313L201.276 113.167L201.422 112.874V112.728L201.569 112.435V112.142L201.715 111.995V111.702L201.861 111.41V111.263V110.97V110.677C201.861 107.843 199.571 105.552 196.736 105.552ZM180.921 122.392C177.928 122.392 175.503 124.811 175.503 127.81C175.503 130.786 177.928 133.229 180.921 133.229H181.214L181.507 133.082H181.653H181.946L182.239 132.936H182.532L182.825 132.789H182.971L183.264 132.643L183.41 132.496L183.703 132.35L183.85 132.204L184.143 132.057L184.289 131.911L184.582 131.764L184.728 131.618L184.875 131.325L185.021 131.179L185.168 131.032L185.314 130.739L185.461 130.593L185.607 130.3L185.753 130.153L185.9 129.861V129.568L186.046 129.421L186.193 129.128V128.836V128.543L186.339 128.25V128.103V127.81C186.339 124.811 183.897 122.392 180.921 122.392Z" fill="#EF3D56"/>
<path d="M231.592 113.47C228.751 113.47 226.467 115.778 226.467 118.595C226.467 121.453 228.751 123.72 231.592 123.72H231.885H232.178H232.324H232.617L232.91 123.574H233.203L233.349 123.427L233.642 123.281H233.789L234.082 123.135L234.228 122.988L234.521 122.842L234.667 122.695L234.814 122.549L235.107 122.402L235.253 122.256L235.4 122.109L235.546 121.817L235.692 121.67L235.839 121.524L235.985 121.231L236.132 121.084L236.278 120.792V120.645L236.425 120.352L236.571 120.206V119.913L236.717 119.62V119.327V119.181V118.888V118.595C236.718 115.778 234.427 113.47 231.592 113.47ZM139.777 136.753C136.959 136.753 134.651 139.043 134.651 141.878C134.651 144.696 136.959 147.004 139.777 147.004H140.07L140.362 146.857H140.655H140.948H141.095L141.387 146.711H141.68L141.827 146.564L142.12 146.418L142.266 146.271H142.559L142.705 146.125L142.852 145.979L143.145 145.832L143.291 145.686L143.438 145.393L143.584 145.246L143.877 145.1L144.023 144.954L144.17 144.661V144.514L144.316 144.221L144.463 144.075L144.609 143.782V143.636L144.755 143.343V143.05L144.902 142.903V142.611V142.318V142.025L145.048 141.878C145.048 139.043 142.635 136.753 139.777 136.753Z" fill="#F286A8"/>
<path d="M155.737 99.5444C152.919 99.5444 150.611 101.835 150.611 104.67C150.611 107.511 152.919 109.795 155.737 109.795H156.029H156.176H156.469H156.762L157.055 109.649H157.201L157.494 109.502H157.64L157.933 109.356L158.226 109.209L158.372 109.063L158.519 108.916L158.812 108.77L158.958 108.623L159.105 108.477L159.398 108.331L159.544 108.184L159.69 108.038L159.837 107.745L159.983 107.598L160.13 107.452L160.276 107.159L160.423 107.013V106.72L160.569 106.427V106.28L160.715 105.988V105.695L160.862 105.548V105.255V104.963V104.67C160.862 101.835 158.572 99.5444 155.737 99.5444ZM253.41 113.017C250.569 113.017 248.284 115.33 248.284 118.142C248.284 121.006 250.569 123.267 253.41 123.267H253.556H253.849H254.142L254.435 123.121H254.581L254.874 122.974H255.167L255.313 122.828H255.606L255.753 122.681L256.046 122.535L256.192 122.388L256.485 122.242L256.631 122.096L256.778 121.949L256.924 121.803L257.217 121.656L257.364 121.363L257.51 121.217L257.656 121.071L257.803 120.778V120.631L257.949 120.338L258.096 120.192L258.242 119.899V119.606L258.389 119.46V119.167V118.874L258.535 118.728V118.435V118.142C258.535 115.33 256.245 113.017 253.41 113.017ZM204.793 125.903C201.952 125.903 199.668 128.064 199.668 130.882C199.667 133.74 201.952 136.153 204.793 136.153H204.939L205.232 136.007H205.525H205.818L205.964 135.861H206.257L206.55 135.714H206.696L206.989 135.568L207.136 135.421H207.429L207.575 135.275L207.868 135.128L208.014 134.982L208.161 134.689L208.307 134.543L208.6 134.396L208.747 134.25L208.893 134.103L209.039 133.811L209.186 133.664V133.371L209.332 133.225L209.479 132.932L209.625 132.785V132.493L209.772 132.2V132.053V131.76V131.468L209.918 131.175V130.882C209.918 128.064 207.628 125.903 204.793 125.903Z" fill="#FFF216"/>
</g>
</svg>
