<svg width="360" height="360" viewBox="0 0 360 360" fill="none" xmlns="http://www.w3.org/2000/svg">
<rect width="360" height="360" rx="82" fill="#41CDF9"/>
<path d="M180.25 25L46 102.5V257.5L180.25 335L314.5 257.5V102.5L180.25 25ZM304.417 251.667L180.25 323.333L56.0833 251.667V108.333L180.25 36.6667L304.417 108.333V251.667Z" fill="black"/>
<path d="M139.167 87.1668L144.251 95.9168L175.167 78.0834V151.583H185.334V78.0834L220.334 98.2501L225.334 89.5001L180.251 63.4167L139.167 87.1668ZM154.501 197.167L149.084 188.583L89.4173 226.167V192.917H79.334V238.25L118.001 260.583L123.084 251.833L94.1673 235.167L154.501 197.167Z" fill="black"/>
<path d="M180.251 174.083L94.5007 124.667L123.084 108.167L118.001 99.4165L79.334 121.75V168.417H89.4173V133.417L175.167 182.833V282L145.834 265.333L140.834 274.083L180.251 296.583L281.167 238.25V198.75H271.084V228.083L208.334 188.583L203.001 197.167L264.751 236.083L185.334 281.916V182.833L271.084 133.417V168.417H281.167V121.75L247.834 102.5L242.751 111.25L266.001 124.667L180.251 174.083Z" fill="black"/>
</svg>
