<svg width="360" height="360" viewBox="0 0 360 360" fill="none" xmlns="http://www.w3.org/2000/svg">
<rect width="360" height="360" rx="82" fill="#1B619A"/>
<path d="M108.109 154.13C101.958 154.13 96.7613 156.185 92.7462 160.075V135H83.5713V208.562H92.7462V178.095C92.7462 169.304 98.9259 162.924 107.438 162.924C115.737 162.924 120.694 168.308 120.694 177.331V208.562H129.867V176.468C129.867 163.108 121.123 154.13 108.109 154.13Z" fill="white"/>
<path d="M143.224 191.682C143.224 185.955 148.394 182.539 157.055 182.539C162.945 182.539 167.665 183.397 171.361 184.27V188.043C171.361 195.33 164.388 200.823 155.141 200.823C149.217 200.823 143.224 197.75 143.224 191.871V191.682ZM157.723 154.514C150.016 154.514 144.166 156.748 139.459 158.931L137.504 159.841L140.992 168.18L143.149 167.081C148.059 164.57 152.601 163.401 157.439 163.401C163.584 163.401 170.863 165.513 171.236 175.321C167.569 174.49 163.235 173.838 157.34 173.838C143.016 173.838 133.764 180.958 133.764 191.967V192.159C133.764 203.56 144.629 209.71 154.853 209.71C162.46 209.71 167.748 206.89 171.268 203.879V208.562H180.347V175.894C180.347 162.504 171.888 154.514 157.723 154.514Z" fill="white"/>
<path d="M194.83 163.575V155.278H185.655V208.563H194.83V186.321C194.83 171.016 204.322 164.166 213.731 164.166H216.45V154.528H214.296C206.897 154.528 199.793 157.643 194.83 163.575Z" fill="white"/>
<path d="M242.301 200.535C237.104 200.535 234.787 198.31 234.787 193.309V164.168H251.907V154.528H234.787V139.684H225.612V154.528H219.422V164.168H225.612V193.786C225.612 203.432 231.709 209.426 241.534 209.426C244.787 209.426 247.527 208.829 250.413 207.498L251.721 206.894V197.591L248.558 199.01C246.076 200.123 244.38 200.535 242.301 200.535Z" fill="white"/>
<path d="M276.528 162.923C285.924 162.923 290.33 170.013 291.515 177.383H261.16C262.758 168.89 268.892 162.923 276.528 162.923ZM276.717 154.129C262.478 154.129 251.322 166.294 251.322 181.824V182.016C251.322 197.802 262.569 209.711 277.481 209.711C288.682 209.711 295.035 204.418 299.316 199.809L300.879 198.121L294.266 192.29L292.78 193.883C288.358 198.617 283.56 200.821 277.676 200.821C270.657 200.821 262.824 196.186 261.078 186.079H301.138L301.236 184.106L301.348 182.112V181.923C301.348 165.559 291.222 154.129 276.717 154.129Z" fill="white"/>
<path d="M334.848 154.513C327.401 154.218 320.338 157.644 315.38 163.576V155.277H306.205V208.562H315.38V186.319C315.38 171.018 324.874 164.167 334.278 164.167H337V154.598L334.848 154.513Z" fill="white"/>
<path d="M72.3456 194.686C67.4812 198.73 62.6887 200.53 56.7993 200.53C43.6705 200.53 33.3853 188.363 33.3853 172.824C33.3853 157.137 43.4522 145.313 56.7993 145.313C62.4384 145.313 67.0472 146.979 71.7465 150.717L73.3121 151.966L80.0855 145.193L78.2137 143.619C74.3744 140.384 67.9871 136.082 56.8898 136.082C38.1378 136.082 24 151.964 24 173.021C24 193.967 38.0207 209.761 56.6182 209.761C67.9471 209.761 74.5608 204.95 78.5492 201.329L80.2931 199.747L73.9191 193.379L72.3456 194.686Z" fill="white"/>
</svg>
