<svg width="360" height="360" viewBox="0 0 360 360" fill="none" xmlns="http://www.w3.org/2000/svg">
<rect width="360" height="360" rx="82" fill="url(#paint0_angular)"/>
<path d="M127.332 143.081C133.923 143.081 176.955 161.985 176.955 230.139C176.955 262.724 166.011 289.836 159.543 289.836C156.683 289.836 155.564 286.976 155.564 281.504C155.564 269.44 159.792 258.744 159.792 233C159.792 183.377 139.396 163.229 130.192 152.036C127.456 148.678 125.466 146.563 125.466 144.573C125.466 143.827 125.964 143.081 127.332 143.081ZM235.657 144.698C235.657 146.688 233.667 148.802 230.931 152.16C221.728 163.478 201.331 183.501 201.331 233.124C201.331 258.869 205.56 269.564 205.56 281.628C205.56 287.1 204.441 289.961 201.58 289.961C195.113 289.961 184.168 262.848 184.168 230.264C184.168 162.11 227.2 143.205 233.792 143.205C235.035 143.081 235.657 143.827 235.657 144.698Z" fill="#007CC6"/>
<path d="M164.892 156.761C164.892 165.592 171.981 172.805 180.562 172.805C189.268 172.805 196.233 165.592 196.233 156.761C196.233 147.807 189.144 140.718 180.562 140.718C171.856 140.594 164.892 147.807 164.892 156.761Z" fill="#EF8200"/>
<path d="M98.9761 131.267C90.7678 127.536 84.6737 120.073 83.6787 112.86C89.7728 108.88 99.3492 108.507 107.558 112.238C116.139 116.094 118.129 122.685 118.253 128.531C113.9 132.386 107.558 135.122 98.9761 131.267ZM122.482 87.9862C117.258 79.9023 116.015 69.5796 119.248 62.4906C127.084 62.3662 135.914 67.7141 141.262 75.7981C146.734 84.2552 144.744 91.3442 141.51 96.6921C135.292 97.4383 128.078 96.4433 122.482 87.9862ZM134.794 130.894C128.327 125.421 124.596 116.964 125.591 110.124C132.183 108.01 141.013 110.248 147.48 115.845C154.32 121.69 154.445 128.157 152.952 133.381C147.978 135.744 141.635 136.615 134.794 130.894ZM154.693 110.124C151.833 101.045 153.45 91.0954 158.424 85.2501C165.887 87.24 172.727 94.7022 175.587 103.657C178.572 113.109 174.717 119.327 170.24 123.307C164.145 122.561 157.554 119.576 154.693 110.124ZM120.368 176.288C113.9 177.532 107.06 175.666 103.329 171.811C105.319 166.836 110.916 162.483 117.383 161.24C124.223 159.871 128.203 162.981 130.69 166.463C129.695 170.567 127.208 174.92 120.368 176.288ZM103.205 157.011C95.8669 156.265 89.151 151.912 86.4149 146.564C90.1459 141.838 97.6081 139.102 105.07 139.972C112.781 140.843 116.139 145.445 117.631 149.922C115.144 154.026 111.04 157.882 103.205 157.011ZM102.583 102.164C96.7375 97.1895 93.5039 89.8518 94.3745 83.7577C100.22 81.8922 108.055 83.8821 113.9 88.8568C119.994 93.956 120.119 99.8013 118.751 104.527C114.398 106.517 108.677 107.388 102.583 102.164ZM142.132 63.2368C139.769 55.6503 141.137 47.3176 145.241 42.4672C151.46 44.084 157.181 50.3024 159.544 57.8889C162.031 65.8486 158.798 70.9477 155.067 74.3056C149.967 73.5594 144.495 71.0721 142.132 63.2368ZM45 258.994C45 259.242 45.1244 259.367 45.3731 259.367C45.6218 259.367 45.995 259.118 46.4924 258.994C69.6251 250.661 103.951 240.463 151.957 237.353C151.957 236.98 152.33 234.742 152.33 233.125C152.33 229.643 151.957 226.036 151.833 225.414C102.583 229.891 68.6301 244.194 46.2437 257.874C45.4975 258.496 45 258.62 45 258.994ZM242.871 128.531C242.871 122.81 244.985 116.218 253.567 112.238C261.775 108.507 271.352 108.88 277.446 112.86C276.451 120.073 270.357 127.536 262.148 131.267C253.442 135.122 247.224 132.386 242.871 128.531ZM219.614 96.5677C216.256 91.3442 214.266 84.2552 219.863 75.6737C225.086 67.5897 234.041 62.2418 241.876 62.3662C245.11 69.4552 243.866 79.7779 238.642 87.8619C233.046 96.4433 225.708 97.4383 219.614 96.5677ZM208.048 133.381C206.555 128.157 206.68 121.566 213.52 115.845C219.987 110.373 228.817 108.134 235.409 110.124C236.404 116.964 232.673 125.297 226.206 130.894C219.49 136.615 213.022 135.744 208.048 133.381ZM190.885 123.431C186.408 119.327 182.552 113.233 185.537 103.781C188.397 94.7022 195.238 87.3644 202.7 85.3745C207.675 91.2198 209.291 101.169 206.431 110.248C203.446 119.576 196.855 122.561 190.885 123.431ZM230.31 166.463C232.797 162.981 236.777 159.996 243.617 161.24C250.084 162.483 255.805 166.836 257.671 171.811C254.064 175.666 247.224 177.532 240.632 176.288C233.916 174.92 231.305 170.567 230.31 166.463ZM243.493 149.922C244.985 145.445 248.343 140.719 256.054 139.972C263.392 139.226 270.978 141.838 274.709 146.564C272.098 151.912 265.382 156.265 257.92 157.011C250.084 157.882 245.856 154.026 243.493 149.922ZM242.249 104.403C241.005 99.6769 241.005 93.956 247.1 88.7325C252.945 83.8821 260.78 81.8922 266.625 83.6333C267.496 89.7274 264.262 97.1895 258.417 102.04C252.447 107.388 246.726 106.517 242.249 104.403ZM206.058 74.3056C202.327 70.9477 199.093 65.7242 201.581 57.8889C203.944 50.3024 209.665 44.2083 215.883 42.4672C219.987 47.3176 221.355 55.6503 218.992 63.2368C216.505 71.0721 211.033 73.5594 206.058 74.3056ZM314.756 257.874C292.37 244.194 258.417 229.891 209.167 225.414C209.043 226.036 208.67 229.643 208.67 233.125C208.67 234.742 208.918 236.856 209.043 237.353C257.049 240.463 291.375 250.661 314.508 258.994C315.005 259.118 315.378 259.367 315.627 259.367C315.876 259.367 316 259.242 316 258.994C316 258.62 315.627 258.496 314.756 257.874ZM180.562 82.1409C174.219 79.156 167.877 73.6838 167.877 62.2419C167.877 51.2974 173.1 40.726 180.562 36C188.024 40.726 193.248 51.2974 193.248 62.2419C193.248 73.6838 186.905 79.2804 180.562 82.1409Z" fill="#31AC28"/>
<defs>
<radialGradient id="paint0_angular" cx="0" cy="0" r="1" gradientUnits="userSpaceOnUse" gradientTransform="translate(180 180) rotate(90) scale(180)">
<stop offset="0.164701" stop-color="#31AC28" stop-opacity="0.15"/>
<stop offset="0.499736" stop-color="#31AC28" stop-opacity="0.15"/>
<stop offset="0.833256" stop-color="#31AC28" stop-opacity="0.15"/>
<stop offset="1" stop-color="#007CC6" stop-opacity="0.15"/>
</radialGradient>
</defs>
</svg>
