<svg width="360" height="360" viewBox="0 0 360 360" fill="none" xmlns="http://www.w3.org/2000/svg">
<rect width="360" height="360" rx="82" fill="#DA1415"/>
<path fill-rule="evenodd" clip-rule="evenodd" d="M103.778 110C100.518 110.003 97.3914 111.299 95.0858 113.605C92.7801 115.911 91.4835 119.037 91.4807 122.298C91.4828 125.558 92.7793 128.685 95.0851 130.99C97.391 133.296 100.518 134.591 103.778 134.593C107.039 134.591 110.166 133.294 112.472 130.989C114.778 128.683 116.074 125.556 116.076 122.295C116.072 119.035 114.775 115.91 112.469 113.605C110.164 111.3 107.038 110.004 103.778 110ZM161.556 139.056C142.027 139.056 127.167 156.154 126.854 175.273C126.76 181.275 128.042 186.91 130.309 191.61C117.41 195.373 114.912 189.19 114.475 177.547C113.944 163.522 113.885 143.689 113.885 143.689H93.2514V184.452C93.2514 192.904 95.305 206.018 109.926 208.625C119.035 210.25 127.929 208.455 139.825 203.065C145.52 207.14 153.107 209.802 161.47 209.802C173.026 209.802 182.438 204.714 189.431 200.033V187.147C180.74 192.742 168.005 196.788 160.122 191.023C168.178 185.425 175.872 178.704 180.926 170.64C188.984 157.787 183.729 139.056 161.553 139.056H161.556ZM66.8879 140.994C46.5425 140.994 30 153.418 30 175.777C30 198.513 46.0197 210.139 65.1199 210.139C70.6529 210.139 79.3015 209.032 84.3225 206.52V189.002C79.9753 190.686 74.8735 191.36 70.847 191.36C62.5973 191.36 52.9084 186.49 52.9084 176.2C52.9084 164.438 62.0636 160.029 71.1839 160.029C75.5823 160.029 80.5736 161.366 84.3225 162.471V143.856C79.1371 142.304 71.8172 140.994 66.8906 140.994H66.8879ZM298.333 141.163C288.695 141.188 279.782 143.64 271.212 146.467V163.058C278.623 160.304 287.582 159.016 294.541 159.016C303.453 159.016 307.679 162.889 307.679 169.715V170.807C303.898 169.459 297.95 168.282 291.845 168.282C276.34 168.282 265.989 175.327 265.989 189.002V189.252C265.989 202.439 275.556 209.635 288.142 209.635C296.807 209.635 303.073 206.39 307.596 201.38V208.204H330V170.217C330 160.932 328.434 154.124 323.429 149.243C318.187 143.991 310.169 141.134 298.33 141.158L298.333 141.163ZM238.617 141.244C229.448 141.244 223.476 146.427 219.247 151.858L218.32 153.038V143.015H196.169V208.204H218.32V172.494C218.32 165.042 222.654 160.87 228.597 160.87C234.437 160.87 238.364 165.074 238.364 172.494V208.204H260.598V165.083C260.598 150.297 252.335 141.247 238.617 141.247V141.244ZM162.817 157.501C168.461 157.609 172.253 163.115 165.599 171.567C162.532 175.451 157.999 179.199 152.627 182.684C145.135 168.934 154.428 159.229 160.376 157.838C160.801 157.738 161.225 157.631 161.64 157.585C162.028 157.544 162.443 157.493 162.817 157.501ZM298.92 179.482C302.348 179.482 305.391 180.48 307.932 181.59C307.941 190.047 303.192 195.146 296.478 195.146C291.721 195.146 288.309 192.422 288.309 187.905V187.654C288.309 182.776 292.212 179.482 298.92 179.482Z" fill="white"/>
</svg>
