<svg width="360" height="360" viewBox="0 0 360 360" fill="none" xmlns="http://www.w3.org/2000/svg">
<rect width="360" height="360" rx="82" fill="black"/>
<path d="M297.381 238.53C294.886 239.124 292.152 239.719 289.776 239.243C275.158 236.272 260.541 233.064 246.162 229.498C244.379 229.023 242.953 225.339 242.478 222.843C242.24 222.012 245.092 220.348 246.637 219.278C247.35 218.684 248.658 218.684 249.371 218.09C257.214 210.722 265.77 204.067 270.524 193.966C271.712 191.47 272.9 188.975 274.683 186.954C280.506 180.062 280.625 179.943 274.564 172.575C276.347 172.1 277.773 171.505 279.318 171.149C287.042 169.485 287.993 168.297 287.161 160.216C286.923 157.839 286.923 155.225 285.735 153.323C284.665 151.541 281.932 149.164 280.387 149.52C271.237 151.422 265.533 142.747 257.214 142.628C256.738 142.628 256.263 141.439 255.788 140.845C251.034 134.666 244.736 134.428 239.269 139.657C235.942 142.865 232.139 145.836 227.98 147.738C219.542 151.659 210.867 154.868 202.192 158.077C200.766 158.552 197.676 157.601 196.963 156.294C193.873 150.709 191.377 144.767 188.644 139.063C197.201 134.19 200.053 135.022 205.519 143.103C205.282 140.489 205.163 137.874 204.925 135.497C208.134 134.19 211.342 132.883 214.551 131.576C214.313 130.982 214.194 130.387 213.957 129.912C211.699 129.199 209.56 128.486 206.232 127.535C209.916 126.228 212.174 125.396 216.096 123.97C213.481 121.95 211.936 119.811 210.035 119.454C201.241 117.909 192.447 116.959 183.653 115.651C182.465 115.533 181.395 114.344 180.444 113.512C179.137 112.324 178.186 110.779 176.879 109.591C170.343 103.649 158.697 102.46 152.042 107.095C145.981 111.254 144.793 118.147 148.477 128.129C149.784 131.813 151.091 135.379 152.399 139.063C152.517 134.309 151.567 129.912 150.378 125.396C147.051 114.225 154.062 106.263 164.877 109.591C151.091 116.246 150.141 122.425 160.48 143.46C159.053 136.923 157.746 131.457 156.796 125.872C155.964 120.761 158.222 116.959 163.213 115.057C167.966 113.275 172.363 113.75 176.047 117.909C171.413 124.564 171.769 130.863 174.384 138.231C176.047 142.984 175.572 149.52 173.671 154.155C170.937 160.81 167.729 161.285 162.619 158.433C156.32 154.749 149.665 151.541 143.129 148.451C122.095 138.35 101.536 138.112 82.0463 152.135C75.7479 156.769 69.4495 155.7 63.5076 152.491C57.328 149.164 56.1396 142.984 56.8526 136.567C57.9222 127.773 63.3887 122.306 71.4697 119.573C80.5014 116.602 89.4143 118.385 98.2083 121.356C104.388 123.495 110.567 125.753 116.866 127.06C124.472 128.724 132.196 124.089 135.048 116.959C139.326 106.501 132.553 87.368 121.976 84.8724C116.391 83.684 110.924 81.7826 104.744 80C104.863 82.0202 104.744 83.3275 104.982 84.5159C105.339 85.9419 105.933 87.2491 106.527 88.6752C106.765 88.1998 107.002 87.6056 107.24 87.1303C112.112 89.3882 116.985 91.5273 121.857 93.7852C121.619 94.6171 121.382 95.5678 121.144 96.3997C116.391 96.3997 111.637 96.3997 107.002 96.3997C107.002 97.2315 106.884 98.0634 106.884 98.7764C111.162 99.3706 115.44 100.202 119.718 100.678C123.283 101.034 127.68 100.678 128.393 105.075C128.869 108.64 128.274 112.799 126.611 116.008C124.59 119.93 120.431 120.405 116.153 118.86C112.825 117.553 109.498 116.127 106.052 115.295C95.8316 113.037 85.7303 109.828 75.3914 109.472C61.8438 108.759 48.4151 120.999 46.3949 133.715C44.4934 145.718 49.247 160.572 65.2901 165.207C65.7655 165.326 66.122 165.92 66.9539 166.633C60.1801 179.943 60.0612 193.372 66.9539 206.919C67.7857 208.702 68.1422 211.554 67.1915 213.218C61.9627 222.843 59.1105 233.777 50.673 241.501C48.2963 243.64 46.8702 245.779 48.8905 249.226C52.2179 255.049 55.3077 260.991 58.1598 267.051C61.9627 275.132 65.6466 277.034 74.5595 274.419C78.8377 273.231 82.8782 271.092 87.394 270.379C90.6027 269.903 93.5736 263.486 91.5534 262.417C87.5129 260.396 84.1854 255.643 78.2435 258.851C74.5595 260.872 70.4002 260.634 67.5481 256.95C65.1713 253.86 65.2901 245.423 67.7857 242.927C78.7188 231.638 89.7708 220.348 101.06 208.702C108.428 214.525 110.567 221.299 108.666 229.736C106.408 239.719 107.953 241.382 118.292 242.095C122.808 242.452 127.68 242.808 131.364 244.947C138.138 248.75 144.318 253.979 150.972 258.733C153.349 257.782 156.914 257.188 159.767 255.286C162.024 253.741 164.877 250.889 164.877 248.513C164.877 246.136 162.262 242.452 160.004 241.501C155.488 239.6 150.378 239.481 145.625 238.174C139.564 236.51 133.622 234.608 127.68 232.351C124.115 230.924 122.808 227.835 123.996 224.032C126.254 217.02 128.75 210.128 131.364 202.76C132.315 203.711 133.266 204.424 133.741 205.374C143.605 222.725 158.697 232.945 177.949 237.698C179.375 238.055 180.088 240.788 181.276 242.333C182.702 244.116 184.01 246.492 185.792 247.205C191.496 249.344 197.795 249.939 203.142 252.672C215.858 259.208 229.049 263.248 243.429 263.248C245.092 263.248 247.231 263.486 248.301 264.556C255.788 271.805 265.295 274.419 274.802 277.39C276.466 277.866 277.892 278.697 279.555 279.292C282.645 274.063 287.636 276.796 291.439 275.845C293.816 274.776 296.074 273.706 299.639 272.161C298.094 268.121 296.193 263.605 294.291 258.733C295.123 258.614 295.836 258.614 296.668 258.614C300.946 258.733 305.819 261.109 308.79 255.643C309.621 254.098 311.048 251.721 312.117 251.721C316.514 251.721 314.732 248.988 314.137 247.324C310.81 237.817 307.601 236.272 297.381 238.53ZM257.57 253.385C266.008 249.463 271.237 250.414 273.732 256.831C268.385 255.643 263.037 254.454 257.57 253.385Z" fill="white"/>
</svg>
