<svg width="360" height="360" viewBox="0 0 360 360" fill="none" xmlns="http://www.w3.org/2000/svg">
<rect width="360" height="360" rx="82" fill="#004D71"/>
<mask id="mask0" mask-type="alpha" maskUnits="userSpaceOnUse" x="25" y="25" width="310" height="310">
<rect x="25" y="25" width="310" height="310" rx="155" fill="#C4C4C4"/>
</mask>
<g mask="url(#mask0)">
<path d="M121.615 299.032L136.081 301.926V52.7861L131.902 56.9653L129.973 55.6794L120.329 64.6805L127.08 68.2167L127.723 134.118L125.794 145.048V145.691C105.22 160.8 81.1097 176.552 54.4277 192.304C-44.5852 251.455 -167.387 307.069 -203.713 322.821C-188.604 314.463 -57.444 246.633 15.8513 189.09C93.3256 127.367 120.329 64.0376 120.329 64.0376C120.329 64.0376 86.5747 122.545 -0.543747 191.018C-82.8401 256.277 -192.14 316.713 -203.713 322.821C-210.464 325.714 -214 327 -214 327C-214 327 -209.178 325.071 -200.82 321.535C-189.89 317.999 -72.5531 282.316 123.222 270.1L121.615 299.032ZM-192.783 318.321C-141.991 297.104 -8.90196 239.239 74.3588 190.697C93.6471 179.767 110.685 168.194 125.794 156.3L122.901 252.419C-45.2281 264.635 -160.314 305.14 -192.783 318.321Z" fill="white"/>
<path d="M150.545 302.569L169.191 300.962V47H149.902L150.545 302.569Z" fill="white"/>
<path d="M264.67 145.37L259.848 134.44V111.937C306.461 139.262 370.433 171.087 450.801 196.483C528.275 221.237 621.823 245.347 702.834 265.278C834.636 299.032 959.688 325.072 959.688 325.072C959.688 325.072 716.657 266.564 535.348 203.556C353.396 141.191 265.634 62.1089 265.634 62.1089C265.634 62.1089 318.355 122.545 425.726 174.623C356.932 149.87 302.282 124.474 260.812 103.257L261.455 66.9309L265.634 61.4659L254.704 59.5371L249.239 63.0732V96.8276C243.774 93.9344 238.309 90.7197 232.844 87.8265V83.0044L220.628 81.0756C209.698 74.9677 200.697 69.5027 193.303 64.6806L232.523 70.7886V61.1445L183.659 54.3936V59.2156C174.658 52.4647 169.836 48.2856 169.836 48.2856C169.836 48.2856 174.658 53.1077 184.945 60.5015V63.3947L189.124 64.0377C194.589 68.8597 202.304 73.6818 210.341 79.7897L184.945 75.6106V119.652C184.945 119.652 186.874 107.436 210.341 107.436C232.201 107.436 233.809 118.366 233.809 119.652V95.5418C238.631 99.0779 244.096 102.293 250.204 105.829L250.846 249.205C245.381 249.205 239.916 249.205 234.451 249.205V146.334C234.451 146.334 235.094 126.403 209.698 127.046C184.302 127.689 184.945 147.62 184.945 147.62V249.848V267.85C206.162 267.207 228.344 266.564 250.846 266.564V296.139L259.205 299.675L273.028 297.747L272.385 285.531C272.385 284.888 272.385 283.602 272.385 282.637L271.742 267.528C560.101 268.171 895.716 312.856 895.716 312.856C895.716 312.856 529.24 257.241 270.778 251.133L264.67 145.37ZM222.557 146.013V247.597C210.341 247.597 197.804 247.597 186.231 248.24V147.299C186.231 147.299 185.588 128.01 204.233 127.367C223.2 126.724 222.557 146.013 222.557 146.013Z" fill="white"/>
<path d="M233.806 279.102L183.656 280.388V300.319L233.806 298.39V279.102Z" fill="white"/>
</g>
</svg>
