<svg width="360" height="360" viewBox="0 0 360 360" fill="none" xmlns="http://www.w3.org/2000/svg">
<rect width="360" height="360" rx="82" fill="#004D5A"/>
<path d="M209.99 164.199H161.335V243.34H209.99V164.199Z" fill="white"/>
<path d="M288.821 243.646V164.197H319V119.854H209.988V164.197H240.167V243.646" fill="white"/>
<path d="M97.8995 246.11C128.694 246.11 154.253 225.17 161.336 196.839H115.452C110.833 201.766 104.674 204.538 97.5916 204.538C84.0421 204.538 73.2642 193.76 73.2642 180.518C73.2642 167.277 84.0421 156.499 97.5916 156.499C104.674 156.499 110.833 159.578 115.452 164.197H161.336C154.253 135.867 128.386 114.927 97.8995 114.927C61.5624 114.927 32 144.489 32 180.518C32 216.855 61.5624 246.11 97.8995 246.11Z" fill="white"/>
<path d="M161.335 164.506V110H221.076" fill="white"/>
</svg>
