<svg width="360" height="360" viewBox="0 0 360 360" fill="none" xmlns="http://www.w3.org/2000/svg">
<rect width="360" height="360" rx="82" fill="#007AC2"/>
<path d="M25.0103 159.867C25.0103 159.867 27.2645 78.1299 120.678 77H190.734L175.034 146.24L117.242 146.445C97.9822 146.588 94.3071 162.412 94.3071 162.412C94.3071 162.412 93.1828 179.076 111.633 180.971L167.153 180.994L151.192 251.392L118.795 251.489C21.9972 249.508 25.0103 159.867 25.0103 159.867ZM334.999 159.867C334.999 159.867 330.856 78.1299 237.443 77H207.688L192.126 146.24L240.884 146.445C260.139 146.588 263.814 162.412 263.814 162.412C263.814 162.412 264.938 179.076 246.482 180.971L184.182 180.994L157.212 298.101L223.131 298.164L234.048 251.472L239.321 251.483C336.129 249.508 334.999 159.867 334.999 159.867Z" fill="white"/>
</svg>
