<svg width="360" height="360" viewBox="0 0 360 360" fill="none" xmlns="http://www.w3.org/2000/svg">
<rect width="360" height="360" rx="82" fill="#C10230"/>
<path d="M153.375 76.6815C156.882 78.3923 159.825 79.6754 160.406 82.3442C161.279 85.7659 161.57 104.311 161.57 125.285C161.57 137.603 160.115 139.263 156.591 139.263C149.56 139.263 146.925 125.953 144 115.311C136.968 90.0258 128.773 81.0954 118.509 81.0954C99.6899 81.0954 86.876 113.72 86.876 174.642C86.876 247.864 105.695 276.161 122.905 276.161C142.528 276.161 146.857 245.538 151.322 226.548C153.375 217.891 154.247 211.561 159.226 211.561C164.204 211.561 165.094 215.889 165.094 222.887V264.356C165.208 266.347 164.872 268.337 164.111 270.179C163.35 272.022 162.183 273.669 160.697 274.998C152.502 281.995 135.805 287.983 118.817 287.983C69.8877 287.983 40 242.048 40 178.491C40 114.935 69.5969 69 119.689 69C131.339 69.1158 142.827 71.7355 153.375 76.6815Z" fill="white"/>
<path d="M292.26 76.6815C295.767 78.3923 298.692 79.6754 299.291 82.3442C300.163 85.7659 300.454 104.311 300.454 125.285C300.454 137.603 299 139.263 295.476 139.263C288.445 139.263 285.81 125.953 282.884 115.311C275.853 90.0258 267.641 81.0954 257.393 81.0954C238.575 81.0954 225.761 113.72 225.761 174.642C225.761 247.864 244.58 276.161 261.79 276.161C281.413 276.161 285.741 245.538 290.207 226.548C292.26 217.891 293.132 211.561 298.111 211.561C303.089 211.561 303.979 215.889 303.979 222.887V264.356C304.093 266.347 303.757 268.337 302.996 270.179C302.234 272.022 301.067 273.669 299.582 274.998C291.37 281.995 274.673 287.983 257.684 287.983C208.772 287.983 178.885 242.048 178.885 178.491C178.885 114.935 208.482 69 258.574 69C270.223 69.1158 281.712 71.7355 292.26 76.6815Z" fill="white"/>
</svg>
