<svg width="360" height="360" viewBox="0 0 360 360" fill="none" xmlns="http://www.w3.org/2000/svg">
<rect width="360" height="360" rx="82" fill="#FFD80B"/>
<path d="M179.639 333.577C155.756 333.577 134.162 324.474 118.633 309.799C122.632 313.572 127.035 316.983 131.768 319.958C131.768 319.958 121.29 315.355 110.173 300.902C93.4962 274.219 94.6696 262.823 94.5325 262.751C94.1777 259.824 94 256.84 94 253.833C94 251.196 94.1128 248.543 94.3386 245.874L103.918 238.085C103.523 241.448 103.345 244.665 103.354 247.729C103.442 268.62 112.062 282.344 116.206 284.465C124.197 238.351 160.061 238.15 160.747 195.52C160.876 187.417 161.44 180.813 162.327 174.653C166.181 148.552 175.583 130.644 179.356 45.102C173.575 73.4197 162.155 240.19 149.085 268.983C137.329 280.07 94.3386 245.874 94.3386 245.874C112.396 191.948 179.397 73.7102 179.397 25.0008C179.397 68.5014 207.964 114.131 232.146 158.688C231.92 159.309 234.966 164.059 239.087 171.936C240.707 175.057 243.585 179.719 244.697 183.054C253.591 199.731 256.924 211.687 256.924 211.687C256.448 210.219 255.932 208.727 255.392 207.227C261.439 223.112 265.277 238.698 265.277 253.833C265.277 297.882 226.977 333.577 179.639 333.577ZM200.103 118.404C201.199 131.571 210.722 151.31 220.164 174.653C231.436 202.567 242.62 235.634 239.217 268.983C247.038 239.117 234.678 204.962 221.744 174.653C212.423 152.89 202.82 133.16 200.103 118.404Z" fill="url(#paint0_radial)"/>
<path d="M168.109 332.883C171.882 333.359 175.736 333.592 179.647 333.592C226.953 333.592 265.286 297.889 265.286 253.84C265.286 248.268 264.778 242.536 263.81 236.657C263.81 236.657 268.382 282.73 225.817 315.354C208.634 328.521 154.917 331.827 124.842 299.09C144.782 329.464 168.109 332.883 168.109 332.883Z" fill="url(#paint1_linear)"/>
<path d="M118.63 309.799C118.598 309.775 118.582 309.751 118.55 309.727C118.574 309.751 118.598 309.775 118.63 309.799ZM117.872 309.074C117.832 309.034 117.792 309.001 117.751 308.961C117.792 309.001 117.832 309.034 117.872 309.074ZM117.123 308.34C117.074 308.292 117.026 308.243 116.969 308.195C117.026 308.243 117.074 308.292 117.123 308.34ZM116.405 307.614C115.905 307.106 115.413 306.59 114.921 306.074C115.413 306.59 115.905 307.106 116.405 307.614ZM114.865 306.01C114.655 305.784 114.437 305.55 114.236 305.316C114.437 305.55 114.655 305.784 114.865 306.01ZM114.204 305.284C103.528 293.536 96.4405 278.877 94.5215 262.743L94.5299 262.751C96.4489 278.861 103.536 293.528 114.204 305.284Z" fill="url(#paint2_linear)"/>
<path d="M168.111 332.881C160.806 331.97 153.807 330.204 147.219 327.68C147.219 327.68 136.794 309.401 143.454 313.183C150.09 316.996 157.322 319.794 163.168 321.463C165.16 325.801 168.111 332.881 168.111 332.881Z" fill="#ECA80A"/>
<path d="M263.809 236.658C262.487 228.563 259.89 220.226 257.109 211.679C257.109 211.679 271.84 282.908 212.205 312.532C209.141 314.073 208.544 319.942 207.246 321.345C205.948 322.765 227.557 324.184 248.296 296.495C269.05 268.814 263.809 236.658 263.809 236.658Z" fill="#ECA80A"/>
<path d="M94.3193 245.89C96.2222 222.588 106.156 198.721 118.557 174.652C106.172 199.011 96.2622 222.918 94.3351 245.874L94.3193 245.89Z" fill="url(#paint3_linear)"/>
<path d="M128.486 174.652C117.423 197.624 108.304 216.798 105.587 228.586C98.2493 260.033 110.892 281.755 116.206 284.464C124.188 238.351 160.061 238.149 160.747 195.519C160.868 187.416 161.432 180.812 162.327 174.652C166.181 148.552 175.583 130.643 179.348 45.1016C170.632 87.7717 146.886 136.481 128.486 174.652Z" fill="#ECA80A"/>
<path d="M116.206 284.464C112.062 282.343 103.434 268.62 103.354 247.728C103.338 241.874 103.983 235.464 105.587 228.586C108.305 216.79 117.424 197.624 128.487 174.652C146.887 136.481 170.641 87.7717 179.349 45.1016C178.26 69.6538 170.681 87.5701 149.443 140.206C144.29 152.93 140.122 164.355 136.671 174.652C115.642 237.536 123.302 256.751 123.302 256.751C120.625 264.121 118.19 272.917 116.206 284.464Z" fill="#F9E1A9"/>
<path d="M255.387 207.225C253.185 201.468 250.702 195.663 248.009 189.833C250.783 195.711 253.306 201.549 255.387 207.225ZM233.326 160.862C232.931 160.136 232.536 159.411 232.141 158.685C232.157 158.653 232.157 158.645 232.157 158.645C232.544 159.379 232.931 160.12 233.326 160.862Z" fill="url(#paint4_linear)"/>
<defs>
<radialGradient id="paint0_radial" cx="0" cy="0" r="1" gradientUnits="userSpaceOnUse" gradientTransform="translate(213.721 296.309) scale(132.018 131.994)">
<stop stop-color="white"/>
<stop offset="0.127657" stop-color="white"/>
<stop offset="0.84483" stop-color="#231F20"/>
<stop offset="1" stop-color="#231F20"/>
</radialGradient>
<linearGradient id="paint1_linear" x1="250.369" y1="224.345" x2="140.192" y2="355.607" gradientUnits="userSpaceOnUse">
<stop stop-color="#EEA90A"/>
<stop offset="0.13103" stop-color="#EEA90A"/>
<stop offset="1" stop-color="#656363"/>
</linearGradient>
<linearGradient id="paint2_linear" x1="94.5295" y1="291.359" x2="131.974" y2="291.359" gradientUnits="userSpaceOnUse">
<stop stop-color="#F3C049"/>
<stop offset="0.28621" stop-color="#F3C049"/>
<stop offset="1" stop-color="#949293"/>
</linearGradient>
<linearGradient id="paint3_linear" x1="94.3355" y1="187.594" x2="223.047" y2="187.594" gradientUnits="userSpaceOnUse">
<stop stop-color="#F5C85F"/>
<stop offset="0.45517" stop-color="#F5C85F"/>
<stop offset="1" stop-color="#7B7979"/>
</linearGradient>
<linearGradient id="paint4_linear" x1="228.585" y1="185.156" x2="256.935" y2="185.156" gradientUnits="userSpaceOnUse">
<stop stop-color="#F3C049"/>
<stop offset="0.37241" stop-color="#F3C049"/>
<stop offset="1" stop-color="#C2C1C1"/>
</linearGradient>
</defs>
</svg>
