<svg width="360" height="360" viewBox="0 0 360 360" fill="none" xmlns="http://www.w3.org/2000/svg">
<rect width="360" height="360" rx="82" fill="#E25A46"/>
<path d="M331.742 179.867C331.742 188.579 331.178 196.427 330.202 201.309C286.793 227.332 242.897 247.797 183.829 269.689C180.713 270.815 179.211 270.815 176.094 269.689C116.989 247.759 73.1299 227.294 29.7588 201.271C28.7825 196.39 28.1816 188.542 28.1816 179.83C28.1816 171.118 28.7449 163.308 29.7588 158.426C73.0923 132.441 116.989 111.938 176.131 90.0461C179.248 88.9195 180.75 88.9195 183.867 90.0461C242.972 111.938 286.831 132.441 330.202 158.426C331.178 163.308 331.742 171.156 331.742 179.867Z" fill="#E25A46"/>
<path d="M333.057 203.299C335.648 192.747 335.648 166.912 333.057 156.398C288.634 129.662 244.137 108.934 184.957 87.042C181.164 85.6527 178.836 85.6527 175.006 87.042C115.826 108.934 71.2907 129.662 26.9433 156.398C24.3523 166.912 24.3523 192.785 26.9433 203.299C71.3282 230.035 115.826 250.763 175.006 272.655C178.798 274.045 181.127 274.045 184.957 272.655C244.137 250.763 288.634 230.035 333.057 203.299Z" fill="#E25A46"/>
<path d="M177.296 108.108C119.543 129.812 78.3496 149.301 35.1663 175.399C33.5892 176.375 32.6504 177.99 32.6504 179.83C32.6504 181.67 33.5892 183.322 35.1663 184.261C78.3496 210.359 119.543 229.885 177.296 251.552C179.399 252.34 180.563 252.34 182.628 251.552C240.381 229.885 281.574 210.359 324.795 184.261C326.372 183.322 327.273 181.67 327.273 179.83C327.273 177.99 326.372 176.375 324.795 175.399C281.574 149.264 240.381 129.775 182.628 108.07C180.563 107.319 179.436 107.319 177.296 108.108Z" fill="#FCCF26"/>
<path d="M315.146 179.867C274.403 204.125 234.938 222.6 180.151 243.215C144.403 229.885 115.564 217.493 89.0531 204.163C87.5511 203.449 85.9364 203.487 84.5846 204.238C83.0825 205.214 82.2564 206.791 82.2564 208.631V217.831C82.2564 220.685 81.6932 221.136 80.2287 221.699C78.2761 222.412 76.9618 222.75 75.9479 222.938V205.627C75.9479 200.333 75.9479 197.441 72.6434 195.676C62.9554 190.457 53.8305 185.275 44.8184 179.905C85.4107 155.76 124.839 137.247 179.813 116.557C208.54 127.259 231.783 136.947 253.225 147.048C254.764 147.762 256.567 147.536 257.844 146.41C258.369 145.959 258.745 145.433 258.97 144.87C261.035 149.226 262.162 151.291 264.077 152.23C281.238 160.604 297.985 169.654 315.146 179.867Z" fill="white"/>
<path d="M178.686 113.515C121.947 134.882 81.655 153.92 39.5231 179.267L39.2227 179.83L39.5231 180.393C50.2626 186.889 60.589 192.747 71.1408 198.417C72.7555 199.281 72.7555 200.746 72.7555 205.552V224.102C72.7555 225.379 73.5065 226.505 74.9709 226.28C76.135 226.092 77.9375 225.942 81.3921 224.628C84.8468 223.351 85.5227 221.023 85.5227 217.756V208.556C85.5227 207.843 85.7856 207.242 86.2362 206.941C86.499 206.791 86.9496 206.641 87.6255 206.941C114.061 220.234 143.013 232.701 178.724 246.144C179.587 246.482 180.376 246.482 181.277 246.144C237.979 224.816 278.308 205.74 320.44 180.393L320.74 179.83L320.44 179.267C302.078 168.227 284.128 158.388 265.541 149.301C264.414 148.738 263.213 146.297 261.223 141.941L259.232 137.66C258.819 136.872 256.754 136.121 255.815 136.496C255.627 136.571 255.477 136.609 255.59 137.135C255.815 138.111 256.942 142.955 255.74 143.931L254.614 144.081C232.834 133.83 209.515 124.142 181.24 113.478C180.376 113.177 179.587 113.177 178.686 113.515Z" fill="#0082C0"/>
<path d="M308.799 117.458C305.157 126.508 293.929 154.483 293.366 155.835L293.103 156.436L293.329 157.036L307.485 192.747L292.84 195.789C291.977 195.939 289.01 196.39 286.757 194.362L286.494 194.099L286.156 194.024C284.391 193.461 282.965 192.259 282.439 190.832L281.65 188.391L280.036 183.435L278.609 188.466C276.956 194.249 276.694 195.075 276.656 195.226C275.755 197.779 273.201 199.882 270.16 200.52L255.44 203.562L254.126 203.862L255.102 200.67L251.272 203.412C245.264 207.655 237.078 209.194 231.858 209.194C230.882 209.194 229.98 209.119 229.079 209.007H228.854L228.591 209.044C227.465 209.27 207.225 213.475 204.484 214.038C202.719 213.701 200.766 212.499 200.466 212.199L200.24 211.973L199.94 211.861C199.039 211.523 198.175 211.034 197.274 210.283L194.683 208.218V211.523V216.029L174.856 220.197V218.019L172.941 218.394L169.223 219.145L168.773 219.258L168.435 219.558C163.779 223.802 154.917 226.881 147.406 226.881C145.191 226.881 141.699 226.918 137.305 223.952L134.789 222.262V228.458L101.595 235.367V233.189L99.6419 233.602L96.4126 234.316L96.0371 234.391L95.7367 234.654C89.5783 239.611 79.8903 241.864 73.4315 241.864C69.2634 241.864 66.034 241 63.8186 239.273L63.6308 239.122L63.4055 239.047C60.7018 238.033 56.1582 234.691 56.1582 228.721V180.881C56.1582 168.565 71.2911 160.942 85.2976 160.942C89.1277 160.942 92.5073 161.993 94.873 163.871C95.5114 164.246 95.8118 164.434 96.1497 164.622L98.6281 166.199V158.388L119.319 154.108V156.398L122.135 155.797L122.172 209.908V212.199L124.313 211.447C126.791 210.584 128.368 209.495 129.683 208.481L130.321 207.993V165.26C130.321 161.392 132.123 157.45 135.353 154.183C140.535 149.038 148.683 146.072 157.695 146.072C162.69 146.072 165.243 147.499 167.121 148.888C168.097 149.376 168.773 149.789 169.411 150.202L171.89 151.854V143.18L192.242 138.975C195.509 138.299 198.738 138.036 201.78 138.186C204.859 138.336 207.675 139.313 209.928 141.04C211.468 141.791 212.557 142.542 213.571 143.443L215.298 145.058L216.162 142.842C218.64 136.196 227.089 128.423 242.748 128.423C244.888 128.423 246.841 128.761 248.718 129.474L252.473 130.901L250.746 127.371L266.33 124.105C267.644 123.842 270.573 123.804 272.525 125.644L272.788 125.907L273.126 126.02C274.816 126.545 276.055 127.634 276.619 129.024L277.37 130.789L278.984 134.544L280.374 130.713L282.514 124.78C283.453 122.152 286.006 120.087 289.01 119.448L306.096 115.918L305.12 118.359L308.011 117.796L308.799 117.458Z" fill="white"/>
<path d="M204.483 215.653C204.483 215.653 227.689 210.809 228.891 210.584C229.829 210.696 230.806 210.772 231.819 210.772C238.015 210.772 246.314 208.856 252.172 204.688C251.984 205.252 251.759 206.003 251.759 206.003L255.739 205.139L270.459 202.06C273.989 201.309 277.031 198.868 278.12 195.751C278.157 195.676 278.195 195.564 280.11 188.879L280.936 191.395C281.649 193.348 283.527 194.888 285.705 195.526C288.108 197.704 291.3 197.704 293.177 197.328L309.662 193.911C309.662 193.911 295.468 158.088 294.83 156.436C295.506 154.783 311.427 115.243 311.427 115.243C311.427 115.243 308.461 115.881 307.672 116.031C308.16 114.829 308.686 113.553 308.686 113.553L288.671 117.721C285.104 118.472 282.1 120.95 280.973 124.067C280.973 124.067 279.884 127.071 278.833 130C278.57 129.399 278.12 128.273 278.12 128.273C277.331 126.395 275.716 125.043 273.613 124.367C271.285 122.152 267.831 122.039 265.953 122.415L248.342 126.095C248.342 126.095 248.792 127.071 249.205 127.86C247.253 127.109 245.112 126.733 242.672 126.733C227.614 126.733 217.663 133.943 214.584 142.204C213.495 141.228 212.256 140.364 210.829 139.688C208.388 137.811 205.309 136.684 201.816 136.496C198.587 136.346 195.245 136.609 191.866 137.322L170.274 141.791V148.813C169.56 148.362 168.847 147.912 168.058 147.574C166.068 146.109 163.102 144.419 157.657 144.419C148.194 144.419 139.67 147.574 134.188 153.019C130.62 156.586 128.668 160.942 128.668 165.223V207.129C127.428 208.068 126.039 209.044 123.749 209.87C123.749 204.275 123.711 153.77 123.711 153.77L120.932 154.333C120.932 153.582 120.932 152.042 120.932 152.042L97.0124 157.036V163.195L95.8859 162.519C93.2198 160.416 89.5398 159.252 85.3341 159.252C70.1261 159.252 54.5801 167.814 54.5801 180.806V228.646C54.5801 235.705 59.9874 239.423 62.8412 240.512C65.5824 242.652 69.3375 243.441 73.4305 243.441C80.4901 243.441 90.5537 240.887 96.6744 235.855L99.9414 235.142V237.32L136.366 229.735V225.266C141.472 228.683 145.49 228.458 147.368 228.458C155.704 228.458 164.716 225.041 169.485 220.723L173.24 219.972V222.149L196.297 217.343C196.297 217.343 196.297 212.386 196.297 211.523C197.235 212.274 198.212 212.912 199.413 213.325C199.864 213.851 202.342 215.315 204.483 215.653Z" fill="#0082C0"/>
<path d="M81.8046 221.323C81.8046 223.651 77.4863 224.478 75.421 224.478C73.7688 224.478 73.5435 223.426 73.5435 223.013V180.13C73.5435 176.938 79.2136 176.713 79.9646 176.713C81.0536 176.713 81.8046 177.314 81.8046 178.178V190.156C81.8046 191.921 83.6071 193.01 85.8601 192.522L96.5996 190.269V172.432C96.5996 167.926 93.1074 163.383 85.1466 163.383C73.2806 163.383 58.7109 169.391 58.7109 180.919V228.646C58.7109 233.678 62.804 237.658 69.9762 237.658C81.3916 237.658 96.6372 232.175 96.6372 220.385V203.674L85.8977 205.928C83.6446 206.378 81.8422 208.218 81.8422 209.945V221.323" fill="white"/>
<path d="M129.345 211.748C126.604 213.701 123.187 214.527 119.507 215.315L116.766 215.879L116.728 157.224L101.145 160.491V230.636L129.345 224.778V211.748Z" fill="white"/>
<path d="M168.885 205.965C168.885 215.653 156.981 222.713 143.913 222.713C136.253 222.713 132.836 218.169 132.836 213.588V165.26C132.836 157.6 141.886 148.625 158.032 148.625C164.904 148.625 168.885 152.718 168.885 157.788V205.965ZM154.803 161.956C154.803 161.205 154.24 160.491 153.076 160.491C150.522 160.491 146.955 161.43 146.955 163.608V209.645C146.955 210.058 147.18 211.11 148.72 211.11C152.926 211.11 154.766 209.42 154.766 207.993V161.956H154.803Z" fill="white"/>
<path d="M253.713 188.241C253.713 197.929 241.771 205.026 228.741 205.026C221.081 205.026 217.664 200.445 217.701 195.864V147.536C217.701 139.876 226.714 130.901 242.86 130.901C249.695 130.901 253.713 134.994 253.713 140.101V188.241ZM239.594 144.232C239.594 143.481 239.03 142.767 237.866 142.767C235.313 142.767 231.783 143.706 231.745 145.847V191.921C231.745 192.297 231.971 193.348 233.548 193.348C237.754 193.348 239.594 191.658 239.594 190.232V144.232Z" fill="white"/>
<path d="M287.546 154.821L301.176 189.293L289.536 191.733C287.358 192.184 285.518 191.433 284.879 190.006L278.158 169.391L271.436 192.822C270.835 194.55 268.995 196.014 266.818 196.502L255.139 198.906L268.77 158.764L254.426 129.136L266.818 126.545C268.995 126.095 270.835 126.846 271.436 128.273L278.158 144.194L284.879 125.456C285.48 123.767 287.32 122.265 289.536 121.814L301.89 119.223L287.546 154.821Z" fill="white"/>
<path d="M189.275 172.733L194.195 171.681C196.222 171.268 196.861 169.579 196.861 167.889V153.657C196.861 152.869 196.748 152.38 196.56 151.892C196.185 151.029 195.208 150.728 194.157 150.953L189.238 151.967V172.733H189.275ZM196.861 182.909C196.861 182.308 196.786 181.707 196.598 181.107C196.26 180.318 195.359 179.943 194.232 180.205L189.313 181.219V212.424L174.48 215.503V145.246L192.768 141.453C195.884 140.815 199.151 140.552 201.667 140.702C207.563 141.078 211.731 144.532 211.731 149.677V162.782C211.731 166.95 208.99 171.156 204.859 174.047C208.914 174.61 211.731 177.164 211.731 180.881V201.009C211.731 203.6 213.045 205.74 215.223 206.979L201.742 209.795C198.813 209.044 196.898 206.942 196.898 204.088V182.909H196.861Z" fill="white"/>
</svg>
