<svg width="360" height="360" viewBox="0 0 360 360" fill="none" xmlns="http://www.w3.org/2000/svg">
<rect width="360" height="360" rx="82" fill="#002F6C"/>
<mask id="path-4-outside-1" maskUnits="userSpaceOnUse" x="24" y="149" width="313" height="63" fill="black">
<rect fill="white" x="24" y="149" width="313" height="63"/>
<path fill-rule="evenodd" clip-rule="evenodd" d="M91.9733 157.895C84.2233 157.895 78.6284 161.853 75.7274 167.862L75.1679 150.186H73.0749C71.728 153.543 70.2775 153.73 67.1899 152.756C65.7601 152.279 64.0195 151.616 61.9473 151.057C59.8544 150.477 57.3885 150.041 54.4252 150.041C37.1017 150 24.9587 162.972 25.0001 180.44C24.9587 199.629 37.7855 210.632 54.591 210.674C62.9834 210.612 70.7126 206.695 75.9138 200.106L74.2561 198.013C68.3296 204.001 63.7708 206.281 55.2748 206.322C41.4533 206.301 35.2575 193.309 35.2989 181.145C35.2575 165.459 41.4947 153.357 54.7361 153.999C69.2621 154.725 73.1785 165.459 73.3029 178.99C73.2614 189.662 80.8249 199.132 91.9526 199.049C103.971 199.132 111.286 188.709 111.286 177.208C111.307 165.852 103.433 157.978 91.9733 157.895ZM102.728 182.368C102.065 189.869 98.3971 196.707 91.9733 196.127C84.099 195.422 80.8249 185.683 81.8817 173.457C82.5863 165.873 86.337 160.34 92.4706 160.796C101.941 161.708 103.433 174.452 102.728 182.368ZM176.312 196.686V198.344H158.014V196.686C161.848 196.293 163.319 195.112 163.319 191.154V173.291C163.402 165.023 162.034 162.951 156.791 162.951C153.02 162.951 149.85 164.961 147.985 168.152V191.154C147.922 195.132 149.435 196.313 153.289 196.686V198.344H134.806V196.686C138.722 196.293 140.235 195.153 140.318 191.154L140.338 172.918C140.338 168.422 139.965 162.951 134.495 162.951C131.055 162.951 126.869 164.961 124.776 167.966V191.154C124.838 195.153 126.372 196.313 130.288 196.686V198.344H111.763V196.686L111.97 196.645C115.969 196.272 117.15 194.801 117.088 191.154V169.872C117.399 165.168 116.259 164.34 111.763 164.36V162.392L124.755 157.771V163.78C124.797 164.547 124.9 164.568 125.501 164.091C126.164 163.469 126.724 162.723 127.47 162.205C130.516 159.843 134.06 157.895 138.038 157.895C142.307 157.895 145.726 161.024 146.824 165.168C149.995 161.501 155.217 157.895 160.003 157.895C170.426 157.895 171.007 166.951 171.007 174.721V191.154C170.986 195.112 172.457 196.313 176.312 196.686ZM208.928 183.59C206.338 188.19 201.717 192.874 195.956 192.915C186.61 192.874 182.549 182.43 182.362 174.224H208.949C208.721 165.065 203.374 157.916 193.676 157.916C182.984 157.916 176.084 166.951 176.084 179.363C176.084 189.848 182.528 199.152 192.578 199.069C201.572 199.152 208.078 191.817 210.772 184.046L208.928 183.59ZM191.853 161.376C197.199 161.335 199.499 166.018 199.789 170.929H182.715C183.461 165.624 186.092 161.376 191.853 161.376ZM326.836 198.924L306.072 150H304.021L290.137 183.155C287.713 188.978 283.983 192.521 277.414 192.521C268.752 192.708 264.297 183.777 264.297 175.778C264.338 168.608 267.902 160.838 275.114 160.775C279.569 160.817 281.517 163.262 281.455 166.619C281.517 168.67 283.485 170.68 285.557 170.598C287.671 170.68 289.64 168.815 289.66 166.619C289.267 160.506 281.579 157.874 276.689 157.874C263.799 157.874 257.313 167.945 257.376 179.322C257.313 190.242 264.152 199.111 273.518 199.028C279.196 199.049 283.299 196.438 286.386 192.687C285.039 195.982 283.589 199.795 281.765 202.779C280.315 205.182 278.595 207.089 275.611 207.379V209.368H292.852V207.358C290.821 207.317 287.07 206.985 287.008 203.794C287.07 200.603 290.427 193.993 291.546 190.594H313.739L316.723 197.805C319.521 204.436 320.951 206.882 312.807 207.358V209.348H335L334.772 207.338C330.151 207.586 328.39 202.344 326.836 198.924ZM293.307 186.657L302.777 163.303L312.372 186.657H293.307ZM259.22 196.686V198.344H238.602V196.686L238.767 196.645C243.886 196.272 245.067 194.759 245.15 191.154V169.872C245.336 164.029 242.58 164.505 238.581 166.681C237.731 167.241 236.592 167.303 235.39 167.033C234.499 166.909 234.001 166.474 233.483 165.832L233.027 165.251C232.447 164.505 231.701 163.759 229.733 163.635C228.116 163.635 224.614 167.862 224.656 170.245V191.154C224.635 195.65 226.852 196.355 231.017 196.686V198.344H210.606V196.686C215.766 196.272 216.947 194.759 216.989 191.154V172.007C216.968 165.873 217.175 162.454 210.606 164.422V162.557L224.656 157.75V165.168C226.5 162.184 230.043 157.874 234.209 157.874C237.006 157.874 239.451 159.449 239.907 162.184L252.651 157.025L252.817 191.112C252.734 195.671 255.034 196.355 259.22 196.686Z"/>
</mask>
<path fill-rule="evenodd" clip-rule="evenodd" d="M91.9733 157.895C84.2233 157.895 78.6284 161.853 75.7274 167.862L75.1679 150.186H73.0749C71.728 153.543 70.2775 153.73 67.1899 152.756C65.7601 152.279 64.0195 151.616 61.9473 151.057C59.8544 150.477 57.3885 150.041 54.4252 150.041C37.1017 150 24.9587 162.972 25.0001 180.44C24.9587 199.629 37.7855 210.632 54.591 210.674C62.9834 210.612 70.7126 206.695 75.9138 200.106L74.2561 198.013C68.3296 204.001 63.7708 206.281 55.2748 206.322C41.4533 206.301 35.2575 193.309 35.2989 181.145C35.2575 165.459 41.4947 153.357 54.7361 153.999C69.2621 154.725 73.1785 165.459 73.3029 178.99C73.2614 189.662 80.8249 199.132 91.9526 199.049C103.971 199.132 111.286 188.709 111.286 177.208C111.307 165.852 103.433 157.978 91.9733 157.895ZM102.728 182.368C102.065 189.869 98.3971 196.707 91.9733 196.127C84.099 195.422 80.8249 185.683 81.8817 173.457C82.5863 165.873 86.337 160.34 92.4706 160.796C101.941 161.708 103.433 174.452 102.728 182.368ZM176.312 196.686V198.344H158.014V196.686C161.848 196.293 163.319 195.112 163.319 191.154V173.291C163.402 165.023 162.034 162.951 156.791 162.951C153.02 162.951 149.85 164.961 147.985 168.152V191.154C147.922 195.132 149.435 196.313 153.289 196.686V198.344H134.806V196.686C138.722 196.293 140.235 195.153 140.318 191.154L140.338 172.918C140.338 168.422 139.965 162.951 134.495 162.951C131.055 162.951 126.869 164.961 124.776 167.966V191.154C124.838 195.153 126.372 196.313 130.288 196.686V198.344H111.763V196.686L111.97 196.645C115.969 196.272 117.15 194.801 117.088 191.154V169.872C117.399 165.168 116.259 164.34 111.763 164.36V162.392L124.755 157.771V163.78C124.797 164.547 124.9 164.568 125.501 164.091C126.164 163.469 126.724 162.723 127.47 162.205C130.516 159.843 134.06 157.895 138.038 157.895C142.307 157.895 145.726 161.024 146.824 165.168C149.995 161.501 155.217 157.895 160.003 157.895C170.426 157.895 171.007 166.951 171.007 174.721V191.154C170.986 195.112 172.457 196.313 176.312 196.686ZM208.928 183.59C206.338 188.19 201.717 192.874 195.956 192.915C186.61 192.874 182.549 182.43 182.362 174.224H208.949C208.721 165.065 203.374 157.916 193.676 157.916C182.984 157.916 176.084 166.951 176.084 179.363C176.084 189.848 182.528 199.152 192.578 199.069C201.572 199.152 208.078 191.817 210.772 184.046L208.928 183.59ZM191.853 161.376C197.199 161.335 199.499 166.018 199.789 170.929H182.715C183.461 165.624 186.092 161.376 191.853 161.376ZM326.836 198.924L306.072 150H304.021L290.137 183.155C287.713 188.978 283.983 192.521 277.414 192.521C268.752 192.708 264.297 183.777 264.297 175.778C264.338 168.608 267.902 160.838 275.114 160.775C279.569 160.817 281.517 163.262 281.455 166.619C281.517 168.67 283.485 170.68 285.557 170.598C287.671 170.68 289.64 168.815 289.66 166.619C289.267 160.506 281.579 157.874 276.689 157.874C263.799 157.874 257.313 167.945 257.376 179.322C257.313 190.242 264.152 199.111 273.518 199.028C279.196 199.049 283.299 196.438 286.386 192.687C285.039 195.982 283.589 199.795 281.765 202.779C280.315 205.182 278.595 207.089 275.611 207.379V209.368H292.852V207.358C290.821 207.317 287.07 206.985 287.008 203.794C287.07 200.603 290.427 193.993 291.546 190.594H313.739L316.723 197.805C319.521 204.436 320.951 206.882 312.807 207.358V209.348H335L334.772 207.338C330.151 207.586 328.39 202.344 326.836 198.924ZM293.307 186.657L302.777 163.303L312.372 186.657H293.307ZM259.22 196.686V198.344H238.602V196.686L238.767 196.645C243.886 196.272 245.067 194.759 245.15 191.154V169.872C245.336 164.029 242.58 164.505 238.581 166.681C237.731 167.241 236.592 167.303 235.39 167.033C234.499 166.909 234.001 166.474 233.483 165.832L233.027 165.251C232.447 164.505 231.701 163.759 229.733 163.635C228.116 163.635 224.614 167.862 224.656 170.245V191.154C224.635 195.65 226.852 196.355 231.017 196.686V198.344H210.606V196.686C215.766 196.272 216.947 194.759 216.989 191.154V172.007C216.968 165.873 217.175 162.454 210.606 164.422V162.557L224.656 157.75V165.168C226.5 162.184 230.043 157.874 234.209 157.874C237.006 157.874 239.451 159.449 239.907 162.184L252.651 157.025L252.817 191.112C252.734 195.671 255.034 196.355 259.22 196.686Z" fill="white"/>
<path fill-rule="evenodd" clip-rule="evenodd" d="M91.9733 157.895C84.2233 157.895 78.6284 161.853 75.7274 167.862L75.1679 150.186H73.0749C71.728 153.543 70.2775 153.73 67.1899 152.756C65.7601 152.279 64.0195 151.616 61.9473 151.057C59.8544 150.477 57.3885 150.041 54.4252 150.041C37.1017 150 24.9587 162.972 25.0001 180.44C24.9587 199.629 37.7855 210.632 54.591 210.674C62.9834 210.612 70.7126 206.695 75.9138 200.106L74.2561 198.013C68.3296 204.001 63.7708 206.281 55.2748 206.322C41.4533 206.301 35.2575 193.309 35.2989 181.145C35.2575 165.459 41.4947 153.357 54.7361 153.999C69.2621 154.725 73.1785 165.459 73.3029 178.99C73.2614 189.662 80.8249 199.132 91.9526 199.049C103.971 199.132 111.286 188.709 111.286 177.208C111.307 165.852 103.433 157.978 91.9733 157.895ZM102.728 182.368C102.065 189.869 98.3971 196.707 91.9733 196.127C84.099 195.422 80.8249 185.683 81.8817 173.457C82.5863 165.873 86.337 160.34 92.4706 160.796C101.941 161.708 103.433 174.452 102.728 182.368ZM176.312 196.686V198.344H158.014V196.686C161.848 196.293 163.319 195.112 163.319 191.154V173.291C163.402 165.023 162.034 162.951 156.791 162.951C153.02 162.951 149.85 164.961 147.985 168.152V191.154C147.922 195.132 149.435 196.313 153.289 196.686V198.344H134.806V196.686C138.722 196.293 140.235 195.153 140.318 191.154L140.338 172.918C140.338 168.422 139.965 162.951 134.495 162.951C131.055 162.951 126.869 164.961 124.776 167.966V191.154C124.838 195.153 126.372 196.313 130.288 196.686V198.344H111.763V196.686L111.97 196.645C115.969 196.272 117.15 194.801 117.088 191.154V169.872C117.399 165.168 116.259 164.34 111.763 164.36V162.392L124.755 157.771V163.78C124.797 164.547 124.9 164.568 125.501 164.091C126.164 163.469 126.724 162.723 127.47 162.205C130.516 159.843 134.06 157.895 138.038 157.895C142.307 157.895 145.726 161.024 146.824 165.168C149.995 161.501 155.217 157.895 160.003 157.895C170.426 157.895 171.007 166.951 171.007 174.721V191.154C170.986 195.112 172.457 196.313 176.312 196.686ZM208.928 183.59C206.338 188.19 201.717 192.874 195.956 192.915C186.61 192.874 182.549 182.43 182.362 174.224H208.949C208.721 165.065 203.374 157.916 193.676 157.916C182.984 157.916 176.084 166.951 176.084 179.363C176.084 189.848 182.528 199.152 192.578 199.069C201.572 199.152 208.078 191.817 210.772 184.046L208.928 183.59ZM191.853 161.376C197.199 161.335 199.499 166.018 199.789 170.929H182.715C183.461 165.624 186.092 161.376 191.853 161.376ZM326.836 198.924L306.072 150H304.021L290.137 183.155C287.713 188.978 283.983 192.521 277.414 192.521C268.752 192.708 264.297 183.777 264.297 175.778C264.338 168.608 267.902 160.838 275.114 160.775C279.569 160.817 281.517 163.262 281.455 166.619C281.517 168.67 283.485 170.68 285.557 170.598C287.671 170.68 289.64 168.815 289.66 166.619C289.267 160.506 281.579 157.874 276.689 157.874C263.799 157.874 257.313 167.945 257.376 179.322C257.313 190.242 264.152 199.111 273.518 199.028C279.196 199.049 283.299 196.438 286.386 192.687C285.039 195.982 283.589 199.795 281.765 202.779C280.315 205.182 278.595 207.089 275.611 207.379V209.368H292.852V207.358C290.821 207.317 287.07 206.985 287.008 203.794C287.07 200.603 290.427 193.993 291.546 190.594H313.739L316.723 197.805C319.521 204.436 320.951 206.882 312.807 207.358V209.348H335L334.772 207.338C330.151 207.586 328.39 202.344 326.836 198.924ZM293.307 186.657L302.777 163.303L312.372 186.657H293.307ZM259.22 196.686V198.344H238.602V196.686L238.767 196.645C243.886 196.272 245.067 194.759 245.15 191.154V169.872C245.336 164.029 242.58 164.505 238.581 166.681C237.731 167.241 236.592 167.303 235.39 167.033C234.499 166.909 234.001 166.474 233.483 165.832L233.027 165.251C232.447 164.505 231.701 163.759 229.733 163.635C228.116 163.635 224.614 167.862 224.656 170.245V191.154C224.635 195.65 226.852 196.355 231.017 196.686V198.344H210.606V196.686C215.766 196.272 216.947 194.759 216.989 191.154V172.007C216.968 165.873 217.175 162.454 210.606 164.422V162.557L224.656 157.75V165.168C226.5 162.184 230.043 157.874 234.209 157.874C237.006 157.874 239.451 159.449 239.907 162.184L252.651 157.025L252.817 191.112C252.734 195.671 255.034 196.355 259.22 196.686Z" stroke="white" stroke-width="2" mask="url(#path-4-outside-1)"/>
</svg>
