<svg width="360" height="360" viewBox="0 0 360 360" fill="none" xmlns="http://www.w3.org/2000/svg">
<rect width="360" height="360" rx="82" fill="url(#paint0_angular)" fill-opacity="0.15"/>
<circle cx="180" cy="180" r="155.455" fill="#4681C7" fill-opacity="0.06"/>
<circle cx="180" cy="180" r="155.205" stroke="#2869BF" stroke-opacity="0.04" stroke-width="0.5"/>
<path d="M179.617 96.5684C183.888 89.5937 190.975 82.2958 198.607 79.2092C211.742 73.2328 229.348 75.8029 240.065 85.2597C250.435 94.655 255.696 107.532 253.214 121.928C255.757 121.459 258.325 119.831 261.018 118.904C277.116 114.361 294.141 119.288 304.463 133.09C312.216 142.943 314.242 158.251 309.588 170.154C307.279 176.141 303.34 181.524 298.218 186.118L298.735 186.636C313.711 187.364 328.43 198.994 332.972 213.254C337.898 227.638 333.565 243.009 323.047 253.529C314.453 262.023 303.402 264.962 291.118 264.715H68.1055C49.7943 265.11 35.6456 256.997 28.0281 240.714C22.0517 226.737 25.0028 208.86 36.1633 198.206C43.2006 190.846 52.0169 187.833 61.5234 186.316C50.7579 176.327 45.5714 162.66 48.5967 148.004C50.7579 136.128 60.8818 124.102 72.5113 119.954C82.758 115.879 96.6368 116.595 106.021 122.125L106.354 121.718C103.527 105.556 110.688 90.9754 124.094 82.0364C136.047 73.9509 155.159 74.1594 166.862 82.7545C172.123 85.9754 176.456 91.507 179.617 96.5684Z" fill="white"/>
<path d="M242.754 102.606C247.546 112.274 244.731 124.941 239.73 133.621L201.037 220.675L200.702 221.083L186.716 132.769C185.593 124.289 194.654 120.671 199.988 116.596C199.717 115.35 198.345 115.411 197.482 114.831L184.409 114.694L184.011 114.299C184.085 103.336 189.988 93.2119 199.988 87.8911C210.435 81.8545 225.15 83.4957 234.211 91.2371C237.891 94.5195 240.99 98.3335 242.754 102.606Z" fill="#645FAA"/>
<path d="M171.468 99.5809C174.63 105.433 176.457 112.077 175.345 119.434L159.567 220.551C159.653 220.674 159.506 220.81 159.381 220.871L155.295 212.735L115.749 124.422C112.069 113.051 115.478 101.162 123.761 93.0115C132.107 84.5427 145.837 82.246 156.752 86.8394C162.53 89.3342 168.049 93.9276 171.468 99.5809Z" fill="#C9234A"/>
<path d="M299.993 142.151C305.314 151.224 304.118 164.955 298.202 173.375C294.537 179.289 288.485 182.24 283.361 186.116L201.421 242.365H201.233L202.148 239.674L245.583 141.633C252.09 130.076 264.51 124.224 277.647 125.989C286.647 127.633 295.648 133.484 299.993 142.151Z" fill="#0089CF"/>
<path d="M113.848 141.633L159.048 242.354H158.321L67.193 179.548C57.9193 171.734 54.1181 160.029 57.2661 148.201C59.6242 139.336 66.9822 131.053 75.736 127.767C90.0688 122.52 106.217 128.101 113.848 141.633Z" fill="#F36F21"/>
<path d="M323.773 213.253C328.315 222.847 326.526 235.983 320.032 244.143C313.589 251.959 304.969 256.231 294.857 255.959L197.691 256.021L279.089 199.389C287.042 194.266 299.129 193.338 307.809 197.487C314.512 200.117 320.822 206.685 323.773 213.253Z" fill="#0DB14B"/>
<path d="M36.0401 213.253C31.5104 222.847 33.2871 235.983 39.7939 244.143C46.2381 251.959 54.8309 256.231 64.9559 255.959L162.121 256.021L80.7226 199.389C72.7715 194.266 60.6856 193.338 52.0176 197.487C45.3116 200.117 39.004 206.685 36.0401 213.253Z" fill="#FDB913"/>
<defs>
<radialGradient id="paint0_angular" cx="0" cy="0" r="1" gradientUnits="userSpaceOnUse" gradientTransform="translate(180 254) rotate(90) scale(106)">
<stop offset="0.244264" stop-color="#FDB913"/>
<stop offset="0.381404" stop-color="#F36F21"/>
<stop offset="0.460285" stop-color="#C9234A"/>
<stop offset="0.539203" stop-color="#645FAA"/>
<stop offset="0.619467" stop-color="#0089CF"/>
<stop offset="0.756328" stop-color="#0DB14B"/>
</radialGradient>
</defs>
</svg>
