<svg width="360" height="360" viewBox="0 0 360 360" fill="none" xmlns="http://www.w3.org/2000/svg">
<rect width="360" height="360" rx="82" fill="url(#paint0_linear)" fill-opacity="0.15"/>
<path d="M279.363 298.949C276.954 300.042 274.317 301.093 271.481 302.098C234.509 315.527 169.448 317.599 121.641 309.823L121.617 309.821C103.785 306.852 88.6052 302.52 78.3467 297.05C106.163 321.2 141.67 334.654 178.505 335.002C215.34 335.35 251.095 322.569 279.363 298.949Z" fill="#05C3DE"/>
<path d="M242.936 293.699C242.032 293.829 241.12 293.956 240.201 294.081C239.946 294.115 239.692 294.152 239.44 294.184C208.401 298.157 177.037 298.944 145.837 296.535C144.291 296.415 142.751 296.289 141.219 296.155C140.707 296.11 140.197 296.064 139.69 296.017C138.165 295.879 136.649 295.733 135.141 295.577C134.639 295.527 134.139 295.474 133.639 295.421C133.138 295.367 132.638 295.314 132.141 295.259C131.644 295.206 131.146 295.15 130.652 295.094C130.403 295.065 130.156 295.036 129.909 295.009C100.742 291.638 75.6696 285.406 60.697 276.904C60.6599 276.88 60.6201 276.859 60.5803 276.835C59.3812 276.148 58.2882 275.455 57.2695 274.76C57.4711 275.018 57.6728 275.278 57.8744 275.535C76.993 290.54 98.5516 302.142 121.606 309.833L121.619 309.836H121.63C169.437 317.612 234.495 315.54 271.467 302.111C274.303 301.106 276.94 300.055 279.352 298.962C280.686 297.845 282.003 296.705 283.302 295.543C269.821 296.554 256.268 295.935 242.936 293.699Z" fill="#0057B8"/>
<path d="M329.539 221C316.505 231.542 288.98 240.681 250.023 245.923C201.304 252.179 151.955 251.692 103.369 244.477C76.6758 240.249 54.1002 233.821 39.5891 225.573C36.0776 223.649 32.8083 221.313 29.8506 218.615C35.0853 239.01 44.4353 258.119 57.326 274.767C58.3765 275.486 59.5066 276.203 60.7535 276.911C93.2322 295.364 173.255 303.1 239.494 294.194C240.672 294.035 241.837 293.872 242.99 293.706C269.009 289.944 288.704 284.097 300.732 277.258C314.108 260.691 323.916 241.537 329.539 221Z" fill="#319B42"/>
<path d="M330.09 218.875C318.715 220.608 278.758 220.955 255.646 216.345L255.636 216.347C254.946 216.445 254.253 216.543 253.556 216.639C252.89 216.732 252.22 216.824 251.545 216.915C233.859 219.247 216.064 220.654 198.231 221.13C138.099 222.844 77.649 214.949 44.5628 200.117C41.7137 198.841 39.0662 197.512 36.6415 196.135C36.5964 196.109 36.5539 196.085 36.5115 196.058C32.3185 193.791 28.4988 190.893 25.1865 187.466C25.1945 187.622 25.2024 187.782 25.2077 187.941C39.0556 213.002 75.6037 233.843 103.355 244.43H103.366C137.342 249.521 171.733 251.288 206.052 249.707C220.958 249.057 235.758 247.794 250.02 245.879L250.614 245.799C289.258 240.544 316.569 231.445 329.536 220.955C329.727 220.263 329.91 219.57 330.09 218.875Z" fill="#0057B8"/>
<path d="M246.568 154.82C199.444 160.885 151.699 160.271 104.747 152.994C80.6725 148.983 60.3412 143.06 47.0956 135.531C42.3692 133.08 38.2009 129.677 34.8527 125.538C28.3159 142.964 24.9781 161.428 25.0001 180.04C25.0001 182.55 25.0594 185.043 25.1778 187.521C28.5263 190.984 32.3903 193.909 36.6328 196.191C75.6799 218.379 171.898 227.682 251.534 216.973C252.913 216.787 254.278 216.597 255.627 216.403C295.329 210.675 322.762 200.899 334.7 189.781C334.899 186.561 334.999 183.314 335 180.04C335.02 162.104 331.921 144.301 325.842 127.426C315.833 138.987 288.063 149.241 246.568 154.82Z" fill="#78BE20"/>
<path d="M325.875 127.37C325.694 126.868 325.511 126.369 325.326 125.871C315.003 128.134 291.587 129.731 241.366 125.757C241.252 125.77 241.135 125.786 241.021 125.802L240.973 125.81C240.857 125.823 240.743 125.839 240.626 125.857C173.491 134.885 92.3749 127.041 59.4558 108.338L59.3285 108.264C54.8926 105.977 51.0185 102.735 47.985 98.772C47.908 98.8967 47.8311 99.0213 47.7568 99.146C52.2056 117.626 89.4143 145.95 104.78 152.938C109.915 153.792 115.221 154.561 120.662 155.238C162.501 160.261 204.8 160.102 246.6 154.763C288.096 149.184 315.866 138.931 325.875 127.37Z" fill="#0057B8"/>
<path d="M313.052 100.411C302.65 83.0586 288.967 67.8984 272.769 55.7772C266.723 63.2131 249.042 69.8293 222.45 73.4053C192.728 77.2316 162.615 76.8431 133.001 72.2513C117.816 69.7258 104.993 65.9853 96.6415 61.2394C93.5511 59.6551 90.849 57.4076 88.7281 54.6577C72.4039 66.5698 58.5519 81.5426 47.9434 98.7425C51.0084 102.744 54.9271 106.012 59.4142 108.309C92.3333 127.014 173.449 134.856 240.584 125.828C240.834 125.796 241.08 125.762 241.325 125.727C279.247 120.552 304.425 111.062 313.052 100.411Z" fill="#0085CA"/>
<path d="M270.995 54.5347C261.338 55.7444 242.564 56.6119 211.579 52.4814H211.576C211.449 52.5 211.327 52.5159 211.202 52.5345C191.088 55.108 170.724 55.0571 150.622 52.3833C137.615 50.5687 126.556 47.5949 119.666 43.6846C119.616 43.6528 119.563 43.6236 119.512 43.5944C117.582 42.5567 115.85 41.1873 114.395 39.5488C113.968 39.7478 113.546 39.9468 113.124 40.151C108.286 54.792 125.868 68.1384 133.005 72.322C162.617 76.9106 192.729 77.2973 222.45 73.4706C249.045 69.8973 266.723 63.2785 272.772 55.8452C272.183 55.4048 271.591 54.968 270.995 54.5347Z" fill="#0057B8"/>
<path d="M179.947 25.0002C157.279 24.9683 134.883 29.928 114.348 39.5271C115.845 41.2083 117.631 42.6081 119.622 43.6602C136.255 53.1096 177.236 57.0729 211.155 52.5101C211.282 52.4941 211.404 52.4782 211.529 52.4597C229.924 49.9501 242.376 45.4296 247.202 40.3097C226.225 30.2008 203.233 24.9671 179.947 25.0002Z" fill="#05C3DE"/>
<defs>
<linearGradient id="paint0_linear" x1="180" y1="0" x2="180" y2="360" gradientUnits="userSpaceOnUse">
<stop stop-color="#05C3DE"/>
<stop offset="0.273074" stop-color="#0085CA"/>
<stop offset="0.508596" stop-color="#78BE20"/>
<stop offset="0.768151" stop-color="#319B42"/>
<stop offset="1" stop-color="#05C3DE"/>
</linearGradient>
</defs>
</svg>
