<svg width="360" height="360" viewBox="0 0 360 360" fill="none" xmlns="http://www.w3.org/2000/svg">
<rect width="360" height="360" rx="82" fill="#0071BA"/>
<path d="M257.49 174.886H185.114V107.23H245.69C252.77 127.684 256.704 150.499 257.49 174.886ZM104.083 107.23H51.374L38 120.604V174.886H93.0693C93.0693 150.499 97.0028 127.684 104.083 107.23ZM93.0693 185.114H38V240.183L50.5873 252.77H104.083C97.0028 232.316 93.0693 209.501 93.0693 185.114ZM185.114 262.997V322.787H196.914C215.795 307.839 230.742 288.172 241.756 262.997H185.114ZM147.352 38H119.817L61.6011 97.0028H108.017C117.457 73.4017 130.831 53.7341 147.352 38ZM255.13 252.77H308.626L322 239.396V184.327H266.931C266.144 209.501 262.211 232.316 255.13 252.77ZM298.399 97.0028L239.396 38H212.648C229.169 53.7341 242.543 73.4017 251.983 97.0028H298.399ZM257.49 185.114H185.114V252.77H244.903C252.77 232.316 256.704 209.501 257.49 185.114ZM308.626 107.23H255.917C262.997 127.684 266.931 150.499 266.931 174.886H322V120.604L308.626 107.23ZM114.31 252.77H174.886V185.114H102.51C103.296 209.501 107.23 232.316 114.31 252.77ZM118.244 97.0028H174.886V38H162.299C143.418 52.1607 128.471 72.615 118.244 97.0028ZM197.701 38H185.114V97.0028H241.756C231.529 72.615 216.582 52.1607 197.701 38ZM60.8144 262.997L120.604 322.787H148.139C131.618 307.053 117.457 286.598 108.017 262.997H60.8144ZM163.086 322.787H174.886V262.997H118.244C129.258 287.385 144.205 307.839 163.086 322.787ZM211.861 322.787H239.396L299.186 262.997H251.983C242.543 286.598 228.382 307.053 211.861 322.787ZM102.51 174.886H174.886V107.23H114.31C107.23 127.684 103.296 150.499 102.51 174.886Z" fill="white"/>
</svg>
