<svg width="360" height="360" viewBox="0 0 360 360" fill="none" xmlns="http://www.w3.org/2000/svg">
<rect width="360" height="360" rx="82" fill="#451400"/>
<path d="M142.259 259.887C142.259 258.095 140.018 253.166 138.226 251.374C136.882 250.03 135.538 247.342 134.194 245.102C132.402 241.518 129.714 238.829 128.37 235.245C126.578 228.525 123.441 221.356 120.305 214.188C119.857 210.156 118.065 205.675 117.617 201.643C117.169 198.955 117.169 196.267 117.169 193.13C117.169 190.442 117.617 187.306 117.617 184.17V172.073C117.617 168.489 119.409 165.353 119.409 161.32C119.409 158.632 123.889 155.048 124.785 153.256C135.538 151.016 143.603 147.879 154.803 146.535C169.588 146.983 170.484 148.328 177.653 149.224C184.373 150.568 187.509 154.6 192.886 158.184C195.574 159.528 191.542 163.561 191.094 166.249C190.646 168.489 189.302 170.281 188.406 172.073C185.717 178.345 181.237 183.722 179.445 190.442C176.757 196.267 175.413 197.611 172.725 204.779C171.828 206.571 170.484 210.156 169.588 211.948C168.692 214.188 169.14 222.7 169.588 225.389C170.484 228.525 170.036 231.661 171.38 234.797C171.828 235.693 171.828 236.589 172.277 237.485C172.725 239.726 173.621 241.966 174.069 244.206C176.309 252.27 178.997 258.991 182.133 265.263C183.925 269.744 186.613 271.536 181.237 270.192C178.997 269.743 178.997 268.847 177.653 267.503C176.309 266.159 174.517 265.263 172.725 263.919C170.932 262.575 170.036 260.783 168.692 259.439C166.004 256.751 165.556 254.062 162.42 250.926C160.628 242.414 153.907 233.453 149.427 224.493C147.635 220.908 145.395 218.22 143.603 214.636C142.259 211.948 140.914 210.604 140.018 207.915C139.122 204.331 139.57 198.955 139.57 194.475C138.674 187.754 138.226 182.826 140.466 176.553C140.914 167.593 147.635 169.385 153.907 169.833C157.94 169.833 159.732 169.833 162.42 171.625C168.244 176.105 165.556 175.657 165.556 182.378C165.556 185.514 165.108 188.65 163.316 191.338C161.524 194.475 160.18 198.059 158.388 201.643C157.94 202.091 157.94 196.715 157.94 195.371C157.94 192.234 155.251 189.994 152.563 190.442C148.531 191.338 148.531 193.13 146.739 197.163C145.843 199.403 147.635 203.883 148.083 206.571C149.427 212.844 154.355 217.324 160.18 215.084C161.972 213.292 163.764 210.604 163.764 208.363C163.764 205.227 165.556 202.091 166.9 198.955C168.244 195.371 170.036 191.338 171.828 188.202C173.621 182.378 177.653 177.001 174.069 170.281C171.828 164.905 169.588 160.872 163.764 159.08C161.524 158.632 154.355 158.632 152.115 159.08C144.947 159.08 139.57 161.32 132.85 163.112C130.61 163.561 130.61 166.697 130.162 168.937C129.266 172.073 129.266 175.657 128.37 178.794C127.474 182.826 128.818 187.754 127.474 191.786C126.578 194.475 126.578 201.195 127.922 204.331C129.714 207.915 130.162 211.948 132.85 215.532C137.33 221.356 138.226 227.629 142.707 233.005C145.843 236.589 146.291 240.174 148.531 244.206C148.979 244.654 148.979 245.55 149.427 245.998C151.667 250.478 156.595 256.303 159.284 260.783C161.076 263.919 164.212 267.951 166.9 269.744C169.588 271.984 171.828 274.672 174.069 277.36C187.958 286.321 197.814 287.665 202.742 283.632C204.983 281.392 200.054 277.808 199.158 276.912C195.126 272.88 191.99 267.055 189.75 260.783C188.406 255.855 186.165 251.374 183.925 247.342C181.685 240.622 179.445 233.453 178.997 226.285C178.997 222.252 178.549 219.564 179.445 215.532C180.341 206.571 188.406 198.955 190.198 192.234C192.438 189.546 193.782 187.306 194.678 183.722C200.95 178.345 205.879 168.489 209.015 159.976C209.463 157.736 205.879 154.6 204.983 152.808C204.087 151.016 200.502 148.328 198.71 146.535C196.918 144.743 196.47 142.503 194.678 140.711C192.886 138.919 189.75 136.679 187.509 137.575C184.821 138.919 184.373 141.607 181.237 141.607H173.621C169.588 141.607 165.108 140.263 160.628 139.367C157.94 138.919 151.667 137.127 148.979 135.783C146.739 134.439 143.155 135.783 140.018 136.231C125.233 139.367 110 133.991 109.104 151.464C107.76 159.08 105.52 165.353 105.072 172.969C104.624 182.826 105.072 193.578 105.072 203.883C105.072 207.915 105.968 211.5 107.312 215.084C109.104 220.012 112.241 224.044 114.481 228.973C122.545 240.622 129.266 249.582 135.986 256.751C140.018 259.439 137.778 255.407 142.259 259.887Z" fill="white"/>
<path d="M162.437 117.411L141.38 100.386C140.484 100.386 140.036 100.834 139.14 100.834C131.523 102.626 117.186 101.282 111.362 105.314C101.057 111.139 94.3369 121.443 87.1685 128.612C84.9283 129.956 85.8244 135.332 84.9283 138.02C83.1362 142.501 83.5842 147.429 81.7921 151.909C80 156.838 80 164.006 80 169.831C80 177.895 80.448 185.96 80.448 194.024C80.448 199.848 81.7921 210.601 83.1362 215.978C83.1362 231.21 117.634 266.605 137.348 300.655C140.036 306.031 142.276 306.479 147.204 307.375C148.1 307.375 149.444 307.823 150.341 307.823C157.509 308.72 161.093 312.752 168.71 312.752C172.294 312.752 176.326 314.544 179.91 315.44C183.495 316.336 189.319 315.888 192.903 315.888C199.176 315.888 205.896 315.44 212.169 315.44C215.753 315.44 218.889 316.336 222.025 315.44C225.161 314.544 229.194 315.44 232.33 315.44C235.466 315.44 239.498 314.096 243.083 314.096C245.323 314.096 249.355 308.272 251.595 307.375C256.523 305.135 259.212 299.759 261.9 295.279C263.692 292.142 265.484 288.558 266.38 284.974C267.276 281.39 266.38 277.806 262.796 276.909C259.66 276.013 258.764 274.221 255.627 273.773C252.491 272.877 250.699 272.877 248.011 271.085C243.979 267.949 238.602 264.813 234.57 261.228C230.538 258.092 225.609 254.956 220.681 252.268C217.545 250.476 217.097 248.684 213.961 249.58C210.824 250.028 209.48 242.411 210.824 236.587C211.72 232.107 209.928 231.21 208.584 228.074C205.448 220.458 201.864 224.49 209.48 217.77C214.409 214.185 218.441 203.881 221.577 198.504C226.505 190.888 233.674 182.375 233.674 174.759C236.362 170.727 239.05 161.318 237.706 156.39C237.258 151.013 231.434 140.709 226.505 131.748C218.441 126.82 217.545 112.931 209.928 109.347C207.688 108.899 204.552 109.347 203.208 109.795C200.968 110.243 198.28 117.411 196.039 117.411C203.208 125.028 208.584 133.54 214.409 141.157C218.441 149.669 223.369 154.598 222.921 164.454C221.577 177.447 212.617 189.544 209.48 195.368C209.032 196.264 204.552 202.537 204.104 203.433C202.312 207.017 201.864 206.569 200.52 209.705C199.176 212.393 196.936 215.081 196.039 217.77C194.695 220.458 196.039 228.522 196.488 231.21C197.384 235.243 200.52 234.347 201.416 238.827C202.312 241.963 201.416 246.892 201.416 250.476C201.416 253.612 201.864 258.988 201.864 262.125C201.864 265.261 206.344 263.021 209.032 263.469C213.065 264.365 214.409 269.741 219.337 271.533C223.817 273.325 232.778 281.39 236.362 284.078C239.946 286.766 236.81 282.286 235.466 287.214C222.473 296.623 205.448 297.519 189.319 296.623C157.509 293.935 155.269 297.071 143.172 282.734C126.147 260.78 110.466 240.171 94.785 215.529C94.3369 199.848 94.785 181.031 95.681 165.35C95.681 156.39 97.9212 154.598 97.9212 145.637C100.161 133.092 110.914 125.028 120.771 121.891C134.66 117.859 148.548 117.411 162.437 117.411Z" fill="white"/>
<path d="M133.337 94.5618C127.96 91.8736 121.688 92.7697 116.312 93.6658C114.52 93.2177 120.792 90.5295 122.136 89.1855C124.376 86.4973 127.96 85.6012 131.097 84.2571C135.577 84.7052 142.745 86.9453 147.674 88.7374C152.154 89.6335 157.978 91.4256 162.459 91.4256C178.588 76.6407 197.405 61.4077 215.774 47.5188C218.462 46.1747 243.552 42.5905 250.272 43.0385C254.753 45.2786 260.129 43.4865 262.817 47.5188C267.297 54.2392 278.498 63.6478 276.706 69.0242C276.706 75.7446 274.466 82.465 272.674 89.1855C272.674 89.1855 262.369 90.0815 261.921 90.0815H255.201C252.512 90.0815 251.616 89.6335 250.72 89.1855C255.201 86.0493 257.889 83.8091 261.921 78.8808C263.265 77.5367 261.473 73.9525 261.025 72.6084C259.233 67.232 255.649 62.7518 253.857 57.3754C245.792 57.8234 235.487 57.3754 227.423 59.6156C224.735 60.9596 221.598 61.8557 219.358 64.0958C214.878 69.0242 213.534 69.0242 206.365 76.6407C207.262 83.8091 202.781 90.5296 203.677 97.698C207.262 105.763 205.917 103.522 218.462 104.866C220.702 105.315 224.287 104.418 225.631 105.315C226.079 105.763 226.079 106.211 225.631 106.659C225.183 107.555 225.183 111.587 221.598 113.379C218.462 115.171 210.398 116.067 206.814 116.963C206.365 116.963 205.469 117.411 205.021 117.411C202.781 117.859 201.437 118.307 198.749 118.755C191.581 119.651 188.892 124.58 184.412 127.716C181.276 129.508 175.451 129.06 170.523 129.06C167.835 129.06 166.939 128.612 165.147 127.716C163.803 126.82 163.355 124.132 162.907 122.788C162.459 121.444 159.322 118.755 158.426 117.859C157.53 115.171 156.186 115.171 154.394 113.379C152.154 111.139 150.362 109.347 147.674 107.107C145.882 105.763 145.434 104.418 143.641 102.626C140.057 99.0421 138.265 95.9059 133.337 94.5618Z" fill="white"/>
</svg>
