<svg width="360" height="360" viewBox="0 0 360 360" fill="none" xmlns="http://www.w3.org/2000/svg">
<rect width="360" height="360" rx="82" fill="#3893CE"/>
<path d="M166.638 137C107.77 137 64.8055 139.098 31 147.188C60.559 140.796 111.018 138.398 158.479 138.798C261.977 139.497 316.598 160.573 316.598 181.149C316.598 198.828 298.946 212.912 140.743 223L177.962 222.9C293.284 216.807 335 202.324 335 180.25C334.917 158.075 269.887 137 166.638 137Z" fill="#91BC50"/>
<path d="M253.278 158H224.528C200.308 158 199.437 186.227 215.642 186.227H226.967C232.02 186.227 231.672 194.068 226.445 194.068H194.907L202.922 158.174H189.331L169.293 188.144L172.952 158.174H159.71L138.801 194.068H119.111C104.649 194.068 107.611 168.28 125.035 168.28H147.513L153.437 158H126.255C92.8006 158 88.793 204 115.626 204H145.596L161.104 176.818L157.445 204H169.642L187.763 176.992L181.664 204H224.354C245.785 204 246.482 176.121 230.104 176.121H218.952C213.376 176.121 214.77 168.106 220.869 168.106H248.051L253.278 158Z" fill="white"/>
</svg>
