<svg width="360" height="360" viewBox="0 0 360 360" fill="none" xmlns="http://www.w3.org/2000/svg">
<rect width="360" height="360" rx="82" fill="#CC3232"/>
<path fill-rule="evenodd" clip-rule="evenodd" d="M132.395 135H83.1606C58.3151 135 36.2055 157.11 35.0669 177.625C33.7138 201.981 53.0744 225.721 76.3226 225.721H97.9768L110.285 193.125H83.1606C66.9765 193.354 68.7998 165.316 86.3519 165.316H120.999L132.395 135Z" fill="white"/>
<path fill-rule="evenodd" clip-rule="evenodd" d="M106.184 225.721L140.601 135H172.057L189.835 181.5L207.613 135H239.299L204.424 225.721H174.336L155.873 177.17L137.638 225.721H106.184Z" fill="white"/>
<path fill-rule="evenodd" clip-rule="evenodd" d="M268.928 160.986L259.355 186.287H278.502L268.928 160.986ZM286.707 207.485H251.378L244.312 225.721H212.856L247.276 135H290.583L325 225.721H293.545L286.707 207.485Z" fill="white"/>
</svg>
