<svg width="360" height="360" viewBox="0 0 360 360" fill="none" xmlns="http://www.w3.org/2000/svg">
<rect width="360" height="360" rx="82" fill="#084168"/>
<path d="M73.3136 233.974C36.8488 232.342 23 209.883 23 178.937C23 146.05 42.4888 123.748 72.0404 125.055C101.424 126.356 118.534 143.24 121.79 168.504H91.2388C89.7423 159.534 80.3664 151.928 72.0906 151.928C58.1134 151.928 54.7741 166.507 54.7741 179.963C54.7741 193.414 59.4201 207.583 72.9897 207.583C81.6731 207.583 90.6246 201.396 91.4399 191.827L121.997 192.034C121.997 218.195 98.3587 235.101 73.3136 233.974" fill="white"/>
<path d="M283.317 233.974C246.853 232.342 233.004 209.883 233.004 178.937C233.004 146.05 252.493 123.748 282.044 125.055C311.428 126.356 328.538 143.24 331.794 168.504H301.243C299.746 159.534 290.37 151.928 282.095 151.928C268.117 151.928 264.778 166.507 264.778 179.963C264.778 193.414 269.424 207.583 282.994 207.583C291.677 207.583 300.628 201.396 301.444 191.827L332 192.034C332 218.195 308.363 235.101 283.317 233.974" fill="white"/>
<path d="M189.31 231.198L158.496 178.113L158.29 231.72L128.146 231.198L128.755 130.44L158.497 130.238L193.331 184.255L192.716 130.238L223.474 130.44V231.72L189.31 231.198H189.31Z" fill="white"/>
</svg>
