<svg width="360" height="360" viewBox="0 0 360 360" fill="none" xmlns="http://www.w3.org/2000/svg">
<rect width="360" height="360" rx="82" fill="#B5121B"/>
<mask id="mask0" mask-type="alpha" maskUnits="userSpaceOnUse" x="0" y="0" width="360" height="360">
<rect width="360" height="360" rx="82" fill="#B5121B"/>
</mask>
<g mask="url(#mask0)">
<path d="M126.214 295.367C100.088 291.531 76.6581 279.712 58.2041 260.947C41.2015 243.737 29.6936 221.136 25.9614 198.017C24.5099 188.271 24.7173 169.61 26.4797 159.554C33.5296 119.017 63.9061 83.7679 103.095 70.4976C127.873 62.0999 156.487 61.7889 180.021 69.8755C188.626 72.7784 204.074 80.3466 207.806 83.3532L210.398 85.5303L197.439 114.559C190.285 130.525 184.168 143.795 183.961 144.003C183.754 144.21 181.369 142.344 178.674 139.959C162.086 125.341 137.826 122.335 117.298 132.287C109.626 136.02 97.8076 147.942 94.0753 155.718C88.3733 167.64 86.9218 179.978 89.6173 193.04C94.179 214.397 109.212 228.497 130.154 231.193C135.338 231.918 164.885 232.229 209.776 232.022H361.5V296.818L206.666 296.404C165.714 296.3 129.532 295.885 126.214 295.367Z" fill="#FEFCFC"/>
</g>
</svg>
