<svg width="360" height="360" viewBox="0 0 360 360" fill="none" xmlns="http://www.w3.org/2000/svg">
<rect width="360" height="360" rx="82" fill="#1E9CD6"/>
<path d="M338.789 175.277H179.805C179.834 176.795 179.834 178.313 179.834 179.831C179.834 181.518 179.834 183.12 179.805 184.806H337.685L338.789 175.277Z" fill="#1E9CD6"/>
<path d="M181.267 175.446H335.872C333.596 91.9587 265.169 25 181.115 25C95.3919 25 26.0547 94.4043 26.0547 180C26.0547 265.596 95.3919 335 181.115 335C265.018 335 333.293 268.294 335.872 184.976H181.267V175.446Z" fill="white"/>
<path d="M360 175H336C336.005 176.593 336.005 178.186 336.005 179.779C336.005 181.549 336.005 183.23 336 185H359.833L360 175Z" fill="white"/>
</svg>
