<svg width="360" height="360" viewBox="0 0 360 360" fill="none" xmlns="http://www.w3.org/2000/svg">
<rect width="360" height="360" rx="82" fill="#004879"/>
<circle cx="180" cy="180" r="155.455" fill="#4681C7" fill-opacity="0.06"/>
<circle cx="180" cy="180" r="155.205" stroke="#2869BF" stroke-opacity="0.04" stroke-width="0.5"/>
<path d="M324.707 126.671C295.186 94.1112 105.246 123.399 24.4738 141.043L22.5915 141.451C22.2033 141.52 21.9472 141.893 22.0093 142.277C22.0791 142.669 22.4478 142.926 22.8398 142.86L24.7067 142.495C91.627 130.579 230.793 114.061 260.74 143.752C269.877 152.811 267.695 164.486 257.104 178.253C260.982 183.215 264.006 187.782 268.716 194.915C310.071 167.401 337.86 141.179 324.707 126.671ZM257.104 178.253C257.085 178.268 257.065 178.28 257.045 178.295C238.318 191.55 160.825 253.397 136.96 268.014L136.017 268.561C135.698 268.791 135.617 269.229 135.85 269.555C136.071 269.877 136.514 269.955 136.836 269.726L137.631 269.307C157.872 258.742 244.948 207.987 268.34 195.12C268.468 195.054 268.592 194.981 268.716 194.915C267.428 192.807 259.952 181.557 257.104 178.253Z" fill="#D22F2F"/>
<path d="M257.104 178.253C267.695 164.486 269.877 152.811 260.74 143.752C230.793 114.061 91.627 130.579 24.7067 142.495L22.8398 142.86C22.4478 142.926 22.0791 142.669 22.0093 142.277C21.9472 141.893 22.2033 141.52 22.5915 141.451L24.4738 141.043C105.246 123.399 295.186 94.1112 324.707 126.671C337.86 141.179 310.071 167.401 268.716 194.915M257.104 178.253C260.982 183.215 264.006 187.782 268.716 194.915M257.104 178.253C257.085 178.268 257.065 178.28 257.045 178.295C238.318 191.55 160.825 253.397 136.96 268.014L136.017 268.561C135.698 268.791 135.617 269.229 135.85 269.555C136.071 269.877 136.514 269.955 136.836 269.726L137.631 269.307C157.872 258.742 244.948 207.987 268.34 195.12C268.468 195.054 268.592 194.981 268.716 194.915M257.104 178.253C259.952 181.557 267.428 192.807 268.716 194.915" stroke="#D22F2F" stroke-width="2"/>
</svg>
