<svg width="360" height="360" viewBox="0 0 360 360" fill="none" xmlns="http://www.w3.org/2000/svg">
<rect width="360" height="360" rx="82" fill="#19468D"/>
<path d="M270.22 197.447H181.996C181.996 197.447 158.695 196.913 158.695 173.078C158.695 151.378 181.107 151.734 181.107 151.734C181.107 151.734 195.158 150.133 207.965 172.545C227.887 159.738 240.693 151.2 240.693 151.2C240.693 151.2 221.306 112.424 180.217 112.424C139.129 112.424 118.674 153.157 118.674 172.367C118.674 207.585 147.845 235.511 171.679 235.511H293.877L270.22 197.447Z" fill="white"/>
<path d="M300.098 245.116L325 283.892H169.185C140.37 283.892 71 251.697 71 173.256C71 119.184 118.669 66 180.747 66C199.601 66 248.16 72.937 279.999 125.587C261.144 138.038 247.804 146.931 247.804 146.931C247.804 146.931 224.503 104.598 180.391 104.598C138.769 104.598 110.665 139.283 110.665 173.434C110.665 215.234 143.216 244.583 172.387 244.583C207.249 244.583 300.098 245.116 300.098 245.116Z" fill="white"/>
</svg>
