<svg width="360" height="360" viewBox="0 0 360 360" fill="none" xmlns="http://www.w3.org/2000/svg">
<rect width="360" height="360" rx="82" fill="black"/>
<path fill-rule="evenodd" clip-rule="evenodd" d="M335 167.632L211.805 166.96L253.322 124.771L238.589 108.702L193.056 151.555V88.6165H171.625V149.546L124.755 103.349L107.342 120.09L148.185 164.951H85.92V192.398L148.858 191.735L105.333 233.242L120.738 248.638L164.254 210.475V272.077H192.374V213.147L233.881 251.319L250.622 237.922L212.459 195.733H331.656C330.983 233.233 310.897 264.706 288.131 288.809C252.64 322.955 195.727 339.686 144.85 328.98C101.325 318.274 68.525 296.171 47.0941 260.017C32.3709 233.233 26.3359 200.423 25 171.631C30.353 114.718 63.1626 67.849 106.688 45.0822C143.514 29.0138 181.014 23.6607 216.495 31.6856C264.71 43.0737 300.191 73.8747 321.613 113.373C326.966 132.142 331.656 149.546 335 167.632Z" fill="white"/>
</svg>
