<svg width="360" height="360" viewBox="0 0 360 360" fill="none" xmlns="http://www.w3.org/2000/svg">
<rect width="360" height="360" rx="82" fill="#E58E1A"/>
<path d="M175.258 297.135C237.172 297.135 287.364 244.275 287.364 179.068C287.364 113.861 237.172 61 175.258 61C113.343 61 63.1514 113.861 63.1514 179.068C63.1514 244.275 113.343 297.135 175.258 297.135Z" fill="url(#paint0_radial)"/>
<path d="M153.474 74.2925C157.725 75.0438 161.876 76.2763 165.848 77.966C170.44 80.2538 174.098 80.7211 177.771 78.8843C181.445 77.0476 176.385 72.4396 185.102 75.2108C193.818 77.9821 192.433 75.662 195.188 80.2538C197.943 84.8457 202.068 84.8457 204.356 87.5847C206.644 90.3238 207.578 90.8071 207.578 93.5461C207.578 96.2852 202.068 94.9156 202.535 98.5892C203.002 102.263 205.757 106.387 205.757 108.675C205.757 110.963 202.084 111.898 199.796 109.126C197.508 106.355 192.465 99.9587 192.465 98.573C192.465 97.1874 187.873 91.2421 187.873 91.2421L180.542 86.6503C180.542 86.6503 174.098 85.7319 174.098 87.1014C174.098 88.4709 180.059 90.7749 180.542 95.8179C181.026 100.861 184.667 104.534 185.585 105.904C186.504 107.273 187.873 112.349 189.71 115.571C191.547 118.793 195.671 121.532 198.426 123.369C201.182 125.206 198.426 130.7 197.057 131.618C195.687 132.537 184.683 137.129 180.945 138.498C177.207 139.868 176.82 141.721 176.82 147.666C176.82 153.611 177.288 156.382 172.696 157.752C168.104 159.121 167.186 156.834 166.251 162.344C165.317 167.854 165.333 169.224 166.718 171.06C168.104 172.897 164.882 177.505 164.882 177.505C165.546 179.083 166.31 180.617 167.169 182.097C168.088 183.466 174.049 184.385 174.5 185.77C175.3 187.513 176.221 189.199 177.255 190.813L183.217 189.444C183.217 189.444 189.178 191.732 186.439 192.666C184.196 193.27 181.883 193.579 179.559 193.585C179.559 193.585 166.267 186.705 165.8 185.335C165.333 183.966 154.344 178.456 152.91 178.456C151.476 178.456 138.7 172.494 138.233 178.907C137.765 185.319 146.031 195.873 146.031 195.873C146.031 195.873 159.79 193.585 159.79 196.791C159.79 199.997 157.502 205.04 158.872 206.877C160.241 208.714 168.539 211.002 168.539 211.002C168.539 211.002 176.337 203.203 180.462 204.557C184.586 205.91 185.956 209.149 190.129 209.149C194.302 209.149 197.009 205.926 198.845 207.312C200.682 208.698 206.176 214.643 207.562 214.643C208.948 214.643 216.278 211.888 218.566 215.094C220.854 218.3 222.24 224.262 223.609 224.761C224.979 225.261 231.407 224.31 233.276 224.761C235.145 225.212 238.787 225.68 238.787 225.68L241.542 225.228C241.409 225.53 241.355 225.861 241.384 226.19C241.412 226.518 241.523 226.834 241.706 227.109C241.889 227.383 242.138 227.607 242.431 227.76C242.723 227.913 243.049 227.99 243.379 227.984C246.134 228.435 245.215 227.065 246.134 228.435C247.052 229.804 245.215 237.602 242.46 239.89C240.061 241.948 238.309 244.656 237.417 247.688C236.499 250.443 234.195 256.856 230.972 259.611C228.072 261.828 225.007 263.821 221.805 265.573C220.435 266.491 208.513 280.25 205.306 281.169C202.639 281.881 200.031 282.802 197.508 283.924C194.286 285.293 192.916 287.146 188.34 289.885C185.667 291.435 183.445 293.657 181.896 296.33C181.896 296.33 181.428 298.167 179.141 295.412C176.853 292.657 174.098 294.944 175.016 291.287C175.934 287.63 183.732 272.952 183.732 270.197C183.732 267.441 185.102 261.947 183.265 259.643C181.428 257.339 178.222 256.421 175.934 254.149C173.646 251.877 170.891 252.312 170.424 248.639C170.225 246.029 169.079 243.583 167.202 241.759C165.832 240.39 162.61 237.167 163.077 235.314C163.544 233.462 175 222.425 171.326 216.512C170.264 214.626 168.736 213.044 166.889 211.916C165.041 210.788 162.936 210.151 160.773 210.067C159.404 210.067 152.975 206.394 152.057 204.106C151.138 201.818 155.279 201.818 149.301 200.432C143.324 199.047 129.967 191.716 127.293 189.428C124.618 187.14 120.848 183.466 120.848 180.26C120.848 177.054 121.299 174.766 119.929 172.462C118.56 170.158 111.68 161.458 111.68 157.333C111.68 153.208 117.19 122.95 118.125 118.81C118.792 116.41 119.25 113.957 119.494 111.479C119.494 110.109 123.619 105.034 123.619 101.393C123.619 97.7513 123.619 92.225 119.494 93.5945C115.37 94.964 114 98.6375 111.696 96.8168C109.392 94.9962 108.474 87.6492 109.86 89.4859C111.245 91.3227 115.821 92.2411 117.19 90.8555C118.56 89.4698 123.635 84.8941 123.635 84.8941C125.094 82.9555 126.994 81.3925 129.178 80.3344C132.4 78.9649 134.672 77.112 136.509 76.2098C138.345 75.3075 148.431 70.6673 153.474 74.2925Z" fill="url(#paint1_linear)"/>
<path d="M193.834 62.837C193.834 62.837 218.598 67.88 230.972 76.5966C243.346 85.3131 265.354 104.1 276.826 131.167C283.948 147.972 286.493 174.267 286.493 178.391C286.493 182.516 286.961 190.765 286.961 190.765C286.961 190.765 282.836 182.049 281.45 182.967C280.065 183.885 279.162 188.01 276.407 187.559C273.652 187.108 266.74 180.228 266.74 178.842C266.74 177.457 268.577 168.756 265.371 164.632C263.012 161.412 261.585 157.604 261.246 153.627C261.246 152.258 261.246 148.133 262.164 146.296C263.083 144.46 261.697 137.58 261.697 137.58C261.697 137.58 258.475 135.292 260.328 132.537C262.18 129.782 263.083 126.092 261.697 126.092C260.312 126.092 262.615 129.315 258.024 127.929C253.432 126.543 251.579 126.559 252.062 122.886C252.546 119.212 253.899 116.441 252.062 115.088C250.225 113.734 246.101 110.496 244.264 109.126C242.427 107.757 239.221 105.904 239.221 105.904C239.221 105.904 240.139 109.578 236.466 108.192C232.792 106.806 233.244 104.067 232.792 100.861C232.341 97.6548 227.298 93.9813 227.298 93.9813L236.466 98.5731C238.303 99.4915 240.139 99.9426 240.139 97.2036C240.139 94.4646 233.26 88.4871 228.668 87.1176C224.076 85.7481 220.87 81.1562 219.5 80.6729C218.131 80.1895 210.332 77.4505 210.784 75.1787C211.051 74.1364 210.973 73.0353 210.56 72.0414C210.148 71.0475 209.423 70.2146 208.496 69.6685C206.659 68.7501 201.165 66.9133 199.779 67.8317C198.394 68.7501 193.334 67.3645 194.269 69.6685C195.203 71.9724 201.6 72.8908 199.312 73.7931C198.466 74.2528 197.519 74.4936 196.557 74.4936C195.594 74.4936 194.647 74.2528 193.802 73.7931C192.432 72.8747 191.514 71.038 187.357 70.1196C183.2 69.2012 180.026 71.9563 179.559 68.7501C179.092 65.5438 181.847 64.6254 179.108 63.7071L176.481 62.837C176.481 62.837 189.709 61.4514 193.834 62.837Z" fill="#38939B"/>
<path d="M99.8379 266.877L91.5886 259.079C91.5886 259.079 63.1512 259.079 62.7001 238.907C62.2489 218.735 96.1644 186.672 136.976 165.082C177.787 143.493 225.011 123.836 270.865 122.434C316.72 121.033 323.1 133.503 322.214 145.829C321.328 158.154 295.162 181.13 287.364 186.672L286.897 198.128C286.897 198.128 305.699 188.042 316.704 174.282C327.708 160.523 336.876 143.106 326.371 127.558C315.866 112.01 272.718 109.674 234.211 116.554C195.703 123.433 127.873 154.159 88.3985 185.835C48.9244 217.51 45.2993 242.693 61.7978 257.371C78.2963 272.049 99.8379 266.877 99.8379 266.877Z" fill="#F6FB29"/>
<path d="M76.4429 237.521C76.4429 237.521 40.2234 238.891 32.4253 221.023C24.6271 203.155 49.391 172.413 92.9414 144.443C136.492 116.473 199.779 88.5029 246.085 83.9271C292.39 79.3513 305.699 90.3718 307.068 103.261C308.438 116.151 294.694 136.275 294.694 136.275C294.694 136.275 309.823 110.141 297.917 98.6695C286.01 87.1978 256.654 87.6651 222.723 97.7511C188.791 107.837 115.417 133.503 81.9531 162.795C48.4888 192.086 42.0601 205.894 42.5274 215.964C42.9946 226.034 48.9399 233.397 76.4429 237.521Z" fill="#F6FB29"/>
<defs>
<radialGradient id="paint0_radial" cx="0" cy="0" r="1" gradientUnits="userSpaceOnUse" gradientTransform="translate(75.3642 182.29) scale(213.192)">
<stop offset="0.22" stop-color="#38939B"/>
<stop offset="0.32" stop-color="#3D959D"/>
<stop offset="0.42" stop-color="#4A9CA3"/>
<stop offset="0.53" stop-color="#60A8AE"/>
<stop offset="0.64" stop-color="#7FB7BD"/>
<stop offset="0.76" stop-color="#A7CCD0"/>
<stop offset="0.81" stop-color="#BBD6D9"/>
<stop offset="0.83" stop-color="#B4D2D6"/>
<stop offset="0.87" stop-color="#A0C8CC"/>
<stop offset="0.92" stop-color="#80B8BD"/>
<stop offset="0.97" stop-color="#54A1A8"/>
<stop offset="1" stop-color="#38939B"/>
</radialGradient>
<linearGradient id="paint1_linear" x1="91.5565" y1="184.852" x2="228.62" y2="184.852" gradientUnits="userSpaceOnUse">
<stop stop-color="#BBD6D9"/>
<stop offset="0.05" stop-color="#ABCED2"/>
<stop offset="0.17" stop-color="#88BCC1"/>
<stop offset="0.31" stop-color="#6BADB3"/>
<stop offset="0.45" stop-color="#54A2A8"/>
<stop offset="0.6" stop-color="#4499A1"/>
<stop offset="0.77" stop-color="#3B959C"/>
<stop offset="1" stop-color="#38939B"/>
</linearGradient>
</defs>
</svg>
