<svg width="360" height="360" viewBox="0 0 360 360" fill="none" xmlns="http://www.w3.org/2000/svg">
<rect width="360" height="360" rx="82" fill="#1987C7"/>
<path d="M115.99 207.98C124.454 216.444 124.454 229.14 115.99 237.604L108.584 245.01C100.119 253.474 87.4232 253.474 78.959 245.01L31.3481 197.399C22.884 188.935 22.884 176.239 31.3481 167.775L38.7543 160.369C47.2184 151.904 59.9147 151.904 68.3788 160.369L115.99 207.98ZM110.7 116.99C102.235 108.526 89.5392 108.526 81.0751 116.99L73.6689 124.396C65.2048 132.86 65.2048 145.556 73.6689 154.02L121.28 201.631C129.744 210.096 142.44 210.096 150.904 201.631L158.311 194.225C166.775 185.761 166.775 173.065 158.311 164.601L110.7 116.99ZM237.662 159.311C229.198 150.846 216.502 150.846 208.038 159.311L200.631 166.717C192.167 175.181 192.167 187.877 200.631 196.341L248.242 243.952C256.706 252.416 269.403 252.416 277.867 243.952L285.273 236.546C293.737 228.082 293.737 215.386 285.273 206.921L237.662 159.311ZM281.041 115.932C272.577 107.468 259.881 107.468 251.416 115.932L244.01 123.338C235.546 131.802 235.546 144.498 244.01 152.962L291.621 200.573C300.085 209.038 312.782 209.038 321.246 200.573L328.652 193.167C337.116 184.703 337.116 172.007 328.652 163.543L281.041 115.932ZM201.689 69.3788C210.154 60.9147 210.154 48.2184 201.689 39.7543L194.283 32.3481C185.819 23.884 173.123 23.884 164.659 32.3481L117.048 79.959C108.584 88.4232 108.584 101.119 117.048 109.584L124.454 116.99C132.918 125.454 145.614 125.454 154.078 116.99L201.689 69.3788ZM244.01 111.7C252.474 103.235 252.474 90.5392 244.01 82.0751L236.604 74.6689C228.14 66.2048 215.444 66.2048 206.98 74.6689L159.369 122.28C150.904 130.744 150.904 143.44 159.369 151.904L166.775 159.311C175.239 167.775 187.935 167.775 196.399 159.311L244.01 111.7ZM201.689 236.546C210.154 228.082 210.154 215.386 201.689 206.921L194.283 199.515C185.819 191.051 173.123 191.051 164.659 199.515L117.048 247.126C108.584 255.59 108.584 268.287 117.048 276.751L124.454 284.157C132.918 292.621 145.614 292.621 154.078 284.157L201.689 236.546ZM244.01 278.867C252.474 270.403 252.474 257.706 244.01 249.242L236.604 241.836C228.14 233.372 215.444 233.372 206.98 241.836L160.427 290.505C151.962 298.969 151.962 311.666 160.427 320.13L167.833 327.536C176.297 336 188.993 336 197.457 327.536L244.01 278.867Z" fill="white"/>
</svg>
