<svg width="360" height="360" viewBox="0 0 360 360" fill="none" xmlns="http://www.w3.org/2000/svg">
<rect width="360" height="360" rx="82" fill="#19C7BD"/>
<path fill-rule="evenodd" clip-rule="evenodd" d="M245.79 39.8072C199.346 22.7526 137.833 45.7118 131.457 92.3032C125.392 136.858 152.196 162.009 208.688 173.182C267.29 184.758 260.575 235.959 245.845 253.183C222.218 280.811 186.003 283.497 157.203 273.551C99.0271 258.442 55.2553 202.605 66.5976 132.422C78.2328 61.0683 136.757 25.8559 197.075 25.9887C191.464 25.3753 185.779 25 179.998 25C94.3995 25 25 94.4087 25 180.021C25 265.623 94.3995 335.041 179.998 335.041C265.619 335.041 335 265.623 335 180.021C335 117.958 298.46 64.5699 245.79 39.8072Z" fill="#231F20"/>
</svg>
