<svg width="360" height="360" viewBox="0 0 360 360" fill="none" xmlns="http://www.w3.org/2000/svg">
<rect width="360" height="360" rx="82" fill="#192958"/>
<path d="M334.949 180.318C334.949 161.528 265.576 146.272 179.974 146.272C150.392 146.114 120.838 148.15 91.5566 152.364C91.9661 151.135 92.3245 149.907 92.7853 148.729C107.377 109.205 149.307 80.5854 198.61 80.5854C212.267 80.558 225.832 82.8074 238.749 87.2411C222.785 80.3995 205.585 76.9142 188.217 77.0016C135.279 76.848 90.635 108.642 77.0165 151.955C76.4021 153.9 75.8902 155.846 75.3782 157.791C73.6152 164.997 72.7214 172.388 72.7159 179.806C72.7147 182.884 72.8685 185.959 73.1767 189.021C77.6309 190.557 82.7506 191.786 88.2799 193.015C87.6323 188.642 87.3072 184.227 87.3072 179.806C87.3139 172.698 88.1734 165.616 89.8671 158.713C121.481 153.409 153.5 150.891 185.555 151.187C263.682 151.187 327.064 163.986 327.064 179.755C327.064 195.523 263.682 208.323 185.555 208.323C107.428 208.323 43.9942 195.677 43.9942 179.806C43.9942 174.328 51.725 169.157 65.0875 164.805C65.4971 162.501 65.9579 160.197 66.5211 157.893V157.279C40.82 163.372 25 171.512 25 180.318C25 190.557 44.8646 199.414 76.4533 205.661C89.3551 249.946 134.511 282.457 188.217 282.457C205.585 282.547 222.786 279.061 238.749 272.217C225.832 276.651 212.267 278.9 198.61 278.873C148.334 278.873 105.841 249.127 92.0173 208.323C121.16 212.562 150.576 214.65 180.026 214.569C265.628 214.569 335 199.21 335 180.523L334.949 180.318Z" fill="white"/>
</svg>
