<svg width="360" height="360" viewBox="0 0 360 360" fill="none" xmlns="http://www.w3.org/2000/svg">
<rect width="360" height="360" rx="82" fill="#0D52A0"/>
<path d="M255.84 117.855C223.43 118.321 196.51 145.342 196.915 178.015C196.861 185.767 198.348 193.451 201.291 200.622C204.234 207.794 208.573 214.308 214.056 219.788C219.539 225.267 226.056 229.601 233.23 232.539C240.403 235.477 248.088 236.959 255.84 236.9C263.673 237.034 271.455 235.611 278.734 232.712C286.013 229.814 292.643 225.498 298.241 220.016C303.838 214.534 308.29 207.995 311.339 200.777C314.387 193.56 315.972 185.809 316 177.975C316.102 145.342 289.08 118.321 255.84 117.855ZM255.84 217.292C245.575 217.059 235.809 212.817 228.631 205.475C221.454 198.133 217.435 188.273 217.435 178.005C217.435 167.737 221.454 157.878 228.631 150.535C235.809 143.193 245.575 138.952 255.84 138.718C277.595 139.245 295.157 156.139 295.116 178.015C295.016 188.401 290.846 198.333 283.502 205.677C276.157 213.021 266.225 217.192 255.84 217.292Z" fill="white"/>
<path d="M312.311 252.882C312.716 253.409 312.048 266.231 312.311 272.531H128.163C55.241 268.257 34.3569 211.519 36.099 169.407C39.0969 124.398 72.8638 89.2736 117.123 82.3055C139.75 79.1456 163.409 81.1712 180.95 94.52V117.855C144.489 87.9165 91.1146 98.0648 65.4906 138.719C38.3474 181.135 66.7262 251.363 131.789 252.882H312.311Z" fill="white"/>
<path d="M133.083 117.855C101.241 118.321 74.219 145.342 74.1582 178.015C74.2063 193.625 80.4312 208.58 91.4726 219.614C102.514 230.648 117.474 236.862 133.083 236.9C166.789 237.143 193.852 210.81 193.224 177.975C193.811 145.342 166.789 118.321 133.083 117.855ZM133.083 217.292C112.827 216.927 95.1638 199.365 95.022 178.015C95.0575 167.816 99.041 158.026 106.137 150.7C113.233 143.374 122.89 139.08 133.083 138.718C155.365 139.245 172.866 156.139 172.36 178.015C172.866 199.365 155.304 216.927 133.083 217.292Z" fill="white"/>
</svg>
