<svg width="360" height="360" viewBox="0 0 360 360" fill="none" xmlns="http://www.w3.org/2000/svg">
<rect width="360" height="360" rx="82" fill="#005DAA"/>
<path d="M329.308 154.577C324.048 148.199 314.766 144.541 303.848 144.541C292.296 144.541 281.897 148.469 274.695 154.844L275.869 147.484L272.746 146.555C268.326 145.237 263.418 144.541 258.551 144.541C250.188 144.541 242.19 147.126 235.729 151.387L237.588 145.26H187.579L186.986 147.217C182.543 145.43 177.655 144.541 172.147 144.541C161.852 144.541 150.709 148.536 144.923 156.229C144.544 155.666 144.147 155.111 143.706 154.577C138.444 148.199 129.163 144.541 118.243 144.541C107.034 144.541 96.8969 148.236 89.726 154.284L92.5176 137.312L89.3455 136.395C83.9286 134.828 77.9089 134 71.9354 134C50.0207 134 30.0742 147.93 26.5266 165.711C25.0163 173.275 26.7802 180.603 31.4889 186.346C35.5026 191.239 41.4301 194.727 48.4725 196.509H26.7605V224.281H137.357L137.528 223.941L137.549 224.281H150.862L152.667 221.337L152.108 224.281H182.207L182.648 221.96C185.293 223.673 188.727 224.603 192.682 224.603C196.216 224.603 199.495 223.871 202.321 222.568L201.997 224.281H244.197L244.27 223.903C246.227 224.345 248.282 224.605 250.245 224.605C251.438 224.605 252.666 224.498 253.888 224.282H269.978L271.172 221.748H272.244L272.572 224.282H322.195L324.662 211.288H323.756L324.096 209.502H324.745L327.215 196.509H325.841C326.961 195.496 327.777 194.195 328.058 192.715C328.391 190.956 327.935 189.165 326.807 187.805C326.513 187.453 326.177 187.143 325.815 186.865C329.751 182.821 332.48 177.928 333.541 172.427C334.837 165.68 333.376 159.507 329.308 154.577ZM300.598 210.316H299.075L301.374 198.234C301.898 198.166 302.42 198.09 302.937 198.008L300.598 210.316ZM265.083 171.012C264.925 171.819 264.816 172.617 264.735 173.402C261.387 175.642 258.25 176.701 254.893 176.701C252.622 176.701 250.655 175.96 249.633 174.718C249.05 174.013 248.854 173.224 249.035 172.307C249.633 169.212 253.831 166.498 258.016 166.498C260.634 166.498 263.095 167.424 265.508 169.318C265.358 169.879 265.191 170.438 265.083 171.012ZM268.472 196.508L266.838 199.201L265.48 198.44C264.585 197.937 263.625 197.55 262.635 197.214C263.36 197.041 264.037 196.847 264.627 196.633L266.532 195.941L268.405 187.731C268.658 188.083 268.899 188.444 269.179 188.783C272.005 192.207 276.076 194.826 280.993 196.506L268.472 196.508ZM285.046 197.644L284.395 201.062L283.491 197.265C284.003 197.399 284.517 197.529 285.046 197.644ZM300.969 166.857C303.008 166.857 304.577 167.399 305.391 168.382C306.137 169.288 306.111 170.443 305.951 171.255C305.302 174.603 301.865 176.942 297.581 176.942C295.498 176.942 293.851 176.392 293.06 175.433C292.513 174.769 292.35 173.839 292.577 172.664C293.132 169.779 296.194 166.857 300.969 166.857ZM206.79 199.003C206.203 198.606 205.566 198.255 204.901 197.939H206.994L206.79 199.003ZM195.276 210.313C195.006 210.553 194.566 210.714 194.057 210.744C194.317 210.52 194.726 210.336 195.276 210.313ZM192.003 167.17L189.52 175.346C189.36 173.162 188.68 171.177 187.487 169.412C186.995 168.689 186.408 168.03 185.763 167.404L192.003 167.17ZM120.345 171.253C119.698 174.603 116.255 176.942 111.975 176.942C109.893 176.942 108.245 176.392 107.454 175.433C106.906 174.769 106.744 173.839 106.971 172.664C107.53 169.777 110.592 166.857 115.364 166.857C117.403 166.857 118.975 167.399 119.787 168.382C120.531 169.288 120.501 170.444 120.345 171.253ZM149.047 197.837L148.966 198.008L148.95 197.822C148.983 197.825 149.014 197.832 149.047 197.837ZM186 186.952L183.1 196.508H171.961C177.655 194.628 182.76 191.478 186 186.952ZM187.209 197.939H187.83C187.599 198.036 187.375 198.135 187.153 198.239L187.209 197.939ZM67.3749 172.874C64.1962 172.874 61.4425 171.829 60.008 170.082C59.1779 169.071 58.8995 167.951 59.1565 166.66C59.9865 162.501 65.5319 158.988 71.265 158.988C75.1354 158.988 78.7209 160.441 82.2224 163.407C81.2968 165.136 80.5606 166.948 80.0253 168.837C75.7481 171.574 71.7081 172.874 67.3749 172.874ZM132.892 192.563L136.51 194.192C138.509 195.091 140.731 195.86 143.057 196.509H136.326L135.604 197.954L135.512 196.509H123.874C127.129 195.51 130.151 194.18 132.892 192.563ZM221.081 210.316L223.706 196.508H210.965L219.893 167.084L222.616 167.188C222.113 168.532 221.69 169.901 221.415 171.312C220.145 177.879 221.688 184.216 225.766 189.156C228.452 192.412 232.142 194.885 236.458 196.506H225.231L222.604 210.314L221.081 210.316ZM79.1656 195.475L81.0843 194.8L82.7609 187.675C83.0294 188.049 83.2797 188.428 83.5762 188.785C86.4007 192.209 90.4721 194.828 95.3867 196.508H75.0663C76.6029 196.219 78.016 195.879 79.1656 195.475ZM309.48 196.508C311.131 195.999 312.72 195.409 314.247 194.739C314.471 195.276 314.742 195.795 315.12 196.251C315.2 196.346 315.306 196.419 315.39 196.508H309.48Z" fill="white"/>
<path d="M131.709 200.657L132.482 212.872H132.677C133.077 211.624 133.521 210.321 134.144 209.099L138.355 200.657H145.196L146.23 212.872H146.426C146.782 211.677 147.184 210.427 147.731 209.262L151.842 200.657H161.126L148.571 221.124H140.785L140.099 209.994H139.805C139.507 211.055 139.245 212.085 138.761 213.089L134.758 221.124H127.166L122.456 200.657H131.709Z" fill="#005DAA"/>
<path d="M160.476 200.657H169.076L167.766 207.551H173.238L174.549 200.657H183.149L179.261 221.124H170.661L172.012 214.012H166.538L165.187 221.124H156.587L160.476 200.657Z" fill="#005DAA"/>
<path d="M208.337 210.944C207.089 217.513 200.248 221.449 192.758 221.449C185.264 221.449 179.918 217.512 181.168 210.944C182.39 204.511 189.31 200.33 196.77 200.33C204.229 200.33 209.557 204.511 208.337 210.944ZM190.139 211.052C189.693 213.386 191.28 214.989 193.983 214.989C196.689 214.989 198.882 213.386 199.328 211.052C199.739 208.879 198.326 207.062 195.492 207.062C192.654 207.063 190.55 208.88 190.139 211.052ZM210.293 200.657H219.22L216.577 214.554H224.072L222.822 221.122H206.403L210.293 200.657ZM245.189 213.794L245.587 214.094C246.986 215.125 248.748 215.967 250.802 215.967C251.682 215.967 253.139 215.667 253.315 214.745C253.49 213.823 252.333 213.742 251.548 213.605L249.805 213.334C246.416 212.817 243.813 211.106 244.418 207.905C245.345 203.047 251.168 200.332 256.511 200.332C259.312 200.332 261.78 200.904 263.957 202.124L260.55 207.363C259.185 206.495 257.587 205.815 255.664 205.815C254.883 205.815 253.694 206.057 253.539 206.899C253.393 207.658 254.478 207.768 255.138 207.904L257.088 208.283C260.73 208.991 263.148 210.672 262.49 214.147C261.558 219.033 255.756 221.449 250.447 221.449C247.354 221.449 243.902 220.742 241.356 219.575L245.189 213.794Z" fill="#005DAA"/>
<path d="M275.856 213.712L275.5 210.102C275.403 209.233 275.41 208.338 275.415 207.468H275.088L272.275 213.712H275.856ZM268.085 221.124H258.638L271.064 200.657H280.933L285.807 221.124H276.36L276.032 218.573H269.29L268.085 221.124Z" fill="#005DAA"/>
<path d="M288.952 200.657H297.879L295.237 214.555H302.731L301.481 221.122H285.063L288.952 200.657ZM307.029 200.657H323.548L322.484 206.25H314.956L314.585 208.204H321.458L320.448 213.525H313.574L313.194 215.533H320.982L319.916 221.124H303.139L307.029 200.657Z" fill="#005DAA"/>
<path d="M185.918 163.873L197.188 163.45L187.731 194.613H207.953L217.407 163.45L228.424 163.873L232.913 149.077H190.403L185.918 163.873ZM144.046 171.964C141.218 186.576 125.726 195.336 108.751 195.336C91.7785 195.336 79.6725 186.578 82.5005 171.964C85.2688 157.65 100.942 148.352 117.842 148.352C134.74 148.352 146.815 157.652 144.046 171.964ZM102.82 172.206C101.817 177.4 105.409 180.964 111.531 180.964C117.656 180.964 122.626 177.401 123.631 172.206C124.566 167.376 121.363 163.331 114.943 163.331C108.523 163.328 103.755 167.376 102.82 172.206Z" fill="#E31837"/>
<path d="M137.763 191.168C143.534 193.762 151.348 195.336 158.358 195.336C170.388 195.336 183.53 189.961 185.632 179.09C187.127 171.361 181.655 167.616 173.396 166.046L168.984 165.201C167.492 164.897 165.03 164.657 165.357 162.965C165.718 161.093 168.407 160.548 170.179 160.548C174.53 160.548 178.152 162.058 181.246 163.991L188.96 152.336C184.024 149.619 178.441 148.352 172.094 148.352C159.991 148.352 146.793 154.391 144.702 165.201C143.323 172.327 149.229 176.131 156.903 177.28L160.845 177.882C162.632 178.187 165.254 178.366 164.856 180.418C164.458 182.47 161.158 183.135 159.164 183.135C154.514 183.135 150.522 181.264 147.351 178.969L146.448 178.305L137.763 191.168ZM272.275 150.224C268.23 149.015 263.633 148.352 259.057 148.352C242.748 148.352 227.926 158.981 225.355 172.267C222.841 185.252 233.29 195.337 249.157 195.337C252.771 195.337 260.403 194.794 263.899 193.525L267.784 176.496C264.031 179.092 260.03 180.723 255.38 180.723C249.331 180.723 244.837 176.858 245.809 171.848C246.767 166.895 252.472 162.971 258.523 162.971C263.098 162.971 266.747 165.085 269.518 167.563L272.275 150.224ZM304.653 148.352C287.754 148.352 272.081 157.65 269.311 171.964C266.485 186.576 278.591 195.336 295.565 195.336C312.536 195.336 328.032 186.578 330.859 171.964C333.624 157.652 321.549 148.352 304.653 148.352ZM301.755 163.328C308.175 163.328 311.379 167.372 310.441 172.203C309.438 177.396 304.467 180.96 298.342 180.96C292.217 180.96 288.626 177.398 289.631 172.203C290.566 167.376 295.335 163.328 301.755 163.328ZM87.7148 140.004C82.6672 138.544 76.9383 137.741 71.231 137.741C50.8897 137.741 32.4017 150.588 29.1974 166.648C26.066 182.343 39.0953 194.532 58.883 194.532C63.3935 194.532 72.9135 193.875 77.2682 192.343L82.1136 171.757C77.4373 174.897 72.4427 176.867 66.6425 176.867C59.0951 176.867 53.4939 172.195 54.7023 166.134C55.8975 160.15 63.0122 155.402 70.5579 155.402C76.2636 155.402 80.8156 157.958 84.2685 160.951L87.7148 140.004Z" fill="#E31837"/>
<path d="M318.414 192.398C318.717 190.808 320.489 189.527 322.419 189.527C324.334 189.527 325.631 190.808 325.33 192.398C325.023 193.998 323.243 195.279 321.325 195.279C319.397 195.279 318.112 193.996 318.414 192.398ZM324.428 192.398C324.67 191.118 323.752 190.278 322.273 190.278C320.771 190.278 319.558 191.118 319.317 192.398C319.074 193.68 319.966 194.528 321.469 194.528C322.946 194.528 324.184 193.681 324.428 192.398ZM323.196 193.902H322.303L321.741 192.627H321.156L320.914 193.902H320.155L320.726 190.891H322.479C323.251 190.891 323.669 191.105 323.536 191.813C323.435 192.329 323.032 192.594 322.566 192.63L323.196 193.902ZM322.089 192.052C322.469 192.052 322.795 192.052 322.858 191.73C322.908 191.465 322.58 191.465 322.2 191.465H321.378L321.27 192.052H322.089Z" fill="#E31837"/>
<path d="M30.6104 221.157H125.252L125.245 221.124H125.167L123.97 215.919H30.6104V221.157ZM30.6104 213.717H123.463L122.256 208.481H30.6104V213.717ZM30.6104 206.246H121.713L121.303 204.338L120.466 200.696H30.6104V206.246ZM228.372 200.657H244.889L243.827 206.25H236.301L235.928 208.204H242.8L241.791 213.525H234.918L234.537 215.533H242.323L241.26 221.124H224.48L228.372 200.657Z" fill="#005DAA"/>
</svg>
