<svg width="360" height="360" viewBox="0 0 360 360" fill="none" xmlns="http://www.w3.org/2000/svg">
<rect width="360" height="360" rx="82" fill="#3D195B"/>
<path d="M58.2547 196.858C48.5531 196.858 42.302 189.856 42.302 179.455C42.302 169.053 48.5031 162.052 58.2547 162.052C65.0058 162.052 70.0067 165.202 72.8071 170.003L81.2085 162.752C76.7578 155.901 69.4066 151 58.2547 151C40.5017 151 30 164.202 30 179.455C30 194.707 40.5017 207.909 58.2547 207.909C69.3566 207.909 76.7078 203.009 81.2085 196.158L72.8071 188.906C70.0067 193.707 65.0058 196.858 58.2547 196.858ZM139.518 207.909C156.171 207.909 167.873 196.158 167.873 179.455C167.873 162.752 156.121 151 139.518 151C122.915 151 111.214 162.752 111.214 179.455C111.214 196.208 122.865 207.909 139.518 207.909ZM139.518 196.958C129.967 196.958 123.316 189.756 123.316 179.455C123.316 169.103 129.967 161.952 139.518 161.952C149.17 161.952 155.821 169.153 155.821 179.455C155.771 189.806 149.12 196.958 139.518 196.958ZM213.881 207.009H226.633V163.052H245.286L244.336 151.85H196.378L195.428 163.052H213.881V207.009ZM309.997 193.707C309.997 188.706 311.247 186.356 316.198 180.755L321.449 174.804C327.5 167.903 330 162.302 330 153.1V151.9H317.398V152.85C317.398 160.752 315.998 163.702 311.097 169.303L307.446 173.504C305.346 175.954 303.846 178.305 303.846 178.305C303.846 178.305 302.345 175.954 300.245 173.504L296.544 169.303C291.644 163.702 290.243 160.752 290.243 152.85V151.9H277.291V153.1C277.291 162.302 279.842 167.903 285.893 174.804L291.144 180.755C296.144 186.356 297.345 188.706 297.345 193.707V207.009H309.947V193.707H309.997Z" fill="white"/>
</svg>
