<svg width="360" height="360" viewBox="0 0 360 360" fill="none" xmlns="http://www.w3.org/2000/svg">
<rect width="360" height="360" rx="82" fill="#1B2E4A"/>
<path d="M261.907 156.777C256.568 154.193 251.574 151.954 246.752 150.06C251.746 149.027 256.913 147.821 261.907 146.443C297.039 136.972 319.428 121.816 314.089 112.344C308.75 102.7 278.957 102.356 245.546 110.278C240.724 111.483 236.074 112.689 231.597 114.067C234.008 110.622 236.247 107.006 238.313 103.389C252.435 78.4175 255.191 57.0625 245.891 53.1015C236.591 49.1405 217.475 63.0901 201.114 86.5117C198.703 90.1283 196.464 93.5727 194.398 97.1892C193.364 93.2282 191.987 89.6117 190.609 85.4785C181.137 58.957 165.81 40.7019 155.821 42.2518C145.832 43.8018 142.388 65.8456 150.31 93.7449C151.516 97.8781 152.721 102.011 154.271 105.972C149.793 103.561 145.488 101.322 140.838 99.428C108.461 83.9285 76.6009 77.9009 68.5067 85.8229C60.4124 93.7449 80.0452 114.411 114.489 131.633C119.483 134.044 124.477 136.283 129.127 138.349C123.444 139.383 117.589 140.588 111.561 141.966C66.2678 152.816 26.6578 172.104 27.0022 185.365C27.3467 198.625 70.5733 198.97 119.655 185.365C126.2 183.643 132.399 181.748 138.255 179.681C134.466 184.504 130.677 189.67 126.888 194.837C96.7504 238.58 79.7008 286.801 93.8227 295.239C107.945 303.678 145.316 266.651 172.182 219.98C175.626 213.953 178.554 208.27 181.309 202.759C182.515 208.614 184.065 214.814 185.787 221.186C199.736 271.129 225.569 312.461 241.069 306.089C256.396 299.717 252.091 251.841 235.041 205.342C232.802 199.314 230.563 193.803 228.325 188.465C233.319 191.564 238.658 194.32 244.341 197.248C285.673 218.086 323.561 224.975 327.35 212.403C330.45 199.314 300.312 175.032 261.907 156.777Z" fill="#44B6E8"/>
<path d="M149.795 171.242C145.49 172.792 140.668 174.169 135.846 175.547C122.757 179.164 109.324 181.575 95.7191 182.608C62.1367 208.613 38.7151 237.029 45.2594 247.879C51.8036 258.728 84.6972 247.017 120.002 223.768C125.513 209.302 132.746 195.697 141.357 182.952C144.284 178.819 147.04 174.858 149.795 171.242Z" fill="#248DCD"/>
<path d="M142.214 139.382C138.425 137.832 134.636 136.11 130.675 134.043C121.031 129.393 111.903 123.538 103.637 116.821C69.5378 115.788 41.1219 121.127 36.9887 130.771C32.8555 140.415 54.7271 150.748 87.7929 156.259C100.881 150.059 114.659 145.409 128.608 142.137C133.086 141.104 137.908 140.243 142.214 139.382Z" fill="#248DCD"/>
<path d="M161.171 113.717C159.965 110.617 158.76 107.345 157.899 104.073C155.488 95.9786 154.11 87.3677 154.11 78.929C135.166 62.2239 116.394 53.0964 108.128 57.2296C99.8613 61.3628 103.822 77.2068 117.255 96.4952C128.794 99.0785 139.988 103.212 150.665 108.378C154.454 109.928 157.899 111.823 161.171 113.717Z" fill="#248DCD"/>
<path d="M222.475 120.258C226.091 119.052 230.052 118.019 233.669 117.158C243.485 114.575 253.646 113.197 263.807 112.852C281.717 96.4918 289.295 81.3366 282.579 75.8256C275.862 70.3147 258.813 74.6201 238.663 85.8142C236.596 94.9418 232.98 103.553 228.158 111.647C226.263 114.23 224.369 117.502 222.475 120.258Z" fill="#248DCD"/>
<path d="M182.675 188.29C180.781 192.423 178.37 196.729 175.959 201.034C168.898 213.434 160.459 224.972 150.987 235.65C147.026 279.738 153.743 317.625 168.553 318.659C183.536 319.692 197.142 285.421 203.686 244.089C195.936 230.828 189.908 216.878 185.775 202.067C184.742 197.073 183.536 192.595 182.675 188.29Z" fill="#248DCD"/>
<path d="M193.364 106.658C194.914 103.73 196.808 100.802 198.703 98.0467C203.525 90.8136 209.208 84.0971 215.58 78.2417C215.063 57.0589 208.863 41.9038 200.425 41.0427C191.986 40.1816 183.031 52.409 177.864 71.8696C183.203 79.6194 187.508 88.0581 190.436 97.0134C191.469 100.113 192.503 103.385 193.364 106.658Z" fill="#248DCD"/>
<path d="M329.924 156.595C328.546 147.468 306.674 138.34 277.742 133.346C267.926 138.857 257.248 143.162 246.226 145.918C242.093 147.123 238.132 147.984 234.171 148.845C238.132 150.395 241.748 152.117 246.054 154.184C256.731 159.351 266.892 165.378 276.364 172.439C308.913 172.784 331.474 166.239 329.924 156.595Z" fill="#248DCD"/>
<path d="M218.682 177.785C220.404 181.746 222.126 185.879 223.676 190.357C228.154 202.757 231.254 215.501 232.976 228.589C261.736 257.005 290.324 273.194 298.763 263.55C307.201 253.905 293.08 227.039 270.002 198.968C256.57 195.696 243.481 190.874 231.081 184.329C226.604 182.091 222.47 180.024 218.682 177.785Z" fill="#248DCD"/>
<path d="M276.367 172.277C266.722 165.216 256.389 159.016 245.54 154.022C241.579 152.127 237.618 150.233 233.657 148.683C237.618 147.994 241.579 146.961 245.712 145.928C256.734 143.172 267.411 138.867 277.4 133.356C286.183 128.017 290.661 122.678 288.422 118.717C286.355 114.756 276.711 112.345 263.795 112.862C253.634 113.379 243.473 114.756 233.657 117.167C229.696 118.028 226.079 119.062 222.462 120.267C224.357 117.512 226.251 114.584 227.973 111.484C232.795 103.562 236.412 94.779 238.479 85.6515C240.201 77.385 239.168 71.5297 235.034 69.8075C231.073 68.0853 223.324 71.1852 215.402 78.2462C208.857 84.1015 203.174 90.6458 198.352 98.0512C196.458 100.807 194.735 103.734 193.013 106.834C192.152 103.734 191.119 100.462 190.086 97.1901C186.986 88.2348 182.508 79.6239 176.997 71.8741C171.486 64.2965 165.803 60.5077 161.325 61.3688C156.848 62.2299 153.748 68.9464 153.748 78.935C153.92 87.5459 155.125 95.9846 157.536 104.079C158.57 107.351 159.603 110.623 160.809 113.723C157.536 111.829 154.092 110.106 150.303 108.212C139.626 102.873 128.259 98.9123 116.721 96.1568C105.182 93.7457 96.2269 93.918 92.9548 97.3623C89.6827 100.807 93.4715 108.729 103.116 116.823C111.382 123.539 120.51 129.395 130.154 134.045C133.943 135.939 137.731 137.661 141.692 139.383C137.387 140.244 132.909 141.106 128.259 142.311C114.138 145.583 100.532 150.233 87.4438 156.433C74.0109 162.977 65.5722 169.866 66.0889 175.205C66.6055 180.543 78.4885 183.643 95.5381 182.782C108.971 181.749 122.404 179.338 135.493 175.721C140.315 174.344 145.137 172.966 149.442 171.416C146.687 175.032 143.931 178.993 141.176 182.954C132.393 195.699 125.332 209.476 119.821 223.77C114.31 238.925 113.449 250.808 119.132 253.908C124.815 257.008 137.731 249.603 150.648 235.309C160.12 224.631 168.386 213.093 175.619 200.693C178.03 196.387 180.441 192.082 182.336 187.949C183.197 192.254 184.402 196.904 185.78 201.554C189.913 216.192 195.769 230.142 203.346 243.231C211.441 256.664 219.879 264.413 225.907 262.002C231.934 259.591 234.518 245.986 232.279 228.248C230.557 215.159 227.457 202.415 222.979 190.015C221.429 185.538 219.707 181.404 217.985 177.443C221.774 179.682 225.562 181.921 230.212 184.16C242.612 190.532 255.873 195.526 269.478 198.798C282.566 201.726 292.038 201.037 293.76 195.871C295.483 190.704 288.938 182.093 276.367 172.277Z" fill="white"/>
</svg>
