<svg width="360" height="360" viewBox="0 0 360 360" fill="none" xmlns="http://www.w3.org/2000/svg">
<rect width="360" height="360" rx="82" fill="#C0151B"/>
<path d="M177.16 143.807C195.887 141.406 217.734 135.548 242.199 120.481C261.416 108.754 286.585 84.4857 268.972 77.2128C257.448 72.4309 230.779 87.4494 205.044 111.711C200.831 115.585 182.097 138.135 179.761 140.664C179.368 141.14 178.381 142.338 177.16 143.807ZM174.165 104.069C209.074 80.5318 248.14 62.5049 275.855 67.9906C291.46 71.0785 296.469 88.1601 281.095 106.925C270.031 120.484 240.577 135.741 223.223 141.42C215.902 143.783 192.744 151.156 169.428 153.92C148.41 181.89 138.825 193.765 126.633 226.48C117.562 250.827 120.74 275.133 139.712 279.218C156.135 282.858 176.836 256.109 181.3 247.453C211.13 189.66 181.09 192.551 167.558 214.877C159.437 228.26 162.738 240.108 159.071 240.618C156.728 240.936 155.904 230.827 157.418 222.146C161.327 200.334 179.758 178.499 199.172 182.38C210.65 184.702 213.714 198.002 210.785 214.376C206.348 239.114 184.457 268.292 169.994 278.777C162.238 284.369 143.901 296.4 122.234 292.084C108.965 289.483 91.2998 277.838 87.7565 251.096C85.0171 230.282 90.0992 211.02 96.8615 196.55C104.176 180.952 113.046 165.495 124.428 150.694C118.29 148.51 112.349 145.446 108.15 141.203C89.2711 122.203 103.689 104.421 109.789 100.446C121.896 92.5073 145.557 95.433 145.305 100.446C145.198 102.73 120.636 101.26 117.573 119.946C115.492 132.726 122.682 139.25 131.066 142.52C142.741 128.772 156.856 115.792 174.165 104.069Z" fill="white"/>
</svg>
