<svg width="360" height="360" viewBox="0 0 360 360" fill="none" xmlns="http://www.w3.org/2000/svg">
<rect width="360" height="360" rx="82" fill="#231F20"/>
<path d="M180.004 305.271C134.246 305.271 94.1585 280.598 72.2948 243.874H97.1421L97.6706 180.174L125.278 243.874H152.344L180 180.174V243.874H209.669L210.733 200.345L220.286 192.384L262.224 243.874H287.705C265.842 280.598 225.759 305.271 180.004 305.271ZM69.5352 120.984V239.012C60.0991 221.408 54.7288 201.323 54.7288 179.996C54.7288 158.671 60.0991 138.576 69.5352 120.984ZM180.004 54.7275C225.906 54.7275 266.095 79.5577 287.909 116.475H257.448L211.263 159.474V116.475H171.987L139.608 195.568L108.821 116.475H72.0879C93.9094 79.5577 134.102 54.7275 180.004 54.7275ZM305.271 179.996C305.271 199.891 300.589 218.706 292.305 235.434L243.642 172.742L291.825 123.634C300.403 140.593 305.271 159.728 305.271 179.996ZM180.004 25C94.397 25 25 94.401 25 179.996C25 265.599 94.397 335 180.004 335C265.599 335 335 265.599 335 179.996C335 94.401 265.599 25 180.004 25Z" fill="white"/>
</svg>
