<svg width="360" height="360" viewBox="0 0 360 360" fill="none" xmlns="http://www.w3.org/2000/svg">
<rect width="360" height="360" rx="82" fill="black"/>
<mask id="mask0" mask-type="alpha" maskUnits="userSpaceOnUse" x="25" y="110" width="310" height="141">
<path d="M25 250.196H335V110H180H25V250.196Z" fill="white"/>
</mask>
<g mask="url(#mask0)">
<path fill-rule="evenodd" clip-rule="evenodd" d="M331.182 180.087C312.36 218.762 229.112 250.248 145.872 250.248C62.5488 250.248 10.0008 218.762 28.8209 180.087C47.5662 141.562 130.886 110 214.135 110C297.455 110 349.994 141.562 331.182 180.087Z" fill="#032B76"/>
<path fill-rule="evenodd" clip-rule="evenodd" d="M212.265 111.494C293.223 111.494 344.175 142.084 325.761 179.486C307.423 216.966 226.392 247.558 145.595 247.558C64.6415 247.558 13.6843 216.966 32.0209 179.486C43.9239 155.373 81.6235 134.212 128.534 122.074C131.865 121.168 135.28 120.432 138.692 119.609C162.024 114.447 187.186 111.494 212.265 111.494Z" fill="#0A0A08"/>
<path fill-rule="evenodd" clip-rule="evenodd" d="M211.049 113.528C290.986 113.528 341.401 143.051 323.347 179.09C305.29 215.269 225.424 244.727 145.562 244.727C65.6227 244.727 15.2082 215.269 33.2661 179.09C51.2499 143.051 131.184 113.528 211.049 113.528Z" fill="#90F2D2"/>
</g>
<path fill-rule="evenodd" clip-rule="evenodd" d="M198.306 119.688C270.524 119.688 315.979 146.094 299.552 178.382C283.193 210.738 210.907 237.147 138.831 237.147C66.6142 237.147 21.1568 210.738 37.5141 178.382C48.133 157.567 81.7632 139.298 123.611 128.821C126.582 128.039 129.629 127.404 132.673 126.694C153.487 122.237 175.932 119.688 198.306 119.688Z" fill="white"/>
<path fill-rule="evenodd" clip-rule="evenodd" d="M287.7 151.898C291.165 157.654 291.806 164.132 289.062 170.924C286.492 176.064 283.545 180.203 279.153 184.275C256.368 205.327 205.096 221.028 153.892 221.028C93.5193 221.028 55.4477 199.211 69.202 172.464C78.6525 154.051 110.678 137.312 149.03 129.041C153.542 128.069 158.126 127.305 162.78 126.609C153.757 127.514 144.929 128.832 136.248 130.707C93.7284 140.089 57.6718 155.236 47.1776 176.216C31.965 206.717 74.1337 231.588 141.111 231.588C195.989 231.588 250.947 214.916 277.347 192.055C280.328 189.489 283.817 185.864 286.555 182.002C287.686 180.44 288.677 178.857 289.504 177.261C294.229 168.088 293.327 159.403 287.7 151.898Z" fill="#0D5DB8"/>
</svg>
