<svg width="360" height="360" viewBox="0 0 360 360" fill="none" xmlns="http://www.w3.org/2000/svg">
<rect width="360" height="360" rx="82" fill="#7CBC27"/>
<path d="M218.126 220.157C214.807 239.905 204.186 253.844 203.356 255.172C172.987 245.049 160.043 227.956 160.043 227.956C158.882 240.237 152.908 251.189 143.946 258.657C144.776 258.823 154.069 260.814 161.537 254.508C160.375 259.487 161.039 264.465 163.03 268.946C167.843 267.784 172.324 265.295 175.809 261.312C174.647 267.452 176.14 273.592 179.459 278.405C184.604 276.248 188.918 273.095 191.408 267.95C190.578 275.086 192.569 281.392 197.216 286.205C201.531 283.549 205.679 278.903 207.505 273.924C207.837 281.06 211.322 287.698 216.632 291.681C218.789 287.532 235.052 254.508 218.126 220.157Z" fill="black"/>
<path d="M286.163 64C273.219 79.7652 247.663 101.504 216.464 122.58C204.682 130.546 193.065 137.681 182.113 143.821C172.488 137.018 161.369 132.869 149.255 132.039C148.093 131.873 146.6 131.873 145.438 131.873C134.983 131.873 126.022 137.018 122.869 144.319C119.882 150.625 113.41 155.77 104.117 157.595L54.6638 163.901C54.3319 163.901 54 164.233 54 164.565C54 165.063 54.3319 165.395 54.8297 165.395C54.8297 165.395 100.798 162.408 101.13 162.408C102.955 162.408 104.615 162.574 106.108 162.74C110.755 163.569 114.737 165.727 117.393 168.548C120.546 171.867 125.026 174.19 130.171 175.352C138.302 177.177 144.442 182.156 146.434 188.462C154.399 216.175 174.645 237.915 200.367 246.378C208.167 234.596 217.46 210.865 210.158 184.479C215.634 183.151 237.208 175.02 241.522 151.953C242.518 151.455 254.964 144.651 252.475 134.528C256.292 134.362 266.913 129.052 266.913 115.776H264.423C268.24 114.283 279.027 106.981 278.695 92.7092H272.223C274.712 90.8837 290.809 77.7738 286.163 64Z" fill="black"/>
<path d="M179.624 127.062C180.122 118.267 176.305 110.965 170.994 110.633C170.829 110.633 170.663 110.633 170.497 110.633C171.492 107.812 172.156 104.493 172.322 101.008C172.986 90.5531 169.501 81.5918 164.191 79.2686C163.859 91.0509 161.369 106.816 157.055 125.071C164.688 126.398 171.99 129.219 178.462 133.036C179.126 131.211 179.458 129.219 179.624 127.062Z" fill="black"/>
</svg>
