<svg width="360" height="360" viewBox="0 0 360 360" fill="none" xmlns="http://www.w3.org/2000/svg">
<rect width="360" height="360" rx="82" fill="#EF3338"/>
<path d="M152.023 161.088C149.588 153.669 144.361 148.438 136.09 148.438C124.9 148.438 118.09 158.899 118.09 179.452C117.848 200.006 123.928 210.464 136.576 210.464C144.118 210.464 148.738 207.789 153.726 197.45L169.293 201.588C164.063 216.79 152.629 224.572 136.576 224.572C114.199 224.572 101.307 208.153 101.307 179.452C101.307 150.748 114.199 134.333 136.576 134.333C153.36 134.333 163.091 141.871 167.224 157.44L152.023 161.088Z" fill="#231F20"/>
<path d="M204.329 173.977H216.735C229.871 173.977 233.883 169.842 233.883 161.571C233.883 153.303 228.897 149.165 219.652 149.165H204.329V173.977ZM187.546 223.354V135.547H222.573C242.518 135.547 250.544 147.099 250.668 161.571C250.788 172.398 245.315 181.152 234.611 184.191L253.95 223.354H235.342L218.802 187.6H204.329V223.354H187.546Z" fill="#231F20"/>
<path d="M68.1745 270.55H290.82V90.0211H68.1745V270.55ZM298 277.726H61V82.8431H298V277.726Z" fill="white"/>
</svg>
