<svg width="360" height="360" viewBox="0 0 360 360" fill="none" xmlns="http://www.w3.org/2000/svg">
<rect width="360" height="360" rx="82" fill="#236BB3"/>
<path fill-rule="evenodd" clip-rule="evenodd" d="M25 159.891C83.6455 193.822 98.7314 124.7 147.327 160.728C205.557 194.244 221.059 125.537 269.655 161.15C252.472 159.475 239.073 163.246 223.571 172.458C217.703 175.808 211.419 179.164 205.141 181.255C207.659 182.508 210.16 184.183 213.094 186.279C271.324 220.211 286.404 151.089 335 187.123C317.829 185.442 304.418 188.798 288.916 198.431C267.137 211.421 236.971 220.211 213.088 186.279C195.502 184.604 182.507 188.376 167.005 197.588C145.225 210.577 114.643 219.789 90.7611 185.858C126.789 206.8 146.484 187.948 167.854 179.574C160.727 175.802 154.021 169.94 147.322 160.716C130.139 159.042 116.74 162.813 101.238 172.031C79.464 185.026 49.298 194.244 25 159.891Z" fill="white"/>
</svg>
