<svg width="360" height="360" viewBox="0 0 360 360" fill="none" xmlns="http://www.w3.org/2000/svg">
<rect width="360" height="360" rx="82" fill="#00A1E0"/>
<path d="M154.506 109.208C164.311 98.992 177.96 92.6564 193.056 92.6564C213.124 92.6564 230.632 103.846 239.956 120.458C248.058 116.838 257.026 114.824 266.462 114.824C302.657 114.824 332 144.423 332 180.933C332 217.448 302.657 247.047 266.462 247.047C262.045 247.047 257.728 246.605 253.553 245.761C245.343 260.406 229.697 270.301 211.738 270.301C204.22 270.301 197.11 268.565 190.779 265.477C182.455 285.055 163.063 298.783 140.463 298.783C116.927 298.783 96.8677 283.89 89.1681 263.005C85.8033 263.719 82.3173 264.091 78.7403 264.091C50.7177 264.091 28 241.14 28 212.823C28 193.847 38.207 177.278 53.3723 168.414C50.25 161.23 48.5135 153.301 48.5135 144.964C48.5135 112.399 74.9511 86.0005 107.56 86.0005C126.705 86.0005 143.719 95.1032 154.506 109.208Z" fill="white"/>
<path d="M72.0277 196.344C71.8371 196.842 72.097 196.945 72.1576 197.032C72.7292 197.448 73.3095 197.747 73.8941 198.08C76.9948 199.726 79.9222 200.206 82.9838 200.206C89.2197 200.206 93.0911 196.889 93.0911 191.55V191.446C93.0911 186.509 88.7217 184.716 84.6207 183.421L84.0881 183.248C80.9961 182.243 78.3285 181.377 78.3285 179.342V179.234C78.3285 177.493 79.8875 176.211 82.3039 176.211C84.9888 176.211 88.1761 177.103 90.2287 178.238C90.2287 178.238 90.8306 178.628 91.0515 178.043C91.1727 177.731 92.2121 174.934 92.3203 174.63C92.4372 174.301 92.2294 174.059 92.0172 173.929C89.6744 172.504 86.4352 171.53 83.0834 171.53L82.4598 171.534C76.7522 171.534 72.7682 174.981 72.7682 179.922V180.026C72.7682 185.236 77.1636 186.925 81.2819 188.103L81.9445 188.306C84.9455 189.229 87.5308 190.021 87.5308 192.134V192.238C87.5308 194.17 85.8506 195.607 83.1397 195.607C82.0874 195.607 78.7313 195.586 75.1067 193.295C74.6693 193.039 74.4138 192.853 74.076 192.65C73.8985 192.537 73.4524 192.342 73.2575 192.931L72.0277 196.344Z" fill="#00A1E0"/>
<path d="M163.34 196.344C163.149 196.842 163.409 196.945 163.47 197.032C164.041 197.448 164.622 197.747 165.206 198.08C168.307 199.726 171.234 200.206 174.296 200.206C180.532 200.206 184.403 196.889 184.403 191.55V191.446C184.403 186.509 180.034 184.716 175.933 183.421L175.4 183.248C172.308 182.243 169.641 181.377 169.641 179.342V179.234C169.641 177.493 171.2 176.211 173.616 176.211C176.301 176.211 179.488 177.103 181.541 178.238C181.541 178.238 182.143 178.628 182.363 178.043C182.485 177.731 183.524 174.934 183.632 174.63C183.749 174.301 183.541 174.059 183.329 173.929C180.986 172.504 177.747 171.53 174.395 171.53L173.772 171.534C168.064 171.534 164.08 174.981 164.08 179.922V180.026C164.08 185.236 168.476 186.925 172.594 188.103L173.256 188.306C176.258 189.229 178.847 190.021 178.847 192.134V192.238C178.847 194.17 177.163 195.607 174.452 195.607C173.399 195.607 170.043 195.586 166.419 193.295C165.981 193.039 165.721 192.862 165.392 192.65C165.28 192.576 164.751 192.372 164.57 192.931L163.34 196.344Z" fill="#00A1E0"/>
<path d="M225.634 185.885C225.634 188.903 225.071 191.281 223.963 192.961C222.867 194.624 221.208 195.434 218.896 195.434C216.579 195.434 214.929 194.628 213.851 192.961C212.76 191.285 212.205 188.903 212.205 185.885C212.205 182.871 212.76 180.498 213.851 178.835C214.929 177.19 216.579 176.388 218.896 176.388C221.208 176.388 222.867 177.19 223.967 178.835C225.071 180.498 225.634 182.871 225.634 185.885ZM230.839 180.29C230.328 178.562 229.532 177.038 228.471 175.769C227.41 174.496 226.067 173.474 224.474 172.729C222.884 171.989 221.005 171.612 218.896 171.612C216.783 171.612 214.903 171.989 213.314 172.729C211.72 173.474 210.378 174.496 209.313 175.769C208.256 177.042 207.459 178.567 206.944 180.29C206.437 182.009 206.182 183.889 206.182 185.885C206.182 187.881 206.437 189.765 206.944 191.48C207.459 193.204 208.252 194.728 209.317 196.001C210.378 197.274 211.725 198.292 213.314 199.015C214.908 199.738 216.783 200.106 218.896 200.106C221.005 200.106 222.88 199.738 224.474 199.015C226.063 198.292 227.41 197.274 228.471 196.001C229.532 194.732 230.328 193.208 230.839 191.48C231.35 189.761 231.606 187.877 231.606 185.885C231.606 183.893 231.35 182.009 230.839 180.29Z" fill="#00A1E0"/>
<path d="M273.606 194.628C273.433 194.121 272.944 194.312 272.944 194.312C272.186 194.602 271.381 194.87 270.523 195.004C269.653 195.139 268.696 195.208 267.669 195.208C265.149 195.208 263.148 194.459 261.715 192.978C260.277 191.497 259.472 189.102 259.48 185.863C259.489 182.914 260.199 180.697 261.477 179.008C262.746 177.327 264.677 176.466 267.254 176.466C269.401 176.466 271.038 176.712 272.753 177.254C272.753 177.254 273.165 177.431 273.36 176.894C273.814 175.63 274.152 174.725 274.637 173.335C274.776 172.941 274.438 172.772 274.317 172.724C273.641 172.46 272.047 172.031 270.844 171.849C269.718 171.676 268.401 171.585 266.937 171.585C264.751 171.585 262.802 171.958 261.135 172.702C259.472 173.443 258.06 174.465 256.943 175.738C255.825 177.011 254.977 178.536 254.409 180.259C253.846 181.978 253.561 183.866 253.561 185.863C253.561 190.18 254.725 193.671 257.025 196.226C259.329 198.789 262.789 200.093 267.301 200.093C269.969 200.093 272.706 199.551 274.672 198.776C274.672 198.776 275.048 198.594 274.884 198.157L273.606 194.628Z" fill="#00A1E0"/>
<path d="M282.724 182.993C282.971 181.317 283.434 179.923 284.149 178.836C285.227 177.186 286.872 176.281 289.185 176.281C291.497 176.281 293.026 177.191 294.122 178.836C294.849 179.923 295.165 181.378 295.291 182.993H282.724ZM300.249 179.308C299.808 177.641 298.712 175.956 297.993 175.186C296.859 173.964 295.75 173.111 294.65 172.635C293.212 172.02 291.489 171.613 289.601 171.613C287.401 171.613 285.404 171.981 283.785 172.743C282.161 173.505 280.797 174.545 279.727 175.839C278.658 177.13 277.852 178.667 277.341 180.412C276.826 182.149 276.566 184.041 276.566 186.038C276.566 188.069 276.834 189.961 277.367 191.663C277.904 193.378 278.761 194.889 279.922 196.141C281.078 197.401 282.568 198.388 284.352 199.077C286.123 199.761 288.276 200.116 290.748 200.112C295.837 200.094 298.517 198.96 299.621 198.349C299.816 198.241 300.003 198.05 299.769 197.505L298.617 194.279C298.444 193.798 297.954 193.975 297.954 193.975C296.694 194.443 294.901 195.283 290.722 195.275C287.99 195.27 285.963 194.465 284.694 193.205C283.391 191.914 282.754 190.017 282.642 187.341L300.262 187.359C300.262 187.359 300.726 187.35 300.773 186.899C300.791 186.709 301.38 183.279 300.249 179.308Z" fill="#00A1E0"/>
<path d="M141.592 182.993C141.843 181.317 142.302 179.923 143.016 178.836C144.095 177.186 145.74 176.281 148.053 176.281C150.365 176.281 151.894 177.191 152.994 178.836C153.717 179.923 154.033 181.378 154.159 182.993H141.592ZM159.113 179.308C158.671 177.641 157.58 175.956 156.861 175.186C155.726 173.964 154.618 173.111 153.518 172.635C152.08 172.02 150.356 171.613 148.468 171.613C146.273 171.613 144.272 171.981 142.653 172.743C141.029 173.505 139.664 174.545 138.595 175.839C137.525 177.13 136.72 178.667 136.209 180.412C135.698 182.149 135.434 184.041 135.434 186.038C135.434 188.069 135.702 189.961 136.235 191.663C136.772 193.378 137.629 194.889 138.79 196.141C139.946 197.401 141.436 198.388 143.22 199.077C144.991 199.761 147.143 200.116 149.616 200.112C154.704 200.094 157.385 198.96 158.489 198.349C158.684 198.241 158.87 198.05 158.636 197.505L157.489 194.279C157.311 193.798 156.822 193.975 156.822 193.975C155.562 194.443 153.773 195.283 149.586 195.275C146.857 195.27 144.831 194.465 143.562 193.205C142.258 191.914 141.622 190.017 141.509 187.341L159.13 187.359C159.13 187.359 159.593 187.35 159.641 186.899C159.658 186.709 160.247 183.279 159.113 179.308Z" fill="#00A1E0"/>
<path d="M103.504 194.531C102.815 193.981 102.72 193.843 102.486 193.488C102.139 192.946 101.962 192.176 101.962 191.197C101.962 189.647 102.473 188.534 103.534 187.784C103.521 187.789 105.05 186.464 108.644 186.511C111.169 186.546 113.425 186.918 113.425 186.918V194.93H113.429C113.429 194.93 111.19 195.41 108.67 195.562C105.084 195.779 103.491 194.527 103.504 194.531ZM110.515 182.15C109.8 182.099 108.873 182.068 107.765 182.068C106.253 182.068 104.794 182.259 103.426 182.627C102.049 182.995 100.81 183.571 99.7447 184.333C98.6751 185.1 97.8133 186.078 97.1897 187.239C96.5661 188.399 96.25 189.768 96.25 191.301C96.25 192.86 96.5185 194.215 97.0555 195.324C97.5924 196.437 98.3676 197.363 99.355 198.078C100.334 198.793 101.542 199.317 102.945 199.633C104.326 199.949 105.894 200.109 107.609 200.109C109.415 200.109 111.216 199.962 112.961 199.663C114.689 199.368 116.811 198.94 117.4 198.806C117.985 198.667 118.634 198.489 118.634 198.489C119.072 198.381 119.037 197.913 119.037 197.913L119.028 181.8C119.028 178.266 118.084 175.646 116.227 174.022C114.377 172.403 111.654 171.584 108.133 171.584C106.812 171.584 104.686 171.766 103.413 172.021C103.413 172.021 99.5628 172.766 97.9779 174.005C97.9779 174.005 97.6314 174.221 97.822 174.706L99.0691 178.058C99.225 178.491 99.6451 178.344 99.6451 178.344C99.6451 178.344 99.7793 178.292 99.9352 178.201C103.326 176.356 107.613 176.413 107.613 176.413C109.519 176.413 110.982 176.794 111.97 177.552C112.931 178.288 113.42 179.401 113.42 181.748V182.493C111.905 182.276 110.515 182.15 110.515 182.15Z" fill="#00A1E0"/>
<path d="M252.635 173.071C252.769 172.673 252.488 172.482 252.371 172.439C252.072 172.322 250.574 172.006 249.417 171.932C247.204 171.798 245.975 172.17 244.875 172.664C243.783 173.158 242.571 173.954 241.895 174.86V172.716C241.895 172.417 241.683 172.179 241.389 172.179H236.872C236.577 172.179 236.365 172.417 236.365 172.716V198.998C236.365 199.292 236.608 199.535 236.902 199.535H241.532C241.826 199.535 242.064 199.292 242.064 198.998V185.868C242.064 184.105 242.259 182.347 242.649 181.243C243.03 180.151 243.55 179.277 244.19 178.649C244.836 178.025 245.568 177.588 246.369 177.341C247.187 177.09 248.092 177.007 248.733 177.007C249.656 177.007 250.669 177.246 250.669 177.246C251.007 177.285 251.197 177.077 251.31 176.769C251.613 175.964 252.47 173.552 252.635 173.071Z" fill="#00A1E0"/>
<path d="M209.181 160.89C208.618 160.717 208.107 160.6 207.44 160.474C206.764 160.353 205.959 160.293 205.045 160.293C201.858 160.293 199.346 161.193 197.584 162.969C195.83 164.736 194.639 167.425 194.041 170.963L193.825 172.154H189.823C189.823 172.154 189.338 172.136 189.234 172.665L188.581 176.333C188.533 176.679 188.684 176.9 189.152 176.9H193.045L189.096 198.951C188.788 200.726 188.433 202.186 188.039 203.294C187.654 204.386 187.277 205.204 186.809 205.802C186.359 206.373 185.935 206.798 185.198 207.044C184.592 207.248 183.891 207.343 183.124 207.343C182.7 207.343 182.132 207.274 181.712 207.187C181.297 207.105 181.076 207.014 180.76 206.88C180.76 206.88 180.305 206.707 180.123 207.161C179.98 207.538 178.941 210.392 178.815 210.743C178.694 211.093 178.867 211.366 179.088 211.449C179.608 211.63 179.993 211.752 180.699 211.921C181.678 212.15 182.505 212.163 183.28 212.163C184.9 212.163 186.381 211.934 187.606 211.492C188.836 211.046 189.91 210.271 190.863 209.223C191.889 208.088 192.534 206.902 193.149 205.278C193.76 203.675 194.284 201.683 194.7 199.362L198.671 176.9H204.473C204.473 176.9 204.963 176.917 205.062 176.385L205.721 172.721C205.764 172.37 205.617 172.154 205.145 172.154H199.511C199.541 172.028 199.797 170.045 200.442 168.178C200.719 167.386 201.239 166.741 201.676 166.299C202.109 165.866 202.607 165.558 203.153 165.381C203.711 165.199 204.348 165.112 205.045 165.112C205.573 165.112 206.097 165.173 206.491 165.255C207.037 165.372 207.249 165.433 207.392 165.476C207.968 165.649 208.046 165.48 208.159 165.203L209.505 161.505C209.644 161.107 209.302 160.938 209.181 160.89Z" fill="#00A1E0"/>
<path d="M130.459 198.999C130.459 199.294 130.247 199.532 129.952 199.532H125.28C124.985 199.532 124.777 199.294 124.777 198.999V161.393C124.777 161.099 124.985 160.86 125.28 160.86H129.952C130.247 160.86 130.459 161.099 130.459 161.393V198.999Z" fill="#00A1E0"/>
</svg>
