<svg width="360" height="360" viewBox="0 0 360 360" fill="none" xmlns="http://www.w3.org/2000/svg">
<rect width="360" height="360" rx="82" fill="#DA1B1B"/>
<path d="M68 77.2867C68 78.0046 73.321 88.7733 73.9544 89.3223C74.0811 89.449 74.6301 90.2936 75.1791 91.2226C75.7281 92.1517 76.6572 93.3764 77.1639 93.9676C77.7129 94.5588 78.1352 95.15 78.1352 95.2767C78.1352 95.4034 78.5153 95.9946 79.022 96.5436C79.4866 97.0926 80.8802 98.6974 82.0626 100.091C87.5103 106.425 95.3651 113.773 103.684 120.277C103.938 120.446 104.571 120.953 105.12 121.417C105.669 121.882 106.26 122.262 106.387 122.262C106.514 122.262 107.147 122.684 107.696 123.191C109.217 124.542 110.737 125.598 118.718 130.919C126.109 135.818 126.235 135.944 129.234 137.718C130.289 138.351 131.387 139.154 131.683 139.449C131.979 139.745 132.443 139.998 132.654 139.998C132.95 139.998 137.215 142.405 139.369 143.799C139.707 144.052 140.467 144.475 141.058 144.728C142.578 145.488 151.024 150.598 153.516 152.287C160.695 157.102 169.774 165.336 172.519 169.433C173.66 171.164 174.42 171.713 174.42 170.784C174.42 170.235 172.688 167.068 172.013 166.265C171.717 165.97 171.464 165.505 171.464 165.294C171.464 164.83 168.93 160.691 168.17 159.889C167.874 159.551 167.283 158.791 166.903 158.199C165.763 156.468 164.369 154.906 160.062 150.556C154.867 145.404 154.276 144.939 146.97 139.492C143.592 137 140.678 134.804 140.425 134.593C140.213 134.424 139.242 133.791 138.313 133.242C137.384 132.693 136.539 132.101 136.413 131.975C136.286 131.848 135.441 131.257 134.512 130.708C133.583 130.159 130.923 128.47 128.6 126.949C123.913 123.866 123.11 123.36 121.759 122.642C121.21 122.346 120.788 121.966 120.788 121.755C120.788 121.586 120.576 121.417 120.365 121.417C120.112 121.417 119.098 120.826 118.127 120.108C116.48 118.926 111.412 115.336 109.681 114.154C109.217 113.858 108.499 113.267 108.034 112.844C107.527 112.464 107.021 112.127 106.894 112.127C106.767 112.127 106.176 111.704 105.585 111.155C104.994 110.648 103.347 109.297 101.911 108.199C100.475 107.101 99.0391 105.961 98.7435 105.665C98.4479 105.37 97.1387 104.314 95.8718 103.3C90.4242 99.0352 71.8429 81.2141 69.9848 78.4692C69.1824 77.2867 68 76.5688 68 77.2867Z" fill="white"/>
<path d="M107.615 84.9294C107.277 85.2673 107.742 86.7875 108.164 86.7875C108.375 86.7875 108.544 86.9987 108.544 87.2943C108.544 87.9278 111.585 94.0089 112.26 94.7268C112.514 95.0224 112.767 95.4447 112.767 95.6558C112.767 96.2048 116.399 101.441 118.173 103.426C122.396 108.156 130.082 115.293 133.038 117.235C133.629 117.615 134.685 118.46 135.36 119.051C136.078 119.685 137.387 120.698 138.316 121.332C139.245 121.965 140.386 122.81 140.808 123.19C141.272 123.612 142.413 124.457 143.342 125.09C144.313 125.766 145.453 126.61 145.876 126.991C146.34 127.413 147.48 128.257 148.409 128.891C149.381 129.524 150.225 130.158 150.352 130.284C150.479 130.411 151.914 131.551 153.519 132.818C155.166 134.085 156.686 135.31 156.94 135.563C157.193 135.774 158.882 137.295 160.698 138.942C166.864 144.474 171.594 149.626 174.465 153.933C177.252 158.156 178.35 160.014 180.842 164.829C182.151 167.447 184.094 170.91 185.065 172.557C186.079 174.204 187.345 176.315 187.894 177.287C188.443 178.258 189.161 179.314 189.499 179.609C189.795 179.905 190.048 180.369 190.048 180.58C190.048 180.792 190.259 181.214 190.47 181.51C190.724 181.805 192.709 184.761 194.947 188.14C202.084 198.951 211.881 207.565 221.51 211.408C226.07 213.224 235.614 213.942 248.115 213.393C256.814 213.055 266.78 213.309 268.512 213.942C269.061 214.153 270.285 214.322 271.257 214.322C272.228 214.365 273.79 214.618 274.719 214.956C275.649 215.294 276.789 215.589 277.253 215.589C277.718 215.589 278.647 215.885 279.323 216.223C279.956 216.56 280.801 216.856 281.138 216.856C281.814 216.856 284.137 217.87 289.5 220.488C297.228 224.331 303.478 228.892 310.066 235.522C314.458 239.956 314.627 240.083 314.88 238.985C315.218 237.676 314.796 233.199 314.247 232.186C314.036 231.763 313.402 230.454 312.853 229.314C311.797 226.949 309.813 224.12 306.857 220.699C305.716 219.305 304.914 217.954 304.914 217.363C304.914 215.631 303.267 212.929 301.324 211.493C298.875 209.677 291.358 205.876 290.218 205.876C290.007 205.876 289.247 205.581 288.613 205.243C287.937 204.905 287.051 204.609 286.628 204.609C286.248 204.609 285.573 204.44 285.15 204.229C284.77 204.018 282.997 203.427 281.265 202.92C275.48 201.189 271.763 199.88 270.454 199.077C269.061 198.233 267.751 196.037 267.751 194.559C267.751 193.461 269.356 188.478 269.863 187.971C270.116 187.717 270.285 187.253 270.285 186.915C270.285 186.535 270.539 185.733 270.877 185.099C271.214 184.508 271.679 182.65 271.975 181.003C273.368 172.81 268.934 167.574 254.66 160.437C252.76 159.508 249.297 157.945 247.692 157.269C247.228 157.101 245.961 156.552 244.863 156.087C243.765 155.58 242.582 155.2 242.245 155.2C241.907 155.2 241.484 154.989 241.358 154.778C241.231 154.525 240.809 154.356 240.429 154.356C240.091 154.356 239.204 154.102 238.486 153.764C237.726 153.427 234.094 152.16 230.378 150.977C226.662 149.753 223.325 148.612 222.945 148.443C222.565 148.232 221.51 147.937 220.623 147.768C219.694 147.641 218.807 147.345 218.553 147.177C218.342 147.008 217.455 146.712 216.653 146.585C215.851 146.416 214.795 146.121 214.33 145.91C213.866 145.741 212.641 145.361 211.586 145.065C210.53 144.812 208.925 144.389 207.996 144.178C207.067 143.925 205.927 143.545 205.462 143.376C204.998 143.165 203.942 142.869 203.14 142.7C202.337 142.573 201.408 142.278 201.028 142.109C200.69 141.94 198.959 141.349 197.227 140.842C195.496 140.335 193.764 139.786 193.427 139.617C193.047 139.406 192.117 139.111 191.315 138.942C190.513 138.773 189.668 138.519 189.415 138.35C189.204 138.182 187.557 137.59 185.825 137.041C184.094 136.535 182.489 135.943 182.236 135.774C182.024 135.605 180.589 135.056 179.068 134.507C177.548 133.959 176.155 133.367 175.943 133.156C175.69 132.987 175.268 132.818 174.93 132.818C174.085 132.818 170.116 131.002 160.065 126.104C153.012 122.641 146.509 119.094 145.073 117.953C144.862 117.784 143.131 116.644 141.272 115.42C139.414 114.195 137.725 113.055 137.472 112.886C137.261 112.717 135.276 111.239 133.08 109.592C125.436 103.891 114.33 93.2065 109.642 86.9987C108.755 85.8162 107.995 84.845 107.953 84.7605C107.869 84.7183 107.742 84.8027 107.615 84.9294ZM296.468 212.886C300.775 214.322 302.169 215.42 303.183 217.996C304.196 220.488 302.507 221.079 300.438 218.925C299.762 218.207 298.537 217.236 297.735 216.729C296.932 216.223 296.003 215.589 295.708 215.294C295.412 214.998 294.905 214.745 294.568 214.745C294.019 214.745 293.512 213.858 293.512 212.802C293.512 212.042 294.103 212.042 296.468 212.886ZM77.2939 111.534C77.2939 111.999 80.8835 119.094 81.517 119.854C81.7703 120.149 82.6572 121.289 83.5018 122.472C86.5846 126.61 91.3988 131.551 97.8178 137.041C99.4225 138.435 103.814 141.729 105.208 142.616C105.799 142.996 106.559 143.587 106.897 143.883C107.235 144.22 108.249 144.938 109.178 145.487C110.107 146.036 110.951 146.628 111.078 146.754C111.331 147.092 123.789 154.482 127.759 156.678C130.884 158.452 134.262 160.141 146.129 165.927C153.097 169.347 154.406 170.023 159.516 173.106C163.359 175.428 169.524 180.243 172.607 183.325C174.339 185.057 175.817 186.45 175.901 186.45C176.028 186.45 175.859 185.986 175.606 185.395C175.352 184.803 174.972 184.339 174.761 184.339C174.592 184.339 174.423 184.086 174.423 183.79C174.423 183.452 174.043 182.734 173.578 182.185C173.114 181.636 172.607 180.961 172.438 180.749C169.355 176.695 166.822 174.246 159.051 167.658C157.996 166.729 151.028 161.999 147.776 159.972C145.2 158.325 140.006 155.411 134.727 152.582C133.46 151.864 132.235 151.146 131.982 150.977C131.602 150.682 129.786 149.71 123.747 146.416C119.946 144.389 110.318 138.435 108.755 137.168C108.544 136.957 107.573 136.323 106.644 135.774C105.715 135.225 104.786 134.592 104.532 134.423C104.321 134.254 102.041 132.565 99.4647 130.665C96.9309 128.764 94.735 127.075 94.6083 126.948C94.4816 126.779 93.4681 125.935 92.2856 125.048C89.9207 123.274 86.8802 120.487 81.2213 114.913C79.0676 112.801 77.2939 111.281 77.2939 111.534ZM125.267 187.168C124.845 187.591 131.94 194.179 136.627 197.684C138.95 199.415 141.061 200.978 141.272 201.147C142.37 201.991 146.171 204.187 146.509 204.187C146.72 204.187 147.185 204.44 147.48 204.694C147.776 204.989 148.705 205.538 149.507 205.961C155.124 208.621 157.531 209.677 158.122 209.677C158.46 209.677 158.84 209.846 158.967 210.015C159.305 210.564 172.607 214.745 174.085 214.745C174.508 214.745 175.183 214.914 175.606 215.167C175.986 215.378 177.168 215.758 178.224 215.969C181.898 216.772 183.925 217.278 184.769 217.658C185.234 217.87 187.05 218.461 188.781 219.01C190.513 219.559 192.117 220.108 192.371 220.319C192.582 220.488 193.004 220.657 193.342 220.657C193.68 220.657 194.525 220.91 195.242 221.248C202.168 224.246 204.026 224.964 204.28 224.753C204.406 224.584 203.984 224.035 203.308 223.528C202.253 222.684 200.395 221.037 196.383 217.278C195.749 216.687 194.609 215.674 193.849 214.998C191.737 213.182 182.869 206.594 180.969 205.454C180.04 204.905 179.195 204.314 179.068 204.187C178.942 204.018 178.562 203.765 178.224 203.596C177.886 203.427 176.45 202.667 175.057 201.864C172.438 200.344 167.075 197.684 164.077 196.417C163.148 196.037 162.092 195.53 161.754 195.361C161.374 195.15 160.487 194.854 159.727 194.728C159.009 194.559 158.291 194.221 158.164 194.01C157.996 193.798 157.489 193.63 156.982 193.63C156.053 193.672 156.053 193.672 156.898 194.136C157.362 194.39 157.827 194.728 157.953 194.896C158.08 195.023 159.009 195.657 160.065 196.29C162.303 197.599 166.399 201.231 166.399 201.907C166.399 202.16 166.104 202.625 165.766 202.92C165.259 203.342 164.034 203.3 159.643 202.751C156.602 202.371 153.688 201.864 153.181 201.653C152.675 201.484 151.197 200.978 149.93 200.598C143.342 198.613 130.082 191.265 126.239 187.506C125.859 187.168 125.436 186.999 125.267 187.168Z" fill="white"/>
<path d="M197.437 208.96C205.334 216.224 225.562 236.874 226.829 238.901C227.336 239.662 226.745 240.506 225.774 240.506C225.309 240.464 224.127 240.126 223.198 239.662C222.268 239.197 221.382 238.859 221.213 238.817C220.664 238.817 216.483 236.157 215.385 235.143C214.118 233.961 213.442 233.876 214.203 234.974C215.427 236.748 221.551 242.787 225.393 246.081C227.125 247.559 231.728 250.726 233.29 251.486C235.824 252.753 236.078 252.964 236.078 253.766C236.078 254.484 235.867 254.527 233.755 254.273C232.488 254.147 231.432 254.147 231.432 254.358C231.432 254.653 233.924 255.878 236.922 257.018C239.118 257.905 245.242 257.778 246.973 256.849C247.733 256.427 248.789 256.131 249.253 256.216C250.183 256.343 250.267 256.469 251.576 259.299C253.181 262.761 256.897 267.533 257.953 267.533C258.164 267.533 258.586 267.787 258.84 268.125C259.346 268.716 265.132 270.278 265.47 269.941C265.596 269.814 264.794 269.054 263.738 268.209C260.782 265.971 259.346 263.859 259.304 261.79C259.304 259.552 260.233 257.736 262.176 256.216C265.005 254.062 266.737 253.471 270.875 253.429C274.254 253.429 274.929 253.513 276.407 254.442C277.336 254.991 278.35 255.751 278.646 256.131C279.448 257.103 280.842 260.312 280.842 261.241C280.842 262.677 281.644 262.086 281.939 260.439C282.531 257.229 282.362 253.766 281.559 252.837C280.419 251.571 277.336 250.768 272.607 250.43C264.541 249.924 260.444 248.572 256.813 245.278C253.054 241.9 253.223 241.52 258.586 241.266C262.387 241.055 265.639 240.38 268.384 239.239C268.848 239.028 270.2 238.437 271.34 237.972C272.522 237.466 274.972 236.325 276.83 235.439C283.924 232.06 288.274 231.047 295.538 231.047C300.816 231.047 302.21 230.751 300.267 230.16C299.803 230.033 299.423 229.695 299.423 229.484C299.423 229.273 299.254 229.104 299.043 229.104C298.705 229.104 295.073 226.908 293.679 225.852C293.046 225.346 290.681 224.079 287.387 222.474C285.782 221.672 284.093 220.827 283.713 220.616C283.291 220.405 282.784 220.236 282.573 220.236C282.362 220.236 281.644 220.025 280.968 219.729C279.237 219.011 276.407 218.209 273.029 217.406C268.721 216.393 252.547 216.435 245.368 217.406C234.684 218.884 232.826 219.053 227.843 218.842C222.733 218.631 220.875 218.293 215.807 216.773C212.724 215.844 212.175 215.633 209.431 214.366C208.375 213.901 207.361 213.479 207.235 213.479C207.066 213.479 205.714 212.719 204.194 211.79C202.674 210.861 201.322 210.101 201.238 210.101C201.027 210.101 197.479 207.693 195.283 206.004C192.412 203.851 193.468 205.286 197.437 208.96Z" fill="white"/>
</svg>
