<svg width="360" height="360" viewBox="0 0 360 360" fill="none" xmlns="http://www.w3.org/2000/svg">
<rect width="360" height="360" rx="82" fill="#049FD9"/>
<circle cx="180" cy="180" r="155.455" fill="#4681C7" fill-opacity="0.06"/>
<circle cx="180" cy="180" r="155.205" stroke="#2869BF" stroke-opacity="0.04" stroke-width="0.5"/>
<path d="M335 148.647C335 144.896 331.982 141.959 328.312 141.959C324.561 141.959 321.543 144.977 321.543 148.647V162.757C321.543 166.508 324.561 169.526 328.312 169.526C331.982 169.526 335 166.508 335 162.757V148.647ZM297.973 130.052C297.973 126.382 294.955 123.364 291.204 123.364C287.452 123.364 284.516 126.382 284.516 130.052V162.757C284.516 166.508 287.534 169.526 291.204 169.526C295.037 169.526 297.973 166.508 297.973 162.757V130.052ZM260.864 104.688C260.864 100.936 257.847 98 254.177 98C250.425 98 247.489 101.018 247.489 104.688V176.214C247.489 179.965 250.506 182.983 254.177 182.983C257.928 182.983 260.864 179.965 260.864 176.214V104.688ZM223.837 130.052C223.837 126.382 220.82 123.364 217.149 123.364C213.479 123.364 210.462 126.382 210.462 130.052V162.757C210.462 166.508 213.479 169.526 217.149 169.526C220.901 169.526 223.837 166.508 223.837 162.757V130.052ZM186.728 148.647C186.728 144.896 183.711 141.959 180.041 141.959C176.289 141.959 173.271 144.977 173.271 148.647V162.757C173.271 166.508 176.289 169.526 180.041 169.526C183.711 169.526 186.728 166.508 186.728 162.757V148.647ZM149.701 130.052C149.701 126.382 146.684 123.364 142.932 123.364C139.18 123.364 136.163 126.382 136.163 130.052V162.757C136.163 166.508 139.18 169.526 142.932 169.526C146.684 169.526 149.701 166.508 149.701 162.757V130.052ZM112.674 104.688C112.674 100.936 109.657 98 105.905 98C102.153 98 99.1358 101.018 99.1358 104.688V176.214C99.1358 179.965 102.153 182.983 105.905 182.983C109.657 182.983 112.674 179.965 112.674 176.214V104.688ZM75.5656 130.052C75.5656 126.382 72.548 123.364 68.7964 123.364C65.0447 123.364 62.0271 126.382 62.0271 130.052V162.757C62.0271 166.508 65.0447 169.526 68.7964 169.526C72.548 169.526 75.5656 166.508 75.5656 162.757V130.052ZM38.5385 148.647C38.5385 144.896 35.5209 141.959 31.7693 141.959C28.0176 141.959 25 144.977 25 148.647V162.757C25 166.508 28.0176 169.526 31.7693 169.526C35.5209 169.526 38.5385 166.508 38.5385 162.757V148.647ZM177.839 207.205C177.431 207.124 171.233 205.493 164.626 205.493C152.067 205.493 144.563 212.262 144.563 222.294C144.563 231.183 150.843 235.669 158.428 238.034C159.244 238.279 160.467 238.687 161.364 238.931C164.708 239.992 167.399 241.541 167.399 244.314C167.399 247.332 164.3 249.371 157.531 249.371C151.577 249.371 145.868 247.658 144.726 247.332V259.728C145.379 259.892 152.148 261.196 159.407 261.196C169.846 261.196 181.672 256.629 181.672 243.091C181.672 236.566 177.676 230.449 168.867 227.676L165.116 226.453C162.914 225.719 158.917 224.577 158.917 221.315C158.917 218.705 161.853 216.911 167.318 216.911C172.048 216.911 177.757 218.46 177.92 218.542V207.205H177.839ZM292.672 233.385C292.672 241.215 286.636 247.576 278.644 247.576C270.57 247.576 264.616 241.215 264.616 233.385C264.616 225.556 270.57 219.194 278.644 219.194C286.636 219.276 292.672 225.637 292.672 233.385ZM278.644 205.574C262.088 205.574 250.18 218.053 250.18 233.467C250.18 248.881 262.088 261.36 278.644 261.36C295.2 261.36 307.107 248.881 307.107 233.467C307.107 218.053 295.2 205.574 278.644 205.574ZM93.9977 207.45C92.6927 207.042 87.9624 205.493 81.6009 205.493C65.0447 205.493 52.8927 217.319 52.8927 233.385C52.8927 250.757 66.2681 261.278 81.6009 261.278C87.6362 261.278 92.285 259.81 93.9977 259.321V244.885C93.4268 245.211 88.9411 247.74 82.5796 247.74C73.5267 247.74 67.6546 241.378 67.6546 233.385C67.6546 225.148 73.7714 219.031 82.5796 219.031C89.1042 219.031 93.4268 221.641 93.9977 221.886V207.45ZM235.826 207.45C234.521 207.042 229.791 205.493 223.429 205.493C206.873 205.493 194.721 217.319 194.721 233.385C194.721 250.757 208.178 261.278 223.429 261.278C229.465 261.278 234.113 259.81 235.826 259.321V244.885C235.255 245.211 230.77 247.74 224.408 247.74C215.355 247.74 209.565 241.378 209.565 233.385C209.565 225.148 215.681 219.031 224.408 219.031C230.933 219.031 235.255 221.641 235.826 221.886V207.45ZM126.294 260.381H112.674V206.553H126.294V260.381Z" fill="white"/>
</svg>
