<svg width="360" height="360" viewBox="0 0 360 360" fill="none" xmlns="http://www.w3.org/2000/svg">
<rect width="360" height="360" rx="82" fill="url(#paint0_linear)"/>
<path fill-rule="evenodd" clip-rule="evenodd" d="M193.562 64.2228C192.935 57.0331 192.312 56.7199 189.968 55.7831C181.062 52.1868 168.248 50 158.874 50C121.687 50 97 77.822 97 108.77C97 142.842 124.344 166 155.748 166C171.218 166 182.938 161.129 187.312 159.096C194.029 155.815 193.875 152.999 194.029 150.499L194.342 144.873C194.655 140.183 196.216 133.93 192.622 133.93C191.216 133.93 190.589 134.867 190.122 135.807C186.839 141.746 183.246 150.966 174.182 156.906C168.872 160.346 163.089 161.282 157.932 161.282C133.871 161.282 112.621 141.433 112.621 106.735C112.621 76.7258 131.058 54.6869 158.245 54.6869C171.995 54.6869 180.276 59.5331 187.149 71.2559C190.119 75.9456 190.119 77.506 192.15 77.506C194.493 77.506 194.493 75.473 194.18 71.2559L193.562 64.2228ZM264.55 58.5963C264.391 55.9397 263.451 55.3133 262.207 54.6897C255.8 51.5632 245.64 50 239.08 50C214.86 50 203.456 64.3822 203.456 78.605C203.456 96.424 219.08 103.924 230.953 109.24C248.143 116.894 258.613 123.771 258.613 137.526C258.613 154.562 244.08 161.285 232.047 161.285C211.733 161.285 208.296 145.186 207.36 137.216C207.046 134.09 207.203 131.433 204.546 131.433C201.423 131.433 201.577 136.123 201.423 145.499L201.266 153.469C201.266 156.126 201.577 158.472 209.39 161.752C216.42 164.747 222.203 166 230.484 166C258.764 166 270.797 147.999 270.797 131.276C270.797 108.301 250.643 100.801 239.547 95.9542C226.734 90.3278 214.86 84.7013 214.86 71.7285C214.86 59.5387 226.42 54.6925 236.577 54.6925C254.077 54.6925 257.83 66.2586 260.174 74.2313C260.484 75.4814 261.108 77.0446 262.987 77.0446C264.86 77.0446 265.02 75.0115 265.02 72.8247L264.55 58.5963Z" fill="black"/>
<path fill-rule="evenodd" clip-rule="evenodd" d="M166.324 215.669C166.656 217.08 167.012 219.912 167.439 224.127C167.841 228.335 168.053 231.421 168.053 233.336C168.053 234.067 167.887 234.977 167.58 236.063C165.874 236.04 164.174 235.844 162.508 235.477C158.977 229.696 156.512 226.088 155.066 224.6C152.389 221.852 148.953 219.503 144.735 217.588C141.631 216.149 138.076 215.44 134.048 215.44C126.323 215.44 119.498 219.126 113.622 226.526C107.746 233.918 104.808 244.927 104.808 259.518C104.808 266.357 105.972 273.02 108.243 279.482C110.54 285.943 113.979 290.994 118.55 294.68C123.146 298.337 128.524 300.179 134.732 300.179C137.741 300.179 140.94 299.78 144.305 298.919C146.033 298.542 147.408 297.763 148.474 296.57C149.207 295.763 149.705 294.606 149.944 293.015C150.301 290.162 150.488 286.098 150.488 280.822C150.488 275.676 150.417 272.163 150.272 270.248C149.966 269.489 149.634 269.006 149.348 268.809C149.042 268.583 148.093 268.23 146.53 267.719L140.347 265.955C139.021 265.602 138.192 265.169 137.857 264.696C137.779 264.229 137.732 263.758 137.716 263.285C137.716 262.604 137.882 261.638 138.213 260.407C139.042 260.104 139.61 259.952 139.942 259.952C144.989 259.952 149.348 260.153 153.045 260.559C154.346 260.654 155.768 260.71 157.288 260.71L168.257 260.559L172.902 260.407C173.47 260.358 175.012 260.407 177.569 260.559C177.618 261.846 177.639 262.929 177.639 263.811C177.639 264.34 177.473 264.975 177.142 265.655C176.359 266.16 175.012 266.763 173.114 267.493C171.216 268.251 170.151 268.734 169.915 268.988C169.559 269.366 169.298 269.994 169.157 270.826C169.015 271.658 168.941 274.614 168.941 279.637C168.941 285.442 168.92 288.924 168.871 290.059C168.705 293.696 168.61 295.763 168.61 296.267C168.61 298.087 168.374 299.223 167.897 299.678C166.617 301.043 162.589 302.605 155.859 304.376C149.13 306.111 141.289 307 132.355 307C126.122 307 120.698 306.471 116.077 305.409C111.481 304.348 107.57 302.785 104.325 300.711C100.047 298.021 96.2635 294.615 93.1404 290.641C90.1016 286.812 87.7527 282.483 86.1991 277.849C84.0652 271.359 83 264.869 83 258.407C83 251.166 84.5872 243.823 87.7404 236.377C90.0589 230.969 93.3609 226.038 97.4788 221.835C101.672 217.521 106.91 214.086 113.21 211.514C119.488 208.964 126.362 207.677 133.752 207.677C134.676 207.677 136.192 207.8 138.252 208.054C143.913 208.054 149.176 208.813 154.078 210.301C159.002 211.811 163.079 213.602 166.324 215.669ZM192.361 256.107C192.361 249.998 193.472 243.865 195.676 237.707C197.285 233.3 199.58 229.175 202.476 225.485C205.39 221.806 209.065 218.501 213.446 215.62C217.854 212.742 222.334 210.675 226.926 209.405C231.501 208.146 236.619 207.518 242.259 207.518C251.877 207.518 260.24 209.433 267.326 213.299C274.408 217.136 279.974 222.332 284.051 228.896C289.307 237.431 291.966 246.366 291.966 255.727C291.966 269.683 287.508 281.651 278.602 291.597C269.696 301.565 257.302 306.538 241.423 306.538C237.727 306.55 234.037 306.278 230.383 305.727C227.801 305.328 225.526 304.796 223.583 304.087C221.603 303.419 219.636 302.711 217.685 301.963C212.638 298.884 208.585 295.756 205.531 292.553C202.476 289.35 199.891 285.739 197.761 281.697C196.597 279.429 195.295 275.337 193.803 269.408C192.833 265.62 192.361 261.176 192.361 256.107ZM239.631 214.837C235.603 214.837 232.026 215.849 228.947 217.842C225.843 219.838 223.498 222.036 221.935 224.455C219.28 228.567 217.37 233.115 216.296 237.89C215.206 242.733 214.638 248.637 214.638 255.607C214.638 259.843 214.804 262.876 215.135 264.692C215.23 265.271 215.35 266.283 215.537 267.715C215.964 271.38 216.437 274.025 217.008 275.693C218.997 281.982 220.394 285.841 221.226 287.308C222.623 289.83 224.686 292.331 227.409 294.775C228.806 296.062 230.82 297.226 233.451 298.288C235.964 299.318 238.651 299.856 241.366 299.872C246.368 299.872 251.009 298.637 255.274 296.165C259.559 293.664 262.994 289.421 265.608 283.467C268.183 277.51 269.495 269.736 269.495 260.171C269.495 256.231 269.234 250.877 268.708 244.119L268.377 242.726C268.232 242.32 267.999 241.315 267.668 239.696C265.961 231.594 262.688 225.436 257.859 221.2C253.016 216.957 246.925 214.837 239.631 214.837Z" fill="white"/>
<defs>
<linearGradient id="paint0_linear" x1="180" y1="0" x2="180" y2="360" gradientUnits="userSpaceOnUse">
<stop stop-color="#EFC738"/>
<stop offset="0.508895" stop-color="#EFC738"/>
<stop offset="0.509168"/>
<stop offset="1"/>
</linearGradient>
</defs>
</svg>
