<svg width="360" height="360" viewBox="0 0 360 360" fill="none" xmlns="http://www.w3.org/2000/svg">
<rect width="360" height="360" rx="82" fill="#0093D0"/>
<path d="M233.787 193.015H267.581C267.452 187.609 267.581 153.794 267.581 153.794C267.581 153.794 239.6 186.481 233.787 193.015ZM184.167 106.052L157.401 140.218C157.401 140.218 108.652 140.446 102.31 140.218C98.0184 140.446 90.4697 139.161 90.5483 148.816L90.4697 211.119C89.9769 214.669 92.5836 218.054 95.2974 218.361H169.07C169.07 218.361 225.702 141.903 256.118 106.052H311.63V254.562H269.537L269.552 227.681L208.741 227.709L187.331 254.562H72.6658C59.9966 254.562 47.9274 240.693 49.1343 230.13V135.683C53.355 110.644 71.0661 106.559 74.1155 106.052H184.167Z" fill="white"/>
</svg>
