<svg width="360" height="360" viewBox="0 0 360 360" fill="none" xmlns="http://www.w3.org/2000/svg">
<rect width="360" height="360" rx="82" fill="#C12323"/>
<path d="M72.0283 235.228H55.6045V125.604H71.4979V112.004H42V248.824H72.0283V235.228Z" fill="#104F8C"/>
<path d="M287.972 125.6H304.396V235.223H288.494V248.824H318V112H287.972V125.6Z" fill="#104F8C"/>
<path d="M252.069 204.604C252.394 204.442 252.069 204.082 251.992 203.92L243.619 193.772L243.38 193.657L234.314 204.236C234.237 204.361 234.357 204.442 234.443 204.523H241.912V220.938H204.111V207.304H203.811C199.738 216.476 190.164 223.197 180.059 222.838C175.19 222.838 170.959 220.938 166.968 218.688L166.775 219.052V220.866L166.446 220.985L149.141 220.904L149.059 220.463L148.982 195.83L148.897 195.744C147.605 198.487 146.565 201.421 144.875 204.04C136.499 218.333 120.879 224.006 104.982 222.277C91.6124 221.148 78.8935 211.364 73.4602 199.013C67.5435 185.691 68.6302 167.376 77.8881 155.906C87.8305 142.866 103.895 137.51 119.634 140.77C123.741 141.698 127.682 143.346 131.348 145.395V145.117C131.429 143.906 131.066 142.742 131.348 141.613H146.638V167.74L127.241 167.611C122.248 160.852 114.398 158.118 106.227 159.885C98.419 161.335 91.2916 168.822 90.0038 176.63C88.3567 185.528 91.9803 194.14 99.3815 199.248C105.221 203.676 114.642 203.843 120.717 199.856C123.861 197.96 126.719 194.7 128.567 191.646L129.012 191.526L154.292 191.479L154.694 191.526L169.471 191.646L169.633 191.761C170.275 196.112 170.112 200.78 173.09 204.159C174.703 205.653 177.034 206.093 179.332 205.653C181.83 205.289 184.401 203.116 185.129 200.617C185.856 198.007 185.129 195.184 183.276 193.331C181.792 191.847 179.935 191.12 178.125 190.311C168.221 186.854 156.063 182.666 152.242 171.196C149.261 161.254 152.764 150.832 160.978 144.633C167.657 139.559 178.604 138.032 186.134 142.421L188.35 143.867C188.709 143.829 188.551 143.384 188.594 143.106L188.709 140.971C193.501 141.01 198.814 140.809 203.525 140.971L203.486 167.855L203.405 168.018L186.776 167.936C185.813 163.992 186.091 159.004 181.83 156.907C179.451 156.022 176.191 155.94 174.296 157.874C172.487 159.444 171.764 161.695 172.166 164.116C172.529 167.376 175.708 169.425 178.57 170.272C184.765 172.604 191.165 174.298 196.555 178.563C204.611 184.279 207.713 193.939 205.137 203.432C205.013 203.676 204.928 203.958 204.975 204.236L205.373 204.523H211.054L222.485 191.402L232.27 180.091L230.734 178.08L213.386 157.395L208.338 157.352V141.279H242.272V157.472C240.377 157.673 238.546 157.309 236.732 157.635L236.894 158.118C239.273 160.933 241.485 163.791 243.863 166.49L244.505 166.007C246.837 163.265 249.493 160.569 251.709 157.716C249.656 157.429 247.564 157.716 245.51 157.472L245.553 141.279H282.871L282.747 157.592L282.628 157.716L274.816 157.793L255.17 180.373L255.209 180.779L274.897 204.604H282.525V220.938H245.468L245.433 204.604H252.069Z" fill="#104F8C"/>
</svg>
