<svg width="360" height="360" viewBox="0 0 360 360" fill="none" xmlns="http://www.w3.org/2000/svg">
<rect width="360" height="360" rx="82" fill="#022169"/>
<path d="M110.582 165.778C101.538 159.556 96.6108 156.074 84.6323 156.074C70.0698 156.074 58.2538 168.999 58.2538 184.94C58.2538 200.886 70.0698 213.801 84.6323 213.801C96.0904 213.801 98.9359 212.694 111.089 204.495V233.158C103.299 237.075 94.0395 239.309 84.6323 239.309C53.5071 239.309 28.2734 214.961 28.2734 184.94C28.2734 154.909 53.5071 130.584 84.6323 130.584C93.9633 130.584 102.83 132.767 110.582 136.628V165.778Z" fill="white"/>
<path d="M295.18 167.661C281.523 162.067 286.496 151.642 296.611 151.642C304.094 151.642 309.892 154.746 314.976 158.142V133.162C305.089 130.155 299.995 129.03 291.798 129.03C269.786 129.03 258.475 145.123 258.422 161.356C258.393 172.768 267.245 185.3 277.579 189.11C286.681 192.458 288.049 193.012 293.497 194.885C304.363 198.637 304.399 214.11 289.539 214.11C284.734 214.11 272.809 212.696 265.742 197.423L223.88 91.2695L170.526 232.249V156.447H192.587V132.137H118.738V156.449H142.267V237.23H198.715L205.236 216.761H236.792L229.276 194.72H212.292L223.877 160.518L239.501 203.932C249.39 230.506 268.052 239.684 288.966 239.684C309.887 239.684 331.082 227.401 331.082 202.246C331.087 184.255 320.538 176.82 311.113 173.005C307.353 171.476 296.901 168.367 295.18 167.661Z" fill="white"/>
</svg>
