<svg width="360" height="360" viewBox="0 0 360 360" fill="none" xmlns="http://www.w3.org/2000/svg">
<rect width="360" height="360" rx="82" fill="black"/>
<path d="M193.995 25V127.743L245.366 38.8171C229.472 31.4253 212.214 26.6212 193.995 25ZM90.1891 52.6343C75.6208 62.9057 62.9062 75.6317 52.6348 90.1886L141.56 141.56L90.1891 52.6343ZM269.458 52.6343L218.44 141.56L307.366 90.1886C297.072 75.6317 284.037 62.8944 269.458 52.6343ZM141.56 218.086L52.6348 269.457C62.9176 284.025 75.6208 297.072 90.1891 307.366L141.56 218.086ZM218.086 218.086L269.458 307.366C284.049 297.072 297.072 284.025 307.366 269.457L218.086 218.086ZM166.006 232.257L114.635 321.183C130.541 328.563 147.81 333.356 166.006 335V232.257Z" fill="#8DC643"/>
<path d="M166.006 25C147.81 26.6099 130.54 31.4253 114.634 38.8171L166.006 127.743V25ZM38.8171 114.634C31.482 130.484 26.6325 147.798 25 166.006H127.743L38.8171 114.634ZM321.183 114.634L232.257 166.006H335C333.356 147.798 328.518 130.484 321.183 114.634ZM25 193.994C26.6552 212.236 31.482 229.539 38.8171 245.366L127.743 193.994H25ZM232.257 193.994L321.183 245.366C328.529 229.539 333.379 212.236 335 193.994H232.257ZM193.994 232.257V335C212.202 333.356 229.46 328.575 245.366 321.183L193.994 232.257Z" fill="#118745"/>
</svg>
