<svg width="360" height="360" viewBox="0 0 360 360" fill="none" xmlns="http://www.w3.org/2000/svg">
<rect width="360" height="360" rx="82" fill="#0475A4"/>
<path d="M103.688 162.576L103.855 163.37H104.666H116.283H117.433L117.273 162.231C116.605 157.471 115.181 153.264 112.984 149.628C110.8 145.935 108.064 142.859 104.774 140.412C101.494 137.974 97.7603 136.13 93.5811 134.876C89.4053 133.624 84.9872 133 80.3317 133C73.525 133 67.4263 134.245 62.0572 136.762C56.7946 139.184 52.3551 142.533 48.7518 146.807L48.7518 146.807L48.7444 146.815C45.2326 151.08 42.5665 156.086 40.7381 161.819C38.9101 167.47 38 173.526 38 179.979C38 186.423 38.8264 192.47 40.4863 198.114L40.4862 198.114L40.4902 198.127C42.2365 203.782 44.8215 208.709 48.254 212.895C51.6966 217.094 56.0171 220.404 61.1987 222.827L61.1987 222.828L61.2108 222.833C66.4198 225.185 72.4758 226.346 79.3535 226.346C90.7092 226.346 99.7844 223.233 106.455 216.9C113.108 210.584 116.974 201.78 118.134 190.598L118.248 189.495H117.139H105.522H104.588L104.524 190.427C104.286 193.919 103.573 197.16 102.391 200.155C101.214 203.137 99.571 205.715 97.4653 207.899L97.4648 207.899C95.4454 209.996 92.992 211.675 90.0909 212.93C87.3015 214.091 84.0552 214.685 80.3317 214.685C75.2384 214.685 70.9208 213.73 67.3432 211.864C63.7248 209.976 60.7467 207.467 58.3954 204.335C56.1129 201.105 54.4104 197.351 53.2974 193.059C52.1785 188.662 51.6169 184.018 51.6169 179.123C51.6169 174.642 52.1769 170.327 53.2945 166.176C54.4068 162.044 56.1096 158.408 58.3955 155.254C60.7509 152.036 63.691 149.487 67.2248 147.602C70.8017 145.737 75.118 144.783 80.2095 144.783C86.1467 144.783 91.1971 146.284 95.4085 149.247L95.4085 149.247L95.4156 149.252C99.6548 152.181 102.427 156.587 103.688 162.576ZM122.236 146.861H150.339V223.389V224.389H151.339H162.956H163.956V223.389V146.861H192.059H193.059V145.861V136.079V135.079H192.059H122.236H121.236V136.079V145.861V146.861H122.236ZM201.747 135.079H200.747V136.079V223.389V224.389H201.747H259.587H260.587V223.389V213.606V212.606H259.587H214.364V136.079V135.079H213.364H201.747ZM277.28 146.861V223.389V224.389H278.28H289.897H290.897V223.389V146.861H319H320V145.861V136.079V135.079H319H249.176H248.176V136.079V145.861V146.861H249.176H277.28Z" fill="white" stroke="white" stroke-width="2"/>
</svg>
