<svg width="360" height="360" viewBox="0 0 360 360" fill="none" xmlns="http://www.w3.org/2000/svg">
<rect width="360" height="360" rx="82" fill="black"/>
<path d="M192.084 268.773C192.084 276.136 188.934 284.529 180.018 284.529C171.094 284.529 168.449 276.136 168.449 268.773V246.483C144.359 235.422 121.912 221.086 101.745 203.882V266.152C101.745 311.329 137.468 333.913 180.018 333.913C221.252 333.913 257.435 312.174 258.755 268.664C237.757 268.214 215.019 263.957 192.084 256.003L192.084 268.773Z" fill="#50B2CE"/>
<path d="M234.09 214.238H192.084V214.268C202.091 219.586 211.771 222.519 220.646 222.51C230.421 222.51 234.151 219.224 234.09 214.236" fill="#50B2CE"/>
<path d="M138.477 132.137C111.111 132.167 130.847 158.887 149.433 179.343C155.377 185.908 161.728 192.092 168.449 197.859V141.602C166.89 140.67 165.317 139.811 163.717 139.004C154.955 134.405 146.541 132.116 138.476 132.138" fill="#50B2CE"/>
<path d="M168.449 91.2026C168.449 83.8635 171.091 75.4382 180.018 75.4382C188.934 75.4382 192.084 83.8633 192.084 91.2026V108.131C205.948 114.626 219.181 122.389 231.614 131.322H258.817V93.8388C258.817 48.6708 222.057 26.0898 180.019 26.0898C140.01 26.0898 106.034 46.061 102.132 86.0001C124.746 86.8043 147.107 91.038 168.449 98.5565L168.449 91.2026Z" fill="#50B2CE"/>
<path d="M299.339 196.621L225.679 196.732C230.617 203.302 234.028 209.529 234.089 214.238H258.819V266.153C258.819 267.015 258.781 267.831 258.755 268.664C260.059 268.699 261.342 268.704 262.645 268.704C288.26 268.664 307.616 263.681 315.672 252.428C323.754 240.862 319.893 222.694 299.339 196.62" fill="#6AB345"/>
<path d="M102.132 86C100.221 85.9448 98.3459 85.9216 96.4674 85.9216C35.5904 86.032 22.6886 120.287 76.1828 179.117C84.1675 187.908 92.7056 196.179 101.745 203.881V93.8385C101.745 91.1356 101.884 88.5489 102.131 86" fill="#6AB345"/>
<path d="M192.083 108.13C184.379 104.524 176.49 101.327 168.448 98.5552V141.601C175.515 145.76 181.973 150.874 187.641 156.799L261.661 156.692C252.316 147.47 242.27 138.988 231.613 131.32H192.083L192.083 108.13Z" fill="#6AB345"/>
<path d="M192.083 256.001V214.268C183.64 209.66 175.717 204.159 168.448 197.859V246.482C176.322 250.082 184.2 253.255 192.083 256.001" fill="#6AB345"/>
<path d="M168.451 197.858C161.728 192.093 155.375 185.908 149.432 179.342C130.849 158.889 111.11 132.168 138.478 132.136C146.543 132.119 154.956 134.409 163.716 139.005C165.318 139.812 166.889 140.671 168.451 141.6V98.5545C147.108 91.0383 124.747 86.8055 102.133 86.001C101.886 88.55 101.744 91.1368 101.744 93.8396V203.882C121.911 221.087 144.359 235.423 168.451 246.483L168.451 197.858Z" fill="#74CBF1"/>
<path d="M192.083 131.322H231.613C219.18 122.389 205.947 114.625 192.083 108.131V131.322Z" fill="#74CBF1"/>
<path d="M258.819 214.239H234.092C234.15 219.226 230.422 222.513 220.647 222.513C211.772 222.522 202.09 219.589 192.083 214.27V256.001C215.018 263.959 237.756 268.212 258.755 268.665C258.781 267.831 258.819 267.016 258.819 266.153L258.819 214.239Z" fill="#74CBF1"/>
</svg>
