<svg width="360" height="360" viewBox="0 0 360 360" fill="none" xmlns="http://www.w3.org/2000/svg">
<rect width="360" height="360" rx="82" fill="#0080CB"/>
<path d="M26 171.661L171.602 25C93.2417 29.5004 30.5004 92.5064 26 171.661Z" fill="white"/>
<path d="M334.411 180.132C334.411 179.338 334.411 178.809 334.411 178.014H210.252L182.19 149.688H331.763C329.116 135.657 324.351 122.421 318.262 109.979H185.103L213.164 81.6524H299.466C286.494 65.5038 270.346 52.2672 251.815 42.4722C251.55 42.2074 251.021 42.2074 250.756 41.9427C238.313 35.3244 224.812 30.5593 210.781 27.6472L28.6465 211.106C30.2349 218.518 32.088 225.666 34.7353 232.549C37.1179 239.432 40.0299 246.05 43.4714 252.404C67.8267 298.732 114.684 331.294 169.483 335L65.4441 230.166L86.6226 208.723L209.458 332.353C224.018 329.441 238.049 324.675 250.756 317.792L114.419 180.397L135.598 158.954L276.435 300.85C286.759 292.643 296.025 282.848 303.702 272.259L249.167 217.195H329.381C332.822 205.811 334.411 193.369 334.411 180.132Z" fill="white"/>
</svg>
