<svg width="360" height="360" viewBox="0 0 360 360" fill="none" xmlns="http://www.w3.org/2000/svg">
<rect width="360" height="360" rx="82" fill="black"/>
<path d="M209.032 270.478C225.202 270.478 238.323 283.539 238.323 299.709C238.323 315.879 225.193 329 209.032 329C192.853 329 179.732 315.87 179.732 299.709C179.724 283.539 192.862 270.478 209.032 270.478Z" fill="white"/>
<path d="M173.646 101.592V257.35H126.941V235.997V123.083V101.592H173.646Z" fill="white"/>
<path d="M150.3 29.9998C166.47 29.9998 179.591 43.1294 179.591 59.2304C179.591 75.4005 166.461 88.5991 150.3 88.5991C134.06 88.5991 121 75.4005 121 59.2304C120.991 43.1294 134.052 29.9998 150.3 29.9998Z" fill="white"/>
<path d="M232.378 101.586V257.344H185.672V235.998V123.084V101.586H232.378Z" fill="white"/>
</svg>
