<svg width="360" height="360" viewBox="0 0 360 360" fill="none" xmlns="http://www.w3.org/2000/svg">
<rect width="360" height="360" rx="82" fill="#C50000"/>
<path d="M108.41 281.153C81.0193 267.873 56.9485 256.253 54.8735 255.008L51 252.933V173.388C51 119.022 51.415 93.5674 52.5217 93.0141C53.2134 92.4607 60.5453 90.2473 68.7073 88.1722C129.991 71.9867 164.16 62.8564 175.089 59.813C182.006 57.8763 188.231 56.3545 188.923 56.4929C189.476 56.6312 191.828 56.0779 194.041 55.1095C196.255 54.2795 199.99 53.7261 202.342 54.1411C206.353 54.8328 232.638 67.2832 285.483 93.7057L309 105.464V265.798L300.7 268.288C296.135 269.671 290.878 270.916 288.941 271.193C287.004 271.47 284.653 272.161 283.684 272.715C282.716 273.268 281.471 273.407 280.779 272.853C280.087 272.438 279.119 272.715 278.704 273.407C277.874 274.513 265.977 277.972 261.273 278.387C260.028 278.387 258.507 278.94 257.815 279.355C255.602 280.738 162.5 305.363 160.287 305.224C159.18 305.224 135.801 294.296 108.41 281.153ZM208.428 268.703C208.843 269.118 209.812 268.841 210.642 268.15C212.164 266.905 237.203 259.849 242.598 259.019C244.12 258.881 247.163 258.051 249.238 257.083C251.451 256.253 253.942 255.561 254.91 255.561C255.878 255.561 256.985 255.146 257.538 254.731C258.645 253.486 206.215 227.755 201.097 227.063C198.883 226.648 191.69 227.893 185.188 229.692L173.429 233.012L173.014 255.284L172.737 277.418L190.306 272.715C199.99 270.225 208.152 268.426 208.428 268.703ZM147.836 256.253C147.836 247.537 147.421 240.344 147.006 240.344C145.623 240.344 103.568 251.826 103.845 252.103C104.952 253.071 145.9 272.161 146.868 272.161C147.421 272.161 147.836 264.968 147.836 256.253ZM285.483 125.8C284.653 124.97 215.069 143.507 214.239 144.891C213.824 145.444 213.685 159.416 213.962 175.878L214.377 205.898L227.104 211.985C234.159 215.305 250.068 222.913 262.657 229.138L285.483 240.205L285.898 183.349C286.036 152.084 285.898 126.215 285.483 125.8ZM91.118 229.968C98.3115 228.17 114.082 224.02 126.117 220.7L147.836 214.89V153.053L128.192 143.646C117.264 138.389 102.185 131.057 94.5764 127.322C86.9678 123.587 79.6359 120.128 78.3909 119.575C76.0392 118.745 75.9008 122.065 75.9008 176.017C75.9008 207.558 76.3158 233.427 77.0075 233.427C77.5609 233.427 83.9244 231.905 91.118 229.968ZM181.453 205.898C183.666 205.068 186.294 204.376 187.401 204.376C189.061 204.376 189.338 199.949 189.338 177.538V150.701L181.038 152.914L172.737 155.128V181.55C172.737 210.74 172.322 209.633 181.453 205.898ZM189.061 103.528C189.199 91.354 189.199 81.2553 189.061 81.2553C188.784 81.2553 185.188 82.2237 181.038 83.3304C176.887 84.4371 173.291 84.9905 172.876 84.7138C172.599 84.2988 171.631 84.5754 170.801 85.2671C169.417 86.3738 119.892 100.069 112.56 101.314C107.719 102.144 103.568 103.666 103.568 104.634C103.707 105.049 116.849 111.69 132.896 119.437L162.085 133.27L175.366 129.535L188.646 125.938L189.061 103.528ZM225.859 115.84C231.116 114.318 235.819 113.35 236.096 113.765C236.511 114.18 237.479 113.903 238.309 113.211C240.384 111.413 256.017 107.54 257.4 108.37C257.953 108.785 258.507 108.646 258.507 107.955C258.507 107.401 248.546 102.006 236.373 96.1958L214.239 85.6821V102.144C214.239 111.136 214.654 118.607 215.345 118.607C215.899 118.607 220.602 117.362 225.859 115.84Z" fill="white"/>
</svg>
