<svg width="360" height="360" viewBox="0 0 360 360" fill="none" xmlns="http://www.w3.org/2000/svg">
<rect width="360" height="360" rx="82" fill="#214194"/>
<path d="M59.1132 222.203L116.187 122.716C116.187 122.716 117.932 119.226 122.645 116.258C126.136 113.989 130.848 113.99 130.848 113.99C150.92 113.99 204.503 113.99 204.503 113.99C204.503 113.99 209.739 113.466 212.706 116.957C214.975 119.924 212.182 123.938 212.182 123.938L188.62 164.605C188.62 164.605 186.875 168.096 186.875 170.54C186.875 171.761 186.875 172.809 187.398 173.507L187.922 174.03L213.23 218.188C213.23 218.188 216.72 225.868 220.211 219.41L250.755 166.351C250.755 166.351 252.501 162.86 252.501 159.893C252.501 157.624 250.755 155.18 250.755 155.18L191.238 50.4579C190.016 48.7125 188.271 44.5236 182.337 44H181.987H106.064H105.54C100.828 44.5236 96.6387 46.269 92.6244 53.425L92.1007 53.9486L27.3474 166.351L26.8237 166.874C26.3001 168.62 23.333 173.856 26.3001 179.79V180.314L51.0844 223.25L51.6081 223.773C52.6553 225.17 56.6696 227.613 59.1132 222.203Z" fill="white"/>
<path d="M332.09 164.606L331.566 164.082L266.813 51.6799L266.289 51.1563C265.068 49.4109 262.101 44.6984 255.643 44.1748H255.119H205.027H204.503C202.758 44.1748 199.791 45.9202 202.234 50.6327L260.53 151.864C260.53 151.864 262.275 155.355 262.799 160.766C263.322 164.955 260.53 168.969 260.53 168.969C250.581 186.074 223.528 232.501 223.528 232.501C223.528 232.501 221.259 237.737 216.546 237.737C213.056 238.26 210.612 233.548 210.612 233.548L187.049 192.881C187.049 192.881 185.304 189.39 182.861 188.168C181.639 187.645 180.592 186.946 179.893 186.946H179.37H128.754C129.278 186.946 120.551 186.423 124.041 192.182L154.586 245.242C154.586 245.242 156.855 248.209 159.298 249.954C161.043 251.176 164.011 250.478 164.011 250.478H282.347C284.092 250.478 290.027 251.002 293.517 245.242L294.041 244.718L331.741 179.441V178.918C335.755 176.3 336.279 171.587 332.09 164.606Z" fill="white"/>
<path d="M278.68 262.346H163.834C163.834 262.346 159.645 262.346 154.933 260.077C151.442 258.332 148.475 254.143 148.475 254.143C138.526 237.038 111.997 189.913 111.997 189.913C111.997 189.913 109.03 185.201 110.775 181.012C111.997 177.521 117.233 178.045 117.233 178.045H164.358C164.358 178.045 168.547 178.045 170.816 176.823C172.038 176.299 172.561 175.601 173.085 175.077L198.916 130.396C198.916 130.396 203.629 123.938 196.647 123.938H135.559C135.559 123.938 131.37 124.462 129.101 125.683C127.356 126.905 126.134 129.174 126.134 129.174L64.8716 232.151C64.8716 232.151 64.8716 232.675 64.348 232.675L63.8244 234.42L63.3008 234.944C62.079 237.213 61.0318 240.18 62.7771 243.845L63.3008 244.369L101.001 309.646V310.169C103.968 314.358 107.459 316.627 115.662 316.627H116.186H245.692H246.216C247.961 316.627 253.896 316.104 257.386 310.693V310.169L283.916 267.233L284.44 266.71C285.138 265.837 285.138 262.346 278.68 262.346Z" fill="white"/>
</svg>
