<svg width="360" height="360" viewBox="0 0 360 360" fill="none" xmlns="http://www.w3.org/2000/svg">
<rect width="360" height="360" rx="82" fill="#00A9D4"/>
<path d="M180.774 74.1327C164.357 74.1327 149.581 73.1476 137.761 71.1776C125.941 69.2075 117.404 67.2375 112.479 62.6407C111.165 61.3273 109.523 59.3573 109.523 56.4022C109.523 53.7755 110.837 51.8053 112.479 50.492C114.12 49.1786 115.762 48.1936 117.732 47.2086C121.672 45.5668 126.926 43.9252 133.164 42.9401C145.641 40.6418 162.387 39 181.102 39C197.191 39 212.295 39.985 224.115 41.9551C235.935 43.9251 244.472 45.8952 249.397 50.492C250.711 51.8053 252.352 53.7755 252.352 56.4022C252.352 59.0289 250.711 61.3273 249.397 62.6407C247.756 63.954 246.114 64.9391 244.144 65.9241C240.204 67.5658 234.95 69.2075 228.712 70.1925C215.906 72.8192 199.161 74.1327 180.774 74.1327ZM180.774 48.8503C165.013 48.8503 150.238 49.8353 139.074 51.8053C130.209 53.1187 123.314 55.0887 120.359 56.7305L121.344 57.3872C123.971 58.7006 128.567 60.0139 134.477 60.999C145.969 63.2974 162.387 64.6108 180.445 64.6108C196.206 64.6108 210.981 63.6256 222.145 61.6556C231.01 60.3422 237.905 58.0438 240.86 56.7305L239.875 56.0738C237.249 54.7605 232.652 53.4471 226.742 52.4621C214.921 50.1637 198.833 48.8503 180.774 48.8503Z" fill="#FDBD3E"/>
<path d="M292.083 205.797C292.083 205.797 291.426 209.409 285.516 210.722C279.606 212.036 262.861 214.991 250.384 215.976C250.384 215.976 251.697 198.245 261.876 192.992C261.876 192.992 275.009 184.783 279.278 184.455C283.218 184.455 288.143 184.783 290.113 190.037C290.441 190.365 293.396 197.917 292.083 205.797ZM239.548 216.961C221.489 218.602 195.55 218.602 179.462 218.602C163.701 218.602 137.762 218.602 119.703 216.961C119.703 216.961 114.45 206.125 122.33 205.797C123.315 205.797 146.627 204.812 179.462 204.812C212.296 204.812 235.608 205.797 236.593 205.797C244.473 206.125 239.548 216.961 239.548 216.961ZM73.4071 211.051C67.497 209.737 66.8403 206.125 66.8403 206.125C65.8552 198.245 68.8103 190.693 68.8103 190.693C70.7804 185.44 75.7055 184.783 79.6456 185.112C83.9141 185.112 97.0478 193.648 97.0478 193.648C107.226 198.902 108.54 216.632 108.54 216.632C96.3911 215.319 79.3173 212.364 73.4071 211.051ZM101.973 146.696C101.973 146.696 113.793 120.428 122.987 109.264C122.987 109.264 140.389 108.608 163.701 108.279L163.045 110.25V114.19C163.045 115.831 164.358 116.816 165.671 116.816H179.133H179.462H192.924C194.565 116.816 195.879 115.503 195.879 114.19V109.921L195.222 107.951C218.534 108.279 235.937 108.936 235.937 108.936C245.458 120.1 256.95 146.367 256.95 146.367C258.592 150.636 254.98 150.636 254.98 150.636H179.462H179.133H103.615C103.943 150.964 100.331 150.964 101.973 146.696ZM289.456 176.575C284.531 170.993 276.323 156.874 275.338 154.904C275.994 154.904 276.323 154.576 276.323 154.576C276.323 154.576 303.247 153.262 298.322 144.069C298.322 144.069 293.068 132.905 273.368 132.905C272.711 132.905 271.726 132.905 270.741 132.905C269.756 132.905 268.442 133.234 268.114 140.129C251.697 109.921 240.533 103.683 240.533 103.683C238.235 102.369 236.922 101.713 231.34 100.399C225.758 99.4143 183.073 99.0859 179.462 99.0859C175.85 99.0859 133.165 99.4143 127.584 100.399C122.002 101.384 120.36 102.369 118.39 103.683C118.39 103.683 106.898 109.921 90.8093 140.129C90.1526 133.234 89.1675 132.905 88.1825 132.905C87.1975 132.905 86.5408 132.905 85.5558 132.905C65.8553 132.905 60.6018 144.069 60.6018 144.069C55.6767 153.262 82.6007 154.576 82.6007 154.576C82.6007 154.576 83.2574 154.576 83.9141 154.904C82.9291 156.874 74.7205 170.993 69.7954 176.575C68.8103 177.56 63.8852 183.47 62.2435 187.738C61.9152 188.723 59.9451 193.32 60.2734 200.544C60.6018 207.439 61.2585 238.631 61.2585 238.631V277.376C61.2585 279.674 62.5718 281.316 64.5419 281.316H95.4061C97.3761 281.316 98.6895 279.674 98.6895 277.376V272.451C98.6895 272.451 175.522 272.451 180.118 272.451C184.715 272.451 261.547 272.451 261.547 272.451V277.376C261.547 279.674 263.189 281.316 264.831 281.316H295.695C297.665 281.316 298.978 279.674 298.978 277.376V238.303C298.978 238.303 299.635 207.439 299.963 200.215C300.292 193.32 298.322 188.395 297.993 187.41C295.366 183.142 290.441 177.56 289.456 176.575Z" fill="white"/>
</svg>
