<svg width="360" height="360" viewBox="0 0 360 360" fill="none" xmlns="http://www.w3.org/2000/svg">
<rect width="360" height="360" rx="82" fill="#74000E"/>
<circle cx="180" cy="180" r="155.455" fill="#4681C7" fill-opacity="0.06"/>
<circle cx="180" cy="180" r="155.205" stroke="#2869BF" stroke-opacity="0.04" stroke-width="0.5"/>
<path d="M51.0039 163.655V78L179.518 120.83L51.0039 163.655Z" fill="url(#paint0_linear)"/>
<path d="M51.043 163.663L179.525 206.488L308 163.663V78.0124L179.525 120.832L51.043 163.663Z" fill="url(#paint1_linear)"/>
<path d="M51.0111 263.219L51 177.536L179.506 220.364L51.0111 263.219Z" fill="url(#paint2_linear)"/>
<path d="M307.998 177.536L179.481 220.35L51.0244 263.203L179.505 306.039L307.998 263.189V177.536Z" fill="url(#paint3_linear)"/>
<defs>
<linearGradient id="paint0_linear" x1="179.518" y1="120.827" x2="100.46" y2="2.21007" gradientUnits="userSpaceOnUse">
<stop stop-color="#06549B"/>
<stop offset="0.55" stop-color="#2FA1D3"/>
<stop offset="0.9" stop-color="#2FA1D3"/>
</linearGradient>
<linearGradient id="paint1_linear" x1="51.043" y1="155.098" x2="138.526" y2="-81.1114" gradientUnits="userSpaceOnUse">
<stop stop-color="#1371B1"/>
<stop offset="0.05" stop-color="#2FA1D3"/>
<stop offset="0.45" stop-color="#2FA1D3"/>
<stop offset="0.6" stop-color="#06569C"/>
</linearGradient>
<linearGradient id="paint2_linear" x1="179.506" y1="220.377" x2="82.937" y2="133.478" gradientUnits="userSpaceOnUse">
<stop stop-color="#9D1A36"/>
<stop offset="0.4" stop-color="#9D1A36"/>
<stop offset="0.6" stop-color="#E6192F"/>
</linearGradient>
<linearGradient id="paint3_linear" x1="51.0244" y1="254.638" x2="138.535" y2="18.3874" gradientUnits="userSpaceOnUse">
<stop stop-color="#A21C38"/>
<stop offset="0.13" stop-color="#E6192F"/>
<stop offset="0.45" stop-color="#E6192F"/>
<stop offset="0.6" stop-color="#A71C37"/>
</linearGradient>
</defs>
</svg>
