<svg width="360" height="360" viewBox="0 0 360 360" fill="none" xmlns="http://www.w3.org/2000/svg">
<rect width="360" height="360" rx="82" fill="#CF072B"/>
<path d="M167.516 67.0164L158.384 98.1881H111.429C99.2765 98.0087 82.0907 108.866 79.6459 127.311C77.0932 146.366 91.3308 149.386 103.052 150.249H143.715L134.511 183.003C134.511 183.003 90.1803 182.895 87.5916 183.003C55.7727 184.189 35.0634 161.395 39.6295 129.324C44.4113 95.5994 69.3991 67.5197 103.267 67.0164C107.69 66.9795 167.516 67.0164 167.516 67.0164Z" fill="white"/>
<path fill-rule="evenodd" clip-rule="evenodd" d="M191.091 166.606L194.614 220.644L220.105 166.606H261.344L262.926 220.644L287.914 166.606H332.999L271.195 281.549H228.231L226.433 227.403L198.785 281.549H160.063L151.362 166.606H191.091Z" fill="white"/>
</svg>
