<svg width="360" height="360" viewBox="0 0 360 360" fill="none" xmlns="http://www.w3.org/2000/svg">
<rect width="360" height="360" rx="82" fill="#082836"/>
<path d="M27.1151 179.646C104.425 179.646 181.363 179.646 258.673 179.646C246.407 220.16 233.027 261.045 220.761 301.558H155.717C181.363 267.735 207.009 233.912 233.027 200.089C196.602 231.31 159.805 262.531 123.381 292.266C108.513 286.691 94.7611 281.487 79.8938 274.797C124.496 249.151 169.097 223.505 214.071 196.372C162.779 216.814 110 238.372 58.3363 259.929C50.1593 249.151 41.9823 239.487 33.8053 228.708C89.1859 215.328 146.053 201.575 201.805 189.31C197.717 189.31 192.513 189.31 188.425 190.797C135.646 197.487 81.3806 203.062 28.6018 209.752C27.1151 201.575 27.115 193.398 26 185.221V179.646H27.1151Z" fill="#014F39"/>
<path d="M263.867 70H291C281.336 98.2478 273.531 126.867 263.867 155.115C262.38 126.867 262.38 98.2478 263.867 70Z" fill="white"/>
<path d="M207.006 72.6018C213.696 72.6018 220.386 71.115 225.962 70C230.05 70 232.652 71.4868 236.74 72.6018C240.829 99.7346 244.917 127.982 247.519 155.115C246.032 152.513 244.917 149.54 243.431 146.938C231.537 122.779 219.271 96.7611 207.006 72.6018Z" fill="white"/>
<path d="M147.541 85.982C157.205 83.3803 165.01 80.4068 174.674 77.8051C192.143 100.849 208.497 123.894 224.851 148.053C226.337 150.655 228.939 153.628 230.426 156.23C227.824 154.743 224.851 153.628 223.736 150.655C198.833 129.469 171.7 107.911 147.541 85.982Z" fill="white"/>
<path d="M85.0742 115.717C94.7379 110.142 104.03 104.938 113.694 100.85C120.384 103.452 125.959 107.54 132.649 111.629C161.269 129.098 189.517 145.452 218.136 162.921C215.534 162.921 214.048 161.434 211.446 161.434C170.561 145.823 127.074 130.585 85.0742 115.717Z" fill="white"/>
<path d="M59.448 134.673C108.138 145.452 156.829 156.23 205.519 168.496C150.138 164.407 95.8728 158.832 40.4922 153.629C46.0674 146.938 51.271 140.248 59.448 134.673Z" fill="white"/>
</svg>
