<svg width="360" height="360" viewBox="0 0 360 360" fill="none" xmlns="http://www.w3.org/2000/svg">
<rect width="360" height="360" rx="82" fill="#D35D35"/>
<path d="M77.2516 222.26L167.889 312.898C170.444 315.788 173.688 318.529 177.436 321.065C181.352 323.62 186.125 324.813 192.092 324.981H228.377C234.343 324.813 239.117 323.62 242.865 321.065C246.612 318.511 249.838 315.788 252.579 312.898L317.336 247.992C322.445 243.032 325 236.226 325 227.202V198.058H319.033C319.033 201.862 316.609 207.829 312.899 211.856L219.016 305.738C214.075 310.642 211.316 312.805 207.754 311.015L201.116 305.552L114.059 218.513C111.115 215.445 107.494 213.107 103.486 211.688L92.9141 210.159H65.1504V216.126C67.0336 216.126 69.066 216.629 71.1171 217.823L77.2516 222.26Z" fill="black"/>
<path d="M211.857 47.0825L305.739 140.965L311.016 147.267C311.428 148.028 311.645 148.881 311.645 149.747C311.645 150.613 311.428 151.465 311.016 152.227L305.552 158.865L218.495 245.923C215.642 248.623 213.416 251.915 211.973 255.568C210.53 259.221 209.905 263.146 210.141 267.067V294.831H216.108C216.108 291.027 218.532 286.403 222.242 282.748L312.899 192.092C315.789 189.537 318.343 186.293 320.898 182.564C323.452 178.835 324.813 173.875 324.981 167.908V131.623C324.813 125.656 323.62 120.883 321.066 117.135C318.74 113.634 315.998 110.428 312.899 107.589L247.974 42.6821C243.033 37.5545 236.227 35 227.202 35H198.059V40.9667L204.864 42.6635L211.857 47.0825Z" fill="black"/>
<path d="M192.092 47.0825C189.252 43.9834 186.047 41.241 182.545 38.9156C178.797 36.3612 173.856 35.1678 167.889 35H131.604C125.638 35.1678 120.864 36.3612 117.117 38.9156C113.621 41.241 110.421 43.9835 107.589 47.0825L42.6635 112.008C37.5545 116.967 35 123.773 35 132.798V161.923H40.948L42.6635 155.117C43.7114 152.543 45.2076 150.176 47.0825 148.125L140.965 54.2426L147.267 48.9658C148.025 48.5529 148.874 48.3366 149.738 48.3366C150.601 48.3366 151.45 48.5529 152.208 48.9658L158.865 54.429L245.923 141.487C249.335 144.899 252.915 147.118 256.476 148.311L267.048 149.84H294.831V143.873C291.027 143.873 286.421 141.431 282.73 137.739L192.092 47.0825Z" fill="black"/>
<path d="M149.84 65.1504H143.873C143.873 68.9542 141.449 73.5597 137.739 77.2516L47.0825 167.908C44.1924 170.462 41.4701 173.688 38.9156 177.455C36.3612 181.37 35.1678 186.125 35 192.092V228.395C35.1678 234.362 36.3612 239.135 38.9156 242.883C41.4701 246.631 44.1924 249.875 47.0825 252.598L111.989 317.355C116.949 322.464 123.755 325.018 132.779 325.018H161.904V319.07L155.117 317.485L148.125 312.899L54.2426 219.016L48.9658 212.714C48.5445 211.959 48.3233 211.108 48.3233 210.244C48.3233 209.379 48.5445 208.528 48.9658 207.773L54.4104 201.116L141.487 114.059C148.311 107.234 150.176 99.7385 149.84 92.9328V65.1504Z" fill="black"/>
</svg>
