<svg width="360" height="360" viewBox="0 0 360 360" fill="none" xmlns="http://www.w3.org/2000/svg">
<rect width="360" height="360" rx="82" fill="#005697"/>
<path d="M180.057 335.082C222.132 335.082 262.37 318.052 291.422 287.831H68.6924C97.9111 318.052 138.149 335.082 180.057 335.082Z" fill="#00AAE9"/>
<path d="M224.302 229.394H217.958L192.412 263.955H310.456C324.314 242.417 332.662 217.873 334.665 192.328H251.517L224.302 229.394Z" fill="white"/>
<path d="M50.3268 128.715H88.8955V120.701H67.858V112.853H103.087V104.839H121.62V96.8247H169.706V104.839H215.12V112.853H206.772V120.867H305.448V128.882H326.485C298.101 48.0712 209.777 5.49548 128.8 33.7124C81.549 50.2418 45.1509 88.6434 31.126 136.729H50.1599V128.715H50.3268Z" fill="white"/>
<path d="M128.466 271.802H153.51V263.788H167.535L205.77 212.029L181.56 184.313H158.853V176.299H179.556V168.285H145.997V176.299H97.2433V168.285H86.2237V160.271H58.3407V152.256H27.4524C19.2712 197.671 31.7935 244.253 61.5131 279.483H128.466V271.802Z" fill="white"/>
<path d="M314.129 152.424H320.307V160.438H310.456V168.452H283.742V176.467H269.049V184.481H295.429V176.467H335C334.833 165.781 333.497 155.095 330.992 144.577H313.962L314.129 152.424Z" fill="white"/>
<path d="M217.29 207.021H218.792L235.823 184.313H197.421L217.29 207.021Z" fill="white"/>
</svg>
