<svg width="360" height="360" viewBox="0 0 360 360" fill="none" xmlns="http://www.w3.org/2000/svg">
<rect width="360" height="360" rx="82" fill="black"/>
<path d="M177.789 282.877C143.696 282.747 123.746 276.845 124.376 234.447C154.341 244.143 148.801 274.26 177.789 282.877Z" fill="white"/>
<path d="M148.148 116.735C124.801 137.844 101.469 117.981 79.5205 138.778C96.6683 109.327 111.76 95.0037 148.148 116.735Z" fill="white"/>
<path d="M80.4147 129.173C84.9116 96.8904 64.6862 79.1922 113.711 46.287C135.993 87.8168 98.6269 94.7324 80.4147 129.173Z" fill="white"/>
<path d="M118.256 136.574C108.582 166.561 78.4499 161 69.8398 189.995C69.9629 155.916 75.8575 135.959 118.256 136.574Z" fill="white"/>
<path d="M65.8114 183.104C53.5661 152.9 27.2144 147.686 53.1968 94.6712C93.271 119.509 64.3776 144.181 65.8114 183.104Z" fill="white"/>
<path d="M25 166.835C72.1057 168.297 59.4042 204.121 80.1148 237.099C54.4148 217.083 28.9973 225.744 25 166.835Z" fill="white"/>
<path d="M36.6309 243.439C78.1751 221.142 85.0907 258.523 119.531 276.72C87.2342 272.245 69.5578 292.434 36.6309 243.439Z" fill="white"/>
<path d="M87.0604 239.214C70.1154 209.611 65.2708 189.371 102.282 168.719C108.901 199.517 80.0217 209.8 87.0604 239.214Z" fill="white"/>
<path d="M104.522 204.564C125.638 227.903 105.761 251.249 126.58 273.198C97.1142 256.036 82.7834 240.952 104.522 204.564Z" fill="white"/>
<path d="M85.0352 303.937C109.859 263.87 134.545 292.778 173.453 291.33C143.249 303.59 138.035 329.927 85.0352 303.937Z" fill="white"/>
<path d="M182.213 282.877C216.306 282.747 236.249 276.845 235.611 234.439C205.654 244.128 211.2 274.246 182.213 282.877Z" fill="white"/>
<path d="M211.841 116.735C235.187 137.837 258.512 117.981 280.461 138.778C263.313 109.313 248.229 94.9964 211.841 116.735Z" fill="white"/>
<path d="M279.571 129.173C275.081 96.8904 295.306 79.185 246.289 46.2798C224.007 87.8096 261.366 94.7324 279.571 129.173Z" fill="white"/>
<path d="M241.733 136.572C251.415 166.552 281.554 161.005 290.15 190C290.027 155.922 284.132 135.964 241.733 136.572Z" fill="white"/>
<path d="M294.172 183.104C306.425 152.893 332.777 147.679 306.794 94.664C266.727 119.502 295.621 144.174 294.172 183.104Z" fill="white"/>
<path d="M335 166.835C287.887 168.297 300.582 204.121 279.871 237.099C305.578 217.076 330.996 225.737 335 166.835Z" fill="white"/>
<path d="M323.354 243.439C281.824 221.142 274.894 258.523 240.468 276.72C272.765 272.245 290.441 292.434 323.354 243.439Z" fill="white"/>
<path d="M272.938 239.214C289.875 209.611 294.734 189.364 257.716 168.719C251.09 199.509 279.976 209.792 272.938 239.214Z" fill="white"/>
<path d="M255.48 204.551C234.371 227.891 254.234 251.237 233.43 273.186C262.888 256.024 277.204 240.947 255.48 204.551Z" fill="white"/>
<path d="M274.961 303.924C250.137 263.864 225.451 292.78 186.535 291.31C216.747 303.591 221.968 329.914 274.961 303.924Z" fill="white"/>
</svg>
