<svg width="360" height="360" viewBox="0 0 360 360" fill="none" xmlns="http://www.w3.org/2000/svg">
<rect width="360" height="360" rx="82" fill="#007EE5"/>
<path d="M123.38 52L43 104.086L98.9443 149.099L179.324 98.9418L123.38 52ZM43 192.825L123.38 245.554L179.324 198.613L98.9443 149.099L43 192.825ZM179.324 198.613L235.911 245.554L315.648 193.468L260.347 149.099L179.324 198.613ZM315.648 104.086L235.911 52L179.324 98.9418L260.347 149.099L315.648 104.086ZM179.967 208.901L123.38 255.843L99.5873 239.767V257.772L179.967 306L260.347 257.772V239.767L235.911 255.843L179.967 208.901Z" fill="white"/>
</svg>
