<svg width="360" height="360" viewBox="0 0 360 360" fill="none" xmlns="http://www.w3.org/2000/svg">
<rect width="360" height="360" rx="82" fill="#E4001C"/>
<path fill-rule="evenodd" clip-rule="evenodd" d="M207.37 126.049C196.416 125.386 189.893 131.432 189.893 145.273V214.03C189.893 228.642 195.802 234.655 207.37 234.025C218.692 233.411 224.598 228.028 224.598 212.494V146.857C224.598 132.046 219.255 126.771 207.37 126.048V126.049ZM164.861 126.633C162.807 126.633 155.313 126.955 148.421 127.464V232.579C150.758 232.733 156.911 233.133 160.234 233.242V197.544L164.861 197.535C177.244 197.49 182.386 190.553 182.386 177.202V146.23C182.386 133.16 176.604 126.638 164.861 126.638V126.632V126.633ZM127.377 210.403C127.377 214.557 126.233 217.187 122.085 216.557C118.011 215.939 116.916 213.786 116.916 208.864V130.772C114.211 131.139 108.18 132.185 105.597 132.649V211.633C105.597 224.245 110.494 229.152 122.086 230.812C132.693 232.333 139.193 225.631 139.193 211.633V128.185C136.978 128.342 129.715 129.11 127.378 129.42V210.404L127.377 210.403ZM257.396 184.597L244.289 131.154C240.719 130.57 236.414 129.97 233.088 129.585V230.456C235.428 230.182 241.386 229.335 244.46 228.841L243.527 169.403L257.396 226.518C260.347 225.937 264.653 224.997 267.486 224.322V135.69C264.534 134.967 259.165 133.828 256.582 133.34L257.396 184.596L257.396 184.597ZM83.7012 138.968C79.9477 138.968 74.5321 140.354 64.7378 144.137V215.892C73.3498 219.154 79.9485 221.061 83.7012 221.061C92.352 221.061 97.2285 214.446 97.2285 203.834V156.192C97.2285 145.583 92.352 138.968 83.7012 138.968ZM273.332 151.195C276.258 151.849 279.14 152.575 281.947 153.346V220.417C284.53 219.661 289.332 218.095 292.53 216.911V156.513C295.601 157.51 298.496 158.504 301.147 159.453V146.521C292.79 142.873 283.82 139.906 273.333 137.171V151.196L273.332 151.195ZM212.662 212.801C212.662 216.955 211.554 219.109 207.37 219.259C203.064 219.416 201.894 217.108 201.894 212.801V147.273C201.894 142.965 203.064 140.58 207.37 140.736C211.554 140.89 212.662 143.119 212.662 147.273V212.801ZM86.5214 201.99C86.5214 206.144 84.5245 207.526 82.1375 207.526C80.28 207.526 77.4143 206.683 75.0772 205.881V154.116C77.4143 153.345 80.2809 152.501 82.1375 152.501C84.5236 152.501 86.5214 153.884 86.5214 158.034V201.989V201.99ZM313.844 152.884C327.285 160.806 335 170.03 335 179.859C335 189.796 327.286 199.068 313.844 207.05V152.884ZM25 179.859C25 189.781 32.7061 199.071 46.1429 207.035V152.902C32.707 160.806 25 170.033 25 179.859ZM170.449 176.094C170.449 180.618 169.183 182.911 164.382 182.926L160.234 182.938V141.462C162.081 141.342 163.063 141.308 164.174 141.308C169.364 141.308 170.449 143.769 170.449 148.381V176.094Z" fill="white"/>
</svg>
