<svg width="360" height="360" viewBox="0 0 360 360" fill="none" xmlns="http://www.w3.org/2000/svg">
<rect width="360" height="360" rx="82" fill="#A649FF" fill-opacity="0.1"/>
<path d="M156.99 108.673C166.301 102.337 178.295 104.827 176.288 106.737C172.461 110.378 177.553 109.301 178.102 116.02C178.506 120.969 176.888 123.693 175.495 125.244C172.589 125.623 169.056 126.332 164.801 127.714C162.284 128.532 160.096 129.439 158.178 130.353C157.673 130.023 157.124 129.62 156.474 129.06C149.906 123.373 150.126 113.346 156.99 108.673ZM212.603 147.843C214.293 146.535 221.97 144.071 229.078 143.232C232.81 142.793 238.13 142.538 239.264 143.173C241.517 144.415 241.517 148.261 239.974 151.813C237.726 156.972 234.549 162.673 230.951 163.142C225.082 163.916 219.533 160.743 213.197 156.017C210.935 154.318 209.545 150.203 212.603 147.843ZM223.312 97.6018C231.978 101.628 230.844 109.29 231.085 113.79C231.15 115.083 231.129 115.955 231.019 116.554C229.82 115.904 227.923 115.427 224.915 115.56C224.037 115.596 223.182 115.7 222.353 115.83C219.156 114.12 217.244 110.772 215.495 107.214C215.335 106.885 215.21 106.592 215.091 106.307C215.041 106.176 214.987 106.037 214.937 105.918C214.916 105.853 214.901 105.803 214.878 105.744C213.919 102.704 214.563 102.097 214.967 101.16C215.385 100.202 216.95 99.4134 214.637 98.6158C214.438 98.5417 214.192 98.5002 213.913 98.4468C215.445 96.5493 220.032 96.0897 223.312 97.6018ZM176.068 189.204C166.731 183.218 157.07 174.631 152.846 169.878C152.136 169.345 152.252 166.976 152.252 166.976C156.064 169.935 171.879 181.219 188.603 186.372C194.502 188.193 203.554 188.881 211.407 184.436C217.407 181.038 224.63 175.117 228.941 169.015L229.731 170.382C229.701 171.29 227.718 175.71 226.709 177.486C228.532 178.533 229.891 178.818 231.919 179.372L245.766 177.216C250.736 169.199 254.299 156.269 250.501 143.962C248.334 136.902 237.034 122.845 236.224 122.071C233.386 119.347 236.699 108.821 231.073 97.3379C225.126 85.1906 209.632 72.5243 202.901 67.0125C204.884 68.4594 217.098 73.3782 222.793 80.2421C223.327 79.5335 223.547 75.848 224.037 74.9141C219.147 68.5187 218.767 57.1392 218.767 54.0972C218.767 48.5202 215.929 42.1989 215.929 42.1989C215.929 42.1989 220.818 46.0652 222.083 52.7244C223.576 60.6112 226.759 66.8227 230.969 72.0796C238.937 81.9914 246.134 87.0763 249.771 83.4146C254.123 79.0146 245.356 59.3333 234.158 48.3482C221.086 35.5278 217.668 37.1792 210 39.9129C203.881 42.0922 200.573 59.443 184.625 59.0991C181.923 58.7848 174.964 58.6158 171.523 58.6454C173.316 56.146 174.854 54.2158 174.854 54.2158C174.854 54.2158 169.504 56.3654 164.944 59.0902L164.593 58.5654C166.131 55.3277 167.785 53.2819 167.785 53.2819C167.785 53.2819 163.51 55.8465 159.609 58.9182C160.318 55.0579 163.005 52.6118 163.005 52.6118C163.005 52.6118 157.605 53.5843 150.726 61.1419C142.909 63.2767 141.029 64.6791 134.801 67.4335C124.671 65.2276 119.894 61.6667 115.34 55.1112C111.872 50.1034 105.7 49.3444 99.3936 51.9328C90.1989 55.7279 78.5698 60.9255 78.5698 60.9255C78.5698 60.9255 82.3611 60.7713 86.3126 60.9403C80.9033 62.9861 75.7078 65.7998 75.7078 65.7998C75.7078 65.7998 78.2402 65.7109 81.3665 65.7643C79.2081 67.5551 78.0146 68.409 75.9571 69.7699C71.011 73.3575 67 77.5025 67 77.5025C67 77.5025 70.3578 75.9755 73.3742 75.1187C71.2663 79.9426 67.0861 83.4946 67.855 89.4008C68.5943 94.794 75.2238 105.904 83.7802 112.723C84.5194 113.316 96.208 124.117 105.026 119.682C113.837 115.252 117.314 111.306 118.763 105.254C120.467 98.3045 119.496 93.0477 115.856 77.962C114.657 72.9839 111.53 62.7311 110.022 57.8271L110.358 57.5869C113.241 63.6621 120.618 79.6758 123.59 90.4326C128.23 107.205 126.782 115.715 124.659 118.834C118.255 128.242 101.846 129.484 94.3821 124.271C93.2391 142.331 97.2797 150.283 98.6484 154.289C97.9685 158.893 100.955 167.444 100.955 167.444C100.955 167.444 101.291 163.557 102.659 161.508C103.025 166.077 105.331 171.506 105.331 171.506C105.331 171.506 105.192 168.153 106.24 165.256C107.718 167.755 108.802 168.348 110.2 170.225C111.599 175.108 114.401 178.675 114.401 178.675C114.401 178.675 113.947 176.057 114.196 173.332C121.04 179.897 122.218 189.477 122.898 196.838C124.816 217.077 90.9441 233.171 84.3799 245.831C79.404 253.33 76.4233 265.192 84.849 272.187C105.216 289.078 97.3926 293.727 107.588 301.151C121.574 311.333 139.073 306.773 145.028 298.492C153.321 286.952 151.192 276.068 148.11 265.886C145.702 257.925 139.159 244.699 131.066 239.581C122.794 234.348 114.752 233.37 107.938 234.069L108.567 233.346C118.368 231.401 128.613 232.468 136.027 237.242C144.444 242.644 152.142 251.909 156.168 266.111C160.734 265.462 161.378 265.169 165.558 264.576L156.147 191.413L176.068 189.204ZM181.507 280.909L180.424 270.763L201.589 238.523L225.616 245.532L246.277 211.07L271.043 227.386L289.86 187.976L296.549 259.749L181.507 280.909ZM296.798 173.279L221.175 186.968C219.301 189.379 214.67 193.613 212.443 194.716C202.892 199.519 196.438 198.128 190.859 196.681C187.273 195.774 185.195 195.264 182.217 193.927L163.759 196.456L174.964 289.813L304.511 266.491L296.798 173.279Z" fill="url(#paint0_linear)"/>
<defs>
<linearGradient id="paint0_linear" x1="110.674" y1="57.8367" x2="286.845" y2="271.11" gradientUnits="userSpaceOnUse">
<stop stop-color="#9C4ED3"/>
<stop offset="1" stop-color="#6326A8"/>
</linearGradient>
</defs>
</svg>
