<svg width="360" height="360" viewBox="0 0 360 360" fill="none" xmlns="http://www.w3.org/2000/svg">
<rect width="360" height="360" rx="82" fill="#367C2B"/>
<path d="M300.845 79.4865C264.662 62.4595 223.041 53 180 53C136.723 53 95.3378 62.6959 58.9189 79.723C46.6216 110.703 40 144.284 40 179.52C40 214.52 46.6216 248.101 58.9189 279.081C95.1014 296.581 136.723 306.041 180 306.041C223.041 306.041 264.662 296.345 301.081 279.318C313.378 248.338 320 214.757 320 179.52C319.764 144.284 313.142 110.703 300.845 79.4865ZM138.615 148.304C132.466 160.838 127.973 174.791 126.318 190.635L122.534 190.872C109.527 192.054 95.8108 193 82.8041 198.203L83.75 203.406C105.034 229.892 137.432 245.973 137.905 246.21L138.615 245.5L131.52 234.385C129.865 233.203 125.372 232.02 125.372 232.02C110.709 227.054 100.541 208.135 98.8851 204.824C110.946 204.824 121.351 208.372 131.757 211.683C138.615 213.811 144.764 215.939 151.385 217.122C162.973 219.014 175.034 216.885 185.912 215.466C194.662 214.52 203.412 214.52 211.926 214.993C212.872 216.176 221.858 227.054 230.608 231.547C241.25 237.223 272.703 246.446 274.122 247.156C274.831 247.865 286.892 259.926 294.223 273.878C259.223 289.96 219.73 298.473 180 298.473C140.27 298.473 100.777 289.96 65.5405 273.642C53.9527 243.608 48.0405 211.919 48.0405 179.52C48.0405 147.122 53.9527 115.432 65.5405 85.3987C100.777 69.0811 140.27 60.5676 180 60.5676C219.73 60.5676 259.223 69.0811 294.223 85.3987C305.811 115.432 311.723 147.358 311.723 179.52C311.723 209.318 306.757 238.169 297.061 265.838C285.946 246.446 281.453 240.534 281.453 240.534C281.216 240.534 265.608 232.257 261.824 228.946C258.75 226.345 257.331 220.905 255.676 214.52C253.311 205.77 250.236 194.892 241.959 186.142L251.419 182.358C248.818 164.149 227.297 152.324 227.061 152.324L225.878 152.797C234.155 163.203 236.52 171.953 236.52 177.155C236.52 179.757 236.047 181.649 235.811 182.358C233.446 181.412 217.365 176.446 181.419 177.628C176.216 177.865 168.412 177.628 163.919 173.135C161.318 170.77 160.135 166.987 160.135 162.493C160.135 149.959 165.338 133.169 166.284 130.804L175.743 131.987C186.858 125.838 191.351 120.399 192.061 119.453L191.588 118.98C181.892 120.162 169.595 122.764 169.595 122.764C170.541 120.635 172.905 113.304 172.905 105.264C172.905 96.5136 170.068 86.5811 158.716 80.9054L157.534 81.3784C157.534 81.3784 164.155 88.473 164.155 97.9325C164.155 100.534 163.682 103.372 162.264 106.446C158.48 105.027 157.061 104.791 152.804 104.554C150.676 96.9865 144.054 90.6014 135.068 87.5271L133.885 88.2365C133.885 88.2365 143.345 95.0946 144.054 105.027C139.324 105.5 137.196 105.973 131.284 107.628C128.919 103.608 123.243 100.534 116.149 99.8243L114.966 100.297C114.966 100.297 123.243 103.135 125.135 109.52C119.932 111.885 114.73 115.432 110.946 118.507L111.419 119.926C132.939 111.649 153.041 109.047 158.243 115.196C159.189 116.142 159.662 117.324 159.662 118.743C159.662 120.635 158.953 122.527 157.534 124.892C146.892 127.257 131.047 131.75 117.804 136.716L119.459 142.155C119.459 142.155 132.703 144.757 137.669 145.939C137.669 146.176 139.561 146.412 138.615 148.304Z" fill="#FDDA01"/>
</svg>
