<svg width="360" height="360" viewBox="0 0 360 360" fill="none" xmlns="http://www.w3.org/2000/svg">
<rect width="360" height="360" rx="82" fill="black"/>
<path d="M60.9105 161.445V130.173H68.6939C71.381 130.173 73.6279 130.567 75.4348 131.355C77.288 132.096 78.7705 133.185 79.8824 134.621C80.9943 136.057 81.7819 137.794 82.2452 139.833C82.7548 141.825 83.0096 144.072 83.0096 146.574C83.0096 149.307 82.6622 151.624 81.9672 153.523C81.2723 155.423 80.3457 156.975 79.1875 158.179C78.0292 159.337 76.7088 160.171 75.2263 160.681C73.7438 161.191 72.2149 161.445 70.6397 161.445H60.9105ZM50 121V170.619H71.4041C75.2031 170.619 78.4925 169.993 81.2723 168.742C84.0984 167.445 86.438 165.685 88.2912 163.461C90.1907 161.237 91.6037 158.596 92.5303 155.538C93.4569 152.481 93.9202 149.145 93.9202 145.531C93.9202 141.408 93.3411 137.818 92.1828 134.76C91.0709 131.702 89.4957 129.154 87.4572 127.115C85.4651 125.077 83.0791 123.548 80.2994 122.529C77.5659 121.51 74.6009 121 71.4041 121H50Z" fill="white"/>
<path d="M109.223 152.689C109.223 151.253 109.362 149.84 109.64 148.45C109.918 147.06 110.382 145.832 111.03 144.767C111.725 143.701 112.629 142.844 113.741 142.196C114.853 141.501 116.242 141.153 117.91 141.153C119.578 141.153 120.968 141.501 122.08 142.196C123.238 142.844 124.142 143.701 124.79 144.767C125.485 145.832 125.972 147.06 126.25 148.45C126.527 149.84 126.666 151.253 126.666 152.689C126.666 154.125 126.527 155.538 126.25 156.928C125.972 158.272 125.485 159.5 124.79 160.612C124.142 161.677 123.238 162.534 122.08 163.183C120.968 163.831 119.578 164.156 117.91 164.156C116.242 164.156 114.853 163.831 113.741 163.183C112.629 162.534 111.725 161.677 111.03 160.612C110.382 159.5 109.918 158.272 109.64 156.928C109.362 155.538 109.223 154.125 109.223 152.689ZM99.3554 152.689C99.3554 155.562 99.7955 158.156 100.676 160.473C101.556 162.789 102.807 164.781 104.428 166.449C106.05 168.071 107.996 169.321 110.266 170.202C112.536 171.082 115.084 171.522 117.91 171.522C120.736 171.522 123.284 171.082 125.555 170.202C127.871 169.321 129.84 168.071 131.462 166.449C133.083 164.781 134.334 162.789 135.214 160.473C136.094 158.156 136.535 155.562 136.535 152.689C136.535 149.817 136.094 147.222 135.214 144.906C134.334 142.543 133.083 140.551 131.462 138.929C129.84 137.262 127.871 135.988 125.555 135.107C123.284 134.181 120.736 133.717 117.91 133.717C115.084 133.717 112.536 134.181 110.266 135.107C107.996 135.988 106.05 137.262 104.428 138.929C102.807 140.551 101.556 142.543 100.676 144.906C99.7955 147.222 99.3554 149.817 99.3554 152.689Z" fill="white"/>
<path d="M176.655 170.619V134.69H166.787V153.523C166.787 157.183 166.185 159.824 164.98 161.445C163.776 163.021 161.83 163.808 159.143 163.808C156.78 163.808 155.135 163.09 154.209 161.654C153.282 160.171 152.819 157.948 152.819 154.983V134.69H142.951V156.789C142.951 159.013 143.136 161.052 143.507 162.905C143.924 164.712 144.619 166.264 145.592 167.561C146.565 168.812 147.885 169.785 149.553 170.48C151.267 171.175 153.444 171.522 156.085 171.522C158.17 171.522 160.209 171.059 162.201 170.132C164.193 169.206 165.814 167.7 167.065 165.615H167.274V170.619H176.655Z" fill="white"/>
<path d="M200.893 162.14C199.364 162.14 198.09 161.816 197.071 161.167C196.052 160.519 195.218 159.685 194.569 158.666C193.967 157.646 193.527 156.511 193.249 155.26C193.017 153.963 192.901 152.666 192.901 151.369C192.901 150.025 193.04 148.751 193.318 147.547C193.643 146.296 194.129 145.207 194.778 144.28C195.473 143.308 196.306 142.543 197.279 141.987C198.299 141.431 199.503 141.153 200.893 141.153C202.515 141.153 203.858 141.454 204.924 142.057C205.989 142.659 206.846 143.47 207.495 144.489C208.144 145.508 208.607 146.69 208.885 148.033C209.163 149.33 209.302 150.72 209.302 152.203C209.302 153.5 209.117 154.751 208.746 155.955C208.422 157.114 207.912 158.156 207.217 159.083C206.522 160.009 205.642 160.751 204.576 161.306C203.511 161.862 202.283 162.14 200.893 162.14ZM218.684 168.325V134.69H209.302V139.485H209.163C207.958 137.401 206.453 135.918 204.646 135.038C202.885 134.158 200.824 133.717 198.461 133.717C195.959 133.717 193.735 134.204 191.789 135.177C189.89 136.15 188.292 137.47 186.994 139.138C185.697 140.759 184.701 142.659 184.006 144.836C183.357 146.968 183.033 149.191 183.033 151.508C183.033 153.963 183.311 156.303 183.867 158.527C184.469 160.704 185.396 162.627 186.647 164.295C187.898 165.916 189.496 167.213 191.442 168.186C193.388 169.113 195.704 169.576 198.391 169.576C200.569 169.576 202.63 169.136 204.576 168.256C206.568 167.329 208.097 165.916 209.163 164.017H209.302V168.742C209.348 171.29 208.723 173.398 207.426 175.066C206.175 176.734 204.159 177.568 201.38 177.568C199.619 177.568 198.067 177.197 196.723 176.456C195.38 175.761 194.476 174.487 194.013 172.634H184.215C184.354 174.672 184.909 176.41 185.882 177.846C186.902 179.329 188.153 180.533 189.635 181.46C191.164 182.386 192.832 183.058 194.639 183.475C196.492 183.938 198.299 184.17 200.059 184.17C204.182 184.17 207.472 183.614 209.927 182.502C212.383 181.39 214.259 180.023 215.556 178.402C216.854 176.827 217.687 175.113 218.058 173.259C218.475 171.406 218.684 169.762 218.684 168.325Z" fill="white"/>
<path d="M226.907 121V170.619H236.775V121H226.907Z" fill="white"/>
<path d="M244.128 145.74C244.267 143.423 244.846 141.501 245.865 139.972C246.885 138.443 248.182 137.215 249.757 136.289C251.332 135.362 253.093 134.713 255.039 134.343C257.031 133.926 259.023 133.717 261.015 133.717C262.822 133.717 264.652 133.856 266.505 134.134C268.358 134.366 270.049 134.852 271.578 135.594C273.107 136.335 274.358 137.377 275.331 138.721C276.304 140.018 276.79 141.756 276.79 143.933V162.627C276.79 164.248 276.883 165.8 277.068 167.283C277.254 168.765 277.578 169.877 278.041 170.619H268.034C267.849 170.063 267.687 169.507 267.548 168.951C267.455 168.348 267.385 167.746 267.339 167.144C265.764 168.765 263.911 169.901 261.78 170.549C259.648 171.198 257.471 171.522 255.247 171.522C253.533 171.522 251.935 171.314 250.452 170.897C248.969 170.48 247.672 169.831 246.56 168.951C245.448 168.071 244.568 166.959 243.92 165.615C243.317 164.272 243.016 162.673 243.016 160.82C243.016 158.782 243.364 157.114 244.059 155.816C244.8 154.473 245.726 153.407 246.838 152.62C247.997 151.832 249.294 151.253 250.73 150.882C252.213 150.465 253.695 150.141 255.178 149.909C256.66 149.678 258.12 149.492 259.556 149.354C260.992 149.215 262.266 149.006 263.378 148.728C264.49 148.45 265.37 148.056 266.019 147.547C266.667 146.991 266.968 146.203 266.922 145.184C266.922 144.118 266.737 143.284 266.366 142.682C266.042 142.033 265.579 141.547 264.976 141.223C264.42 140.852 263.749 140.62 262.961 140.528C262.22 140.389 261.409 140.319 260.529 140.319C258.583 140.319 257.054 140.736 255.942 141.57C254.83 142.404 254.182 143.794 253.996 145.74H244.128ZM266.922 153.037C266.505 153.407 265.972 153.708 265.324 153.94C264.721 154.125 264.05 154.288 263.308 154.427C262.613 154.566 261.872 154.681 261.085 154.774C260.297 154.867 259.509 154.983 258.722 155.122C257.981 155.26 257.239 155.446 256.498 155.677C255.803 155.909 255.178 156.233 254.622 156.65C254.112 157.021 253.695 157.507 253.371 158.11C253.046 158.712 252.884 159.476 252.884 160.403C252.884 161.283 253.046 162.025 253.371 162.627C253.695 163.229 254.135 163.716 254.691 164.086C255.247 164.411 255.896 164.642 256.637 164.781C257.378 164.92 258.143 164.99 258.93 164.99C260.876 164.99 262.382 164.665 263.447 164.017C264.513 163.368 265.301 162.604 265.81 161.723C266.32 160.797 266.621 159.87 266.714 158.944C266.853 158.017 266.922 157.276 266.922 156.72V153.037Z" fill="white"/>
<path d="M292.094 158.944H282.712C282.805 161.353 283.338 163.368 284.311 164.99C285.33 166.565 286.604 167.839 288.133 168.812C289.708 169.785 291.492 170.48 293.484 170.897C295.476 171.314 297.515 171.522 299.599 171.522C301.638 171.522 303.63 171.314 305.576 170.897C307.568 170.526 309.329 169.854 310.857 168.881C312.386 167.908 313.614 166.634 314.541 165.059C315.514 163.438 316 161.445 316 159.083C316 157.415 315.676 156.025 315.027 154.913C314.378 153.755 313.521 152.805 312.456 152.064C311.39 151.276 310.163 150.651 308.773 150.187C307.429 149.724 306.039 149.33 304.603 149.006C303.213 148.682 301.846 148.381 300.503 148.103C299.159 147.825 297.955 147.524 296.889 147.199C295.87 146.829 295.036 146.365 294.387 145.809C293.739 145.253 293.414 144.535 293.414 143.655C293.414 142.914 293.6 142.335 293.97 141.918C294.341 141.454 294.781 141.107 295.291 140.875C295.847 140.644 296.449 140.505 297.098 140.458C297.746 140.366 298.349 140.319 298.905 140.319C300.665 140.319 302.194 140.667 303.491 141.362C304.788 142.01 305.506 143.284 305.645 145.184H315.027C314.842 142.96 314.263 141.13 313.29 139.694C312.363 138.211 311.182 137.03 309.746 136.15C308.309 135.269 306.665 134.644 304.812 134.273C303.005 133.903 301.128 133.717 299.182 133.717C297.237 133.717 295.337 133.903 293.484 134.273C291.631 134.598 289.963 135.2 288.48 136.08C286.998 136.914 285.793 138.072 284.867 139.555C283.986 141.037 283.546 142.937 283.546 145.253C283.546 146.829 283.871 148.172 284.519 149.284C285.168 150.35 286.025 151.253 287.091 151.994C288.156 152.689 289.361 153.268 290.704 153.732C292.094 154.149 293.507 154.519 294.943 154.844C298.464 155.585 301.198 156.326 303.144 157.067C305.136 157.809 306.132 158.921 306.132 160.403C306.132 161.283 305.923 162.025 305.506 162.627C305.089 163.183 304.557 163.646 303.908 164.017C303.306 164.341 302.611 164.596 301.823 164.781C301.082 164.92 300.364 164.99 299.669 164.99C298.696 164.99 297.746 164.874 296.82 164.642C295.939 164.411 295.152 164.063 294.457 163.6C293.762 163.09 293.183 162.465 292.72 161.723C292.303 160.936 292.094 160.009 292.094 158.944Z" fill="white"/>
<path d="M50 187.714V237.333H87.6657V228.16H60.9105V215.998H84.9555V207.52H60.9105V196.887H87.1098V187.714H50Z" fill="white"/>
<path d="M94.298 201.404V237.333H104.166V216.485C104.166 214.724 104.421 213.311 104.931 212.245C105.44 211.134 106.043 210.3 106.737 209.744C107.479 209.141 108.22 208.748 108.961 208.562C109.749 208.331 110.374 208.215 110.838 208.215C112.413 208.215 113.594 208.493 114.382 209.049C115.216 209.558 115.795 210.253 116.119 211.134C116.49 212.014 116.698 212.987 116.745 214.052C116.791 215.072 116.814 216.114 116.814 217.18V237.333H126.682V217.319C126.682 216.207 126.752 215.118 126.891 214.052C127.076 212.94 127.4 211.967 127.864 211.134C128.373 210.253 129.045 209.558 129.879 209.049C130.759 208.493 131.894 208.215 133.284 208.215C134.674 208.215 135.763 208.446 136.55 208.91C137.384 209.373 138.01 209.999 138.427 210.786C138.844 211.574 139.098 212.5 139.191 213.566C139.284 214.631 139.33 215.766 139.33 216.971V237.333H149.198V213.288C149.198 210.971 148.874 209.002 148.225 207.381C147.577 205.713 146.673 204.369 145.515 203.35C144.357 202.331 142.967 201.59 141.345 201.126C139.724 200.663 137.963 200.432 136.064 200.432C133.562 200.432 131.385 201.034 129.531 202.238C127.725 203.443 126.288 204.833 125.223 206.408C124.25 204.184 122.814 202.632 120.914 201.752C119.061 200.872 116.999 200.432 114.729 200.432C112.366 200.432 110.258 200.941 108.405 201.96C106.598 202.98 105.046 204.416 103.749 206.269H103.61V201.404H94.298Z" fill="white"/>
<path d="M157.277 201.404V237.333H167.145V216.485C167.145 214.724 167.4 213.311 167.91 212.245C168.419 211.134 169.021 210.3 169.716 209.744C170.458 209.141 171.199 208.748 171.94 208.562C172.728 208.331 173.353 208.215 173.816 208.215C175.392 208.215 176.573 208.493 177.361 209.049C178.195 209.558 178.774 210.253 179.098 211.134C179.469 212.014 179.677 212.987 179.723 214.052C179.77 215.072 179.793 216.114 179.793 217.18V237.333H189.661V217.319C189.661 216.207 189.731 215.118 189.87 214.052C190.055 212.94 190.379 211.967 190.843 211.134C191.352 210.253 192.024 209.558 192.858 209.049C193.738 208.493 194.873 208.215 196.263 208.215C197.653 208.215 198.742 208.446 199.529 208.91C200.363 209.373 200.989 209.999 201.406 210.786C201.823 211.574 202.077 212.5 202.17 213.566C202.263 214.631 202.309 215.766 202.309 216.971V237.333H212.177V213.288C212.177 210.971 211.853 209.002 211.204 207.381C210.556 205.713 209.652 204.369 208.494 203.35C207.336 202.331 205.946 201.59 204.324 201.126C202.703 200.663 200.942 200.432 199.043 200.432C196.541 200.432 194.364 201.034 192.51 202.238C190.704 203.443 189.267 204.833 188.202 206.408C187.229 204.184 185.793 202.632 183.893 201.752C182.04 200.872 179.978 200.432 177.708 200.432C175.345 200.432 173.237 200.941 171.384 201.96C169.577 202.98 168.025 204.416 166.728 206.269H166.589V201.404H157.277Z" fill="white"/>
<path d="M244.162 215.512H228.109C228.155 214.817 228.294 214.029 228.526 213.149C228.804 212.269 229.244 211.435 229.846 210.647C230.495 209.86 231.329 209.211 232.348 208.701C233.413 208.145 234.734 207.867 236.309 207.867C238.718 207.867 240.502 208.516 241.66 209.813C242.865 211.11 243.698 213.01 244.162 215.512ZM228.109 221.766H254.03C254.215 218.986 253.984 216.322 253.335 213.774C252.686 211.226 251.621 208.956 250.138 206.964C248.702 204.972 246.849 203.397 244.579 202.238C242.309 201.034 239.645 200.432 236.587 200.432C233.853 200.432 231.352 200.918 229.082 201.891C226.858 202.864 224.935 204.207 223.314 205.922C221.692 207.589 220.441 209.582 219.561 211.898C218.681 214.214 218.24 216.716 218.24 219.403C218.24 222.183 218.657 224.731 219.491 227.048C220.372 229.364 221.599 231.356 223.175 233.024C224.75 234.692 226.672 235.989 228.943 236.916C231.213 237.796 233.761 238.236 236.587 238.236C240.664 238.236 244.139 237.31 247.011 235.456C249.883 233.603 252.015 230.522 253.404 226.214H244.718C244.393 227.326 243.513 228.391 242.077 229.41C240.641 230.383 238.927 230.87 236.934 230.87C234.155 230.87 232.023 230.152 230.541 228.716C229.058 227.279 228.248 224.963 228.109 221.766Z" fill="white"/>
<path d="M272.391 201.404V190.633H262.523V201.404H256.547V208.006H262.523V229.202C262.523 231.009 262.824 232.468 263.427 233.58C264.029 234.692 264.84 235.549 265.859 236.151C266.925 236.754 268.129 237.147 269.473 237.333C270.863 237.564 272.322 237.68 273.851 237.68C274.824 237.68 275.82 237.657 276.839 237.611C277.858 237.564 278.785 237.472 279.619 237.333V229.688C279.156 229.781 278.669 229.851 278.159 229.897C277.65 229.943 277.117 229.966 276.561 229.966C274.893 229.966 273.781 229.688 273.225 229.132C272.669 228.577 272.391 227.465 272.391 225.797V208.006H279.619V201.404H272.391Z" fill="white"/>
<path d="M296.823 201.404V190.633H286.955V201.404H280.978V208.006H286.955V229.202C286.955 231.009 287.256 232.468 287.858 233.58C288.461 234.692 289.271 235.549 290.291 236.151C291.356 236.754 292.561 237.147 293.904 237.333C295.294 237.564 296.753 237.68 298.282 237.68C299.255 237.68 300.251 237.657 301.271 237.611C302.29 237.564 303.216 237.472 304.05 237.333V229.688C303.587 229.781 303.101 229.851 302.591 229.897C302.081 229.943 301.549 229.966 300.993 229.966C299.325 229.966 298.213 229.688 297.657 229.132C297.101 228.577 296.823 227.465 296.823 225.797V208.006H304.05V201.404H296.823Z" fill="white"/>
</svg>
