<svg width="360" height="360" viewBox="0 0 360 360" fill="none" xmlns="http://www.w3.org/2000/svg">
<rect width="360" height="360" rx="82" fill="#007DB8"/>
<path d="M180.01 41.7515C141.847 41.7515 107.286 57.2311 82.2632 82.2727C57.2311 107.257 41.7611 141.837 41.7611 180.019C41.7611 218.172 57.2311 252.728 82.2632 277.722C107.286 302.731 141.847 318.239 180.01 318.239C218.182 318.239 252.762 302.731 277.746 277.722C302.769 252.728 318.206 218.172 318.206 180.019C318.206 141.837 302.769 107.257 277.746 82.2727C252.762 57.2311 218.182 41.7515 180.01 41.7515ZM180.01 24.9999C265.602 24.9999 335 94.4076 335 180.019C335 265.602 265.602 335 180.01 335C94.4268 335 25 265.602 25 180.019C25 94.4076 94.4268 24.9999 180.01 24.9999Z" fill="white"/>
<path d="M106.702 178.756C106.702 169.723 100.708 164.592 92.2229 164.592H87.0297V192.93H92.0752C99.9651 192.93 106.702 188.642 106.702 178.756ZM199.079 188.952L160.821 219.077L125.855 191.548C120.809 203.669 108.617 212.088 94.5765 212.088H64.6514V145.424H94.5765C110.266 145.424 121.572 155.401 125.845 166.03L160.821 138.53L173.775 148.726L141.72 173.92L147.881 178.742L179.926 153.562L192.899 163.729L160.849 188.952L167 193.783L199.079 168.556V145.424H222.334V192.63H245.532V212.169H199.079V188.952ZM274.99 192.64H298.178V212.169H251.711V145.424H274.99V192.64Z" fill="white"/>
</svg>
