<svg width="360" height="360" viewBox="0 0 360 360" fill="none" xmlns="http://www.w3.org/2000/svg">
<rect width="360" height="360" rx="82" fill="#FFEE00"/>
<path d="M254.177 97C210.557 97 185.328 124.243 185.328 171.502C185.328 213.307 203.97 245.956 250.395 245.956C264.621 245.956 278.821 241.873 287.826 235.934L292.584 243.234H316V169.53H261.525V192.392H277.005V212.175C272.615 214.219 265.839 215.76 259.863 215.76C238.029 215.76 227.516 199.912 227.516 169.986C227.516 142.824 237.317 127.162 251.959 127.162C263.499 127.162 269.014 134.649 272.002 148.379L313.246 141.356C307.307 112.337 286.491 97 254.177 97ZM49 99.6891V127.62H63.5514V243.232H111.411C157.679 243.232 191.731 227.304 191.731 172.901C191.731 113.388 161.549 99.6858 107.122 99.6858L49 99.6891ZM103.198 127.617H111.785C136.074 127.617 149.916 134.467 149.916 170.181C149.916 198.522 144.945 215.547 115.191 215.547H103.198V127.617Z" fill="#1C1B1B"/>
</svg>
