<svg width="360" height="360" viewBox="0 0 360 360" fill="none" xmlns="http://www.w3.org/2000/svg">
<rect width="360" height="360" rx="82" fill="black"/>
<path fill-rule="evenodd" clip-rule="evenodd" d="M177.605 154.678C144.021 154.678 116.797 181.951 116.797 215.578H238.42C238.42 181.951 211.196 154.678 177.605 154.678Z" fill="#23835A"/>
<path fill-rule="evenodd" clip-rule="evenodd" d="M278.955 191.101L330.236 134.374L258.676 143.914L263.452 72.2679L210.995 119.437L179.988 46L153.763 115.855L100.124 85.414L106.07 148.702L46.4614 139.162L82.2204 187.513L25 215.578H88.1964C88.1964 166.118 128.214 126.016 177.612 126.016C227.01 126.016 267.034 166.118 267.034 215.578H335L278.955 191.101ZM167.085 275.521C153.811 273.167 141.694 266.471 132.636 256.485C123.578 246.499 118.093 233.788 117.041 220.348H88.434C90.8525 266.359 127.866 303.087 173.951 304.957L167.085 275.521ZM210.995 257.684H160.908V245.391L173.725 234.669H206.213C206.213 234.669 213.956 242.796 221.126 245.19C228.278 247.584 238.031 244.502 243.349 251.282C253.12 263.654 259.687 252.403 265.84 246.615C271.974 240.834 281.745 247.365 275.245 260.395C268.417 274.09 252.023 277.781 240.096 268.223C228.18 258.659 223.831 257.794 210.995 257.684Z" fill="#23835A"/>
</svg>
