<svg width="360" height="360" viewBox="0 0 360 360" fill="none" xmlns="http://www.w3.org/2000/svg">
<rect width="360" height="360" rx="82" fill="#00205B"/>
<path d="M80.942 137.389C83.6137 137.962 83.232 139.87 83.232 139.87C83.232 139.87 83.0412 207.425 83.232 216.776C81.8961 225.746 67.5836 224.982 67.5836 224.982V137.389C67.5836 137.389 76.3619 137.389 80.942 137.389ZM69.4919 133H38.3859C38.3859 133 35.3325 133.572 35.7142 135.29C36.0959 137.008 37.4317 137.58 40.485 137.58V223.837L39.1492 225.173C39.1492 225.173 35.905 225.173 35.1417 227.081C34.3783 228.99 36.8592 229.562 38.7675 229.562C40.485 229.562 83.0412 229.562 83.0412 229.562C83.0412 229.562 109.949 228.417 109.949 210.67C109.949 192.922 109.949 150.366 109.949 150.366C109.949 150.366 106.323 133.573 88.5754 133C70.8277 133 69.4919 133 69.4919 133Z" fill="white"/>
<path d="M126.935 186.104C130.943 186.104 134.187 183.051 134.187 179.234C134.187 175.418 130.943 172.364 126.935 172.364C122.928 172.364 119.684 175.418 119.684 179.234C119.684 183.051 122.928 186.104 126.935 186.104Z" fill="white"/>
<path d="M228.818 186.104C232.826 186.104 236.07 183.051 236.07 179.234C236.07 175.418 232.826 172.364 228.818 172.364C224.811 172.364 221.566 175.418 221.566 179.234C221.757 183.051 225.001 186.104 228.818 186.104Z" fill="white"/>
<path d="M196.209 133.367C201.171 133.367 210.14 141.764 210.903 148.443C211.476 152.832 211.667 158.366 211.667 162.183C211.667 176.686 198.117 180.121 198.117 180.121C200.407 180.885 205.56 181.076 210.14 183.938C214.72 186.61 215.865 192.907 215.865 192.907V224.013L217.201 225.158C217.201 225.158 221.208 225.158 221.781 225.158C222.544 225.158 222.926 224.968 223.117 226.876C223.308 229.548 220.827 229.357 220.827 229.357C220.827 229.357 195.637 229.357 192.583 229.357C189.53 229.357 187.24 224.013 187.24 224.013C187.24 224.013 187.24 190.045 187.24 187.373C187.24 184.511 181.706 184.129 181.706 184.129H172.546V223.823L173.309 224.777C173.309 224.777 176.171 224.777 176.744 224.777C177.317 224.777 178.461 224.204 178.461 226.685C178.652 229.548 177.316 228.784 177.316 228.784C177.316 228.784 142.203 228.784 141.249 228.784C140.295 228.784 139.531 228.593 139.531 227.067C139.531 225.731 141.249 224.777 141.249 224.777H143.73L145.638 222.868V138.519L144.302 137.374C144.302 137.374 143.539 137.374 141.44 137.374C139.34 137.374 140.295 136.611 140.295 134.703C140.104 132.985 142.012 133.367 142.012 133.367H196.209ZM179.034 137.374H172.736V178.976H184.377C184.377 178.976 187.24 178.786 187.24 175.16C187.24 171.534 187.24 140.046 187.24 140.046C187.24 140.046 186.477 137.184 183.423 137.184C180.561 137.374 179.034 137.374 179.034 137.374Z" fill="white"/>
<path d="M284.161 184.525H290.268L291.604 185.67C291.604 185.67 291.413 226.318 291.604 227.845C291.794 229.371 292.939 229.562 292.939 229.562C292.939 229.562 320.801 229.562 322.519 229.562C324.236 229.562 325 228.417 325 227.845C325 227.272 324.809 225.173 321.755 225.173C318.702 225.173 319.084 223.074 319.084 223.074C319.084 223.074 318.893 140.061 319.084 138.725C319.275 137.389 319.084 137.198 321.565 137.198C324.045 137.198 324.427 136.626 324.427 135.29C324.427 133.954 322.519 133 322.519 133C322.519 133 293.512 133 292.558 133C291.604 133 291.413 134.717 291.413 134.717V175.174L290.077 176.51H283.97H276.337L275.001 175.174V134.717C275.001 134.717 274.81 133 273.856 133C272.902 133 243.895 133 243.895 133C243.895 133 241.987 133.954 241.987 135.29C241.987 136.626 242.368 137.198 244.849 137.198C247.33 137.198 247.139 137.389 247.33 138.725C247.521 140.061 247.33 223.074 247.33 223.074C247.33 223.074 247.521 225.173 244.658 225.173C241.796 225.173 241.414 227.272 241.414 227.845C241.414 228.417 242.177 229.562 243.895 229.562C245.612 229.562 273.474 229.562 273.474 229.562C273.474 229.562 274.619 229.371 274.81 227.845C275.001 226.318 274.81 185.67 274.81 185.67L276.146 184.525H284.161Z" fill="white"/>
</svg>
