<svg width="360" height="360" viewBox="0 0 360 360" fill="none" xmlns="http://www.w3.org/2000/svg">
<rect width="360" height="360" rx="82" fill="#013C81"/>
<path d="M324.694 128.639C314.439 94.5232 246.626 84.6863 173.163 106.872C169.605 107.918 166.256 108.965 162.907 110.221C228.627 94.9418 285.765 104.988 294.765 135.127C304.811 168.196 253.114 212.776 179.651 234.962C177.977 235.38 176.302 236.008 174.628 236.427L208.743 117.965H208.534L199.534 118.592C182.791 120.267 164.791 123.825 146.582 129.267C73.3281 151.243 22.0502 196.87 32.3058 230.985C42.5614 265.101 110.374 274.938 184.046 252.752C187.604 251.706 190.953 250.659 194.302 249.403C128.583 264.682 71.4444 254.636 62.4446 224.497C52.6077 191.428 104.095 146.848 177.558 124.662C179.023 124.243 180.698 123.825 182.163 123.406L148.466 241.659L157.466 241.031C174.209 239.357 192.209 235.799 210.418 230.357C283.672 208.381 334.95 162.754 324.694 128.639Z" fill="white"/>
</svg>
