<svg width="360" height="360" viewBox="0 0 360 360" fill="none" xmlns="http://www.w3.org/2000/svg">
<rect width="360" height="360" rx="82" fill="#003D99"/>
<circle cx="180" cy="180" r="155.455" fill="#4681C7" fill-opacity="0.06"/>
<circle cx="180" cy="180" r="155.205" stroke="#2869BF" stroke-opacity="0.04" stroke-width="0.5"/>
<path fill-rule="evenodd" clip-rule="evenodd" d="M121.23 173.364L116.774 163.511L113.013 163.531L107.659 173.367L121.23 173.364ZM113.52 161.347L116.115 161.374L115.028 158.474L113.52 161.347ZM130.036 163.336L128.062 173.61L257.271 173.644L253.61 163.349H249.802L247.401 166.149L244.72 163.349L130.036 163.336ZM149.028 151.084L142.504 138.458L137.789 138.445L130.221 151.038L149.028 151.084ZM253.234 161.811L251.734 157.794L250.183 161.811H253.234ZM210.466 137.002V124.929H207.383V121.1L190.974 121.084V124.95H188.248L187.327 127.772L184.878 123.754L180.418 133.671H177.99L178.683 131.044L174.421 121.035L172.057 121.054L167.371 131.095L167.93 133.671H166.096L167.285 136.991L210.466 137.002ZM173.213 117.349L172.391 119.349H174.075L173.213 117.349ZM207.383 119.746V113.722L209.579 109.005L207.383 106.716V101.346H191.134L191.118 106.71L189.026 109.023L190.974 113.701V119.746H207.383ZM138.392 137.478H142.194L140.383 133.798L138.392 137.478ZM114.783 154.453L114.782 151.137L107.525 153.072L114.783 154.453ZM140.429 129.538L140.426 126.223L133.169 128.16L140.429 129.538ZM173.034 113.052L173.03 109.737L165.774 111.672L173.034 113.052ZM220.661 127.89L220.657 124.575L213.4 126.51L220.661 127.89ZM238.061 138.697L238.058 135.383L230.801 137.319L238.061 138.697ZM130.694 158.733C130.65 159.782 130.52 160.828 130.307 161.857L229.212 161.811C227.081 159.083 225.605 155.902 224.899 152.513H217.387L216.541 153.675L215.155 152.513L156.419 152.502L154.141 158.117L149.485 158.131L151.966 152.503H129.94C130.529 154.525 130.784 156.629 130.694 158.733ZM238.107 142.861L234.845 150.97H240.798L238.107 142.861ZM241.182 152.519H234.265L231.119 161.811H244.33L241.182 152.519ZM263.149 208.079L260.827 199.502L237.861 199.51C236.632 201.942 234.916 204.095 232.819 205.836C231.773 206.702 230.64 207.458 229.439 208.093L263.149 208.079Z" fill="white"/>
<path fill-rule="evenodd" clip-rule="evenodd" d="M210.393 100.604C210.313 100.71 210.215 100.8 210.104 100.871C222.187 103.353 233.736 107.952 244.218 114.455C254.689 120.979 263.913 129.317 271.459 139.077C278.998 148.842 284.738 159.872 288.41 171.65C292.059 183.433 293.595 195.77 292.948 208.088H294.542C295.417 195.562 294.022 182.868 290.397 170.847C286.773 158.825 280.919 147.473 273.239 137.535C265.555 127.598 256.043 119.076 245.321 112.541C234.6 106.005 222.668 101.459 210.326 99.1504C210.678 99.5742 210.761 100.057 210.393 100.604ZM199.407 78.6721L189.132 99.3012C188.989 99.5869 188.924 99.9155 189.314 100.289C189.463 100.408 189.646 100.463 189.822 100.457H208.716C208.94 100.441 209.138 100.462 209.416 100.07C209.489 99.9484 209.526 99.8097 209.525 99.6686C209.524 99.5275 209.484 99.3894 209.41 99.2694L199.407 78.6721ZM199.407 72L192.149 73.9367L199.41 75.3146L199.407 72ZM189.271 96.1056C179.315 95.5103 169.271 96.3025 159.533 98.463C149.796 100.624 140.358 104.156 131.68 109.001C123 113.847 115.075 120.005 109.493 125.001C103.912 129.995 100.674 133.828 97.6732 137.829C94.6745 141.831 91.9139 146 89.5105 150.363C87.1071 154.726 85.0608 159.282 83.5988 162.452C82.1367 165.622 81.2588 167.413 80.5207 169.237C79.7809 171.061 79.1809 172.923 78.4284 174.836C77.6428 176.811 76.7623 178.747 75.79 180.638L79.3412 182.313C80.118 178.33 81.1585 174.404 82.4558 170.559C83.1019 168.635 83.8035 166.73 85.1862 163.565C86.5705 160.398 88.6358 155.972 91.0233 151.722C93.4109 147.474 96.1191 143.402 99.0591 139.493C101.997 135.584 105.164 131.836 110.608 126.934C116.051 122.032 123.773 115.976 132.227 111.171C140.682 106.365 149.867 102.811 159.362 100.565C168.873 98.3201 178.645 97.3786 188.409 97.7661L189.271 96.1056ZM220.727 131.484L218.727 137.002H222.975L220.727 131.484ZM164.123 151.06L160.594 139.893L156.854 151.056L164.123 151.06ZM217.384 150.986H225.091V147.112L226.656 145.233L223.448 138.542H218.204L215.744 145.226L217.374 147.106C217.377 148.4 217.39 149.694 217.384 150.986ZM167.898 151.095H214.526C212.425 147.191 211.047 142.938 210.458 138.543L168.028 138.527C169.177 142.644 169.132 147.003 167.898 151.095ZM103.683 206.93C103.939 207.153 104.148 207.425 104.304 207.726L162.524 207.765L162.494 199.229L103.833 199.26L101.815 206.268C102.5 206.24 103.168 206.477 103.683 206.93ZM133.944 187.434H103.677L103.698 195.851H162.508C162.785 194.382 163.216 192.909 163.837 191.442C157.151 189.332 150.095 188.652 143.129 189.447C142.981 190.613 142.404 191.682 141.511 192.446C140.111 193.608 138.349 193.912 136.604 193.206C135.523 192.747 134.651 191.901 134.159 190.834C133.667 189.767 133.59 188.555 133.944 187.434ZM222.233 187.397L199.299 187.377C201.449 189.893 203.136 192.77 204.282 195.874L209.032 195.852C210.158 194.485 211.426 193.236 212.809 192.13C215.584 189.909 218.795 188.297 222.233 187.397ZM148.028 182.148C155.257 180.971 162.662 181.516 169.641 183.738C172.082 182.156 174.611 180.838 177.111 180.295C177.98 180.084 178.859 179.921 179.745 179.806C180.632 179.69 181.525 179.617 182.864 179.666C184.204 179.716 185.99 179.887 187.725 180.282C189.46 180.678 191.148 181.298 192.742 182.105C194.334 182.916 195.825 183.911 197.185 185.07H266.308L258.029 175.787L106.211 175.576L99.2988 185.11L137.534 185.14C140.904 183.737 144.425 182.733 148.028 182.148ZM214.368 235.382C214.43 236.162 214.749 236.899 215.274 237.479C215.665 237.913 216.159 238.244 216.71 238.439C217.261 238.634 217.852 238.689 218.43 238.598C219.112 238.466 219.758 238.189 220.324 237.785C221.062 237.236 221.322 236.579 221.387 235.913C221.492 234.113 221.552 232.311 221.56 230.51C221.568 228.708 221.529 226.905 221.483 225.39C221.436 223.877 221.381 222.652 221.317 221.429C221.254 220.207 221.181 218.982 221.129 218.196C221.101 217.701 221.052 217.207 220.982 216.716C220.881 216.041 220.724 215.374 220.514 214.724C220.287 213.99 219.878 213.327 219.324 212.795C218.96 212.403 218.455 212.171 217.921 212.15C217.386 212.129 216.865 212.319 216.471 212.681C216.009 213.084 215.869 213.667 215.696 214.186C215.501 214.832 215.373 215.496 215.314 216.169C215.261 216.648 215.206 217.299 215.161 217.951C215.115 218.602 215.083 219.255 215.044 220.018C214.966 221.563 214.833 223.415 214.601 225.13C214.09 228.523 214.011 231.968 214.368 235.382ZM269.356 219.89C268.637 217.298 267.936 214.701 267.251 212.1L269.356 219.89ZM260.834 187.378L232.158 187.399C233.154 187.586 234.12 187.939 235.001 188.437C236.331 189.191 237.454 190.264 238.268 191.558C239.082 192.852 239.562 194.328 239.665 195.854L260.836 195.876V187.378H260.834Z" fill="white"/>
<path fill-rule="evenodd" clip-rule="evenodd" d="M269.357 219.89L270.027 222.731C270.333 224.047 270.645 225.363 270.483 225.582C270.321 225.801 269.689 224.922 269.06 224.041C268.422 223.279 267.797 222.505 267.187 221.72C266.211 220.482 264.701 218.548 263.801 217.405C262.899 216.265 262.604 215.916 262.298 215.578C261.682 214.903 261.017 214.273 260.31 213.694C259.928 213.405 259.474 213.227 258.997 213.178C258.521 213.129 258.04 213.211 257.607 213.416C257.321 213.551 257.057 213.737 256.835 213.964C256.615 214.193 256.435 214.458 256.305 214.748C255.123 217.259 254.342 219.939 253.989 222.691L253.094 227.77C252.508 230.36 252.554 233.075 253.484 235.777C253.614 236.05 253.794 236.325 254.067 236.583C254.58 237.048 255.239 237.318 255.931 237.346C256.623 237.374 257.302 237.159 257.851 236.737C258.726 236.069 258.948 235.194 259.091 234.343C259.566 230.703 259.978 227.054 260.421 223.411C262.087 226.974 264.173 230.326 266.635 233.394C267.584 234.456 268.525 235.436 269.471 235.813C270.886 236.379 272.337 236.137 273.927 235.077C274.259 234.842 274.566 234.572 274.842 234.274C275.391 233.675 275.874 233.015 276.277 232.308C277.572 230.086 277.774 227.64 277.682 225.246C277.62 223.627 277.401 222.017 277.028 220.44C276.685 219.009 276.229 217.606 275.664 216.246C275.099 214.887 274.425 213.576 273.648 212.325C272.875 211.073 272.002 209.885 271.037 208.774C270.197 207.861 269.294 207.428 268.343 207.504C268.108 207.536 267.881 207.614 267.676 207.734C266.908 208.217 266.716 208.879 266.771 209.533C266.873 210.393 267.035 211.247 267.252 212.098L269.357 219.89ZM279.474 216.829C280.269 217.741 281.358 218.345 282.552 218.537L281.049 221.844C280.798 221.911 280.561 222.02 280.346 222.164C279.311 222.942 279.13 223.898 279.441 224.908C279.528 225.15 279.655 225.381 279.812 225.584C278.804 227.343 277.906 229.138 277.629 230.894C277.406 232.305 277.955 233.821 278.556 235.256C278.81 235.839 279.109 236.404 279.406 236.968C279.897 237.844 280.649 238.547 281.557 238.979C283.501 239.806 285.749 239.633 287.965 238.882C289.579 238.26 291.165 237.571 292.721 236.817C294.277 236.063 295.803 235.244 296.658 234.758C297.517 234.274 297.706 234.123 297.868 233.943C298.636 233.008 298.597 231.902 297.97 230.74C297.799 230.456 297.585 230.201 297.335 229.984C296.076 228.898 294.569 229.191 293.145 229.359C291.613 229.679 290.137 230.086 288.634 230.449C287.072 231.011 285.508 231.575 285.202 230.959C284.892 230.341 285.833 228.544 286.776 226.749C287.291 226.83 287.808 226.879 288.327 226.878C290.039 226.876 291.75 226.903 293.464 226.871C293.496 226.865 293.529 226.859 293.76 226.795C294.268 226.659 295.331 226.362 296.147 226.109C296.577 226.006 297.155 225.544 297.35 225.127C297.552 224.698 297.632 224.222 297.582 223.751C297.531 223.28 297.352 222.831 297.065 222.455C296.476 221.682 295.682 221.499 294.922 221.374C293.09 221.226 291.251 221.179 289.412 221.082L289.585 219.212C291.055 219.296 292.532 219.269 294.006 219.118C296.127 218.899 298.108 218.467 300.095 218.083C300.524 217.994 300.967 217.807 301.383 217.446C302.167 216.726 302.346 216.018 301.919 215.164C301.536 214.506 301.1 213.88 300.614 213.294C299.861 212.459 298.928 211.806 297.885 211.384C296.843 210.961 295.718 210.781 294.596 210.857C290.596 211.065 286.718 211.093 282.647 212.311C281.671 212.602 280.709 212.948 279.772 213.344C279.392 213.516 279.088 213.821 278.92 214.203C278.633 214.959 278.698 215.88 279.474 216.829ZM232.017 219.028C238.063 218.316 244.099 217.65 250.152 216.892C250.75 216.769 251.498 216.599 252.263 215.902C253.082 215.122 253.252 214.464 253.011 213.7C252.913 213.378 252.571 212.938 252.047 212.492C251.785 212.273 251.498 212.085 251.192 211.933C250.85 211.769 250.491 211.643 250.122 211.557C248.324 211.135 246.481 210.933 244.634 210.957C243.189 210.952 241.745 211.006 240.305 211.117C237.077 211.396 233.893 212.061 230.823 213.098C229.754 213.48 228.735 213.989 227.788 214.616C227.333 214.915 226.898 215.243 226.486 215.599C225.218 216.711 224.732 217.754 224.418 218.909C224.181 220.066 224.401 221.27 225.03 222.269C225.343 222.761 225.75 223.196 226.224 223.536C227.145 224.212 228.289 224.409 229.363 224.604C231.477 224.987 233.63 224.536 235.755 224.544C237.706 224.561 239.692 224.528 241.665 224.936C243.439 225.298 245.139 225.952 246.698 226.871C247.25 227.267 247.339 227.762 247.128 228.3C246.963 228.695 246.048 229.421 245.358 229.853C245.081 230.026 244.794 230.184 244.499 230.326C239.932 232.343 235.073 232.446 230.271 230.845C230.128 230.767 229.991 230.7 229.845 230.418C229.728 230.1 229.65 229.74 230.144 229.325C230.615 229.084 231.136 228.983 231.644 228.948C232.571 228.905 233.823 229.135 234.992 229.683C236.889 230.515 238.982 230.799 241.032 230.502C242.052 230.352 243.047 230.061 243.986 229.637C244.242 229.517 244.45 229.314 244.575 229.06C244.7 228.807 244.741 228.521 244.693 228.243C244.615 227.846 244.253 227.249 243.545 226.654C242.804 226.066 241.837 225.695 240.894 225.457C240.446 225.351 239.992 225.277 239.533 225.236C238.671 225.145 237.805 225.082 236.938 225.047C235.094 224.98 233.248 225.058 231.417 225.281C230.734 225.365 230.337 225.447 229.95 225.562C229.561 225.674 229.182 225.817 228.815 225.989C228.459 226.153 228.117 226.344 227.791 226.56C226.327 227.606 225.9 228.657 225.767 229.797C225.743 230.135 225.769 230.476 225.845 230.807C225.919 231.138 226.043 231.457 226.319 231.929C226.592 232.4 227.02 233.021 227.513 233.585C228.009 234.147 228.574 234.651 229.185 235.088C229.88 235.578 230.634 235.977 231.43 236.275C232.403 236.658 233.69 237.058 235.004 237.339C236.316 237.62 237.656 237.782 238.995 237.818C240.338 237.853 241.68 237.764 242.642 237.653C243.604 237.542 244.18 237.409 244.75 237.25C245.864 236.944 246.947 236.532 247.982 236.018C248.434 235.786 248.801 235.569 249.15 235.323C249.501 235.08 249.836 234.813 250.152 234.524C251.173 233.581 251.727 232.708 252.062 231.8C252.182 231.475 252.279 231.14 252.347 230.57C252.497 229.435 252.455 227.587 251.857 226.07C251.586 225.329 251.219 224.627 250.763 223.984C250.338 223.38 249.825 222.842 249.241 222.39C248.082 221.502 246.693 220.965 245.239 220.842C242.1 220.496 238.948 220.28 235.795 219.758C234.53 219.545 233.27 219.301 232.017 219.028ZM115.096 224.887C115.327 223.303 115.616 221.493 116.054 219.694C116.281 218.77 116.55 217.859 116.797 217.045C117.045 216.23 117.267 215.515 117.47 214.792C117.672 214.072 117.855 213.344 117.964 212.857C118.172 211.938 118.156 211.694 118.151 211.149C118.14 210.701 118.07 210.216 117.766 209.763C117.08 208.804 116.189 208.671 115.299 208.79C114.616 208.896 114.073 209.501 113.618 210.104C113.435 210.344 113.26 210.59 113.094 210.841C112.865 211.188 112.659 211.55 112.479 211.925C112.19 212.502 111.773 213.395 111.39 214.305C110.279 216.931 109.455 219.856 108.903 222.557C108.731 223.445 108.601 224.341 108.511 225.239C108.339 226.973 108.327 228.651 108.349 230.24C108.357 231.005 108.368 231.772 108.438 232.442C108.506 233.112 108.635 233.683 108.846 234.224C109.057 234.766 109.349 235.277 109.712 235.729C110.412 236.579 111.214 237.185 111.871 237.493C112.994 238.022 113.992 238.096 115.161 237.966C116.726 237.799 118.232 236.968 119.793 235.918C120.155 235.671 120.506 235.412 121.025 235.001C122.352 233.942 123.644 232.841 124.9 231.699C124.855 232.918 124.865 234.138 124.93 235.356C124.997 236.574 125.119 237.787 125.23 238.623C125.341 239.458 125.439 239.914 125.57 240.363C125.854 241.312 126.182 242.112 126.744 242.978C127.043 243.435 127.427 243.933 127.89 244.343C128.354 244.754 128.895 245.078 129.478 245.294C130.061 245.51 130.681 245.614 131.1 245.643C131.519 245.672 131.735 245.621 131.938 245.541C132.294 245.389 132.623 245.194 132.927 244.679C133.193 244.222 133.385 243.617 133.407 243.063C133.42 242.774 133.393 242.486 133.385 241.939C133.377 241.393 133.386 240.59 133.383 239.79C133.381 238.987 133.366 238.185 133.366 236.952C133.366 235.72 133.381 234.055 133.48 232.394C133.678 229.113 134.189 225.809 134.991 222.537C136.706 222.096 138.418 221.645 139.349 221.393C140.281 221.144 140.43 221.093 140.576 221.031C140.722 220.969 140.863 220.901 141 220.821C141.279 220.667 141.752 220.279 142.241 219.782C144.144 217.791 144.602 215.615 143.63 213.343C143.357 212.644 142.998 211.982 142.562 211.371C142.35 211.08 142.103 210.815 141.828 210.582C141.555 210.352 141.25 210.162 140.924 210.016C140.553 209.849 140.161 209.736 139.758 209.681C138.787 209.516 137.334 209.516 136.106 210.016C135.507 210.246 134.942 210.562 134.059 211.206C132.944 212.036 131.869 212.918 130.838 213.851C128.852 213.682 126.905 213.206 125.065 212.44C124.678 212.28 124.318 212.063 123.996 211.795C123.719 211.558 123.485 211.274 123.306 210.955C123.131 210.636 123.02 210.281 122.911 210.058C122.676 209.614 122.447 209.596 122.199 209.492C121.916 209.398 121.609 209.403 121.329 209.506C120.915 209.673 120.477 209.809 120.064 210.471C119.837 210.832 119.58 211.384 119.464 211.8C119.348 212.216 119.374 212.494 119.42 212.938C119.466 213.384 119.529 214 119.709 214.583C120.085 215.757 120.739 216.643 122.047 217.556C122.701 218.02 123.547 218.537 124.4 219.04C125.254 219.54 126.116 220.025 126.99 220.486C126.374 222.644 125.889 224.837 125.538 227.054L123.02 226.816L117.15 228.784C116.483 229.084 115.726 229.119 114.967 228.754C114.441 228.392 114.354 227.903 114.722 227.384L114.805 227.125C114.888 226.39 114.984 225.66 115.096 224.887ZM60.2106 205.918L60.1709 205.917L61.2281 206.344C60.9191 206.139 60.5737 205.994 60.2106 205.918Z" fill="white"/>
<path fill-rule="evenodd" clip-rule="evenodd" d="M108.027 231.037C108.013 230.205 107.993 229.373 107.965 228.541C107.956 228.146 107.931 227.751 107.89 227.357C107.858 227.071 107.815 226.789 107.411 224.639C106.875 221.797 106.327 218.957 105.764 216.119C105.293 213.759 105.115 213.052 104.909 212.354C104.496 210.957 103.965 209.597 103.321 208.29C103.194 208.092 103.031 207.919 102.84 207.78C102.648 207.644 102.433 207.544 102.205 207.485C101.737 207.368 101.045 207.449 100.35 207.707C99.9803 207.854 99.6388 208.062 99.34 208.323C98.6447 208.909 98.251 209.874 97.597 210.647C97.2446 211.101 96.8715 211.54 96.4476 212.035C95.9856 212.568 95.5378 213.114 95.1047 213.672C94.6602 214.251 94.2458 214.856 93.6283 215.824C93.0108 216.792 92.1917 218.126 91.417 219.488C90.6437 220.848 89.9157 222.234 89.2342 223.642L87.3816 223.487C88.4041 220.448 89.0908 217.307 89.4295 214.119C89.7724 210.882 89.7803 207.452 89.3152 203.963C89.0723 202.188 88.6913 200.431 88.1738 198.716C87.6563 197.002 87.0007 195.328 86.48 194.135C86.0973 193.236 85.6544 192.364 85.1544 191.525C84.292 190.075 83.2897 188.713 82.1621 187.458C81.5096 186.712 80.7159 185.85 79.9174 184.992C79.1189 184.135 78.3156 183.283 77.695 182.68C77.0742 182.076 76.6361 181.721 76.1615 181.424C75.6868 181.127 75.1772 180.886 74.6438 180.711C74.1713 180.559 73.6863 180.449 73.1945 180.382C72.5547 180.302 72.3801 180.395 72.0198 180.595C71.4991 180.949 71.334 181.406 71.4927 181.886C71.5292 181.989 71.5848 182.087 71.9245 182.5C72.2642 182.914 72.8913 183.642 73.5072 184.38C74.6883 185.793 75.709 187.129 76.4043 188.366C76.7472 188.96 77.0647 189.566 77.4521 190.372C77.8378 191.176 78.2918 192.177 78.7379 193.182C79.5999 195.133 80.3968 196.983 80.8969 198.741C81.1429 199.599 81.3366 200.469 81.4795 201.348C81.6223 202.228 81.7144 203.113 81.7668 204.093C81.9176 207.109 81.762 210.463 81.2604 213.64C80.7586 216.875 79.7572 220.013 78.2918 222.941C76.0377 227.307 72.5227 230.894 68.2035 233.237C66.7266 234.057 65.0685 234.497 63.3792 234.515C62.589 234.534 61.8034 234.39 61.071 234.093C60.7201 233.953 60.3836 233.78 60.0662 233.575C59.5568 233.248 59.1378 232.798 58.8477 232.266C58.5576 231.735 58.4056 231.139 58.4057 230.534C60.0588 229.155 61.6012 227.648 63.0189 226.028C64.392 224.454 65.5572 222.917 66.443 221.488C66.878 220.791 67.2844 220.074 67.6685 219.347C68.0543 218.618 68.4194 217.877 68.7813 216.835C69.1433 215.791 69.5005 214.446 69.6624 213.075C69.8243 211.703 69.7878 210.306 69.5576 208.944C69.3404 207.718 69.0001 206.517 68.5416 205.36C68.1813 204.466 67.8892 204.002 67.5399 203.59C67.1892 203.176 66.7808 202.814 66.3271 202.516C64.8524 201.577 63.1141 201.37 61.4314 201.523C60.8551 201.578 60.2837 201.688 59.3042 202.042C58.3247 202.399 56.9389 203.001 55.6832 203.813C54.4242 204.629 53.3054 205.644 52.3702 206.817C51.5158 207.913 50.7899 209.103 50.2064 210.365C49.7127 211.424 49.4635 212.222 49.2349 213.024C48.5729 215.332 48.0411 217.834 47.9856 220.19C47.9665 220.955 47.9935 221.723 48.0745 222.484C48.1554 223.246 48.2888 224.001 48.5015 225.427C48.7142 226.849 49.0047 228.94 49.2873 231.032C48.7725 231.606 48.0898 232.003 47.3363 232.167C46.9633 232.251 46.5743 232.278 45.9489 232.185C45.3218 232.088 44.4598 231.87 43.6613 231.502C42.8628 231.134 42.131 230.618 41.5056 229.995C40.8794 229.37 40.3641 228.644 39.9816 227.846C39.1545 226.198 39.1577 224.32 39.1117 222.531C39.1063 221.602 39.1455 220.674 39.2291 219.748C39.3117 218.824 39.4403 217.904 39.672 216.691C39.9022 215.478 40.2356 213.975 40.6118 212.481C40.9881 210.987 41.4056 209.503 41.9834 207.826C42.5596 206.15 43.2978 204.283 44.1804 202.485C45.0631 200.686 46.0917 198.957 47.2569 197.329C48.2969 195.899 49.4079 194.523 50.5859 193.204C51.4478 192.236 51.8669 191.828 52.2876 191.42L53.4338 190.322C53.8417 189.948 54.2186 189.543 54.5609 189.109C55.2657 188.226 55.5514 187.655 55.053 186.842C54.7307 186.386 54.2894 186.299 53.8703 186.267C53.7179 186.261 53.5639 186.274 53.2099 186.374C52.1644 186.687 51.1591 187.122 50.2144 187.669C49.0238 188.382 47.93 189.244 46.8204 190.083C46.2046 190.561 45.6012 191.054 45.0107 191.563C44.0243 192.407 43.108 193.33 42.2707 194.322C41.8612 194.806 41.4691 195.305 40.8468 196.206C40.051 197.359 39.2985 198.541 38.591 199.749C37.8084 201.092 37.0988 202.477 36.4606 203.893C35.3019 206.475 34.3558 209.148 33.6318 211.884C33.3212 213.035 33.0391 214.194 32.7856 215.359C32.4304 216.965 32.1953 218.595 32.0824 220.236C31.8601 223.257 32.0475 226.227 33.1412 229.327C33.4063 230.041 33.7318 230.73 34.135 231.372C34.5382 232.013 35.0192 232.607 35.5637 233.132C36.6765 234.201 37.9227 234.924 39.0974 235.463C39.6959 235.74 40.3086 235.987 40.9325 236.202C42.6993 236.812 44.3201 237.133 45.9584 236.814C47.3951 236.529 48.5872 235.909 49.8032 235.653C50.2001 235.556 50.5986 235.474 51.0018 235.405C51.4653 235.944 51.9368 236.472 52.413 236.999C52.8893 237.526 53.3687 238.05 54.0386 238.68C54.7085 239.311 55.5705 240.046 56.5182 240.647C57.4659 241.247 58.5025 241.716 59.5804 242.051C60.6599 242.386 61.779 242.587 63.303 242.603C64.827 242.619 66.7542 242.446 68.6321 242.038C70.5105 241.631 72.328 240.981 74.039 240.106C75.744 239.231 77.3282 238.128 78.422 237.283C79.5158 236.439 80.1222 235.852 80.7143 235.252C81.8592 234.109 82.9313 232.896 83.9241 231.619C84.7099 230.605 85.0719 229.999 85.5164 229.192C85.7323 228.795 85.9307 228.389 86.1133 227.975L87.8103 228.473L86.1561 233.804C85.9363 234.493 85.858 235.22 85.9259 235.941C85.9938 236.662 86.2066 237.361 86.5514 237.998C86.7705 238.393 87.034 238.728 87.3515 238.999C88.0055 239.558 88.8707 239.823 89.6787 239.754C90.0946 239.719 90.501 239.596 90.7979 239.466C91.0947 239.336 91.2804 239.198 91.4535 239.044C92.2631 238.336 92.4615 237.536 92.8028 236.745C93.4315 235.098 94.1045 233.439 94.6903 231.802C94.7618 231.58 94.8253 231.356 94.8872 231.132L101.759 231.003C101.837 231.827 101.918 232.65 101.969 233.121C102.018 233.594 102.036 233.715 102.059 233.834C102.116 234.125 102.209 234.409 102.337 234.677C102.45 234.932 102.632 235.326 102.829 235.715C103.028 236.102 103.239 236.483 103.425 236.774C103.831 237.414 104.148 237.658 104.55 237.909C105.404 238.369 106.265 238.62 107.184 237.39C107.457 236.995 107.574 236.72 107.692 236.339C107.833 235.872 107.957 235.266 108.008 234.717C108.035 234.434 108.047 234.151 108.05 233.539C108.054 232.92 108.044 231.978 108.027 231.037ZM56.75 224.257C56.5248 223.392 56.3566 222.514 56.2467 221.628C56.0229 219.814 56.04 217.979 56.2975 216.17C56.4293 215.172 56.623 214.067 56.8563 212.968C57.0897 211.873 57.3611 210.784 57.5532 210.071C57.8469 208.906 58.2931 207.785 58.8803 206.738C58.9645 206.59 59.0693 206.453 59.1915 206.336C59.4963 206.09 59.7138 205.869 60.1694 205.915L60.0916 205.882C60.3048 205.844 60.5244 205.867 60.7252 205.948C60.9259 206.029 61.0997 206.165 61.2266 206.341C61.5409 206.774 61.7489 207.209 61.8711 207.68C62.1029 208.968 62.1108 210.114 62.0489 211.363C62.0219 211.859 61.9791 212.354 61.8791 213.092C61.7531 213.995 61.6022 214.893 61.4266 215.788C61.246 216.729 61.0192 217.662 60.7472 218.582C60.5179 219.36 60.2088 220.112 59.8249 220.826C59.4517 221.505 59.0016 222.138 58.4835 222.714C57.9667 223.293 57.385 223.811 56.75 224.257ZM100.44 223.611C99.6829 224.176 98.9812 224.042 98.4383 223.352L100.026 220.188L100.721 223.255C100.648 223.389 100.553 223.509 100.44 223.611Z" fill="white"/>
<path fill-rule="evenodd" clip-rule="evenodd" d="M77.6475 192.776C77.19 191.941 76.7517 191.097 76.3331 190.242C75.8251 196.087 75.5965 201.937 75.6489 207.792H76.9157C77.0427 202.785 77.2856 197.778 77.6475 192.776ZM208.226 199.508L205.253 199.424L209.462 208.092C208.416 205.358 207.993 202.426 208.226 199.508ZM213.695 217.697C212.725 214.818 211.394 211.851 209.066 208.987C206.3 205.182 202.969 201.823 199.188 199.026C196.609 196.902 193.882 194.965 191.027 193.228C189.601 192.36 188.145 191.542 186.662 190.776C183.037 188.937 179.266 187.403 175.388 186.189C167.616 183.763 159.494 182.653 151.357 182.905C148.472 182.929 145.607 183.386 142.857 184.261C141.954 184.556 141.081 184.908 140.232 185.31C138.529 186.112 136.925 187.11 135.453 188.283C134.552 188.95 134.404 189.775 134.741 190.669C134.918 191.163 135.496 191.584 136.069 191.849C136.36 191.99 136.782 192.104 137.266 192.157C138.498 192.238 139.909 191.828 141.286 191.003C141.597 190.785 142.091 190.333 141.951 189.91C141.932 189.721 141.667 189.391 141.391 189.353C140.914 189.234 140.411 189.266 139.954 189.445C140.805 188.876 141.75 188.459 142.745 188.215C143.24 188.091 143.748 188.012 144.978 187.94C146.208 187.869 148.164 187.807 150.118 187.864C154.029 187.986 157.914 188.547 161.699 189.537C165.013 190.483 168.292 191.549 171.528 192.734C174.446 193.808 177.334 194.962 180.188 196.195C182.422 197.16 183.696 197.784 184.946 198.46C187.442 199.815 189.818 201.381 192.046 203.142C193.429 204.283 194.812 205.425 196.12 206.642C197.428 207.863 198.663 209.163 199.896 210.462C201.866 212.625 203.434 215.121 204.529 217.834C205.49 220.096 205.606 222.629 204.854 224.969C204.48 226.13 203.904 227.215 203.152 228.175C202.401 229.132 201.481 229.951 200.006 230.838C198.533 231.722 196.502 232.673 194.404 233.427C190.198 234.939 185.746 235.646 181.279 235.51C178.348 235.398 175.425 235.13 172.522 234.709L172.37 218.918C178.156 219.399 183.862 220.586 189.359 222.455C189.062 223.076 188.621 223.617 188.071 224.031C187.678 224.336 187.294 224.671 186.914 225.046C186.803 225.194 186.733 225.369 186.712 225.553C186.69 225.737 186.717 225.923 186.79 226.093C186.843 226.208 186.914 226.317 187.067 226.457C187.219 226.597 187.448 226.77 187.69 226.919C188.351 227.3 189.265 227.481 190.208 227.43C191.646 227.297 192.953 226.568 194.35 225.215C194.747 224.811 195.078 224.346 195.332 223.841C196.225 222.007 196.194 219.817 194.578 217.721C194.288 217.342 193.963 216.991 193.608 216.672C193.252 216.355 192.868 216.071 192.461 215.824C190.282 214.584 187.949 213.639 185.522 213.013C184.264 212.699 182.99 212.453 181.706 212.276C178.735 211.84 175.738 211.603 172.735 211.566C172.649 209.061 172.316 206.57 171.741 204.129C171.575 203.376 171.338 202.64 171.035 201.931C170.836 201.458 170.709 201.224 170.527 200.878C170.308 200.432 169.725 199.851 169.192 199.626C168.658 199.389 168.06 199.316 167.395 199.951C167.283 200.071 167.193 200.209 167.126 200.359C166.563 201.729 166.132 203.15 165.837 204.602C165.691 205.328 165.583 206.06 165.471 206.93C165.248 208.692 164.987 210.836 164.653 212.808C161.934 213.119 159.245 213.656 156.614 214.411C154.744 214.961 152.938 215.708 151.226 216.64C149.94 217.332 148.757 218.2 147.712 219.22C147.242 219.706 146.889 220.293 146.68 220.937C146.472 221.58 146.413 222.263 146.508 222.933C146.667 223.995 147.163 224.939 147.891 225.954C148.091 226.22 148.309 226.476 148.721 226.912C149.134 227.347 149.744 227.967 150.361 228.576C151.549 229.745 152.666 230.8 153.704 231.64C154.205 232.048 154.72 232.437 155.247 232.808C155.776 233.178 156.316 233.532 157.206 234.081C159.565 235.517 161.94 236.925 164.331 238.306L164.526 239.182L164.785 240.323C164.896 240.808 165.044 241.43 165.191 242.054C165.387 242.828 165.834 243.516 166.463 244.009C167.495 244.795 168.746 244.952 169.879 244.541C170.297 244.39 170.733 244.159 171.119 243.859C171.505 243.56 171.84 243.193 172.105 242.782C172.37 242.371 172.565 241.916 172.683 241.439C175.698 241.862 178.732 242.143 181.774 242.282C184.004 242.393 186.239 242.328 188.459 242.089C191.438 241.754 194.701 241.135 197.698 239.985C201.627 238.509 205.235 236.289 208.323 233.445C208.881 232.919 209.412 232.362 209.91 231.778C210.907 230.61 211.778 229.341 212.509 227.99C214.299 224.82 214.733 221.244 213.695 217.697ZM158.233 230.238C157.31 229.772 156.421 229.235 155.636 228.719C154.852 228.203 154.17 227.708 153.511 227.181C152.289 226.197 151.157 225.106 150.129 223.922C149.812 223.55 149.75 223.426 149.714 223.296C149.655 223.101 149.653 222.893 149.708 222.697C149.764 222.501 149.874 222.325 150.026 222.19C150.125 222.099 150.242 222.029 150.764 221.828C153.058 220.95 155.441 220.324 157.87 219.963C158.356 219.89 158.637 219.859 159.205 219.809C159.966 219.743 160.727 219.687 161.489 219.642C162.348 219.594 163.209 219.566 164.067 219.558L164.069 232.205C162.041 231.828 160.076 231.165 158.233 230.238ZM237.984 193.712C237.939 193.214 237.794 192.729 237.559 192.287C237.353 191.903 237.087 191.555 236.772 191.255C236.299 190.803 235.723 190.475 235.093 190.301C234.464 190.126 233.801 190.11 233.163 190.253C232.977 189.776 232.678 189.351 232.291 189.016C231.905 188.68 231.442 188.442 230.944 188.324C229.838 188.041 228.702 187.892 227.561 187.882C226.83 187.876 226.1 187.931 225.378 188.047C224.337 188.196 222.824 188.467 221.354 188.893C219.884 189.318 218.459 189.898 217.097 190.607C215.739 191.315 214.446 192.155 213.245 193.106C212.753 193.508 212.29 193.945 211.86 194.412C210.015 196.454 208.916 198.705 208.889 200.869C208.874 201.442 208.926 202.018 208.997 202.489C209.14 203.388 209.351 204.017 209.639 204.753C209.939 205.501 210.413 206.36 210.917 207.296L211.645 208.642C211.825 208.982 211.918 209.157 212.039 209.308C212.162 209.46 212.314 209.587 212.485 209.682C212.856 209.914 213.509 209.958 214.174 209.868C214.549 209.811 214.919 209.695 215.26 209.523C215.601 209.355 215.917 209.133 216.174 208.828C216.431 208.522 216.633 208.133 216.881 208.057C217.132 207.98 217.43 208.222 217.736 208.388C218.043 208.555 218.357 208.652 218.679 208.715C218.998 208.781 219.324 208.812 219.848 208.812C220.368 208.812 221.087 208.779 221.708 208.741C222.326 208.703 222.843 208.657 223.199 208.617C223.554 208.577 223.754 208.539 224.188 208.457C225.08 208.3 226.647 207.953 227.896 207.428C229.164 206.936 230.642 206.091 232.16 204.891C233.667 203.684 234.987 202.261 236.079 200.669C237.156 199.121 237.754 197.613 237.956 196.011C238.053 195.248 238.063 194.477 237.984 193.712ZM217.306 197.748C216.189 198.765 215.142 199.855 214.171 201.013C214.497 199.683 215.091 198.433 215.917 197.341C216.742 196.248 217.782 195.335 218.973 194.658C220.761 193.644 222.716 192.958 224.747 192.634C222.047 193.994 219.544 195.714 217.306 197.748ZM232.093 197.213C231.995 197.763 231.788 198.288 231.485 198.758C231.181 199.227 230.787 199.631 230.325 199.946C229.557 200.448 228.79 200.951 227.993 201.402C226.409 202.253 224.837 203.124 223.153 203.431C221.497 203.761 219.786 203.698 218.159 203.248C220.554 199.784 224.019 197.201 228.023 195.895C228.987 195.587 230.01 195.512 231.009 195.676C231.182 195.704 231.347 195.767 231.496 195.86C231.644 195.953 231.772 196.074 231.873 196.217C231.974 196.36 232.045 196.522 232.083 196.693C232.121 196.864 232.125 197.04 232.093 197.213ZM328.987 221.825C328.958 220.862 328.805 219.907 328.532 218.983C327.975 217.131 326.942 215.458 325.536 214.13C324.18 212.971 322.52 212.648 320.875 213.138C320.348 213.303 319.85 213.559 318.566 214.519C317.281 215.48 315.214 217.146 313.214 218.891C311.212 220.634 309.279 222.453 307.417 224.344C307.836 223.12 308.312 221.915 308.855 220.74C309.395 219.567 310.003 218.424 310.462 217.578C310.917 216.732 311.224 216.183 311.5 215.619C311.776 215.056 312.017 214.475 312.173 214.064C312.471 213.271 312.479 212.936 312.468 212.395C312.455 212.141 312.416 211.89 312.363 211.697C312.311 211.503 312.249 211.366 312.159 211.249C311.56 210.509 310.708 210.795 309.93 211.297C309.703 211.465 309.492 211.654 309.301 211.862C308.334 212.857 307.398 213.882 306.495 214.935C305.018 216.694 303.766 218.63 302.767 220.698C302.273 221.731 301.846 222.796 301.577 223.533C301.307 224.268 301.196 224.673 301.108 225.082C300.925 225.943 300.859 226.826 300.913 227.705C300.969 228.8 301.17 230.256 301.515 231.543C301.685 232.191 301.889 232.831 302.129 233.456C301.226 235.384 300.425 237.358 299.729 239.369C299.032 241.38 298.447 243.427 297.975 245.502C297.572 247.303 297.238 249.119 296.973 250.945C296.794 252.215 296.784 252.652 296.814 253.087C296.932 254.985 297.84 256.925 299.686 258.878C300.945 260.051 302.497 260.011 304.067 258.698C304.901 255.482 305.745 252.279 306.51 249.069L307.282 246.502C307.542 245.648 307.933 244.837 308.436 243.586C308.941 242.335 309.62 240.665 310.303 238.993C311.822 238.708 313.33 238.367 314.824 237.969C315.919 237.682 316.977 237.268 317.977 236.737C318.458 236.482 318.926 236.198 319.545 235.769C320.164 235.34 320.94 234.764 321.696 234.164C322.418 233.59 323.12 232.991 323.801 232.369C324.888 231.386 325.856 230.279 326.684 229.07C328.408 226.59 329.105 224.282 328.987 221.825ZM322.533 225.396C322.114 226.063 321.596 226.665 320.998 227.178C319.941 228.04 318.839 228.844 317.696 229.587C317.305 229.841 316.858 229.994 316.393 230.03C315.929 230.066 315.463 229.985 315.038 229.794C316.634 226.188 318.911 222.925 321.745 220.183C322.207 219.753 322.598 219.786 322.964 219.899C323.336 219.991 323.733 220.553 323.715 220.902C323.786 222.486 323.374 224.053 322.533 225.396Z" fill="white"/>
</svg>
