<svg width="360" height="360" viewBox="0 0 360 360" fill="none" xmlns="http://www.w3.org/2000/svg">
<rect width="360" height="360" rx="82" fill="#9615FB"/>
<path d="M127.881 55.4182C126.472 54.6234 125.06 55.559 123.753 55.3249C122.048 54.9973 120.975 55.8389 120.044 56.9118C118.9 58.2401 117.852 59.7113 116.8 61.133C116.008 62.2081 115.249 63.352 115.822 64.7988C116.487 64.9847 117.163 65.0552 117.732 65.335C118.304 65.6374 118.783 66.1049 119.308 66.5259C121.266 65.3821 123.297 65.335 125.302 65.4508C127.813 65.6369 130.202 65.3575 132.536 64.4002C133.261 64.1213 134.075 64.1436 134.833 64.0509C135.338 64.612 135.766 65.1233 136.197 65.6378C136.978 66.5729 138.46 65.6378 138.962 66.3833C139.508 67.2249 139.757 68.157 141.095 67.9948C141.095 67.4584 141.148 66.8973 141.077 66.3833C140.997 65.9654 140.787 65.6379 140.621 65.2395H140.48C140.311 65.355 140.104 65.4987 139.908 65.5889C139.881 65.448 139.855 65.3099 139.855 65.1681C140.08 65.1925 140.286 65.216 140.495 65.2359C140.512 65.2137 140.549 65.1881 140.607 65.1681C139.976 64.4695 139.359 63.7683 138.623 62.9296C139.333 62.2284 139.998 61.6702 140.548 60.9687C141.656 59.6625 141.272 58.0758 139.601 57.5148C138.691 57.1653 137.665 57.1434 136.803 57.0008C136.549 56.1152 136.577 54.9959 136.137 54.7623C134.866 54.0168 134.55 52.6145 133.525 51.7291C132.696 50.9836 132.313 49.9086 132.124 48.6492C132.696 48.2972 133.22 47.8545 133.789 47.6208C134.956 47.1068 135.106 46.243 134.886 45.0055C133.789 45.707 132.786 46.3585 131.712 47.0129C131.084 46.5455 130.58 46.1743 129.94 45.7067C129.415 47.2686 128.049 46.0342 126.954 46.5455C127.207 47.2908 127.618 47.992 127.593 48.6931C127.567 49.3696 127.115 50.0682 126.788 50.8848C128.315 51.1667 129.597 51.3743 131.033 51.5863C130.368 52.7993 129.914 53.8247 129.272 54.7129C129.018 55.1171 128.161 55.5601 127.916 55.4197L127.881 55.4182ZM136.828 60.2266C137.053 59.5722 137.69 59.5722 138.194 59.6655C138.626 59.7588 138.953 60.2266 139.652 60.7406C138.789 61.1834 138.285 61.6261 137.738 61.7196C137.191 61.8129 136.619 60.7875 136.828 60.2263V60.2266ZM132.885 52.8069C133.082 52.9002 133.273 53.2057 133.507 53.4833C133.226 53.7426 133.028 54.0664 132.819 54.1131C132.34 54.2065 132.002 53.8792 132.024 53.4149C132.042 52.9005 132.43 52.667 132.884 52.8069H132.885ZM125.677 35.3557C126.097 35.7297 126.528 35.5868 126.982 35.3557C126.964 35.3314 126.964 35.3314 126.928 35.308H125.716C125.689 35.3302 125.689 35.3302 125.663 35.3557H125.677ZM137.247 89.2768C136.337 88.111 136.196 86.8735 136.125 85.5204C136.108 85.1489 136.35 84.5881 135.494 84.3545C134.876 87.0166 134.4 89.5821 136.601 91.8206C137.768 90.6518 137.979 90.2559 137.244 89.2768H137.247ZM133.732 79.1268C132.915 78.6621 132.227 78.845 131.481 79.1746C130.176 79.7821 129.883 80.808 130.024 82.0923C130.362 81.4625 130.886 80.9483 131.528 81.3224C133.62 82.5354 134.806 81.1815 136.382 80.0134C135.305 79.6858 134.443 79.4991 133.733 79.1278L133.732 79.1268ZM182.198 122.129C181.443 121.312 181.339 121.312 179.645 121.265C180.44 121.686 181.08 122.478 182.198 122.129ZM120.213 37.4082H120.195C120.195 37.5942 120.195 37.7796 120.213 37.9693C120.231 38.017 120.266 38.017 120.294 38.017L120.213 38.1103C120.655 37.8764 121.112 37.6428 121.566 37.3868C121.548 37.3624 121.548 37.3624 121.513 37.3391C121.127 37.3391 120.732 37.3169 120.346 37.3169C120.292 37.3391 120.265 37.3869 120.205 37.4102L120.213 37.4082ZM113.938 39.8385C113.992 39.7907 114.051 39.7451 114.136 39.6975C114.055 39.7453 113.938 39.7908 113.834 39.8385C113.887 39.8385 113.887 39.7907 113.946 39.8385H113.938ZM133.579 32.0916C133.278 32.1593 133.007 32.3254 132.705 32.419C133.393 32.2076 134.058 31.9047 134.779 31.7207C134.376 31.8588 133.968 31.9519 133.581 32.0922L133.579 32.0916ZM180.032 25C168.368 25 157.031 26.3063 146.112 28.7317C146.732 28.6384 147.323 28.4978 147.944 28.4042C150.359 27.9834 152.819 27.8431 155.258 27.7498C158.197 27.6565 161.112 27.702 164.054 27.702C164.835 27.702 165.627 27.702 166.385 27.8429C166.793 27.9362 167.517 28.3792 167.47 28.5192C167.132 30.3398 169.64 31.1097 168.975 33.0705C170.665 33.9559 172.357 34.7946 174.037 35.6362C174.632 35.9633 175.181 36.3345 175.727 36.7556C176.065 36.9894 175.981 37.7345 175.586 37.8749C175.506 37.9227 175.389 38.0609 175.296 38.0609C172.076 38.1542 169.021 39.5074 165.672 39.04C162.232 38.5724 158.743 38.4787 155.279 38.1984C154.941 38.1762 154.591 38.1984 154.301 38.0575C151.699 36.7981 148.854 36.8449 146.112 36.4957C142.997 36.0968 139.824 36.2392 136.697 36.3096C135.719 36.3318 134.668 36.7056 133.805 37.1732C131.296 38.6666 128.616 39.2741 125.943 38.9469C124.867 39.6924 124.731 40.4868 124.985 41.419C125.182 41.5345 125.371 41.7905 125.532 41.7465C128.996 41.3726 132.461 40.9519 135.901 40.5807C136.472 40.5129 137.079 40.3947 137.603 40.5329C140.182 41.2564 142.712 40.6262 145.244 40.3694C147.775 40.1863 148.065 40.3938 147.913 43.0535C149.255 43.8483 150.571 44.6404 151.144 46.5515C150.163 46.7374 149.323 46.8789 148.484 47.0657C147.61 47.2518 146.745 47.4866 145.882 47.6733C143.574 48.1876 141.252 48.5616 138.885 48.3748C137.74 48.3037 136.596 48.397 135.758 49.2848C135.561 49.4678 135.504 49.9611 135.645 50.195C135.758 50.4064 136.17 50.5226 136.451 50.6159C136.649 50.6636 136.93 50.5681 137.103 50.4298C138.678 49.03 140.638 49.2392 142.539 49.1236C143.646 49.0758 144.745 48.9827 146.108 48.8898C146.703 49.2637 147.508 49.8687 148.419 50.2428C149.027 50.4992 149.735 50.5246 150.4 50.4992C151.581 50.4514 152.173 49.7757 152.173 48.5634C152.19 48.2359 152.06 47.9091 152.06 47.5844C152.06 47.3505 152.201 47.1636 152.314 46.8858C152.604 46.838 152.934 46.6997 153.247 46.7448C155.019 46.9787 156.804 47.2344 158.575 47.5864C160.103 47.914 161.633 48.2848 163.115 48.7993C164.547 49.2421 165.983 49.5448 167.407 49.0784C169.87 48.2836 172.283 49.2897 174.721 49.1717C176.345 50.1287 178.024 51.083 179.646 52.0178C180.312 52.4385 180.942 52.9058 181.65 53.3956C184.707 51.8307 187.284 53.5111 189.943 54.6306C190.292 54.7714 190.565 55.2384 190.831 55.5656C191.206 56.0551 190.943 56.7785 190.399 56.9186C190.061 57.0119 189.723 57.1271 189.421 57.0821C188.418 56.9186 187.716 57.2906 187.054 58.0612C186.764 58.3887 185.958 58.6907 185.622 58.5039C184.306 57.852 183.207 58.4561 182.086 58.8778C181.342 59.1803 180.655 59.4857 179.987 59.7634C178.738 59.1803 178.234 58.317 178.099 57.0793C177.957 55.7511 177.501 54.5356 176.278 53.3696C175.706 54.5355 175.39 55.5174 174.796 56.2186C174.246 56.8704 173.384 57.2909 172.626 57.8055C172.987 58.2235 173.288 58.6002 173.604 58.9714C173.463 59.2053 173.379 59.4857 173.24 59.5792C172.527 59.9068 171.783 60.1623 171.118 60.3959C171.064 60.7454 170.949 60.979 171.005 61.1414C171.307 61.958 171.67 62.7528 172.076 63.7786C174.105 63.4511 176.041 63.1488 177.955 62.7996C178.209 62.1232 178.412 61.4933 178.714 60.6985C179.832 61.0972 180.836 61.4218 181.945 61.8205C182.272 63.3604 181.42 64.4798 180.555 65.4367C179.166 67.0457 177.522 68.4232 176.774 70.5461C176.549 71.2254 175.774 71.4341 175.058 71.2254C174.216 70.9229 173.435 70.5461 172.432 70.1034C171.09 71.5281 169.749 72.8343 168.513 74.2338C167.814 75.0287 168.316 76.2413 169.341 76.662C170.824 77.2423 170.824 77.2423 171.37 78.6198C168.91 79.4117 167.744 81.7465 165.643 83.2617C165.643 85.1291 165.724 87.0429 165.616 88.9074C165.504 91.0303 165.67 92.9195 167.739 94.179C168.463 94.6218 168.508 95.5102 168.051 96.302C167.769 96.8163 167.62 97.515 167.192 97.7018C165.371 98.6809 164.996 100.735 163.818 102.181C162.536 103.768 161.763 105.891 161.076 107.899C160.307 110.115 160.878 112.191 162.815 113.616C164.658 114.944 166.002 116.742 167.715 118.189C169.313 119.495 169.744 121.362 170.13 123.23C170.21 123.65 170.076 124.14 169.932 124.536C169.324 125.911 168.253 126.846 166.946 127.429C166.036 126.4 167.412 126.004 167.318 125.119C166.968 124.84 166.559 124.442 166.081 124.209C165.695 123.952 165.218 123.927 164.832 123.741C162.324 122.388 159.885 120.964 159.267 117.84C158.148 117.397 157.145 116.954 155.967 116.465C155.094 117.141 154.228 117.818 153.225 118.566C152.676 118.425 152.036 118.101 151.405 118.101C150.519 118.101 149.595 118.169 148.803 118.519C147.487 119.08 146.273 119.919 144.86 120.714C144.807 121.646 144.748 122.625 144.663 123.7C144.582 123.815 144.409 124.027 144.257 124.096C143.533 124.352 142.752 124.495 142.087 124.866C141.084 125.427 140.058 125.567 138.878 125.661C137.235 125.754 135.576 126.219 134.003 126.686C133.29 126.898 132.572 127.432 132.104 128.017C130.689 129.766 129.373 131.587 128.081 133.454C127.134 134.832 126.892 136.3 127.912 137.84C128.755 139.146 128.845 140.499 128.681 142.039C128.4 144.677 129.485 147.127 130.398 149.508C130.9 150.79 132.044 151.887 133.126 152.866C134.433 154.079 135.913 155.06 137.396 156.086C137.828 156.368 138.447 156.413 138.997 156.413C139.975 156.461 140.955 156.461 142.437 156.461C143.941 155.386 145.901 154.08 147.79 152.68C149.222 151.608 149.983 150.161 149.563 148.294C149.422 147.757 149.224 147.219 149.131 146.66C148.962 145.703 149.184 144.818 149.937 144.235C152.07 142.555 154.1 140.781 156.795 140.058C157.683 139.846 158.438 140.08 158.776 140.896C159.208 141.994 160.072 143.091 159.001 144.328C158.776 144.607 158.804 145.214 158.921 145.588C159.4 147.128 159.806 148.643 159.619 150.254C159.507 151.233 160.53 151.42 160.831 152.075C160.577 153.381 160.05 154.641 160.282 156.018C162.054 156.227 162.964 154.547 164.469 154.313L164.416 154.265H164.434C164.236 153.146 164.603 152.585 165.682 152.352C165.763 152.352 165.88 152.4 166.187 152.445C166.161 152.819 166.133 153.19 166.133 153.564C166.187 153.564 166.187 153.564 166.214 153.517L166.133 153.61C166.564 153.427 167.018 153.331 167.37 153.096C169.715 151.721 172.108 151.883 174.731 152.814C175.046 153.328 175.76 153.98 175.782 154.656C175.836 157.34 177.484 159.485 177.859 162.051C178.198 164.339 179.75 165.62 181.802 166.157C183.53 166.646 185.338 166.786 187.112 167.089C187.929 166.25 188.755 165.595 189.282 164.779C190.939 162.142 193.423 162.004 196.096 162.282C196.735 162.375 197.367 162.634 197.868 162.774C198.987 162.375 199.418 161.536 199.607 160.673C199.776 159.903 199.945 159.064 199.805 158.316C199.221 155.143 200.856 153.089 203.255 151.642C204.645 150.801 205.262 149.588 206.009 148.375C206.395 147.699 206.648 146.882 207.198 146.418C207.63 146.044 208.494 145.972 209.064 146.136C209.833 146.322 209.926 147.046 209.728 147.769C209.616 148.187 209.503 148.608 209.331 149.26C210.568 149.119 210.977 148.327 211.43 147.626C211.572 146.46 210.766 145.248 211.511 144.079C212.604 143.915 212.85 145.198 214.019 145.525C215.595 145.243 217.508 144.849 219.081 146.504C219.757 146.13 220.378 145.85 220.924 145.478C222.184 144.708 223.455 144.079 225.032 144.497C225.684 144.708 226.371 144.544 226.828 143.892C227.259 143.33 227.377 142.794 227.155 142.024C226.929 141.139 227.515 140.484 228.355 140.437C231.913 140.088 233.662 139.084 235.587 136.238C236.858 136.517 235.84 137.544 236.195 138.152C236.57 138.828 236.72 139.645 236.998 140.487C237.726 141.023 238.526 141.653 239.461 142.354C240.206 142.402 241.082 142.448 241.97 142.495C243.474 142.495 244.84 142.96 246.11 143.779C246.555 144.082 247.032 144.362 247.567 144.549C250.694 145.575 250.949 145.622 253.845 143.779C256.212 142.308 258.72 142.308 261.321 142.589C262.09 142.704 262.826 143.053 263.595 143.197C265.148 143.428 266.244 144.225 267.107 145.529C267.656 146.37 268.367 147.209 269.229 147.652C270.982 148.512 272.027 149.796 272.553 151.642C274.363 152.296 276.111 152.25 277.896 151.898C279.212 151.667 280.579 151.619 281.861 151.315C283.343 150.987 284.499 151.501 285.43 152.437C286.456 152.251 287.329 152.158 288.172 151.923C289.248 151.666 290.471 151.458 291.323 150.875C293.07 149.638 294.716 149.8 296.399 150.734C298.183 151.76 299.907 152.855 301.893 151.364C303.922 153.627 305.044 155.891 305.498 158.456C306.019 161.302 305.723 164.058 305.3 166.857C305.075 168.304 304.894 169.725 304.692 171.197C304.579 172.082 304.611 173.017 304.365 173.831C303.621 176.328 304.004 178.707 304.445 181.135C304.851 183.467 305.516 185.849 305.331 188.134C305.105 191.12 305.276 194.151 304.561 197.14C304.308 198.072 304.246 199.098 304.037 200.079C303.532 202.39 303.008 204.628 301.026 206.239C299.778 207.216 298.729 208.36 298.109 209.878C297.968 210.296 297.723 210.738 297.421 210.994C295.648 212.397 294.958 214.451 294.05 216.387C293.362 217.855 293.069 219.373 293.41 220.982C293.805 223.036 293.41 224.947 292.452 226.815C292.371 227.001 292.198 227.189 292.162 227.422C291.091 231.718 288.92 235.518 287.19 239.536C286.502 241.192 285.685 242.822 284.846 244.387C284.251 245.481 283.445 246.394 282.244 246.933C281.219 247.374 280.241 247.91 279.258 248.399C279.311 248.608 279.456 248.845 279.427 249.032C279.286 250.198 280.709 250.987 280.256 252.159C279.568 253.932 278.974 255.799 277.491 257.106C276.057 258.362 274.599 259.625 273.048 260.747C271.971 261.489 271.157 262.352 271.087 263.684C270.945 265.922 269.489 267.041 267.647 267.836C267.142 268.022 266.48 267.878 266.35 268.675C266.604 269.379 267.075 268.861 267.458 268.861C268.239 268.861 268.695 269.559 268.332 270.167C268.163 270.455 267.956 270.731 267.737 270.962C267.348 271.38 266.778 271.757 266.615 272.219C265.798 274.694 264.341 276.75 262.557 278.568C262.476 278.664 262.574 278.986 262.611 279.294H264.454C265.003 280.251 264.534 280.9 264.068 281.555C262.563 283.612 261.06 285.663 259.506 287.811C259.951 288.556 260.338 289.185 260.718 289.816H263.133V289.726C263.186 289.726 263.274 289.777 263.33 289.777C263.472 289.726 263.646 289.681 263.787 289.633C263.84 289.633 263.868 289.729 263.928 289.819C263.731 289.819 263.554 289.777 263.33 289.777C263.276 289.777 263.25 289.777 263.162 289.819H263.108C263.134 290.124 263.249 290.523 263.108 290.658C261.791 292.247 260.284 293.6 258.255 294.159C256.865 294.577 255.465 295.003 254.031 295.253C251.593 295.698 249.865 294.722 248.98 292.407C248.106 290.097 247.627 287.718 248.515 285.268C248.712 284.638 248.842 283.984 248.864 283.307C248.944 280.766 248.944 278.2 249.089 275.632C249.107 274.837 249.371 274.117 249.546 273.393C249.185 272.648 248.821 271.95 248.568 271.202C248.23 270.338 248.252 269.494 248.648 268.587C249.677 266.208 250.176 263.689 250.314 261.074C250.394 259.372 250.261 257.76 249.555 256.127C248.696 254.075 248.555 251.787 248.716 249.568C249.006 246.185 248.733 242.874 247.783 239.605C247.326 238.111 247.095 236.577 247.073 234.988C247.02 231.649 245.638 228.69 243.932 225.795C241.073 224.862 238.227 224.068 235.103 224.255C232.55 224.441 229.912 224.21 227.498 223.086C226.52 222.619 225.517 222.153 225.187 220.848C225.018 220.196 224.277 219.566 223.612 219.217C221.024 217.86 218.806 215.947 216.683 213.986C214.598 212.075 212.308 210.488 210.034 208.854C209.102 208.203 208.096 207.713 206.883 207.922C205.764 208.108 204.924 207.688 204.468 206.594C204.415 206.385 204.415 206.102 204.271 205.965C202.267 204.097 202.022 201.999 203.293 199.596C203.642 198.872 203.24 198.078 202.334 197.753C201.517 197.451 200.968 197.145 200.807 196.21C200.582 195.045 199.302 194.393 199.713 192.85C200.133 191.17 200.68 189.399 199.545 187.6C201.317 186.132 201.751 184.265 201.692 182.164C201.674 181.325 201.917 180.296 202.417 179.642C203.397 178.289 203.561 177.261 202.614 175.723C201.948 174.626 201.309 173.342 200.946 172.129C200.061 169.093 197.341 168.254 195.16 166.808C194.963 166.667 194.495 166.901 194.202 166.83C193.63 166.667 193.083 166.387 192.396 166.154C192.114 166.618 191.801 167.182 191.392 167.905C191.617 168.255 191.849 168.604 192.131 168.931C192.563 169.421 192.68 169.96 192.212 170.402C191.687 170.964 191.09 171.546 190.402 171.827C189.514 172.177 188.511 172.316 187.37 172.597C186.574 171.337 185.501 171.244 183.996 171.736C182.654 172.179 181.128 172.179 180.053 170.686C179.74 170.265 178.886 170.078 178.258 170.078C177.499 170.078 176.727 170.405 175.969 170.499C174.56 170.567 173.238 170.358 172.667 168.772C172.188 167.512 171.255 166.836 169.975 166.44C169.017 166.206 168.132 165.623 167.177 165.274C165.695 164.76 164.26 164.388 162.615 164.946C161.367 165.364 159.947 165.178 158.604 165.274C157.719 165.367 156.783 165.367 155.957 165.623C154.348 166.113 152.867 165.926 151.338 165.321C150.011 164.785 148.621 164.293 147.233 163.803C145.274 163.08 143.512 163.173 142.077 164.947C140.62 166.743 138.706 167.419 136.407 167.326C133.374 167.233 130.341 167.326 127.309 167.278C126.514 167.278 125.733 167.092 124.964 166.976C124.417 166.882 123.845 166.555 123.341 166.648C120.926 167.138 118.688 166.44 116.436 165.763C115.574 165.506 114.72 165.226 113.951 164.806C112.713 164.104 111.854 163.126 111.992 161.539C112.133 159.485 110.687 158.272 109.506 156.988C108.7 156.078 107.615 155.285 106.495 154.865C104.607 154.166 103.102 152.67 101.048 152.299C100.335 152.206 99.9042 151.691 99.6365 150.99C99.4676 150.476 99.2166 149.918 98.8048 149.662C97.1279 148.567 95.3897 147.539 93.6381 146.51C93.4407 146.417 92.8323 146.51 92.7644 146.651C92.6233 147.001 92.5107 147.539 92.6519 147.864C92.8207 148.238 93.3282 148.425 93.61 148.749C94.9261 150.149 96.2451 151.502 97.4816 152.948C98.2768 153.881 98.8908 154.931 100.131 155.467C100.692 155.727 101.089 156.402 101.498 156.914C102.456 158.127 102.382 158.454 100.858 160.087C99.2572 158.968 97.7315 157.615 95.5483 157.59C94.8827 157.59 94.3589 156.983 94.1842 156.259C93.9868 155.421 93.7894 154.532 93.6124 153.834C92.5358 152.665 91.231 152.783 90.0545 152.434C88.4086 151.967 86.9967 151.221 86.2626 149.657C86.5637 148.934 86.9755 149.121 87.4293 149.121C88.0948 149.121 88.5002 148.375 88.0948 148.001C87.5231 147.487 86.9282 146.951 86.2377 146.602C85.3523 146.228 84.8258 145.573 84.3692 144.759C83.1207 142.496 81.8384 140.301 80.5911 138.156C79.6132 138.041 79.9256 138.998 79.2497 139.369C78.9683 138.739 78.703 138.085 78.3508 137.268C77.6486 137.502 76.9387 137.711 76.2399 137.944C76.0425 137.829 75.8226 137.736 75.7155 137.595C73.8386 134.281 72.064 130.899 70.5352 127.423C69.7686 125.765 69.0528 123.9 69.7436 121.939C69.8561 121.637 69.9688 121.26 69.9125 120.936C69.5042 117.715 70.6254 114.729 71.2398 111.649C71.7419 109.13 72.2686 106.562 71.7186 104.067C70.6703 102.924 69.6896 101.876 68.617 100.685C69.9331 98.7241 70.0063 96.9066 68.3356 94.8523C68.0478 96.1834 67.8336 97.2337 67.5914 98.3998C66.1569 97.0715 65.6779 96.2081 66.3542 94.8771C67.6619 92.193 67.0671 89.347 67.3322 86.5942C67.4447 85.2632 66.7033 84.7738 65.3961 85.0764C62.8878 85.6595 60.848 87.1773 59.5173 89.2288C57.7645 91.9129 55.6677 94.1759 53.4019 96.3457C51.3982 98.2844 49.6019 100.407 47.6635 102.412C47.3026 102.786 46.7053 102.877 46.2037 103.088C46.2578 103.297 46.2578 103.484 46.2578 103.531C46.2578 103.483 46.2037 103.297 46.2037 103.113V103.089V103.113C48.1426 99.9618 50.3915 97.0221 52.9706 94.341C54.1374 93.128 54.9998 91.7725 55.4535 90.0455C56.0029 88.0162 57.0514 86.1736 58.4178 84.4466C62.3386 79.4059 66.3751 74.4616 70.9589 69.9818C72.9428 68.0209 75.2289 66.3409 77.4094 64.614C78.1419 64.0064 78.9368 63.8192 79.9176 64.0777C81.8537 64.57 83.6874 64.1254 85.318 62.9338C88.0122 60.9729 90.9987 59.8538 94.323 59.5734C94.8947 59.5256 95.3967 59.2915 95.4419 58.4075C94.5994 57.6127 93.3649 59.5734 92.478 57.9867C92.5905 57.7529 92.7316 57.2633 93.0024 57.0076C94.6708 55.5611 96.0349 53.694 98.1715 52.7618C98.5431 52.6209 98.904 52.2254 99.0677 51.8762C99.4535 50.944 100.175 50.4516 100.936 49.9624C103.374 48.4691 105.836 46.976 108.297 45.4827V45.4349C108.297 45.4349 108.315 45.4349 108.35 45.4593C108.368 45.4593 108.403 45.4349 108.403 45.4349V45.4827C108.86 45.7646 109.288 45.9035 109.742 45.3672C110.15 44.8777 110.525 44.1762 111.049 43.9922C112.704 43.4779 113.895 42.3589 115.237 41.3549C116.787 40.1891 118.479 39.1853 120.137 38.066V37.9727C119.705 37.8795 119.612 37.6909 120.119 37.4117V37.3184L120.137 37.4117L120.119 37.3184H120.288C120.674 37.0872 121.069 36.8508 121.455 37.3406H121.567L121.514 37.4338C122.622 36.2679 123.696 35.0769 125.551 35.4044L125.498 35.3112H125.639C126.034 34.7033 126.442 34.75 126.851 35.3112H126.963L126.91 35.4044C128.663 34.0515 130.598 33.1164 132.63 32.418C126.726 34.3318 120.941 36.5237 115.351 39.0921C115.463 39.0921 115.632 39.1399 115.737 39.1598C115.737 39.182 115.737 39.2076 115.719 39.2276C115.578 39.1798 115.438 39.1598 115.314 39.0867C115.116 39.2023 114.928 39.2728 114.767 39.3686C114.598 39.6961 114.335 39.8827 113.879 39.8332C113.861 39.8332 113.825 39.8332 113.825 39.881C113.807 39.881 113.772 39.881 113.744 39.9288C113.575 40.4899 113.195 40.6299 112.668 40.5832C112.641 40.5832 112.615 40.631 112.587 40.631C112.534 40.6787 112.446 40.6787 112.389 40.7242C112.335 40.8175 112.248 40.9103 112.192 41.006C112.245 40.9127 112.245 40.82 112.305 40.7721C112.322 40.7721 112.385 40.7243 112.385 40.7243L112.526 40.5835L112.579 40.6313L112.526 40.5835H112.668C113.017 40.3496 113.38 40.1407 113.744 39.9291C113.744 39.8813 113.762 39.8813 113.762 39.8358C61.3148 64.6651 25 118.075 25 179.976C25 265.607 94.407 335.002 180.004 335.002C265.604 335.002 335 265.61 335 179.976C335 94.3893 265.604 25.0026 180.004 25.0026L180.032 25ZM183.54 28.4758C183.54 28.5469 183.342 28.5914 183.252 28.6393C180.696 28.7803 178.141 28.9668 175.611 29.0602C175.225 29.1079 174.842 28.6862 174.444 28.4523C176.775 25.7463 179.693 26.211 182.564 26.5849C182.95 26.6327 183.426 26.9589 183.613 27.3304C183.781 27.5896 183.613 28.0783 183.56 28.4743L183.54 28.4758ZM176.465 61.911C176.212 61.7251 175.987 61.537 175.767 61.3499C175.908 61.1892 176.055 60.8358 176.153 60.8852C176.434 60.933 176.655 61.1163 176.944 61.2591C176.719 61.5381 176.607 61.7239 176.465 61.9109V61.911ZM196.695 122.902C196.892 123.834 196.17 124 195.576 124.046C194.758 124.094 193.953 123.931 193.138 123.885C193.57 121.947 193.907 121.853 196.696 122.904L196.695 122.902ZM191.947 122.856C190.967 123.138 190.29 123.23 189.763 123.51C189.307 123.792 189.031 124.349 188.597 124.676C188.165 125.004 187.757 124.792 187.478 124.394C187.28 124.112 187.137 123.833 186.973 123.555C188.117 121.991 188.117 121.991 191.945 122.854L191.947 122.856ZM179.957 119.187C180.983 119.537 182.034 119.933 183.012 120.425C183.818 120.843 184.469 120.774 184.948 120.098C185.999 120.705 185.173 121.404 185.323 121.965C185.492 122.526 185.709 123.109 185.955 123.832C183.402 124.114 181.173 123.765 179.284 122.152C178.887 121.825 178.91 121.451 179.425 121.264C179.506 120.12 178.174 120.145 177.839 119.397C178.515 118.651 179.248 118.954 179.972 119.188L179.957 119.187ZM176.834 120.566C176.947 120.518 177.384 120.797 177.359 120.845C176.917 122.198 178.128 123.015 178.466 124.112C178.519 124.343 178.269 124.67 178.061 125.16C176.917 124.624 175.832 124.156 174.852 123.735C174.164 122.429 174.421 121.263 174.905 119.907C175.79 119.918 175.99 121.081 176.841 120.567L176.834 120.566ZM172.826 116.599C173.529 116.365 174.354 116.365 175.103 116.458C176.222 116.644 176.408 117.135 176.386 119.142C175.442 118.979 174.531 118.7 173.598 118.7C172.803 118.7 172.094 119.679 171.113 118.863C171.477 117.903 171.871 116.949 172.829 116.597L172.826 116.599ZM182.676 139.089C183.586 137.175 185.209 137.013 186.688 136.71C187.646 136.524 188.719 136.431 189.337 137.783C187.53 139.603 185.616 140.791 182.677 139.089L182.676 139.089ZM189.243 131.881C187.214 133.001 185.044 133.864 182.792 134.89C182.443 134.331 182.172 133.889 181.859 133.399C180.808 133.585 179.76 133.913 178.687 133.935C177.497 133.958 176.632 133.165 175.819 132.326C176.224 132.374 176.614 132.42 176.997 132.467C176.997 132.42 177.014 132.374 177.014 132.326H175.836C174.74 132.513 173.666 132.747 172.897 132.888C171.299 134.147 169.947 135.269 168.509 136.295C168.123 136.574 167.356 136.738 166.984 136.529C165.876 135.968 165.115 136.295 164.253 136.996C163.799 137.368 163.086 137.461 162.224 137.766C162.277 135.805 162.703 134.337 163.974 133.077C166.074 130.976 168.723 129.786 171.393 128.645C171.895 128.411 172.5 128.459 173.05 128.411C173.621 128.363 174.216 128.551 174.741 128.411C177.412 127.665 180.004 127.965 182.605 128.831C183.293 129.04 184.155 128.738 184.927 128.738C186.452 128.738 188.006 128.738 189.533 128.806C190.15 128.854 190.77 129.108 191.376 129.295C191.263 130.83 190.152 131.391 189.242 131.88L189.243 131.881ZM191.204 127.189C191.006 127.048 190.877 126.584 190.978 126.35C191.28 125.696 191.711 125.113 192.123 124.436C193.126 126.023 193.126 126.628 192.123 127.236C191.897 127.329 191.432 127.329 191.209 127.188L191.204 127.189ZM207.716 128.588C204.705 129.005 202.535 130.455 201.348 133.488C200.669 133.302 199.958 133.092 198.98 132.812C198.022 133.348 196.858 133.978 195.678 134.561C195.199 134.795 194.652 135.003 194.128 135.028C192.961 135.096 192.307 134.701 192.285 134.049C192.231 133.164 192.961 132.905 193.556 132.743C194.514 132.461 194.466 131.577 194.968 130.829C194.396 130.598 193.849 130.315 193.125 130.034C193.205 128.797 193.671 127.889 195.035 127.796C195.968 127.748 196.726 127.514 197.544 127.026C200.555 125.277 203.75 125.601 206.959 126.396C207.869 126.582 208.03 127.422 207.717 128.588L207.716 128.588ZM211.113 127.468C210.634 127.328 210.135 126.932 209.923 126.489C209.811 126.256 210.036 125.51 210.329 125.37C211.062 124.905 211.904 124.528 212.733 124.298C214.167 123.948 215.438 123.365 216.349 122.01C217.493 123.176 216.574 123.83 216.095 124.529H216.149L216.069 124.622C216.095 124.574 216.095 124.574 216.123 124.529C214.886 125.417 213.637 126.349 212.378 127.188C212.017 127.422 211.47 127.562 211.132 127.47L211.113 127.468ZM213.953 143.989C215.12 143.15 215.12 143.15 217.055 142.823C215.53 145.017 215.53 145.017 213.953 143.989ZM223.893 124.951C223.696 124.973 223.507 124.929 223.321 124.929C223.304 124.951 223.268 124.977 223.209 124.997C223.209 124.949 223.182 124.949 223.182 124.929C220.894 124.019 220.872 123.997 219.649 121.942C220.151 121.942 220.756 121.802 220.872 121.965C221.56 123.012 223.205 123.318 223.183 124.929H223.236L223.209 124.997C223.209 124.997 223.236 124.929 223.262 124.929H223.316C223.429 124.814 223.57 124.67 223.722 124.627C223.863 124.579 224.049 124.674 224.215 124.674C224.135 124.787 223.99 124.928 223.888 124.953L223.893 124.951ZM232.415 136.151C232.054 135.965 231.727 135.895 231.702 135.777C231.414 133.024 230.724 130.409 229.019 128.171C228.966 128.103 229.019 128.007 229.073 127.889C229.047 127.889 229.019 127.911 229.019 127.911C229.019 127.889 229.019 127.844 229.001 127.818C227.474 127.372 227.404 127.326 225.537 125.599C225.706 124.969 225.875 124.292 226.016 123.641C225.998 123.593 225.998 123.593 225.962 123.593H225.944C225.918 123.593 225.918 123.593 225.89 123.545C225.837 123.593 225.81 123.593 225.721 123.593C224.394 123.872 224.346 123.85 224.414 122.521C224.36 122.473 224.36 122.473 224.333 122.473C224.307 122.425 224.28 122.38 224.252 122.332C224.055 122.332 223.855 122.284 223.655 122.239L223.936 121.865C224.049 122.006 224.134 122.167 224.263 122.332C224.317 122.332 224.376 122.38 224.432 122.38V122.521C224.911 122.87 225.41 123.219 225.914 123.549H226.056C226.056 123.549 226.056 123.597 226.029 123.643C228.01 124.341 228.701 125.953 229.015 127.82C229.068 127.842 229.068 127.842 229.096 127.842V127.89C229.772 127.656 230.46 127.656 230.821 128.308C232.154 130.714 233.109 133.211 232.447 136.151L232.415 136.151ZM113.906 39.8358H113.888H113.906ZM129.981 82.2071C128.335 82.2071 128.29 82.2315 127.309 83.7005C128.617 83.7939 129.096 82.5811 129.981 82.2071ZM147.688 87.7126C148.213 87.1295 148.737 86.5467 149.264 85.9389C147.99 85.9167 147.64 86.6402 147.688 87.7126ZM144.364 81.2254C143.431 80.7114 142.699 80.8514 142.045 81.6463C142.326 83.2796 143.479 83.7472 145.182 84.0495C145.041 82.9522 145.531 81.8799 144.364 81.2254H144.364ZM87.5539 141.845C87.7514 142.497 88.0104 143.083 88.2185 143.688C89.2698 143.99 90.2252 144.271 91.158 144.551C91.0455 143.152 91.0454 143.152 89.2219 140.443C87.4606 140.399 87.1928 140.584 87.5536 141.845L87.5539 141.845ZM121.71 48.8391C121.048 48.0473 120.205 48.7458 119.517 48.5573C118.7 48.2549 117.993 47.7185 117.173 47.4819C116.694 47.3663 116.054 47.6679 116.195 48.4609C118.396 49.4921 119.728 49.5857 121.71 48.8374L121.71 48.8391ZM103.153 52.8522C102.243 52.1539 102.243 52.154 101.321 52.4315C102.032 52.6174 102.581 52.7587 103.153 52.8522ZM164.93 61.6247C166.725 61.2971 166.725 61.2971 168.114 60.0848C166.589 59.664 165.887 60.5991 164.93 61.6247ZM103.634 52.1043C103.687 52.0565 103.803 52.011 103.916 52.011C103.898 51.9177 103.863 51.825 103.803 51.7292C103.75 51.8224 103.606 51.87 103.606 51.963C103.606 52.0108 103.632 52.0585 103.632 52.1039L103.634 52.1043ZM108.846 49.4915C108.864 49.4671 108.765 49.2322 108.765 49.2322C108.416 49.3032 108.03 49.3731 107.689 49.4915C107.608 49.5393 107.548 49.6323 107.362 49.8629C107.643 49.9562 107.779 50.0489 107.867 50.0038C108.191 49.8657 108.506 49.6794 108.845 49.4923L108.846 49.4915ZM111.201 52.2451C110.8 51.7307 110.651 51.3351 110.42 51.288C109.797 51.1245 109.123 51.0315 108.481 50.9856C107.663 50.9378 107.523 51.3131 107.815 52.619C108.762 52.5257 109.695 52.4105 111.2 52.2451" fill="white"/>
</svg>
