<svg width="360" height="360" viewBox="0 0 360 360" fill="none" xmlns="http://www.w3.org/2000/svg">
<rect width="360" height="360" rx="82" fill="#E41932"/>
<path d="M180.335 25C159.051 25 141.791 42.2648 141.791 63.5585C141.791 84.8522 159.051 102.103 180.335 102.103C201.629 102.103 218.88 84.8522 218.88 63.5585C218.88 42.2648 201.629 25 180.335 25ZM155.772 135.356C154.878 135.024 154.559 135.667 154.91 136.352C159.426 145.373 166.261 154.413 180.339 154.413C194.408 154.413 201.268 145.373 205.783 136.352C206.116 135.667 205.793 135.024 204.893 135.356C204.284 135.584 194.485 139.203 180.34 139.203C166.195 139.203 156.38 135.584 155.772 135.356ZM143.594 183.288C143.044 183.364 142.903 183.978 143.253 184.67C150.116 198.102 160.142 210.395 180.342 210.395C200.552 210.395 210.572 198.102 217.416 184.67C217.901 183.747 217.482 182.965 216.391 183.422C213.178 184.857 199.126 190.729 180.342 190.729C161.558 190.729 147.491 184.857 144.278 183.422C144.007 183.308 143.778 183.264 143.594 183.288ZM131.236 234.399C130.572 234.475 130.403 235.224 130.88 236.136C140.205 254.217 153.61 270.002 180.341 270.002C207.082 270.002 220.477 254.217 229.802 236.136C230.43 234.92 229.932 234.007 228.629 234.577C222.659 237.315 204.068 245.598 180.341 245.598C156.623 245.598 138.022 237.315 132.053 234.577C131.727 234.434 131.458 234.374 131.236 234.399ZM117.735 290.158C116.951 290.224 116.75 291.111 117.349 292.252C129.384 315.447 146.491 335 180.342 335C214.193 335 231.301 315.447 243.335 292.252C244.134 290.731 243.509 289.668 241.969 290.381C232.995 294.525 209.431 305.456 180.343 305.456C151.244 305.456 127.7 294.525 118.716 290.381C118.334 290.202 117.996 290.134 117.735 290.158Z" fill="white"/>
</svg>
