<svg width="360" height="360" viewBox="0 0 360 360" fill="none" xmlns="http://www.w3.org/2000/svg">
<rect width="360" height="360" rx="82" fill="#378ACA"/>
<path d="M268.143 82.5192V105.062L284.52 109.865V132.535L268.109 129.376V109.805L251.698 105.913V76.0979L202.406 56.8426V102.217L185.995 98.2318V50.3276L169.652 44V316.521L186.063 309.853V275.073L202.474 270.074V303.27L300.999 263.175V95.3788L268.143 82.5107V82.5192ZM218.817 90.6182L235.262 95.4214V122.648L218.817 119.488V90.6523V90.6182ZM185.961 128.558L202.372 130.994V158.314L185.961 157.301V128.652V128.558ZM202.406 240.045L185.961 243.205V213.449L202.406 211.584V240.037V240.045ZM235.253 244.474L218.808 248.425V196.348L202.398 197.455V172.162L218.808 172.443V196.348L235.253 195.275V244.474ZM235.253 147.09L251.698 148.861V173.116L235.253 172.835V147.098V147.09ZM268.143 250.128L251.698 255.127V229.834L268.143 226.513V250.009V250.128ZM284.58 223.285L268.135 226.64V160.46L284.58 161.567V223.26V223.285Z" fill="white"/>
<path opacity="0.5" d="M59 96.2391V261.481L154.808 311.94V46.6573L59 96.2391Z" fill="white"/>
</svg>
