<svg width="360" height="360" viewBox="0 0 360 360" fill="none" xmlns="http://www.w3.org/2000/svg">
<rect width="360" height="360" rx="82" fill="black"/>
<path d="M163.985 222.033V304.879C163.431 325.393 162.996 325.841 162.667 326.5C161.89 327.265 161.561 328.162 160.454 329.267C159.571 330.033 158.24 331.68 156.817 332.02C155.71 332.77 154.722 333.562 154.05 333.562C154.05 333.898 153.616 333.898 152.957 333.898C152.957 333.898 152.509 334.234 152.18 334.234C151.851 334.667 151.851 334.668 152.18 335H215.171V334.234C214.736 333.898 214.736 333.898 214.064 333.898C213.3 333.562 212.971 333.121 211.64 332.46C210.533 331.683 209.097 330.037 208.109 329.271C206.673 327.822 206.344 326.503 205.909 325.846C205.565 325.069 205.25 324.741 205.25 292.96V133.566L150.533 187.848C154.051 186.295 159.137 187.176 161.561 190.152C163.985 192.815 163.985 198.65 163.985 222.036" fill="white"/>
<path fill-rule="evenodd" clip-rule="evenodd" d="M23 181.785C23 176.33 23.2764 170.941 23.8303 165.632L163.633 25.8292C168.956 25.2876 174.344 25 179.812 25C187.375 25 194.806 25.5414 202.078 26.5797L24.5811 204.09C23.5402 196.804 23.0003 189.361 23.0003 181.785" fill="#6FBE4A"/>
<path fill-rule="evenodd" clip-rule="evenodd" d="M77.2857 300.429C70.2765 294.368 63.8205 287.688 57.9707 280.508L143.557 194.921C147.075 193.405 153.531 194.212 155.942 197.188C157.681 199.575 157.668 201.563 157.905 219.81L77.2857 300.429Z" fill="#6FBE4A"/>
<path fill-rule="evenodd" clip-rule="evenodd" d="M278.514 59.9602C285.708 65.7968 292.388 72.2525 298.448 79.2618L212.098 165.639V126.39L278.514 59.9602Z" fill="#6FBE4A"/>
<path fill-rule="evenodd" clip-rule="evenodd" d="M248.152 40.6515C256.782 44.8411 264.977 49.7818 272.632 55.4209L53.4218 274.618C47.7959 266.963 42.8421 258.769 38.6523 250.152L248.152 40.6515Z" fill="#6FBE4A"/>
<path fill-rule="evenodd" clip-rule="evenodd" d="M210.963 28.1091C221.372 30.2042 231.425 33.3393 240.977 37.3974L35.3896 242.984C31.3317 233.432 28.196 223.393 26.0879 212.985L210.963 28.1091Z" fill="#6FBE4A"/>
<path fill-rule="evenodd" clip-rule="evenodd" d="M25.5469 153.496C37.1806 89.5832 87.5759 39.2009 151.489 27.5542L25.5469 153.496Z" fill="#6FBE4A"/>
<path fill-rule="evenodd" clip-rule="evenodd" d="M302.302 278.081C296.505 285.34 290.076 292.086 283.106 298.226L211.867 226.987V187.645L302.302 278.081Z" fill="#00954C"/>
<path fill-rule="evenodd" clip-rule="evenodd" d="M321.942 248.767C317.845 257.344 313.879 264.775 308.359 272.417L212.061 176.118L230.651 157.515L321.942 248.767Z" fill="#00954C"/>
<path fill-rule="evenodd" clip-rule="evenodd" d="M334.255 211.469C332.226 221.904 329.156 231.982 325.177 241.561L235.875 152.312L255.493 132.681L334.255 211.469Z" fill="#00954C"/>
<path fill-rule="evenodd" clip-rule="evenodd" d="M285.533 102.643L303.228 84.9612C318.326 104.171 329.473 126.529 334.295 151.457L285.533 102.643Z" fill="#00954C"/>
<path fill-rule="evenodd" clip-rule="evenodd" d="M280.313 107.856L336.15 163.745C336.796 169.529 337.125 175.406 337.125 181.374C337.125 188.542 336.638 195.604 335.702 202.521L260.695 127.474L280.313 107.856Z" fill="#00954C"/>
</svg>
