<svg width="360" height="360" viewBox="0 0 360 360" fill="none" xmlns="http://www.w3.org/2000/svg">
<rect width="360" height="360" rx="82" fill="#2C569D"/>
<path fill-rule="evenodd" clip-rule="evenodd" d="M47 112H263.025C297.11 112 325 139.892 325 173.975V185.295C325 219.381 297.106 247.27 263.025 247.27H47V200.791H89.7996V158.481H47V112Z" fill="white"/>
<path fill-rule="evenodd" clip-rule="evenodd" d="M244.831 211.226H270.996L285.737 146.551H263.421L257.913 189.571L252.543 146.551H230.229L244.831 211.226ZM199.678 164.363V161.936C199.678 159.349 200.781 157.895 202.707 157.895C205.874 157.895 206.564 159.678 206.564 164.36V196.543C206.564 199.124 205.324 200.59 203.122 200.59C200.366 200.59 199.678 198.482 199.678 193.958V164.363ZM175.989 167.27V191.087C175.989 209.952 179.846 212.073 203.122 212.073C226.947 212.073 230.253 209.589 230.253 191.087V167.27C230.253 148.649 226.396 146.551 202.983 146.551C178.606 146.551 175.989 149.14 175.989 167.27ZM141.643 158.216H143.668C148.256 158.216 148.393 159.999 148.393 165.812V195.579C148.393 199.124 147.311 200.263 143.939 200.263C143.264 200.263 142.456 200.096 141.645 200.096V158.216H141.643ZM144.884 147.169H118.432V211.314H145.019C168.233 211.314 171.607 208.971 171.607 190.6V167.764C171.607 149.14 167.692 147.169 144.884 147.169Z" fill="#2C569D"/>
</svg>
