<svg width="360" height="360" viewBox="0 0 360 360" fill="none" xmlns="http://www.w3.org/2000/svg">
<rect width="360" height="360" rx="82" fill="#13A3D7"/>
<path d="M84 180.602V56L152.579 56.1717L221.157 56.3433L227.024 57.8126C255.467 64.9364 276.328 83.1034 286.537 109.639C288.994 116.026 291.248 126.375 291.662 133.172L292 138.715H271.278H250.557L250.235 136.061C249.163 127.243 246.382 120.218 241.397 113.74C236.412 107.261 228.91 102.007 220.599 99.175L216.129 97.6518L171.015 97.4933L125.901 97.3348V180.598V263.861H146.573H167.244V284.532V305.204H125.622H84V180.602Z" fill="white"/>
<path d="M198.535 284.697V264.031L205.938 263.655C210.009 263.448 214.932 262.905 216.878 262.448C228.821 259.645 240.386 250.513 245.772 239.633C250.277 230.532 250.115 231.966 250.348 199.193L250.557 170.002H271.23H291.903L291.692 201.707L291.481 233.413L290.035 239.279C285.974 255.765 278.924 268.379 267.247 280.056C257.769 289.534 247.297 296.131 234.938 300.409C225.709 303.603 219.634 304.664 208.452 305.035L198.535 305.364V284.697Z" fill="white"/>
</svg>
