<svg width="360" height="360" viewBox="0 0 360 360" fill="none" xmlns="http://www.w3.org/2000/svg">
<rect width="360" height="360" rx="82" fill="black"/>
<path d="M179.999 62C179.999 62 217.739 130.341 219.779 146.662C223.86 175.562 208.559 199.703 179.999 199.703C151.438 199.363 136.138 175.562 140.218 146.662C142.258 130.681 179.999 62 179.999 62Z" fill="#49CA27"/>
<path d="M44 195.622C44 195.622 121.861 191.882 137.502 196.642C165.382 205.482 180.343 229.962 167.762 255.803C154.842 281.643 126.962 284.704 102.481 268.383C89.2209 259.543 44 195.622 44 195.622Z" fill="#49CA27"/>
<path d="M316.001 195.62C316.001 195.62 238.139 191.88 222.499 196.64C194.619 205.481 179.658 229.961 192.238 255.801C205.159 281.642 233.039 284.702 257.52 268.382C271.12 259.542 316.001 195.62 316.001 195.62Z" fill="#49CA27"/>
</svg>
