<svg width="360" height="360" viewBox="0 0 360 360" fill="none" xmlns="http://www.w3.org/2000/svg">
<rect width="360" height="360" rx="82" fill="#C41230"/>
<path d="M88.2589 151.875C88.2589 106.344 88.2589 97.952 87.6445 88.3726C87.0557 78.1941 84.6545 73.4018 74.7832 71.2975C72.3819 70.6985 67.2825 70.3862 63.1097 70.3862C59.8125 70.3862 58 69.8025 58 67.7085C58 65.6042 60.0941 65 64.6047 65C80.492 65 99.3436 65.896 107.735 65.896C117.013 65.896 135.874 65 153.846 65C191.303 65 241.31 65 273.955 99.1501C288.925 114.72 303 139.587 303 175.212C303 212.962 287.133 241.72 270.376 258.775C256.583 272.86 225.443 294.128 170.025 294.128C159.247 294.128 146.969 293.217 135.578 292.316C124.196 291.435 113.7 290.524 106.23 290.524C102.933 290.524 96.3433 290.524 89.1549 290.821C82.2686 290.821 74.476 291.435 68.501 291.435C64.6047 291.435 62.5107 290.524 62.5107 288.445C62.5107 286.924 63.7087 286.039 67.2876 286.039C71.7727 286.039 75.3874 285.429 78.0907 284.841C84.0708 283.643 85.5658 277.053 86.7537 268.38C88.2589 255.79 88.2589 232.136 88.2589 204.575V151.875ZM125.691 184.802C125.691 216.556 125.998 239.631 126.28 245.315C126.597 252.795 127.186 264.75 129.577 268.057C133.483 273.766 145.157 280.064 168.827 280.064C199.388 280.064 219.76 274.058 237.721 258.478C256.895 242.022 262.885 214.759 262.885 183.896C262.885 145.88 246.998 121.319 234.132 109.021C206.571 82.6741 172.431 79.0799 149.048 79.0799C143.068 79.0799 131.994 79.9605 129.582 81.1739C126.909 82.3618 126.003 83.867 126.003 87.154C125.696 97.3428 125.696 123.398 125.696 147.068V184.802H125.691Z" fill="white"/>
</svg>
