<svg width="360" height="360" viewBox="0 0 360 360" fill="none" xmlns="http://www.w3.org/2000/svg">
<rect width="360" height="360" rx="82" fill="#15548B"/>
<path fill-rule="evenodd" clip-rule="evenodd" d="M144.728 140.895L143.542 142.872C143.542 142.872 151.838 142.081 151.838 142.872C151.838 143.662 149.469 144.453 148.678 144.849C147.492 145.244 139.986 148.005 139.986 148.005C139.986 148.005 140.777 149.982 142.355 149.982C143.146 149.982 145.911 149.587 146.306 149.191L150.652 150.773L150.257 153.139L154.998 152.348L154.603 147.607L160.527 144.845C160.527 144.845 160.923 141.287 160.527 140.892C159.736 140.107 157.763 139.712 156.577 139.712L144.728 140.895Z" fill="white"/>
<path fill-rule="evenodd" clip-rule="evenodd" d="M193.316 77.6889L182.255 106.922C183.441 100.602 181.464 92.3054 173.17 87.1686C164.083 81.6396 151.048 82.4271 139.196 89.9331C143.147 88.3547 147.489 88.3548 151.443 88.3548C154.999 88.7501 158.554 89.5409 161.714 91.1192C165.664 93.093 168.034 95.4653 169.22 98.6252C170.011 100.994 170.406 103.367 170.011 105.736C169.615 108.105 168.824 110.082 167.641 111.268C166.455 112.451 165.272 112.846 165.272 112.846C166.063 109.686 165.668 108.105 164.877 106.527C163.295 99.8114 156.58 96.6515 150.656 96.6515C142.754 97.0468 137.621 100.204 133.275 106.527C140.781 100.602 151.842 103.367 151.842 109.686C151.842 114.032 143.15 116.797 135.249 113.637C126.164 109.686 118.655 107.317 111.152 107.709C109.571 107.709 107.597 108.105 105.62 108.5C96.1372 110.869 88.6312 115.611 86.2621 123.908C86.6575 122.721 89.422 117.585 100.882 116.402H109.574C119.449 117.192 126.167 123.117 133.673 124.303C140.784 125.489 144.735 124.695 148.685 120.349C155.4 131.806 166.857 126.669 166.857 126.669C167.648 131.41 168.435 135.358 168.435 137.335C168.435 140.887 165.276 141.681 165.276 145.239C165.671 149.19 173.572 168.94 173.572 168.94C174.758 170.522 174.758 172.891 171.994 174.868C171.203 175.658 168.834 175.658 168.439 175.658C168.439 175.263 168.439 174.472 168.043 174.077C166.066 172.891 161.328 172.891 159.351 174.868L160.142 176.443C161.723 175.263 164.488 175.263 166.066 176.054C165.671 176.443 164.88 177.234 164.488 178.024C163.302 180.792 165.279 184.347 165.279 184.347L163.697 186.324C163.697 185.929 163.302 185.929 162.906 185.533C162.116 184.743 160.929 185.138 160.929 185.138L150.659 186.324L149.473 188.295C149.473 188.295 156.979 189.086 158.56 189.481C161.325 190.272 162.511 194.222 160.534 196.588C158.56 196.984 157.374 198.565 156.979 200.941C157.374 202.12 160.139 205.287 159.743 208.443C158.953 213.58 153.424 215.557 149.868 215.557C149.473 215.557 148.287 215.557 147.496 215.162L119.054 209.63L43.9941 265.727L119.054 220.296L57.0323 282.715L128.537 224.246L77.9718 292.198L139.993 224.642L102.463 294.564L151.45 223.06L130.115 291.803L163.299 219.113L157.766 284.689L174.755 214.371L186.607 272.84L185.816 208.048L215.445 257.433L196.878 200.545L243.492 237.677L206.753 192.641L269.568 212.79L215.84 183.557L290.508 185.929L223.346 173.678L307.098 158.271L229.666 162.617L314.999 130.616L233.62 151.951L314.597 106.134L234.401 141.292L303.931 85.9856L230.849 132.998L286.55 73.7414L224.134 127.071L263.64 69L214.255 124.309L238.355 69L202.008 124.309L213.86 73.346L188.182 127.861L193.316 77.6889Z" fill="white"/>
<path fill-rule="evenodd" clip-rule="evenodd" d="M73.2379 174.874C87.4591 180.011 98.1281 174.874 99.7065 164.999C99.7065 164.999 108.794 166.969 117.087 160.646C123.41 155.516 123.41 149.591 121.038 142.478C126.567 140.501 133.286 135.759 135.655 130.622C130.122 134.975 121.434 135.759 111.163 134.975C104.053 134.184 96.5466 131.021 88.2498 128.652C85.8807 127.861 83.9038 127.07 81.5347 126.675C65.732 122.329 52.6938 123.914 44.0049 128.257C36.1035 132.603 33.339 138.922 34.1298 144.85C38.8713 132.204 58.226 131.809 76.7932 138.132C77.584 138.132 78.3748 138.527 79.5577 138.922C92.2005 142.873 104.448 146.425 113.532 144.059C113.137 149.987 108 153.934 100.494 153.143C95.3572 152.353 91.0111 150.382 84.6913 149.987C74.8163 149.196 67.3103 151.957 64.5426 159.862C70.0748 153.539 89.0342 154.33 87.4559 163.414C86.2697 167.76 80.7407 167.365 76.3946 166.571C69.284 164.6 65.3334 164.6 60.9873 164.995C52.2984 166.175 49.5339 171.312 49.1353 174.475C52.3016 170.926 56.2491 168.551 73.2379 174.874ZM125.384 98.2327C127.358 96.259 130.126 93.8867 132.099 92.7005C124.198 89.5406 111.555 85.9853 98.9157 86.3807C80.7439 87.1715 66.1241 95.4682 59.8044 108.503C64.9412 102.971 74.4209 98.6281 82.7176 96.6512C94.965 93.8867 108.395 94.2788 122.221 100.203C122.617 100.203 123.012 100.203 123.407 100.599C123.803 99.8143 124.593 99.0235 125.384 98.2327Z" fill="white"/>
</svg>
