<svg width="360" height="360" viewBox="0 0 360 360" fill="none" xmlns="http://www.w3.org/2000/svg">
<rect width="360" height="360" rx="82" fill="#005984"/>
<path d="M223.921 302.577C216.872 310.071 207.501 314.954 197.327 316.45C181.912 317.377 166.886 307.897 162.335 273.444L100.057 255.1C127.268 351.988 202.569 348.592 228.472 306.433C230.238 303.659 229.702 302.274 228.472 301.58C227.231 300.888 225.698 300.888 223.921 302.577ZM223.921 48.2291C198.87 -1.86824 110.082 47.613 94.6672 176.944C93.389 182.881 96.1868 188.941 101.521 191.823C109.404 196.116 117.997 198.958 126.885 200.22C133.693 201.818 140.704 202.41 147.692 201.997C153.954 201.724 159.143 197.028 160.022 190.818C173.281 52.0839 204.96 20.6379 219.683 50.4647C221.374 53.9305 225.698 52.0839 223.843 48.2291H223.921Z" fill="white"/>
<path d="M208.583 92.0069C202.352 91.0178 196.112 93.7597 192.63 99.0243C188.953 105.639 186.554 112.874 185.533 120.376C183.89 127.964 183.391 135.761 184.069 143.496C185.268 147.624 189.023 150.476 193.324 150.508C221.685 152.282 304.925 164.154 316.641 188.357C324.355 205.004 301.226 209.242 284.12 213.635C278.425 214.662 273.97 219.119 272.941 224.812C270.995 233.421 272.67 242.441 277.57 249.787C279.735 253.44 284.463 254.647 288.125 252.481L289.13 251.789C297.946 245.978 305.759 238.771 312.248 230.438C367.899 152.821 251.209 92.8544 208.583 92.0069Z" fill="#54B948"/>
<path d="M237.18 219.103C97.5962 234.518 -12.5514 170.705 70.8465 155.212C70.8465 155.212 81.4854 152.743 83.4875 146.729C85.4896 140.723 86.1058 139.026 88.4191 130.16C89.8828 124.692 91.1929 121.607 92.5869 117.369C94.8143 110.818 90.6545 106.886 81.4076 111.434C5.1787 148.661 27.4575 218.184 89.6574 253.02C130.382 276.824 178.43 284.865 224.692 275.602C232.374 274.146 239.064 269.496 243.114 262.811C249.386 253.393 252.12 242.06 250.82 230.819C250.935 227.337 249.456 223.995 246.791 221.743C244.135 219.492 240.592 218.573 237.18 219.259V219.103Z" fill="#26BCD7"/>
</svg>
