<svg width="360" height="360" viewBox="0 0 360 360" fill="none" xmlns="http://www.w3.org/2000/svg">
<rect width="360" height="360" rx="82" fill="#00467F"/>
<path d="M185.359 213.974C185.359 213.974 150.514 262.497 87.1968 311C87.1968 311 140.976 235.12 149.134 186.577C149.134 186.577 98.0135 165.552 75 141.869C75 141.869 117.638 165.674 160.783 136.836C160.783 136.836 171.681 106.659 168.475 63.0465C168.475 63.0465 193.315 96.3491 194.471 132.046C194.471 132.046 244.436 113.863 258.946 50.4032C258.946 50.4032 276.825 115.426 216.511 170.017C216.511 170.017 266.191 187.49 282 256.713C282 256.713 261.584 207.338 185.359 213.974Z" fill="#FCAF17"/>
</svg>
