<svg width="360" height="360" viewBox="0 0 360 360" fill="none" xmlns="http://www.w3.org/2000/svg">
<rect width="360" height="360" rx="82" fill="url(#paint0_linear)"/>
<path d="M65.4389 145.663C43.9264 145.663 26 154.79 26 182.324C26 204.138 38.0542 217.875 65.9943 217.875C98.8812 217.875 100.989 196.211 100.989 196.211H85.0541C85.0541 196.211 81.6375 207.876 65.0223 207.876C51.4896 207.876 41.7564 198.735 41.7564 185.921H102.656V177.881C102.656 165.204 94.6086 145.663 65.4389 145.663ZM64.8834 155.939C77.7651 155.939 86.547 163.831 86.547 175.659H42.1088C42.1088 163.102 53.5715 155.939 64.8834 155.939Z" fill="#E53238"/>
<path d="M102.643 119V204.047C102.643 208.875 102.299 215.653 102.299 215.653H117.498C117.498 215.653 118.043 210.785 118.043 206.335C118.043 206.335 125.552 218.083 145.971 218.083C167.472 218.083 182.077 203.156 182.077 181.769C182.077 161.873 168.662 145.871 146.005 145.871C124.789 145.871 118.197 157.328 118.197 157.328V119H102.643ZM142.082 156.391C156.683 156.391 165.968 167.227 165.968 181.769C165.968 197.362 155.244 207.564 142.186 207.564C126.603 207.564 118.197 195.396 118.197 181.908C118.197 169.339 125.74 156.391 142.082 156.391Z" fill="#0064D2"/>
<path d="M219.851 145.663C187.487 145.663 185.411 163.384 185.411 166.215H201.52C201.52 166.215 202.365 155.87 218.74 155.87C229.381 155.87 237.626 160.74 237.626 170.104V173.437H218.74C193.667 173.437 180.412 180.771 180.412 195.656C180.412 210.304 192.659 218.274 209.21 218.274C231.766 218.274 239.032 205.811 239.032 205.811C239.032 210.768 239.414 215.653 239.414 215.653H253.735C253.735 215.653 253.18 209.598 253.18 205.724V172.239C253.18 150.283 235.47 145.663 219.851 145.663ZM237.626 183.435V187.879C237.626 193.675 234.05 208.085 212.994 208.085C201.464 208.085 196.521 202.33 196.521 195.656C196.521 183.513 213.169 183.435 237.626 183.435Z" fill="#F5AF02"/>
<path d="M244.505 148.443H262.627L288.636 200.549L314.584 148.443H331.001L283.735 241.208H266.516L280.155 215.348L244.505 148.443Z" fill="#86B817"/>
<defs>
<linearGradient id="paint0_linear" x1="0" y1="180" x2="360" y2="180" gradientUnits="userSpaceOnUse">
<stop stop-color="#F3262D" stop-opacity="0.15"/>
<stop offset="0.373849" stop-color="#3895FC" stop-opacity="0.15"/>
<stop offset="0.640017" stop-color="#FFC73C" stop-opacity="0.15"/>
<stop offset="1" stop-color="#AEEE20" stop-opacity="0.15"/>
</linearGradient>
</defs>
</svg>
