<svg width="360" height="360" viewBox="0 0 360 360" fill="none" xmlns="http://www.w3.org/2000/svg">
<rect width="360" height="360" rx="82" fill="#0098CC"/>
<circle cx="180" cy="180" r="155.455" fill="#4681C7" fill-opacity="0.06"/>
<circle cx="180" cy="180" r="155.205" stroke="#2869BF" stroke-opacity="0.04" stroke-width="0.5"/>
<path fill-rule="evenodd" clip-rule="evenodd" d="M181.522 143.197C175.383 142.595 171.48 144.215 167.007 145.264C135.971 126.908 101.665 106.269 70.6132 91.3676C97.9934 113.056 127.379 132.723 152.491 156.679C149.499 157.142 150.054 161.137 147.309 161.862C116.89 145.974 85.36 125.674 56.0979 112.099C85.252 134.435 114.946 156.216 143.174 179.478C142.48 185.355 144.116 188.903 145.242 192.96C128.181 225.307 106.616 258.688 92.3785 290.402C113.511 262.806 132.994 233.575 156.641 208.509C157.104 211.501 161.099 210.946 161.824 213.692C147.139 244.959 125.62 274.931 113.11 304.902C134.413 275.069 157.212 246.733 179.455 217.826C185.61 218.458 189.79 217.116 193.955 215.759C224.991 233.791 259.205 254.168 290.364 268.622C262.506 248.106 234.91 227.343 208.471 205.393C211.216 204.344 211.278 200.595 213.653 199.176C244.381 214.417 275.386 234.886 304.88 247.89C275.71 226.263 247.003 204.174 218.836 181.545C218.389 176.485 216.708 172.629 216.769 167.045C234.123 135.33 254.978 101.595 269.633 70.6358C248.376 98.0932 228.076 126.522 205.37 152.53C203.534 150.555 200.974 149.306 199.138 147.347C215.35 117.252 235.033 85.105 248.901 56.1205C226.503 85.2129 204.784 114.969 181.522 143.197ZM171.156 25.0228H189.821C245.8 30.3755 284.919 56.4291 310.063 95.5172C335.669 135.361 345.017 195.274 321.462 245.823C298.17 295.817 256.799 328.21 189.821 336H171.156C126.546 332.884 93.304 312.553 68.5307 287.286C43.6031 261.85 25 225.106 25 180.511C25 90.6428 89.7254 34.8488 171.156 25.0228Z" fill="white"/>
</svg>
