<svg width="360" height="360" viewBox="0 0 360 360" fill="none" xmlns="http://www.w3.org/2000/svg">
<rect width="360" height="360" rx="82" fill="#0099D8"/>
<path d="M290.992 258.306H145.252C102.194 258.306 67.1759 223.279 67.1759 180.232C67.1759 137.175 102.194 102.157 145.252 102.157H290.992V75H145.252C87.2096 75 40 122.2 40 180.232C40 238.264 87.2096 285.482 145.252 285.482H290.992V258.306Z" fill="white"/>
<path d="M87.0088 180.445C87.0088 213.802 114.147 240.95 147.504 240.95H290.782V213.783H147.504C129.132 213.783 114.176 198.836 114.176 180.445C114.176 162.063 129.132 147.107 147.504 147.107H290.782V119.94H147.504C114.147 119.94 87.0088 147.088 87.0088 180.445Z" fill="white"/>
<path d="M291 166.77H146.617C139.126 166.77 133.039 172.847 133.039 180.339C133.039 187.85 139.126 193.937 146.617 193.937H291V166.77Z" fill="white"/>
</svg>
