<svg width="360" height="360" viewBox="0 0 360 360" fill="none" xmlns="http://www.w3.org/2000/svg">
<rect width="360" height="360" rx="82" fill="#006A53"/>
<path d="M280.416 72H80.5823C76.3947 72 73 75.3946 73 79.5821V279.752C73 283.939 76.3947 287.334 80.5823 287.334H280.416C284.604 287.334 287.999 283.939 287.999 279.752V79.5821C287.999 75.3946 284.604 72 280.416 72Z" fill="white"/>
<path d="M73 287.225H288V72.0086H73V287.225Z" fill="white"/>
<path d="M73.1325 203.873L162.939 211.493L97.095 163.295L172.597 190.835L99.9882 98.886L191.914 170.988L164.286 96.0958L210.142 159.724L206.064 72.1036L234.819 159.989L256.241 72.0005H73V255.244H73.0813L161.871 235.353L73.1328 203.873" fill="#FFD046"/>
<path d="M73 255.355H256.234V72.0005H288V287.335H73V255.355Z" fill="#FFD046"/>
</svg>
