<svg width="360" height="360" viewBox="0 0 360 360" fill="none" xmlns="http://www.w3.org/2000/svg">
<rect width="360" height="360" rx="82" fill="black"/>
<circle cx="180" cy="180" r="155.455" fill="#4681C7" fill-opacity="0.06"/>
<circle cx="180" cy="180" r="155.205" stroke="#2869BF" stroke-opacity="0.04" stroke-width="0.5"/>
<path d="M69 69H291V291.235H69V69Z" fill="black"/>
<path d="M70.6357 70.6416H289.349V289.512H70.6357V70.6416Z" fill="white"/>
<path d="M129.695 82.2991C112.017 89.1038 95.1191 100.053 82.2136 116.48L82.1348 82.2991H129.695Z" fill="black"/>
<path d="M277.851 94.8142C265.805 91.9984 255.244 97.2395 245.7 102.713C225.363 85.4264 192.978 93.1697 170.917 101.228C158.637 106.235 141.271 115.778 141.662 131.736C141.662 137.133 145.416 141.905 150.034 144.486C153.475 146.6 157.464 147.459 160.905 149.571C161.297 149.885 161.453 150.431 161.139 150.9C158.949 152.935 155.977 153.326 153.163 153.951C140.567 156.22 128.758 160.288 117.491 165.45C112.171 167.954 107.011 170.772 102.082 174.134C95.0422 169.833 88.2356 164.669 82.1348 158.176V123.914C93.242 107.173 110.296 94.6584 127.583 87.6171L140.49 82.2991H277.851V94.8142Z" fill="black"/>
<path d="M241.792 104.671C211.284 122.897 193.37 154.576 179.447 183.755C157.544 186.336 133.53 185.711 113.583 179.375C126.49 164.748 143.856 159.975 160.83 154.812C162.63 154.03 165.444 152.854 165.444 150.354C165.288 147.615 162.08 146.365 160.437 144.251C156.214 139.949 155.51 132.91 157.308 127.199C162.862 110.303 181.009 102.636 196.342 98.6474C211.049 94.8931 229.744 95.0489 241.792 104.671ZM277.852 98.8821V131.813C254.855 157.863 226.538 172.882 195.719 181.095C208.938 156.063 223.566 131.423 246.25 110.38C249.926 114.915 251.099 121.722 249.145 127.511C247.658 132.673 243.981 138.539 238.428 140.184C236.393 140.651 233.814 140.105 232.718 142.374C232.562 142.746 232.482 143.145 232.482 143.547C232.482 143.95 232.562 144.349 232.718 144.721C233.422 146.05 234.753 146.363 236.159 146.363C245.077 145.503 250.707 135.881 253.055 128.449C255.48 121.02 253.134 113.119 249.691 106.937C257.75 101.152 267.059 96.3779 277.852 98.8821Z" fill="black"/>
<path d="M277.774 236.322C259.702 248.837 238.347 256.269 214.725 252.201C207.636 250.951 200.634 249.252 193.761 247.116C206.122 236.087 217.697 223.805 217.775 207.222C217.15 202.058 216.525 196.349 211.83 193.299C210.892 193.064 209.796 192.986 209.015 193.376C208.569 193.634 208.194 193.997 207.921 194.433C207.649 194.87 207.487 195.367 207.451 195.88C207.686 198.229 210.346 199.634 211.438 201.669C214.569 206.989 212.846 214.498 210.736 219.741C206.589 229.596 197.829 238.124 189.301 245.712C178.677 241.155 168.536 235.547 159.029 228.971C173.814 216.767 184.14 201.515 192.743 186.183C224.503 179.613 253.288 165.688 277.774 141.438V236.322ZM98.483 176.716C92.4592 181.723 86.593 187.823 82.2136 194.003L82.1348 164.043C87.3758 168.736 92.6958 173.195 98.483 176.716Z" fill="black"/>
<path d="M177.496 188.059C171.472 201.433 165.137 214.654 154.497 226.154C144.721 220.051 134.629 212.621 121.956 215.281C118.358 216.22 114.448 218.801 112.961 222.555C111.553 225.764 112.022 230.22 114.29 232.88C119.06 238.044 125.632 239.294 132.517 239.452C141.199 239.452 148.552 236.323 155.359 231.785C164.51 238.044 173.819 244.224 183.441 249.542C167.404 257.991 148.865 263.388 129.153 260.337C114.526 258.145 98.255 246.882 95.1258 231.549C91.2157 212.775 99.5052 196.427 110.693 182.581C130.796 189.701 155.047 190.561 177.496 188.059Z" fill="black"/>
<path d="M151.284 228.735C142.914 235.149 129.224 237.809 119.603 232.099C117.099 230.299 115.926 227.406 116.708 224.356C117.882 220.601 121.871 219.114 125.313 218.722C135.563 218.332 143.227 223.963 151.284 228.735ZM146.122 265.813C161.141 264.328 174.597 259.008 187.27 251.89C205.182 261.355 227.709 268.473 248.831 261.276C259.469 257.835 269.013 251.89 277.853 243.989V277.782H82.1348V241.25C99.3447 259.399 120.776 268.238 146.122 265.813Z" fill="black"/>
</svg>
