<svg width="360" height="360" viewBox="0 0 360 360" fill="none" xmlns="http://www.w3.org/2000/svg">
<rect width="360" height="360" rx="82" fill="#004685"/>
<path fill-rule="evenodd" clip-rule="evenodd" d="M257.28 186.681L256.416 185.604L211.144 130.157L210.881 129.82L167.022 76.1232C158.597 66.0434 159.332 64.0353 159.741 63.0144L143.878 89.7255C143.738 90.0116 143.531 90.6342 143.721 91.4925C144.164 92.9957 145.617 95.1554 147.575 97.5729L148.433 98.6387L193.7 154.092L193.975 154.422L237.827 208.125C245.894 217.779 245.966 219.731 245.288 220.937L261.268 194.074C261.93 192.795 260.034 190.108 257.28 186.681Z" fill="#9C9FA1"/>
<path fill-rule="evenodd" clip-rule="evenodd" d="M279.805 148.667L278.941 147.59L233.669 92.1425L233.411 91.806L189.547 38.1088C181.128 28.029 181.857 26.0209 182.272 25L166.403 51.7111C166.258 52.0084 166.05 52.6424 166.258 53.5174C166.712 55.0207 168.159 57.1578 170.094 59.5585L170.947 60.6243L216.219 116.071L216.488 116.403L260.347 170.111C268.402 179.77 268.486 181.722 267.801 182.922L283.771 156.06C284.455 154.775 282.565 152.083 279.805 148.667Z" fill="#9C9FA1"/>
<path fill-rule="evenodd" clip-rule="evenodd" d="M215.998 270.454C216.149 270.163 216.396 269.478 216.127 268.508C215.594 267.072 214.113 265.07 212.228 262.725L211.37 261.648L166.092 206.201L165.829 205.858L121.97 152.167C113.545 142.087 114.28 140.079 114.689 139.058L98.6639 166.039C98.002 167.306 99.7632 170.201 102.517 173.611L103.376 174.682L148.642 230.13L148.917 230.466L192.77 284.169C200.836 293.834 200.909 295.774 200.23 296.98L215.998 270.454Z" fill="#9C9FA1"/>
<path fill-rule="evenodd" clip-rule="evenodd" d="M193.386 308.609C193.386 308.609 193.952 307.835 193.605 306.545C193.077 305.103 191.591 303.095 189.695 300.745L188.837 299.673L143.565 244.226L143.301 243.89L99.4422 190.192C91.0172 180.107 91.7465 178.104 92.1616 177.078L76.1415 204.064C75.474 205.337 77.2354 208.22 79.9951 211.636L80.8533 212.708L126.114 268.155L126.389 268.492L170.236 322.2C178.297 331.848 178.381 333.794 177.702 335L193.386 308.609Z" fill="#9C9FA1"/>
<path fill-rule="evenodd" clip-rule="evenodd" d="M171.436 192.441L215.295 246.138C223.72 256.229 223.434 257.906 222.665 259.106L238.736 232.093C239.403 230.808 237.513 228.116 234.759 224.7L233.901 223.628L188.623 168.181L188.359 167.844L144.501 114.147C136.081 104.062 136.805 102.059 137.22 101.038L121.2 128.019C120.538 129.286 122.299 132.175 125.053 135.591L125.912 136.657L171.178 192.104L171.436 192.441Z" fill="#9C9FA1"/>
<path fill-rule="evenodd" clip-rule="evenodd" d="M224.568 229.703L164.061 204.529L163.691 204.389L101.209 178.401L100.239 178.014C98.3151 177.324 94.1139 176.017 92.3526 177.01C92.1563 177.122 91.9655 177.324 91.8813 177.515L76.1475 204.058C76.815 203.222 78.7333 201.691 90.1705 206.627L150.689 231.801L151.059 231.952L213.529 257.934L214.426 258.293C216.311 258.966 220.613 260.33 222.397 259.32C222.576 259.213 223.065 258.607 223.154 258.439L238.602 232.272C237.94 233.113 235.999 234.634 224.568 229.703Z" fill="white"/>
<path fill-rule="evenodd" clip-rule="evenodd" d="M247.104 191.69L186.592 166.516L186.216 166.37L123.74 140.388L122.765 140.001C120.846 139.311 116.645 137.998 114.878 138.997C114.682 139.109 114.491 139.316 114.407 139.501L98.6729 166.045C99.346 165.209 101.253 163.683 112.69 168.619L173.208 193.788L173.584 193.939L236.06 219.921L236.957 220.275C238.836 220.959 243.139 222.316 244.922 221.307C245.113 221.206 245.584 220.6 245.685 220.426L261.133 194.253C260.46 195.089 258.53 196.615 247.104 191.69Z" fill="white"/>
<path fill-rule="evenodd" clip-rule="evenodd" d="M269.628 153.671L209.122 128.496L208.746 128.356L146.265 102.369L145.3 101.987C143.37 101.292 139.174 99.9847 137.413 100.983C137.211 101.095 137.021 101.303 136.942 101.488L121.208 128.031C121.881 127.201 123.794 125.669 135.237 130.605L195.755 155.78L196.125 155.931L258.601 181.908L259.498 182.261C261.377 182.945 265.674 184.308 267.463 183.299C267.648 183.192 268.136 182.592 268.226 182.418L283.663 156.24C283.001 157.075 281.066 158.601 269.628 153.671Z" fill="white"/>
</svg>
