<svg width="360" height="360" viewBox="0 0 360 360" fill="none" xmlns="http://www.w3.org/2000/svg">
<rect width="360" height="360" rx="82" fill="black"/>
<circle cx="180" cy="180" r="155.455" fill="#4681C7" fill-opacity="0.06"/>
<circle cx="180" cy="180" r="155.205" stroke="#2869BF" stroke-opacity="0.04" stroke-width="0.5"/>
<path d="M226.631 142.104C222.379 132.689 217.811 116.68 221.151 97.3024C225.757 70.5346 240.375 47.1835 261 32C221.026 36.7892 185.831 71.8782 179.122 114.415C176.598 130.501 175.331 155.464 201.226 181.474C216.851 197.156 232.687 214.298 228.128 244.818C223.454 276.078 195.669 301.32 165.955 301.204C136.231 301.07 116.498 275.704 120.51 244.358C125.654 204.182 168.767 191.81 172.826 166.981C174.372 157.489 172.068 147.681 169.822 139.484C166.406 128.351 160.11 110.134 167.884 87.8871C167.884 87.8871 144.83 105.739 139.206 143.285C137.997 151.433 135.751 163.094 124.512 174.727C113.283 186.378 101.094 206.255 97.8305 230.278C91.6304 276.03 120.778 313.086 164.16 313.278C207.551 313.461 247.947 276.577 254.934 230.969C261 191.446 235.883 162.586 226.631 142.104Z" fill="#E43539"/>
<path d="M165.765 285.674H165.918C187.657 285.674 208.954 265.979 212.448 242.58C215.768 220.4 205.912 208.115 189.912 192.529C173.817 176.837 174.268 169.351 173.03 158.966C173.376 181.444 174.412 195.427 161.974 207.194C149.746 218.759 137.912 229.384 135.724 246.4C134.236 258.061 136.981 268.561 143.469 275.951C148.997 282.267 156.704 285.626 165.765 285.674Z" fill="white"/>
</svg>
