<svg width="360" height="360" viewBox="0 0 360 360" fill="none" xmlns="http://www.w3.org/2000/svg">
<rect width="360" height="360" rx="82" fill="#FF0000"/>
<circle cx="180" cy="180" r="155.455" fill="#4681C7" fill-opacity="0.06"/>
<circle cx="180" cy="180" r="155.205" stroke="#2869BF" stroke-opacity="0.04" stroke-width="0.5"/>
<path d="M308.254 127.771V214.16L288.527 221.064V120.898L229.327 100.233V241.728L209.591 248.603V93.3268L180 83L150.4 93.3268V248.603L130.674 241.728V100.233L71.4734 120.898V221.064L51.7474 214.16V127.771L32 134.677V228.186L91.2108 248.851V134.903L110.947 128.019V255.735L170.136 276.41V107.354L180 103.901L189.864 107.354V276.41L249.075 255.735V128.019L268.801 134.903V248.851L328 228.186V134.677L308.254 127.771Z" fill="white"/>
</svg>
