<svg width="360" height="360" viewBox="0 0 360 360" fill="none" xmlns="http://www.w3.org/2000/svg">
<rect width="360" height="360" rx="82" fill="#4897A2"/>
<path d="M206.204 156.281H63V211.036H206.204V156.281Z" fill="white"/>
<path opacity="0.7" d="M301.655 156.281H220.693V211.036H301.655V156.281Z" fill="white"/>
<path d="M63 84.6799C63 82.3399 64.404 80 67.6799 80C69.0838 80 206.204 80 206.204 80V134.755H63V84.6799Z" fill="white"/>
<path opacity="0.7" d="M295.571 80.4702H220.693V135.693H301.655V89.83C301.655 83.7461 302.123 80.4702 295.571 80.4702Z" fill="white"/>
<path opacity="0.7" d="M261.413 230.224C238.014 230.224 218.826 242.859 218.826 258.771C218.826 274.682 238.014 287.318 261.413 287.318C284.812 287.318 304 274.682 304 258.771C304 242.859 284.812 230.224 261.413 230.224Z" fill="white"/>
<path d="M206.204 286.379H69.5518C63 286.379 63 284.975 63 278.891V231.156H206.204V286.379Z" fill="white"/>
</svg>
