<svg width="360" height="360" viewBox="0 0 360 360" fill="none" xmlns="http://www.w3.org/2000/svg">
<rect width="360" height="360" rx="82" fill="black"/>
<mask id="path-4-outside-1" maskUnits="userSpaceOnUse" x="36" y="106.048" width="94" height="146" fill="black">
<rect fill="white" x="36" y="106.048" width="94" height="146"/>
<path fill-rule="evenodd" clip-rule="evenodd" d="M122.05 109.048L122.283 109.281L122.4 109.515L122.633 109.981V110.331L122.866 110.797L122.633 112.079L122.283 113.711L121.584 116.043L121.117 119.423L121.001 121.172L120.768 123.853L120.534 126.884L120.301 129.565L120.068 131.547L119.952 132.13L119.718 132.829L119.485 133.179L119.252 133.412L118.669 133.645L117.97 133.412L117.504 133.179L117.387 132.596L117.154 131.897V131.314L116.921 129.449L116.688 127.117L115.872 124.553L115.055 123.27L114.006 121.988L112.258 120.706L109.693 119.89L106.312 119.074L101.416 118.374L99.7843 118.141H96.9865L93.3727 118.025H89.2926H85.096H81.249L77.8683 117.791H75.0706H73.7882L73.4385 118.025L72.9722 118.141L72.7391 118.374L72.5059 119.074V119.657V170.25V170.833L72.7391 171.532L72.9722 171.882L73.2054 172.115H73.7882H75.3037H78.3346H82.2982H86.728H91.5075L96.1705 171.882H100.367H103.748L105.846 171.649L110.159 171.299L113.307 170.599L115.405 169.201L116.338 168.268L116.921 167.685L117.504 167.219L117.97 166.869H118.669H118.786L119.019 167.102L119.252 167.219L119.485 167.685V168.268L119.252 169.434L119.019 171.532L118.436 174.446L117.97 178.527L117.737 180.975L117.387 184.005V186.687L117.154 188.785V190.3V191.35L116.921 192.632L116.454 193.448L115.638 193.681H115.172L114.822 193.448L114.356 193.098V192.632L114.123 192.049V190.3L114.006 188.202L113.54 186.104L112.841 184.822L112.025 183.306L110.742 182.024L109.11 180.975L106.312 180.159L102.932 179.692L100.134 179.576L96.5202 179.343L92.3235 179.109L87.6606 178.876H83.1142L79.1507 178.643H76.0032H74.0214H73.4385L72.9722 178.876L72.7391 179.343L72.5059 179.576V179.925V196.246V199.16V203.24V207.903V212.683V217.579V221.775V225.156V227.488L72.7391 231.335L73.4385 234.482L74.4877 237.047L76.0032 238.912L78.3346 240.427L81.249 241.477L85.096 242.176L89.9921 242.526H96.1705H99.5511L103.515 242.293L107.828 242.176L112.025 241.477L115.405 240.427L118.436 239.145L120.534 237.28L122.283 234.715L123.449 231.335L124.615 227.371L124.731 226.322L125.197 225.389L125.431 225.04L125.897 224.573H126.48H126.946L127.063 225.04L127.296 225.156L127.529 225.622V226.322V226.672V227.371V228.653L127.296 230.868L126.946 233.666L126.48 237.047L126.013 240.194L125.431 242.992L124.964 245.09L124.148 247.422L122.866 248.937L121.001 249.52L118.203 249.753L114.123 249.986L103.282 249.753H94.1887L86.3783 249.52L79.7335 249.287L74.4877 249.054L70.0579 248.937H66.5607L64.1126 248.704L63.0634 248.937H60.6154L57.701 249.054H54.3204L50.7066 249.287H47.0928H44.0619H43.0127L41.9635 249.054L41.3807 248.937L41.1475 248.471L40.9144 247.888V247.655L41.1475 247.189L41.6138 246.955L41.9635 246.839H42.663L45.5773 246.606L48.6083 245.906L50.7066 245.323L52.222 243.575L53.2712 241.477L54.0872 238.912L54.5535 235.998L54.9032 231.568L55.1364 226.089L55.3695 219.677L55.6027 212.566V204.639V196.246V163.838V156.028V149.266V143.787V139.358V135.511L55.3695 132.596V130.032V127.933L55.1364 126.068V124.32L54.6701 120.939L53.8541 118.141L52.222 116.276L49.8906 114.76L46.3933 113.711L44.295 113.595L41.7304 113.362H39.3989L39.0492 113.128H38.5829L38.1166 112.895L38 112.429V112.079V111.613L38.3497 111.263L39.0492 110.797H39.8652L41.1475 110.564L45.2276 110.797H49.4243H53.6209L57.4679 111.03H60.6154L63.0634 111.263H64.1126H65.1618H67.7264H71.3402H75.77H80.6661H85.912H91.5075H96.5202H101.416L105.496 111.03H108.644H110.393L114.006 110.797L116.921 110.564L119.019 110.214L119.952 109.981L120.534 109.515L121.117 109.281L122.05 109.048Z"/>
</mask>
<path fill-rule="evenodd" clip-rule="evenodd" d="M122.05 109.048L122.283 109.281L122.4 109.515L122.633 109.981V110.331L122.866 110.797L122.633 112.079L122.283 113.711L121.584 116.043L121.117 119.423L121.001 121.172L120.768 123.853L120.534 126.884L120.301 129.565L120.068 131.547L119.952 132.13L119.718 132.829L119.485 133.179L119.252 133.412L118.669 133.645L117.97 133.412L117.504 133.179L117.387 132.596L117.154 131.897V131.314L116.921 129.449L116.688 127.117L115.872 124.553L115.055 123.27L114.006 121.988L112.258 120.706L109.693 119.89L106.312 119.074L101.416 118.374L99.7843 118.141H96.9865L93.3727 118.025H89.2926H85.096H81.249L77.8683 117.791H75.0706H73.7882L73.4385 118.025L72.9722 118.141L72.7391 118.374L72.5059 119.074V119.657V170.25V170.833L72.7391 171.532L72.9722 171.882L73.2054 172.115H73.7882H75.3037H78.3346H82.2982H86.728H91.5075L96.1705 171.882H100.367H103.748L105.846 171.649L110.159 171.299L113.307 170.599L115.405 169.201L116.338 168.268L116.921 167.685L117.504 167.219L117.97 166.869H118.669H118.786L119.019 167.102L119.252 167.219L119.485 167.685V168.268L119.252 169.434L119.019 171.532L118.436 174.446L117.97 178.527L117.737 180.975L117.387 184.005V186.687L117.154 188.785V190.3V191.35L116.921 192.632L116.454 193.448L115.638 193.681H115.172L114.822 193.448L114.356 193.098V192.632L114.123 192.049V190.3L114.006 188.202L113.54 186.104L112.841 184.822L112.025 183.306L110.742 182.024L109.11 180.975L106.312 180.159L102.932 179.692L100.134 179.576L96.5202 179.343L92.3235 179.109L87.6606 178.876H83.1142L79.1507 178.643H76.0032H74.0214H73.4385L72.9722 178.876L72.7391 179.343L72.5059 179.576V179.925V196.246V199.16V203.24V207.903V212.683V217.579V221.775V225.156V227.488L72.7391 231.335L73.4385 234.482L74.4877 237.047L76.0032 238.912L78.3346 240.427L81.249 241.477L85.096 242.176L89.9921 242.526H96.1705H99.5511L103.515 242.293L107.828 242.176L112.025 241.477L115.405 240.427L118.436 239.145L120.534 237.28L122.283 234.715L123.449 231.335L124.615 227.371L124.731 226.322L125.197 225.389L125.431 225.04L125.897 224.573H126.48H126.946L127.063 225.04L127.296 225.156L127.529 225.622V226.322V226.672V227.371V228.653L127.296 230.868L126.946 233.666L126.48 237.047L126.013 240.194L125.431 242.992L124.964 245.09L124.148 247.422L122.866 248.937L121.001 249.52L118.203 249.753L114.123 249.986L103.282 249.753H94.1887L86.3783 249.52L79.7335 249.287L74.4877 249.054L70.0579 248.937H66.5607L64.1126 248.704L63.0634 248.937H60.6154L57.701 249.054H54.3204L50.7066 249.287H47.0928H44.0619H43.0127L41.9635 249.054L41.3807 248.937L41.1475 248.471L40.9144 247.888V247.655L41.1475 247.189L41.6138 246.955L41.9635 246.839H42.663L45.5773 246.606L48.6083 245.906L50.7066 245.323L52.222 243.575L53.2712 241.477L54.0872 238.912L54.5535 235.998L54.9032 231.568L55.1364 226.089L55.3695 219.677L55.6027 212.566V204.639V196.246V163.838V156.028V149.266V143.787V139.358V135.511L55.3695 132.596V130.032V127.933L55.1364 126.068V124.32L54.6701 120.939L53.8541 118.141L52.222 116.276L49.8906 114.76L46.3933 113.711L44.295 113.595L41.7304 113.362H39.3989L39.0492 113.128H38.5829L38.1166 112.895L38 112.429V112.079V111.613L38.3497 111.263L39.0492 110.797H39.8652L41.1475 110.564L45.2276 110.797H49.4243H53.6209L57.4679 111.03H60.6154L63.0634 111.263H64.1126H65.1618H67.7264H71.3402H75.77H80.6661H85.912H91.5075H96.5202H101.416L105.496 111.03H108.644H110.393L114.006 110.797L116.921 110.564L119.019 110.214L119.952 109.981L120.534 109.515L121.117 109.281L122.05 109.048Z" fill="white"/>
<path fill-rule="evenodd" clip-rule="evenodd" d="M122.05 109.048L122.283 109.281L122.4 109.515L122.633 109.981V110.331L122.866 110.797L122.633 112.079L122.283 113.711L121.584 116.043L121.117 119.423L121.001 121.172L120.768 123.853L120.534 126.884L120.301 129.565L120.068 131.547L119.952 132.13L119.718 132.829L119.485 133.179L119.252 133.412L118.669 133.645L117.97 133.412L117.504 133.179L117.387 132.596L117.154 131.897V131.314L116.921 129.449L116.688 127.117L115.872 124.553L115.055 123.27L114.006 121.988L112.258 120.706L109.693 119.89L106.312 119.074L101.416 118.374L99.7843 118.141H96.9865L93.3727 118.025H89.2926H85.096H81.249L77.8683 117.791H75.0706H73.7882L73.4385 118.025L72.9722 118.141L72.7391 118.374L72.5059 119.074V119.657V170.25V170.833L72.7391 171.532L72.9722 171.882L73.2054 172.115H73.7882H75.3037H78.3346H82.2982H86.728H91.5075L96.1705 171.882H100.367H103.748L105.846 171.649L110.159 171.299L113.307 170.599L115.405 169.201L116.338 168.268L116.921 167.685L117.504 167.219L117.97 166.869H118.669H118.786L119.019 167.102L119.252 167.219L119.485 167.685V168.268L119.252 169.434L119.019 171.532L118.436 174.446L117.97 178.527L117.737 180.975L117.387 184.005V186.687L117.154 188.785V190.3V191.35L116.921 192.632L116.454 193.448L115.638 193.681H115.172L114.822 193.448L114.356 193.098V192.632L114.123 192.049V190.3L114.006 188.202L113.54 186.104L112.841 184.822L112.025 183.306L110.742 182.024L109.11 180.975L106.312 180.159L102.932 179.692L100.134 179.576L96.5202 179.343L92.3235 179.109L87.6606 178.876H83.1142L79.1507 178.643H76.0032H74.0214H73.4385L72.9722 178.876L72.7391 179.343L72.5059 179.576V179.925V196.246V199.16V203.24V207.903V212.683V217.579V221.775V225.156V227.488L72.7391 231.335L73.4385 234.482L74.4877 237.047L76.0032 238.912L78.3346 240.427L81.249 241.477L85.096 242.176L89.9921 242.526H96.1705H99.5511L103.515 242.293L107.828 242.176L112.025 241.477L115.405 240.427L118.436 239.145L120.534 237.28L122.283 234.715L123.449 231.335L124.615 227.371L124.731 226.322L125.197 225.389L125.431 225.04L125.897 224.573H126.48H126.946L127.063 225.04L127.296 225.156L127.529 225.622V226.322V226.672V227.371V228.653L127.296 230.868L126.946 233.666L126.48 237.047L126.013 240.194L125.431 242.992L124.964 245.09L124.148 247.422L122.866 248.937L121.001 249.52L118.203 249.753L114.123 249.986L103.282 249.753H94.1887L86.3783 249.52L79.7335 249.287L74.4877 249.054L70.0579 248.937H66.5607L64.1126 248.704L63.0634 248.937H60.6154L57.701 249.054H54.3204L50.7066 249.287H47.0928H44.0619H43.0127L41.9635 249.054L41.3807 248.937L41.1475 248.471L40.9144 247.888V247.655L41.1475 247.189L41.6138 246.955L41.9635 246.839H42.663L45.5773 246.606L48.6083 245.906L50.7066 245.323L52.222 243.575L53.2712 241.477L54.0872 238.912L54.5535 235.998L54.9032 231.568L55.1364 226.089L55.3695 219.677L55.6027 212.566V204.639V196.246V163.838V156.028V149.266V143.787V139.358V135.511L55.3695 132.596V130.032V127.933L55.1364 126.068V124.32L54.6701 120.939L53.8541 118.141L52.222 116.276L49.8906 114.76L46.3933 113.711L44.295 113.595L41.7304 113.362H39.3989L39.0492 113.128H38.5829L38.1166 112.895L38 112.429V112.079V111.613L38.3497 111.263L39.0492 110.797H39.8652L41.1475 110.564L45.2276 110.797H49.4243H53.6209L57.4679 111.03H60.6154L63.0634 111.263H64.1126H65.1618H67.7264H71.3402H75.77H80.6661H85.912H91.5075H96.5202H101.416L105.496 111.03H108.644H110.393L114.006 110.797L116.921 110.564L119.019 110.214L119.952 109.981L120.534 109.515L121.117 109.281L122.05 109.048Z" stroke="white" stroke-width="4" mask="url(#path-4-outside-1)"/>
<mask id="path-5-outside-2" maskUnits="userSpaceOnUse" x="145.953" y="105" width="82" height="149" fill="black">
<rect fill="white" x="145.953" y="105" width="82" height="149"/>
<path fill-rule="evenodd" clip-rule="evenodd" d="M194.583 108L200.178 108.233L205.308 108.699L209.504 109.049L213.584 109.982L216.032 110.331L218.014 110.565L219.296 110.798H220.579H221.395L221.978 111.031L222.444 111.264L222.677 111.614V112.08V113.129L222.444 114.761L222.211 117.559L221.978 121.173L221.861 125.836V131.548L221.628 134.113L221.162 135.278L220.346 135.745H219.879L219.53 135.511L219.296 135.162L219.063 134.695L218.83 134.113V133.413L218.364 131.315L217.781 128.75L217.198 126.186L216.032 124.32L215.683 123.271L214.634 122.222L213.118 120.707L211.253 119.308L208.688 118.025L205.424 116.51L201.461 115.461L196.565 114.761L190.852 114.645L185.723 114.761L181.06 115.927L176.864 117.792L173.25 120.124L170.219 123.271L167.887 126.885L166.372 131.082L166.022 135.745L166.139 139.125L166.838 142.273L168.12 145.304L169.986 148.218L172.55 151.366L175.698 154.63L179.778 158.127L184.907 162.207L190.619 166.637L196.331 170.6L202.976 175.496L208.688 180.393L213.351 184.589L217.198 189.019L220.112 193.099L222.444 197.063L223.959 201.143L225.009 205.339L225.591 209.303L225.825 213.849L225.591 216.764L225.242 220.377L224.193 224.341L222.444 228.421L220.346 232.618L217.198 236.581L213.351 240.661L208.688 244.275L203.093 247.19L197.147 249.288L191.086 250.803L184.674 251.619L178.029 251.852L171.035 251.619L164.04 250.803L157.279 249.288L150.867 246.956L149.235 245.907L148.419 244.858L147.953 242.993V239.962V234.716L148.186 230.053L148.536 226.09L148.769 222.942L149.002 220.611V219.445L149.235 218.629L149.585 218.046L150.051 217.813L150.518 217.58H151.101L151.567 217.813L151.8 218.279L151.917 218.862V219.678V222.709L152.616 226.439L153.898 230.753L155.997 234.25L158.795 237.281L161.709 239.845L165.323 241.711L169.403 243.226L173.599 244.275L178.029 244.858L182.576 245.091L188.754 244.625L194 243.343L198.663 241.477L202.743 238.796L205.89 235.765L208.222 232.151L210.087 228.654L211.253 224.574L211.369 220.727L211.253 216.064L210.32 212.101L208.688 208.137L206.357 204.29L203.093 200.443L199.129 196.713L194.233 192.4L188.288 187.737L179.195 180.975L172.55 175.73L167.071 170.833L162.758 166.17L159.144 161.741L156.696 157.544L154.714 153.464L153.665 149.267L153.082 145.304L152.849 140.99L153.199 135.278L154.714 130.033L156.813 125.37L160.077 120.94L164.04 117.326L168.703 113.945L174.299 111.381L180.361 109.749L187.239 108.466L194.583 108Z"/>
</mask>
<path fill-rule="evenodd" clip-rule="evenodd" d="M194.583 108L200.178 108.233L205.308 108.699L209.504 109.049L213.584 109.982L216.032 110.331L218.014 110.565L219.296 110.798H220.579H221.395L221.978 111.031L222.444 111.264L222.677 111.614V112.08V113.129L222.444 114.761L222.211 117.559L221.978 121.173L221.861 125.836V131.548L221.628 134.113L221.162 135.278L220.346 135.745H219.879L219.53 135.511L219.296 135.162L219.063 134.695L218.83 134.113V133.413L218.364 131.315L217.781 128.75L217.198 126.186L216.032 124.32L215.683 123.271L214.634 122.222L213.118 120.707L211.253 119.308L208.688 118.025L205.424 116.51L201.461 115.461L196.565 114.761L190.852 114.645L185.723 114.761L181.06 115.927L176.864 117.792L173.25 120.124L170.219 123.271L167.887 126.885L166.372 131.082L166.022 135.745L166.139 139.125L166.838 142.273L168.12 145.304L169.986 148.218L172.55 151.366L175.698 154.63L179.778 158.127L184.907 162.207L190.619 166.637L196.331 170.6L202.976 175.496L208.688 180.393L213.351 184.589L217.198 189.019L220.112 193.099L222.444 197.063L223.959 201.143L225.009 205.339L225.591 209.303L225.825 213.849L225.591 216.764L225.242 220.377L224.193 224.341L222.444 228.421L220.346 232.618L217.198 236.581L213.351 240.661L208.688 244.275L203.093 247.19L197.147 249.288L191.086 250.803L184.674 251.619L178.029 251.852L171.035 251.619L164.04 250.803L157.279 249.288L150.867 246.956L149.235 245.907L148.419 244.858L147.953 242.993V239.962V234.716L148.186 230.053L148.536 226.09L148.769 222.942L149.002 220.611V219.445L149.235 218.629L149.585 218.046L150.051 217.813L150.518 217.58H151.101L151.567 217.813L151.8 218.279L151.917 218.862V219.678V222.709L152.616 226.439L153.898 230.753L155.997 234.25L158.795 237.281L161.709 239.845L165.323 241.711L169.403 243.226L173.599 244.275L178.029 244.858L182.576 245.091L188.754 244.625L194 243.343L198.663 241.477L202.743 238.796L205.89 235.765L208.222 232.151L210.087 228.654L211.253 224.574L211.369 220.727L211.253 216.064L210.32 212.101L208.688 208.137L206.357 204.29L203.093 200.443L199.129 196.713L194.233 192.4L188.288 187.737L179.195 180.975L172.55 175.73L167.071 170.833L162.758 166.17L159.144 161.741L156.696 157.544L154.714 153.464L153.665 149.267L153.082 145.304L152.849 140.99L153.199 135.278L154.714 130.033L156.813 125.37L160.077 120.94L164.04 117.326L168.703 113.945L174.299 111.381L180.361 109.749L187.239 108.466L194.583 108Z" fill="white"/>
<path fill-rule="evenodd" clip-rule="evenodd" d="M194.583 108L200.178 108.233L205.308 108.699L209.504 109.049L213.584 109.982L216.032 110.331L218.014 110.565L219.296 110.798H220.579H221.395L221.978 111.031L222.444 111.264L222.677 111.614V112.08V113.129L222.444 114.761L222.211 117.559L221.978 121.173L221.861 125.836V131.548L221.628 134.113L221.162 135.278L220.346 135.745H219.879L219.53 135.511L219.296 135.162L219.063 134.695L218.83 134.113V133.413L218.364 131.315L217.781 128.75L217.198 126.186L216.032 124.32L215.683 123.271L214.634 122.222L213.118 120.707L211.253 119.308L208.688 118.025L205.424 116.51L201.461 115.461L196.565 114.761L190.852 114.645L185.723 114.761L181.06 115.927L176.864 117.792L173.25 120.124L170.219 123.271L167.887 126.885L166.372 131.082L166.022 135.745L166.139 139.125L166.838 142.273L168.12 145.304L169.986 148.218L172.55 151.366L175.698 154.63L179.778 158.127L184.907 162.207L190.619 166.637L196.331 170.6L202.976 175.496L208.688 180.393L213.351 184.589L217.198 189.019L220.112 193.099L222.444 197.063L223.959 201.143L225.009 205.339L225.591 209.303L225.825 213.849L225.591 216.764L225.242 220.377L224.193 224.341L222.444 228.421L220.346 232.618L217.198 236.581L213.351 240.661L208.688 244.275L203.093 247.19L197.147 249.288L191.086 250.803L184.674 251.619L178.029 251.852L171.035 251.619L164.04 250.803L157.279 249.288L150.867 246.956L149.235 245.907L148.419 244.858L147.953 242.993V239.962V234.716L148.186 230.053L148.536 226.09L148.769 222.942L149.002 220.611V219.445L149.235 218.629L149.585 218.046L150.051 217.813L150.518 217.58H151.101L151.567 217.813L151.8 218.279L151.917 218.862V219.678V222.709L152.616 226.439L153.898 230.753L155.997 234.25L158.795 237.281L161.709 239.845L165.323 241.711L169.403 243.226L173.599 244.275L178.029 244.858L182.576 245.091L188.754 244.625L194 243.343L198.663 241.477L202.743 238.796L205.89 235.765L208.222 232.151L210.087 228.654L211.253 224.574L211.369 220.727L211.253 216.064L210.32 212.101L208.688 208.137L206.357 204.29L203.093 200.443L199.129 196.713L194.233 192.4L188.288 187.737L179.195 180.975L172.55 175.73L167.071 170.833L162.758 166.17L159.144 161.741L156.696 157.544L154.714 153.464L153.665 149.267L153.082 145.304L152.849 140.99L153.199 135.278L154.714 130.033L156.813 125.37L160.077 120.94L164.04 117.326L168.703 113.945L174.299 111.381L180.361 109.749L187.239 108.466L194.583 108Z" stroke="white" stroke-width="4" mask="url(#path-5-outside-2)"/>
<mask id="path-6-outside-3" maskUnits="userSpaceOnUse" x="243.127" y="105" width="82" height="149" fill="black">
<rect fill="white" x="243.127" y="105" width="82" height="149"/>
<path fill-rule="evenodd" clip-rule="evenodd" d="M291.757 108L297.352 108.233L302.248 108.699L306.678 109.049L310.758 109.982L313.206 110.331L314.955 110.565L316.47 110.798H317.753H318.569L319.152 111.031L319.618 111.264L319.851 111.614V112.08V113.129L319.618 114.761L319.385 117.559L319.152 121.173L319.035 125.836V131.548L318.802 134.113L318.336 135.278L317.519 135.745H317.053L316.703 135.511L316.47 135.162L316.237 134.695L316.004 134.113V133.413L315.538 131.315L314.955 128.75L314.139 126.186L313.206 124.32L312.857 123.271L311.807 122.222L310.292 120.707L308.427 119.308L305.862 118.025L302.598 116.51L298.634 115.461L293.738 114.761L288.026 114.645L282.897 114.761L278.234 115.927L274.037 117.792L270.424 120.124L267.159 123.271L265.061 126.885L263.546 131.082L263.196 135.745L263.313 139.125L264.012 142.273L265.294 145.304L267.159 148.218L269.724 151.366L272.872 154.63L276.952 158.127L281.848 162.207L287.793 166.637L293.505 170.6L300.033 175.496L305.629 180.393L310.292 184.589L314.139 189.019L317.286 193.099L319.385 197.063L321.133 201.143L322.182 205.339L322.765 209.303L322.998 213.849L322.765 216.764L322.416 220.377L321.366 224.341L319.618 228.421L317.519 232.618L314.372 236.581L310.525 240.661L305.862 244.275L300.267 247.19L294.321 249.288L288.259 250.803L281.848 251.619L275.203 251.852L268.209 251.619L261.214 250.803L254.453 249.288L248.041 246.956L246.409 245.907L245.593 244.858L245.127 242.993V239.962V234.716L245.36 230.053L245.593 226.09L245.943 222.942L246.176 220.611V219.445L246.409 218.629L246.759 218.046L247.225 217.813L247.692 217.58H248.274L248.741 217.813L248.974 218.279L249.09 218.862V219.678V222.709L249.79 226.439L251.072 230.753L253.171 234.25L255.735 237.281L258.883 239.845L262.496 241.711L266.577 243.226L270.773 244.275L275.203 244.858L279.749 245.091L285.811 244.625L291.174 243.343L295.837 241.477L299.917 238.796L303.064 235.765L305.396 232.151L307.261 228.654L308.427 224.574L308.543 220.727L308.427 216.064L307.494 212.101L305.862 208.137L303.531 204.29L300.267 200.443L296.303 196.713L291.407 192.4L285.462 187.737L276.369 180.975L269.724 175.73L264.245 170.833L259.932 166.17L256.318 161.741L253.87 157.544L251.888 153.464L250.839 149.267L250.256 145.304L250.023 140.99L250.373 135.278L251.888 130.033L253.987 125.37L257.251 120.94L261.214 117.326L265.877 113.945L271.473 111.381L277.535 109.749L284.412 108.466L291.757 108Z"/>
</mask>
<path fill-rule="evenodd" clip-rule="evenodd" d="M291.757 108L297.352 108.233L302.248 108.699L306.678 109.049L310.758 109.982L313.206 110.331L314.955 110.565L316.47 110.798H317.753H318.569L319.152 111.031L319.618 111.264L319.851 111.614V112.08V113.129L319.618 114.761L319.385 117.559L319.152 121.173L319.035 125.836V131.548L318.802 134.113L318.336 135.278L317.519 135.745H317.053L316.703 135.511L316.47 135.162L316.237 134.695L316.004 134.113V133.413L315.538 131.315L314.955 128.75L314.139 126.186L313.206 124.32L312.857 123.271L311.807 122.222L310.292 120.707L308.427 119.308L305.862 118.025L302.598 116.51L298.634 115.461L293.738 114.761L288.026 114.645L282.897 114.761L278.234 115.927L274.037 117.792L270.424 120.124L267.159 123.271L265.061 126.885L263.546 131.082L263.196 135.745L263.313 139.125L264.012 142.273L265.294 145.304L267.159 148.218L269.724 151.366L272.872 154.63L276.952 158.127L281.848 162.207L287.793 166.637L293.505 170.6L300.033 175.496L305.629 180.393L310.292 184.589L314.139 189.019L317.286 193.099L319.385 197.063L321.133 201.143L322.182 205.339L322.765 209.303L322.998 213.849L322.765 216.764L322.416 220.377L321.366 224.341L319.618 228.421L317.519 232.618L314.372 236.581L310.525 240.661L305.862 244.275L300.267 247.19L294.321 249.288L288.259 250.803L281.848 251.619L275.203 251.852L268.209 251.619L261.214 250.803L254.453 249.288L248.041 246.956L246.409 245.907L245.593 244.858L245.127 242.993V239.962V234.716L245.36 230.053L245.593 226.09L245.943 222.942L246.176 220.611V219.445L246.409 218.629L246.759 218.046L247.225 217.813L247.692 217.58H248.274L248.741 217.813L248.974 218.279L249.09 218.862V219.678V222.709L249.79 226.439L251.072 230.753L253.171 234.25L255.735 237.281L258.883 239.845L262.496 241.711L266.577 243.226L270.773 244.275L275.203 244.858L279.749 245.091L285.811 244.625L291.174 243.343L295.837 241.477L299.917 238.796L303.064 235.765L305.396 232.151L307.261 228.654L308.427 224.574L308.543 220.727L308.427 216.064L307.494 212.101L305.862 208.137L303.531 204.29L300.267 200.443L296.303 196.713L291.407 192.4L285.462 187.737L276.369 180.975L269.724 175.73L264.245 170.833L259.932 166.17L256.318 161.741L253.87 157.544L251.888 153.464L250.839 149.267L250.256 145.304L250.023 140.99L250.373 135.278L251.888 130.033L253.987 125.37L257.251 120.94L261.214 117.326L265.877 113.945L271.473 111.381L277.535 109.749L284.412 108.466L291.757 108Z" fill="white"/>
<path fill-rule="evenodd" clip-rule="evenodd" d="M291.757 108L297.352 108.233L302.248 108.699L306.678 109.049L310.758 109.982L313.206 110.331L314.955 110.565L316.47 110.798H317.753H318.569L319.152 111.031L319.618 111.264L319.851 111.614V112.08V113.129L319.618 114.761L319.385 117.559L319.152 121.173L319.035 125.836V131.548L318.802 134.113L318.336 135.278L317.519 135.745H317.053L316.703 135.511L316.47 135.162L316.237 134.695L316.004 134.113V133.413L315.538 131.315L314.955 128.75L314.139 126.186L313.206 124.32L312.857 123.271L311.807 122.222L310.292 120.707L308.427 119.308L305.862 118.025L302.598 116.51L298.634 115.461L293.738 114.761L288.026 114.645L282.897 114.761L278.234 115.927L274.037 117.792L270.424 120.124L267.159 123.271L265.061 126.885L263.546 131.082L263.196 135.745L263.313 139.125L264.012 142.273L265.294 145.304L267.159 148.218L269.724 151.366L272.872 154.63L276.952 158.127L281.848 162.207L287.793 166.637L293.505 170.6L300.033 175.496L305.629 180.393L310.292 184.589L314.139 189.019L317.286 193.099L319.385 197.063L321.133 201.143L322.182 205.339L322.765 209.303L322.998 213.849L322.765 216.764L322.416 220.377L321.366 224.341L319.618 228.421L317.519 232.618L314.372 236.581L310.525 240.661L305.862 244.275L300.267 247.19L294.321 249.288L288.259 250.803L281.848 251.619L275.203 251.852L268.209 251.619L261.214 250.803L254.453 249.288L248.041 246.956L246.409 245.907L245.593 244.858L245.127 242.993V239.962V234.716L245.36 230.053L245.593 226.09L245.943 222.942L246.176 220.611V219.445L246.409 218.629L246.759 218.046L247.225 217.813L247.692 217.58H248.274L248.741 217.813L248.974 218.279L249.09 218.862V219.678V222.709L249.79 226.439L251.072 230.753L253.171 234.25L255.735 237.281L258.883 239.845L262.496 241.711L266.577 243.226L270.773 244.275L275.203 244.858L279.749 245.091L285.811 244.625L291.174 243.343L295.837 241.477L299.917 238.796L303.064 235.765L305.396 232.151L307.261 228.654L308.427 224.574L308.543 220.727L308.427 216.064L307.494 212.101L305.862 208.137L303.531 204.29L300.267 200.443L296.303 196.713L291.407 192.4L285.462 187.737L276.369 180.975L269.724 175.73L264.245 170.833L259.932 166.17L256.318 161.741L253.87 157.544L251.888 153.464L250.839 149.267L250.256 145.304L250.023 140.99L250.373 135.278L251.888 130.033L253.987 125.37L257.251 120.94L261.214 117.326L265.877 113.945L271.473 111.381L277.535 109.749L284.412 108.466L291.757 108Z" stroke="white" stroke-width="4" mask="url(#path-6-outside-3)"/>
</svg>
