<svg width="360" height="360" viewBox="0 0 360 360" fill="none" xmlns="http://www.w3.org/2000/svg">
<rect width="360" height="360" rx="82" fill="#1175C7"/>
<path d="M128.866 155.155L135.893 180.436H121.338L128.866 155.155ZM116.09 198.144L109.696 219.115H147.076L141.065 198.144H116.09ZM213.655 140H141.894V162.52H164.534V219.115H200.965C198.718 217.729 183.257 205.454 183.257 182.552C183.257 163.513 194.812 144.888 213.655 140ZM226.093 198.853C234.56 198.853 241.357 191.827 241.357 182.945C241.357 174.118 234.985 166.132 226.409 166.132C217.79 166.132 211.014 174.118 211.014 182.945C211.014 191.827 217.375 198.853 226.093 198.853ZM301.356 189.732L286.79 140H249.497V219.115H272.791V169.525H272.955L287.39 219.115H325V140H301.498V189.732H301.356ZM80.1383 219.115L86.8703 196.933H61.9171V190.223H88.9106L95.3262 168.957H61.9171V162.52H97.1811L103.989 140H35V219.115H80.1383Z" fill="white"/>
</svg>
