<svg width="360" height="360" viewBox="0 0 360 360" fill="none" xmlns="http://www.w3.org/2000/svg">
<rect width="360" height="360" rx="82" fill="#E21F26"/>
<path d="M212.568 313.234H264.192C271.463 308.52 278.33 303.209 284.719 297.354H212.568V313.234Z" fill="white"/>
<path d="M83.8677 214.074H147.414V231.543H212.561V214.074H276.108V231.543H327.288C331.448 218.889 333.955 205.751 334.747 192.454H276.108V179.412H212.561V192.454H147.414V179.412H83.8677V192.454H25.2285C26.0262 205.75 28.533 218.887 32.6869 231.543H83.8677V214.074Z" fill="white"/>
<path d="M83.8734 166.321H147.42V179.415H212.567V166.321H276.114V179.415H335C334.053 138.935 317.306 100.431 288.342 72.1359C259.377 43.8409 220.492 28 180 28C139.508 28 100.623 43.8409 71.6584 72.1359C42.6935 100.431 25.9473 138.935 25 179.415H83.8734V166.321Z" fill="white"/>
<path d="M83.8652 268.477H147.412V285.164H212.559V268.477H276.105V285.164H296.632C304.448 276.256 311.217 266.482 316.808 256.033H276.105V238.526H212.559V256.033H147.412V238.526H83.8652V256.033H43.1758C48.7621 266.481 55.527 276.255 63.3383 285.164H83.8652V268.477Z" fill="white"/>
<path d="M147.412 297.354H75.2617C81.6507 303.209 88.5168 308.521 95.7887 313.234H147.412V297.354Z" fill="white"/>
<path d="M212.571 316.072H147.41V331.834H212.571V316.072Z" fill="white"/>
<path d="M212.571 316.072H147.41V331.834H212.571V316.072Z" fill="white"/>
</svg>
