<svg width="360" height="360" viewBox="0 0 360 360" fill="none" xmlns="http://www.w3.org/2000/svg">
<rect width="360" height="360" rx="82" fill="#827A71"/>
<circle cx="180" cy="180" r="155.455" fill="#4681C7" fill-opacity="0.06"/>
<circle cx="180" cy="180" r="155.205" stroke="#2869BF" stroke-opacity="0.04" stroke-width="0.5"/>
<path d="M96 308V296.317H116.577C118.257 296.063 120.797 294.507 121.025 292.496V67.2058C121.011 64.7825 118.271 62.848 115.944 62.7103H96V51H260.006L264.674 114.006H255.311L251.105 92.0859C247.552 75.1434 232.242 62.7172 214.735 62.7172V62.7103H155.715V170.237H192.787C204.621 168.316 209.365 159.098 211.74 147.732L215.382 129.544H223.987V226.283H216.008L211.726 204.397C209.083 191.441 202.618 181.961 189.249 181.961H155.715V285.846C155.715 291.533 160.314 296.18 165.945 296.317H217.117C236.117 295.402 252.681 281.75 257.252 263.176L263.366 228.231H273.252L266.257 308H96Z" fill="white"/>
</svg>
