<svg width="360" height="360" viewBox="0 0 360 360" fill="none" xmlns="http://www.w3.org/2000/svg">
<rect width="360" height="360" rx="82" fill="url(#paint0_linear)"/>
<circle cx="180" cy="180" r="155.455" fill="#4681C7" fill-opacity="0.06"/>
<circle cx="180" cy="180" r="155.205" stroke="#2869BF" stroke-opacity="0.04" stroke-width="0.5"/>
<path d="M63.289 209.89C62.4186 210.313 61.7645 210.68 60.7733 211.238C60.7733 211.238 57.0351 216.531 52.8842 223.122C49.0553 229.21 44.8993 236.4 42.2578 241.558C41.9006 242.252 41 244.008 41 244.008C47.9383 238.992 56.406 236.194 67.7267 234.831C81.6083 233.16 97.7944 233.442 114.373 234.151C128.929 234.775 144.43 235.741 159.977 236.521C186.307 237.839 220.379 224.446 238.794 206.202C238.794 206.202 238.004 206.665 237.748 206.821C203.479 226.634 172.46 222.312 144.672 217.256C123.726 213.442 102.624 205.538 83.9479 205.538C76.6373 205.538 69.7041 206.745 63.289 209.89Z" fill="url(#paint1_linear)"/>
<path d="M63.6655 209.709C86.4074 198.861 115.68 211.983 144.671 217.256C172.459 222.312 203.478 226.634 237.747 206.821C238.003 206.665 238.793 206.202 238.793 206.202C238.793 206.202 231.709 206.861 221.234 207.002C210.753 207.138 189.133 206.257 176.022 205.145C148.429 202.811 127.614 201.246 110.945 201.241C90.6034 201.241 76.4452 203.575 63.6655 209.709ZM63.2881 209.89C63.4139 209.829 63.5397 209.764 63.6655 209.709C63.5397 209.764 63.4139 209.829 63.2881 209.89Z" fill="url(#paint2_linear)"/>
<path d="M292.266 114.178C278.39 115.848 262.199 115.572 245.625 114.857C231.07 114.233 215.568 113.267 200.021 112.493C173.692 111.174 139.619 124.563 121.204 142.807C121.204 142.807 121.989 142.344 122.251 142.193C156.514 122.379 187.533 126.696 215.326 131.753C244.473 137.056 273.912 150.293 296.709 139.124C297.58 138.696 298.234 138.329 299.225 137.77C299.225 137.77 302.963 132.477 307.119 125.886C310.943 119.798 315.094 112.608 317.74 107.451C318.093 106.757 318.998 105.001 318.998 105.001C312.055 110.017 303.592 112.815 292.266 114.178Z" fill="url(#paint3_linear)"/>
<path d="M122.251 142.193C121.989 142.344 121.204 142.807 121.204 142.807C121.204 142.807 128.288 142.152 138.764 142.017C149.244 141.876 170.859 142.751 183.976 143.868C245.248 149.051 273.082 150.454 296.337 139.305C273.59 150.147 244.317 137.031 215.326 131.753C203.251 129.559 190.567 127.501 177.279 127.496C159.971 127.496 141.632 130.983 122.251 142.193ZM296.337 139.305C296.463 139.244 296.583 139.184 296.709 139.124C296.583 139.179 296.463 139.244 296.337 139.305Z" fill="url(#paint4_linear)"/>
<path d="M188.117 159.707C159.77 157.508 130.713 155.304 104.465 159.098C93.5717 170.127 83.4183 181.528 74.0801 193.351C100.611 183.711 135.609 186.514 171.76 189.321C200.142 191.52 229.228 193.724 255.502 189.905C262.013 183.817 281.152 162.071 285.841 155.666C259.291 165.322 224.277 162.514 188.117 159.707Z" fill="url(#paint5_linear)"/>
<defs>
<linearGradient id="paint0_linear" x1="180" y1="0" x2="180" y2="360" gradientUnits="userSpaceOnUse">
<stop stop-color="#28469D" stop-opacity="0.15"/>
<stop offset="0.484375" stop-color="#F1441E" stop-opacity="0.15"/>
<stop offset="1" stop-color="#259442" stop-opacity="0.15"/>
</linearGradient>
<linearGradient id="paint1_linear" x1="179.895" y1="265.104" x2="93.4029" y2="178.612" gradientUnits="userSpaceOnUse">
<stop stop-color="#AECA24"/>
<stop offset="1" stop-color="#168E44"/>
</linearGradient>
<linearGradient id="paint2_linear" x1="238.794" y1="211.377" x2="63.2882" y2="211.377" gradientUnits="userSpaceOnUse">
<stop stop-color="#AECA24"/>
<stop offset="0.589571" stop-color="#168E44"/>
<stop offset="0.8" stop-color="#168E44"/>
<stop offset="1" stop-color="#168E44"/>
</linearGradient>
<linearGradient id="paint3_linear" x1="190.24" y1="94.0443" x2="254.515" y2="158.32" gradientUnits="userSpaceOnUse">
<stop stop-color="#3993D7"/>
<stop offset="1" stop-color="#27459C"/>
</linearGradient>
<linearGradient id="paint4_linear" x1="121.203" y1="137.634" x2="296.709" y2="137.634" gradientUnits="userSpaceOnUse">
<stop stop-color="#3993D7"/>
<stop offset="0.8" stop-color="#27459C"/>
<stop offset="1" stop-color="#27459C"/>
</linearGradient>
<linearGradient id="paint5_linear" x1="154.241" y1="148.789" x2="216.607" y2="211.155" gradientUnits="userSpaceOnUse">
<stop stop-color="#F0431E"/>
<stop offset="0.9" stop-color="#F78F1F"/>
<stop offset="1" stop-color="#F78F1F"/>
</linearGradient>
</defs>
</svg>
