<svg width="360" height="360" viewBox="0 0 360 360" fill="none" xmlns="http://www.w3.org/2000/svg">
<rect width="360" height="360" rx="82" fill="#000099"/>
<path d="M260.173 168.368C260.173 138.188 232.511 94.7969 179.06 94.7969C130.639 94.7969 97.9397 136.301 97.9397 179.06C97.9397 229.992 133.158 266.459 193.519 266.459H307.962C280.925 308.587 233.767 335.631 179.684 335.631C94.1729 335.631 25 265.835 25 180.316C25 94.7971 94.1729 25 179.684 25C265.203 25 335 94.7971 335 180.316C335 197.293 331.857 213.639 327.458 228.737H154.534V211.752L215.526 209.872C246.338 208.609 260.173 192.895 260.173 168.369" fill="white"/>
</svg>
