<svg width="360" height="360" viewBox="0 0 360 360" fill="none" xmlns="http://www.w3.org/2000/svg">
<rect width="360" height="360" rx="82" fill="#91C717"/>
<path d="M136.668 136.033H135.335C132.168 136.033 129.668 137.367 128.001 139.367V136.7H118.668V171.7H128.501V150.867C128.668 150.533 129.335 149.533 130.335 148.7C131.335 147.7 132.835 146.867 134.001 146.867C134.001 146.867 134.001 146.867 134.168 146.867C134.668 146.867 135.001 146.867 135.168 146.867L135.835 147.033L136.668 147.2V136.033Z" fill="white"/>
<path d="M165.668 170.033C165.335 168.867 165.168 167.367 165.168 165.7V150.533C165.168 150.367 165.168 150.2 165.168 150.033C165.168 145.2 164.168 141.7 161.835 139.367C159.668 137.033 156.335 136.033 152.001 136.033C151.835 136.033 151.835 136.033 151.668 136.033C146.835 136.033 141.668 138.7 139.501 142.7L139.168 143.2L138.835 143.7L145.501 149.033L146.335 147.867C147.668 145.867 149.168 144.533 152.001 144.367C154.168 144.533 155.168 145.2 155.168 146.867V148.533C143.835 150.033 137.668 154.367 137.668 162.367C137.668 164.867 138.501 167.367 140.001 169.2C141.668 171.033 144.001 172.367 147.168 172.367C150.501 172.367 153.168 171.367 155.668 169.867L156.001 171.867H166.001L165.668 170.033ZM155.335 161.367C153.835 162.533 151.335 164.2 150.001 164.033C148.501 163.867 147.835 163.367 147.668 161.533C147.668 159.867 148.501 159.033 150.168 158.033C151.501 157.367 153.335 156.867 155.335 156.533V161.367Z" fill="white"/>
<path d="M114.832 162.533L113.332 162.867C112.165 163.2 111.165 163.533 110.332 163.533C109.499 163.533 109.165 163.367 109.165 163.367C109.165 163.367 108.999 163.033 108.999 162.533V145.533H114.999V136.7H108.999V127.2H99.1654V136.533H94.832V145.533H98.9987V163.533C98.9987 163.533 98.9987 163.533 98.9987 163.7C98.9987 166.2 99.4987 168.367 100.999 170.033C102.499 171.7 104.832 172.533 107.665 172.533C109.832 172.533 114.165 172.033 114.165 172.033H114.665V162.533H114.832Z" fill="white"/>
<path d="M83.1661 171.7H93.9995L83.9994 153.533L93.1661 136.7H82.3328L78.8327 144.033L75.3327 136.7H64.3327L73.6661 153.533L63.666 171.7H74.6661L78.8327 163.2L83.1661 171.7Z" fill="white"/>
<path d="M188.333 163.033C184.166 163.033 182.166 160.867 180.333 156.7L179.999 156.2L179.666 155.533L170.666 159.7L171.166 160.867C173.833 168.033 180.833 172.367 188.333 172.367C193.166 172.367 197.333 171.2 200.166 168.533C202.999 165.867 204.5 162.033 204.5 157.2C204.5 149.033 198.333 145.367 192.833 143.033C189.999 141.867 187.499 140.867 185.499 139.867C183.499 138.867 182.499 137.7 182.666 136.7C182.666 136.7 182.666 136.7 182.666 136.533C182.833 133.867 184.166 133.033 187.499 132.867C190.833 132.867 192.666 134.7 193.833 137.867L193.999 138.367L194.166 139.033L203 136.2L203.833 135.867H203.999L203.833 135.367L203.666 134.867L203.499 134.7C200.833 127.7 194.666 123.7 187.333 123.7C179.499 123.7 172.333 128.7 172.333 137.533C172.333 145.367 178.666 148.7 183.999 151.033C189.666 153.367 194.333 155.367 194.166 158.2V158.367C194.166 161.867 192.166 162.867 188.333 163.033Z" fill="white"/>
<path d="M42.6667 153.2H57.1668V143.867H42.6667V136.2H62.6668V126.867H32V171.7H63.3335V162.367H42.6667V153.2Z" fill="white"/>
<path d="M292.999 159.033C291.499 161.867 290.166 163.533 287.666 163.533C285.833 163.533 284.833 163.033 283.999 161.533C283.166 160.2 282.666 157.7 282.666 154.2C282.666 150.7 283.166 148.2 283.999 146.867C284.833 145.533 285.833 144.867 287.499 144.867C290.333 145.033 290.999 146.2 292.333 149.033L292.499 149.533L292.833 150.2L293.999 149.7L301.166 146.7L300.833 145.533C298.999 139.533 293.833 135.867 287.666 136.033C283.166 136.033 279.499 137.867 276.999 141.033C274.499 144.2 273.166 148.7 273.166 154.2C273.166 159.533 274.499 164.033 276.999 167.2C279.499 170.533 283.333 172.2 287.666 172.2H287.833C293.666 172.2 297.999 169.367 300.833 163.367L301.166 162.867L301.499 162.367L293.833 157.7L292.999 159.033Z" fill="white"/>
<path d="M224.668 136.2C222.001 136.2 220.001 137.033 218.168 138.367V136.867H208.668V137.533V183.7H218.501V170.367C220.335 171.7 222.668 172.533 224.835 172.533C233.668 172.533 238.335 163.533 238.335 155.2C238.335 144.867 233.835 136.2 224.668 136.2ZM222.835 163.533C221.168 163.533 219.668 162.7 218.501 161.533V147.2C220.001 145.867 220.501 145.033 222.835 145.033C226.335 145.033 228.335 147.7 228.335 154.367C228.335 160.867 226.335 163.533 222.835 163.533Z" fill="white"/>
<path d="M324.666 159.2L323.999 160.034C322.166 162.2 321.166 163.367 318.166 163.367C315.666 163.2 313.666 162.034 313.166 156.7H331.499V152.2C331.499 144.034 326.666 136.034 317.833 136.034H317.666C313.166 136.034 309.499 137.867 306.999 141.034C304.499 144.2 303.166 148.7 303.166 154.2C303.166 159.534 304.499 164.034 306.999 167.2C309.499 170.534 313.166 172.367 317.499 172.367C323.666 172.367 328.333 170.2 331.333 165.2L331.666 164.7L331.999 164.2L324.666 159.2ZM317.499 144.534C319.999 144.7 321.499 145.867 321.999 149.034H312.999C313.666 145.867 314.999 144.534 317.499 144.534Z" fill="white"/>
<path d="M269.168 170.033C268.835 168.867 268.668 167.367 268.668 165.7V150.533C268.668 150.367 268.668 150.2 268.668 150.033C268.668 145.2 267.668 141.7 265.335 139.367C263.168 137.033 259.835 136.033 255.501 136.033C255.335 136.033 255.335 136.033 255.168 136.033C250.335 136.033 245.168 138.7 243.001 142.7L242.668 143.2L242.335 143.7L249.001 149.033L249.835 147.867C251.168 145.867 252.668 144.533 255.501 144.367C257.835 144.533 258.668 145.2 258.668 146.867V148.533C247.335 150.033 241.168 154.367 241.168 162.367C241.168 164.867 242.001 167.367 243.501 169.2C245.168 171.033 247.501 172.367 250.668 172.367C254.001 172.367 256.668 171.367 259.168 169.867L259.501 171.867H269.501L269.168 170.033ZM258.835 161.367C257.335 162.533 255.335 164.2 253.835 164.033H253.335C251.835 163.867 251.168 163.367 251.001 161.533C251.001 159.867 251.835 159.033 253.501 158.033C254.835 157.367 256.668 156.867 258.668 156.533V161.367H258.835Z" fill="white"/>
<path d="M106.499 219.367C106.499 228.367 98.8321 233.367 90.8321 233.367H90.6654H90.4988C81.3321 233.367 75.4987 228.701 72.832 219.701L72.332 218.201L77.6654 216.534L79.1654 216.034L79.3321 216.701L79.4987 217.534C81.3321 224.201 84.3321 226.534 91.3321 226.701C96.4988 226.534 98.9988 223.867 99.1655 218.867C99.1655 216.201 97.9988 214.867 95.8321 213.367C93.6655 212.034 90.6654 210.867 87.4988 209.701C81.3321 207.534 73.9987 204.367 73.832 195.534C73.832 191.7 75.1654 188.2 77.8321 185.7C80.4987 183.2 84.1654 181.867 88.8321 181.867C88.8321 181.867 88.8321 181.867 88.9988 181.867C96.8321 181.867 102.999 186.534 105.166 194.2L105.666 195.7L99.1655 197.7L98.9988 197.034L98.6655 196.367C96.9988 191.534 94.1655 188.534 88.8321 188.534C83.9987 188.7 81.3321 190.867 81.1654 195.7C81.1654 197.034 81.1654 197.867 82.3321 199.034C83.3321 200.034 85.4987 201.367 89.8321 203.034C102.832 207.701 106.499 211.867 106.499 219.201C106.499 219.201 106.499 219.201 106.499 219.367Z" fill="white"/>
<path d="M130.5 200.867V201.534H123.333V224.534C123.333 225.534 123.5 225.867 123.667 226.034C123.833 226.201 124.167 226.367 125.167 226.367C126.167 226.367 127.5 226.034 128.667 225.701L130.667 225.034V231.534L130 231.701L129.333 231.867C128.167 232.034 126.833 232.367 125.167 232.534C122.333 232.534 120.167 232.034 118.667 230.701C117.167 229.367 116.5 227.367 116.5 225.201V201.534H111.5V195.534H116.5V184.7H123.333V195.534H130.5V200.867Z" fill="white"/>
<path d="M161.835 201.2C159.501 197.7 155.668 195.367 150.168 195.367C150.168 195.367 150.168 195.367 150.001 195.367C144.668 195.367 140.668 197.7 138.335 201.2C136.001 204.7 135.168 209.2 135.168 213.867C135.168 218.534 136.001 223.034 138.335 226.534C140.668 230.034 144.501 232.367 150.001 232.367C155.335 232.367 159.335 230.034 161.668 226.534C164.001 223.034 164.835 218.534 164.835 213.867C164.835 209.2 164.168 204.7 161.835 201.2ZM150.001 226.367C144.335 226.2 142.001 222.534 141.835 213.867C142.001 205.2 144.335 201.367 150.001 201.367C155.668 201.534 158.001 205.2 158.168 213.867C158.001 222.534 155.835 226.2 150.001 226.367Z" fill="white"/>
<path d="M188.669 201.201V201.867H188.003H187.169H185.503C184.003 201.867 182.003 202.867 180.336 204.701C178.669 206.534 177.503 208.867 177.503 211.701V231.701H170.836V195.867H177.503V198.867C179.669 196.701 182.336 195.201 185.503 195.201H188.669V201.201Z" fill="white"/>
<path d="M218.835 230.034C218.502 227.867 218.335 225.867 218.335 224.367V206.867C218.335 203.034 217.335 200.034 215.169 198.034C213.002 196.034 209.835 195.201 206.002 195.201H205.835C200.169 195.201 195.502 197.701 192.502 203.367L192.169 204.034L191.835 204.701L196.835 207.701L197.669 206.534C199.835 203.034 202.502 201.367 205.835 201.367C208.502 201.367 209.835 201.867 210.669 202.534C211.502 203.201 211.669 204.367 211.835 206.367V207.534C205.669 208.867 200.669 210.034 197.169 212.034C193.335 214.034 191.002 217.367 191.002 222.201C191.002 225.201 192.169 227.867 194.002 229.534C195.835 231.367 198.502 232.201 201.335 232.201C201.335 232.201 201.335 232.201 201.502 232.201C205.835 232.201 208.835 231.034 212.002 228.867L212.335 231.534H213.002H219.002L218.835 230.034ZM211.669 221.701C208.669 224.534 204.835 226.201 202.169 226.201C199.335 226.034 198.002 224.867 197.835 222.034C197.835 220.201 198.002 219.201 200.169 217.701C202.002 216.367 205.669 214.867 211.835 213.367V221.701H211.669Z" fill="white"/>
<path d="M257.167 232.867C257.167 229.867 255.834 227.034 253.167 225.367C250.501 223.7 246.834 222.867 241.834 222.867C237.501 222.867 235.001 222.534 234.001 222.2C233.834 222.034 233.501 222.034 233.501 221.867C233.334 221.867 233.334 221.867 233.334 221.7C233.334 221.7 233.334 221.534 233.334 221.2C233.334 220.867 233.667 220.2 234.834 219.7C236.334 220.2 238.001 220.534 240.001 220.534C243.667 220.534 247.167 219.7 249.834 217.534C252.501 215.367 254.001 212.034 254.001 207.7C254.001 205.034 253.334 203.034 252.334 201.367C253.167 201.034 254.334 200.867 255.334 200.867C255.334 200.867 255.334 200.867 255.501 200.867H256.334H257.001V199.367V194.534H255.501C253.001 194.534 250.501 195.367 248.501 197.034C246.501 195.867 244.001 195.2 241.167 195.2C237.001 195.2 233.334 196.367 230.834 198.867C228.334 201.2 226.834 204.534 226.834 208.534C226.834 208.534 226.834 208.534 226.834 208.7C226.834 211.7 228.001 214.7 230.167 216.867C228.167 218.034 226.667 220.2 226.667 222.867V223.034C226.667 225.034 227.667 226.534 229.001 227.534C226.334 229.367 225.334 231.7 225.334 234.2V234.367V234.534C225.334 236.867 226.334 239.367 228.834 241.034C231.334 242.7 235.167 243.7 241.001 243.7C246.834 243.7 250.834 242.7 253.501 240.7C256.001 238.534 257.167 235.7 257.167 232.867C257.167 233.034 257.167 233.034 257.167 232.867ZM240.501 201.2C245.334 201.367 247.167 203.034 247.501 208.2C247.334 213.2 245.334 214.7 240.501 214.867C236.334 214.7 233.667 213.034 233.501 208.2C233.667 203.7 235.834 201.367 240.501 201.2ZM248.501 236.034C247.001 236.867 244.334 237.367 240.334 237.367C237.167 237.367 235.001 236.867 233.667 236.034C232.334 235.2 232.001 234.534 232.001 233.367C232.167 231.534 233.001 229.534 240.167 229.367C244.834 229.367 247.667 230.034 249.001 230.867C250.334 231.7 250.501 232.2 250.501 233.367C250.501 234.367 250.167 235.034 248.501 236.034Z" fill="white"/>
<path d="M286 219.201L285.333 220.367C282 225.534 280.833 226.201 277 226.367C271.167 226.367 268.5 221.867 268.167 215.367H290.667V213.867C290.667 208.534 289.667 204.034 287.167 200.534C284.833 197.201 281 195.201 276.167 195.201C271.667 195.201 267.833 197.201 265.333 200.534C262.833 203.867 261.5 208.367 261.5 213.701C261.5 219.701 262.833 224.367 265.667 227.534C268.333 230.701 272.333 232.201 276.833 232.201H277H277.167C283.5 232.201 287.5 229.367 290.833 223.534L291.333 222.867L291.667 222.201L286 219.201ZM275.833 201.201C276 201.367 276 201.367 275.833 201.201C280.333 201.367 282.667 203.867 283.667 209.367H268.167C268.667 205.701 271.333 201.201 275.833 201.201Z" fill="white"/>
</svg>
