<svg width="360" height="360" viewBox="0 0 360 360" fill="none" xmlns="http://www.w3.org/2000/svg">
<rect width="360" height="360" rx="82" fill="#003478"/>
<path d="M281.806 204.353C281.876 204.797 282.459 205.223 283.023 205.424C283.231 205.493 283.333 205.632 283.116 206.104C281.506 209.556 280.025 211.546 278.006 214.545C276.149 217.316 274.057 219.478 271.525 221.558C267.705 224.719 262.4 228.159 258.014 225.846C256.067 224.835 255.223 222.109 255.261 219.902C255.354 213.695 258.115 207.323 263.213 201.061C269.429 193.409 276.3 189.44 280.81 191.609C285.476 193.835 283.987 199.236 281.897 203.476C281.735 203.805 281.735 204.082 281.805 204.351L281.806 204.353ZM331.872 155.991C332.208 155.399 331.855 154.966 331.107 154.966C327.21 154.966 322.097 154.975 318.036 154.975C317.069 154.975 316.57 155.09 316.114 155.993C314.615 158.864 296.35 186.238 292.95 191.553C292.377 192.363 291.678 192.249 291.597 191.322C291.252 188.165 288.526 184.535 284.23 182.799C280.956 181.471 277.756 181.23 274.428 181.672C268.421 182.479 263.069 185.648 258.363 189.222C251.272 194.613 245.153 201.601 237.254 206.764C232.943 209.575 227.038 212.026 223.087 208.367C219.511 205.052 219.915 197.689 225.386 191.994C225.962 191.397 226.654 191.902 226.545 192.431C226.029 195.007 226.661 197.568 228.618 199.364C231.004 201.504 234.42 201.745 237.344 200.317C240.794 198.607 242.821 195.307 243.412 191.56C244.326 185.749 239.853 180.623 234.255 180.212C229.708 179.892 225.347 181.475 221.098 184.982C218.967 186.749 217.758 188.055 215.915 190.675C215.466 191.32 214.777 191.385 214.798 190.432C215.006 182.991 211.931 178.805 205.78 178.668C201.005 178.553 195.905 181.145 191.929 184.315C187.57 187.815 183.759 192.454 179.673 196.812C179.164 197.349 178.723 197.324 178.579 196.283C178.463 191.353 177.217 186.578 174.935 183.187C174.128 182.007 172.428 181.424 171.001 182.22C170.341 182.581 168.048 183.636 166.378 184.98C165.55 185.663 165.226 186.651 165.594 187.917C167.796 195.282 167.312 203.656 164.324 210.728C161.58 217.206 156.247 223.048 149.98 225.025C145.851 226.335 141.559 225.694 138.903 222.033C135.255 216.982 136.728 208.196 142.166 200.901C146.964 194.477 153.906 190.397 160.829 187.769C161.643 187.454 161.812 186.932 161.581 186.24C161.206 185.102 160.605 183.552 160.362 182.844C159.726 181.153 157.948 180.88 155.777 181.116C150.746 181.701 146.208 183.425 141.726 185.825C129.987 192.111 124.102 204.276 121.523 210.785C120.281 213.911 119.219 215.861 117.847 217.591C115.996 219.917 113.673 222.034 109.426 225.764C109.042 226.107 108.755 226.819 109.079 227.483C109.512 228.381 111.721 231.501 112.344 231.779C113.036 232.119 113.838 231.64 114.16 231.413C117.132 229.398 120.688 226.205 122.428 224.039C123.039 223.297 123.666 223.609 123.99 224.736C125.614 230.529 129.866 235.26 135.746 237.239C146.509 240.868 157.672 235.615 166.098 226.469C171.454 220.655 173.386 216.916 175.439 214.375C178.918 210.065 185.78 200.423 193.953 194.232C196.95 191.949 200.497 190.208 202.28 191.364C203.712 192.292 204.175 194.448 201.878 198.625C193.545 213.842 181.284 231.72 179.036 236.055C178.624 236.807 178.99 237.399 179.771 237.399C184.132 237.378 188.455 237.389 192.413 237.389C193.072 237.365 193.366 237.055 193.697 236.59C200.092 226.58 206.11 217.053 212.561 207.202C212.922 206.622 213.255 207.063 213.269 207.318C213.408 209.603 213.963 212.729 215.321 214.782C217.759 218.577 221.215 220.207 225.047 220.232C228.097 220.278 229.639 219.804 232.928 218.576C235.604 217.583 237.751 216.281 239.4 215.102C240.362 214.431 240.531 215.553 240.508 215.725C239.028 223.671 240.855 233.088 248.753 236.992C258.205 241.652 268.589 235.102 274.564 229.188C275.15 228.619 275.776 228.679 275.836 229.908C275.975 232.166 276.984 234.845 278.852 236.72C283.859 241.745 293.962 239.753 304.102 231.905C310.612 226.88 317.424 219.781 323.577 212.263C323.808 211.972 323.975 211.504 323.531 211.03C322.594 210.049 321.238 208.927 320.309 208.063C319.886 207.703 319.264 207.807 318.907 208.076C312.6 214.074 306.923 220.915 298.717 226.572C295.95 228.503 291.539 230.062 289.558 227.379C288.786 226.338 288.874 224.899 289.628 223.009C292.02 217.043 329.898 159.375 331.864 155.974" fill="white"/>
<path d="M153.684 162.947C153.846 163.803 154.179 163.969 154.568 163.898C156.497 163.511 158.609 161.924 159.859 160.085C160.997 158.417 161.531 156.01 160.4 155.045C159.391 154.178 157.749 154.423 156.532 155.499C154.107 157.641 153.371 160.68 153.683 162.948L153.684 162.947ZM57.144 237.18C43.021 237.273 30.5788 228.551 29.151 213.442C28.3576 205.069 30.7241 197.608 35.462 191.46C39.6662 185.983 46.78 181.432 52.8016 180.32C54.7609 179.961 57.3937 180.181 58.4821 181.486C60.1893 183.473 59.6987 185.656 57.9915 186.527C53.3975 188.872 47.8697 192.888 45.1344 198.371C42.916 202.846 42.4677 208.24 45.8563 213.378C51.5278 221.941 67.3372 222.176 82.0366 208.52C85.6771 205.178 88.9348 201.966 92.2463 198.163C98.7206 190.76 100.874 188.063 109.48 176.125C109.573 175.986 109.619 175.806 109.572 175.718C109.503 175.556 109.388 175.533 109.131 175.51C103.386 175.672 98.3768 177.381 93.5082 181.02C92.1064 182.042 90.0885 181.899 89.205 180.552C88.2219 179.03 88.9276 177.049 90.5446 175.93C98.3765 170.483 106.932 169.495 115.669 168.02C115.662 168.02 116.275 168.043 116.775 167.386C120.362 162.783 123.07 158.631 126.893 153.976C130.746 149.253 135.722 144.916 139.524 141.658C144.831 137.095 148.234 135.559 151.693 133.677C152.605 133.201 151.578 132.632 151.3 132.632C131.988 129.002 111.916 124.305 92.737 131.405C79.4544 136.362 73.6336 146.895 76.4334 153.934C78.4252 158.926 84.9913 159.738 91.1387 156.73C96.2444 154.228 100.969 150.196 104.319 145.006C106.192 142.124 110.141 144.203 108.008 149.208C102.395 162.399 91.6738 172.862 78.6138 173.304C67.499 173.665 60.3278 165.488 60.3512 155.401C60.3974 135.504 82.547 122.397 105.826 120.438C133.86 118.121 160.412 125.589 188.247 128.965C209.573 131.548 230.02 131.601 251.456 126.677C253.99 126.126 255.768 127.743 255.603 130.303C255.395 134.002 252.528 137.566 245.468 141.416C237.439 145.82 229.039 147.156 220.266 147.228C199.053 147.413 179.292 139.135 158.844 134.692C158.867 135.587 159.103 136.654 158.354 137.219C147.027 145.573 136.789 154.057 129.932 165.973C129.701 166.249 129.816 166.51 130.226 166.482C136.179 166.166 141.533 166.013 147.091 165.569C148.063 165.476 148.1 165.245 148.014 164.537C147.521 160.43 148.722 155.746 152.335 152.524C156.033 149.209 160.663 148.832 163.732 151.219C167.221 153.939 166.912 158.829 165.004 162.496C163.061 166.217 159.852 168.207 156.772 169.173C156.772 169.173 156.124 169.312 156.221 169.9C156.337 170.839 160.539 173.164 160.898 173.784C161.245 174.374 161.06 175.288 160.428 175.989C159.984 176.498 159.288 176.974 158.397 176.958C157.678 176.944 157.241 176.694 156.32 176.197C154.437 175.177 152.084 173.499 150.514 171.522C149.979 170.853 149.706 170.84 148.372 170.914C142.357 171.261 132.979 172.168 126.625 172.961C125.084 173.146 124.858 173.44 124.541 173.974C114.41 190.68 103.593 208.695 91.7168 220.756C78.9784 233.688 68.3898 237.093 57.1493 237.181" fill="white"/>
</svg>
