<svg width="360" height="360" viewBox="0 0 360 360" fill="none" xmlns="http://www.w3.org/2000/svg">
<rect width="360" height="360" rx="82" fill="#111AFD"/>
<path d="M30 215.476H45.7772V187.965H100.899V174.16H45.7772V158.284H100.8V144.479H30V215.476Z" fill="white"/>
<path d="M163.191 215.476H181.532L139.23 144.479H121.481L79.2766 215.476H97.6176L108.267 197.431H152.542L163.191 215.476ZM130.355 160.059L144.456 183.626H116.254L130.355 160.059Z" fill="white"/>
<path d="M236.889 144.479V192.501L182.753 144.479H169.737V215.476H185.514V167.455L239.65 215.476H252.666V144.479H236.889Z" fill="white"/>
<path d="M291.261 175.738V189.543H315.223V199.601C309.701 201.178 302.7 202.164 293.924 202.164C271.638 202.164 260.594 194.473 260.594 179.682C260.594 166.271 273.906 157.495 293.924 157.692C304.573 157.791 314.631 160.453 323.802 166.074L329.718 152.565C317.294 144.38 303.587 143 292.346 143C263.454 143 244.324 157.495 244.324 179.78C244.324 203.643 262.074 216.955 292.346 216.955C302.404 216.955 316.012 215.673 331 209.856V175.738H291.261Z" fill="white"/>
</svg>
