<svg width="360" height="360" viewBox="0 0 360 360" fill="none" xmlns="http://www.w3.org/2000/svg">
<rect width="360" height="360" rx="82" fill="#1A64B7"/>
<path d="M153.302 191.376H137.615L156.478 152.959H156.782L153.302 191.376ZM330 137.463H259.863L257.676 145.091C253.725 139.122 245.201 135.505 232.033 135.505C211.022 135.505 195.585 143.695 190.989 159.728C188.84 167.237 190.262 172.454 193.95 176.775C197.782 181.097 203.919 184.392 211.249 187.914C217.469 191.101 224.775 193.823 222.709 200.986C221.481 205.296 217.469 209.51 211.105 209.51C202.546 209.51 201.627 205.177 203.035 200.282L204.765 194.241L179.682 194.275L177.939 200.34L177.533 137.461H144.93L126.235 169.575L131.273 152.002H86.3608L92.151 131.85H140.954L147.509 109H62.6753L30 222.891H66.0181L79.8065 174.852H123.155L95.1831 222.903H122.402L130.365 206.416H151.592L150.708 222.903H178.083L178.049 214.618C181.44 220.635 190.226 224.861 206.164 224.861C228.643 224.861 243.566 215.764 248.258 199.385C251.229 189.046 249.165 183.364 244.104 179.054C239.03 174.732 231.103 171.772 222.304 167.008C217.577 164.274 214.759 161.66 216.992 156.55C218.701 152.802 222.603 150.521 228.094 150.868C236.976 151.321 234.708 158.138 233.586 163.14H258.513C259.623 160.071 260.195 157.183 260.256 154.497H276.217L256.579 222.903H283.655L303.281 154.497H321.678L330 137.463Z" fill="white"/>
</svg>
