<svg width="360" height="360" viewBox="0 0 360 360" fill="none" xmlns="http://www.w3.org/2000/svg">
<rect width="360" height="360" rx="82" fill="#2A007C"/>
<path d="M283.963 157.274L296.33 170.903L308.236 157.274H333.659L308.813 185.214L334 213.382H307.551L295.3 199.645L283.162 213.382H257.622L282.589 185.33L257.622 157.274H283.963Z" fill="#FF5900"/>
<path d="M257.616 157.275V176.233H229.34V193.629H257.616V213.383H208.56V125H257.616V144.701H229.34V157.275H257.616Z" fill="#FF5900"/>
<path d="M187.868 125V161.171H187.639C183.055 155.905 177.332 154.074 170.692 154.074C157.087 154.074 146.838 163.326 143.242 175.552C139.135 162.08 128.554 153.82 112.864 153.82C100.124 153.82 90.0616 159.539 84.8125 168.857V157.275H58.4756V144.701H87.2169V125H35V213.383H58.4756V176.233H81.8765C81.1788 178.961 80.805 181.885 80.805 184.97C80.805 203.404 94.8912 216.344 112.864 216.344C127.981 216.344 137.943 209.247 143.209 196.311H123.089C120.368 200.202 118.305 201.353 112.864 201.353C106.556 201.353 101.116 195.85 101.116 189.326H142.083C143.861 203.969 155.268 216.598 170.92 216.598C177.673 216.598 183.856 213.275 187.635 207.669H187.863V213.392H208.557V125H187.868ZM101.772 176.494C103.076 170.88 107.433 167.213 112.869 167.213C118.853 167.213 122.985 170.768 124.073 176.494C124.53 176.494 101.772 176.494 101.772 176.494ZM175.305 199.928C167.677 199.928 162.934 192.819 162.934 185.398C162.934 177.466 167.058 169.837 175.305 169.837C183.856 169.837 187.261 177.466 187.261 185.398C187.261 192.919 183.653 199.928 175.305 199.928Z" fill="white"/>
</svg>
