<svg width="360" height="360" viewBox="0 0 360 360" fill="none" xmlns="http://www.w3.org/2000/svg">
<rect width="360" height="360" rx="82" fill="#E21D38"/>
<path d="M180 335C265.604 335 335 265.604 335 180C335 94.3959 265.604 25 180 25C94.3959 25 25 94.3959 25 180C25 265.604 94.3959 335 180 335Z" fill="white"/>
<path d="M176.43 195.29C252.534 201.574 281.858 222.52 280.462 251.146C279.065 266.506 264.403 281.169 245.552 282.565C223.209 283.961 212.736 274.885 206.453 265.11C200.867 256.033 194.583 246.957 188.299 237.182C186.903 234.389 184.11 236.484 182.016 237.88C177.128 242.069 172.939 246.957 168.75 251.146C165.957 253.939 166.655 256.033 167.353 258.128C171.543 267.903 175.732 277.678 179.921 286.754C186.903 290.943 218.322 296.529 241.362 294.434C257.421 293.038 276.971 286.754 293.727 274.885C309.786 262.317 321.655 245.56 323.75 218.331C324.448 201.574 321.655 184.119 306.993 168.06C292.331 152.002 267.196 138.736 216.227 135.245C219.02 126.867 221.115 119.187 223.907 111.506C254.628 112.903 281.858 114.997 304.898 117.79C306.993 108.714 307.691 100.335 309.786 91.9568L303.502 84.2766C291.633 82.8802 280.462 80.0874 267.894 78.691C251.835 76.5964 235.079 75.2 216.925 74.5018C205.056 108.015 191.092 150.605 176.43 195.29ZM156.182 64.7271C150.597 64.7271 142.916 66.1235 130.349 68.9162C103.119 76.5964 69.6057 95.4478 66.1147 126.867C65.4165 131.754 65.4165 137.34 64.7183 142.227C57.0381 142.925 50.0561 143.623 43.0741 144.322C42.3759 150.605 42.3759 156.191 41.6777 162.475C48.6597 161.777 55.6417 161.777 63.3219 161.078C61.9255 193.894 63.3219 226.709 66.1147 257.43C66.8129 262.317 66.8129 266.506 66.8129 269.299C66.1147 272.092 61.2273 273.488 54.2453 273.488L63.3219 284.659C89.8534 289.547 123.367 293.038 158.975 293.736C158.975 290.245 158.975 286.754 158.975 283.263C138.029 281.867 128.254 279.074 126.858 274.885C125.462 271.394 125.462 266.506 124.763 261.619C123.367 229.502 122.669 194.592 123.367 158.984C135.236 158.984 147.106 158.984 158.975 158.286C165.259 155.493 170.844 152.7 176.43 149.907C176.43 145.718 176.43 141.529 176.43 138.038C158.277 138.038 140.822 138.736 123.367 138.736C124.065 124.074 124.763 110.11 125.462 96.8442C126.16 87.7676 132.443 81.4838 138.029 81.4838C147.804 80.7856 156.88 84.9748 165.957 89.164C170.844 91.2586 175.732 94.0514 180.619 96.146C182.714 96.8442 185.507 97.5424 187.601 95.4478C190.394 91.9568 193.187 88.4658 195.98 85.673C197.376 83.5784 196.678 82.182 195.98 81.4838C189.696 76.5964 184.11 72.4072 177.826 67.5199C174.335 64.7271 168.052 64.7271 162.466 64.7271C160.371 64.0289 158.277 64.7271 156.182 64.7271Z" fill="#E21D38"/>
</svg>
