<svg width="360" height="360" viewBox="0 0 360 360" fill="none" xmlns="http://www.w3.org/2000/svg">
<rect width="360" height="360" rx="82" fill="#DF0086"/>
<path d="M326.456 155.873C326.456 152.284 323.551 149.374 319.962 149.374H244.98C231.308 149.374 220.194 159.91 220.194 173.585C220.194 187.259 231.308 197.793 244.98 197.793H305.203C311.064 197.793 315.827 203.15 315.827 209.005C315.827 214.866 311.064 220.223 305.203 220.223H230.227C226.643 220.223 223.732 223.133 223.732 226.714C223.732 230.306 226.643 233.208 230.227 233.208H305.203C318.875 233.208 330 222.677 330 209.005C330 195.331 318.875 184.802 305.203 184.802H244.98C239.13 184.802 234.362 179.44 234.362 173.585C234.362 167.727 239.13 162.372 244.98 162.372H319.962C323.551 162.372 326.456 159.462 326.456 155.873Z" fill="#8DC63F"/>
<path d="M194.214 120.447C194.214 115.233 189.986 111 184.767 111C179.548 111 175.32 115.233 175.32 120.447C175.32 125.669 179.548 129.894 184.767 129.894C189.986 129.894 194.214 125.669 194.214 120.447Z" fill="#8DC63F"/>
<path d="M154.659 129.894C149.44 129.894 145.212 125.666 145.212 120.447C145.212 115.233 149.44 111 154.659 111C159.879 111 164.106 115.233 164.106 120.447C164.106 125.666 159.879 129.894 154.659 129.894Z" fill="#A3CF62"/>
<path d="M124.548 129.894C119.326 129.894 115.101 125.666 115.101 120.447C115.101 115.233 119.326 111 124.548 111C129.764 111 133.994 115.233 133.994 120.447C133.994 125.666 129.764 129.894 124.548 129.894Z" fill="#B9D989"/>
<path d="M94.4377 129.894C89.2212 129.894 84.9907 125.666 84.9907 120.447C84.9907 115.233 89.2212 111 94.4377 111C99.6568 111 103.885 115.233 103.885 120.447C103.885 125.666 99.6568 129.894 94.4377 129.894Z" fill="#CFE5AE"/>
<path d="M64.336 129.894C59.1143 129.894 54.8838 125.666 54.8838 120.447C54.8838 115.233 59.1143 111 64.336 111C69.5498 111 73.7776 115.233 73.7776 120.447C73.7776 125.666 69.5498 129.894 64.336 129.894Z" fill="#E5F1D4"/>
<path d="M142.853 149.379C142.649 149.379 142.455 149.422 142.262 149.437V149.379H78.4979C53.1657 149.379 36 165.962 36 191.294V226.72C36 230.627 39.1649 233.8 43.0773 233.8C46.9949 233.8 50.1624 230.627 50.1624 226.72V191.294C50.1624 173.731 60.7862 162.367 78.4979 162.367H142.262V162.309C142.455 162.328 142.649 162.367 142.853 162.367C146.437 162.367 149.347 159.457 149.347 155.873C149.347 152.29 146.437 149.379 142.853 149.379Z" fill="#8DC63F"/>
<path d="M57.2495 191.294C57.2495 194.883 60.1599 197.794 63.7436 197.794H128.682C132.276 197.794 135.176 194.883 135.176 191.294C135.176 187.708 132.276 184.797 128.682 184.797H63.7436C60.1599 184.797 57.2495 187.708 57.2495 191.294Z" fill="#8DC63F"/>
<path d="M177.684 155.872V226.713C177.684 230.626 180.856 233.804 184.769 233.804C188.681 233.804 191.857 230.626 191.857 226.713V155.872C191.857 151.96 188.681 148.792 184.769 148.792C180.856 148.792 177.684 151.96 177.684 155.872Z" fill="#8DC63F"/>
</svg>
