<svg width="360" height="360" viewBox="0 0 360 360" fill="none" xmlns="http://www.w3.org/2000/svg">
<rect width="360" height="360" rx="82" fill="#281002"/>
<path d="M288.645 137.877L300.556 227.257L312.445 137.877H331L313.646 246.917H287.26L270.09 137.877H288.645Z" fill="#FF6600"/>
<path d="M46.2904 137.877H36V152.367H46.2904V246.917H64.3742V152.367H77.0807V137.877H64.3742V115.713C64.3742 112.479 65.0445 110.004 66.6061 108.31C68.1751 106.631 70.5691 105.835 73.8175 105.835H77.0733V90.9998H70.5322C62.4958 90.9998 54.7541 92.7013 51.071 96.2002C47.388 99.6991 46.2904 105.128 46.2904 112.862V137.877Z" fill="#FF6600"/>
<path d="M82.7227 246.914H100.851V137.874H82.7227V246.914Z" fill="#FF6600"/>
<path d="M184.552 198.565H222.34V164.961C222.296 144.859 212.632 136.616 194.32 136.616C175.278 136.616 166.351 144.837 166.351 165.094V220.317C166.41 238.74 177.562 248.271 194.312 248.271C211.055 248.271 222.296 240.427 222.34 220.317V211.581H204.831L204.853 221.93C204.853 229.311 202.091 234.416 194.681 234.416C187.256 234.416 184.552 229.267 184.552 221.923V198.565ZM184.552 161.344C184.552 155.194 186.151 148.822 194.629 148.822C203.1 148.822 204.816 155.098 204.816 161.337V183.87H184.552V161.344Z" fill="#FF6600"/>
<path d="M141.612 184.925C127.859 172.985 126.791 171.254 126.791 162.356C126.791 154.776 127.447 150.165 134.26 150.165C141.066 150.165 141.95 154.717 141.95 162.444V172.514H159.423V156.087C159.364 143.189 149.442 136.633 133.855 136.633C118.526 136.633 108.53 141.738 108.442 162.356C108.427 165.862 108.449 165.862 108.442 164.507C108.471 170.989 108.501 181.265 124.522 195.01L129.119 198.943C140.926 208.902 142.216 210.103 142.164 221.947C142.157 229.247 141.707 234.779 134.047 234.779C126.386 234.779 125.907 229.203 125.907 225.763V211.812H107.565V226.205C107.565 243.92 119.093 248.303 134.024 248.303C148.97 248.303 160.513 243.876 160.513 221.086V219.192C160.476 203.267 157.596 198.995 141.612 184.925Z" fill="#FF6600"/>
<path d="M246.61 149.099V137.873H230.088V246.905H247.914V170.917C247.906 165.046 249.822 161.179 253.151 158.895C256.304 156.722 260.186 155.986 265.128 155.912V136.62C255.67 136.819 251.59 138.683 246.794 148.701L246.61 149.099Z" fill="#FF6600"/>
</svg>
