<svg width="360" height="360" viewBox="0 0 360 360" fill="none" xmlns="http://www.w3.org/2000/svg">
<rect width="360" height="360" rx="82" fill="#164397"/>
<path d="M153.58 79.8877L152.794 126.958L63 127.056V79.7261L153.58 79.8877ZM159.519 200.116C165.035 194.456 166.906 182.424 164.04 172.579C161.202 162.763 156.339 156.108 148.298 149.938C137.448 141.641 126.358 141.032 126.358 141.032L63.0316 140.89C89.804 149.907 96.0405 173.042 96.0405 173.042C102.746 205.392 65.6221 211.543 65.6221 211.543H135.023C148.824 210.991 157.657 202.085 159.519 200.116ZM282.042 212.83C297.372 209.846 303.837 202.104 305.91 199.973C311.024 194.697 314.271 183.483 311.595 174.323C308.938 165.176 304.487 159.2 296.982 153.467C286.884 145.737 275.952 146.023 275.952 146.023L216.985 145.886C241.903 154.282 247.068 175.826 247.068 175.826C247.068 175.826 256.367 204.992 217.876 212.659C217.876 212.659 217.356 212.535 217.772 212.684C221.189 213.787 230.273 218.467 237.86 226.159C244.579 232.969 246.808 243.226 246.808 243.226C253.038 273.366 216.766 280.778 216.766 280.778L274.344 280.667C294.369 280.667 303.339 269.52 305.07 267.738C310.181 262.443 314.452 252.132 312.531 243.141C310.438 233.299 305.403 227.373 300.901 223.512C293.986 217.548 282.011 212.738 282.011 212.738C281.858 212.763 282.042 212.83 282.042 212.83ZM168.846 285.043L224.519 74.4343L211.323 74L155.663 285.071L168.846 285.043Z" fill="white"/>
</svg>
