<svg width="360" height="360" viewBox="0 0 360 360" fill="none" xmlns="http://www.w3.org/2000/svg">
<rect width="360" height="360" rx="82" fill="#ED383C"/>
<path d="M181 163.056H183.185L181.827 161.344C164.862 139.968 131.741 122.944 94.8176 122.944C71.5932 122.944 49.8923 129.683 31.4357 141.357L30.5026 141.947L31.1341 142.853L38.8957 153.984L39.4674 154.804L40.3173 154.278C56.2591 144.407 74.8976 138.725 94.8176 138.725C122.894 138.725 148.389 149.991 161.994 162.769L162.298 163.056H162.716H181Z" fill="white" stroke="white"/>
<mask id="path-5-outside-1" maskUnits="userSpaceOnUse" x="169.666" y="194.889" width="162.564" height="44.3356" fill="black">
<rect fill="white" x="169.666" y="194.889" width="162.564" height="44.3356"/>
<path d="M194.134 197C208.346 210.737 234.66 222.437 263.651 222.437C284.62 222.437 304.175 216.3 320.736 205.718L328 217.065C309.351 229.047 287.3 236 263.651 236C226.38 236 193.047 218.781 176 197H194.134Z"/>
</mask>
<path d="M194.134 197C208.346 210.737 234.66 222.437 263.651 222.437C284.62 222.437 304.175 216.3 320.736 205.718L328 217.065C309.351 229.047 287.3 236 263.651 236C226.38 236 193.047 218.781 176 197H194.134Z" fill="white"/>
<path d="M320.736 205.718L322.514 204.58L321.376 202.804L319.599 203.939L320.736 205.718ZM328 217.065L329.141 218.841L330.915 217.702L329.778 215.926L328 217.065ZM176 197V194.889H171.667L174.337 198.301L176 197ZM192.666 198.518C207.303 212.665 234.158 224.548 263.651 224.548V220.325C235.163 220.325 209.388 208.808 195.601 195.482L192.666 198.518ZM263.651 224.548C285.039 224.548 304.986 218.288 321.872 207.497L319.599 203.939C303.364 214.313 284.201 220.325 263.651 220.325V224.548ZM318.958 206.857L326.222 218.203L329.778 215.926L322.514 204.58L318.958 206.857ZM326.859 215.289C308.536 227.061 286.88 233.889 263.651 233.889V238.111C287.721 238.111 310.166 231.033 329.141 218.841L326.859 215.289ZM263.651 233.889C226.97 233.889 194.275 216.924 177.663 195.699L174.337 198.301C191.82 220.638 225.789 238.111 263.651 238.111V233.889ZM176 199.111H194.134V194.889H176V199.111Z" fill="white" mask="url(#path-5-outside-1)"/>
</svg>
