<svg width="360" height="360" viewBox="0 0 360 360" fill="none" xmlns="http://www.w3.org/2000/svg">
<rect width="360" height="360" rx="82" fill="#FF0000"/>
<path d="M111.025 189.438C98.0111 189.468 85.3833 193.863 75.1618 201.918C64.9403 209.973 57.7156 221.224 54.6437 233.87C51.5717 246.516 52.8298 259.827 58.2168 271.674C63.6038 283.521 72.8084 293.219 84.3581 299.216C95.9079 305.213 109.135 307.164 121.925 304.756C134.714 302.347 146.326 295.719 154.903 285.932C163.48 276.144 168.527 263.762 169.236 250.768C169.945 237.773 166.276 224.916 158.814 214.253C165.159 210.333 172.399 208.098 179.849 207.759C187.496 208.3 194.875 210.804 201.272 215.029C192.729 226.869 188.951 241.49 190.69 255.987C192.428 270.484 199.556 283.796 210.657 293.281C221.758 302.765 236.02 307.727 250.611 307.182C265.201 306.636 279.053 300.623 289.415 290.336C299.776 280.048 305.89 266.241 306.541 251.654C307.191 237.068 302.332 222.77 292.928 211.601C283.524 200.432 270.263 193.208 255.779 191.365C241.295 189.522 226.648 193.194 214.746 201.652C210.235 195.245 207.86 187.579 207.961 179.744C208.53 172.433 210.967 165.391 215.037 159.291C226.899 167.763 241.51 171.471 255.977 169.682C270.444 167.893 283.711 160.737 293.152 149.63C302.594 138.524 307.52 124.277 306.956 109.711C306.393 95.1455 300.38 81.3221 290.109 70.9786C279.838 60.6351 266.057 54.5256 251.495 53.8597C236.934 53.1939 222.653 58.0203 211.481 67.3833C200.308 76.7463 193.059 89.9632 191.169 104.417C189.278 118.871 192.884 133.508 201.272 145.429C194.695 149.517 187.194 151.884 179.462 152.311C172.279 151.562 165.406 148.993 159.493 144.847C167.929 132.974 171.603 118.368 169.788 103.917C167.974 89.4651 160.804 76.2203 149.695 66.8008C138.586 57.3812 124.347 52.4724 109.794 53.045C95.2399 53.6176 81.4308 59.6298 71.0963 69.893C60.7618 80.1563 54.6541 93.9234 53.9808 108.473C53.3076 123.022 58.1177 137.294 67.4602 148.468C76.8026 159.642 89.9975 166.904 104.436 168.818C118.875 170.732 133.506 167.16 145.437 158.806C149.391 165.119 151.722 172.312 152.223 179.744C151.714 187.143 149.311 194.287 145.243 200.488C135.291 193.283 123.312 189.414 111.025 189.438ZM195.65 110.823C195.787 98.8523 199.941 87.2746 207.447 77.948C214.952 68.6214 225.373 62.0866 237.038 59.3925C248.702 56.6983 260.934 58.001 271.769 63.0914C282.604 68.1818 291.415 76.7649 296.788 87.463C302.161 98.1612 303.784 110.354 301.396 122.085C299.009 133.816 292.75 144.405 283.623 152.153C274.496 159.9 263.032 164.357 251.069 164.807C239.105 165.258 227.338 161.677 217.654 154.638C225.713 142.826 234.971 131.879 245.281 121.971C247.925 123.033 250.876 123.033 253.52 121.971C257.592 131.664 280.468 149.306 283.958 144.751C287.448 140.195 266.122 121.583 258.561 117.415C259.936 115.418 260.616 113.024 260.496 110.603C260.376 108.181 259.464 105.866 257.898 104.015C256.333 102.163 254.203 100.878 251.835 100.356C249.468 99.8349 246.994 100.107 244.796 101.13C240.822 94.1502 218.72 72.0489 214.068 78.6405C210.481 83.3904 230.837 101.033 239.755 105.492C238.95 106.833 238.438 108.33 238.254 109.885C238.07 111.439 238.218 113.014 238.689 114.507C228.559 124.691 217.528 133.937 205.731 142.133C199.143 133.026 195.613 122.064 195.65 110.823ZM205.343 217.452C216.93 225.732 227.852 234.904 238.011 244.885C236.974 247.5 236.974 250.412 238.011 253.027C231.516 256.226 208.93 279.2 215.134 284.047C219.981 287.633 237.817 266.986 242.179 258.165C244.162 259.491 246.521 260.139 248.903 260.013C251.285 259.888 253.562 258.994 255.395 257.467C257.227 255.94 258.516 253.861 259.069 251.541C259.623 249.221 259.41 246.784 258.464 244.594C268.158 240.62 285.897 217.646 281.341 214.059C276.785 210.473 258.367 231.799 254.296 239.747C252.976 238.893 251.489 238.33 249.935 238.096C248.38 237.862 246.794 237.962 245.281 238.39C235.027 228.289 225.774 217.219 217.654 205.335C228.578 197.542 242.035 194.147 255.348 195.824C268.662 197.501 280.856 204.128 289.506 214.386C298.156 224.645 302.628 237.783 302.032 251.188C301.436 264.594 295.816 277.284 286.29 286.734C276.764 296.185 264.029 301.703 250.62 302.192C237.21 302.681 224.108 298.105 213.918 289.374C203.729 280.642 197.2 268.395 195.629 255.069C194.058 241.743 197.561 228.313 205.44 217.452H205.343ZM122.27 114.797C123.384 112.097 123.384 109.065 122.27 106.364C131.963 102.293 149.605 79.416 145.049 75.9263C140.494 72.4367 122.463 93.2778 118.198 101.13C116.186 99.7464 113.773 99.0687 111.335 99.2022C108.897 99.3356 106.571 100.273 104.722 101.867C102.873 103.462 101.604 105.624 101.113 108.016C100.623 110.408 100.938 112.895 102.01 115.088C95.1277 118.869 72.9294 141.164 79.4241 145.914C84.2709 149.597 102.107 128.853 106.372 120.517C107.689 121.295 109.152 121.792 110.671 121.975C112.189 122.159 113.729 122.025 115.193 121.583C125.478 131.726 134.732 142.864 142.82 154.832C131.891 162.607 118.437 165.986 105.131 164.298C91.8252 162.609 79.6418 155.976 71.002 145.716C62.3623 135.457 57.8987 122.323 58.4983 108.924C59.0978 95.5244 64.7167 82.8413 74.2383 73.3947C83.7598 63.9481 96.487 58.4297 109.891 57.936C123.294 57.4424 136.393 62.0097 146.583 70.7302C156.774 79.4508 163.311 91.6863 164.894 105.005C166.478 118.324 162.992 131.751 155.131 142.618C143.428 134.268 132.436 124.962 122.27 114.797ZM154.84 216.87C162.581 227.828 165.915 241.296 164.179 254.599C162.443 267.902 155.765 280.065 145.472 288.669C135.179 297.273 122.024 301.688 108.625 301.037C95.2249 300.386 82.5608 294.717 73.1501 285.155C63.7395 275.594 58.2715 262.842 57.8333 249.433C57.3952 236.025 62.0189 222.942 70.7852 212.787C79.5516 202.632 91.8185 196.148 105.147 194.623C118.476 193.099 131.89 196.646 142.723 204.56C134.406 216.316 125.063 227.313 114.806 237.421C112.277 236.46 109.483 236.46 106.954 237.421C102.592 230.151 80.9751 208.922 76.3222 215.223C72.8325 219.972 92.5104 237.13 101.622 241.88C100.369 243.933 99.8199 246.339 100.059 248.733C100.297 251.127 101.31 253.378 102.944 255.143C104.578 256.909 106.744 258.093 109.112 258.516C111.48 258.939 113.922 258.577 116.066 257.486C119.362 266.501 143.111 285.598 146.794 280.945C150.478 276.292 127.407 256.711 120.428 253.512C121.367 252.101 121.97 250.493 122.188 248.812C122.407 247.131 122.235 245.423 121.688 243.819C131.995 233.957 143.081 224.945 154.84 216.87Z" fill="white"/>
</svg>
