<svg width="360" height="360" viewBox="0 0 360 360" fill="none" xmlns="http://www.w3.org/2000/svg">
<rect width="360" height="360" rx="82" fill="#EE2E30"/>
<path d="M330.003 224.492H297.38C279.612 224.492 260.747 212.185 260.713 178.934C260.69 151.705 277.841 135 297.38 135H330.003V163.989H306.201C301.939 163.989 291.896 165.657 291.896 179.506C291.896 193.332 301.939 195.388 306.201 195.388H330.003V224.492Z" fill="white"/>
<path d="M111.379 196.086C122.874 196.086 126.279 189.618 126.279 181.654C126.279 173.69 122.874 167.245 111.379 167.245H95.2561V159.532H131.364V135H63.2965V167.245H44.8315C33.3251 167.245 30 173.69 30 181.654C30 189.618 33.3251 196.086 44.8315 196.086H62.908V224.492H95.2561V196.086H111.379Z" fill="white"/>
<path d="M212.113 224.491L226.35 160.035V224.491H254.848V135H224.659C206.514 135 204.812 144.107 202.344 155.053L196.379 184.099L190.414 155.053C187.958 144.107 186.255 135 168.099 135H137.91V224.491H166.419V160.035L180.645 224.491H212.113Z" fill="white"/>
</svg>
