<svg width="360" height="360" viewBox="0 0 360 360" fill="none" xmlns="http://www.w3.org/2000/svg">
<rect width="360" height="360" rx="82" fill="#003998"/>
<path d="M74.0131 152.944V168.615H107.135V201.382H74.0131V240.202H40V120H112.299L114.615 152.944H74.0131Z" fill="white"/>
<path d="M211.718 138.477C223.002 149.995 228.647 163.899 228.647 180.186C228.647 196.591 223.002 210.551 211.718 222.071C200.432 233.588 186.821 239.347 170.882 239.347C154.827 239.347 141.155 233.588 129.871 222.071C118.585 210.552 112.943 196.591 112.943 180.186C112.943 163.898 118.585 149.995 129.871 138.477C141.155 126.959 154.827 121.199 170.882 121.199C186.82 121.199 200.432 126.959 211.718 138.477ZM161.109 204.269C161.109 206.947 162.097 209.273 164.076 211.25C166.053 213.229 168.439 214.217 171.231 214.217C174.024 214.217 176.379 213.229 178.299 211.25C180.219 209.273 181.179 206.947 181.179 204.269V155.579C181.179 152.787 180.219 150.404 178.299 148.424C176.38 146.448 174.024 145.457 171.231 145.457C168.439 145.457 166.053 146.448 164.076 148.424C162.096 150.404 161.109 152.787 161.109 155.579V204.269Z" fill="white"/>
<path d="M281.712 240.559L264.618 210.107L248.056 240.559H210.66L246.276 178.231L212.619 120H251.084L265.152 145.999L279.398 120H316.616L283.671 177.875L319.999 240.559H281.712V240.559Z" fill="white"/>
</svg>
