<svg width="360" height="360" viewBox="0 0 360 360" fill="none" xmlns="http://www.w3.org/2000/svg">
<rect width="360" height="360" rx="82" fill="#002885"/>
<path d="M320.002 240.041C307.22 240.041 294.208 240.041 281.58 240.041C281.227 240.041 280.581 238.489 280.397 238.167C275.112 228.627 269.828 219.04 264.574 209.516C258.951 219.655 253.482 229.963 247.875 240.118C235.293 240.149 222.818 240.056 210.344 240.087C211.757 237.445 213.263 234.864 214.768 232.268C225.261 214.14 235.6 195.766 246.108 177.623C234.939 158.112 223.602 138.756 212.372 119.291C212.341 119.291 212.264 119.168 212.341 119.184C225.215 119.184 238.073 119.184 250.947 119.184C255.694 127.817 260.318 136.559 264.988 145.254C269.843 136.636 274.529 127.848 279.337 119.184C291.781 119.184 304.209 119.184 316.653 119.184C316.683 119.337 316.576 119.506 316.499 119.629C305.607 138.771 294.454 157.974 283.577 177.147C295.667 198.132 307.988 219.102 320.002 240.041Z" fill="white"/>
<path d="M226.72 166.085C227.703 170.079 228.271 174.473 228.271 179.097C228.271 193.523 224.093 204.215 218.286 212.91C217.303 214.385 216.304 215.798 215.229 217.15C212.079 221.145 208.269 224.786 204.014 227.812C201.157 229.84 198.176 231.683 194.873 233.235C188.298 236.323 180.356 238.735 171.199 238.735C156.882 238.735 146.312 234.372 137.755 228.38C129.198 222.374 122.531 214.431 117.999 204.415C114.957 197.701 112.96 189.959 112.73 180.526C112.622 175.856 113.206 171.247 114.051 167.253C116.201 157.175 120.426 149.279 125.772 142.473C131.119 135.683 137.893 130.367 146.082 126.358C149.292 124.791 152.887 123.454 156.805 122.486C160.722 121.518 165.054 120.858 169.74 120.858C169.771 120.858 169.786 120.858 169.817 120.858C174.395 120.643 179.249 121.38 183.059 122.225C187.023 123.101 190.695 124.437 193.967 125.912C204.106 130.49 211.665 137.342 217.748 145.899C221.758 151.506 224.769 158.235 226.72 166.085ZM180.632 206.12C181.001 204.645 180.893 202.756 180.893 200.805C180.893 185.918 180.893 171.339 180.893 156.407C180.893 154.502 180.678 153.027 180.125 151.644C179.618 150.385 178.835 149.232 177.913 148.295C176.116 146.467 173.412 144.823 170.017 145.085C168.373 145.207 167.006 145.73 165.807 146.483C163.58 147.896 161.89 150.062 161.198 152.935C160.845 154.394 160.86 156.253 160.86 158.173C160.86 172.86 160.86 187.746 160.86 202.571C160.86 203.524 160.814 204.446 160.937 205.26C161.26 207.595 162.305 209.469 163.672 210.867C165.439 212.665 168.173 214.17 171.706 213.786C176.269 213.294 179.618 210.268 180.632 206.12Z" fill="white"/>
<path d="M114.29 152.152C100.679 152.152 87.0831 152.152 73.4718 152.152C73.3029 157.222 73.4411 162.829 73.395 167.93C84.4254 168.022 95.6247 167.945 106.732 167.961C106.732 178.991 106.732 190.006 106.732 201.036C95.5479 201.067 84.2717 200.99 73.1492 201.067C73.1646 214.186 73.226 227.06 73.226 240.18C73.226 240.226 73.2107 240.241 73.1953 240.257C61.8577 240.257 50.5048 240.257 39.1672 240.257C39.1058 240.272 39.1058 240.226 39.0597 240.226C38.9829 199.945 38.9829 159.404 39.0443 119.108C39.0443 119.061 39.0443 119 39.0751 119C63.3786 119 87.6822 119 111.97 119C112.017 119 112.032 119 112.047 119.031C112.815 130.061 113.553 141.107 114.29 152.152Z" fill="white"/>
</svg>
