<svg width="360" height="360" viewBox="0 0 360 360" fill="none" xmlns="http://www.w3.org/2000/svg">
<rect width="360" height="360" rx="82" fill="#123329"/>
<path fill-rule="evenodd" clip-rule="evenodd" d="M225.132 242.426C225.132 242.426 225.561 241.998 225.561 241.149C225.561 239.871 224.283 240.299 222.155 239.021C221.727 239.021 221.306 238.593 220.878 238.172C218.75 236.044 219.6 233.917 218.75 231.361L217.472 228.37C217.472 228.37 220.456 229.648 225.14 232.639C230.672 236.044 228.973 241.57 228.973 241.57C228.973 241.57 231.957 243.269 233.656 240.72C234.506 239.442 235.355 237.743 236.212 236.465C238.34 231.782 237.49 227.092 237.49 227.092C237.49 227.092 237.062 225.393 235.791 222.409C234.513 219.853 231.965 217.304 231.965 217.304C225.575 211.765 215.781 213.042 207.692 210.058C203.009 207.931 200.032 205.375 200.032 205.375C200.032 205.375 197.905 204.097 196.627 203.248L194.071 202.391C194.071 202.391 191.087 201.541 187.261 202.391C185.133 203.248 183.006 204.947 183.006 204.947C183.006 204.947 186.411 204.09 188.538 206.646C190.237 208.773 190.666 210.472 191.515 212.607C192.793 214.734 194.5 215.163 194.5 215.163C194.5 215.163 192.372 216.012 189.809 217.718C186.404 220.274 185.126 223.251 185.126 223.251C185.126 223.251 188.96 221.124 192.365 223.251C194.921 224.95 197.048 224.95 197.048 224.95C197.048 224.95 193.222 227.077 190.666 230.483C188.11 233.474 189.388 236.03 189.388 236.03C189.388 236.03 189.809 234.752 191.515 234.331C193.222 233.481 195.349 234.331 195.349 234.331C195.349 234.331 193.222 235.18 191.515 238.585C189.809 241.141 187.261 241.991 187.261 241.991C187.261 241.991 188.11 243.269 191.094 243.269C194.078 243.697 196.206 241.991 197.476 241.141C199.175 239.863 200.882 239.442 200.882 239.442C198.754 246.253 202.588 248.373 202.588 248.373C202.588 248.373 203.437 245.817 206.414 242.84C210.248 239.435 214.931 239.435 214.931 239.435C214.931 239.435 217.058 239.007 220.464 239.863C223.433 240.299 225.132 242.426 225.132 242.426Z" fill="white"/>
<path fill-rule="evenodd" clip-rule="evenodd" d="M220.88 237.751C218.753 235.624 219.602 233.496 218.324 230.505C217.475 227.949 217.047 228.378 217.047 228.378C217.047 228.378 220.031 229.656 225.135 232.647C230.668 236.052 228.969 241.578 228.969 241.578C228.969 241.578 228.969 242.006 230.668 242.006C231.946 242.434 232.795 241.578 232.367 242.006C232.795 242.434 233.216 243.705 233.216 243.705C233.216 243.705 234.922 250.516 230.66 253.079C227.255 255.206 221.722 254.356 221.722 254.356C221.722 254.356 226.406 253.507 226.834 248.388C227.262 245.411 225.135 242.434 225.135 242.434C225.135 242.434 225.985 241.585 225.563 240.735C225.135 239.45 223.008 240.3 220.88 237.751ZM117.423 172.608C119.129 174.736 119.55 176.442 119.55 176.442C117.851 177.72 117.851 180.697 119.55 182.831C121.249 185.387 121.677 187.936 121.677 187.936C121.677 187.936 120.4 189.635 120.828 191.769C121.249 195.603 122.955 199.008 126.361 202.835C131.044 207.946 131.901 210.923 131.901 210.923C131.901 210.923 130.623 213.05 132.329 216.035C134.456 219.44 140.417 221.996 142.116 224.544C142.973 227.949 148.077 228.37 148.506 230.498C148.934 233.068 151.911 235.188 153.617 236.045C154.895 236.045 156.173 236.894 156.173 238.172C156.601 241.149 162.562 241.999 165.539 243.705C165.539 243.705 151.49 248.809 139.996 253.928C128.931 259.032 122.12 250.937 122.12 250.937C122.12 250.937 124.248 264.565 137.44 266.692C144.251 267.97 150.212 266.692 150.212 266.692C150.212 266.692 146.807 270.098 141.695 273.089C136.163 276.066 132.757 274.788 132.757 274.788C132.757 274.788 135.741 279.892 145.108 277.765C149.791 276.915 153.196 274.36 153.196 274.36C153.196 274.36 153.196 276.915 148.941 279.464C145.108 282.02 143.409 282.441 143.409 282.441C143.409 282.441 145.964 282.869 149.791 284.997C152.347 286.696 156.173 287.973 160.863 287.552C164.69 287.124 168.952 283.726 168.952 283.726C168.952 283.726 168.095 285.853 168.095 286.703C168.095 288.83 168.952 289.68 168.952 289.68C168.952 289.68 169.38 283.726 181.723 288.402C194.495 293.092 200.456 289.68 200.456 289.68C200.456 289.68 198.329 288.402 197.051 287.124C196.622 285.846 196.622 284.568 196.622 284.568C196.622 284.568 200.456 287.973 211.1 285.418C219.188 283.719 224.721 277.758 224.721 277.758C224.721 277.758 215.355 276.48 209.394 261.574C205.989 253.064 207.266 247.945 209.394 244.54C211.521 240.714 214.934 239.436 214.934 239.436C214.934 239.436 209.822 239.436 205.996 243.262C203.44 245.818 202.591 248.366 202.591 248.366C202.591 248.366 198.757 246.239 200.463 239.857C200.463 239.857 198.757 239.857 197.058 241.135C196.208 242.413 194.081 243.69 191.097 243.69C188.113 243.262 187.263 241.991 187.263 241.991C187.263 241.991 189.819 241.563 191.518 238.586C193.224 235.181 194.923 234.331 194.923 234.331C194.923 234.331 193.224 233.903 191.518 234.331C189.812 234.76 188.962 236.03 188.962 236.03C188.962 236.03 188.106 233.903 190.24 230.926C193.224 227.085 197.051 225.379 197.051 225.379C197.051 225.379 194.923 224.951 191.946 223.252C188.541 221.124 184.707 223.252 184.707 223.252C184.707 223.252 186.407 220.275 189.812 218.147C192.368 216.02 194.502 215.163 194.502 215.163C194.502 215.163 192.796 215.163 191.518 213.036C190.669 210.908 189.812 208.781 188.541 207.075C186.414 204.519 183.008 204.947 183.008 204.947C183.008 204.947 185.136 203.248 187.263 202.82C191.097 201.542 194.074 202.392 194.074 202.392C194.074 202.392 183.008 190.041 177.04 172.594C176.363 171.222 175.795 169.8 175.341 168.339C166.403 135.557 163.848 133.858 163.848 133.858C161.72 133.858 161.72 136.835 161.72 136.835C161.72 136.835 158.736 134.708 149.377 117.674C145.543 110.435 142.138 98.513 141.71 98.513C140.011 99.3698 139.154 101.069 138.726 104.053V109.586C138.726 109.586 132.765 103.203 127.66 90.4319C124.255 81.9151 121.699 70.0003 120.421 70.8498C118.294 71.7066 116.588 74.2551 117.016 78.9382C117.444 83.2002 121.699 95.9718 121.699 95.9718H121.256C121.256 95.9718 115.295 90.4391 111.041 82.3507C106.786 74.2623 102.952 62.3403 102.103 62.3403C99.5469 63.1898 97.4195 69.1508 103.381 82.7718C106.357 90.4319 109.342 95.5434 109.342 95.5434C109.342 95.5434 101.253 92.5593 95.7205 78.0887C90.1879 63.6109 89.3384 55.0941 89.3384 55.0941C89.3384 55.0941 87.6321 54.2446 86.3542 57.6499C84.6552 60.6268 84.6552 69.1436 88.4816 79.7877C91.8869 90.4319 94.8638 94.2655 94.8638 94.2655C94.8638 94.2655 89.7522 92.1382 85.4975 85.7488C80.8143 78.9382 77.8374 68.2941 77.8374 68.2941C77.8374 68.2941 76.9807 68.7224 76.1312 70.0003C75.2817 71.7066 74.0038 77.2392 77.4091 86.6055C79.5364 91.717 83.3701 98.0992 83.3701 98.0992C83.3701 98.0992 79.9648 96.3929 77.8374 93.8444C75.7101 91.717 73.1543 88.7329 73.1543 88.7329C70.5985 89.5824 72.7259 97.2424 75.2817 101.926C77.4091 107.037 79.9648 109.586 83.7985 112.991C87.6248 117.246 87.2037 119.801 87.2037 119.801C85.9258 121.5 91.4657 127.461 93.5931 128.739C96.9984 131.295 98.2763 132.145 98.2763 132.145C98.2763 132.145 95.2994 133.422 102.11 139.383C104.237 140.661 104.666 141.511 104.666 141.511C104.666 141.511 99.5542 143.217 111.048 152.576C114.453 155.132 114.881 156.41 114.881 156.41C112.754 158.537 113.604 159.815 115.731 162.799C116.58 164.077 117.009 166.204 117.009 166.204C117.009 166.204 114.881 167.054 117.009 170.888C117.002 171.33 117.423 172.187 117.423 172.608ZM207.68 210.074C215.769 213.058 225.563 211.78 231.953 217.741C231.953 217.741 231.524 216.463 231.096 213.907C230.668 209.224 231.524 208.796 236.208 201.557C245.145 189.635 273.673 159.408 278.356 148.336C280.483 143.653 282.611 135.564 284.745 127.904C287.301 117.689 289 108.322 289 108.322C286.444 106.623 283.888 112.577 281.761 118.966C280.904 121.522 280.062 123.657 280.062 123.657C280.062 123.657 279.634 121.529 281.761 113.013C283.46 105.774 284.745 103.646 284.745 103.646C283.046 102.368 279.205 104.496 276.657 112.584C275.379 117.267 274.101 121.101 274.101 121.101C274.101 121.101 273.673 121.101 273.673 117.267C273.244 113.441 274.522 111.306 274.522 111.306C274.522 111.306 271.538 111.306 268.99 116.839C267.712 119.823 266.862 124.927 266.862 124.927C265.163 123.65 265.163 120.244 265.163 120.244C263.885 120.244 261.758 122.8 260.901 126.626C259.631 129.603 259.631 133.865 259.631 133.865C258.345 133.016 258.345 130.888 258.345 130.888C258.345 130.888 255.79 132.587 254.091 138.548C253.234 142.382 253.234 144.088 253.234 144.088C251.963 143.239 251.963 141.104 251.963 141.104C249.829 141.954 247.701 145.787 246.423 151.748C246.423 151.748 244.296 151.32 242.597 153.455C241.319 155.582 240.041 160.694 237.485 162.393C235.786 161.543 234.509 163.249 234.08 163.67C232.802 165.798 231.524 168.782 229.818 170.053C228.969 169.624 227.262 170.053 226.413 170.481C224.714 171.759 223.436 175.592 222.158 176.442C221.309 176.014 219.602 176.442 218.753 177.292C217.475 178.569 217.054 180.276 215.776 181.975C214.498 181.546 213.649 181.975 212.792 183.253C211.093 184.952 211.093 186.229 210.236 187.507C208.53 187.079 207.68 187.936 206.831 189.214C205.981 190.063 205.553 191.769 204.703 193.468C200.87 194.318 199.592 205.39 199.592 205.39C199.592 205.39 202.997 207.946 207.68 210.074Z" fill="#B59537"/>
</svg>
