<svg width="360" height="360" viewBox="0 0 360 360" fill="none" xmlns="http://www.w3.org/2000/svg">
<rect width="360" height="360" rx="82" fill="#EE2E24"/>
<path d="M294.296 283.598C310.42 278.121 322.966 259.557 325.99 236.203V229.456H243.323V283.598H294.296ZM325.994 130.172V124.067C322.825 99.7047 309.344 80.5131 292.153 76H243.327V130.172H325.994ZM35.0014 229.458V236.148C37.9955 259.517 50.5417 278.124 66.71 283.601H117.42V229.458H35.0014ZM68.8307 76.0072C51.6692 80.5203 38.1445 99.7266 35.0043 124.118V130.179H117.423V76.0072H68.8307ZM326 152.729H243.333V206.9H326V152.729ZM139.941 283.594H220.811V229.451H139.941V283.594ZM220.811 76.0058H139.941V130.178H220.811V76.0058ZM35 206.9H117.419V152.729H35V206.9Z" fill="white"/>
</svg>
