<svg width="360" height="360" viewBox="0 0 360 360" fill="none" xmlns="http://www.w3.org/2000/svg">
<rect width="360" height="360" rx="82" fill="#032F3D"/>
<path d="M213.582 176.415L122.156 229.2V277.452L213.582 224.656V176.415ZM180.003 25C94.3961 25 25 94.3961 25 179.992C25 228.602 47.3774 271.984 82.3932 300.411L122.161 277.452C88.9553 257.696 66.7007 221.452 66.7007 179.992C66.7007 117.425 117.43 66.6953 180.008 66.6953C201.136 66.6953 220.897 72.4886 237.828 82.5587L122.156 149.339V197.585L237.839 130.789V82.5694C271.045 102.325 293.305 138.558 293.305 179.992C293.305 242.58 242.58 293.31 179.997 293.31C158.864 293.31 139.087 287.522 122.156 277.452V323.841C140.032 331.038 159.553 335 179.997 335C265.609 335 335 265.609 335 179.992C335.005 94.3908 265.609 25 180.003 25Z" fill="#64BE49"/>
</svg>
