<svg width="360" height="360" viewBox="0 0 360 360" fill="none" xmlns="http://www.w3.org/2000/svg">
<rect width="360" height="360" rx="82" fill="#31519C"/>
<path d="M25 179.347C25 205.977 30.3801 237.849 71.477 237.849C103.715 237.849 172.001 237.849 172.001 237.849V166.508H93.2811V196.008H141.644V209.787C141.644 209.787 91.8539 209.787 78.0985 209.787C54.2404 209.787 57.7161 186.639 57.7161 179.834C57.7161 162.876 60.8762 153.673 76.6801 153.673H171.996V123H77.1584C39.7087 123 25 145.11 25 179.347Z" fill="white"/>
<path d="M282.839 123H188.019V153.673V237.854C188.019 237.854 256.296 237.854 288.541 237.854C327.11 237.854 335 213.586 335 179.351C335.001 145.114 320.3 123 282.839 123ZM281.891 209.782C268.129 209.782 218.35 209.782 218.35 209.782V153.669H283.31C301.014 153.669 302.275 164.775 302.275 179.829C302.28 193.612 302.597 209.782 281.891 209.782Z" fill="white"/>
</svg>
