<svg width="360" height="360" viewBox="0 0 360 360" fill="none" xmlns="http://www.w3.org/2000/svg">
<rect width="360" height="360" rx="82" fill="#E8EC18"/>
<path d="M283.948 46C109.674 62.5855 87.6271 182.793 144.599 221.225C134.778 264.618 143.797 263.616 143.797 263.616C145.551 250.638 148.107 237.811 151.414 225.134C173.661 140.553 228.679 66.9449 284.198 47.6535V47.4531C284.549 47.403 285 47.2527 285 46.8518C285 46.4009 284.649 46.0501 284.198 46.0501C284.198 46.0501 284.198 46.0501 284.148 46.0501L283.948 46ZM274.928 73.6092C274.628 73.6092 274.277 73.9098 274.127 74.2104C259.696 102.471 255.637 142.858 244.664 173.874C232.087 209.25 209.739 233.201 175.265 230.896V316.981C175.265 316.981 83.2176 275.191 83.2176 208.298V82.879L158.379 75.864H158.579C158.98 75.864 159.18 75.6636 159.18 75.2627C159.18 74.7616 158.98 74.461 158.579 74.461H75V208.298C75 283.509 175.265 325.399 175.265 325.399C175.265 325.399 275.73 282.857 275.73 208.248V74.4109C275.73 74.0601 275.329 73.6092 274.928 73.6092Z" fill="#C6093B"/>
</svg>
