<svg width="360" height="360" viewBox="0 0 360 360" fill="none" xmlns="http://www.w3.org/2000/svg">
<rect width="360" height="360" rx="82" fill="#397DB7"/>
<path d="M295.46 231.466C295.46 198.714 283.1 167.161 283.1 140.291C283.1 103.219 295.097 80.6636 295.097 80.6636H251.971C247.915 98.5544 240.933 110.729 222.378 115.671L222.876 114.257C226.367 104.141 231.395 86.1826 231.395 75.624C231.395 47.6723 212.318 25 178.368 25C170.609 24.9902 162.926 26.515 155.759 29.4867C148.593 32.4583 142.085 36.8181 136.61 42.3151C131.136 47.812 126.802 54.3376 123.86 61.5161C120.917 68.6945 119.424 76.3841 119.465 84.1422C119.465 117.023 140.079 140.611 167.532 150.635L159.948 171.814C156.338 171.515 152.717 171.364 149.095 171.359C83.954 171.359 65 216.47 65 244.784C65 300.091 115.864 335 177.286 335C228.758 335 295.46 307.767 295.46 231.466ZM160.612 84.2651C160.612 72.508 167.514 64.4077 176.149 64.4077C181.606 64.4077 190.604 67.4683 190.604 82.6426C190.604 88.1002 184.366 103.459 182.086 109.937L180.543 114.288C166.014 108.148 160.612 91.9536 160.612 84.2651ZM108.482 245.804C108.482 225.142 124.228 213.901 145.481 212.205L127.793 261.581H169.665L185.325 218.344C203.093 225.56 211.543 236.321 211.543 236.321L225.396 198.29C225.396 198.29 216.245 189.053 198.698 181.395L208.077 155.435C226.287 153.413 240.454 146.579 240.454 146.579C240.454 183.712 251.731 202.187 251.731 228.043C251.731 279.447 210.523 292.765 177.409 292.765C142.439 292.771 108.482 276.153 108.482 245.804Z" fill="white"/>
</svg>
