<svg width="360" height="360" viewBox="0 0 360 360" fill="none" xmlns="http://www.w3.org/2000/svg">
<rect width="360" height="360" rx="82" fill="url(#paint0_angular)" fill-opacity="0.15"/>
<path d="M256.654 281.897C268.773 269.618 277.4 258.292 282.322 248.184C287.191 238.234 288.303 230.03 285.709 223.097C284.439 219.763 281.264 215.741 276.818 211.718C271.684 207.167 264.963 202.774 257.289 198.911C249.403 194.941 240.67 191.66 231.991 189.437C222.941 187.108 214.261 185.891 206.269 185.891C197.854 185.891 190.656 187.214 184.835 189.808C182.241 190.972 179.489 191.554 176.631 191.554C171.604 191.554 166.787 189.702 163.083 186.315L144.453 169.379C141.86 166.997 140.007 163.98 139.161 160.54C138.367 157.418 138.473 154.083 139.425 150.961C140.378 147.838 142.177 145.086 144.559 142.916C147.152 140.588 150.381 139.106 153.874 138.576C154.509 138.471 155.144 138.418 155.832 138.312C165.305 136.989 175.097 135.613 184.835 128.097C197.219 118.518 207.434 100.312 215.108 73.9554C218.865 60.9888 221.247 45.3231 222.993 31.0334C209.392 27.117 194.996 25 180.072 25C137.89 25 99.6259 41.8301 71.6816 69.1922C75.9156 70.9916 79.7262 73.532 82.9546 76.8133C87.2944 81.259 91.846 89.1448 88.7763 101.582C87.3474 107.457 84.5423 113.173 81.5256 119.206C75.1747 132.173 71.3112 141.223 75.2276 148.473C77.6621 152.76 85.1245 162.393 108.253 179.276C123.177 190.178 138.367 199.546 146.094 204.15C150.01 206.479 153.027 209.919 154.773 214.153C156.573 218.387 156.89 222.939 155.832 227.384C154.191 234.053 152.921 240.933 154.509 246.384C155.144 248.501 157.049 254.958 171.445 260.092C176.631 261.944 180.76 265.913 182.771 271.047C184.782 276.181 184.517 281.897 181.977 286.766C177.425 295.498 168.005 313.599 157.314 333.445C164.723 334.557 172.344 335.086 180.072 335.086C184.147 335.086 188.222 334.927 192.244 334.61C210.503 321.537 236.436 302.431 256.654 281.897ZM332.706 152.972C327.414 122.964 313.548 95.9721 293.648 74.5905C293.595 74.961 293.595 75.3843 293.542 75.7548C292.166 91.4205 295.395 106.398 303.122 120.37C310.478 133.602 321.116 144.557 332.706 152.972Z" fill="#2EA24F"/>
<path d="M334.821 171.919C315.768 160.699 299.944 144.981 290.259 127.516C281.103 110.95 277.292 93.1674 278.88 74.5379C279.25 70.4627 279.833 66.3875 280.732 62.2593C267.819 51.1981 253.106 42.2538 237.069 35.9028C235.323 49.9808 232.888 65.1173 229.078 78.1368C208.755 147.786 176.206 150.273 155.883 153.184C153.29 153.555 152.284 156.783 154.242 158.582L172.872 175.518C173.877 176.471 175.253 176.947 176.576 176.947C177.317 176.947 178.111 176.788 178.799 176.471C186.844 172.925 196.212 171.337 206.161 171.337C244.32 171.337 290.576 194.624 299.362 218.017C312.752 253.688 265.172 297.774 225.373 328.365C288.83 308.942 334.98 249.93 334.98 180.123C335.033 177.318 334.98 174.619 334.821 171.919ZM166.574 273.905C134.184 262.421 137.73 239.769 141.593 223.891C142.281 221.139 141.064 218.229 138.576 216.747C123.863 207.961 74.7493 177.582 62.4178 155.619C47.9164 129.103 85.0166 99.8888 72.4735 87.0811C69.2451 83.7997 65.2228 81.8944 60.6183 81.1535C38.39 107.986 25 142.44 25 180.017C25 252.577 74.908 313.493 142.228 330.376C153.978 308.783 164.457 288.671 168.955 279.939C170.173 277.663 169.061 274.752 166.574 273.905Z" fill="#005C8E"/>
<path d="M299.415 217.963C290.629 194.517 244.373 171.23 206.214 171.23C196.264 171.23 186.844 172.818 178.852 176.417C178.111 176.735 177.37 176.893 176.629 176.893C175.306 176.893 173.93 176.417 172.924 175.464L154.295 158.529C152.337 156.729 153.342 153.501 155.936 153.13C176.259 150.219 208.807 147.732 229.131 78.0829C232.941 65.0634 235.376 49.927 237.122 35.849C232.518 33.9966 227.754 32.4089 222.938 31.0328C221.245 45.3225 218.863 60.9882 215.053 73.9548C207.378 100.311 197.164 118.517 184.78 128.097C175.041 135.612 165.25 136.988 155.777 138.311C155.142 138.417 154.454 138.47 153.819 138.576C150.326 139.052 147.097 140.587 144.504 142.916C142.069 145.086 140.323 147.838 139.37 150.96C138.418 154.083 138.312 157.364 139.106 160.54C139.952 163.927 141.805 166.996 144.398 169.378L163.028 186.314C166.732 189.701 171.548 191.554 176.576 191.554C179.434 191.554 182.186 190.971 184.78 189.807C190.601 187.214 197.799 185.891 206.214 185.891C214.259 185.891 222.885 187.108 231.936 189.437C240.615 191.659 249.348 194.941 257.234 198.91C264.908 202.774 271.629 207.166 276.763 211.718C281.261 215.687 284.437 219.762 285.654 223.097C288.247 230.03 287.136 238.233 282.267 248.183C277.345 258.239 268.718 269.565 256.598 281.896C236.381 302.431 210.448 321.537 192.136 334.609C203.621 333.709 214.735 331.592 225.373 328.311C265.225 297.721 312.805 253.581 299.415 217.963ZM181.975 286.712C184.515 281.843 184.78 276.127 182.768 270.994C180.757 265.86 176.629 261.891 171.443 260.038C157.047 254.904 155.142 248.448 154.507 246.331C152.919 240.879 154.189 233.999 155.83 227.331C156.941 222.885 156.571 218.333 154.771 214.099C153.025 209.918 150.008 206.425 146.092 204.097C138.365 199.492 123.228 190.125 108.25 179.222C85.1752 162.339 77.6599 152.707 75.2254 148.42C71.256 141.116 75.1725 132.066 81.5234 119.153C84.4872 113.119 87.2922 107.403 88.7741 101.529C91.8438 89.0913 87.2922 81.2055 82.9524 76.7598C79.724 73.4785 75.9134 70.8852 71.6794 69.1386C67.8159 72.9492 64.1112 76.9186 60.6182 81.0996C65.2226 81.8406 69.2449 83.7459 72.4733 87.0272C85.0165 99.7821 47.9162 128.997 62.4176 155.565C74.7491 177.529 123.863 207.907 138.576 216.693C141.011 218.175 142.281 221.033 141.593 223.838C137.729 239.715 134.184 262.314 166.573 273.852C169.061 274.751 170.225 277.609 169.008 279.938C164.509 288.67 154.03 308.729 142.281 330.375C147.203 331.592 152.231 332.598 157.365 333.339C168.002 313.545 177.423 295.498 181.975 286.712ZM332.704 152.971C333.816 159.164 334.504 165.462 334.821 171.866C315.768 160.646 299.944 144.927 290.259 127.462C281.103 110.896 277.292 93.1135 278.88 74.484C279.25 70.4088 279.832 66.3336 280.732 62.2055C285.231 66.069 289.571 70.1971 293.593 74.5899C293.54 74.9604 293.54 75.3838 293.487 75.7542C292.111 91.42 295.339 106.398 303.066 120.37C310.476 133.601 321.114 144.556 332.704 152.971Z" fill="white"/>
<defs>
<radialGradient id="paint0_angular" cx="0" cy="0" r="1" gradientUnits="userSpaceOnUse" gradientTransform="translate(180 180) rotate(90) scale(180)">
<stop offset="0.181761" stop-color="#009DF2"/>
<stop offset="0.475307" stop-color="#1CEA57"/>
<stop offset="0.602844" stop-color="#0098EB"/>
<stop offset="0.672923" stop-color="#15EC52"/>
<stop offset="0.797558" stop-color="#0095E7"/>
<stop offset="0.988921" stop-color="#1EE656"/>
</radialGradient>
</defs>
</svg>
