<svg width="360" height="360" viewBox="0 0 360 360" fill="none" xmlns="http://www.w3.org/2000/svg">
<rect width="360" height="360" rx="82" fill="#005ED1"/>
<path d="M273.082 240.908C264.562 269.03 251.965 306.198 188.186 306.198C127.78 306.198 87.702 255.033 87.2109 183.066C86.7411 106.724 124.492 57.032 190.812 57.032C246.861 57.032 263.474 91.234 269.474 127.676H283.246V58.8455C267.787 49.9482 225.701 38 189.936 38C102.691 38 42.9049 97.0375 44.0152 184.709C45.1682 269.563 97.7589 325.315 184.278 325.315C233.26 325.315 260.164 312.364 285.701 299.349C285.893 299.332 292 225.802 292 225.802H277.566L273.082 240.908Z" fill="white"/>
</svg>
