<svg width="360" height="360" viewBox="0 0 360 360" fill="none" xmlns="http://www.w3.org/2000/svg">
<rect width="360" height="360" rx="82" fill="#22559E"/>
<path d="M71 252.969H288V288.179H71V252.969Z" fill="white"/>
<path d="M178.591 71.3768H215.254L233.195 190.598L251.535 71.3768H287.798V234.272H263.634V111.595L243.268 234.272H222.387L202.735 111.595V234.033H178.591V71.3768Z" fill="white"/>
<path d="M128.335 123.1H153.113V111.595C153.113 100.327 153.113 68 111.663 68C71.1289 68 71.1289 104.919 71.1289 111.595C71.1289 115.152 71.1289 189.783 71.1289 196.26C71.1289 220.978 80.1703 237.173 103.596 237.331C117.447 237.352 127.104 228.688 129.15 225.389V234.033L153.113 234.27V146.008H114.127V165.6H128.335C128.335 165.6 128.335 188.43 128.335 191.392C128.335 204.467 124.242 213.368 112.061 213.368C99.8601 213.368 95.9856 203.89 95.9856 191.392C95.9856 183.643 95.9856 116.423 95.9856 111.595C95.9856 105.117 95.9856 90.3335 112.061 90.3335C128.335 90.3335 128.335 105.355 128.335 111.595C128.335 117.019 128.335 123.1 128.335 123.1Z" fill="white"/>
</svg>
