<svg width="360" height="360" viewBox="0 0 360 360" fill="none" xmlns="http://www.w3.org/2000/svg">
<rect width="360" height="360" rx="82" fill="url(#paint0_angular)"/>
<g clip-path="url(#clip0)">
<path fill-rule="evenodd" clip-rule="evenodd" d="M176.903 152.368V212.143H259.65C258.276 216.831 256.578 221.317 254.598 225.553C253.783 227.296 252.925 229.003 252.012 230.664C251.821 231.012 251.606 231.343 251.411 231.687C251.401 231.702 251.421 231.732 251.411 231.747C250.8 232.771 250.175 233.828 249.667 234.693C249.014 235.692 248.347 236.729 247.803 237.58C247.175 238.501 246.539 239.396 245.878 240.286C245.724 240.494 245.553 240.681 245.397 240.887C244.814 241.602 244.24 242.38 243.774 242.992C242.28 244.791 240.709 246.539 239.324 247.983C238.519 248.824 237.691 249.626 236.979 250.328C236.131 251.142 235.264 251.925 234.513 252.613C233.703 253.324 232.887 253.982 232.048 254.658C231.156 255.406 230.169 256.133 229.342 256.762L276.849 297.234C277.553 296.677 278.259 296.119 278.954 295.55H279.014C279.398 295.235 279.775 294.907 280.156 294.588C281.238 293.684 282.288 292.754 283.343 291.822C283.984 291.256 284.637 290.714 285.268 290.138C285.677 289.764 286.065 289.374 286.471 288.995C287.068 288.438 287.686 287.878 288.275 287.311C288.7 286.901 289.117 286.464 289.537 286.049C290.105 285.49 290.663 284.932 291.221 284.365C291.65 283.929 292.061 283.483 292.484 283.042C293.459 282.027 294.424 281.016 295.371 279.975C296.327 278.924 297.27 277.865 298.197 276.788C299.115 275.721 300.015 274.632 300.903 273.54C301.329 273.018 301.747 272.505 302.166 271.977C302.622 271.402 303.041 270.814 303.489 270.233C304.343 269.123 305.191 267.999 306.015 266.865C306.795 265.791 307.607 264.713 308.36 263.618C308.401 263.558 308.439 263.497 308.48 263.438C308.821 262.941 309.168 262.435 309.503 261.934C309.96 261.25 310.379 260.582 310.826 259.89C311.127 259.423 311.431 258.977 311.728 258.507C312.177 257.793 312.613 257.063 313.051 256.342C313.329 255.883 313.619 255.42 313.892 254.959C314.338 254.206 314.782 253.434 315.215 252.673C315.914 251.447 316.595 250.192 317.26 248.945C318.522 246.577 319.73 244.168 320.868 241.729C320.925 241.607 320.992 241.49 321.049 241.368C321.232 240.971 321.409 240.564 321.59 240.165C322 239.259 322.4 238.374 322.792 237.459C322.948 237.098 323.121 236.739 323.274 236.377C323.672 235.428 324.037 234.448 324.416 233.49C324.553 233.145 324.703 232.814 324.837 232.468C325.217 231.486 325.559 230.512 325.92 229.521C326.035 229.203 326.167 228.878 326.28 228.559C326.645 227.533 327.02 226.467 327.363 225.432C327.463 225.13 327.565 224.833 327.663 224.53C328.005 223.476 328.307 222.406 328.626 221.343C328.932 220.322 329.243 219.305 329.528 218.276C329.628 217.914 329.731 217.556 329.828 217.193C329.897 216.936 329.941 216.669 330.009 216.411C330.366 215.056 330.711 213.692 331.031 212.322C331.125 211.92 331.241 211.523 331.332 211.12C331.827 208.911 332.257 206.688 332.655 204.444C332.884 203.151 333.12 201.84 333.316 200.536C333.337 200.396 333.356 200.254 333.376 200.115C333.397 199.974 333.416 199.835 333.436 199.694C333.442 199.654 333.43 199.613 333.436 199.573C333.732 197.517 334.006 195.461 334.218 193.379C334.287 192.705 334.338 192.012 334.398 191.335C334.5 190.183 334.624 189.005 334.699 187.847C334.72 187.528 334.74 187.204 334.759 186.885C334.763 186.825 334.755 186.764 334.759 186.704C334.841 185.287 334.897 183.863 334.939 182.435C334.94 182.395 334.938 182.355 334.939 182.315C334.982 180.846 334.999 179.403 334.999 177.925C334.999 169.212 334.253 160.682 332.834 152.367H260.311H176.902L176.903 152.368Z" fill="#4385F5"/>
<path fill-rule="evenodd" clip-rule="evenodd" d="M334.76 186.886C334.705 187.827 334.591 188.776 334.519 189.712C334.576 189.088 334.659 188.468 334.699 187.848C334.72 187.529 334.741 187.205 334.76 186.886H334.76ZM332.655 204.445C332.261 206.669 331.822 208.871 331.332 211.06C331.823 208.869 332.26 206.671 332.655 204.445ZM91.6307 211.541C76.5749 223.237 56.0008 239.259 43.041 249.547C69.0897 297.882 120.674 330.79 180.03 330.79C216.683 330.79 250.318 318.213 276.849 297.235L229.342 256.763C215.613 266.863 198.404 272.519 178.767 272.519C138.818 272.519 104.397 247.341 91.6307 211.541ZM276.849 297.235C277.568 296.666 278.305 296.132 279.014 295.551H278.954C278.259 296.12 277.554 296.678 276.849 297.235H276.849ZM331.031 212.443C330.719 213.775 330.356 215.094 330.009 216.412C330.357 215.088 330.718 213.781 331.031 212.443ZM325.92 229.522C325.634 230.309 325.369 231.09 325.078 231.867C325.374 231.094 325.636 230.301 325.92 229.522ZM324.416 233.491C323.894 234.812 323.351 236.157 322.793 237.46C322.948 237.099 323.122 236.739 323.274 236.377C323.672 235.429 324.037 234.448 324.416 233.491ZM320.508 242.451C320.048 243.423 319.605 244.377 319.124 245.338C319.602 244.381 320.05 243.419 320.508 242.451ZM317.26 248.946C316.638 250.114 315.988 251.282 315.336 252.434C315.991 251.279 316.635 250.119 317.26 248.946ZM236.979 250.329C236.198 251.075 235.383 251.842 234.574 252.554C235.4 251.827 236.183 251.091 236.979 250.329ZM234.513 252.614C233.703 253.325 232.887 253.983 232.048 254.659C232.88 253.988 233.71 253.319 234.513 252.614ZM231.988 254.719C231.147 255.394 230.27 256.063 229.402 256.703C230.272 256.062 231.146 255.396 231.988 254.719ZM306.015 266.866C305.191 268 304.343 269.124 303.489 270.234C303.059 270.793 302.662 271.364 302.226 271.918C303.533 270.267 304.777 268.57 306.015 266.866ZM300.903 273.541C300.015 274.633 299.115 275.722 298.197 276.789C299.119 275.718 300.011 274.637 300.903 273.541ZM295.371 279.976C294.424 281.017 293.46 282.028 292.484 283.043C293.452 282.036 294.431 281.008 295.371 279.976ZM285.208 290.199C284.596 290.754 283.963 291.276 283.344 291.823C283.962 291.276 284.598 290.755 285.208 290.199Z" fill="#34A855"/>
<path fill-rule="evenodd" clip-rule="evenodd" d="M91.2696 150.744L40.9961 110.212C30.7488 130.631 25 153.603 25 177.925C25 203.81 31.5272 228.183 43.0407 249.547C56.0005 239.259 76.5746 223.237 91.6305 211.541C88.2096 201.948 86.3385 191.589 86.3385 180.752C86.3385 170.248 88.0955 160.163 91.2696 150.744Z" fill="#FABC07"/>
<path fill-rule="evenodd" clip-rule="evenodd" d="M180.03 25C118.83 25 65.8993 60.0488 40.6953 110.874L91.3297 150.684C103.674 114.154 137.793 87.8419 178.045 87.8419C200.808 87.8419 220.478 96.2049 235.235 110.032L281.9 62.7653C254.658 39.283 219.044 25 180.03 25Z" fill="#E94335"/>
<path fill-rule="evenodd" clip-rule="evenodd" d="M39.9134 112.437C39.0321 114.268 38.1964 116.101 37.3877 117.97C38.1994 116.093 39.0288 114.274 39.9134 112.437Z" fill="#34A855"/>
<path fill-rule="evenodd" clip-rule="evenodd" d="M37.1479 118.511C36.3743 120.318 35.627 122.142 34.9229 123.984C35.6229 122.154 36.3795 120.307 37.1479 118.511Z" fill="#34A855"/>
<path fill-rule="evenodd" clip-rule="evenodd" d="M34.9228 123.984C34.6721 124.639 34.4429 125.308 34.2012 125.968C34.4442 125.305 34.6707 124.643 34.9228 123.984Z" fill="#34A855"/>
<path fill-rule="evenodd" clip-rule="evenodd" d="M31.4341 134.207C30.9087 135.945 30.3943 137.675 29.9307 139.438C30.3922 137.684 30.9115 135.936 31.4341 134.207Z" fill="#34A855"/>
<path fill-rule="evenodd" clip-rule="evenodd" d="M26.8043 154.653C26.6212 155.835 26.4787 157.009 26.3232 158.201C26.479 157.008 26.6209 155.837 26.8043 154.653Z" fill="#34A855"/>
<path fill-rule="evenodd" clip-rule="evenodd" d="M26.0821 159.945C25.9277 161.244 25.7822 162.544 25.6611 163.854C25.7817 162.55 25.9286 161.239 26.0821 159.945Z" fill="#34A855"/>
<path fill-rule="evenodd" clip-rule="evenodd" d="M88.3233 161.629C88.1746 162.347 88.0345 163.069 87.9023 163.793C88.0357 163.07 88.1735 162.346 88.3233 161.629Z" fill="#34A855"/>
<path fill-rule="evenodd" clip-rule="evenodd" d="M87.902 163.793C87.7291 164.731 87.5657 165.673 87.4209 166.62C87.5643 165.669 87.7304 164.734 87.902 163.793Z" fill="#34A855"/>
<path fill-rule="evenodd" clip-rule="evenodd" d="M86.8198 171.431C86.6688 172.942 86.5367 174.469 86.459 176.001C86.5352 174.478 86.672 172.933 86.8198 171.431Z" fill="#34A855"/>
<path fill-rule="evenodd" clip-rule="evenodd" d="M86.4591 176.001C86.3792 177.577 86.3389 179.156 86.3389 180.752C86.3389 179.149 86.3799 177.584 86.4591 176.001Z" fill="#34A855"/>
<path fill-rule="evenodd" clip-rule="evenodd" d="M86.3389 180.752C86.3389 182.349 86.3789 183.927 86.4591 185.502C86.3785 183.922 86.3389 182.354 86.3389 180.752Z" fill="#34A855"/>
<path fill-rule="evenodd" clip-rule="evenodd" d="M25.1201 184.059C25.1595 185.045 25.2423 186.025 25.3005 187.006C25.2424 186.029 25.1596 185.041 25.1201 184.059Z" fill="#34A855"/>
<path fill-rule="evenodd" clip-rule="evenodd" d="M86.7598 189.171C86.8396 190.053 86.8958 190.943 87.0003 191.817C86.8942 190.932 86.8406 190.063 86.7598 189.171Z" fill="#34A855"/>
<path fill-rule="evenodd" clip-rule="evenodd" d="M87.7217 196.748C87.9321 197.947 88.1869 199.114 88.4433 200.296C88.1851 199.107 87.9333 197.954 87.7217 196.748Z" fill="#34A855"/>
<path fill-rule="evenodd" clip-rule="evenodd" d="M29.8711 216.112C30.5048 218.541 31.2256 220.947 31.9758 223.328C31.2273 220.952 30.5037 218.535 29.8711 216.112Z" fill="#34A855"/>
<path fill-rule="evenodd" clip-rule="evenodd" d="M33.7803 228.68C34.1322 229.665 34.491 230.65 34.8627 231.627C34.4915 230.651 34.1317 229.664 33.7803 228.68Z" fill="#34A855"/>
<path fill-rule="evenodd" clip-rule="evenodd" d="M34.8623 231.627C35.5798 233.511 36.2973 235.371 37.0873 237.219C36.306 235.389 35.5726 233.492 34.8623 231.627Z" fill="#34A855"/>
</g>
<defs>
<radialGradient id="paint0_angular" cx="0" cy="0" r="1" gradientUnits="userSpaceOnUse" gradientTransform="translate(180 180) rotate(90) scale(180)">
<stop offset="0.0208333" stop-color="#34A855" stop-opacity="0.15"/>
<stop offset="0.244792" stop-color="#FABC07" stop-opacity="0.15"/>
<stop offset="0.479167" stop-color="#E94335" stop-opacity="0.15"/>
<stop offset="0.828125" stop-color="#4385F5" stop-opacity="0.15"/>
</radialGradient>
<clipPath id="clip0">
<rect x="25" y="25" width="310" height="305.79" fill="white"/>
</clipPath>
</defs>
</svg>
