<svg width="360" height="360" viewBox="0 0 360 360" fill="none" xmlns="http://www.w3.org/2000/svg">
<rect width="360" height="360" rx="82" fill="url(#paint0_angular)"/>
<g clip-path="url(#clip0)">
<path fill-rule="evenodd" clip-rule="evenodd" d="M176.903 156.368V216.143H259.65C258.276 220.831 256.578 225.317 254.598 229.553C253.783 231.296 252.925 233.003 252.012 234.664C251.821 235.012 251.606 235.343 251.411 235.687C251.401 235.702 251.421 235.732 251.411 235.747C250.8 236.771 250.175 237.828 249.667 238.693C249.014 239.692 248.347 240.729 247.803 241.58C247.175 242.501 246.539 243.396 245.878 244.286C245.724 244.494 245.553 244.681 245.397 244.887C244.814 245.602 244.24 246.38 243.774 246.992C242.28 248.791 240.709 250.539 239.324 251.983C238.519 252.824 237.691 253.626 236.979 254.328C236.131 255.142 235.264 255.925 234.513 256.613C233.703 257.324 232.887 257.982 232.048 258.658C231.156 259.406 230.169 260.133 229.342 260.762L276.849 301.234C277.553 300.677 278.259 300.119 278.954 299.55H279.014C279.398 299.235 279.775 298.907 280.156 298.588C281.238 297.684 282.288 296.754 283.343 295.822C283.984 295.256 284.637 294.714 285.268 294.138C285.677 293.764 286.065 293.374 286.471 292.995C287.068 292.438 287.686 291.878 288.275 291.311C288.7 290.901 289.117 290.464 289.537 290.049C290.105 289.49 290.663 288.932 291.221 288.365C291.65 287.929 292.061 287.483 292.484 287.042C293.459 286.027 294.424 285.016 295.371 283.975C296.327 282.924 297.27 281.865 298.197 280.788C299.115 279.721 300.015 278.632 300.903 277.54C301.329 277.018 301.747 276.505 302.166 275.977C302.622 275.402 303.041 274.814 303.489 274.233C304.343 273.123 305.191 271.999 306.015 270.865C306.795 269.791 307.607 268.713 308.36 267.618C308.401 267.558 308.439 267.497 308.48 267.438C308.821 266.941 309.168 266.435 309.503 265.934C309.96 265.25 310.379 264.582 310.826 263.89C311.127 263.423 311.431 262.977 311.728 262.507C312.177 261.793 312.613 261.063 313.051 260.342C313.329 259.883 313.619 259.42 313.892 258.959C314.338 258.206 314.782 257.434 315.215 256.673C315.914 255.447 316.595 254.192 317.26 252.945C318.522 250.577 319.73 248.168 320.868 245.729C320.925 245.607 320.992 245.49 321.049 245.368C321.232 244.971 321.409 244.564 321.59 244.165C322 243.259 322.4 242.374 322.792 241.459C322.948 241.098 323.121 240.739 323.274 240.377C323.672 239.428 324.037 238.448 324.416 237.49C324.553 237.145 324.703 236.814 324.837 236.468C325.217 235.486 325.559 234.512 325.92 233.521C326.035 233.203 326.167 232.878 326.28 232.559C326.645 231.533 327.02 230.467 327.363 229.432C327.463 229.13 327.565 228.833 327.663 228.53C328.005 227.476 328.307 226.406 328.626 225.343C328.932 224.322 329.243 223.305 329.528 222.276C329.628 221.914 329.731 221.556 329.828 221.193C329.897 220.936 329.941 220.669 330.009 220.411C330.366 219.056 330.711 217.692 331.031 216.322C331.125 215.92 331.241 215.523 331.332 215.12C331.827 212.911 332.257 210.688 332.655 208.444C332.884 207.151 333.12 205.84 333.316 204.536C333.337 204.396 333.356 204.254 333.376 204.115C333.397 203.974 333.416 203.835 333.436 203.694C333.442 203.654 333.43 203.613 333.436 203.573C333.732 201.517 334.006 199.461 334.218 197.379C334.287 196.705 334.338 196.012 334.398 195.335C334.5 194.183 334.624 193.005 334.699 191.847C334.72 191.528 334.74 191.204 334.759 190.885C334.763 190.825 334.755 190.764 334.759 190.704C334.841 189.287 334.897 187.863 334.939 186.435C334.94 186.395 334.938 186.355 334.939 186.315C334.982 184.846 334.999 183.403 334.999 181.925C334.999 173.212 334.253 164.682 332.834 156.367H260.311H176.902L176.903 156.368Z" fill="#9C9C9C"/>
<path fill-rule="evenodd" clip-rule="evenodd" d="M334.76 190.886C334.705 191.827 334.591 192.776 334.519 193.712C334.576 193.088 334.659 192.468 334.699 191.848C334.72 191.529 334.741 191.205 334.76 190.886H334.76ZM332.655 208.445C332.261 210.669 331.822 212.871 331.332 215.06C331.823 212.869 332.26 210.671 332.655 208.445ZM91.6307 215.541C76.5749 227.237 56.0008 243.259 43.041 253.547C69.0897 301.882 120.674 334.79 180.03 334.79C216.683 334.79 250.318 322.213 276.849 301.235L229.342 260.763C215.613 270.863 198.404 276.519 178.767 276.519C138.818 276.519 104.397 251.341 91.6307 215.541ZM276.849 301.235C277.568 300.666 278.305 300.132 279.014 299.551H278.954C278.259 300.12 277.554 300.678 276.849 301.235H276.849ZM331.031 216.443C330.719 217.775 330.356 219.094 330.009 220.412C330.357 219.088 330.718 217.781 331.031 216.443ZM325.92 233.522C325.634 234.309 325.369 235.09 325.078 235.867C325.374 235.094 325.636 234.301 325.92 233.522ZM324.416 237.491C323.894 238.812 323.351 240.157 322.793 241.46C322.948 241.099 323.122 240.739 323.274 240.377C323.672 239.429 324.037 238.448 324.416 237.491ZM320.508 246.451C320.048 247.423 319.605 248.377 319.124 249.338C319.602 248.381 320.05 247.419 320.508 246.451ZM317.26 252.946C316.638 254.114 315.988 255.282 315.336 256.434C315.991 255.279 316.635 254.119 317.26 252.946ZM236.979 254.329C236.198 255.075 235.383 255.842 234.574 256.554C235.4 255.827 236.183 255.091 236.979 254.329ZM234.513 256.614C233.703 257.325 232.887 257.983 232.048 258.659C232.88 257.988 233.71 257.319 234.513 256.614ZM231.988 258.719C231.147 259.394 230.27 260.063 229.402 260.703C230.272 260.062 231.146 259.396 231.988 258.719ZM306.015 270.866C305.191 272 304.343 273.124 303.489 274.234C303.059 274.793 302.662 275.364 302.226 275.918C303.533 274.267 304.777 272.57 306.015 270.866ZM300.903 277.541C300.015 278.633 299.115 279.722 298.197 280.789C299.119 279.718 300.011 278.637 300.903 277.541ZM295.371 283.976C294.424 285.017 293.46 286.028 292.484 287.043C293.452 286.036 294.431 285.008 295.371 283.976ZM285.208 294.199C284.596 294.754 283.963 295.276 283.344 295.823C283.962 295.276 284.598 294.755 285.208 294.199Z" fill="#6E6E6E"/>
<path fill-rule="evenodd" clip-rule="evenodd" d="M91.2696 154.744L40.9961 114.212C30.7488 134.631 25 157.603 25 181.925C25 207.81 31.5272 232.183 43.0407 253.547C56.0005 243.259 76.5746 227.237 91.6305 215.541C88.2096 205.948 86.3385 195.589 86.3385 184.752C86.3385 174.248 88.0955 164.163 91.2696 154.744Z" fill="#818181"/>
<path fill-rule="evenodd" clip-rule="evenodd" d="M180.03 29C118.83 29 65.8993 64.0488 40.6953 114.874L91.3297 154.684C103.674 118.154 137.793 91.8419 178.045 91.8419C200.808 91.8419 220.478 100.205 235.235 114.032L281.9 66.7653C254.658 43.283 219.044 29 180.03 29Z" fill="#8F8F8F"/>
<path fill-rule="evenodd" clip-rule="evenodd" d="M39.9134 116.437C39.0321 118.268 38.1964 120.101 37.3877 121.97C38.1994 120.093 39.0288 118.274 39.9134 116.437Z" fill="#34A855"/>
<path fill-rule="evenodd" clip-rule="evenodd" d="M37.1479 122.511C36.3743 124.318 35.627 126.142 34.9229 127.984C35.6229 126.154 36.3795 124.307 37.1479 122.511Z" fill="#34A855"/>
<path fill-rule="evenodd" clip-rule="evenodd" d="M34.9228 127.984C34.6721 128.639 34.4429 129.308 34.2012 129.968C34.4442 129.305 34.6707 128.643 34.9228 127.984Z" fill="#34A855"/>
<path fill-rule="evenodd" clip-rule="evenodd" d="M31.4341 138.207C30.9087 139.945 30.3943 141.675 29.9307 143.438C30.3922 141.684 30.9115 139.936 31.4341 138.207Z" fill="#34A855"/>
<path fill-rule="evenodd" clip-rule="evenodd" d="M26.8043 158.653C26.6212 159.835 26.4787 161.009 26.3232 162.201C26.479 161.008 26.6209 159.837 26.8043 158.653Z" fill="#34A855"/>
<path fill-rule="evenodd" clip-rule="evenodd" d="M26.0821 163.945C25.9277 165.244 25.7822 166.544 25.6611 167.854C25.7817 166.55 25.9286 165.239 26.0821 163.945Z" fill="#34A855"/>
<path fill-rule="evenodd" clip-rule="evenodd" d="M88.3233 165.629C88.1746 166.347 88.0345 167.069 87.9023 167.793C88.0357 167.07 88.1735 166.346 88.3233 165.629Z" fill="#34A855"/>
<path fill-rule="evenodd" clip-rule="evenodd" d="M87.902 167.793C87.7291 168.731 87.5657 169.673 87.4209 170.62C87.5643 169.669 87.7304 168.734 87.902 167.793Z" fill="#34A855"/>
<path fill-rule="evenodd" clip-rule="evenodd" d="M86.8198 175.431C86.6688 176.942 86.5367 178.469 86.459 180.001C86.5352 178.478 86.672 176.933 86.8198 175.431Z" fill="#34A855"/>
<path fill-rule="evenodd" clip-rule="evenodd" d="M86.4591 180.001C86.3792 181.577 86.3389 183.156 86.3389 184.752C86.3389 183.149 86.3799 181.584 86.4591 180.001Z" fill="#34A855"/>
<path fill-rule="evenodd" clip-rule="evenodd" d="M86.3389 184.752C86.3389 186.349 86.3789 187.927 86.4591 189.502C86.3785 187.922 86.3389 186.354 86.3389 184.752Z" fill="#34A855"/>
<path fill-rule="evenodd" clip-rule="evenodd" d="M25.1201 188.059C25.1595 189.045 25.2423 190.025 25.3005 191.006C25.2424 190.029 25.1596 189.041 25.1201 188.059Z" fill="#34A855"/>
<path fill-rule="evenodd" clip-rule="evenodd" d="M86.7598 193.171C86.8396 194.053 86.8958 194.943 87.0003 195.817C86.8942 194.932 86.8406 194.063 86.7598 193.171Z" fill="#34A855"/>
<path fill-rule="evenodd" clip-rule="evenodd" d="M87.7217 200.748C87.9321 201.947 88.1869 203.114 88.4433 204.296C88.1851 203.107 87.9333 201.954 87.7217 200.748Z" fill="#34A855"/>
<path fill-rule="evenodd" clip-rule="evenodd" d="M29.8711 220.112C30.5048 222.541 31.2256 224.947 31.9758 227.328C31.2273 224.952 30.5037 222.535 29.8711 220.112Z" fill="#34A855"/>
<path fill-rule="evenodd" clip-rule="evenodd" d="M33.7803 232.68C34.1322 233.665 34.491 234.65 34.8627 235.627C34.4915 234.651 34.1317 233.664 33.7803 232.68Z" fill="#34A855"/>
<path fill-rule="evenodd" clip-rule="evenodd" d="M34.8623 235.627C35.5798 237.511 36.2973 239.371 37.0873 241.219C36.306 239.389 35.5726 237.492 34.8623 235.627Z" fill="#34A855"/>
</g>
<defs>
<radialGradient id="paint0_angular" cx="0" cy="0" r="1" gradientUnits="userSpaceOnUse" gradientTransform="translate(180 180) rotate(90) scale(180)">
<stop offset="0.0208333" stop-color="#6E6E6E" stop-opacity="0.15"/>
<stop offset="0.239583" stop-color="#808080" stop-opacity="0.15"/>
<stop offset="0.463542" stop-color="#8F8F8F" stop-opacity="0.15"/>
<stop offset="0.802083" stop-color="#9C9C9C" stop-opacity="0.15"/>
</radialGradient>
<clipPath id="clip0">
<rect x="25" y="29" width="310" height="305.79" fill="white"/>
</clipPath>
</defs>
</svg>
