<svg width="360" height="360" viewBox="0 0 360 360" fill="none" xmlns="http://www.w3.org/2000/svg">
<rect width="360" height="360" rx="82" fill="#102E87"/>
<path d="M98.301 55.2944C99.8323 54.7024 101.398 54.051 103.061 54C154.001 54.011 204.942 54.0059 255.88 54.0034C258.214 54.1758 260.394 55.2162 262.461 56.2507C265.094 57.5145 267.432 59.3278 269.438 61.44C270.932 62.8465 272.167 64.506 273.202 66.2709C280.79 79.2391 288.322 92.2413 295.91 105.21C296.677 106.659 297.727 107.971 298.234 109.55C178.836 109.601 241.077 109.587 60.8164 109.555C60.8589 109.307 60.9013 109.06 60.943 108.814C68.9851 95.0925 76.8923 81.2869 84.9064 67.5475C87.9801 62.2265 92.6021 57.709 98.301 55.2944Z" fill="#FDB314"/>
<path d="M110.423 122.029C114.518 121.426 118.685 121.203 122.811 121.637C128.569 122.114 134.528 123.5 139.173 127.111C142.928 129.948 145.207 134.572 145.291 139.265C145.295 147.856 145.283 156.449 145.297 165.043C138.409 165.04 131.522 165.037 124.633 165.043C124.659 157.116 124.639 149.187 124.644 141.26C124.599 139.279 124.187 136.949 122.358 135.827C120.685 134.944 118.689 134.927 116.853 135.139C115.517 135.261 114.112 135.74 113.311 136.882C112.121 138.546 112.169 140.689 112.112 142.646C112.118 167.565 112.107 192.484 112.109 217.403C112.171 219.54 112.036 221.915 113.384 223.722C114.54 225.177 116.548 225.42 118.282 225.471C120.05 225.468 122.092 225.273 123.312 223.829C124.44 222.431 124.635 220.534 124.649 218.799C124.637 210.54 124.646 202.284 124.643 194.027C121.911 193.984 119.176 194.089 116.443 193.967C116.443 189.421 116.441 184.876 116.446 180.33C126.062 180.328 135.677 180.336 145.295 180.325C145.284 194.003 145.289 207.68 145.289 221.356C145.154 225.141 143.691 228.913 141.046 231.654C137.736 235.193 133.043 237.057 128.394 238.058C123.676 239.084 118.812 239.169 114.009 238.893C108.928 238.433 103.756 237.339 99.3659 234.627C96.3092 232.763 93.797 229.945 92.5391 226.576C91.6117 224.104 91.3203 221.427 91.3857 218.799C91.3883 192.67 91.3883 166.539 91.3883 140.409C91.4393 136.349 92.6376 132.151 95.4523 129.125C99.2589 124.875 104.933 122.92 110.423 122.029Z" fill="white"/>
<path d="M233.641 122.574C239.921 121.175 246.466 121.084 252.809 122.126C257.73 122.997 262.725 124.701 266.422 128.194C269.539 131.09 271.253 135.326 271.315 139.549C271.32 148.046 271.3 156.541 271.322 165.037C264.434 165.047 257.542 165.032 250.653 165.047C250.668 157.212 250.653 149.376 250.662 141.543C250.613 139.769 250.38 137.816 249.145 136.442C247.901 135.173 246.025 135.086 244.36 135.034C242.699 135.1 240.795 135.221 239.611 136.552C238.148 138.114 238.206 140.409 238.088 142.409C238.081 167.403 238.094 192.401 238.082 217.399C238.145 219.489 238.074 221.779 239.287 223.592C240.344 225.101 242.335 225.4 244.045 225.468C245.846 225.488 247.922 225.362 249.227 223.951C250.375 222.614 250.597 220.775 250.656 219.078C250.668 210.696 250.651 202.316 250.665 193.935C257.548 193.956 264.432 193.947 271.315 193.938C271.311 202.975 271.315 212.01 271.315 221.048C271.25 224.94 269.76 228.825 267.059 231.654C264.243 234.671 260.386 236.476 256.46 237.565C250.939 239.076 245.15 239.245 239.47 238.847C233.489 238.253 227.241 236.698 222.661 232.584C219.224 229.578 217.464 225.005 217.416 220.496C217.422 193.608 217.419 166.721 217.416 139.831C217.529 135.756 218.951 131.6 221.885 128.692C224.982 125.396 229.324 123.62 233.641 122.574Z" fill="white"/>
<path d="M292.503 123.422C295.527 123.428 298.546 123.422 301.569 123.426C303.173 123.44 304.795 123.307 306.373 123.674C306.625 124.2 306.908 124.714 307.2 125.222C314.74 137.9 322.157 150.654 329.679 163.34C330.993 165.449 332.001 167.726 332.92 170.027C333.187 170.965 333.475 171.902 333.777 172.832C333.859 173.298 333.943 173.766 334.056 174.226C334.699 177.482 334.603 180.869 334.062 184.137C333.859 184.884 333.677 185.637 333.5 186.393C333.204 187.336 332.91 188.28 332.525 189.19C332.491 189.337 332.423 189.633 332.389 189.779C331.997 190.626 331.611 191.475 331.252 192.334C329.544 195.888 327.426 199.214 325.529 202.664C322.232 208.21 319.088 213.847 315.839 219.422C312.557 224.951 309.489 230.609 306.13 236.093C302.64 236.096 299.148 236.088 295.658 236.089C294.476 236.093 293.289 236.141 292.116 235.975C292.083 198.656 292.158 161.338 292.153 124.023C292.241 123.87 292.415 123.572 292.503 123.422Z" fill="#FDB314"/>
<path d="M53.1389 123.628C57.8025 123.526 62.4695 123.591 67.1339 123.596C67.2214 125.818 66.9615 128.06 67.3004 130.266C67.4099 138.537 67.3148 146.811 67.3479 155.081C67.3479 181.787 67.342 208.492 67.3513 235.195C67.5008 235.79 66.9539 236.202 66.3984 236.095C62.2503 236.078 58.0997 236.103 53.9517 236.084C53.4811 236.149 53.1032 235.845 52.8722 235.469C45.2895 222.351 37.7153 209.224 30.1521 196.092C27.1973 190.825 24.7012 184.951 25.029 178.789C24.8566 175.471 25.666 172.203 26.8474 169.126C27.1413 168.472 27.4368 167.821 27.7018 167.154C29.5202 163.433 31.7989 159.963 33.8458 156.368C40.3091 145.474 46.707 134.544 53.1389 123.628Z" fill="#FDB314"/>
<path d="M206.208 133.131C203.725 129.44 199.675 127.117 195.493 125.847C189.413 123.99 182.99 123.639 176.67 123.707C169.632 123.696 162.597 123.724 155.558 123.692C155.381 125.212 155.468 126.744 155.541 128.269C155.392 130.336 155.652 132.403 155.466 134.473C155.719 137.485 155.285 140.502 155.527 143.516C155.541 146.807 155.44 150.098 155.558 153.391C155.595 155.932 155.364 158.469 155.484 161.013C155.608 165.624 155.318 170.239 155.558 174.856C155.332 177.85 155.555 180.851 155.538 183.849C155.298 186.186 155.651 188.532 155.47 190.87C155.411 193.518 155.533 196.168 155.47 198.819C155.766 203.221 155.289 207.629 155.55 212.03C155.484 213.532 155.428 215.038 155.459 216.545C155.619 219.269 155.33 221.998 155.527 224.722C155.346 226.6 155.654 228.478 155.479 230.357C155.428 232.494 155.484 234.635 155.454 236.772C159.982 236.887 164.511 236.918 169.045 236.894C171.451 236.857 173.858 236.984 176.26 236.79C176.257 222.352 176.264 207.911 176.257 193.474C182.03 193.333 187.903 193.936 193.575 192.546C198.089 191.494 202.482 189.171 205.254 185.366C208.314 181.32 209.374 176.143 209.509 171.169C209.524 162.884 209.506 154.602 209.517 146.321C209.567 141.754 208.82 136.98 206.208 133.131ZM188.869 153.671C188.866 160.436 188.873 167.203 188.866 173.971C188.801 175.135 188.753 176.424 187.97 177.367C186.946 178.643 185.308 179.188 183.751 179.453C181.283 179.941 178.754 179.814 176.256 179.828C176.272 165.638 176.247 151.449 176.271 137.256C178.7 137.29 181.177 137.067 183.562 137.67C185.127 138.023 186.584 138.981 187.375 140.397C188.57 142.43 188.703 144.866 188.745 147.167C188.945 149.332 188.844 151.503 188.869 153.671Z" fill="white"/>
<path d="M61.3359 249.986C91.7797 249.91 122.225 249.975 152.671 249.953C201.15 249.964 249.629 249.936 298.108 249.966C298.065 250.201 298.026 250.434 297.99 250.672C295.559 254.761 293.269 258.937 290.844 263.031C287.909 268.171 284.93 273.29 281.982 278.424C279.901 282.178 277.631 285.827 275.62 289.617L275.353 289.828C274.383 291.966 272.992 293.863 271.449 295.615C270.597 296.641 269.614 297.543 268.647 298.46C268.489 298.488 268.17 298.547 268.01 298.579C267.959 298.722 267.858 299.013 267.807 299.157C265.542 300.702 263.273 302.289 260.689 303.262C259.039 303.942 257.322 304.415 255.599 304.864C254.973 304.96 254.35 305.076 253.733 305.208C250.605 305.426 247.467 305.273 244.335 305.317C199.027 305.321 153.718 305.312 108.408 305.323C103.476 305.469 98.666 303.715 94.4593 301.251C91.1886 299.283 88.3434 296.61 86.1292 293.506C78.775 280.729 71.4938 267.912 64.165 255.122C63.2163 253.412 62.1453 251.768 61.3359 249.986Z" fill="#FDB314"/>
</svg>
