<svg width="360" height="360" viewBox="0 0 360 360" fill="none" xmlns="http://www.w3.org/2000/svg">
<rect width="360" height="360" rx="82" fill="#129B75"/>
<path fill-rule="evenodd" clip-rule="evenodd" d="M92.0121 204.777C92.3378 194.308 105.096 181.554 124.067 171.414C136.496 188.423 156.779 199.218 179.346 199.218C182.616 199.218 185.89 198.893 189.16 198.567C178.365 205.437 164.955 211.976 150.235 215.902C117.528 225.056 91.3565 220.149 92.0121 204.777Z" fill="white"/>
<path fill-rule="evenodd" clip-rule="evenodd" d="M145.987 116.132C145.661 126.601 162.996 131.178 184.912 126.601C206.828 121.694 224.819 109.266 225.144 98.7971C225.47 88.3318 208.135 83.7507 186.219 88.6576C164.303 93.5604 146.313 105.993 145.987 116.132ZM110.006 129.871C110.006 91.9274 141.08 60.8532 179.35 60.8532C217.619 60.8532 248.368 91.9274 248.368 129.871C248.368 164.871 222.526 193.657 189.163 198.563C201.921 189.731 210.098 179.917 210.424 171.415C211.079 156.368 184.912 151.132 152.201 160.294C142.062 163.238 132.248 167.164 124.071 171.415C115.239 159.964 110.006 145.573 110.006 129.871Z" fill="white"/>
<path fill-rule="evenodd" clip-rule="evenodd" d="M230.703 54.6388C230.703 49.7319 239.535 44.4992 249.675 43.188C260.14 42.2067 268.317 45.1508 267.991 50.0577C267.991 54.9646 259.489 60.1973 249.019 61.1786C238.55 62.4858 230.373 59.5416 230.703 54.6388Z" fill="white"/>
<path fill-rule="evenodd" clip-rule="evenodd" d="M101.503 297.019C102.811 275.758 137.814 246.647 180.335 231.271C222.53 216.224 255.897 221.131 254.916 242.066C253.608 263.326 218.279 292.767 176.084 307.814C133.889 322.86 100.526 318.279 101.503 297.019Z" fill="white"/>
</svg>
