<svg width="360" height="360" viewBox="0 0 360 360" fill="none" xmlns="http://www.w3.org/2000/svg">
<rect width="360" height="360" rx="82" fill="#002A5F"/>
<path d="M268.016 82.2018H276.398C284.326 82.1937 288.008 89.5851 288.008 95.1748V182.175C288.016 188.444 284.326 194.256 277.225 194.215H268.016V82.2018ZM276.451 78.9761H243.105V82.2018H251.929V277.765H243.105V281.224H280.726V277.765H268.014V198.19H278.975C294.923 198.19 304 189.79 304 178.499V100.348C304.002 89.0848 296.167 78.9586 276.451 78.9761Z" fill="white"/>
<path d="M99.9524 81.5721C99.9524 84.7978 98.0711 84.5551 96.5635 83.4965C91.1464 79.6922 84.5048 76.956 78.5725 77.0005C68.9021 77.0707 55.0445 81.7528 55 102.143V252.06C55.147 278.101 67.6777 282.966 80.0303 283.097C89.6468 283.189 94.2251 278.112 98.1156 276.417C100.168 275.521 102.413 277.592 102.413 281.44H106.406V186.063H114.418V182.856H80.5805V186.063H90.3966V268.103C90.3966 274.755 85.8776 279.789 80.1841 279.8C74.6995 279.8 70.4975 274.591 70.4975 268.103V96.1822C70.4894 91.5082 71.3187 80.6416 78.5456 80.6928C92.4571 80.7967 99.8418 121.48 99.9443 142.525H103.937V78.8642H99.9631L99.9524 81.5721Z" fill="white"/>
<path d="M161.388 194.494L171.136 107.226L181.086 194.494H161.388ZM181.494 198.064L190.559 277.725H181.649V281.183H215.13V277.725H206.308L184.063 78.9351H169.815L149.15 266.686C147.934 273.43 147.304 277.585 137.609 277.731V281.184H162.717V277.727C155.611 277.732 152.393 273.189 153.092 268.36L160.985 198.065H181.494V198.064Z" fill="white"/>
</svg>
