<svg width="360" height="360" viewBox="0 0 360 360" fill="none" xmlns="http://www.w3.org/2000/svg">
<rect width="360" height="360" rx="82" fill="#7399C6"/>
<path fill-rule="evenodd" clip-rule="evenodd" d="M301.668 80.9756H289.974V37.954H300.988V42.77C302.359 39.8763 305.799 37.315 310.272 36.9877C317.846 36.6656 323 40.8426 323 49.8303V80.9756H310.963V48.5471C310.963 44.6974 310.963 41.4816 308.209 40.8426C307.175 40.5205 305.456 40.8426 304.079 41.8037C302.359 43.4142 301.668 45.3364 301.668 48.5471V80.9756ZM98.3121 59.4622C98.3121 67.4888 98.3121 73.9101 96.9354 77.1259C95.9016 78.7261 94.8677 79.6924 92.4571 79.6924C90.3946 79.6924 89.0179 78.7261 88.3321 77.1208C86.6125 73.9101 86.6125 67.4888 86.6125 59.4622C86.6125 51.7577 86.6125 45.0195 88.3269 41.8037C89.0179 40.1984 90.3946 39.2373 92.4571 39.2373C94.8677 39.2373 95.9016 40.1984 96.9354 41.8037C98.655 45.0143 98.3121 51.7577 98.3121 59.4674V59.4622ZM102.78 40.8426C100.027 38.593 96.5873 36.9877 92.4571 36.9877C88.3321 36.9877 85.2358 38.5982 82.1394 40.8426C77.3183 44.6974 74.2219 51.7577 74.2219 59.4622C74.2219 67.4888 77.3183 74.2322 82.1394 78.0871C85.2358 80.3314 88.3321 81.9367 92.4571 81.9367C96.5873 81.9367 100.032 80.3314 102.785 78.0871C107.944 74.2322 110.698 67.4888 110.698 59.4622C110.698 51.7577 107.944 44.6974 102.785 40.8426H102.78ZM222.873 97.3509V108.905H220.467C219.09 104.089 217.023 99.9174 211.516 99.5953C208.077 99.2784 204.98 101.206 204.637 104.089C204.295 106.983 205.323 109.544 211.516 112.765C219.433 116.932 225.626 118.859 225.626 127.53C225.626 136.84 217.023 141.339 209.796 141.339H196.029V125.286H198.44C200.164 133.629 202.913 138.767 209.453 139.089C213.584 139.089 216.675 136.84 216.675 132.668C216.675 128.491 213.926 125.925 207.391 122.392C200.164 118.22 195.691 115.648 195.691 109.871C195.691 102.167 201.541 97.3509 210.83 97.3509H222.873ZM238.011 80.9756V49.8303C238.011 40.8426 232.853 36.6656 225.283 36.9877C220.119 37.3098 217.023 40.5205 215.646 43.0869C213.926 38.593 210.139 36.6656 204.632 36.9877C200.164 37.3098 196.72 39.8763 195.343 42.77V37.954H184.677V80.9704H196.377V48.5523C196.377 45.3416 196.72 43.4142 198.788 41.8089C200.164 40.8478 201.541 40.5257 202.57 40.8478C205.323 41.4868 205.323 44.7026 205.323 48.5523V80.9808H217.023V48.225C217.023 45.3312 217.709 43.4038 219.433 41.7985C220.81 40.8374 222.187 40.5153 223.216 40.8374C225.969 41.4764 226.312 44.6922 226.312 48.5419V80.9704H238.011V80.9756ZM118.61 80.9756H130.652V28.9611H118.61V80.9756ZM159.21 41.4868C161.621 44.6974 161.621 52.3967 161.621 58.5011C161.621 64.9224 161.969 73.2711 159.216 76.7986C158.182 78.0871 157.148 78.7261 155.428 78.7261C153.023 78.7261 151.646 76.1596 150.96 71.9827C150.612 68.133 150.612 63.3171 150.612 58.179C150.612 49.5134 151.298 39.8763 155.776 39.8763C157.491 39.8763 158.182 40.5205 159.216 41.4868H159.21ZM173.326 80.9756V28.9611H161.278V41.1647C160.25 38.9151 157.839 37.3098 154.4 37.3098C145.796 37.3098 138.918 45.6585 138.57 58.5011C138.227 67.1719 141.323 81.6198 153.366 81.6198C158.182 81.6198 160.935 79.0482 161.969 76.7986V80.9756H173.326ZM266.918 55.2905L263.13 57.5348C259.348 59.7843 258.662 62.6781 258.314 65.8835C257.971 68.4551 257.971 70.6995 258.314 74.5543C258.657 78.0871 261.068 78.7261 263.13 78.0871C265.541 77.1208 266.918 72.949 266.918 68.4551V55.2905ZM273.796 39.2373C276.898 40.8478 278.96 43.409 278.96 49.1913V80.9756H267.603V76.1596C266.232 79.6924 262.445 81.9367 257.281 81.9367C253.156 81.9367 245.929 80.0145 245.929 70.0605C245.929 60.7454 252.465 58.8232 259.696 55.9295C266.232 53.363 266.918 53.0409 266.918 50.4745V43.409C266.918 40.5205 265.198 39.2373 261.754 39.2373C260.382 39.5594 257.972 40.1984 257.972 41.8037C257.623 43.7311 260.034 43.7311 260.382 46.6196C260.725 51.1187 256.938 52.7188 253.498 52.4019C251.088 52.4019 248.334 51.1187 247.991 47.586C247.649 41.8037 254.527 36.9877 264.164 36.9877C268.637 36.9877 271.391 37.954 273.796 39.2373ZM96.5873 115.326L92.8052 117.576C89.0179 119.825 88.3321 122.714 87.9841 125.925C87.6464 128.491 87.6464 131.063 87.9841 134.59C87.9841 138.445 90.3946 139.089 92.4571 138.123C95.2106 137.162 96.5873 133.312 96.5873 128.491V115.326ZM103.471 99.2731C106.567 101.201 108.287 103.45 108.287 109.227V141.334H97.2835V136.518C95.9068 139.728 92.1246 141.973 86.9606 141.973C82.4875 141.973 75.6039 140.372 75.6039 130.418C75.6039 121.109 82.1446 119.181 89.0231 116.287C95.9068 113.404 96.5925 113.082 96.5925 110.833V103.767C96.5925 100.562 94.8729 99.2784 91.4337 99.5953C90.057 99.5953 87.6516 100.239 87.6516 101.845C87.3035 104.094 89.7141 104.094 90.0569 106.983C90.3998 111.155 86.6177 112.76 83.1733 112.76C80.7679 112.438 78.0144 111.155 77.6664 107.622C77.3235 102.167 84.2071 97.3457 93.8391 97.3457C98.3173 97.3457 101.066 97.9899 103.476 99.2784L103.471 99.2731ZM186.745 110.193C186.745 101.206 181.581 96.7067 174.012 97.3509C170.23 97.6678 167.128 99.2732 165.408 101.523V89.0022H153.704V118.542C153.704 129.452 145.443 139.728 137.183 139.406C131.338 139.406 129.961 135.234 129.27 130.741C128.242 124.319 128.242 116.937 128.928 108.905C129.619 103.772 130.995 99.5953 135.125 99.5953C138.222 99.5953 138.565 101.523 137.188 102.806C135.811 104.416 133.749 106.017 134.777 109.549C135.811 113.404 142.347 114.043 145.448 111.16C147.854 108.588 147.511 104.411 145.791 101.845C143.724 98.6341 140.284 97.3509 135.125 97.3509C128.585 97.3509 116.199 102.806 116.199 120.142C116.199 138.767 128.928 141.978 136.154 141.978C144.414 141.978 151.636 135.234 153.704 129.774V141.334H165.403V108.905C165.403 105.7 166.089 103.772 167.814 102.162C169.19 101.201 170.91 100.878 171.944 101.201C174.697 101.845 174.697 105.055 174.697 108.905V141.334H186.74V110.193H186.745ZM66.3096 28V46.3027H63.899C61.8365 37.315 57.3635 30.5664 51.1708 30.2495C47.0406 29.9274 44.63 32.1718 42.5675 35.3824C40.505 39.2372 39.4711 47.2639 39.4711 56.8906C39.4711 65.8835 39.814 72.6269 40.8479 77.4429C41.5336 79.6924 43.2533 83.2199 47.7263 83.2199C50.1369 83.2199 51.8565 82.5809 52.8904 81.2977C54.6048 79.3703 54.9529 75.5154 54.9529 72.949V64.2782C54.9529 61.0675 53.9242 59.1453 52.1994 58.179C50.8279 57.5348 48.7602 57.5348 47.7315 57.2127V54.9684H66.9954V100.884H64.59C63.5562 97.3509 62.8704 94.7793 61.1456 91.8908C59.4312 89.0022 56.3296 85.7916 51.1708 85.7916C45.6638 85.4695 41.5336 88.6801 41.5336 93.4961C41.5336 99.9174 45.6638 101.523 53.2333 105.378C60.4598 109.227 69.7541 112.443 69.7541 123.675C69.7541 134.59 59.7688 141.339 48.4173 141.339H30.1821V119.181H32.5875C35.6838 135.879 43.2533 138.767 48.4173 138.767C54.9529 138.767 58.0492 134.912 58.0492 129.457C57.7063 122.392 52.5423 119.825 45.321 116.293C34.9981 110.838 30.1821 108.266 30.1821 99.2784C30.525 91.5687 37.0606 86.7579 44.2871 84.8304C29.1482 83.2199 24.6752 70.3826 25.0181 56.5737C25.0181 42.77 33.6213 28 50.4798 28H66.3096Z" fill="white"/>
</svg>
