<svg width="360" height="360" viewBox="0 0 360 360" fill="none" xmlns="http://www.w3.org/2000/svg">
<rect width="360" height="360" rx="82" fill="black"/>
<mask id="mask0" mask-type="alpha" maskUnits="userSpaceOnUse" x="25" y="25" width="310" height="310">
<rect x="25" y="25" width="310" height="310" rx="155" fill="white"/>
</mask>
<g mask="url(#mask0)">
<rect x="25" y="25" width="310" height="310" rx="155" fill="white"/>
<path fill-rule="evenodd" clip-rule="evenodd" d="M180 335C266.317 335 335.91 265.384 335.91 179.989C335.91 165.132 333.132 152.154 329.421 139.153H268.161C254.238 139.153 253.304 153.998 253.304 153.998L241.248 226.392C237.537 244.949 217.101 249.594 217.101 249.594H175.355L182.777 197.624C183.711 196.69 182.777 195.768 178.132 195.768C173.499 195.768 173.499 198.557 173.499 198.557L165.143 249.605H97.3938L114.106 154.01C118.74 128.019 140.086 127.097 140.086 127.097H184.633L177.233 177.223C177.233 177.223 176.288 180 180.011 180C184.633 180 184.633 179.067 185.567 177.223C186.5 175.356 194.856 127.097 194.856 127.097H325.709C314.937 97.1163 295.147 71.2063 269.056 52.9255C242.966 34.6447 211.856 24.89 180 25.0009C94.616 25.0009 25 93.6834 25 180C25 265.384 94.616 335 180 335Z" fill="#CC2131"/>
</g>
</svg>
