<svg width="360" height="360" viewBox="0 0 360 360" fill="none" xmlns="http://www.w3.org/2000/svg">
<rect width="360" height="360" rx="82" fill="#00949B"/>
<path d="M271.3 57L57 88.7041L88.7041 303L303 271.296L271.3 57Z" fill="white"/>
<path d="M277.321 160.5C275.169 168.455 270.048 172.648 268.811 173.177C267.569 173.709 265.227 174.572 265.491 169.365C265.751 164.162 269.279 158.131 271.002 156.212C272.724 154.292 273.994 152.787 276.146 152.581C276.15 152.581 279.473 152.55 277.321 160.5ZM276.761 148.186C264.108 150.764 258.207 162.408 258.207 162.408C254.778 167.162 252.538 179.543 264.782 178.132C277.025 176.721 283.344 168.246 285.886 164.103C286.258 163.498 286.584 162.867 286.864 162.215L284.897 148.939C283.092 147.839 280.454 147.433 276.761 148.186Z" fill="#00949B"/>
<path d="M260.27 146.838C253.616 147.291 248.078 153.531 245.5 156.98C245.472 157.008 245.436 157.027 245.398 157.035C245.367 157.04 245.336 157.036 245.308 157.024C245.279 157.012 245.255 156.993 245.236 156.968C245.228 156.953 245.217 156.936 245.208 156.921C245.204 156.909 245.196 156.894 245.196 156.881C245.196 156.881 245.192 156.885 245.192 156.894C244.113 155.049 241.98 152.861 237.999 153.101C235.527 153.251 232.618 155.178 232.374 155.841C232.374 155.841 231.877 156.653 232.784 156.819C233.691 156.988 238.306 157.209 238.078 162.042C238.078 162.042 238.121 169.007 235.488 178.557C235.488 178.557 233.986 181.794 237.459 181.711C240.936 181.628 247.476 180.745 247.692 178.431C247.912 176.117 247.798 176.527 247.798 176.527C247.798 176.527 247.837 168.155 247.002 162.676C247 162.566 247.015 162.457 247.049 162.352C250.333 155.75 255.788 154.32 255.788 154.32C257.881 153.791 259.293 155.159 259.805 155.707C260.317 156.255 260.648 156.034 260.648 156.034C262.087 155.565 263.369 153.177 263.369 153.177C263.991 152.357 266.194 146.436 260.27 146.838Z" fill="#00949B"/>
<path d="M213.797 178.711C213.797 178.711 213.095 171.399 212.239 163.342C214.088 161.931 218.177 159.329 220.013 162.439C222.374 166.429 218.732 175.653 213.797 178.711ZM227.525 155.341C221.215 153.157 214.45 157.477 212.042 159.243C212.03 159.251 212.022 159.258 212.01 159.258C211.908 159.274 211.817 159.203 211.789 159.109C211.005 151.943 210.181 145.076 209.696 143.046C208.565 138.308 209.073 132.38 202.325 133.377C200.244 133.685 195.553 134.465 192.939 136.12C192.766 136.231 192.478 136.609 193.305 136.842C193.305 136.842 195.766 137.725 197.019 141.867C197.019 141.867 202.838 158.348 203.811 182.089C203.921 184.821 205.21 185.456 205.21 185.456C209.554 188.041 218.565 181.084 224.863 174.328C231.294 167.438 235.373 158.053 227.525 155.341ZM230.753 189.681C230.753 189.681 230.478 188.787 230.336 188.432C230.165 188.006 229.729 188.089 229.729 188.089C228.778 188.231 229.086 189.327 229.086 189.327C232.117 202.07 233.73 232.363 208.849 242.588C183.964 252.809 163.085 238.914 159.766 236.651C150.468 230.305 148.993 225.051 148.812 224.219C148.813 224.193 148.824 224.168 148.841 224.149C148.858 224.13 148.881 224.117 148.906 224.112C150.602 224.286 170.642 226.095 190.663 218.192C211.593 209.929 225.54 193.295 228.555 185.735C228.555 185.735 229.071 184.746 228.44 184.474C227.841 184.225 227.454 184.943 227.454 184.943C227.233 185.228 227.001 185.519 226.757 185.834C218.034 196.981 205.384 208.33 182.12 214.755C156.939 221.713 137.022 214.775 137.022 214.775C137.022 214.775 136.667 214.601 136.442 214.7C136.222 214.795 136.238 215.48 136.253 215.737C136.253 215.737 138.051 240.87 172.715 250.464C205.675 259.582 243.931 241.354 230.753 189.681ZM79.1919 175.523C79.1919 175.523 85.9635 172.022 94.8798 169.842L94.9864 169.827C95.0773 170.469 95.1638 171.092 95.2391 171.683C95.334 172.436 95.4438 173.26 95.5581 174.131C87.986 176.106 82.743 177.383 79.787 177.8C79.787 177.8 77.055 178.416 76.9647 177.465C76.8822 176.619 78.3603 175.992 79.1919 175.523ZM84.7415 181.888C87.363 181.175 92.3454 179.835 96.2279 178.877C97.4104 187.08 98.9085 196.587 98.9514 196.784C98.9514 196.784 99.8311 201.135 100.887 201.877C101.844 202.555 102.034 202.784 105.952 202.378C109.874 201.967 112.992 201.077 112.937 199.835C112.937 199.835 112.964 199.291 112.802 198.499C112.802 198.499 110.874 187.876 109.07 175.585C111.438 175.002 113.685 174.434 115.53 173.989C117.714 173.464 119.74 172.858 121.766 172.428C122.736 179.228 124.332 189.693 124.332 189.693C124.825 192.889 125.546 195.609 125.546 195.609C125.546 195.609 126.559 198.601 128.975 198.384C130.899 198.214 134.766 197.529 136.091 196.452C137.111 195.621 135.98 194.379 135.826 193.65C135.826 193.65 132.692 184.575 130.895 170.626C139.819 169.026 145.543 168.462 145.543 168.462C145.543 168.462 135.279 178.991 138.61 186.76C141.94 194.533 152.335 192.212 159.481 183.121C159.481 183.121 162.481 191.888 172.048 188.924C172.048 188.924 172.501 188.79 172.536 188.462C172.576 188.136 172.265 187.772 171.89 187.568C171.89 187.568 168.677 186.086 168.357 180.709C168.034 175.336 170.139 166.286 170.131 165.942C170.123 165.6 170.233 163.432 167.49 164.098C164.747 164.76 161.451 166.825 160.73 167.55C159.997 168.284 159.859 168.945 159.489 170.231C159.489 170.231 156.462 180.18 150.99 185.1C145.05 190.437 146.484 183.168 148.184 179.518C148.184 179.518 151.519 171.776 159.355 165.666C159.355 165.666 161.736 163.972 163.958 163.049C164.64 162.765 165.058 161.812 163.541 161.389C163.541 161.389 161.747 161.039 159.043 161.181C159.043 161.181 148.467 161.591 130.311 165.383C130.011 162.179 129.815 158.966 129.724 155.749C129.409 144.456 130.296 139.828 130.296 139.828C130.296 139.828 130.555 138.264 129.598 137.715C129.598 137.715 128.786 136.912 126.373 137.16C122.495 137.562 119.353 138.914 117.768 139.837C117.768 139.837 117.039 140.243 117.26 140.578C117.445 140.85 117.843 140.901 118.293 141.736C118.293 141.736 118.998 142.6 119.278 147.531C119.278 147.531 121.067 167.228 121.095 167.461C118.719 168.034 116.348 168.634 113.985 169.258C112.025 169.783 110.153 170.279 108.352 170.757C107.599 165.297 106.932 159.779 106.531 154.954L105.706 143.85C105.706 143.85 105.88 140.078 103.302 140.113C100.984 140.148 93.6961 142.163 89.0086 145.888C87.5462 147.051 89.2652 147.335 89.5011 147.472C89.5011 147.472 90.944 147.925 91.4248 150.007C91.4248 150.007 93.4271 159.747 94.6732 167.752L94.5076 167.795C94.5076 167.795 78.1218 172.179 70.041 176.897L71.1325 184.256C74.0632 184.416 78.4785 183.8 84.7415 181.888Z" fill="#00949B"/>
<path d="M183.133 177.446C180.886 177.087 179.573 176.811 176.53 176.015C173.484 175.219 172.711 173.177 172.711 173.177C170.133 165.94 179.416 158.585 179.416 158.585C186.263 152.794 191.639 151.612 191.639 151.612C197.193 150.449 198.379 156.425 198.379 156.425C198.379 156.425 198.628 157.915 198.577 158.502C198.577 158.502 198.656 158.711 198.357 158.75C194.599 159.267 191.691 160.386 191.691 160.386C182.676 164.049 182.143 168.302 182.143 168.302C181.843 169.76 182.226 172.031 184.417 172.914C186.538 173.761 194.769 175.685 194.769 175.685C199.949 176.939 200.417 179.54 200.417 179.54C202.731 185.568 195.154 193.404 195.154 193.404C187.815 201.418 183.751 203.314 178.682 204.536C173.613 205.758 169.627 199.589 169.627 199.589C169.229 199.017 167.936 197.661 168.054 196.696C168.169 195.738 169.442 196.092 169.588 196.215C169.942 196.511 170.692 196.791 170.692 196.791C174.594 198.43 178.449 195.794 178.449 195.794C184.247 191.549 187.842 186.278 188.028 185.963C188.209 185.647 190.527 182.013 189.19 179.975C187.858 177.929 182.907 177.456 182.907 177.456" fill="#00949B"/>
</svg>
