<svg width="360" height="360" viewBox="0 0 360 360" fill="none" xmlns="http://www.w3.org/2000/svg">
<rect width="360" height="360" rx="82" fill="#776F67"/>
<path d="M173.233 119.824V22L137.824 42.5269V140.351L173.233 119.824ZM186.511 239.778V337.601L222.176 317.074V219.251L186.511 239.778ZM137.824 211.425V317.074L173.233 337.601V232.722L235.391 196.8V309.184L271.056 288.914V70.6231L235.391 50.3528V154.976L137.824 211.425ZM124.289 50.3528L88.8797 70.8797V288.914L124.289 309.184V204.625L222.112 148.176V42.5269L186.447 22V126.88L124.289 162.802V50.3528ZM75.6655 78.449L45.4525 95.8969C42.5659 97.693 40 101.349 40 104.493V255.173C40 258.06 42.3734 261.908 45.4525 263.769L75.6655 281.216V78.449ZM284.334 281.152L314.548 263.704C317.434 261.908 320 258.252 320 255.109V104.493C320 101.606 317.627 97.7572 314.548 95.8969L284.334 78.449V281.152Z" fill="#66BD29"/>
</svg>
