<svg width="360" height="360" viewBox="0 0 360 360" fill="none" xmlns="http://www.w3.org/2000/svg">
<rect width="360" height="360" rx="82" fill="#D4160D"/>
<path d="M310.526 151H317.461C321.472 151.334 325.316 152.253 329.327 152.421C328.993 156.933 329.244 161.445 329.244 165.958C327.99 166.125 326.82 166.125 325.567 166.125C325.065 163.785 324.982 161.111 323.311 159.189C321.305 156.766 317.879 156.181 314.871 156.264C311.361 156.264 307.35 155.93 304.426 158.437C302.253 160.192 301.919 163.367 302.504 165.958C303.339 168.464 305.512 170.136 307.685 171.473C313.45 174.731 320.052 176.152 325.734 179.745C328.742 181.667 331.416 184.508 332.001 188.101V192.781C331.165 199.466 325.734 204.647 319.467 206.568C310.944 209.493 301.919 207.237 293.312 206.234C293.479 201.22 293.479 196.29 293.312 191.277C294.565 191.277 295.902 191.277 297.156 191.277C297.407 194.285 297.574 197.711 299.83 199.967C302.42 202.474 306.264 202.808 309.69 202.725C313.2 202.808 316.876 202.39 319.718 200.134C322.308 198.129 323.144 194.619 322.559 191.527C321.89 189.02 319.718 187.349 317.545 186.096C312.03 183.004 305.679 181.667 300.331 178.157C297.657 176.319 295.15 173.896 294.064 170.721C292.393 165.874 293.312 160.025 297.072 156.348C300.749 152.838 305.763 151.585 310.526 151Z" fill="white"/>
<path d="M27.0836 152.003C35.1055 152.086 43.1274 152.086 51.1493 152.003C51.2328 153.256 51.2328 154.51 51.3164 155.763C49.1438 156.014 46.637 155.93 45.0493 157.518C43.5452 158.938 43.4616 161.111 43.4616 163.033C43.4616 167.378 43.4616 171.64 43.4616 175.985C53.9904 175.985 64.5191 176.068 75.0479 175.985C75.0479 171.64 75.0479 167.378 75.0479 163.033C74.9643 161.027 74.7136 158.688 73.0424 157.267C71.3712 156.014 69.115 156.014 67.1095 155.763C67.1931 154.593 66.9424 153.256 67.3602 152.17C68.4465 151.836 69.6164 152.003 70.7027 151.919C77.4712 152.17 84.3232 151.919 91.0917 151.919C91.0917 153.173 91.0917 154.51 91.0917 155.763C89.3369 155.93 87.415 156.014 85.8273 156.933C83.989 158.103 83.4876 160.442 83.4876 162.448C83.4876 173.729 83.4876 185.01 83.4876 196.29C83.404 198.296 83.989 200.636 85.8273 201.722C87.415 202.641 89.3369 202.641 91.0917 202.892C91.0917 204.145 91.0917 205.482 91.0081 206.736C87.0807 206.736 83.1533 206.568 79.226 206.318C75.1314 206.568 71.1205 206.652 67.026 206.652C67.026 205.399 67.026 204.062 67.026 202.808C69.2821 202.39 72.2068 202.641 73.7109 200.468C75.1314 198.129 74.8808 195.288 74.8808 192.697C74.7972 188.853 75.0479 184.926 74.7136 181.082C64.352 180.915 53.9068 180.915 43.5452 181.082C42.8767 184.341 43.4616 187.684 43.2945 191.026C43.4616 194.201 42.626 197.711 44.4644 200.552C45.9685 202.725 48.8096 202.474 51.0657 202.808C51.0657 204.062 51.1493 205.399 51.1493 206.652C47.1383 206.652 43.0438 206.568 39.0329 206.318C35.0219 206.568 31.011 206.652 27 206.736V203.059C28.9219 202.725 31.1781 202.808 32.7657 201.555C34.437 200.218 34.6877 197.878 34.6877 195.873C34.6877 184.926 34.6877 174.063 34.6877 163.116C34.6877 160.944 34.3534 158.437 32.4315 157.1C30.7603 156.097 28.8384 156.097 27 155.93V152.003H27.0836Z" fill="white"/>
<path d="M161.282 152.003C166.714 152.086 172.145 151.836 177.577 152.086C189.61 164.788 201.141 177.99 213.007 190.775C213.174 181.333 213.007 171.89 213.091 162.448C213.341 159.857 211.419 157.601 209.08 156.766C207.575 156.264 205.904 156.014 204.317 155.847C204.317 154.593 204.317 153.34 204.317 152.003C211.754 152.086 219.107 152.086 226.544 152.003C226.544 153.256 226.544 154.51 226.544 155.763C224.371 156.097 221.781 156.264 220.277 158.019C219.023 159.356 218.773 161.278 218.689 162.949C218.689 177.573 218.689 192.196 218.689 206.819C217.269 206.819 215.932 206.819 214.511 206.819C202.144 193.449 190.278 179.662 177.828 166.292C177.744 175.901 177.828 185.511 177.744 195.12C177.66 197.293 178.245 199.716 180.167 200.97C182.006 202.39 184.429 202.474 186.685 202.808C186.769 204.145 186.769 205.399 186.769 206.735C181.755 206.986 176.825 205.983 171.811 206.652C169.388 206.735 167.048 206.735 164.625 206.819C164.625 205.482 164.625 204.229 164.541 202.892C166.38 202.557 168.385 202.557 169.889 201.388C171.56 200.301 172.229 198.212 172.145 196.29C172.145 185.344 172.145 174.481 172.145 163.534C172.145 161.362 171.059 159.189 169.221 157.936C166.881 156.181 163.873 156.097 161.115 155.763C161.282 154.593 161.282 153.256 161.282 152.003Z" fill="white"/>
<path d="M233.732 152.003C248.941 152.003 264.149 152.003 279.357 152.003C279.273 156.264 279.273 160.526 279.357 164.788C278.02 164.871 276.767 164.788 275.513 164.788C275.179 162.615 275.346 160.025 273.591 158.437C271.586 156.933 268.995 156.933 266.656 156.849C261.558 156.766 256.461 156.849 251.28 156.933C251.28 163.534 251.197 170.052 251.364 176.653C255.291 176.486 259.219 176.737 263.146 176.486C265.152 176.236 267.324 176.068 268.745 174.397C269.998 172.893 269.831 170.888 270.165 169.049C271.502 169.049 272.756 169.049 274.093 169.049C273.758 175.651 273.758 182.336 274.093 189.02C272.756 189.02 271.419 188.937 270.082 188.937C270.082 186.43 269.747 183.338 267.157 182.252C262.143 180.414 256.628 181.5 251.364 181.166C251.364 186.43 251.28 191.778 251.364 197.042C251.197 199.048 253.035 200.468 254.79 201.053C259.219 202.474 263.898 201.805 268.494 201.972C271.502 201.889 275.095 201.889 277.268 199.466C279.023 197.544 278.689 194.786 278.939 192.446C280.276 192.446 281.697 192.446 283.034 192.53C283.034 195.037 282.616 197.46 282.616 199.967C282.616 202.307 283.034 204.646 282.95 207.07C266.99 207.237 250.946 206.903 234.986 207.07C234.986 205.816 234.986 204.479 234.986 203.226C237.158 202.808 240 203.142 241.504 201.137C242.841 199.549 242.59 197.377 242.674 195.455C242.59 184.341 242.757 173.227 242.674 162.114C242.841 159.857 241.42 157.685 239.415 156.933C237.66 156.348 235.821 156.181 234.067 156.097C233.732 154.593 233.732 153.256 233.732 152.003Z" fill="white"/>
<path d="M153.848 200.552C152.093 198.045 151.174 195.037 149.92 192.279C144.071 178.826 138.305 165.373 132.372 152.003C130.033 152.003 127.609 152.003 125.27 152.003C119.42 165.289 113.655 178.659 107.805 191.945C106.385 195.12 105.215 198.63 102.457 200.97C101.037 202.39 98.9477 202.557 97.1094 202.975C97.1094 204.229 97.1094 205.566 97.1094 206.819C100.452 206.819 103.711 206.736 107.053 206.401C110.479 206.652 113.822 206.736 117.248 206.819C117.415 205.566 117.415 204.229 117.498 202.975C115.744 202.557 113.738 202.557 112.401 201.22C110.981 199.8 111.064 197.544 111.733 195.789C112.903 192.697 114.323 189.773 115.409 186.681C122.763 186.514 130.2 186.597 137.553 186.597C139.057 190.19 140.561 193.783 142.065 197.377C142.567 198.63 142.818 200.218 142.065 201.471C140.478 202.725 138.305 202.557 136.467 202.892C136.467 204.229 136.467 205.482 136.467 206.819C140.561 206.903 144.739 206.151 148.834 206.485C152.344 206.903 155.937 206.736 159.446 206.819C159.446 205.566 159.446 204.229 159.53 202.975C157.441 202.641 155.101 202.39 153.848 200.552ZM117.415 181.751C120.59 174.564 123.765 167.462 126.69 160.192C129.865 167.294 132.707 174.564 135.631 181.751C129.531 181.834 123.515 181.918 117.415 181.751Z" fill="white"/>
</svg>
