<svg width="360" height="360" viewBox="0 0 360 360" fill="none" xmlns="http://www.w3.org/2000/svg">
<rect width="360" height="360" rx="82" fill="#013977"/>
<path d="M185.754 227.141C181.628 226.689 179.96 226.451 178.353 226.085C169.36 224.029 162.053 220.112 156.225 214.22C149.419 207.341 145.269 198.588 143.884 188.197C143.393 184.499 143.393 177.636 143.884 173.99C145.761 160.099 152.715 148.528 163.949 140.601C164.655 140.104 165.542 139.521 165.922 139.304C166.301 139.091 167.189 138.583 167.895 138.176C176.463 133.26 188.673 130.961 198.319 132.447C202.832 133.142 206.259 134.115 211.504 136.195C212.714 136.678 213.932 137.142 215.156 137.585C216.514 138.051 218.57 138.184 219.514 137.871C220.623 137.505 222.206 135.797 222.976 134.131L223.618 132.746H226.107V165.897H223.556L223.353 165.109L222.939 163.481C222.615 162.171 221.976 160.24 221.233 158.318C218.477 151.183 213.873 145.111 208.66 141.735C206.513 140.344 205.478 139.778 204.302 139.353C203.897 139.215 203.501 139.05 203.118 138.861C202.759 138.617 199.589 137.708 198.185 137.444C196.279 137.088 189.536 137.102 187.727 137.465C175.354 139.946 167.117 151.749 165.403 169.45C165.056 173.046 165.125 182.267 165.523 185.435C166.906 196.412 170.606 204.892 176.418 210.41C178.931 212.792 181.123 214.319 183.781 215.53C184.649 215.926 185.508 216.329 185.692 216.423C186.681 216.944 191.012 217.995 193.338 218.281C204.283 219.618 213.876 216.308 223.04 208.028C223.882 207.269 224.634 206.622 224.714 206.593C224.791 206.563 225.323 207.074 225.893 207.732L226.933 208.924L225.81 210.392C218.752 219.602 209.248 225.221 198.086 226.777C195.894 227.082 187.486 227.331 185.754 227.141ZM230.053 223.837V222.577L231.189 222.438C233.857 222.118 237.097 220.578 238.766 218.848C241.198 216.313 243.631 211.394 246.794 202.601C247.125 201.679 247.989 199.369 248.713 197.471C249.435 195.573 250.146 193.661 250.291 193.228C250.435 192.795 250.828 191.731 251.165 190.859C251.914 188.935 252.828 186.467 253.911 183.459C254.36 182.213 254.812 181.013 254.916 180.797C255.108 180.398 255.798 178.559 256.507 176.554C256.68 176.053 256.873 175.56 257.087 175.075C257.194 174.856 257.678 173.57 258.161 172.215C258.643 170.857 259.319 169.033 259.659 168.167C259.995 167.298 260.485 166.012 260.741 165.306C261.001 164.601 261.444 163.403 261.731 162.641C262.014 161.882 262.455 160.684 262.714 159.978C262.971 159.273 263.503 157.853 263.893 156.824C264.535 155.134 265.38 152.854 266.853 148.83C267.131 148.071 267.441 147.271 267.545 147.052C267.647 146.838 268.096 145.635 268.543 144.389C268.96 143.223 269.391 142.06 269.834 140.903C270.096 140.235 270.31 139.625 270.31 139.55C270.31 139.478 270.438 139.136 270.596 138.796C270.753 138.454 271.323 136.976 271.863 135.508C272.403 134.043 272.906 132.69 272.978 132.5C273.103 132.18 273.593 132.153 279.276 132.153H285.441L285.693 132.698C285.832 132.995 286.107 133.685 286.305 134.228C286.503 134.77 286.968 136.013 287.337 136.989L289.013 141.427C289.567 142.895 290.965 146.579 292.125 149.619L294.681 156.329C294.927 156.979 295.371 158.134 295.665 158.896C295.959 159.652 296.467 160.984 296.788 161.852L297.643 164.122C297.793 164.502 298.263 165.745 298.691 166.884C299.119 168.025 299.926 170.156 300.49 171.621C301.052 173.086 301.677 174.728 301.875 175.27C302.076 175.813 303.057 178.39 304.054 180.992C305.116 183.75 306.168 186.513 307.209 189.279C307.737 190.659 308.26 192.04 308.778 193.423C309.626 195.685 310.722 198.564 311.938 201.711L313.032 204.574C316.729 214.29 319.138 218.543 322.054 220.508C323.712 221.626 326.276 222.366 329.211 222.575L330 222.628V225.002H285.602V222.639L286.687 222.497C292.449 221.743 295.168 220.46 296.079 218.073C296.683 216.495 296.226 214.177 294.376 209.411C294.008 208.46 293.649 207.507 293.299 206.55C292.245 203.647 289.048 195.265 288.855 194.902C288.65 194.519 288.372 194.514 272.606 194.514H256.563L256.341 194.958C256.122 195.396 254.812 198.888 254.51 199.842C254.424 200.112 254.076 201.045 253.737 201.914C251.267 208.261 249.871 212.728 249.668 214.953C249.304 218.939 251.513 221.075 257.186 222.232L259.161 222.636L259.217 223.866L259.276 225.098H230.053V223.837ZM286.15 188.076C286.214 188.012 286.174 187.723 286.059 187.435C285.947 187.149 285.522 186.026 285.118 184.94C284.714 183.855 282.979 179.238 281.26 174.68C279.347 169.619 277.446 164.554 275.558 159.484C274.97 157.904 274.379 156.326 273.783 154.749C273.531 154.097 273.176 153.145 272.986 152.629C272.622 151.632 272.411 151.474 272.186 152.035C272.026 152.442 269.326 159.957 268.516 162.248C268.211 163.117 267.682 164.582 267.339 165.504C266.978 166.488 266.623 167.475 266.275 168.464C266.029 169.17 264.872 172.41 263.704 175.666C262.674 178.536 261.651 181.408 260.634 184.283C260.113 185.764 259.592 187.157 259.471 187.376C259.354 187.595 259.258 187.87 259.258 187.985C259.258 188.213 285.923 188.304 286.15 188.076ZM31.0859 224.751C30.8774 224.379 31.0806 222.684 31.3532 222.54C31.511 222.46 32.4761 222.278 33.492 222.144C34.5133 222.008 36.1414 221.647 37.1172 221.342C40.1168 220.401 41.4883 219.155 42.146 216.779C42.4695 215.608 42.4935 213.279 42.4935 180.5C42.4935 143.347 42.5016 143.758 41.5739 141.596C41.3199 141.01 40.7451 140.256 40.1088 139.671C38.7828 138.462 37.0183 137.794 33.6123 137.216L31.1073 136.791L31.0779 135.607L31.0485 134.425L52.0137 134.372L72.979 134.324V136.85L71.2546 137.083C65.7206 137.826 63.2904 139.382 62.4456 142.713C61.9029 144.852 61.7371 149.44 61.7344 162.395L61.7318 175.174H105.555L105.488 159.436C105.413 142.058 105.448 142.558 104.149 140.657C102.847 138.759 100.759 137.77 96.7968 137.171L94.487 136.823V134.326H136.321V136.818L133.787 137.235C128.627 138.085 126.309 139.657 125.504 142.849C124.914 145.202 124.86 148.806 124.924 182.08C124.994 218.113 124.948 216.442 125.913 218.289C126.282 218.995 127.272 219.941 128.239 220.519C129.218 221.102 132.129 221.901 134.348 222.195L136.222 222.444L136.281 223.673L136.34 224.901H94.487V223.719C94.487 222.369 94.2758 222.5 97.0535 222.136C100.708 221.658 103.259 220.417 104.408 218.559C105.491 216.811 105.531 216.035 105.539 198.396C105.539 189.584 105.544 182.221 105.539 182.029C105.539 181.7 104.403 181.684 83.6809 181.735L61.828 181.783L61.7692 195.102C61.7157 208.111 61.8761 214.493 62.3226 216.543C62.6434 218.03 63.6326 219.556 64.7635 220.313C65.905 221.078 68.3272 221.847 70.5114 222.144C73.1822 222.505 72.9763 222.374 72.9763 223.722V224.898H52.0699C40.574 224.898 31.1287 224.834 31.0832 224.751H31.0859Z" fill="white"/>
</svg>
