<svg width="360" height="360" viewBox="0 0 360 360" fill="none" xmlns="http://www.w3.org/2000/svg">
<rect width="360" height="360" rx="82" fill="#3E69B1"/>
<path fill-rule="evenodd" clip-rule="evenodd" d="M180 49.9744C251.752 49.9744 310.026 108.248 310.026 180C310.026 251.752 251.356 310.026 180 310.026C108.248 310.026 49.9744 251.752 49.9744 180C49.578 108.248 108.248 49.9744 180 49.9744ZM229.552 204.578V250.959C222.02 256.113 213.696 260.473 204.578 262.852V142.737V117.762H229.552H251.356H269.591C274.348 117.762 278.708 120.537 280.691 124.501L289.412 147.097L293.772 158.197C294.169 159.386 294.169 160.575 294.169 161.765C294.169 166.522 291.394 170.486 287.43 172.864L275.141 179.604L229.552 204.578ZM167.315 62.6598V265.627C158.593 264.437 150.269 261.662 142.34 258.095V192.289H87.6343C91.5985 221.228 109.041 246.202 133.223 260.473L120.934 281.88C85.6522 261.662 61.867 223.21 61.867 180C61.867 136.394 85.6522 98.3376 120.934 78.1202L133.223 99.5269C109.041 113.402 91.5985 138.376 87.6343 167.711H142.737V68.2097C150.665 65.4348 158.99 63.8491 167.315 62.6598ZM286.637 229.552C282.276 239.066 276.726 247.788 269.987 255.716L250.959 239.859C256.113 233.517 260.473 226.777 264.041 219.246L286.637 229.552ZM167.315 296.944C158.593 296.151 150.269 294.169 142.34 291.394V264.834C150.269 268.402 158.593 270.78 167.315 271.969V296.944ZM184.757 62.2634C210.921 63.4527 235.895 72.9668 255.716 90.0128L243.427 104.68C242.238 105.87 240.652 106.662 238.67 106.662C237.084 106.662 235.895 106.266 234.706 105.473C234.706 105.473 200.614 81.2916 198.235 95.5627V96.7519V263.248C198.235 263.645 198.235 264.041 198.235 264.437C199.028 267.609 202.199 269.987 205.371 269.194C218.056 265.627 229.552 259.284 239.066 250.959L254.923 269.987C235.499 286.637 210.921 296.547 184.361 297.737C178.811 298.133 172.864 292.583 172.864 285.448V74.5524C173.657 68.2097 178.414 63.0563 184.757 62.2634ZM229.552 142.737V180L265.23 160.575C266.023 160.179 266.816 158.99 266.816 157.801C266.816 157.404 266.816 157.008 266.816 156.611L262.059 144.322C261.662 143.133 260.473 142.34 259.284 142.34H229.552V142.737ZM180 25C265.23 25 335 94.7698 335 180C335 265.23 265.23 335 180 335C94.7699 335 25 265.23 25 180C25 94.7698 94.3734 25 180 25Z" fill="white"/>
</svg>
