<svg width="360" height="360" viewBox="0 0 360 360" fill="none" xmlns="http://www.w3.org/2000/svg">
<rect width="360" height="360" rx="82" fill="#F96302"/>
<mask id="mask0" mask-type="alpha" maskUnits="userSpaceOnUse" x="0" y="0" width="360" height="360">
<rect width="360" height="360" rx="82" fill="#F96302"/>
<rect x="0.5" y="0.5" width="359" height="359" rx="81.5" stroke="black" stroke-opacity="0.1"/>
</mask>
<g mask="url(#mask0)">
<path d="M0.0166016 82.0152C0.0166016 36.7278 36.7293 0.0150757 82.0166 0.0150757H277.982C323.269 0.0150757 359.982 36.7277 359.982 82.0151V277.962C359.982 323.249 323.269 359.962 277.982 359.962H82.0167C36.7293 359.962 0.0166016 323.249 0.0166016 277.962V82.0152Z" fill="white"/>
<path d="M0.0100881 81.6407C0.0161251 36.5601 36.562 0.0150883 81.6426 0.0150883H225.87C238.936 0.0150883 252.003 -0.00462571 265.056 0.0120264C270.766 0.0193118 273.596 6.86293 269.556 10.8991C269.175 11.2799 268.794 11.6609 268.413 12.0419C266.589 13.8677 266.572 16.8072 268.41 18.6195C270.076 20.2614 272.663 20.4802 274.697 19.3249C278.414 17.2131 282.458 15.6763 286.765 15.3598C291.867 14.8302 297.01 16.1534 301.695 18.1956C301.733 18.2115 301.77 18.2276 301.808 18.2439C305.324 19.7799 309.861 20.3316 311.259 16.7578C311.826 15.5506 311.296 14.1129 310.353 13.2429C305.452 8.30198 308.868 0.00498375 315.827 0.00100198C324.492 -0.00395571 333.154 0.0106996 341.812 0.0183691C351.843 0.0272545 359.985 8.15587 359.991 18.1866C359.995 26.5386 360.001 34.8952 360 43.2536C359.999 49.9837 351.987 53.2843 347.205 48.5478C346.071 47.374 344.222 46.7697 342.671 47.4885C341.65 47.98 340.667 48.7736 340.213 49.8695C339.646 52.0627 340.63 54.2162 341.499 56.1804C344.145 61.7756 345.317 68.0881 344.524 74.2495C343.994 78.4451 342.481 82.5644 340.213 86.1557C339.161 87.6679 339.522 89.7181 340.819 91.0272C341.038 91.2482 341.256 91.4702 341.474 91.6923C343.284 93.5365 346.176 93.4167 347.993 91.5791C348.314 91.2547 348.635 90.9305 348.957 90.6066C352.999 86.5357 359.984 89.4369 359.986 95.1735C359.993 123.025 360.013 150.877 359.987 178.727C359.985 180.67 358.632 183.345 356.882 182.501C355.522 181.632 354.501 180.347 353.367 179.251C343.602 169.546 333.909 159.769 324.154 150.055C320.039 145.957 313.394 145.998 309.29 150.108C305.287 154.117 305.186 160.425 309.179 164.444C309.56 164.828 309.939 165.214 310.314 165.605C320.142 175.434 329.969 185.262 339.836 195.087C341.486 196.816 341.768 198.966 341.057 201.247C341.053 201.261 341.049 201.274 341.045 201.287C340.984 201.453 340.946 201.623 340.931 201.794C340.72 204.158 344.471 204.515 346.111 202.8C351.209 197.658 359.984 201.305 359.984 208.546V309.865C359.984 337.533 337.555 359.962 309.887 359.962H202.033C197.188 359.962 194.768 354.113 198.2 350.693C200.33 348.572 200.329 345.123 198.202 343C189.351 334.169 180.508 325.331 171.671 316.487C163.71 308.519 150.997 308.55 142.938 316.418C142.374 317.003 141.775 317.576 141.27 318.214C140.448 319.251 140.001 320.767 140.859 321.773C140.884 321.803 140.91 321.832 140.936 321.86C141.852 322.848 143.381 322.642 144.609 322.088C145.6 321.64 146.778 321.399 147.675 322.016C148.075 322.291 148.444 322.641 148.796 322.958C157.642 331.878 166.525 340.724 175.408 349.606C177.637 351.948 180.058 354.064 182.135 356.485C183.659 358.189 180.465 359.962 178.179 359.962H113.743C101.139 359.962 94.8261 344.722 103.739 335.809C105.25 334.373 106.801 332.711 107.027 330.518C107.367 327.986 104.798 325.452 102.265 325.982C100.148 326.397 98.4107 328.06 96.2173 328.06C94.8192 327.948 93.7599 326.926 92.8152 326.02C73.5745 306.818 54.3735 287.58 35.171 268.377C32.5551 265.765 32.2981 262.218 33.6627 258.782C33.7623 258.531 33.8512 258.278 33.924 258.022C34.6413 255.49 32.2603 252.729 29.6884 252.92C27.9134 253.032 26.326 254.052 25.1172 255.3C15.9544 264.587 0.00877897 257.971 0.00589611 244.925C-0.00613029 190.501 0.0027994 136.068 0.0100881 81.6407Z" fill="#F96302"/>
<path d="M259.663 20.7658C260.003 20.3888 260.608 20.0469 260.948 20.6147C287.301 46.9281 313.635 73.2602 339.95 99.6109C330.705 108.849 321.469 118.097 312.243 127.355C311.033 128.489 309.558 129.434 307.896 129.546C305.59 129.737 303.284 127.657 303.473 125.313C303.549 123.008 305.513 121.232 305.552 118.887C305.628 117.413 304.494 116.319 303.549 115.296C284.006 95.7938 264.502 76.2535 244.959 56.71C243.863 55.6524 242.654 54.3291 240.99 54.4436C238.533 54.4802 236.681 56.7482 234.188 56.4842C232.75 56.5208 231.577 55.3868 230.86 54.2162C229.877 52.1756 230.784 49.7184 232.26 48.2075C241.407 39.0592 250.554 29.9125 259.663 20.7658ZM297.615 28.4381C298.37 27.0401 299.807 25.755 301.507 25.9809C303.396 26.1335 304.758 27.6811 306.005 28.9296C313.556 36.5108 321.116 44.083 328.686 51.646C330.122 53.0456 331.822 54.4055 332.163 56.4842C332.352 58.6376 330.386 60.5653 328.307 60.7927C326.569 60.8309 324.982 59.8862 323.471 59.0543C320.256 57.1649 316.628 55.6524 312.809 55.8416C310.843 55.8035 308.955 56.5971 307.177 57.3907C305.098 55.1609 302.717 53.1585 300.751 50.8524C301.356 49.1522 302.149 47.5267 302.264 45.7104C302.53 41.5928 300.866 37.6612 298.785 34.221C297.728 32.5208 296.896 30.4023 297.615 28.4381ZM131.03 48.4715C135.115 44.1629 139.423 40.1184 143.505 35.8464C147.398 39.6254 151.177 43.444 154.996 47.2611C156.243 48.4715 155.109 50.512 153.711 51.0035C152.539 51.1546 151.518 50.3609 150.46 49.9824C146.379 47.98 141.313 47.7542 137.232 49.9458C136.172 50.3991 135.302 51.3057 134.168 51.4949C133.034 50.5884 132.089 49.4544 131.03 48.4715ZM128.461 50.889C134.017 56.2567 139.385 61.8138 144.866 67.2181C153.447 75.7605 161.988 84.3791 170.607 92.9215C165.697 97.8885 160.757 102.828 155.79 107.738C154.769 108.871 152.728 109.364 151.745 107.964C150.536 106.679 151.858 105.092 152.237 103.768C152.69 102.785 151.898 101.917 151.254 101.238C141.357 91.3779 131.479 81.4996 121.619 71.603C120.712 70.7712 119.955 69.7517 118.859 69.1839C117.348 68.8436 116.176 70.205 114.702 70.2814C113.568 70.1668 112.51 69.0344 112.661 67.8607C112.736 66.9541 113.265 66.1605 113.908 65.518C118.746 60.6416 123.661 55.8416 128.461 50.889ZM148.192 56.9375C147.702 55.6905 148.571 54.1796 149.894 53.9903C150.877 53.8392 151.671 54.5931 152.351 55.2373C156.433 59.3184 160.514 63.4392 164.635 67.4838C165.352 68.2774 166.373 68.9947 166.45 70.1668C166.601 71.339 165.467 72.473 164.258 72.3585C162.669 72.3585 161.46 71.1116 160.024 70.582C157.907 69.6006 155.337 69.5243 153.258 70.6583C152.162 69.5625 151.065 68.4285 149.93 67.4074C150.424 65.7438 150.877 63.9688 150.46 62.2289C150.158 60.2647 148.796 58.7522 148.192 56.9375ZM220.579 59.8862C221.6 58.8651 222.884 58.1096 224.321 57.9204C226.852 57.5434 229.499 59.9991 229.009 62.5693C228.668 64.8372 226.779 66.6504 226.928 69.0344C227.307 70.6949 228.668 71.8289 229.763 73.0026C249.08 92.2789 268.395 111.517 287.634 130.832C288.694 131.778 289.751 133.025 291.264 133.025C293.532 133.025 295.27 131.325 297.426 130.944C299.92 130.531 302.377 132.987 302.073 135.482C301.924 137.182 300.902 138.657 299.732 139.827C290.015 149.503 280.338 159.256 270.625 168.932C269.378 170.179 267.791 171.313 265.939 171.313C263.896 171.426 261.931 169.689 261.667 167.686C261.402 165.039 263.859 163.073 263.783 160.427C263.67 159.18 262.801 158.16 261.969 157.252C244.997 140.32 228.062 123.348 211.091 106.415C225.115 132.457 239.252 158.426 253.276 184.468C253.501 184.845 253.691 185.262 253.88 185.715C252.86 186.658 251.877 187.679 250.894 188.7C222.809 174.868 194.761 160.88 166.714 147.01C162.292 144.818 157.907 142.248 152.918 141.643C151.254 141.414 150.12 142.777 148.911 143.646C147.662 144.629 145.999 145.233 144.451 144.742C142.598 143.911 141.313 141.718 141.881 139.714C142.258 138.354 143.203 137.22 144.185 136.236C153.258 127.204 162.292 118.133 171.365 109.136C185.5 116.053 199.674 122.819 213.851 129.737C214.304 130.076 214.794 130.416 215.211 130.87C215.438 130.604 215.628 130.34 215.853 130.076L215.324 130.151C207.878 115.977 200.055 101.992 192.606 87.8177C201.981 78.5199 211.242 69.1839 220.579 59.8862ZM170.948 66.2734C171.629 65.0265 173.556 64.8754 174.463 65.9331C178.28 69.7883 182.175 73.6436 186.029 77.5004C181.723 81.8491 177.389 86.1705 173.028 90.4642C172.045 89.3302 170.72 88.4237 169.965 87.1004C171.212 84.9835 172.535 82.8284 172.876 80.3346C173.518 76.8945 172.952 73.2666 171.477 70.0921C171.061 68.8818 170.154 67.4837 170.948 66.2734ZM107.482 71.9434C108.238 71.1497 109.07 70.3179 110.166 70.0539C111.263 69.8281 112.623 70.5072 112.774 71.7159C113.04 73.0392 112.057 74.1366 111.793 75.4201C111.64 76.4412 112.472 77.1601 113.076 77.8408C123.17 87.9306 133.223 98.0236 143.317 108.077C143.998 108.721 144.715 109.515 145.698 109.741C146.907 109.628 147.926 108.834 149.1 108.57C150.536 108.417 151.858 109.968 151.405 111.328C151.217 112.349 150.424 113.106 149.743 113.823C144.828 118.738 139.913 123.651 135 128.527C134.132 129.397 132.998 130.303 131.711 130.001C130.994 129.698 130.389 129.131 130.124 128.414C129.747 126.75 131.523 125.389 131.106 123.725C130.73 123.084 130.2 122.591 129.708 122.063C125.097 117.489 120.523 112.84 115.874 108.268C114.254 109.924 112.616 111.562 110.959 113.181C109.825 112.085 108.691 110.987 107.633 109.817C109.295 108.191 110.923 106.529 112.586 104.902C108.502 100.898 104.457 96.8133 100.414 92.7688C99.5439 91.9386 98.7884 91.032 97.7673 90.4276C95.9159 89.8217 94.1393 92.43 92.3626 90.9938C90.9248 89.9743 91.3797 87.9306 92.5519 86.873C97.5033 81.8455 102.529 76.9326 107.482 71.9434Z" fill="white"/>
<path d="M88.1275 91.5616C89.2631 90.8412 90.9634 91.296 91.4915 92.5811C92.0211 94.1302 90.623 95.4535 90.5849 96.966C90.5467 97.7596 91.1893 98.3258 91.6807 98.8555C102.151 109.327 112.585 119.795 123.056 130.227C124.944 132.268 127.364 128.753 129.405 130.265C130.728 131.325 130.275 133.402 129.141 134.385C124.226 139.337 119.275 144.212 114.398 149.163C113.605 149.92 112.811 150.827 111.715 151.167C110.505 151.507 109.03 150.75 108.881 149.467C108.653 147.956 110.015 146.782 109.939 145.308C109.748 144.665 109.334 144.137 108.881 143.646C98.9698 133.775 89.0782 123.884 79.2062 113.974C78.263 113.106 77.4693 112.009 76.2207 111.555C74.8608 111.48 73.7268 112.502 72.4035 112.651C71.2694 112.689 70.2865 111.668 70.2483 110.574C70.1354 109.4 70.9672 108.457 71.7609 107.663C76.6741 102.749 81.5872 97.8344 86.4654 92.9215C86.9934 92.43 87.4849 91.9386 88.1275 91.5616ZM60.7989 118.587C63.067 116.393 65.2588 114.125 67.5269 111.896C71.4969 115.752 75.3889 119.757 79.3589 123.651C80.0396 124.406 80.8699 125.087 81.2468 126.07C81.7017 127.923 79.5863 129.963 77.7333 129.131C75.8804 128.3 74.4075 126.825 72.6293 125.842C69.6439 123.991 66.1654 122.819 62.6137 123.236C61.5926 122.178 60.4585 121.193 59.5519 120.061C59.8526 119.455 60.3456 119.04 60.7989 118.587ZM44.3178 135.065C48.5518 130.908 52.7095 126.712 56.9053 122.517C64.8493 130.498 72.8121 138.461 80.7935 146.405C85.1786 150.75 89.4508 155.175 93.8725 159.445C95.1211 160.843 96.7832 159.673 98.1447 159.18C99.5046 158.575 101.094 159.786 101.055 161.22C101.055 162.203 100.488 163.035 99.8466 163.717C94.706 168.82 89.6401 173.922 84.5377 179.025C83.8187 179.743 82.9105 180.46 81.8528 180.385C80.6806 180.5 79.5466 179.366 79.6595 178.23C79.7358 177.021 80.6806 176.039 80.6806 174.828C80.757 173.807 79.8869 173.165 79.2825 172.484C67.2247 160.503 55.2798 148.409 43.1837 136.463C43.5623 135.972 43.9027 135.519 44.3178 135.065ZM328.004 131.361C332.691 135.973 337.341 140.622 341.953 145.308C343.426 146.707 342.368 149.503 340.402 149.807C338.587 150.071 337.189 148.635 335.791 147.69C332.049 145.119 327.626 142.701 322.94 143.495C321.691 142.361 320.482 141.189 319.461 139.867C322.372 137.069 325.17 134.195 328.004 131.361ZM40.4623 139.033C41.862 139.563 42.7304 141.15 43.8645 142.133C43.2601 146.518 45.3373 150.637 47.7947 154.078C48.5136 155.175 49.3821 156.194 49.8354 157.441C50.3284 159.105 48.7029 160.843 47.0392 160.654C46.0944 160.654 45.4518 159.86 44.8474 159.294C40.7264 155.135 36.5703 151.054 32.4492 146.897C35.1706 144.325 37.7043 141.567 40.4623 139.033ZM124.567 160.354C132.088 157.933 140.253 157.669 148.002 159.256C161.157 162.054 172.798 169.764 182.098 179.326C191.207 188.549 198.465 200.116 200.922 213.004C202.282 220.072 201.98 227.48 199.941 234.397C197.936 241.239 194.305 247.552 189.732 252.994C187.767 250.916 185.613 248.988 183.722 246.871C183.722 245.85 184.364 244.98 184.555 243.999C185.575 240.673 184.555 236.931 182.022 234.51C163.35 215.802 144.601 197.091 125.927 178.381C124.226 176.643 122.073 175.245 119.615 175.056C117.611 174.792 115.645 175.509 113.756 176.188C112.999 176.605 112.509 175.662 112.017 175.282C110.505 173.658 108.841 172.183 107.33 170.52C107.33 170.407 107.292 170.179 107.292 170.066C112.32 165.758 118.217 162.394 124.567 160.354ZM175.521 158.273C177.259 158.839 178.847 159.709 180.472 160.541C186.559 163.49 192.605 166.552 198.73 169.537C199.258 169.802 199.75 170.218 200.205 170.633C205.344 175.849 210.524 180.99 215.701 186.168C218.52 189.155 221.985 191.456 225.831 192.896C228.514 193.917 231.54 193.917 234.223 192.971C235.584 192.517 237.059 191.989 238.495 192.443C239.214 192.739 239.837 193.227 240.297 193.854C240.756 194.48 241.035 195.221 241.102 195.996C240.989 198.074 239.666 199.813 238.268 201.249C233.644 205.936 228.982 210.586 224.282 215.197C223.035 216.331 221.599 217.502 219.859 217.691C217.365 218.068 214.907 215.425 215.663 213.004C216.382 210.547 217.365 208.053 216.95 205.483C216.344 201.173 213.886 197.355 211.165 194.068C200.922 183.787 190.641 173.543 180.359 163.224C178.771 161.561 177.032 160.05 175.521 158.273ZM290.808 168.554C293.645 165.72 296.516 162.884 299.352 160.013C300.599 161.033 301.695 162.243 302.867 163.377C302.376 167.156 303.663 170.897 305.627 174.073C306.646 175.887 308.121 177.437 309.029 179.326C309.52 180.234 309.18 181.254 308.84 182.16C313.61 185.383 317.77 189.427 321.125 194.105C324.942 199.51 327.626 205.936 327.474 212.664C327.513 219.052 324.753 225.174 320.708 230.012C319.612 228.878 318.327 227.859 317.381 226.574C317.572 225.174 318.251 223.814 317.911 222.416C317.534 220.602 316.134 219.316 314.887 218.068C304.909 208.128 294.967 198.189 285.026 188.247C284.043 187.264 282.871 186.357 281.471 186.245C280.15 186.092 278.826 186.47 277.618 186.885C276.445 185.791 275.275 184.618 274.141 183.484C279.167 179.175 285.705 176.416 292.397 176.756C294.967 176.681 297.463 177.286 299.957 177.852C296.933 174.715 293.719 171.767 290.808 168.554ZM93.0041 190.741C95.0829 184.958 98.3705 179.666 102.264 174.941C104.192 176.909 106.234 178.796 108.124 180.8C108.501 182.011 107.519 183.145 107.33 184.353C106.347 187.604 107.632 191.157 110.015 193.5C128.384 211.908 146.793 230.278 165.202 248.684C166.978 250.613 169.132 252.426 171.853 252.843C174.272 253.222 176.655 252.39 178.885 251.558C180.926 253.599 182.968 255.603 185.009 257.643C180.547 261.537 175.368 264.598 169.851 266.753C161.534 269.964 152.236 270.494 143.504 268.568C130.235 265.656 118.556 257.681 109.22 247.967C100.602 238.935 93.6451 227.859 91.1893 215.498C89.5272 207.297 90.0568 198.604 93.0041 190.741ZM264.803 201.666C265.257 195.921 267.79 190.44 271.57 186.13C272.665 187.264 273.838 188.398 274.971 189.532C274.556 190.893 273.912 192.33 274.292 193.764C274.518 195.051 275.386 196.072 276.294 196.979C286.273 206.919 296.176 216.897 306.156 226.838C307.327 227.972 308.461 229.333 310.125 229.786C311.637 230.203 313.187 229.672 314.659 229.219C315.795 230.354 316.967 231.488 318.063 232.697C313.3 236.627 307.365 239.388 301.091 239.388C295.005 239.652 289.033 237.497 283.969 234.322C280.301 231.98 276.937 229.144 274.141 225.855C275.462 230.278 275.162 235.23 273.081 239.388C271.041 243.469 267.866 246.796 264.728 250.009C263.594 248.875 262.422 247.701 261.249 246.569C262.234 244.98 262.876 243.091 262.27 241.239C261.553 239.348 260.002 237.988 258.642 236.552C255.83 233.708 253.007 230.873 250.174 228.048C248.512 226.497 246.734 224.721 244.353 224.57C242.955 224.42 241.708 225.137 240.536 225.818C239.365 224.684 238.231 223.512 237.059 222.38C241.593 217.805 246.772 213.08 253.425 212.248C258.868 211.34 264.349 213.685 268.205 217.427C265.786 212.589 264.274 207.145 264.803 201.666ZM65.561 214.857C66.695 213.761 68.1695 212.929 69.7568 212.816C72.3653 212.664 74.7479 215.385 74.0274 217.918C73.4612 219.846 72.0631 221.546 71.9867 223.627C72.1378 225.44 73.6504 226.725 74.8608 227.935L133.071 286.143C133.979 287.012 134.999 287.881 136.284 287.994C138.476 287.994 140.178 286.37 142.257 285.879C144.751 285.387 147.246 287.655 147.133 290.149C147.057 291.851 146.112 293.4 144.94 294.609L115.645 323.903C114.36 325.15 112.773 326.246 110.921 326.246C108.653 326.322 106.536 324.169 106.724 321.861C106.953 319.595 108.841 317.78 108.881 315.435C108.804 314.037 107.707 312.978 106.839 311.997C98.1447 303.265 89.4126 294.609 80.757 285.917C80.4166 285.653 79.9633 284.896 79.4718 285.424C76.4482 288.334 73.5375 291.397 70.5123 294.306C68.4717 292.266 66.431 290.225 64.3888 288.146C67.3207 285.082 70.3201 282.083 73.3848 279.151C73.3848 278.998 73.4246 278.659 73.4246 278.507C65.2206 270.457 57.1693 262.292 49.0051 254.166C47.7581 252.994 46.5843 251.522 44.8474 251.105C42.4664 250.952 40.6134 252.805 38.3835 253.222C35.511 253.713 32.9025 250.462 33.8855 247.778C34.3769 245.888 35.888 244.527 37.2113 243.243C46.6607 233.756 56.1482 224.344 65.561 214.857ZM234.336 225.063C238.872 229.295 243.144 233.831 247.604 238.178C256.072 246.682 264.577 255.186 273.081 263.69C273.686 264.183 274.252 264.862 275.046 265.013C276.673 265.166 277.956 263.577 279.583 263.879C280.566 264.22 281.471 265.166 281.36 266.26C281.36 267.735 280.111 268.756 279.203 269.739C273.875 274.993 268.62 280.321 263.292 285.576C262.119 286.861 259.926 286.219 259.209 284.783C258.151 283.006 261.023 281.115 259.512 279.491C248.543 268.562 237.593 257.612 226.663 246.644C225.869 245.926 225.19 245.02 224.244 244.527C222.618 244.073 221.333 245.435 219.822 245.624C218.65 245.511 217.516 244.49 217.591 243.28C217.478 241.957 218.461 240.939 219.291 240.069C224.32 235.078 229.348 230.052 234.336 225.063ZM200.62 258.741C205.116 254.318 209.501 249.745 214.076 245.397C218.12 249.479 222.203 253.524 226.248 257.605C227.608 258.928 226.172 260.932 224.774 261.537C223.791 261.65 222.882 261.045 222.012 260.668C218.537 258.965 214.529 258.135 210.712 259.118C208.292 259.609 206.175 260.969 204.058 262.216C202.924 261.045 201.792 259.875 200.62 258.741ZM182.247 277.147C187.466 271.855 192.758 266.677 197.973 261.422C206.439 269.777 214.793 278.281 223.299 286.634C229.801 293.098 236.227 299.637 242.766 306.063C237.701 311.278 232.486 316.344 227.419 321.521C226.701 322.316 225.68 322.769 224.735 323.184C223.791 322.845 222.618 322.505 222.316 321.447C221.75 319.669 223.601 318.271 223.375 316.533C222.618 315.059 221.295 313.999 220.161 312.829L192.605 285.273C190.981 283.762 189.62 281.948 187.692 280.814C185.764 280.434 184.026 282.892 182.174 281.568C180.587 280.549 181.04 278.281 182.247 277.147ZM218.914 267.774C218.31 266.224 219.746 264.409 221.371 264.673C222.127 264.862 222.693 265.354 223.223 265.883C227.191 269.891 231.199 273.821 235.131 277.828C236.415 279.151 238.078 280.285 238.608 282.174C238.117 283.006 237.587 284.14 236.454 284.253C234.6 284.442 233.24 282.968 231.576 282.362C230.442 281.799 229.191 281.51 227.924 281.517C226.658 281.523 225.411 281.827 224.282 282.402C223.073 281.191 221.901 279.981 220.691 278.811C221.523 277.034 221.901 274.993 221.295 273.102C220.842 271.175 219.557 269.587 218.914 267.774ZM243.219 277.638C244.013 276.43 245.94 276.24 246.885 277.374C250.968 281.495 255.127 285.576 259.17 289.734C254.521 294.27 250.061 299.032 245.298 303.455C244.204 302.282 243.03 301.148 241.896 299.976C245.94 294.989 246.508 287.768 243.787 282.023C243.294 280.662 242.236 278.998 243.219 277.638Z" fill="white"/>
<path d="M0.0169657 292.682C1.52797 292.078 2.96582 291.132 4.62952 291.17C6.632 291.548 7.88057 293.325 9.27706 294.647C28.2919 313.584 47.2288 332.558 66.2039 351.494C67.2616 352.668 68.6231 353.839 68.8124 355.502C68.7361 357.126 67.866 358.564 67.1885 360C44.7715 359.962 22.3958 359.962 0.0169657 359.962C0.0169657 337.548 -0.0212071 315.095 0.0169657 292.682Z" fill="#F96302"/>
<path d="M175.974 291.661C182.702 291.095 189.394 293.513 194.949 297.18C199.296 300.091 203.341 303.455 206.439 307.65C210.145 312.601 212.412 318.65 212.452 324.886C212.563 331.992 209.767 339.173 204.703 344.199C203.536 343.073 202.389 341.926 201.262 340.76C201.941 339.477 202.735 338.115 202.509 336.603C202.132 334.335 200.581 332.482 199.031 330.933L173.517 305.419C171.778 303.719 169.813 301.866 167.242 301.678C165.844 301.527 164.596 302.244 163.425 302.925C162.327 301.715 160.816 300.808 160.136 299.297C164.293 295.025 169.964 292.038 175.974 291.661Z" fill="white"/>
</g>
</svg>
