<svg width="360" height="360" viewBox="0 0 360 360" fill="none" xmlns="http://www.w3.org/2000/svg">
<rect width="360" height="360" rx="82" fill="#00704A"/>
<path d="M59.3695 213.918V145.551C59.3695 132.158 59.8229 129.871 79.9606 124.212C117.867 113.57 151.351 111.472 178.152 111.445V101H48V258.471H178.151V248.945C151.35 248.914 117.867 245.902 79.96 235.259C59.8229 229.6 59.3695 227.313 59.3695 213.918Z" fill="white"/>
<path d="M300.631 213.918V145.551C300.631 132.158 300.178 129.871 280.038 124.212C242.129 113.57 208.647 111.472 181.848 111.445V101H311.999V258.471H181.848V248.945C208.647 248.914 242.129 245.902 280.038 235.259C300.178 229.6 300.631 227.313 300.631 213.918Z" fill="white"/>
<path d="M111.105 151.219V172.519H86.7636V151.219H71.9883V208.111H86.7636V186.747H111.105V208.111H125.886V151.219H111.105Z" fill="white"/>
<path d="M177.225 165.454V151.219C177.225 151.219 149.255 151.219 141.739 151.219C134.221 151.219 131.697 152.886 131.697 162.839V196.484C131.697 206.44 134.221 208.111 141.739 208.111C149.255 208.111 177.225 208.111 177.225 208.111V193.841H146.191V186.747H177.225V172.518H146.191V165.454H177.225Z" fill="white"/>
<path d="M222.874 172.519H197.237V165.455H231.732V151.219C231.732 151.219 200.938 151.219 192.96 151.219C184.977 151.219 182.743 153.07 182.743 162.901V175.573C182.743 186.985 184.956 186.747 192.96 186.747C200.958 186.747 218.592 186.747 218.592 186.747V193.841H182.738V208.111C182.738 208.111 214.896 208.111 222.874 208.111C230.855 208.111 233.087 206.258 233.087 196.43V184.049C233.087 172.634 230.878 172.519 222.874 172.519Z" fill="white"/>
<path d="M277.789 172.519H252.153V165.455H286.648V151.219C286.648 151.219 255.854 151.219 247.871 151.219C239.89 151.219 237.66 153.07 237.66 162.901V175.573C237.66 186.985 239.87 186.747 247.871 186.747C255.873 186.747 273.507 186.747 273.507 186.747V193.841H237.654V208.111C237.654 208.111 269.809 208.111 277.789 208.111C285.768 208.111 288.004 206.258 288.004 196.43V184.049C288.004 172.634 285.789 172.519 277.789 172.519Z" fill="white"/>
</svg>
