<svg width="360" height="360" viewBox="0 0 360 360" fill="none" xmlns="http://www.w3.org/2000/svg">
<rect width="360" height="360" rx="82" fill="#00467F"/>
<path d="M171.67 183.238C162.247 183.374 152.96 183.511 143.947 183.784V245.784C137.802 242.37 132.203 238.137 127.286 233.22V184.467C88.6388 186.515 53.6784 190.749 25 196.621C43.5727 182.282 80.9912 171.084 127.286 166.167V133.392C95.3304 135.714 66.2423 139.537 41.7974 144.454C60.2335 130.115 97.3789 119.053 143.401 114V114.683C143.537 114.546 143.811 114.41 143.947 114.41V164.802C152.96 164.119 162.247 163.709 171.67 163.573H180H188.33C197.753 163.709 207.04 164.119 216.053 164.802V114.41C216.189 114.546 216.463 114.683 216.599 114.683V114C262.621 118.916 299.767 130.115 318.203 144.454C293.758 139.401 264.67 135.577 232.714 133.392V166.167C279.145 171.084 316.564 182.282 335 196.621C306.322 190.749 271.361 186.515 232.714 184.467V233.22C227.797 238.137 222.198 242.37 216.053 245.784V183.784C207.04 183.511 197.753 183.238 188.33 183.238H171.67Z" fill="white"/>
</svg>
