<svg width="360" height="360" viewBox="0 0 360 360" fill="none" xmlns="http://www.w3.org/2000/svg">
<rect width="360" height="360" rx="82" fill="#38C6F4"/>
<mask id="mask0" mask-type="alpha" maskUnits="userSpaceOnUse" x="25" y="25" width="310" height="310">
<rect x="25" y="25" width="310" height="310" rx="155" fill="#C4C4C4"/>
</mask>
<g mask="url(#mask0)">
<path d="M292.465 92.171C294.356 96.7024 301.684 112.403 300.795 116.875C300.456 118.601 299.681 123.103 299.062 124.21C298.851 124.638 297.606 126.81 296.28 126.674C293.543 126.455 293.347 118.239 292.473 115.683C291.282 112.365 289.103 109.832 286.419 106.801C285.597 105.874 283.591 104.397 282.635 103.597C276.612 98.2739 269.059 87.2913 260.352 85.257C260.314 85.2406 260.245 85.2243 260.192 85.3386C260.154 85.4294 260.245 85.6798 260.396 85.8359C260.713 86.1444 262.771 87.6978 266.938 92.0023C269.32 94.4667 272.571 97.6333 274.507 100.392C276.799 103.673 282.528 108.798 284.511 111.723C285.86 113.734 287.769 117.015 288.106 120.045C288.333 122.029 288.333 122.631 287.172 122.88C286.448 123.107 281.503 121.221 273.948 120.642C273.271 120.642 266.93 120.076 266.237 120.076C256.677 118.998 257.274 119.405 249.139 116.857C243.711 115.14 237.084 112.779 231.168 111.565C230.445 111.431 222.628 108.725 222.136 109.311C221.782 109.696 224.413 111.324 224.963 111.565C227.264 112.59 233.95 115.071 236.512 116.285C239.753 117.884 242.678 119.15 245.573 120.272C250.066 122.045 254.318 123.656 259.724 124.909C259.227 131.4 257.951 142.248 255.367 146.923C250.219 156.276 243.065 165.346 235.518 172.425C233.919 173.94 232.374 176.165 230.193 178.132C228.34 179.844 225.898 182.64 224.132 183.056C223.018 183.29 221.479 182.958 220.19 183.23C218.412 183.615 217 184.609 215.449 184.375C213.919 184.11 213.398 182.755 212.064 182.083C210.286 181.285 207.42 180.675 205.221 180.381C203.553 180.192 202.867 180.381 203.154 178.866C203.154 178.806 203.268 178.715 203.328 177.759C203.696 172.812 203.765 168.191 203.727 164.695C203.509 150.393 194.523 139.033 189.179 129.367C187.874 127.001 185.108 121.618 182.958 119.154C180.56 116.47 181.994 121.098 182.37 122.591C182.823 124.302 184.33 126.248 184.821 127.681C185.19 128.494 185.5 129.692 185.785 130.509C188.614 138.944 195.842 150.327 196.913 160.526C196.973 161.168 197.116 161.991 197.078 162.442C196.416 169.113 195.443 177.512 189.157 178.869C188.779 178.989 188.22 179.08 187.845 179.08C177.924 179.02 169.346 165.42 164.958 158.303C160.533 151.082 157.247 144.495 154.35 135.229C153.024 130.948 152.474 118.439 152.051 113.917C151.982 113.171 151.908 108.489 151.877 107.872C151.861 107.614 151.779 107.268 151.59 107.268C151.071 107.268 150.285 111.505 150.015 112.599C149.111 116.202 148.854 124.065 148.854 127.284C148.854 136.218 151.5 145.172 155.125 152.991C157.289 157.739 162.061 167.184 164.731 171.716C165.515 173.049 167.518 175.635 167.384 176.623C167.097 178.915 162.725 178.869 161.337 179.285C154.477 180.296 145.326 179.412 137.29 177.182C129.534 175.026 122.326 172.492 115.926 168.498C115.24 167.954 114.479 167.509 114.027 166.832C105.493 160.1 100.352 144.714 98.5115 132.97C98.2465 130.964 98.0905 128.371 98.0959 128.001C98.8817 127.807 99.5513 127.609 100.246 127.451C109.262 125.174 121.399 117.31 128.177 113.082C130.483 111.681 132.759 110.188 134.84 108.438C135.098 108.228 135.172 108.113 135.105 108.03C135.067 107.97 134.888 107.992 134.63 108.083C124.852 111.157 111.795 119.232 102.674 121.582C102.012 121.756 99.4787 122.435 97.7965 122.722C97.7965 121.833 97.8564 120.091 97.8636 119.691C97.8872 118.628 97.8328 117.648 97.8328 116.742C98.8726 116.042 99.9215 114.949 101.368 113.832C109.178 107.672 114.396 90.026 119.755 81.3118C119.807 81.2355 119.989 80.9416 119.922 80.8889C119.845 80.8218 119.711 80.9198 119.501 81.025C110.098 85.4566 105.636 104.878 97.2249 110.433C90.3652 114.955 81.7707 118.423 77.1359 124.816C76.6078 125.562 75.4464 128.358 74.4973 128.623C74.1198 128.7 72.7551 129.935 72.0329 129.536C69.5286 128.014 67.2765 123.205 65.5489 120.499C63.0845 116.548 63.7632 105.036 64.2768 100.771C65.068 94.1818 70.4958 85.6707 73.677 80.2411C73.7442 80.1213 73.7914 80.0687 73.7442 80.016C73.7061 79.9707 73.6099 80.0306 73.4883 80.0832C72.2289 80.5877 69.1384 83.3769 68.6176 83.9358C64.1933 88.9935 58.5005 97.4228 58.0414 104.44C57.5805 111.037 59.3897 125.729 63.6942 130.071C64.4564 130.999 65.2404 131.797 66.1895 132.507C71.4576 137.227 73.893 144.252 76.586 151.068C77.4389 153.322 78.359 155.062 79.8198 157.105C84.6289 164.321 93.7587 168.217 101.93 172.287C109.674 176.116 118.771 180.091 127.471 182.849C132.959 184.598 140.217 186.384 146.778 187.574C149.273 188.064 151.46 188.524 152.703 189.587C153.592 190.326 154.151 193.447 154.663 194.984C155.29 196.967 156.036 198.897 156.572 200.397C158.018 204.43 158.9 208.304 160.408 211.238C162.533 215.156 167.562 216.839 172.198 218.564C172.801 218.664 175.643 219.523 178.974 219.334C181.099 219.259 181.372 221.806 181.259 223.012C181.168 224.731 181.41 225.876 181.373 227.604C181.283 232.035 181.658 232.042 181.094 235.835C180.974 236.703 179.956 239.37 179.263 241.548C179.103 241.887 178.909 242.227 178.84 242.535C178.388 244.669 178.14 248.62 177.439 250.783C176.806 253.037 174.047 259.942 173.354 270.458C173.06 274.719 171.492 278.742 169.569 282.807C168.665 284.731 168.83 285.778 168.122 287.934C167.391 290.195 166.975 291.928 166.222 293.119C165.928 293.57 164.669 295.42 163.892 296.044C159.678 299.316 157.002 301.553 153.459 305.188C152.058 306.575 150.579 310.086 149.282 310.812C148.402 311.295 143.431 314.445 142.241 314.799C134.8 317.037 133.058 318.267 127.135 321.953C114.334 329.89 25.6976 329.498 27.3399 391.602C27.3399 392.302 27.1585 393.734 26.9625 395.235C26.6304 398.273 26.5342 401.604 27.2419 405.727C28.6429 414.54 31.0855 422.644 34.3266 429.391C39.8524 440.864 45.0026 447.506 53.1815 454.894C55.2485 456.755 57.6294 458.309 59.671 460.292C63.7342 464.288 65.8755 471.963 68.9896 477.209C69.3217 477.554 68.8626 488.132 68.8626 488.245C68.7864 488.538 68.6593 490.355 68.4325 492.451C36.0107 497.826 2.45647 502.011 -28 504.332V528.01H251.777V441.497C249.832 441.958 242.045 444.867 233.964 447.891C234.108 447.589 234.44 446.851 234.469 446.775C235.02 445.395 235.403 444.399 235.487 444.174C237.205 438.949 238.285 433.311 240.183 429.27C241.435 426.646 244.54 418.49 244.54 418.483C247.277 409.723 248.424 404.002 249.397 398.242C249.569 396.984 253.768 391.759 253.768 391.759C255.019 390.132 256.006 387.93 257.401 385.94C257.401 385.94 264.165 371.85 263.991 359.661C263.931 357.423 264.624 347.328 264.549 338.577C264.6 338.071 264.684 337.628 264.684 337.046C264.684 335.387 264.519 333.857 264.323 332.304C264.323 332.17 264.315 332.019 264.292 331.883C264.254 331.551 264.268 331.19 264.232 330.859C263.885 328.613 264.39 324.179 264.27 322.174C264.119 319.528 263.199 319.822 263.005 317.093C262.862 315.24 262.267 313.814 261.791 312.079C261.444 310.814 260.728 309.667 260.125 308.536C260.011 307.807 259.944 307.248 259.944 307.045C260.283 297.599 253.995 286.373 253.837 285.976C250.859 279.107 251.191 278.851 251.681 270.431C251.349 260.134 249.647 254.549 248.607 251.941C248.186 251.699 244.989 244.847 243.956 242.615C243.528 241.695 243.473 240.679 243.686 239.773C244.388 236.826 249.491 235.973 251.556 234.565C252.877 233.697 254.353 231.427 254.964 229.799C255.024 229.634 255.062 229.498 255.062 229.28V226.137C255.062 225.88 254.888 225.709 254.852 225.482C254.768 225.007 254.911 224.284 254.875 223.756C254.875 223.589 254.882 223.439 254.919 223.295C256.721 217.739 258.584 212.839 253.284 210.066C251.121 208.897 248.188 208.4 248.317 206.206C248.384 204.548 250.518 203.929 251.768 203.116C255.124 200.929 257.407 198.902 259.307 195.797C260.1 194.432 260.1 190.814 261.071 189.877C261.735 189.208 263.589 188.642 264.84 187.986C268.85 185.919 272.801 184.562 276.374 182.491C286.076 176.957 296.538 166.328 303.987 158.67C307.658 154.9 313.569 148.108 316.282 143.201C318.445 139.234 320.376 129.549 320.639 124.31C320.706 123.065 321 118.889 321 118.693C320.985 118.483 320.976 118.263 320.873 118.256C320.789 118.241 320.677 118.332 320.639 118.445C318.06 124.733 315.596 136.176 311.562 141.482C308.562 145.388 299.554 155.436 295.12 158.294C294.819 158.483 294.628 158.602 294.509 158.662C294.645 158.323 294.85 157.857 294.953 157.541C295.149 157.036 295.247 156.477 295.314 156.002C296.347 149.661 299.294 145.175 299.294 134.434C299.294 133.394 301.239 131.516 301.746 130.665C305.161 124.869 305.553 116.982 304.58 111.042C303.947 107.139 298.234 97.0272 296.1 94.6318C295.919 94.3977 292.609 90.3708 292.14 90.8699C291.937 91.026 292.293 91.8462 292.465 92.171ZM83.9429 125.749C86.0988 123.065 91.0748 120.147 93.0274 118.94C93.2688 118.789 93.5301 118.601 93.6825 118.481C93.4103 120.766 93.2669 122.869 93.1091 123.84C92.0238 124.255 90.1238 124.91 88.1785 125.618C87.0098 126.034 85.489 126.968 83.7542 127.444C82.4185 127.776 83.3695 126.457 83.9429 125.749ZM89.643 156.942C88.8808 156.307 88.1585 155.637 87.5542 154.862C85.2404 152.759 83.4384 148.959 82.4367 145.197C80.5203 137.878 78.5241 139.346 83.0247 134.831C84.1244 133.657 85.9119 132.48 87.9317 131.402C89.1893 130.768 90.9459 129.879 92.1291 129.569C92.4921 129.471 92.6427 129.404 93.2597 129.275C93.3196 130.061 93.403 131.198 93.4339 132.525C94.1652 144.586 96.156 153.919 101.17 162.813C96.675 160.793 93.7569 159.348 89.643 156.942ZM179.35 192.485C178.837 192.05 176.673 191.694 177.223 189.968C177.412 189.433 178.619 189.039 178.973 189.019C182.539 188.34 188.418 190.05 186.482 193.443C186.482 193.443 183.382 195.561 183.217 195.568C183.217 195.568 181.793 194.989 181.491 194.808C180.622 194.242 179.907 192.893 179.35 192.485ZM96.7639 487.408C97.6931 484.528 99.2519 481.474 102.239 478.505C103.008 477.745 109.625 470.878 110.402 469.836C112.989 466.473 113.432 465.744 116.455 458.899C117.12 457.376 118.241 455.694 119.713 454.286C128.142 450.275 136.517 453.652 140.707 452.544C143.812 451.723 143.277 449.331 143.896 446.461C145.146 446.384 146.458 446.332 147.863 446.317C150.848 446.301 154.035 445.479 156.833 445.087L162.607 444.281C169.897 443.249 171.85 441.748 171.85 441.748C177.022 440.414 182.283 438.657 184.544 436.931C186.905 437.225 188.179 442.682 189.881 445.524C191.563 448.397 191.75 449.451 193.289 451.451C193.447 451.633 195.452 455.928 197.534 460.722C174.39 470.175 137.668 479.605 96.7639 487.408ZM220.178 427.039C219.983 429.059 219.702 447.107 219.425 453.242C216.755 454.191 214.939 454.788 213.581 455.186C212.149 449.954 210.347 436.913 209.857 435.79C208.199 431.99 208.139 429.036 207.663 423.956C211.908 423.88 216.203 423.555 220.033 422.728C220.192 423.971 220.326 425.087 220.303 425.395C220.292 425.706 220.209 426.722 220.178 427.039ZM288.01 161.165C285.018 168.627 274.712 174.815 266.155 177.75C263.773 178.543 258.632 181.519 257.064 180.412C256.445 179.944 259.726 177.207 260.472 176.595C267.905 170.625 277.621 166.119 285.03 160.486C286.825 159.069 288.415 157.824 288.763 157.463C288.689 158.218 288.68 159.552 288.01 161.165ZM287.91 148.816C280.561 157.946 265.092 162.626 256.723 168.493C254.561 169.984 252.819 171.975 249.729 173.973C248.794 174.532 245.725 176.445 243.644 177.396C243.433 177.479 242.408 178.361 242.152 177.924C241.655 177.261 245.009 173.454 245.364 173.024C253.882 162.079 261.655 151.389 263.323 134.833C263.638 131.073 263.849 127.99 263.638 125.313C264.363 125.313 265.261 125.351 266.157 125.397C276.614 125.879 290.491 126.888 291.894 137.269C292.556 142.152 290.03 146.17 287.91 148.816Z" fill="#95013D"/>
<path d="M185.836 245.491C187.208 244.495 186.334 237.244 186.334 237.033C186.334 236.875 185.354 238.044 184.924 238.699C184.488 239.378 184.902 242.341 184.902 242.432C184.902 242.537 184.924 242.847 184.945 242.982C184.983 243.065 184.902 243.185 184.771 243.232C184.666 243.27 184.214 243.858 183.265 244.604C183.267 244.602 182.158 248.221 185.836 245.491Z" fill="white"/>
<path d="M252.067 228.979C250.387 227.411 251.049 229.55 249.823 230.109C248.064 231.106 246.512 230.601 243.769 230.109C239.457 226.302 233.417 232.65 227.922 229.665C227.418 228.919 228.216 228.338 228.647 227.781C233.537 227.38 230.253 228.881 235.394 227.812C235.394 227.812 237.638 227.547 237.444 226.943C237.27 226.371 233.584 227.915 229.431 225.912C225.035 225.427 227.922 229.665 224.734 230.676C223.513 231.06 224.524 233.087 225.532 232.559C226.551 232.033 227.643 230.57 231.773 231.603C233.967 233.917 235.007 228.732 236.637 233.532C236.969 234.512 237.586 233.434 237.586 233.434C237.443 232.401 237.887 232.024 238.332 231.498C238.867 232.086 239.266 233.111 240.315 233.147L241.061 230.752C242.146 232.131 244.159 232.839 246.142 232.832C248.478 231.685 252.301 232.22 252.067 228.979Z" fill="white"/>
<path d="M228.242 204.105C229.298 205.175 231.385 205.125 232.503 204.384C233.672 203.586 234.236 204.482 235.494 204.286C236.768 204.074 233.015 201.406 232.757 202.528C232.592 203.486 231.904 202.8 231.008 203.206C229.779 203.388 229.229 201.942 228.378 201.406C228.347 200.719 228.739 200.259 229.229 199.784L229.714 199.363C230.732 198.419 230.882 197.728 230.015 196.557C229.079 197.721 228.304 197.456 227.015 197.456C225.464 197.506 224.798 198.125 224.769 199.724C225.23 200.553 226.594 200.945 226.2 201.933C225.538 203.35 223.533 202.822 222.687 202.317C220.078 202.943 217.365 203.306 215.947 205.952C216.896 206.321 217.419 206.237 218.134 205.529L218.76 204.95C218.978 204.724 219.181 204.611 219.462 204.611C222.633 203.488 225.89 206.76 228.242 204.105Z" fill="white"/>
<path d="M199.506 207.104C198.457 206.937 198.005 206.552 197.101 206.591C196.082 206.636 198.88 209.193 199.196 209.305C199.934 209.568 202.604 209.968 202.981 209.968C205.206 209.69 205.642 207.707 206.516 206.591C205.144 207.57 201.872 207.465 199.506 207.104Z" fill="white"/>
<path d="M202.226 201.708C200.524 199.34 197.553 201.858 195.689 202.815C196.822 206.609 199.754 201.519 202.226 201.708Z" fill="white"/>
<path d="M233.394 213.09C233.054 215.134 232.43 216.883 233.664 218.79C234.35 219.242 237.457 221.865 242.175 220.968C247.082 221.603 244.226 214.379 250.875 215.994C252.797 216.469 251.477 214.696 253.031 213.673C253.031 213.673 253.686 213.025 252.956 212.82C252.238 212.617 251.711 212.459 250.619 213.989C246.616 214.065 242.146 210.198 239.221 214.509C240.772 215.406 242.877 212.609 244.558 214.744C244.835 216.967 242.959 218.785 241.195 218.836C239.061 218.881 238.593 218.792 236.537 217.956C233.724 216.99 235.361 215.038 235.156 213.461C236.47 211.011 239.326 211.864 241.195 210.43C238.377 209.802 234.555 210.136 233.394 213.09Z" fill="white"/>
<path d="M197.55 232.795C197.733 232.705 197.973 232.661 198.198 232.585C197.897 232.193 197.378 231.734 196.969 231.523L192.228 229.367C192.22 229.337 192.197 229.329 192.197 229.269C191.888 229.133 191.594 228.928 191.3 228.703C191.248 228.409 191.157 228.123 191.03 227.821C190.894 227.571 190.729 227.384 190.571 227.135C190.538 227.016 190.525 226.925 190.494 226.825C190.442 226.81 190.387 226.81 190.351 226.787C190.284 226.703 190.253 226.598 190.162 226.509L190.117 225.656C191.248 225.997 193.329 227.028 194.204 227.819L194.837 227.789C194.211 226.304 192.298 225.571 191.302 224.337C190.623 223.462 190.284 222.361 189.516 221.517L189.471 221.101C190.467 221.29 191.395 221.893 192.095 222.45L192.728 222.406C192.329 221.668 190.896 219.601 189.887 218.561C190.001 218.29 190.211 218.042 190.257 217.77C190.371 216.713 189.518 214.467 188.885 213.509C188.106 214.037 186.818 215.325 185.945 216.329L186.005 216.436C186.373 217.808 186.313 219.397 185.838 220.838C186.041 228.264 191.966 232.191 196.505 234.031C197.372 234.242 198.254 234.476 199.114 234.567C199.439 234.567 199.77 234.657 200.102 234.717C199.86 234.392 199.626 234.115 199.385 233.768C198.759 233.498 198.35 233.082 197.55 232.795Z" fill="white"/>
<path d="M210.598 197.121L208.706 195.723C206.92 194.451 205.426 194.043 202.953 193.486C197.556 192.769 194.427 194.714 191.299 198.417L191.91 198.763C193.175 196.734 194.489 196.502 196.6 195.558C197.812 195.408 201.227 194.555 202.2 196.161C200.097 196.622 196.63 197.119 195.747 199.502C197.004 198.522 199.53 198.001 201.129 198.446C202.147 198.95 203.256 199.779 204.378 200.556C204.642 200.752 204.951 200.881 205.238 201.068C205.056 201.144 204.779 201.251 204.711 201.362C203.581 203.881 207.388 203.917 207.305 201.966C208.495 202.327 209.709 202.411 211.119 201.581C212.867 200.075 211.321 198.068 210.598 197.121Z" fill="white"/>
<path d="M181.277 200.208C181.088 200.019 181.117 199.328 180.93 199.034C179.673 197.473 178.043 197.005 176.492 195.979C175.27 195.186 174.162 193.892 172.797 192.873C169.133 189.985 165.01 186.276 160.261 185.146C159.319 184.942 157.049 184.852 156.778 185.146C156.002 186.125 158.112 190.807 158.317 191.711C158.52 192.443 158.317 193.212 158.52 194.041C159.341 197.538 162.017 202.928 163.15 206.207C163.934 208.432 163.887 209.993 164.876 211.009C166.315 212.457 171.171 213.722 174.162 214.123C174.9 214.183 177.094 214.477 177.433 214.288C177.909 214.094 179.35 210.844 178.798 210.06C177.878 208.748 173.764 210.354 171.81 210.249C168.915 210.122 169.843 208.848 168.946 206.207C167.926 203.207 165.342 201.073 164.113 197.885C163.796 197.003 163.781 195.736 163.36 194.417C163.224 194.072 161.852 192.141 162.749 191.53C163.253 191.161 165.462 193.724 165.87 194.56C166.059 194.99 166.716 199.362 167.409 199.257C168.169 199.106 168.011 194.357 169.135 194.983C169.603 195.248 168.757 199.311 169.677 200.019C170.244 200.435 171.3 199.823 171.661 198.843C172.122 198.535 171.585 197.23 172.22 197.126C173.501 197.291 172.822 202.93 174.956 202.131C175.869 201.799 174.933 199.469 175.695 199.259C176.448 199.034 177.392 202.56 177.435 202.93C177.466 203.171 177.375 204.421 177.435 204.46C178.912 205.479 178.702 201.407 179.208 201.151C179.352 201.091 182.497 203.821 182.457 203.699C182.585 204.656 180.226 205.53 180.165 205.793C179.637 207.385 181.847 208.96 182.284 208.884C183.295 208.771 183.76 206.057 184.378 205.793C184.823 205.583 185.306 204.421 184.794 203.879C184.241 201.378 182.602 201.489 181.277 200.208Z" fill="white"/>
<path d="M127.431 340.002C127.431 340.002 127.454 340.002 127.462 339.979C127.883 339.518 128.365 339.051 129.013 338.688L129.12 338.667C129.391 338.598 129.656 338.483 130.009 338.38C132.044 337.828 133.002 337.384 133.679 335.251C133.363 334.716 133.43 334.716 133.347 334.747C133.332 334.747 133.303 334.747 133.249 334.769C133.173 334.769 133.134 334.725 133.113 334.747C132.962 334.723 132.788 334.723 132.57 334.723C130.543 335.937 127.512 337.647 127.111 339.752C127.111 339.835 127.195 339.85 127.195 339.859C127.318 339.94 127.407 340.031 127.431 340.002Z" fill="white"/>
<path d="M150.351 332.739C150.042 333.207 149.846 333.606 149.311 333.682C146.039 335.551 144.682 336.027 144.682 336.027C144.698 336.268 144.215 337.557 144.146 337.813L143.116 338.762C142.851 339.409 142.693 339.856 142.714 340.313C142.731 340.584 142.186 340.282 142.322 340.674V340.789C142.239 341.745 141.176 341.888 140.776 342.289L139.548 343.019C138.726 343.721 138.1 344.4 138.1 344.4L138.876 345.048C138.876 345.048 142.094 343.743 144.469 343.043C145.299 342.945 145.631 341.805 146.663 341.21L146.761 341.15H146.883C147.282 341.338 147.161 341.475 147.244 341.58C147.295 341.7 147.335 341.85 147.402 342.008C147.462 342.288 147.56 342.627 147.583 342.747L147.636 342.866L147.598 342.943C147.696 343.877 151.155 345.144 152.091 345.235C152.739 345.378 153.312 345.409 153.864 345.409C156.207 345.378 157.775 344.195 158.748 341.888C158.198 341.73 157.737 341.611 157.299 341.64C156.833 341.647 156.372 341.745 155.829 342.017C155.143 342.333 154.646 342.734 153.893 342.734C153.456 342.749 152.98 342.598 152.438 342.273L152.12 342.122L152.271 341.805C153.719 338.91 154.398 338.843 157.699 337.99C159.448 337.794 159.477 336.399 159.515 334.853C158.987 334.671 158.49 334.582 158.067 334.582C155.603 334.575 154.298 337.214 151.915 338.571C151.781 338.631 151.657 338.662 151.538 338.662C150.837 338.593 149.413 338.261 149.209 337.13C149.209 337.016 149.209 336.903 149.24 336.822C149.505 336.059 150.739 335.216 151.962 334.145C153.213 333.156 154.367 331.958 154.314 331.612C154.314 331.581 154.329 331.581 154.314 331.544C154.314 331.43 154.207 331.296 153.968 331.183C153.757 331.1 153.516 331.047 153.47 331.025C153.193 330.98 152.951 330.949 152.741 330.949C152.009 330.949 151.503 331.408 150.924 332.049L150.351 332.739Z" fill="white"/>
<path d="M133.262 330.503L133.338 330.443H133.512H134.356C134.483 330.443 134.356 330.444 134.614 330.391C134.959 330.444 134.44 331.113 135.058 331.514C135.118 331.589 135.2 331.619 135.323 331.589C136.04 331.658 137.485 330.173 138.73 329.237C139.009 329.055 139.296 328.943 139.559 328.943C140.29 328.943 140.666 329.514 140.893 329.652L141.096 329.796L141.029 330.066C140.394 332.042 140.326 333.323 137.946 334.1L137.131 334.96C137.123 335.405 136.996 336.158 136.574 336.964C136.574 336.964 135.781 337.619 134.485 339.053C133.18 340.408 131.892 342.127 131.99 342.571L132.013 342.655C132.021 342.655 132.021 342.662 132.111 342.662C132.866 342.715 134.864 341.501 136.575 340.528L136.626 340.468H136.695C140.395 339.902 139.475 335.704 141.609 333.487L141.813 333.253L145.589 329.885C145.642 329.607 145.778 329.313 146.005 329.115C146.593 328.611 147.173 328.279 147.544 327.433C147.587 327.342 147.596 327.239 147.587 327.101C147.573 326.204 147.687 324.371 146.667 322.698L146.593 322.6L146.631 322.45C146.791 321.922 147.302 321.764 147.754 321.764L148.885 321.136C149.616 321.098 150.046 320.813 150.407 320.232C150.905 319.599 151.206 319.501 151.162 319.018C151.124 318.296 150.603 317.699 148.71 317.603H147.7C147.556 317.775 147.339 317.955 147.141 318.098C146.801 318.65 146.419 319.274 145.709 319.682L145.642 319.726H145.535C145.444 319.726 145.341 319.711 145.27 319.726C144.54 319.726 144.78 320.864 144.479 320.983C143.709 321.488 143.709 321.263 143.673 321.762C143.711 322.598 143.355 323.094 143.272 323.17L144.108 325.106C143.95 325.507 143.673 326.11 142.987 326.282C142.511 326.29 140.468 324.731 140.288 325.393C139.339 328.34 136.209 328.197 133.639 328.514C131.046 328.943 129.531 328.883 129.696 333.12C129.689 333.166 129.696 333.166 129.696 333.166H129.741C132.017 333.126 131.776 332.002 133.262 330.503Z" fill="white"/>
<path d="M206.455 271.348C206.575 271.462 206.62 271.522 206.733 271.589C206.927 271.627 206.927 271.627 206.99 271.627C206.99 271.627 207.019 271.618 207.05 271.627H207.17C207.17 271.627 207.177 271.627 207.192 271.618H207.268C207.607 271.52 207.419 271.513 207.478 271.46C207.509 271.407 207.509 271.346 207.598 271.121C207.606 270.91 207.636 270.636 207.682 270.359C207.749 269.816 208.872 268.459 208.872 268.059C208.872 268.007 208.932 268.007 208.774 267.871C208.714 267.803 208.126 267.268 207.998 267.268C207.506 267.328 206.664 267.538 206.315 267.803C205.863 268.188 205.847 269.756 205.823 269.771V269.816C205.823 269.816 205.764 269.974 205.711 270.132V270.177C205.749 270.478 206.194 270.878 206.223 270.976C206.319 271.123 206.386 271.295 206.455 271.348Z" fill="white"/>
<path d="M183.206 261.962C182.714 261.978 182.46 262.227 182.09 262.528C181.674 262.936 181.621 264.602 181.607 264.631C181.607 264.631 181.562 264.813 181.523 265.002V265.032C181.547 265.365 182.006 265.778 182.021 265.891C182.088 266.058 182.209 266.208 182.248 266.276C182.36 266.397 182.442 266.479 182.549 266.562C182.714 266.608 182.723 266.608 182.814 266.608H182.828H182.964H182.986H183.062C183.416 266.479 183.237 266.448 183.296 266.433C183.327 266.364 183.327 266.274 183.38 266.056C183.418 265.829 183.431 265.537 183.471 265.212C183.561 264.66 184.668 263.2 184.668 262.784C184.668 262.739 184.097 262.731 183.982 262.566C183.93 262.528 183.325 261.962 183.206 261.962Z" fill="white"/>
<path d="M225.347 274.797C225.445 275.409 225.424 276.948 225.529 277.345C225.56 277.398 225.529 277.398 225.656 277.541C225.701 277.601 226.81 278.053 226.908 278.053C227.231 277.919 227.344 277.654 227.503 277.314C227.714 276.803 227.344 275.129 227.344 275.129V275.091C227.344 275.091 227.344 274.91 227.322 274.716V274.678C227.229 274.362 226.249 274.001 226.189 273.894C226.122 273.767 226.008 273.585 225.957 273.54C225.843 273.442 225.774 273.396 225.692 273.358C225.572 273.335 225.549 273.335 225.518 273.335C225.487 273.358 225.487 273.358 225.473 273.358H225.382V273.366L225.338 273.389C225.104 273.54 225.231 273.509 225.202 273.578C225.202 273.647 225.219 273.745 225.219 273.972C225.278 274.195 225.34 274.496 225.347 274.797Z" fill="white"/>
<path d="M201.558 266.099C201.656 266.271 201.806 266.431 201.926 266.543C202.093 266.648 202.168 266.603 202.235 266.648H202.416H202.454H202.56H202.612C202.861 266.55 202.808 266.534 202.861 266.514C202.892 266.414 202.861 266.431 202.861 266.414C202.899 266.271 202.87 265.224 203.044 263.943C203.336 262.15 204.49 259.578 204.514 258.794C204.49 258.742 204.514 258.694 204.43 258.591C204.34 258.484 204.182 258.402 204.009 258.44C203.641 258.44 203.429 258.584 203.166 258.765C202.901 258.923 202.652 259.141 202.396 259.458C202.035 259.867 201.658 260.627 201.347 261.351C201.182 261.712 201.062 262.014 200.926 262.271C200.888 262.415 200.843 262.496 200.812 262.565C200.768 262.596 200.768 262.616 200.768 262.656C200.768 262.656 200.768 262.678 200.752 262.678H200.73C200.73 262.73 200.699 263.012 200.616 263.447C200.6 263.485 200.6 263.5 200.6 263.531C200.6 264.082 201.235 265.031 201.286 265.273C201.369 265.599 201.512 265.939 201.558 266.099Z" fill="white"/>
<path d="M190.235 267.324C190.333 267.217 190.785 266.698 190.792 266.646C190.823 266.569 190.912 265.642 190.995 264.566C191.041 263.541 190.718 260.479 190.725 260.231C190.725 260.013 190.515 259.588 190.166 259.862C189.79 260.118 189.172 261.452 189.112 261.55C189.081 261.679 188.961 262.185 188.908 262.499C188.863 262.833 188.674 263.842 188.631 264.15C188.571 264.399 188.043 265.831 187.611 266.729C187.183 267.609 184.822 269.428 185.085 269.729C185.304 270.054 186.232 270.224 186.76 269.977C187.326 269.729 189.406 268.192 189.671 267.974C189.903 267.745 190.166 267.475 190.235 267.324Z" fill="white"/>
<path d="M186.026 254.386C186.387 254.018 186.705 253.098 186.975 252.847C187.042 252.735 187.178 252.051 187.24 251.996C187.278 251.973 187.293 251.958 187.293 251.913C187.42 251.958 187.563 251.958 187.728 251.958H187.979C188.318 251.913 188.839 251.483 189.176 251.377C189.748 251.203 189.788 250.661 189.788 250.261C189.764 249.984 189.788 249.243 189.803 248.664C189.803 248.476 189.494 248.619 189.668 248.189C190.151 247.193 187.799 248.144 187.799 248.144C187.496 249.116 187.24 249.652 185.89 251.265C185.19 252.094 184.05 252.856 183.569 253.428C183.335 253.737 183.117 253.98 182.95 254.15C182.823 254.361 182.749 254.43 182.74 254.648C182.702 254.715 182.718 254.822 182.74 254.905C182.749 255.395 182.839 256.096 182.914 256.691C182.981 257.083 183.155 257.635 183.315 258.092C183.366 258.302 183.449 258.513 183.504 258.703C183.571 258.778 183.594 258.861 183.631 258.876C183.64 258.914 183.669 258.968 183.707 258.983C183.731 259.007 183.79 259.119 184.024 259.097C184.063 259.097 184.092 259.074 184.13 259.074L184.228 259.007C184.462 258.803 184.462 258.598 184.462 258.304V258.184C184.462 258.17 184.431 258.17 184.431 258.141C184.407 257.747 184.507 257.446 184.665 256.406C184.707 256.014 185.362 255.11 186.026 254.386Z" fill="white"/>
<path d="M193.759 273.83C193.819 273.498 194.354 272.63 194.461 272.518C194.485 272.374 194.763 272.487 194.988 272.699C195.207 272.924 195.472 272.826 195.485 272.441C195.537 272.095 195.989 270.677 196.156 270.233C196.36 269.757 197 268.333 196.624 267.685C196.283 267.059 196.02 265.952 196.056 265.605C196.109 265.264 196.51 264.324 196.51 264.301C196.517 264.262 196.585 264.217 196.624 264.193C196.624 264.193 197.024 263.869 197.445 263.448C197.889 263.086 197.739 261.27 197.612 260.591C197.461 259.936 197.777 257.577 197.868 257.072C197.967 256.552 198.857 255.12 198.728 254.766C198.615 254.405 198.149 254.358 197.614 254.699C197.078 255 195.472 256.771 195.312 257.526C195.171 258.272 194.605 259.018 194.71 259.078C194.777 259.094 195.095 260.533 195.171 260.593C195.269 260.684 195.269 260.827 195.171 260.925C195.095 261.032 194.657 260.45 194.227 261.068C193.819 261.664 193.474 263.691 193.549 264.183C193.594 264.665 194.046 266.489 194.175 267.01C194.302 267.514 194.988 269.83 194.817 270.523C194.607 271.255 192.004 272.318 191.937 272.371H191.823C191.785 272.371 191.716 272.32 191.656 272.32C191.612 272.32 191.371 272.371 191.24 272.403C191.082 272.494 190.578 273.2 190.456 273.503C190.358 273.811 189.995 274.753 189.914 275.109C189.785 275.434 189.137 276.534 188.934 276.798C188.934 276.798 187.048 282.602 188.934 281.395C189.46 281.034 190.698 279.504 190.75 279.473C190.781 279.473 190.81 279.45 190.856 279.45H190.908C190.908 279.45 191.082 279.397 191.278 279.359C191.467 279.299 191.754 278.506 191.881 278.176C192.099 277.844 192.536 276.524 192.65 276.073C192.801 275.652 193.637 274.183 193.759 273.83Z" fill="white"/>
<path d="M201.967 294.142C202.555 293.855 202.397 293.145 202.903 292.438C203.363 291.721 205.714 292.256 205.731 292.303C205.745 292.303 206.544 291.436 206.899 290.752C207.301 290.073 208.173 287.628 208.694 286.649C209.244 285.638 209.311 285.028 209.19 284.915C208.912 284.487 208.46 284.645 208.27 284.932C208.075 285.24 206.929 287.532 206.573 287.91C206.295 288.278 205.127 289.499 204.914 289.71C204.651 289.922 204.515 289.81 204.562 289.499C204.577 289.175 204.833 288.242 205.119 287.413C205.482 286.607 206.644 284.489 207.028 283.945C207.36 283.462 207.585 281.549 207.531 281.164C207.516 280.772 207.359 277.589 207.397 277.348C207.464 277.083 207.397 276.174 207.614 276.067C207.774 275.976 208.068 275.555 208.068 275.555C208.068 275.555 208.27 275.359 208.293 275.359C208.293 275.359 208.346 275.345 208.346 275.316C208.346 275.316 208.293 275.216 208.226 275.036C208.135 274.916 207.796 274.621 207.517 274.811C207.268 275.005 206.553 276.259 206.326 276.795C206.145 277.352 205.64 278.882 205.482 279.531C205.293 280.134 204.773 282.034 204.644 282.516C204.531 283.014 204.049 283.948 204.01 284.001C204.01 284.039 203.98 284.039 203.965 284.046C203.898 284.097 203.522 284.491 203.092 284.883C202.655 285.351 201.426 286.451 201.005 286.826C200.537 287.256 198.864 287.422 198.684 287.422C198.525 287.422 198.096 287.347 197.898 287.271C197.664 287.256 198.042 286.315 199.045 285.318C200.341 283.999 200.824 282.613 200.809 282.484C200.771 282.295 200.826 281.497 200.847 281.028C200.9 280.629 201.49 279.288 201.55 279.068C201.573 278.782 201.573 278.065 201.557 277.831C201.55 277.589 201.256 277.085 201.218 277.063C201.218 276.987 201.165 276.927 201.179 276.844C201.179 276.836 201.292 276.499 201.404 276.114C201.555 275.751 202.566 275.103 202.769 274.8C202.958 274.448 202.655 273.241 202.655 273.211C202.655 273.151 202.588 272.976 202.55 272.933C202.526 272.895 202.526 272.759 202.55 272.75C202.564 272.69 202.7 272.147 202.903 271.521C203.061 270.955 203.197 269.365 203.197 269.296C203.197 269.222 202.419 268.904 201.938 269.697C201.53 270.481 200.198 272.759 200.279 272.826C200.454 272.864 200.807 273.091 200.922 273.127C201.02 273.211 200.922 273.497 200.74 273.76C200.513 274.04 200.152 274.68 199.851 275.216C199.586 275.72 199.39 277.379 199.39 277.441V277.842C199.399 278 199.27 278.083 199.172 278.083C199.029 278.083 199.172 278.642 198.668 278.829C198.171 279.01 198.381 280.602 198.2 281.174C198.042 281.8 197.265 282.937 197.265 283.133C197.265 283.329 197.325 283.76 197.34 283.819C197.363 283.926 197.325 284.037 197.265 284.097L195.479 285.915C195.479 285.915 194.017 287.589 194.492 288.04C194.935 288.432 196.813 288.599 197.076 288.683C197.327 288.781 196.369 289.572 194.951 290.432C193.51 291.305 192.532 292.292 192.667 292.323C192.81 292.361 193.623 293.009 193.955 292.949C194.28 292.911 195.432 292.332 195.674 292.263C195.915 292.232 196.677 291.403 197.075 291.089C197.528 290.81 199.111 289.316 199.602 288.864C200.107 288.389 201.744 287.952 201.818 287.99C201.916 287.99 202.256 288.073 202.421 288.104C202.588 288.142 202.655 288.324 202.588 288.436C202.504 288.603 201.254 290.253 199.768 292.071C198.305 293.911 196.723 296.359 196.723 296.426C196.723 296.457 196.135 297.392 196.247 297.452C196.601 297.784 197 297.452 197.399 297.428C197.844 297.39 199.172 295.965 199.768 296.04C200.377 296.032 201.403 294.45 201.967 294.142Z" fill="white"/>
<path d="M228.175 281.469C228.061 280.821 226.691 281.024 226.636 281.354C226.605 281.498 226.388 282.303 226.388 282.343C226.355 282.441 226.426 284.115 226.388 284.514C226.328 284.989 226.448 286.842 226.288 287.504C226.154 288.183 225.399 290.354 225.248 290.798C225.143 291.001 225.074 291.259 224.669 291.303C224.261 291.259 224.208 290.971 224.125 290.746C224.027 290.315 223.892 289.522 223.756 288.967C223.718 288.709 223.711 288.181 223.711 287.633C223.711 286.795 223.72 285.757 223.811 285.153C223.938 284.211 224.029 281.723 224.029 281.383V281.324C224.029 281.129 223.802 280.066 223.591 279.463C223.457 279.033 222.499 277.081 222.326 276.892C222.326 276.892 222.04 274.457 221.934 274.239C221.791 274.036 220.902 273.754 220.833 274.382C220.909 275.279 221.067 277.344 221.167 278.059C221.294 278.905 221.657 281.383 221.693 281.957C221.753 282.469 221.807 283.614 221.829 283.804V283.835H221.806L221.829 283.873C221.806 283.993 221.776 284.242 221.776 284.311C221.776 284.354 221.753 284.394 221.753 284.476H221.722C221.691 284.492 221.691 284.507 221.691 284.552C221.691 284.65 221.66 284.748 221.61 284.884C221.495 285.154 221.399 285.539 221.306 285.971C221.065 286.799 220.085 287.704 219.807 288.586C219.303 289.74 217.011 291.005 216.59 291.187L215.948 291.925C215.608 291.872 216.144 290.962 216.144 290.878C216.144 290.802 216.392 290.123 216.436 289.996C216.543 289.869 216.528 290.426 216.933 288.684C217.287 286.982 216.211 285.842 216.211 284.733C216.211 284.242 216.194 283.88 216.12 283.723C215.85 282.953 215.802 279.99 215.608 279.291C215.508 278.823 215.412 277.669 215.274 277.573C215.224 277.489 215.109 277.436 215.086 277.279C215.071 277.211 215.033 277.014 214.98 276.81C214.98 276.66 214.971 276.486 214.971 276.177C214.971 275.8 214.98 275.304 215.031 274.939C215.055 274.638 215.055 273.99 215.055 273.371C215.055 272.979 215.055 272.551 215.031 272.437C215.031 272.263 214.828 271.818 214.737 271.758C214.655 271.653 214.625 271.577 214.603 271.426C214.603 271.426 214.489 270.62 214.369 269.724C214.338 269.43 214.225 268.969 214.104 268.57C213.683 268.223 213.147 268.57 213.124 268.811C213.04 269.767 212.024 271.758 211.752 272.52H211.79H211.89C212.024 272.58 212.146 272.626 212.273 272.647C212.507 272.693 212.559 272.889 212.607 272.979C212.621 273.099 212.657 273.214 212.657 273.333C212.657 273.484 212.619 273.591 212.607 273.754C212.561 274.117 212.454 274.653 212.403 274.925V275.362C212.403 275.852 212.418 276.531 212.478 276.921C212.561 277.442 213.097 279.228 213.126 279.289C213.142 279.349 213.149 279.44 213.149 279.463C213.142 279.681 212.99 282.826 212.99 284.084C212.99 284.672 213.028 285.26 213.097 285.592C213.314 286.753 213.18 288.524 213.247 288.646C213.314 288.744 213.314 288.827 213.314 288.924C213.314 288.947 213.314 289.043 213.264 289.105C213.18 289.189 213.18 289.189 213.149 289.248C213.142 289.292 213.082 289.355 213.013 289.399C212.87 289.557 212.728 289.74 212.494 289.987C212.079 290.424 212.291 291.101 211.679 291.78C210.558 292.941 207.963 297.85 207.963 299.77C207.963 299.787 207.654 301.414 207.654 300.879C207.738 302.16 208.484 303.606 208.484 304.693C208.484 304.655 209.583 305.688 209.607 304.423C209.607 303.503 209.44 302.447 209.952 300.881C210.992 297.774 212.794 294.509 216.254 294.141C216.458 294.034 216.474 294.012 216.663 293.952H216.761C217.04 293.976 217.102 294.172 217.102 294.262C217.154 294.353 217.154 294.457 217.154 294.511C217.154 295.371 216.309 297.64 215.661 300.338C215.104 302.774 214.705 303.988 214.478 304.984C214.577 304.924 215.037 305.753 215.106 305.713C216.59 306.091 216.869 304.274 217.042 304.055C217.042 304.055 217.102 304.017 217.102 303.988C217.154 303.913 217.176 303.806 217.222 303.655C217.305 303.459 217.41 303.075 217.508 302.659C217.697 301.853 217.907 300.768 217.96 299.705C218.111 297.487 218.887 293.395 219.181 292.468C219.439 291.624 220.53 290.818 221.165 290.381C221.399 290.237 221.497 290.17 221.669 290.123C221.691 290.101 221.775 290.092 221.827 290.092C222.159 290.092 222.393 290.357 222.393 290.62V290.689C222.393 290.991 223.321 295.166 223.932 299.939V300.059C223.932 300.059 223.548 303.037 223.548 306.437C223.548 306.791 223.555 307.138 223.608 307.499C223.758 310.591 223.005 314.105 224.029 314.308C224.143 314.224 224.549 314.42 224.564 314.065C224.881 313.816 225.658 311.903 225.596 310.84V310.591C225.566 310.439 225.544 310.326 225.544 310.198C225.567 308.976 226.29 307.401 226.29 306.791C226.306 305.922 226.66 304.922 226.66 304.597C226.691 304.204 226.691 303.783 226.691 303.518V303.352C226.691 303.171 227.195 300.155 227.097 299.153C227.006 298.159 226.471 296.598 226.464 295.694H225.988C226.027 294.684 226.464 293.457 226.569 293.175V293.108C226.569 292.769 227.195 291.72 227.195 291.261C227.226 290.666 227.948 287.439 228.213 285.465C228.424 284.031 228.025 283.873 228.094 283.302C228.094 283.302 228.486 282.345 228.471 282.345L228.175 281.469Z" fill="white"/>
<path d="M241.886 291.901C241.947 291.81 241.563 289.95 241.797 288.72C241.998 287.491 241.84 284.544 241.45 283.994C241.029 283.49 242.06 282.976 242.045 282.931C241.918 282.871 241.886 282.742 241.918 282.622C241.956 282.539 241.615 281.384 241.722 280.769C241.746 280.141 241.67 279.909 241.655 279.615C241.617 279.35 241.699 279.336 241.617 278.967C241.526 278.546 241.655 278.463 241.746 278.212C241.92 277.889 241.964 277.617 242.002 277.617C242.062 277.617 242.243 277.202 242.494 276.781C242.546 276.653 242.192 274.331 242.063 273.147C241.965 271.964 241.279 271.971 241.279 271.897C241.279 271.821 240.632 272.017 240.534 274.385C240.496 275.305 240.283 276.517 240.283 276.555C240.283 276.586 240.245 276.653 240.232 276.713C240.18 276.744 239.9 276.804 239.886 277.172C239.795 277.891 239.886 279.125 239.902 279.261C239.94 279.856 239.94 280.867 239.902 281.078C239.886 281.272 239.833 280.657 239.833 280.693C239.81 280.753 239.742 280.791 239.713 280.844C239.683 280.867 239.599 281.41 239.457 282.11C239.291 282.796 238.552 285.344 238.303 286.105C238.024 286.859 238.287 289.398 238.793 291.805C239.352 294.173 239.396 294.821 238.953 295.002C238.305 295.341 236.458 293.478 236.147 292.574C235.853 291.707 234.632 289.785 234.398 288.955C234.157 288.133 233.963 287.417 233.963 287.409C233.963 287.402 233.939 287.366 233.93 287.342C233.93 287.326 233.901 287.063 233.901 286.934C233.901 286.805 233.961 285.607 234.028 285.05C234.102 284.499 234.436 282.003 234.563 281.159C234.668 280.299 234.864 279.08 234.932 278.385C234.97 277.715 234.888 275.581 234.69 275.098C234.563 274.594 234.269 274.637 234.238 274.697C232.611 274.637 233.213 277.169 233.07 277.486C232.843 277.788 233.627 279.334 233.491 279.53C233.364 279.771 233.347 280.328 233.309 280.403C233.257 280.472 233.24 280.562 233.24 280.606C233.24 280.651 233.209 280.733 233.173 280.749C233.142 280.766 231.674 281.849 231.493 282.475C231.297 283.123 231.017 284.21 231.017 284.42C231.017 284.638 231.13 287.255 231.242 288.271C231.369 289.275 232.019 291.431 231.959 291.966C231.861 292.516 231.674 293.3 231.591 293.743C231.545 293.788 231.545 293.85 231.545 293.85C231.545 293.85 231.01 296.512 230.959 299.533C230.943 300.831 232.15 301.034 232.355 302.339C232.747 304.94 233.846 309.447 234.238 310.21C234.676 310.979 234.841 311.46 235.008 311.46C235.166 311.444 235.61 311.912 235.814 312.364C236.363 313.48 236.643 313.451 237.155 313.812C237.637 314.113 237.637 313.276 237.646 313.178C237.69 313.064 235.61 306.974 234.797 302.383C234.012 297.8 234.42 295.184 234.42 294.997C234.413 294.853 234.503 294.349 234.678 294.401C234.843 294.452 236.298 294.741 236.607 295.614C236.848 296.512 237.979 300.613 238.521 302.784C239.049 304.94 238.875 306.018 239.064 306.192C239.267 306.386 240.662 307.654 241.1 307.901C241.528 308.128 241.953 308.346 241.967 308.346C241.998 308.346 242.209 306.733 241.033 303.348C239.81 300.031 239.568 296.902 239.833 296.835C240.88 296.525 243.769 299.254 245.321 302.638C246.843 306.007 247.448 307.359 247.68 307.086C248.292 306.4 247.41 304.869 247.094 302.925C246.793 300.973 244.642 297.225 243.392 295.884C242.118 294.534 241.922 292.151 241.891 292.099C241.866 292.051 241.866 291.941 241.886 291.901Z" fill="white"/>
<path d="M246.914 288.149C246.914 288.149 247.358 288.058 247.298 287.884C247.033 287.002 247.87 287.325 247.977 287.325C248.044 287.325 248.226 287.402 248.271 287.461C248.293 287.536 249.884 290 250.984 291.412C251.888 292.55 252.258 292.686 252.392 292.586C252.543 292.519 251.489 290.973 251.623 289.909C251.812 288.891 250.893 287.799 250.583 287.685C250.291 287.543 248.723 285.988 248.518 285.213C248.315 284.422 247.402 280.774 246.986 279.801C246.534 278.769 247.153 278.203 247.07 278.119C246.986 278.059 246.972 277.894 247.055 277.834C247.13 277.751 246.874 277.23 246.926 277.17C246.986 277.103 247.153 275.695 247.093 274.985C247.093 274.254 246.836 274.065 246.739 274.163C246.649 274.314 245.391 277.729 244.787 279.17C244.192 280.594 245.104 285.275 245.917 286.52C246.694 287.712 246.876 288.149 246.914 288.149Z" fill="white"/>
<path d="M156.162 329.68C156.63 328.519 156.432 328.724 157.67 328.279L158.543 328.181C158.8 328.112 159.508 327.916 159.704 327.773C160.332 327.336 160.641 326.289 160.662 325.617C158.084 324.63 155.588 325.045 153.803 327.065C153.93 328.399 154.362 329.439 156.162 329.68Z" fill="white"/>
<path d="M192.714 254.777C192.895 254.626 193.376 254.21 193.445 254.016C193.784 253.519 193.626 252.666 193.4 252.23C191.071 252.615 189.284 253.92 188.65 255.969C189.231 256.814 189.984 257.303 191.447 256.747C191.349 255.775 191.305 256.016 192.089 255.208L192.714 254.777Z" fill="white"/>
<path d="M160.949 332.943L161.515 333.132C161.766 333.177 162 333.252 162.247 333.32C163.453 333.502 163.37 333.161 164.725 332.769C164.725 332.769 164.199 332.46 164.651 331.82C165.012 331.284 165.201 330.93 165.631 330.44L165.201 330.304C164.17 329.965 163.453 329.965 162.239 330.713C161.704 331.547 160.038 332.241 160.949 332.943Z" fill="white"/>
<path d="M247.493 291.506C247.176 291.422 247.704 293.751 247.379 293.676C248.139 295.108 248.856 296.874 251.048 296.631C250.747 294.988 249.045 293.918 248.137 292.288L247.493 291.506Z" fill="white"/>
<path d="M253.689 194.229C251.669 195.941 249.136 199.303 246.363 199.822C244.846 200.087 240.634 199.664 240.352 198.842C240.104 198.073 245.23 194.418 246.363 193.837C247.628 193.151 248.738 193.091 250.441 192.487C251.33 192.148 253.524 190.861 254.059 190.928C255.061 191.072 255.565 191.698 255.228 192.872C255.046 193.536 254.42 193.598 253.689 194.229Z" fill="white"/>
</g>
</svg>
