<svg width="360" height="360" viewBox="0 0 360 360" fill="none" xmlns="http://www.w3.org/2000/svg">
<rect width="360" height="360" rx="82" fill="#002D73"/>
<path d="M199.727 198.369C199.727 288.621 199.727 298.601 211.944 301.182V306C203.598 305.656 192.155 305.656 180.368 305.656C166 305.656 154.558 305.656 148.535 306V300.838C160.494 298.601 160.494 288.621 160.494 198.971V155.179C160.494 71.3793 160.494 61.055 149.051 59.1622V54C154.816 54 166.775 54.3441 179.766 54.3441C191.467 54.3441 203.254 54 210.567 54V59.1622C199.641 61.055 199.641 71.1212 199.641 155.179V198.369H199.727Z" fill="#CEA052"/>
<path d="M131.3 212.393V197.509H152.551V160.686H134.311H131.214V148.726C131.214 82.4786 131.214 72.2403 143.517 71.0358V66.6479C136.806 66.6479 123.643 66.9061 109.619 66.9061C95.8532 66.9061 80.9689 66.6479 74.6023 66.6479V71.0358C87.4216 72.2403 87.4216 82.3926 87.4216 158.363V197.509C87.4216 279.243 87.4216 289.482 74 290.686V295.074C80.7108 295.074 95.337 294.816 109.017 294.816C122.782 294.816 136.72 295.074 144.636 295.074V290.686C131.3 289.568 131.3 279.329 131.3 212.393Z" fill="white"/>
<path d="M272.57 197.509V158.363C272.57 82.4786 272.57 72.2403 284.271 71.0358V66.6479C277.819 66.6479 264.397 66.9061 251.233 66.9061C238.07 66.9061 223.53 66.6479 216.819 66.6479V71.0358C228.778 72.2403 228.778 82.3926 228.778 148.382V160.686H207.871V197.509H228.778V212.393C228.778 279.243 228.778 289.482 215.012 290.686V295.074C223.444 295.074 238.328 294.816 252.094 294.816C265.257 294.816 279.281 295.074 286.508 295.074V290.686C272.57 289.568 272.57 279.329 272.57 197.509Z" fill="white"/>
</svg>
