<svg width="360" height="360" viewBox="0 0 360 360" fill="none" xmlns="http://www.w3.org/2000/svg">
<rect width="360" height="360" rx="82" fill="#003960"/>
<path fill-rule="evenodd" clip-rule="evenodd" d="M232.969 209.045C232.969 215.961 231.208 224.009 226.115 231.129H240.514V120.094H194.537V165.442C219.372 173.144 232.969 189.082 232.969 209.045Z" fill="white"/>
<path d="M153.562 161.479C163.92 161.479 173.587 163.916 180.959 165.865C165.335 163.114 141.081 167.091 128.554 176.962V231.113H174.53V169.512C184.464 171.319 191.978 175.343 196.583 178.456V231.113H206.58C197.18 241.723 179.592 248.183 164.439 245.809V248.026C164.439 248.026 164.424 248.026 164.439 248.026C208.137 251.484 226.637 230.751 226.637 207.425C226.637 179.964 200.89 163.9 174.53 160.631V120.093H128.554V161.087C98.7986 167.06 69.6717 184.743 69.6717 214.042C69.6717 259.139 132.672 287.071 187.53 287.071C270.853 287.071 335 246.815 335 190.26C335 121.822 242.402 73 169.673 73C86.349 73 25 125.94 25 182.495C25 211.763 41.4414 236.3 62.1741 253.402L63.7302 252.364C47.3201 238.72 32.5139 217.469 32.5139 188.248C36.8522 126.364 113.118 91.5165 180.991 91.5165C228.995 91.5165 315.243 102.598 315.243 182.873C315.243 224.731 270.492 279.18 176.527 279.18C128.412 279.18 91.0495 253.401 91.0495 216.368C91.0495 184.271 116.168 161.479 153.562 161.479Z" fill="white"/>
</svg>
