<svg width="360" height="360" viewBox="0 0 360 360" fill="none" xmlns="http://www.w3.org/2000/svg">
<rect width="360" height="360" rx="82" fill="#FF6600"/>
<path d="M181.36 66C208.225 86.8278 244.749 95.7626 279.372 98.4793V126.823C272.037 126.431 266.06 134.128 266.06 138.807H328V219.22H270.588C271.946 226.676 281.877 229.966 289.031 229.574C250.877 263.472 208.738 293.053 181.541 294.23C156.729 293.415 114.802 266.369 73.2972 229.996C90.5028 230.268 92.0423 219.25 92.0423 219.25H33V138.867H94.7589C94.4571 133.011 89.0539 127.517 82.6245 126.884V98.5397C119.45 96.7889 151.235 87.9748 181.36 66Z" fill="white"/>
</svg>
