<svg width="360" height="360" viewBox="0 0 360 360" fill="none" xmlns="http://www.w3.org/2000/svg">
<rect width="360" height="360" rx="82" fill="#131F6B"/>
<path d="M30 221.678H43.793V138H30V221.678ZM54.8274 221.678H69.54V138H54.8274V221.678ZM80.5744 221.678H96.2065V138H80.5744V221.678ZM105.402 221.678H122.873V138H105.402V221.678ZM131.149 221.678H149.54V138H131.149V221.678ZM155.976 221.678H175.286V138H155.976V221.678ZM181.723 221.678H202.873V138H181.723V221.678ZM207.47 221.678H228.619V138H207.47V221.678ZM232.298 221.678H254.366V138H232.298V221.678ZM330 138V221.678H281.401H258.045V138H281.401H330Z" fill="white"/>
</svg>
