<svg width="360" height="360" viewBox="0 0 360 360" fill="none" xmlns="http://www.w3.org/2000/svg">
<rect width="360" height="360" rx="82" fill="#DE1E34"/>
<path fill-rule="evenodd" clip-rule="evenodd" d="M305.905 194.912H317.682V153H305.905V194.912Z" fill="white"/>
<path fill-rule="evenodd" clip-rule="evenodd" d="M335.001 153V194.912H323.226V153H335.001Z" fill="white"/>
<path fill-rule="evenodd" clip-rule="evenodd" d="M50.1107 169.279H40.586V153H25V194.912H40.586V174.13H50.1107V194.912H65.6983V153H50.1107V169.279Z" fill="white"/>
<path fill-rule="evenodd" clip-rule="evenodd" d="M123.283 168.586L122.329 165.816H109.514V194.912H122.329V177.42C122.329 173.609 124.755 171.531 126.833 171.531C128.564 171.531 130.815 171.877 130.815 175.688V194.912H143.631V176.035C143.631 165.47 131.77 161.314 123.283 168.586Z" fill="white"/>
<path fill-rule="evenodd" clip-rule="evenodd" d="M254.903 182.701L248.928 165.816H240.182L234.206 183.394L227.972 165.816H215.763H215.675H210.827L204.678 180.622L196.019 165.816H181.385L198.617 195.258L196.366 200.799C195.586 202.532 193.72 202.618 193.355 200.972C193.355 197.996 190.942 195.585 187.966 195.585C184.99 195.585 182.577 197.996 182.577 200.972C182.598 204.09 185.715 208.16 191.862 207.899C198.012 207.64 200.608 202.532 201.474 200.367L215.716 165.929L225.981 194.912H235.333L241.048 178.198L246.936 194.912H255.768L265.726 165.816H260.618L254.903 182.701Z" fill="white"/>
<path fill-rule="evenodd" clip-rule="evenodd" d="M87.7786 164.337C77.9726 164.337 70.0244 171.628 70.0244 180.622C70.0244 189.619 77.9726 196.911 87.7786 196.911C97.5864 196.911 105.536 189.619 105.536 180.622C105.536 171.628 97.5864 164.337 87.7786 164.337ZM92.1963 188.242C92.1963 190.682 90.2188 192.659 87.7786 192.659C85.3418 192.659 83.3643 190.682 83.3643 188.242V173.004C83.3643 170.565 85.3418 168.59 87.7786 168.59C90.2188 168.59 92.1963 170.565 92.1963 173.004V188.242Z" fill="white"/>
<path fill-rule="evenodd" clip-rule="evenodd" d="M182.807 182.96C182.901 182.279 182.949 181.328 182.949 180.622C182.949 171.628 174.999 164.337 165.193 164.337C155.386 164.337 147.436 171.628 147.436 180.622C147.436 189.619 155.386 196.911 165.193 196.911C171.931 196.911 177.792 193.467 180.802 188.394L176.88 186.943C174.509 190.565 170.163 192.991 165.193 192.991C162.753 192.991 160.776 190.682 160.776 188.242V182.962L182.807 182.96ZM160.776 173.004C160.776 170.565 162.753 168.59 165.193 168.59C167.632 168.59 169.609 170.565 169.609 173.004V178.805H160.776V173.004Z" fill="white"/>
<path fill-rule="evenodd" clip-rule="evenodd" d="M301.438 182.96C301.533 182.279 301.582 181.328 301.582 180.622C301.582 171.628 293.632 164.337 283.824 164.337C274.018 164.337 266.068 171.628 266.068 180.622C266.068 189.619 274.018 196.911 283.824 196.911C290.564 196.911 296.425 193.467 299.434 188.394L295.512 186.943C293.142 190.565 288.795 192.991 283.824 192.991C281.386 192.991 279.408 190.682 279.408 188.242V182.962L301.438 182.96ZM279.408 173.004C279.408 170.565 281.386 168.59 283.824 168.59C286.265 168.59 288.242 170.565 288.242 173.004V178.805H279.408V173.004Z" fill="white"/>
</svg>
