<svg width="360" height="360" viewBox="0 0 360 360" fill="none" xmlns="http://www.w3.org/2000/svg">
<rect width="360" height="360" rx="82" fill="#4987CE"/>
<rect x="25" y="25" width="310" height="310" rx="155" fill="white"/>
<path d="M180 335.001C178.459 335.001 176.925 334.973 175.394 334.928L207.07 247.871H250.664C258.316 247.871 266.715 241.989 269.332 234.803L303.699 140.406C309.322 124.951 300.469 112.307 284.024 112.307H223.546L172.802 251.747H172.783L144.016 330.792C75.7654 314.567 25 253.215 25 180.001C25 108.897 72.8785 48.9827 138.152 30.7221L108.469 112.307H108.46L59.1136 247.871L91.9636 247.874L133.929 132.678H158.617L116.652 247.874L149.489 247.88L188.597 140.406C194.223 124.951 185.37 112.307 168.94 112.307H141.326L173.034 25.1629C175.345 25.0603 177.665 25 180 25C265.604 25 335 94.3955 335 180.001C335 265.604 265.604 335.001 180 335.001ZM273.784 132.596H249.102L214.538 227.431H239.22L273.784 132.596Z" fill="#4987CE"/>
</svg>
