<svg width="360" height="360" viewBox="0 0 360 360" fill="none" xmlns="http://www.w3.org/2000/svg">
<rect width="360" height="360" rx="82" fill="#CC2229"/>
<path fill-rule="evenodd" clip-rule="evenodd" d="M62.8865 278.445C102.069 240.653 139.872 201.459 155.269 163.678C160.854 149.683 163.658 132.884 160.854 113.292C155.269 82.4979 141.274 79.6943 132.863 81.0961C128.658 81.0961 118.868 86.7032 117.466 97.8951C111.882 88.0938 96.4844 81.0961 85.2701 92.2879C85.2701 92.2879 74.0783 100.687 79.6854 118.888C67.0918 114.683 54.4982 123.094 51.6946 134.285C48.8911 146.879 54.4982 158.082 69.8954 160.874C88.0737 165.08 111.882 188.865 89.4755 235.057C83.8908 247.661 62.8865 270.056 60.0829 272.849C58.6811 275.652 60.0829 279.846 62.8865 278.445Z" fill="white"/>
<path fill-rule="evenodd" clip-rule="evenodd" d="M222.442 47.5098C222.442 47.5098 204.241 47.5098 202.839 68.5029C202.839 68.5029 186.04 53.1057 172.045 67.1011C167.862 71.3064 169.264 76.9023 170.666 82.4982C170.666 82.4982 201.437 131.482 163.657 187.464V188.865C158.049 195.863 158.05 198.667 166.46 191.669L180.456 180.466C251.834 123.083 285.41 114.683 285.41 114.683C289.615 113.281 292.419 111.88 295.222 109.087C298.026 103.48 293.821 97.8841 289.615 95.0806C289.615 95.0806 284.03 90.8864 274.218 92.277C274.218 92.277 286.812 76.8799 272.816 64.2863C272.816 64.2863 258.821 54.4851 244.825 65.6881C244.825 65.7105 240.643 47.5098 222.442 47.5098ZM146.858 233.666C153.867 229.461 159.451 225.267 166.46 222.463C219.638 195.863 242.022 218.258 242.022 218.258C260.223 229.45 254.638 249.052 254.638 249.052C271.414 253.258 282.629 244.847 286.812 237.849C291.017 228.048 289.615 219.66 289.615 219.66C314.802 222.463 320.41 201.459 320.41 201.459C324.615 180.466 305.012 173.468 305.012 173.468C330.2 160.875 321.811 138.48 305.012 137.078C289.615 135.676 274.218 142.674 261.624 149.672C240.643 159.473 183.259 200.057 144.054 230.852C139.871 235.057 141.273 237.86 146.858 233.666Z" fill="white"/>
</svg>
