<svg width="360" height="360" viewBox="0 0 360 360" fill="none" xmlns="http://www.w3.org/2000/svg">
<rect width="360" height="360" rx="82" fill="#3E000F"/>
<path d="M123.102 301.465C118.718 299.125 115.552 295.856 112.674 290.702C110.07 286.037 110.012 285.725 110 276.396C109.991 268.782 110.302 266.057 111.547 262.885C115.508 252.787 119.866 246.978 135.421 231.067C140.666 225.701 147.098 218.928 149.715 216.016C160.887 203.577 169.31 188.143 171.981 175.216C172.414 173.119 172.865 172.637 174.209 172.832C175.328 172.994 176.092 173.879 176.481 175.461C179.039 185.865 182.914 194.562 189.098 203.781C194.1 211.239 198.317 216.065 213.326 231.515C227.335 245.935 232.982 253.32 236.538 261.871C238.344 266.215 238.62 268.037 238.675 275.999C238.736 284.797 238.643 285.32 236.191 290.014C234.79 292.695 232.16 296.159 230.346 297.712C223.795 303.319 226.958 303.024 173.847 302.985C128.567 302.953 125.728 302.866 123.102 301.465Z" fill="white"/>
<path d="M173.741 161.305C173.455 161.2 172.95 160.877 172.617 160.587C172.066 160.107 172.012 159.136 172.012 149.709C172.012 139.881 172.047 139.313 172.703 138.479C173.164 137.893 173.398 137.066 173.403 136.004C173.415 133.813 173.982 131.474 174.763 130.396C175.122 129.901 175.591 128.842 175.806 128.044C176.021 127.245 176.465 126.325 176.791 125.998C177.118 125.671 177.816 124.668 178.343 123.769C178.871 122.87 179.432 122.134 179.591 122.134C179.75 122.134 180.075 121.663 180.314 121.087C180.552 120.512 181.193 119.723 181.739 119.335C182.284 118.947 182.73 118.41 182.73 118.143C182.73 117.875 183.174 117.427 183.716 117.147C184.258 116.866 184.962 116.24 185.28 115.755C185.598 115.27 186.095 114.873 186.385 114.873C186.675 114.873 187.258 114.5 187.68 114.045C188.102 113.589 189.095 112.879 189.887 112.466C190.679 112.053 191.505 111.501 191.723 111.239C191.941 110.976 192.924 110.497 193.908 110.173C194.891 109.85 196.113 109.238 196.622 108.814C197.132 108.39 198.083 107.943 198.736 107.821C199.389 107.698 200.197 107.296 200.531 106.927C201.197 106.191 202.501 105.71 204.788 105.355C205.605 105.229 206.927 104.766 207.727 104.327C208.806 103.735 210.148 103.437 212.93 103.174C215.368 102.944 216.881 102.637 217.257 102.297C217.922 101.695 220.39 101.063 222.124 101.051C222.777 101.046 223.944 100.745 224.717 100.382C226.27 99.6528 226.944 99.5258 233.181 98.789C235.585 98.505 237.714 98.0757 238.021 97.813C238.9 97.0625 239.727 96.8711 243.539 96.5361C245.517 96.3624 247.464 96.0085 247.866 95.7496C249.093 94.9602 250.897 94.4475 253.5 94.1484C255.133 93.9607 256.342 93.607 257.034 93.1145C257.731 92.618 259.148 92.207 261.238 91.8947C263.437 91.5663 264.617 91.2137 265.138 90.73C265.549 90.3484 266.779 89.873 267.871 89.6735C268.963 89.4742 270.294 88.9873 270.829 88.5919C271.364 88.1965 272.726 87.6324 273.857 87.3382C274.987 87.044 276.185 86.5121 276.519 86.1562C276.852 85.8003 277.926 85.2714 278.904 84.9808C279.883 84.6903 280.892 84.1547 281.147 83.7906C281.402 83.4265 282.392 82.9284 283.347 82.6837C284.445 82.402 285.274 81.9458 285.605 81.4406C285.893 81.0016 286.353 80.6426 286.627 80.6426C286.901 80.6426 287.637 80.1973 288.261 79.6532C288.886 79.1091 289.898 78.4072 290.511 78.0934C291.124 77.7796 292.199 77.1336 292.9 76.6581C294.096 75.8462 294.213 75.8286 294.811 76.3698C295.413 76.915 295.448 77.8706 295.448 93.9542C295.448 110.523 295.429 110.978 294.756 111.588C294.376 111.932 294.065 112.423 294.065 112.679C294.065 113.406 291.506 115.783 290.432 116.052C289.901 116.186 289.167 116.675 288.801 117.14C288.436 117.604 287.936 117.985 287.691 117.985C287.445 117.985 286.658 118.451 285.94 119.021C285.223 119.591 284.053 120.215 283.34 120.407C282.627 120.599 281.831 121.012 281.571 121.325C280.973 122.047 279.444 122.679 277.537 122.993C276.703 123.13 275.698 123.589 275.25 124.038C274.682 124.605 273.857 124.91 272.415 125.084C271.296 125.218 269.602 125.691 268.651 126.133C267.701 126.576 265.893 127.101 264.634 127.301C263.375 127.501 261.664 127.962 260.831 128.325C259.998 128.688 257.838 129.168 256.031 129.393C252.307 129.855 251.118 130.117 248.425 131.066C247.071 131.542 245.078 131.805 241.509 131.975C237.788 132.153 236.346 132.35 235.916 132.737C235.006 133.557 233.085 133.888 227.617 134.169C223.558 134.378 222.41 134.549 221.885 135.024C221.523 135.351 220.724 135.618 220.109 135.618C219.493 135.618 218.717 135.764 218.383 135.943C218.05 136.121 216.076 136.446 213.998 136.666C211.919 136.885 209.769 137.305 209.219 137.599C208.67 137.894 206.976 138.35 205.455 138.614C203.563 138.943 202.384 139.351 201.724 139.907C201.189 140.356 200.043 140.826 199.153 140.959C198.25 141.095 197.233 141.515 196.828 141.92C196.432 142.316 195.335 142.934 194.39 143.293C193.446 143.652 192.171 144.328 191.559 144.796C190.946 145.263 190.27 145.645 190.057 145.645C189.843 145.645 189.124 146.19 188.458 146.855C187.793 147.521 187.091 148.066 186.9 148.066C186.708 148.066 186.316 148.521 186.028 149.078C185.74 149.635 185.215 150.183 184.861 150.295C184.508 150.407 184.041 150.888 183.824 151.364C183.608 151.839 183.039 152.377 182.562 152.559C182.084 152.74 181.693 153.122 181.693 153.406C181.693 153.69 181.226 154.268 180.656 154.69C180.085 155.111 179.618 155.651 179.618 155.889C179.618 156.127 178.996 157.041 178.235 157.92C177.475 158.799 176.852 159.718 176.852 159.962C176.852 161.074 175.133 161.817 173.741 161.305Z" fill="#A8A9AD"/>
</svg>
