<svg width="360" height="360" viewBox="0 0 360 360" fill="none" xmlns="http://www.w3.org/2000/svg">
<rect width="360" height="360" rx="82" fill="#87C12E"/>
<path d="M296.69 143.114C287.26 143.114 278.311 146.771 274.366 149.561C268.304 144.943 260.029 143.114 249.733 143.114C234.145 143.114 221.251 147.925 219.422 148.695V229.234H236.165C237.801 229.234 239.148 227.887 239.148 226.059V161.397C242.708 160.435 245.98 159.953 248.867 159.953C260.413 159.953 263.3 164.572 263.3 176.119V226.155C263.3 227.598 264.455 229.33 266.283 229.33H280.139C282.064 229.33 283.122 227.887 283.122 226.155V163.995C286.201 161.301 290.628 160.05 294.669 160.05C303.618 160.05 307.274 164.091 307.274 175.06V226.251C307.274 227.598 308.236 229.427 310.257 229.427H327V172.366C327 150.62 313.529 143.114 296.69 143.114ZM34 229.234H51.7051C53.0522 229.234 54.688 227.983 54.688 226.251V179.487H87.4039C92.8887 179.487 96.8338 183.913 96.8338 188.436V226.251C96.8338 227.887 98.181 229.234 99.8167 229.234H117.618V118H99.913C98.3734 118 96.9301 119.347 96.9301 120.791V162.551H62.867C58.3445 162.551 54.688 158.799 54.688 154.661V120.791C54.688 119.732 53.6296 118 51.7051 118H34V229.234ZM186.225 144.654C184.59 144.654 183.146 146.001 183.146 147.829V211.722C178.239 212.876 173.428 213.357 168.424 213.357C157.358 213.357 153.413 209.22 153.413 197.192V147.733C153.413 145.712 151.874 144.558 150.43 144.558H133.591V197.288C133.591 222.017 146.678 230.1 167.847 230.1C184.782 230.1 201.525 225.193 202.872 224.808V144.558H186.225V144.654Z" fill="white"/>
</svg>
