<svg width="360" height="360" viewBox="0 0 360 360" fill="none" xmlns="http://www.w3.org/2000/svg">
<rect width="360" height="360" rx="82" fill="#1F70C1"/>
<path d="M25 118V126.484H85.341V118H25ZM93.8902 118V126.484H179.879C179.879 126.484 171.096 118 159.462 118H93.8902ZM196.747 118V126.484H248.769L245.681 118H196.747ZM286.066 118L282.978 126.484H334.528V118H286.066ZM25 134.499V142.983H85.341V134.499H25ZM93.8902 134.511V142.983H189.857C189.857 142.983 188.736 136.453 186.781 134.511H93.8902ZM196.747 134.511V142.983H254.473L251.615 134.511H196.747ZM279.89 134.511L277.032 142.983H334.528V134.511H279.89ZM42.3406 150.998V159.494H68.4727V150.998H42.3406ZM111.231 150.998V159.494H137.363V150.998H111.231ZM162.78 150.998V159.494H188.913C188.913 159.494 190.571 155.007 190.571 150.998H162.78ZM214.088 150.998V159.494H260.418L257.33 150.998H214.088ZM274.199 150.998L271.099 159.494H317.659V150.998H274.199ZM42.3406 167.509V175.992H68.4727V167.509H42.3406ZM111.231 167.509V175.992H177.978C177.978 175.992 183.561 171.639 185.34 167.509H111.231ZM214.088 167.509V175.992H240.22V171.27L241.879 175.992H289.747L291.527 171.27V175.992H317.659V167.509H268.604L266.001 174.695L263.385 167.509H214.088ZM42.3406 184.008V192.491H68.4727V184.008H42.3406ZM111.231 184.008V192.491H185.34C183.561 188.374 177.978 184.008 177.978 184.008H111.231ZM214.088 184.008V192.491H240.22V184.008H214.088ZM244.967 184.008L248.127 192.491H284.02L287.023 184.008H244.967ZM291.527 184.008V192.491H317.659V184.008H291.527ZM42.3406 200.506V208.99H68.4727V200.506H42.3406ZM111.231 200.506V208.99H137.363V200.506H111.231ZM162.78 200.506V208.99H190.571C190.571 204.986 188.913 200.506 188.913 200.506H162.78ZM214.088 200.506V208.99H240.22V200.506H214.088ZM250.9 200.506L253.964 208.99H278.025L281.113 200.506H250.9ZM291.527 200.506V208.99H317.659V200.506H291.527ZM25.4723 217.005V225.501H85.8133V217.005H25.4723ZM93.8902 217.005V225.501H186.781C188.736 223.556 189.857 217.005 189.857 217.005H93.8902ZM197.22 217.005V225.501H240.22V217.005H197.22ZM256.846 217.005L259.995 225.501H272.237L275.192 217.005H256.846ZM291.527 217.005V225.501H335V217.005H291.527ZM25.4723 233.516V242H85.8133V233.516H25.4723ZM93.8902 233.516V241.988H159.462C171.096 241.988 179.879 233.516 179.879 233.516H93.8902ZM197.22 233.516V242H240.22V233.516H197.22ZM262.816 233.516L265.843 241.976L266.364 241.988L269.44 233.516H262.816ZM291.527 233.516V242H335V233.516H291.527Z" fill="white"/>
</svg>
