<svg width="360" height="360" viewBox="0 0 360 360" fill="none" xmlns="http://www.w3.org/2000/svg">
<rect width="360" height="360" rx="82" fill="black"/>
<circle cx="180" cy="180" r="155.455" fill="#4681C7" fill-opacity="0.06"/>
<circle cx="180" cy="180" r="155.205" stroke="#2869BF" stroke-opacity="0.04" stroke-width="0.5"/>
<path d="M163.948 224.946H150.693V290.564H163.948V224.946Z" fill="white"/>
<path d="M209.647 233.055C216.231 233.055 220.373 234.625 222.727 235.977L223.643 236.5L226.782 225.861L226.172 225.556C223.033 223.987 216.841 222.155 209.691 222.155C199.314 222.155 190.507 225.556 184.098 232.009C177.907 238.244 174.506 247.095 174.506 256.948C174.506 266.802 177.601 275.217 183.444 281.233C189.33 287.338 197.527 290.52 207.206 290.52C215.49 290.52 222.509 288.384 225.954 286.596L226.521 286.291L224.166 276.001L223.251 276.394C219.85 277.876 215.664 279.489 209.299 279.489C196.524 279.489 187.935 270.203 187.935 256.381C187.935 249.841 189.94 243.955 193.515 239.813C197.352 235.41 202.933 233.055 209.647 233.055Z" fill="white"/>
<path d="M261.044 232.009C265.404 232.009 268.936 233.361 271.552 235.977C275.694 240.163 276.304 246.485 276.348 249.231H244.171C245.174 242.43 249.752 232.009 261.044 232.009ZM283.673 233.056C278.92 225.862 271.421 222.025 261.96 222.025C252.76 222.025 244.956 225.6 239.332 232.315C234.056 238.68 231.135 247.531 231.135 257.341C231.135 267.151 234.1 275.435 239.724 281.321C245.436 287.338 253.632 290.521 263.442 290.521C273.688 290.521 280.839 288.253 285.068 286.335L285.678 286.073L283.324 276.133L282.408 276.525C278.441 278.225 273.601 279.751 265.012 279.751C259.039 279.751 253.981 278.007 250.319 274.781C246.351 271.206 244.171 265.974 243.91 259.216H288.73L288.861 257.951C288.992 256.731 289.21 255.074 289.21 252.981C289.21 249.493 288.687 240.599 283.673 233.056Z" fill="white"/>
<path d="M72 73V291H115.208V272.296H90.7044V91.748H271.732V190.851H290V73H72Z" fill="#7ACDF3"/>
</svg>
