<svg width="360" height="360" viewBox="0 0 360 360" fill="none" xmlns="http://www.w3.org/2000/svg">
<rect width="360" height="360" rx="82" fill="#68727B"/>
<path d="M52.0294 144H29V216.733H52.0294V144Z" fill="#BE301A"/>
<path d="M119.442 198.057H83.4668V185.539H61.1621V216.741H123.066C145.367 216.741 158.612 206.702 158.612 188.725V185.539H136.301C136.031 195.439 128.816 198.057 119.442 198.057Z" fill="#BE301A"/>
<path d="M83.4668 162.083H119.442C128.783 162.083 135.989 164.695 136.301 174.514H158.612V172.032C158.612 154.041 145.367 144 123.066 144H61.1621V174.514H83.4687V162.083H83.4668Z" fill="#BE301A"/>
<path d="M300.781 185.538H261.141L239.282 209.366L217.423 185.538H177.87L149.244 216.739H178.567L197.626 194.247L216.742 216.739H261.839L280.907 194.247L299.991 216.751H330L300.781 185.538Z" fill="#BE301A"/>
<path d="M239.282 151.385L260.509 174.514H301.332L329.31 144H299.991L280.919 166.497L261.843 144.015L216.752 144L197.626 166.497L178.567 144.015H149.244L177.226 174.514H218.082L239.282 151.385Z" fill="#BE301A"/>
</svg>
