<svg width="360" height="360" viewBox="0 0 360 360" fill="none" xmlns="http://www.w3.org/2000/svg">
<rect width="360" height="360" rx="82" fill="#244BA6"/>
<path d="M89.1379 159.458H100.233C100.695 159.458 101.063 159.082 101.063 158.597V133.872C101.063 133.376 100.696 133 100.233 133H33.843C33.3684 133 33 133.376 33 133.872V158.597C33 159.082 33.3674 159.458 33.843 159.458H44.8784C45.3055 159.467 45.6377 159.808 45.6614 160.221V197.793C45.6139 198.144 45.3653 198.374 45.0568 198.447H33.8433C33.3687 198.447 33.0006 198.846 33.0006 199.307V225.376C33.0006 225.849 33.3677 226.237 33.8433 226.237H100.233C100.696 226.237 101.064 225.849 101.064 225.376V199.307C101.064 198.847 100.697 198.447 100.233 198.447H88.9607C88.6873 198.408 88.4498 198.192 88.3549 197.939V160.294C88.3549 159.846 88.6984 159.481 89.1379 159.458" fill="white"/>
<path d="M214.221 133.871C214.221 133.376 213.853 133 213.378 133H111.711C111.236 133 110.868 133.376 110.868 133.871V158.597C110.868 159.082 111.235 159.458 111.711 159.458H122.722C123.15 159.467 123.482 159.808 123.517 160.221V197.793C123.46 198.144 123.208 198.374 122.876 198.447H111.71C111.236 198.447 110.867 198.846 110.867 199.307V225.376C110.867 225.849 111.235 226.237 111.71 226.237H178.076C178.539 226.237 178.919 225.849 178.919 225.376V199.307C178.919 198.847 178.539 198.447 178.076 198.447H162.117C161.832 198.408 161.594 198.192 161.499 197.939V188.312C161.499 187.865 161.855 187.513 162.295 187.465L177.721 187.435C178.159 187.435 178.54 187.048 178.54 186.588V171.622C178.54 171.15 178.16 170.762 177.721 170.762L162.331 170.732C161.892 170.732 161.548 170.406 161.5 169.969V160.282C161.5 159.835 161.844 159.471 162.272 159.448H185.659C186.063 159.457 186.406 159.787 186.443 160.211V166.338C186.443 166.834 186.822 167.21 187.273 167.21H213.402C213.853 167.21 214.245 166.834 214.245 166.338L214.226 133.863" fill="white"/>
<path d="M326.999 133.871C326.999 133.376 326.62 133 326.145 133H224.478C224.003 133 223.635 133.376 223.635 133.871V158.597C223.635 159.082 224.002 159.458 224.478 159.458H235.501C235.916 159.467 236.261 159.808 236.284 160.221V197.793C236.237 198.144 235.964 198.374 235.656 198.447H224.478C224.004 198.447 223.635 198.846 223.635 199.307V225.376C223.635 225.849 224.003 226.237 224.478 226.237H290.856C291.307 226.237 291.687 225.849 291.687 225.376V199.307C291.687 198.847 291.307 198.447 290.856 198.447H274.897C274.6 198.408 274.374 198.192 274.267 197.939V188.312C274.267 187.865 274.623 187.513 275.074 187.465L290.476 187.435C290.927 187.435 291.307 187.048 291.307 186.588V171.622C291.307 171.15 290.927 170.762 290.476 170.762L275.086 170.732C274.647 170.732 274.314 170.406 274.267 169.969V160.282C274.286 159.835 274.623 159.471 275.05 159.448H298.414C298.817 159.457 299.162 159.787 299.209 160.211V166.338C299.209 166.834 299.589 167.21 300.052 167.21H326.157C326.62 167.21 327 166.834 327 166.338V133.863" fill="white"/>
</svg>
