<svg width="360" height="360" viewBox="0 0 360 360" fill="none" xmlns="http://www.w3.org/2000/svg">
<rect width="360" height="360" rx="82" fill="#616161"/>
<path d="M41.709 148.792H56.1561V225.435H41.709V148.792Z" fill="#FFB441"/>
<path d="M80.376 103H95.068V225.432H80.6208L80.376 103Z" fill="white"/>
<path d="M117.123 148.791H130.835V160.789H131.08C132.55 156.136 141.854 146.832 155.567 146.832C166.831 146.832 174.666 151.729 179.563 161.034C184.705 151.729 194.745 146.832 203.805 146.832C227.312 146.832 232.944 163.727 232.944 180.868V225.433H218.496V182.827C218.496 171.073 216.048 160.544 201.846 160.544C187.644 160.544 182.257 170.094 182.257 183.806V225.677H167.565V185.52C167.565 171.073 165.361 160.544 151.404 160.544C140.875 160.544 131.57 168.38 131.57 185.765V225.677H117.368L117.123 148.791Z" fill="white"/>
<path d="M257.172 148.791H271.619V160.544H271.864C275.537 152.464 285.332 146.832 297.085 146.832C312.022 146.832 325 155.647 325 176.215V225.677H310.308V180.378C310.308 165.931 301.982 160.544 292.922 160.544C280.679 160.544 271.619 168.38 271.619 186.01V225.433H256.928V148.791H257.172Z" fill="white"/>
<path d="M48.7944 112.063C43.4074 112.063 39 116.471 39 121.858C39 127.245 43.4074 131.653 48.7944 131.653C54.1814 131.653 58.5891 127.245 58.5891 121.858C58.5891 116.471 54.1814 112.063 48.7944 112.063Z" fill="#FFB441"/>
</svg>
