<svg width="360" height="360" viewBox="0 0 360 360" fill="none" xmlns="http://www.w3.org/2000/svg">
<rect width="360" height="360" rx="82" fill="#2F63B6"/>
<path d="M177.682 191.472C172.015 194.095 169.123 194.744 164.547 194.744C158.128 194.744 151.896 189.809 151.896 182.064C151.896 173.989 157.811 169.136 164.927 169.136C168.834 169.136 172.437 169.827 176.088 171.76C176.454 171.981 176.757 172.035 176.757 171.603V163.086C175.203 162.512 169.578 161.105 163.656 161.105C149.755 161.105 140.051 170.112 140.051 182.067C140.051 194.001 149.61 203.001 164.057 203.001C170.973 203.001 176.377 201.475 178.303 200.558V191.709C178.303 191.275 177.923 191.275 177.683 191.474" fill="white"/>
<path d="M269.219 177.59C269.317 174.967 271.863 168.514 278.351 168.514C286.005 168.514 287.468 175.223 287.468 177.59H269.219ZM296.297 190.877C291.272 193.673 286.454 195.074 280.318 195.074C271.725 195.074 268.943 189.097 268.943 185.597H298.692V182.905C298.692 170.357 291.148 161.129 278.351 161.129C264.995 161.129 257.092 170.122 257.092 182.063C257.092 194.197 266.644 203.018 279.814 203.018C288.842 203.018 294.716 200.561 297.049 199.65V191.112C297.049 190.678 296.579 190.678 296.298 190.877" fill="white"/>
<path d="M66.1797 201.659H77.4593V143.526H66.1797V201.659Z" fill="white"/>
<path d="M250.836 193.431C247.115 195.122 242.615 195.309 240.876 194.018C239.71 193.155 239.177 191.644 239.177 189.532V170.806H251.305V162.896C251.305 162.896 240.13 162.896 239.177 162.896V148.684C239.177 148.387 238.874 148.291 238.626 148.367L227.465 153.889C235.085 185.943 226.416 221.083 201.409 246.096C163.074 284.425 100.912 284.425 62.5698 246.096C24.2349 207.754 24.2349 145.593 62.5698 107.257C87.6112 82.216 122.806 73.5539 154.888 81.229L155.083 80.5051C120.614 71.3044 82.3129 80.2155 55.2629 107.258C14.9124 147.609 14.9124 213.042 55.2629 253.4C95.6204 293.757 161.054 293.757 201.411 253.406C216.796 238.021 226.308 218.992 229.959 199.1C230.297 199.507 230.677 199.886 231.092 200.232C234.764 203.29 243.537 203.918 251.357 201.827V193.572C251.357 193.329 251.018 193.302 250.838 193.435" fill="white"/>
<path d="M304.74 107.271C264.383 66.9133 198.956 66.9133 158.592 107.271C141.64 124.223 131.825 145.613 129.119 167.693C126.579 163.407 121.741 161.053 114.687 161.053C109.545 161.053 103.995 163.966 100.682 166.962C100.682 165.629 100.682 162.896 100.682 162.896H90.377V201.659H101.662V175.638C103.401 173.753 107.86 169.515 112.485 169.515C117.089 169.515 119.946 172.711 119.946 176.031V201.659H131.473C125.889 171.027 134.91 138.262 158.592 114.58C196.934 76.2383 259.089 76.2383 297.431 114.58C335.773 152.909 335.773 215.077 297.424 253.412C272.396 278.453 237.202 287.116 205.113 279.448L204.918 280.171C239.387 289.365 277.688 280.461 304.738 253.411C345.088 213.061 345.088 147.628 304.738 107.27" fill="white"/>
<path d="M214.166 162.896L203.502 183.761L193.073 162.896H181.615L198.015 194.501L183.216 223.463H194.46L225.41 162.896H214.166Z" fill="white"/>
</svg>
