<svg width="360" height="360" viewBox="0 0 360 360" fill="none" xmlns="http://www.w3.org/2000/svg">
<rect width="360" height="360" rx="82" fill="#1C9F68"/>
<path d="M195.885 101.377L48.4265 261.672C46.1801 258.142 44.0942 254.451 42.3292 250.761L196.848 96.7236C197.811 95.9213 200.538 93.5145 199.736 94.6377C199.255 95.119 196.687 99.7722 195.885 101.377ZM191.874 120.792L96.2422 310.129C99.4513 312.215 102.821 314.301 106.19 316.066L192.195 126.247C192.034 124.482 191.874 122.717 191.874 120.792ZM193.799 106.993C193.639 106.832 193.318 107.635 192.676 108.437L65.2743 283.815C68.1625 287.024 71.0507 289.912 74.2598 292.8L192.516 113.571C192.676 111.646 193.318 108.918 193.799 106.993ZM276.594 150.476L331.63 150.155C330.989 147.267 330.347 142.935 329.705 140.047L278.68 147.748C278.038 148.711 277.396 149.513 276.594 150.476ZM231.025 167.484L284.938 293.282C287.666 290.714 290.393 287.987 292.961 285.259L233.913 167.966C233.111 167.805 231.988 167.645 231.025 167.484ZM282.852 140.207C283.012 140.207 283.333 140.047 283.494 139.886L320.399 114.695C318.954 111.806 316.708 107.635 315.104 104.746L284.938 134.591C284.457 136.677 283.654 138.442 282.852 140.207ZM269.534 157.697C268.892 158.178 268.09 158.82 267.448 159.301L334.358 189.146C334.519 186.258 335 182.086 335 179.198L269.534 157.697ZM193.799 134.27L132.826 327.298C136.677 328.582 140.528 329.544 144.379 330.507L195.243 138.602C194.762 137.158 194.281 135.714 193.799 134.27ZM243.701 168.126L309.327 264.4C311.092 261.511 313.82 257.34 315.424 254.451L246.108 167.805C245.466 167.966 244.664 167.966 243.701 168.126ZM256.216 165.238L326.817 228.297C327.78 225.409 329.224 220.916 330.026 217.867L258.463 164.275C257.66 164.596 256.858 164.917 256.216 165.238ZM218.991 163.634L251.242 317.189C254.612 315.424 258.623 313.178 261.672 311.253L221.558 164.917C220.756 164.436 219.793 163.954 218.991 163.634ZM208.08 156.413L213.214 330.989C217.226 330.026 221.237 329.063 225.248 327.94L210.807 158.659C209.684 157.857 208.882 157.055 208.08 156.413ZM172.78 334.358C175.026 334.519 177.433 334.519 179.84 334.519C181.444 334.519 183.049 334.519 184.814 334.358L201.661 149.513C200.859 148.551 200.217 147.428 199.415 146.304L172.78 334.358ZM235.678 73.1366H236.32C237.283 73.1366 238.406 72.9762 239.369 72.9762C265.683 72.9762 287.024 94.3168 287.024 120.631C287.024 123.359 286.703 126.087 286.382 128.815C286.863 128.815 287.345 128.494 287.505 128.173L299.379 82.2826C296.972 79.3944 293.923 75.383 291.196 72.6553L287.505 105.549C286.863 103.463 285.901 101.377 283.975 97.3654C283.333 96.0818 282.531 94.6377 281.568 93.354L269.855 54.0424C265.844 51.1542 261.672 48.4265 257.34 45.8592L272.583 82.9244C269.855 80.3571 267.127 78.1108 265.683 76.8271L233.592 34.6273C228.458 32.7019 223.163 31.0973 217.707 29.6532L256.858 73.618L255.895 73.4576L192.676 25.6418C188.504 25.3209 184.172 25 179.84 25C178.716 25 177.433 25 176.31 25.1605L238.727 66.8789L151.92 27.5673C146.946 28.53 142.133 29.6532 137.319 30.9369L231.346 67.8416L112.448 40.4037C107.955 42.6501 103.623 44.8965 99.2909 47.6242L219.793 69.6066L77.9503 63.3489C74.7412 66.2371 69.9275 70.7298 67.0393 73.9389L214.177 73.1366L51.1542 93.9959C48.4265 98.0072 46.0197 102.179 43.6128 106.351L209.363 77.4689L32.381 132.666C31.0973 136.677 29.9741 140.688 29.0114 144.86L205.673 81.9617L25.3209 171.656C25.1605 174.384 25.1605 177.112 25.1605 179.84C25.1605 180.963 25 183.53 25 184.653L203.266 86.7754L28.3696 211.77C29.1718 215.782 30.295 219.632 31.4182 223.644L202.785 90.4658C203.587 89.5031 204.55 88.5404 205.352 87.5776C207.277 85.8126 210.005 83.4058 213.054 81.1594C219.312 76.6667 228.778 73.7785 235.678 73.1366Z" fill="url(#paint0_radial)"/>
<defs>
<radialGradient id="paint0_radial" cx="0" cy="0" r="1" gradientUnits="userSpaceOnUse" gradientTransform="translate(210.597 134.832) scale(205.063)">
<stop stop-color="white"/>
<stop offset="1" stop-color="#62F4EC"/>
</radialGradient>
</defs>
</svg>
