<svg width="360" height="360" viewBox="0 0 360 360" fill="none" xmlns="http://www.w3.org/2000/svg">
<rect width="360" height="360" rx="82" fill="#0071C5"/>
<circle cx="180" cy="180" r="155.455" fill="#4681C7" fill-opacity="0.06"/>
<circle cx="180" cy="180" r="155.205" stroke="#2869BF" stroke-opacity="0.04" stroke-width="0.5"/>
<path d="M118.799 165.354V213.476H103.48V152.989L135.105 153.02C148.538 153.02 153.114 162.492 153.114 171.097V213.476H137.823V171.176C137.823 167.572 135.957 165.354 131.457 165.354H118.799V165.354ZM222.963 164.631C217.727 164.631 213.675 167.323 211.982 170.977C210.98 173.171 210.635 174.852 210.517 177.538H234.084C233.781 170.977 230.806 164.631 222.963 164.631ZM210.517 187.964C210.517 195.799 215.388 201.566 224.084 201.566C230.85 201.566 234.213 199.691 238.125 195.799L247.586 204.833C241.528 210.814 235.171 214.446 223.971 214.446C209.307 214.446 195.274 206.45 195.274 183.146C195.274 163.235 207.526 151.963 223.627 151.963C239.946 151.963 249.375 165.16 249.375 182.446V187.964H210.517ZM182.343 213.4C169.863 213.4 164.568 204.713 164.568 196.133V136.508H179.863V152.989H191.393V165.354H179.863V195.174C179.863 198.688 181.522 200.639 185.171 200.639H191.393V213.4H182.343ZM89.85 144.63H74.4263V129.978H89.85V144.63ZM89.8888 214.112C78.3386 213.002 74.4098 205.996 74.4098 197.912L74.4265 152.989H89.889V214.112H89.8888ZM273.718 212.82C262.192 211.708 258.281 204.713 258.281 196.64V127.893H273.718V212.82ZM327.683 137.828C313.693 69.6238 181.297 65.306 95.9599 117.257V122.993C181.211 79.1811 302.117 79.4392 313.133 142.259C316.818 163.031 305.113 184.688 284.208 197.136V213.422C309.37 204.217 335.175 174.367 327.683 137.828ZM172.559 257.16C113.662 262.605 52.2882 254.056 43.7006 208.033C39.4972 185.346 49.8325 161.296 63.5435 146.357V138.369C38.8611 160.013 25.4654 187.414 33.1772 219.792C43.0203 261.31 95.6944 284.839 176.093 277.025C207.903 273.921 249.537 263.692 278.482 247.806V225.236C252.218 240.876 208.756 253.809 172.559 257.16Z" fill="white"/>
</svg>
