<svg width="360" height="360" viewBox="0 0 360 360" fill="none" xmlns="http://www.w3.org/2000/svg">
<rect width="360" height="360" rx="82" fill="#0077C5"/>
<path d="M95 167.007H154.129V331.092H206.871V167.007H266V120.126H95.2929V167.007H95ZM180.5 92.7588C186.805 92.7588 192.969 90.8891 198.211 87.3862C203.454 83.8832 207.54 78.9043 209.953 73.0791C212.366 67.2539 212.997 60.844 211.767 54.66C210.537 48.476 207.5 42.7956 203.042 38.3372C198.584 33.8788 192.903 30.8426 186.719 29.6126C180.535 28.3825 174.125 29.0138 168.3 31.4267C162.475 33.8396 157.496 37.9256 153.993 43.1682C150.49 48.4107 148.621 54.5743 148.621 60.8794C148.683 69.3242 152.093 77.3993 158.103 83.3322C164.112 89.2652 172.231 92.5712 180.676 92.5244L180.5 92.7588Z" fill="white"/>
</svg>
