<svg width="360" height="360" viewBox="0 0 360 360" fill="none" xmlns="http://www.w3.org/2000/svg">
<rect width="360" height="360" rx="82" fill="black"/>
<path fill-rule="evenodd" clip-rule="evenodd" d="M74.1465 240.485H107.422L196.638 86.993L180.006 58.2618L74.1465 240.485Z" fill="white"/>
<path fill-rule="evenodd" clip-rule="evenodd" d="M180 24.9977C94.5617 24.9977 25 94.5594 25 179.999C25 265.437 94.5617 335 180 335C266.194 335 335 265.437 335 179.999C335 94.5594 266.194 24.9977 180 24.9977ZM194.366 307.781V139.923L235.196 210.24H200.409V240.484H285.848L201.165 93.804L165.634 155.8V307.022C101.361 300.217 52.2084 245.777 52.2084 179.999C52.2084 108.925 109.683 52.2059 180 52.2059C251.073 52.2059 308.547 108.925 308.547 179.999C308.547 245.777 258.639 300.217 194.366 307.781Z" fill="white"/>
</svg>
