<svg width="360" height="360" viewBox="0 0 360 360" fill="none" xmlns="http://www.w3.org/2000/svg">
<rect width="360" height="360" rx="82" fill="black"/>
<path d="M211.473 128.437C207.699 124.658 203.447 121.715 199.124 119.446C191.405 115.031 182.315 112.424 172.314 112.05C171.59 112.011 170.934 111.988 170.385 111.988L166.514 111.995H105.369V248.712H143.239V248.693H143.268V219.266C147.134 219.259 171.195 219.237 171.195 219.237C180 219.237 188.241 217.294 195.525 213.826C190.396 204.077 187.479 192.998 187.479 181.235C187.479 160.208 196.783 141.319 211.473 128.437ZM169.762 187.409C169.22 187.426 168.71 187.447 168.139 187.447C168.139 187.447 146.434 187.447 143.268 187.447V143.778H167.344V143.804C177.802 143.804 188.596 150.253 188.596 165.505C188.596 180.404 180.028 186.594 169.762 187.409Z" fill="#83C2EC"/>
<path d="M257.718 251.482C230.743 251.482 207.286 236.192 195.523 213.828C213.411 205.315 225.454 187.588 225.454 166.623C225.454 166.254 225.43 165.892 225.423 165.526V165.506C225.423 165.446 225.42 165.382 225.42 165.322C225.408 164.684 225.394 164.052 225.363 163.417C224.9 147.283 219.165 136.122 211.475 128.437C223.843 117.597 240.02 111 257.718 111C276.812 111 294.139 118.664 306.807 131.066L278.803 155.225L278.662 155.139C272.92 150.518 265.639 147.753 257.718 147.753C239.258 147.753 224.232 162.772 224.232 181.235C224.232 199.71 239.258 214.734 257.718 214.734C268.548 214.734 278.17 209.538 284.294 201.538H260.278V169.688H264.625V169.684L279.611 169.688H327.077L327.072 169.7H327.077C327.077 169.7 327.175 170.383 327.302 171.452C327.556 173.259 327.726 175.097 327.836 176.947C327.93 178.364 327.999 179.821 327.999 181.17C327.999 181.817 327.966 182.666 327.901 183.66C327.599 192.506 325.677 200.939 322.387 208.666C321.636 210.518 320.812 212.316 319.877 214.015C319.877 214.015 319.877 213.986 319.868 213.933C308.079 236.24 284.655 251.482 257.718 251.482Z" fill="#1477C6"/>
<path d="M225.449 166.624C225.449 166.253 225.43 165.891 225.423 165.526V165.507C225.423 165.445 225.416 165.385 225.416 165.325C225.411 164.685 225.397 164.048 225.363 163.42C224.9 147.282 219.158 136.123 211.473 128.435C196.779 141.321 187.479 160.211 187.479 181.236C187.479 192.993 190.397 204.077 195.524 213.829C213.407 205.316 225.449 187.589 225.449 166.624Z" fill="#0B335E"/>
<path d="M44 112.33L44.1582 248.715H81.791L81.6352 112.33H44Z" fill="#83C2EC"/>
</svg>
