<svg width="360" height="360" viewBox="0 0 360 360" fill="none" xmlns="http://www.w3.org/2000/svg">
<rect width="360" height="360" rx="82" fill="#DF3232"/>
<path d="M287.125 185.275V177.353H334V193.481C325.04 195.838 317.117 197.442 310.138 198.291C303.253 199.14 295.048 199.517 285.616 199.517C273.921 199.517 264.489 198.762 257.133 197.253C249.776 195.744 244.117 193.481 240.062 190.368C236.006 187.35 234.025 183.86 234.025 179.899C234.025 175.749 236.195 172.071 240.627 169.053C245.06 166.035 251.568 163.677 260.056 162.074C266.753 160.847 275.619 160.187 286.936 160.187C297.783 160.187 305.894 160.565 311.27 161.319C316.646 162.074 321.079 163.3 324.663 164.903C328.247 166.506 330.887 168.581 332.679 171.034L303.442 173.014C302.215 171.599 300.235 170.468 297.311 169.713C294.387 168.959 290.803 168.581 286.276 168.581C279.58 168.581 274.298 169.524 270.431 171.222C266.47 173.014 264.489 175.844 264.489 179.616C264.489 183.766 266.47 186.69 270.525 188.388C274.487 190.18 280.051 191.028 287.219 191.028C290.615 191.028 293.821 190.84 296.934 190.463C300.046 190.085 303.536 189.425 307.497 188.576V184.992H287.125V185.275Z" fill="#003B83"/>
<path d="M60.9536 160H27V171.789H60.9536V160Z" fill="#003B83"/>
<path d="M60.9536 174.053H27V199.612H60.9536V174.053Z" fill="#003B83"/>
<path d="M145.084 171.789V165.187L179.697 171.789H204.219V170.563L203.748 169.526L203.276 168.677L202.522 167.451L201.39 166.413L199.881 165.376L198.089 164.433L196.108 163.49L194.411 162.924L192.524 162.358L190.921 161.981L188.186 161.415L185.828 161.037L182.244 160.66L179.131 160.377L176.113 160.189L172.529 160H110.941V171.789H145.084Z" fill="#003B83"/>
<path d="M180.075 174.053L145.084 179.712V174.053H110.941V199.612H145.084V184.805L164.607 184.899L168.474 184.805L172.058 184.711L175.17 184.616L178.566 184.428L181.395 184.145L184.602 183.673L187.903 183.202L190.544 182.636L192.902 181.975L195.259 181.221L197.051 180.466L198.655 179.618L200.352 178.674L201.767 177.543L202.899 176.411L203.559 175.279L204.031 174.053H180.075Z" fill="#003B83"/>
</svg>
