<svg width="360" height="360" viewBox="0 0 360 360" fill="none" xmlns="http://www.w3.org/2000/svg">
<rect width="360" height="360" rx="82" fill="#005487"/>
<path d="M303.986 244.791H247.904C243.898 251.944 239.319 258.525 234.455 264.248H304.272C309.709 264.248 314.001 259.956 314.001 254.519C313.715 249.083 309.423 244.791 303.986 244.791Z" fill="white"/>
<path d="M303.972 207.593H261.052C259.621 214.46 257.904 220.755 255.615 227.05H303.686C309.123 227.05 313.415 222.758 313.415 217.321C313.415 211.885 309.409 207.593 303.972 207.593Z" fill="white"/>
<path d="M303.98 170.395H263.635C263.921 173.543 263.921 176.404 263.921 179.552C263.921 182.985 263.921 186.419 263.635 189.853H303.98C309.417 189.853 313.709 185.56 313.709 180.124C313.709 174.687 309.417 170.395 303.98 170.395Z" fill="white"/>
<path d="M303.976 133.198H256.191C258.48 139.493 260.197 146.074 261.342 152.655H303.976C309.413 152.655 313.705 148.363 313.705 142.926C313.705 137.776 309.413 133.198 303.976 133.198Z" fill="white"/>
<path d="M303.973 96H235.301C240.165 101.723 244.743 108.304 248.463 115.457H303.973C309.41 115.457 313.702 111.165 313.702 105.729C313.702 100.292 309.41 96 303.973 96Z" fill="white"/>
<path d="M118.29 254.519C118.29 249.083 122.582 244.791 128.018 244.791H89.6759C84.2393 244.791 79.9473 249.083 79.9473 254.519C79.9473 259.956 84.2393 264.248 89.6759 264.248H128.018C122.868 264.248 118.29 259.67 118.29 254.519Z" fill="#00A1DF"/>
<path d="M247.911 244.791H128.02C122.583 244.791 118.291 249.083 118.291 254.519C118.291 259.956 122.583 264.248 128.02 264.248H234.176C239.327 258.239 243.905 251.944 247.911 244.791Z" fill="#7FA9C3"/>
<path d="M91.0854 219.325C89.6548 213.03 94.5191 207.593 100.528 207.593H62.1856C56.7491 207.593 52.457 211.885 52.457 217.322C52.457 222.758 56.7491 227.05 62.1856 227.05H100.814C96.2359 227.05 91.9438 223.903 91.0854 219.325Z" fill="#00A1DF"/>
<path d="M261.339 207.593H100.53C94.5216 207.593 89.6573 213.03 91.0879 219.325C91.9464 223.903 96.2384 227.05 100.817 227.05H255.616C258.192 220.755 259.908 214.174 261.339 207.593Z" fill="#7FA9C3"/>
<path d="M63.6284 182.127C62.1977 175.832 67.0621 170.395 73.0709 170.395H34.7286C29.292 170.395 25 174.687 25 180.124C25 185.56 29.292 189.853 34.7286 189.853H73.3571C68.7789 189.853 64.773 186.705 63.6284 182.127Z" fill="#00A1DF"/>
<path d="M63.6348 182.127C64.4932 186.705 68.7852 189.853 73.3634 189.853H263.358C263.644 186.419 263.644 182.985 263.644 179.552C263.644 176.404 263.644 173.257 263.358 170.395H73.3634C67.3545 170.395 62.4902 175.832 63.6348 182.127Z" fill="#7FA9C3"/>
<path d="M77.0903 142.926C77.0903 137.49 81.3824 133.198 86.819 133.198H48.4767C43.0401 133.198 38.748 137.49 38.748 142.926C38.748 148.363 43.0401 152.655 48.4767 152.655H86.819C81.3824 152.655 77.0903 148.363 77.0903 142.926Z" fill="#00A1DF"/>
<path d="M256.207 133.198H86.8146C81.378 133.198 77.0859 137.49 77.0859 142.926C77.0859 148.363 81.378 152.655 86.8146 152.655H261.358C260.213 146.074 258.496 139.493 256.207 133.198Z" fill="#7FA9C3"/>
<path d="M147.755 108.018C146.325 101.723 151.189 96.2864 157.198 96.2864H118.856C113.419 96.2864 109.127 100.578 109.127 106.015C109.127 111.452 113.419 115.744 118.856 115.744H157.484C153.192 115.744 148.9 112.596 147.755 108.018Z" fill="#00A1DF"/>
<path d="M235.301 96H157.472C151.463 96 146.599 101.437 148.029 107.732C148.888 112.31 153.18 115.457 157.758 115.457H248.463C244.743 108.59 240.165 102.009 235.301 96Z" fill="#7FA9C3"/>
</svg>
