<svg width="360" height="360" viewBox="0 0 360 360" fill="none" xmlns="http://www.w3.org/2000/svg">
<rect width="360" height="360" rx="82" fill="#D52B1E"/>
<path d="M329.026 137.12C319.676 91.069 245.614 72.7572 163.567 96.216C146.594 101.072 130.622 107.357 116.029 114.644H126.07C137.787 108.495 150.59 103.283 164.207 99.3908C232.32 79.9087 294.808 100.031 303.809 144.336C308.968 169.728 295.39 197.552 270.043 220.357L267.657 231.705C310.191 204.457 335.376 168.422 329.026 137.12ZM234.904 244.558C223.194 250.707 210.398 255.912 196.767 259.805C128.674 279.287 66.1729 259.171 57.1851 214.879C52.0252 189.428 65.6427 161.56 91.0736 138.741L93.4531 127.426C50.8549 154.693 25.618 190.773 31.9741 222.088C41.3175 268.139 115.399 286.445 197.42 262.986C214.394 258.13 230.358 251.845 244.965 244.558H234.904ZM203.044 167.752L208.294 142.812C221.776 142.948 232.497 142.392 230.059 153.934C226.923 168.857 221.679 167.474 203.044 167.752ZM141.494 237.126H188.444L197.774 192.756C215.556 192.18 221.589 194.198 219.694 203.205L212.555 237.126H259.305L267.135 199.868C268.183 194.915 270.743 182.746 250.265 177.237C271.079 171.573 275.593 159.663 277.332 151.399C281.386 132.098 265.583 122.082 241.239 122.082H165.696L141.494 237.126ZM101.792 122.079H151.619L127.417 237.123H77.5893L101.792 122.079Z" fill="white"/>
</svg>
