<svg width="360" height="360" viewBox="0 0 360 360" fill="none" xmlns="http://www.w3.org/2000/svg">
<rect width="360" height="360" rx="82" fill="#29638B"/>
<path d="M70.6774 240.827L77.1342 248.945L77.7616 249.123L72.3576 237.238L77.1342 229.703L88.3463 244.211L79.311 224.814L83.6148 217.683L98.7979 238.381L85.8795 212.773L90.68 204.676L106.961 228.581L93.1016 199.384L97.1368 192.813L115.079 217.683L100.053 187.925L103.864 181.107L120.146 204.474L106.961 175.434L110.481 169.02L128.758 193.576L113.689 162.449L117.253 156.955L137.368 183.754L120.64 150.004L124.026 144.913L144.903 175.256L145.039 175.075L127.838 137.76L130.597 133.276L153.986 166.396L134.611 124.977L137.548 121.009L165.49 162.989L141.674 111.971L144.276 108.181L177.038 158.863L149.209 98.2257L151.809 94.8393L188.542 155.073L156.408 85.7779L158.582 82.4152L199.754 149.443L163.494 72.6148L165.49 69.7678L207.29 138.164L170.557 60.1907L179.797 44L305.646 270H55" fill="white"/>
</svg>
