<svg width="360" height="360" viewBox="0 0 360 360" fill="none" xmlns="http://www.w3.org/2000/svg">
<rect width="360" height="360" rx="82" fill="#006699"/>
<path d="M335 163.161L334.102 173.931H329.704C322.682 173.931 319.032 179.56 319.032 184.955V209.28H306.585V163.161H318.374L318.642 168.917C321.116 164.969 325.444 163.161 330.782 163.161H335ZM248.71 209.279H236.253V184.899C236.253 179.793 235.812 173.366 228.63 173.366C221.714 173.366 218.958 178.358 218.958 184.17V209.279H206.505V163.16H218.051L218.315 169.056C220.79 165.109 225.399 162.035 232.198 162.035C244.749 162.035 248.71 170.996 248.71 180.322V209.279ZM201.073 198.506L200.202 209C197.215 209.801 194.563 210.088 191.354 210.088C179.617 210.088 176.212 204.706 176.212 193.889V150.155H188.669V163.161H201.063L200.202 173.93H188.669V192.952C188.669 197.293 189.859 199.638 194.312 199.638C196.248 199.638 198.401 199.405 201.073 198.506ZM172.122 163.161L171.158 173.931H167.773C160.764 173.931 157.279 179.553 157.279 184.955V209.28H144.822V163.161H156.616L156.862 168.917C159.349 164.969 163.678 163.161 169.022 163.161H172.122ZM88.6087 204.17C80.1598 208.689 71.7207 211.297 60.5737 210.973C39.9087 210.342 25 197.51 25 175.836C25 154.257 40.0525 140.469 60.5835 140.145C70.9907 139.986 80.3036 142.627 87.5828 149.05L78.8143 157.921C74.31 154.081 67.6826 151.837 59.7628 152.195C46.8417 152.797 39.0558 162.186 38.8842 175.096C38.7153 189.084 47.2926 198.723 60.7007 199.075C67.0098 199.233 71.5295 198.386 75.4406 196.63V182.332H61.5048L62.4455 170.606H88.6087V204.17ZM301.023 190.603H266.871C267.844 196.496 272.477 200.041 278.246 200.202C283.854 200.354 286.992 198.659 291.094 194.505L299.222 200.703C293.446 207.817 286.515 210.407 278.618 210.407C264.73 210.407 254.326 200.696 254.326 186.218C254.326 171.756 264.678 162.035 278.099 162.035C292.891 162.035 301.023 170.996 301.023 186.902V190.603ZM288.544 180.96C288.162 175.134 283.797 171.451 277.785 171.685C271.734 171.914 267.706 175.855 266.871 180.96H288.544ZM136.98 179.079V209.279H125.997L125.725 204.731C122.356 208.905 116.885 210.407 111.253 210.407C102.772 210.407 94.7589 206.225 94.5914 196.485C94.3388 181.176 111.821 180.088 122.801 180.088H124.995V179.483C124.995 174.42 121.645 171.686 115.337 171.686C110.809 171.686 106.34 173.502 103.035 176.6L95.8477 169.299C102.373 164.009 109.162 162.035 116.395 162.035C130.682 162.035 136.98 168.637 136.98 179.079ZM124.995 189.167H123.263C117.366 189.179 107.007 189.47 107.046 195.636C107.102 204.324 124.995 201.563 124.995 191.086V189.167Z" fill="white"/>
</svg>
