<svg width="360" height="360" viewBox="0 0 360 360" fill="none" xmlns="http://www.w3.org/2000/svg">
<rect width="360" height="360" rx="82" fill="#EC1C2B"/>
<circle cx="180" cy="180" r="155.455" fill="#4681C7" fill-opacity="0.06"/>
<circle cx="180" cy="180" r="155.205" stroke="#2869BF" stroke-opacity="0.04" stroke-width="0.5"/>
<path fill-rule="evenodd" clip-rule="evenodd" d="M30.4466 233.36L64.7235 127.002H59.2768L25 233.36H30.4466Z" fill="white"/>
<path fill-rule="evenodd" clip-rule="evenodd" d="M39.0868 233.369L73.3696 127.011H67.9229L33.9619 233.369H39.0868Z" fill="white"/>
<path fill-rule="evenodd" clip-rule="evenodd" d="M47.7547 233.369L82.0316 127.011H76.585L42.6299 233.369H47.7547Z" fill="white"/>
<path fill-rule="evenodd" clip-rule="evenodd" d="M56.413 233.369L90.6899 127.011H85.2373L51.2822 233.369H56.413Z" fill="white"/>
<path fill-rule="evenodd" clip-rule="evenodd" d="M127.214 233.369L154.757 147.832H182.318L189.04 127.011H95.8157L89.0879 147.832H122.727L95.4939 233.369H127.214Z" fill="white"/>
<path fill-rule="evenodd" clip-rule="evenodd" d="M283.217 174.744L306.601 127.012H337.999L282.258 233.37H252.468L253.749 176.026C253.749 176.026 253.749 173.141 253.749 171.86C253.749 171.86 254.071 169.62 254.071 168.017C254.393 165.776 254.709 163.208 254.709 163.208C254.709 163.208 253.428 166.092 252.79 168.654C251.831 170.895 250.543 173.135 250.543 173.135C249.906 174.095 248.303 176.979 248.303 176.979L217.87 233.358H186.799L190.958 127H222.994L218.829 173.451C218.829 173.451 218.507 175.698 218.507 177.301C218.507 177.301 218.185 179.542 217.548 182.426C217.226 184.988 215.951 189.791 215.951 189.791C215.951 189.791 217.232 185.626 218.191 183.385C219.8 180.179 220.438 178.582 221.397 176.336C222.679 174.095 223.96 171.211 223.96 171.211C224.598 170.245 225.885 168.326 225.885 168.326L247.987 127H280.661L278.742 170.889V173.451C278.42 176.014 278.42 179.536 277.783 182.742C277.461 185.948 276.823 190.429 276.823 190.429C276.823 190.429 277.783 188.188 278.742 185.304C279.69 182.754 283.217 174.744 283.217 174.744Z" fill="white"/>
<path fill-rule="evenodd" clip-rule="evenodd" d="M274.879 203.577L309.799 131.817H329.661L279.366 228.247H257.58L259.183 153.919V150.076C259.183 147.513 258.223 148.151 257.901 148.795C257.574 149.116 255.333 152.96 254.695 154.879C253.736 156.482 248.289 167.053 246.049 171.54C243.48 176.022 236.115 189.799 234.196 193.643C230.031 201.008 219.781 219.595 219.781 219.595L217.856 223.111L214.978 228.241H191.91L195.76 131.811H217.54L216.259 145.589C216.259 147.829 214.978 162.566 214.34 168.013C214.018 173.138 213.059 181.79 212.731 185.95C212.094 190.115 211.45 195.562 211.128 199.083C210.491 202.611 210.491 204.208 210.491 204.852C210.169 205.811 211.45 206.139 212.094 204.852C212.737 203.565 215.943 197.159 217.862 193.321C220.109 189.471 222.349 184.99 222.349 184.99L224.268 181.468L251.18 131.811H275.528L272.65 202.611C272.65 204.214 272.328 205.174 272.65 205.49C272.972 206.133 273.61 205.811 274.253 204.852C274.557 204.22 274.879 203.577 274.879 203.577Z" fill="#EC1C2B"/>
</svg>
