<svg width="360" height="360" viewBox="0 0 360 360" fill="none" xmlns="http://www.w3.org/2000/svg">
<rect width="360" height="360" rx="82" fill="#193989"/>
<path d="M234.75 244.644L223.913 255.556L213.375 244.719L207.694 227.856L191.55 222.287L191.519 211.787L181.019 211.819L175.481 238.462L181.163 255.7L156.45 266.65L148.913 255.806L154.125 244.906L154.088 233.281L137.963 233.337L116.662 255.906L100.525 250.712L100.444 228.212L72.3063 223.8L52.0938 234.744L40.075 229.531L40 206.662L50.8562 201.369L93.9125 179.856L100.3 185.087L116.381 168.912L116.344 158.406L137.644 136.962L148.45 114.05L164.481 87.375L191.094 82.0375L201.969 82L202 92.5L223.45 113.806L223.519 136.681L257.006 168.45L289.325 190.087L305.462 195.287L311.144 211.394L332.556 221.831L321.712 232.731L311.219 232.769L311.181 221.9L295.038 216.694L267.95 190.162L246.538 179.356L223.556 147.188L213.025 136.712L218.219 119.45L202.038 103.375L191.194 113.906L191.269 136.787L180.806 147.325L202.25 168.625L191.413 179.531L213.231 200.837L213.269 211.712L223.837 233.05L234.712 233.019L246.675 222.106L241.038 216.875L234.606 200.769L246.606 200.731L257.175 222.075L268.087 232.912L234.75 244.644Z" fill="white"/>
</svg>
