<svg width="360" height="360" viewBox="0 0 360 360" fill="none" xmlns="http://www.w3.org/2000/svg">
<rect width="360" height="360" rx="82" fill="#F8E146"/>
<path fill-rule="evenodd" clip-rule="evenodd" d="M97.0644 200.232V132.903H78.708V197.03C78.708 204.629 70.3272 207.843 65.1423 207.843C61.9464 207.843 50.3759 202.634 47.1862 200.232L40 214.253C40 214.253 52.371 225.473 67.1313 225.473C81.4974 225.473 88.2834 218.256 90.6726 215.454C93.4744 212.652 97.0644 205.436 97.0644 200.232ZM128.607 225.079H109.857V132.903H145.769C163.725 132.903 170.911 148.538 170.911 154.948C170.911 161.358 172.106 170.977 160.135 177.787C171.706 183.403 174.107 191.808 174.107 199.426C174.107 207.043 168.116 225.079 144.975 225.079H128.607ZM142.979 208.65C148.565 208.65 153.355 204.235 153.355 198.631C153.355 193.015 148.565 188.218 142.979 188.218H128.613V208.65H142.979ZM141.385 171.383C146.569 171.383 150.96 167.374 150.96 161.764C150.96 156.555 146.576 152.146 141.385 152.146H128.613V171.383H141.385ZM232.616 132.903V171.777H205.885V132.903H187.128V225.079H205.885V187.806H232.616V225.079H250.966V132.903H232.616ZM321 132.903H263.535V150.145H282.686V225.079H301.843V150.145H321V132.903Z" fill="black"/>
</svg>
