<svg width="360" height="360" viewBox="0 0 360 360" fill="none" xmlns="http://www.w3.org/2000/svg">
<rect width="360" height="360" rx="82" fill="url(#paint0_linear)"/>
<path d="M290.98 71.5019C288.819 69.2825 286.579 67.095 284.271 65.0007C259.881 76.5137 239.73 90.8829 224.394 107.893C226.371 121.172 227.778 134.755 228.39 148.677C230.482 196.962 223.411 237.383 209.428 270.137C219.742 287.786 234.172 303.602 252.786 316.735C258.072 313.906 263.177 310.759 268.069 307.359C239.807 274.406 225.936 233.715 228.388 190.09C230.988 143.119 254.35 101.645 290.98 71.5019Z" fill="#3BBB9C"/>
<path d="M254.959 43.9707C252.207 42.4307 249.39 40.9599 246.523 39.5984C234.757 44.9725 223.708 51.2499 213.469 58.3213C215.544 65.358 217.417 72.544 219.099 79.8818C230.422 67.0446 242.689 55.0467 254.959 43.9707Z" fill="#05B6C4"/>
<path d="M209.94 332.008C216.481 330.713 222.868 328.989 229.076 326.924C218.807 315.574 208.792 302.92 199.933 289.383C195.478 297.216 190.628 304.578 185.326 311.345C192.803 318.699 201.03 325.592 209.94 332.008Z" fill="#05B6C4"/>
<path d="M330.857 144.228C315.017 157.845 304.119 175.308 300.496 195.446C296.576 217.006 301.9 238.54 313.986 257.708C327.329 234.794 335 208.184 335 179.752C335 167.52 333.548 155.655 330.857 144.228Z" fill="#8CC640"/>
<path d="M283.186 192.63C286.33 162.943 297.446 131.87 317.49 108.154C315.934 105.189 314.346 102.271 312.62 99.4282C274.257 120.384 249.454 153.535 245.833 194.228C242.623 230.171 259.379 266.25 287.049 291.871C291.312 287.805 295.365 283.494 299.148 278.96C285.77 253.432 279.807 224.339 283.186 192.63Z" fill="#6CC071"/>
<path d="M72.075 68.0515C45.2336 93.9417 27.731 129.4 25 168.95C50.8449 144.185 67.0126 104.503 72.075 68.0515Z" fill="#00BCE4"/>
<path d="M102.661 45.0847C100.263 46.4676 97.8945 47.917 95.5845 49.4117C80.7623 119.23 56.3216 165.551 26.0645 201.033C27.1622 208.875 28.7848 216.53 31.0176 223.961C94.4388 184.961 107.817 97.9815 102.661 45.0847Z" fill="#009DCC"/>
<path d="M228.869 148.672C226.954 104.221 217.628 62.6725 202.843 26.2472C199.883 25.8289 196.875 25.4772 193.84 25.2161C207.725 142.84 194.216 256.291 125.407 325.134C137.751 329.765 150.834 332.869 164.452 334.214C206.779 297.03 232.647 235.306 228.869 148.672Z" fill="#00559F"/>
<path d="M168.423 25C165.474 25.2158 162.522 25.5089 159.617 25.8846C162.391 102.495 149.485 229.556 73.8311 293.118C80.8465 299.68 88.4641 305.593 96.6199 310.77C194.639 244.141 194.156 113.808 168.423 25Z" fill="#0069A5"/>
<path d="M134.12 31.397C131.517 32.1883 128.948 33.0436 126.417 33.9681C121.946 112.795 100.772 196.692 41.6084 250.388C45.4798 257.95 49.9454 265.149 54.9678 271.936C135.231 223.467 151.646 108.631 134.12 31.397Z" fill="#0581B6"/>
<defs>
<linearGradient id="paint0_linear" x1="5" y1="54" x2="360" y2="241.5" gradientUnits="userSpaceOnUse">
<stop stop-color="#00BCE4" stop-opacity="0.15"/>
<stop offset="0.247831" stop-color="#009DCC" stop-opacity="0.15"/>
<stop offset="0.353465" stop-color="#0581B6" stop-opacity="0.15"/>
<stop offset="0.477445" stop-color="#0069A5" stop-opacity="0.15"/>
<stop offset="0.589998" stop-color="#00559F" stop-opacity="0.15"/>
<stop offset="0.716117" stop-color="#3BBB9C" stop-opacity="0.15"/>
<stop offset="0.890353" stop-color="#6CC071" stop-opacity="0.15"/>
<stop offset="1" stop-color="#8CC640" stop-opacity="0.15"/>
</linearGradient>
</defs>
</svg>
