<svg width="360" height="360" viewBox="0 0 360 360" fill="none" xmlns="http://www.w3.org/2000/svg">
<rect width="360" height="360" rx="82" fill="black"/>
<path fill-rule="evenodd" clip-rule="evenodd" d="M241.992 180.565C242.758 257.406 189.704 302.244 119 307.723V290.951C170.414 287.994 208.013 251.05 208.559 200.079H167.668V180.565H241.992Z" fill="white"/>
<path fill-rule="evenodd" clip-rule="evenodd" d="M172.048 32.2491C171.39 33.0153 172.267 33.7814 172.706 34.4399C223.242 99.8804 74.376 162.256 160.647 226.165C161.198 226.603 162.511 227.258 163.169 226.711C163.824 226.164 163.057 225.179 162.618 224.632C95.4221 148.776 253.383 104.925 174.678 33.1271C174.131 32.6881 172.926 31.483 172.048 32.2491Z" fill="#ED1C24"/>
</svg>
