<svg width="360" height="360" viewBox="0 0 360 360" fill="none" xmlns="http://www.w3.org/2000/svg">
<rect width="360" height="360" rx="82" fill="black"/>
<path d="M196.532 246.501C180.9 246.501 171.705 234.356 170.594 212.327V211.331H238.905V205.354C238.905 165.816 223.312 144.055 194.999 144.055C173.085 144.055 147.492 159.916 147.492 204.703C147.492 242.67 165.422 265.351 195.421 265.351C212.834 265.151 228.948 256.098 238.177 241.329L223.656 230.87C216.645 240.218 209.251 246.501 196.532 246.501ZM170.824 194.32C173.276 167.502 186.877 163.326 194.769 163.326C208.638 163.326 215.956 173.478 217.143 194.359V195.393H170.709L170.824 194.32ZM102.706 222.978C102.706 240.946 92.3614 244.7 83.5496 244.7C74.0706 244.224 64.9139 241.105 57.1144 235.697L47 253.244C58.6085 261.126 72.315 265.343 86.3464 265.351C112.667 265.351 127.072 250.869 127.072 224.548V99.5747H102.706V222.978ZM312.004 146.354H290.473V132.791C290.473 119.535 299.552 118.003 306.372 118.003C307.483 118.003 311.046 118.003 313 118.348V99.5747C311.161 99.5747 305.031 99 301.008 99C277.753 99 266.911 109.153 266.911 130.876V146.2H249.977V164.59H266.911V262.899H290.473V164.897H312.004V146.354Z" fill="white"/>
</svg>
