<svg width="360" height="360" viewBox="0 0 360 360" fill="none" xmlns="http://www.w3.org/2000/svg">
<rect width="360" height="360" rx="82" fill="#1B3769"/>
<path d="M88.7215 151.442C84.9112 169.517 81.5894 187.689 77.8769 211.235C76.1183 222.275 71.8195 230.481 53.4519 230.481C47.0037 230.481 40.6532 229.798 34.4004 228.723L35.6705 209.867C37.8199 210.551 39.9693 211.039 42.2164 211.039C48.5669 211.039 51.4002 208.304 53.1588 202.051C56.0898 191.695 58.7277 175.476 62.538 151.345H88.7215V151.442ZM92.141 132C91.3594 135.419 90.0893 140.793 89.0146 146.557H64.1989C65.2736 141.672 66.0552 136.787 66.8368 132H92.141Z" fill="white"/>
<path d="M95.0723 204.983C101.423 181.339 105.917 157.403 109.727 133.466H135.52C129.756 157.305 124.578 181.046 120.963 204.983H95.0723ZM145.095 151.443H173.232L153.692 174.989L163.755 204.983H136.204L127.997 174.793L145.095 151.443Z" fill="white"/>
<path d="M215.732 133.466C213.68 141.478 211.628 149.391 210.358 157.012C213.582 154.374 220.421 149.978 230.875 149.978C245.628 149.978 249.536 156.914 248.168 165.707C247.484 170.006 242.99 188.862 240.352 204.983H214.266C216.122 196.971 218.174 188.862 219.444 180.851C220.03 176.943 221.105 170.299 215.927 170.299C210.651 170.299 207.72 175.966 206.157 180.265C203.226 188.471 202.054 196.776 200.197 204.983H173.721C179.485 182.805 184.37 162.092 188.962 133.466H215.732Z" fill="white"/>
<path d="M285.486 151.442H259.986L269.17 205.861C267.704 211.332 262.917 213.384 258.325 213.384C254.417 213.384 250.9 212.211 247.871 210.16L247.578 228.723C252.268 229.797 257.055 230.481 261.94 230.481C271.905 230.481 282.359 228.429 290.664 214.361L327.399 151.54H302.681L287.147 184.171L285.486 151.442Z" fill="white"/>
</svg>
