<svg width="360" height="360" viewBox="0 0 360 360" fill="none" xmlns="http://www.w3.org/2000/svg">
<rect width="360" height="360" rx="82" fill="#EC1B24"/>
<path fill-rule="evenodd" clip-rule="evenodd" d="M307.989 149.001C301.297 153.264 292.881 161.268 284.16 171.396C282.857 159.944 281.44 148.018 280.566 134.393C278.569 102.544 278.448 75.9549 283.721 62.3474C286.844 54.2337 283.849 52.6474 278.448 54.9829C255.854 64.635 222.735 92.7543 222.07 137.936C221.845 153.71 225.566 167.715 231.54 179.115C223.534 186.104 213.818 185.042 206.289 186.483C202.595 174.16 199.312 159.785 186.579 152.8C165.631 137.28 138.596 152.843 117.582 166.815C116.431 156.745 115.268 146.232 114.51 134.393C112.51 102.544 112.378 75.9549 117.654 62.3474C120.782 54.2337 117.79 52.6474 112.378 54.9829C89.7923 64.6366 56.6696 92.7559 56.0098 137.936C55.5258 171.717 72.9562 197.517 92.4872 206.536C91.9058 207.514 91.262 208.465 90.6501 209.41C76.3301 233.157 72.4737 245.725 68.7659 259.887C63.3935 280.622 65.0453 302.81 78.3573 305.615C96.5561 309.483 115.282 277.323 119.416 246.33C122.787 220.721 121.404 201.1 119.182 180.713C119.426 180.395 119.766 179.956 119.999 179.678C121.888 177.35 123.683 174.948 125.381 172.478C133.765 164.511 143.262 159.632 152.079 155.68C162.351 153.209 173.032 155.269 180.832 161.841C184.523 166.359 189.868 171.69 187.805 177.443C179.594 175.39 173.032 170.053 163.99 170.46C155.363 169.639 146.742 170.88 142.226 178.682C139.352 184.838 144.272 190.585 148.382 195.101C159.886 208.247 194.378 188.539 196.432 211.947C202.186 209.886 201.774 201.672 204.239 196.33C214.423 192.339 223.971 190.91 237.338 188.443C243.431 196.728 250.817 202.964 258.548 206.538C257.971 207.516 257.334 208.466 256.714 209.412C242.386 233.159 238.542 245.726 234.83 259.888C229.46 280.624 231.117 302.811 244.427 305.617C262.615 309.484 281.344 277.325 285.482 246.332C288.857 220.722 287.469 201.102 285.245 180.714C285.485 180.396 285.819 179.957 286.063 179.679C294.26 169.513 305.601 159.309 309.495 155.271C312.545 152.036 313.622 145.405 307.989 149.001ZM107.251 259.778C104.246 291.022 89.9264 293.824 83.6818 291.522C76.3285 288.795 74.33 266.187 85.6707 237.525C91.0814 223.831 97.9172 211.58 104.238 201.672C106.82 222.984 108.809 243.525 107.251 259.778ZM110.903 66.346C106.766 75.7936 98.5018 93.6329 97.4858 123.54C96.7925 143.186 99.946 167.168 102.903 190.831C100.432 194.32 98.0274 197.929 95.6343 201.584C81.7584 191.913 74.8508 171.395 73.8891 139.742C72.3811 92.3565 95.4554 69.1512 108.157 63.151C111.255 61.6765 112.886 61.8554 110.903 66.346ZM184.523 191.408C178.78 193.458 168.92 192.223 163.174 188.537C161.53 186.892 157.01 183.601 159.888 180.317C169.329 174.973 177.545 180.727 184.523 188.537V191.408ZM273.312 259.778C270.31 291.022 255.992 293.824 249.752 291.522C242.386 288.795 240.392 266.187 251.726 237.525C257.152 223.831 263.973 211.58 270.304 201.672C272.882 222.984 274.876 243.525 273.312 259.778ZM276.959 66.346C272.821 75.7936 264.566 93.6329 263.543 123.54C262.859 143.186 266.005 167.168 268.968 190.831C266.474 194.367 264.05 197.952 261.698 201.584C247.822 191.913 240.911 171.395 239.951 139.742C238.448 92.3565 261.521 69.1512 274.222 63.151C277.322 61.6765 278.948 61.8554 276.959 66.346Z" fill="white"/>
</svg>
