<svg width="360" height="360" viewBox="0 0 360 360" fill="none" xmlns="http://www.w3.org/2000/svg">
<rect width="360" height="360" rx="82" fill="#231F20"/>
<mask id="path-4-outside-1" maskUnits="userSpaceOnUse" x="269.143" y="121.905" width="49.9831" height="97.1893" fill="black">
<rect fill="white" x="269.143" y="121.905" width="49.9831" height="97.1893"/>
<path d="M308.635 123.624C273.415 123.624 271.92 139.403 271.92 161.665V216.317H280.223V161.665C280.223 144.885 279.56 131.429 308.635 131.429C311.749 131.429 314.512 131.594 317 131.886V123.974C314.434 123.748 311.666 123.624 308.635 123.624Z"/>
</mask>
<path d="M308.635 123.624C273.415 123.624 271.92 139.403 271.92 161.665V216.317H280.223V161.665C280.223 144.885 279.56 131.429 308.635 131.429C311.749 131.429 314.512 131.594 317 131.886V123.974C314.434 123.748 311.666 123.624 308.635 123.624Z" fill="white"/>
<path d="M271.92 216.317V217.706H270.532V216.317H271.92ZM280.223 216.317H281.612V217.706H280.223V216.317ZM317 131.886H318.388V133.447L316.838 133.265L317 131.886ZM317 123.974L317.122 122.591L318.388 122.703V123.974H317ZM308.635 125.012C291.165 125.012 282.579 128.935 278.202 135.1C275.985 138.223 274.749 142.048 274.077 146.535C273.404 151.031 273.308 156.097 273.308 161.665H270.532C270.532 156.102 270.623 150.847 271.331 146.124C272.04 141.391 273.379 137.097 275.938 133.493C281.113 126.203 290.885 122.236 308.635 122.236V125.012ZM273.308 161.665V216.317H270.532V161.665H273.308ZM271.92 214.929H280.223V217.706H271.92V214.929ZM278.835 216.317V161.665H281.612V216.317H278.835ZM278.835 161.665C278.835 157.504 278.792 153.426 279.194 149.712C279.597 145.987 280.459 142.494 282.354 139.51C286.216 133.43 293.957 130.041 308.635 130.041V132.817C294.238 132.817 287.773 136.157 284.698 140.999C283.124 143.477 282.335 146.494 281.954 150.011C281.572 153.539 281.612 157.436 281.612 161.665H278.835ZM308.635 130.041C311.798 130.041 314.616 130.208 317.162 130.507L316.838 133.265C314.409 132.98 311.699 132.817 308.635 132.817V130.041ZM315.612 131.886V123.974H318.388V131.886H315.612ZM316.878 125.357C314.355 125.134 311.628 125.012 308.635 125.012V122.236C311.704 122.236 314.513 122.361 317.122 122.591L316.878 125.357Z" fill="white" mask="url(#path-4-outside-1)"/>
<mask id="path-6-outside-2" maskUnits="userSpaceOnUse" x="88.6841" y="121.905" width="80.5283" height="97.1893" fill="black">
<rect fill="white" x="88.6841" y="121.905" width="80.5283" height="97.1893"/>
<path d="M165.714 160.998V216.317H157.242V160.833C157.242 144.885 157.407 131.429 128.172 131.429C99.0972 131.429 99.7644 144.885 99.7644 161.665V216.317H91.4609V161.665C91.4609 139.403 92.9561 123.624 128.172 123.624C163.556 123.624 165.714 139.403 165.714 160.998Z"/>
</mask>
<path d="M165.714 160.998V216.317H157.242V160.833C157.242 144.885 157.407 131.429 128.172 131.429C99.0972 131.429 99.7644 144.885 99.7644 161.665V216.317H91.4609V161.665C91.4609 139.403 92.9561 123.624 128.172 123.624C163.556 123.624 165.714 139.403 165.714 160.998Z" fill="white"/>
<path d="M165.714 216.317H167.103V217.706H165.714V216.317ZM157.242 216.317V217.706H155.854V216.317H157.242ZM99.7644 216.317H101.153V217.706H99.7644V216.317ZM91.4609 216.317V217.706H90.0725V216.317H91.4609ZM167.103 160.998V216.317H164.326V160.998H167.103ZM165.714 217.706H157.242V214.929H165.714V217.706ZM155.854 216.317V160.833H158.63V216.317H155.854ZM155.854 160.833C155.854 156.822 155.862 153.085 155.433 149.684C155.007 146.296 154.158 143.357 152.519 140.927C149.302 136.157 142.647 132.818 128.172 132.818V130.041C142.932 130.041 150.812 133.43 154.821 139.375C156.795 142.302 157.732 145.717 158.188 149.337C158.643 152.945 158.63 156.871 158.63 160.833H155.854ZM128.172 132.818C113.775 132.818 107.312 136.157 104.237 140.999C102.664 143.477 101.875 146.494 101.495 150.011C101.113 153.54 101.153 157.436 101.153 161.665H98.376C98.376 157.504 98.3323 153.426 98.7341 149.713C99.1371 145.987 99.9987 142.494 101.893 139.511C105.754 133.43 113.494 130.041 128.172 130.041V132.818ZM101.153 161.665V216.317H98.376V161.665H101.153ZM99.7644 217.706H91.4609V214.929H99.7644V217.706ZM90.0725 216.317V161.665H92.8494V216.317H90.0725ZM90.0725 161.665C90.0725 156.102 90.1642 150.848 90.8717 146.124C91.5804 141.392 92.9192 137.098 95.4783 133.493C100.653 126.203 110.424 122.236 128.172 122.236V125.013C110.704 125.013 102.119 128.935 97.7426 135.1C95.5259 138.223 94.29 142.048 93.6179 146.535C92.9445 151.031 92.8494 156.098 92.8494 161.665H90.0725ZM128.172 122.236C146.006 122.236 155.963 126.203 161.324 133.382C166.604 140.451 167.103 150.273 167.103 160.998H164.326C164.326 150.128 163.745 141.263 159.1 135.044C154.536 128.934 145.722 125.013 128.172 125.013V122.236Z" fill="white" mask="url(#path-6-outside-2)"/>
<path d="M183.05 125.618V124.924H183.744H226.205C236.838 124.924 244.694 127.567 249.889 132.682C255.085 137.799 257.501 145.275 257.501 154.689C257.501 164.161 255.118 171.89 249.932 177.251C244.743 182.616 236.856 185.495 226.089 185.495H192.569V216.318V217.012H191.875H183.744H183.05V216.318V125.618ZM226.328 175.952C233.561 175.952 238.845 174.189 242.324 170.77C245.801 167.353 247.595 162.165 247.595 155.051C247.595 147.956 245.665 142.845 242.076 139.498C238.477 136.143 233.096 134.451 225.966 134.451H192.569V175.952H226.328Z" fill="white" stroke="white" stroke-width="0.5"/>
<mask id="path-9-outside-3" maskUnits="userSpaceOnUse" x="35.2232" y="122.15" width="44.4294" height="116.627" fill="black">
<rect fill="white" x="35.2232" y="122.15" width="44.4294" height="116.627"/>
<path d="M41.1591 236C76.3747 236 77.8739 220.221 77.8739 197.959V125.452H69.5663V197.959C69.5663 214.735 70.2295 228.195 41.1591 228.195C40.0594 228.195 39.0173 228.166 38 228.125V235.959C39.0215 235.984 40.0717 236 41.1591 236"/>
</mask>
<path d="M41.1591 236C76.3747 236 77.8739 220.221 77.8739 197.959V125.452H69.5663V197.959C69.5663 214.735 70.2295 228.195 41.1591 228.195C40.0594 228.195 39.0173 228.166 38 228.125V235.959C39.0215 235.984 40.0717 236 41.1591 236" fill="white"/>
<path d="M77.8739 125.452V124.063H79.2623V125.452H77.8739ZM69.5663 125.452H68.1779V124.063H69.5663V125.452ZM38 228.125H36.6116V226.679L38.0562 226.738L38 228.125ZM38 235.959L37.9664 237.347L36.6116 237.314V235.959H38ZM41.1591 234.612C58.627 234.612 67.2125 230.689 71.5903 224.524C73.8075 221.401 75.0439 217.576 75.7163 213.089C76.3901 208.593 76.4855 203.527 76.4855 197.959H79.2623C79.2623 203.522 79.1704 208.777 78.4625 213.5C77.7534 218.233 76.414 222.527 73.8544 226.132C68.6787 233.421 58.9068 237.388 41.1591 237.388V234.612ZM76.4855 197.959V125.452H79.2623V197.959H76.4855ZM77.8739 126.84H69.5663V124.063H77.8739V126.84ZM70.9548 125.452V197.959H68.1779V125.452H70.9548ZM70.9548 197.959C70.9548 202.119 70.9982 206.196 70.5961 209.91C70.1927 213.635 69.3307 217.128 67.4362 220.112C63.5751 226.193 55.8354 229.583 41.1591 229.583V226.806C55.5532 226.806 62.0171 223.467 65.092 218.624C66.6655 216.145 67.4546 213.128 67.8354 209.611C68.2174 206.083 68.1779 202.187 68.1779 197.959H70.9548ZM41.1591 229.583C40.0351 229.583 38.9733 229.554 37.9438 229.512L38.0562 226.738C39.0614 226.778 40.0837 226.806 41.1591 226.806V229.583ZM39.3884 228.125V235.959H36.6116V228.125H39.3884ZM38.0336 234.571C39.047 234.595 40.0857 234.612 41.1591 234.612V237.388C40.0578 237.388 38.9959 237.372 37.9664 237.347L38.0336 234.571Z" fill="white" mask="url(#path-9-outside-3)"/>
</svg>
