<svg width="360" height="360" viewBox="0 0 360 360" fill="none" xmlns="http://www.w3.org/2000/svg">
<rect width="360" height="360" rx="82" fill="black"/>
<path fill-rule="evenodd" clip-rule="evenodd" d="M58 69.3007C139.766 8.33224 221.333 12.165 302.89 69.3007V290.775C221.333 347.911 139.766 351.545 58 290.775V69.3007Z" fill="black"/>
<path fill-rule="evenodd" clip-rule="evenodd" d="M292.803 74.5471V285.319C218.305 335.794 141.796 338.611 68.1035 285.518V74.3378C141.785 21.4433 218.294 24.0716 292.803 74.5471Z" fill="white"/>
<path fill-rule="evenodd" clip-rule="evenodd" d="M277.46 82.8203V277.046C212.051 318.84 147.648 320.861 83.4434 277.454V82.4224C148.046 39.0156 212.648 41.6335 277.46 82.8203Z" fill="black"/>
<path fill-rule="evenodd" clip-rule="evenodd" d="M120.791 264.122C123.21 263.316 125.629 262.907 127.86 262.907C130.08 262.907 132.499 263.316 134.928 264.122C133.714 221.124 133.315 188.419 133.315 166.198C133.315 155.506 133.514 144.594 133.724 133.902L183.383 196.692C204.986 223.951 222.758 247.367 236.078 267.358H238.906C238.707 249.796 238.508 231.009 238.508 211.228C238.508 176.303 238.906 137.734 240.12 95.5424C238.099 96.1498 235.67 96.5479 233.659 96.5479C231.638 96.5479 229.418 96.1394 227.198 95.5424C228.004 117.754 228.811 152.888 228.811 200.525C228.811 206.578 228.601 213.845 228.413 222.129C197.928 185.382 163.611 142.991 127.462 92.3169H123.42V118.56C123.42 169.433 122.613 217.888 120.791 264.122Z" fill="white"/>
</svg>
