<svg width="360" height="360" viewBox="0 0 360 360" fill="none" xmlns="http://www.w3.org/2000/svg">
<rect width="360" height="360" rx="82" fill="#D31245"/>
<path d="M328.701 161.979C323.141 161.969 318.098 166.452 311.825 171.673C306.069 176.456 294.292 188.548 283.548 195.437C286.542 190.733 293.759 180.568 294.845 175.798C295.986 170.798 292.321 168.857 287.279 171.949C281.785 175.337 276.545 191.621 268.785 191.621C267.37 191.621 266.383 190.93 266.397 189.351C266.43 184.581 273.814 175.074 287.071 169.844C289.127 169.022 289.917 167.696 289.927 166.555C289.927 166.193 289.867 163.778 285.795 163.778C272.703 163.778 255.031 179.058 252.554 190.772C250.005 193.338 245.416 197.141 239.6 199.621C246.166 190.322 251.817 182.844 254.781 175.081C258.202 166.035 253.334 164.85 248.334 167.495C243.465 170.068 240.044 177.209 238.597 179.93C237.182 182.627 235.965 186.081 231.689 189.519C227.412 192.956 222.971 192.381 226.103 185.67C228.909 179.676 235.215 173.39 240.643 170.495C241.926 169.805 243.054 169.397 243.011 167.666C242.945 164.92 239.768 163.015 235.238 164.969C229.086 167.633 226.133 169.41 220.919 169.41C216.78 169.41 214.636 168.291 212.869 167.558C210.501 166.551 208.757 166.9 207.836 167.196C207.007 167.479 205.698 168.281 204.602 169.482C203.734 170.436 203.001 171.999 202.826 173.002C201.609 180.338 195.188 193.496 190.471 193.496C188.842 193.496 187.05 193.035 187.51 189.285C188.267 183.147 195.668 174.851 197.379 173.199C199.089 171.535 202.313 170.403 202.543 168.561C202.741 167.015 201.8 165.288 198.76 165.288C188.783 165.288 175.451 179.117 174.122 191.539C172.575 192.986 170.714 194.4 168.585 194.4C163.98 194.4 162.671 190.091 163 186.67C175.118 175.736 198.106 151.357 198.8 134.004C198.964 129.86 196.944 127.787 193.55 127.787C184.997 127.787 173.01 140.287 165.556 149.926C156.384 161.794 150.74 176.127 148.746 186.992C142.035 192.815 139.312 193.203 136.391 193.203C132.331 193.203 130.913 190.266 131.042 187.956C142.358 177.673 162.029 153.173 162.424 141.064C162.542 137.478 160.516 135.787 156.888 135.787C149.174 135.787 138.249 143.929 130.394 154.65C122.548 165.374 117.459 177.986 116.018 189.42C110.147 194.697 105.755 195.769 102.137 195.769C99.949 195.769 98.3437 194.229 97.9588 193.585C103.156 190.585 114.999 183.058 114.999 171.841C114.999 166.268 111.239 163.781 107.498 163.781C97.9851 163.781 83.0243 175.637 83.123 191.999C83.123 192.289 83.169 193.295 83.2216 193.66C78.9123 195.141 75.9452 196.654 76.6294 199.753C77.2544 202.562 80.7413 202.417 85.2809 200.815C86.327 202.756 90.7744 205.957 97.0574 205.957C105.564 205.957 112.058 201.92 117.189 197.535C119.344 202.585 124.657 205.233 130.216 205.233C136.96 205.233 143.637 200.66 148.901 196.516C149.513 200.387 153.45 206.417 160.263 206.417C166.48 206.417 171.23 202.799 174.984 198.884C175.97 202.832 179.589 205.957 184.306 205.957C200.04 205.957 208.863 183.686 210.895 175.693C211.159 174.673 212.132 174.443 212.803 174.683C215.731 175.703 217.165 176.209 220.863 175.788C214.876 180.492 209.599 188.519 209.599 194.384C209.599 200.239 214.675 202.96 218.382 202.96C222.1 202.96 227.014 200.559 230.248 197.532C229.393 199.256 228.241 201.891 226.399 203.749C223.011 204.68 213.076 208.266 206.76 212.105C200.773 215.756 194.984 221.559 194.984 228.237C194.984 231.809 197.912 236 204.797 236C216.369 236 224.468 228.434 235.389 208.565C244.436 204.772 249.863 201.23 253.416 198.22C254.975 200.937 257.975 202.2 260.982 202.2C265.423 202.2 268.088 200.917 271.673 198.341C271.18 199.558 270.39 201.387 269.173 203.012C262.706 205.703 254.939 209.263 250.962 211.664C240.353 218.059 238.001 223.792 238.001 228.309C238.001 231.072 240.37 235.875 247.518 235.875C262.979 235.875 272.551 216.648 278.788 205.776C283.361 203.351 289.894 198.855 296.608 193.703C296.377 194.526 296.269 195.381 296.269 196.351C296.269 201.177 300.644 205.716 307.815 205.716C321.983 205.716 326.391 195.276 326.217 184.006C326.151 180.321 325.608 177.387 325.559 176.078C325.427 172.637 326.572 170.782 329.704 170.782C332.862 170.782 335 170.222 335 167.525C335 163.791 332.336 162.097 328.717 162.097L328.701 161.979ZM185.951 142.097C186.355 142.097 186.523 142.459 186.51 143.018C186.388 147.459 174.964 165.403 164.395 175.847C170.756 157.146 183.441 142.097 185.941 142.097H185.951ZM95.6035 187.111C96.064 179.14 102.38 172.999 104.873 172.999C105.794 172.999 106.222 173.525 106.222 174.62C106.222 177.463 102.406 183.403 95.62 187.111H95.6035ZM149.305 148.689C149.782 148.689 149.986 149.061 149.97 149.666C149.888 152.949 141.664 168.022 131.108 178.466C136.654 161.525 145.68 148.696 149.299 148.696L149.305 148.689ZM207.053 225.868C206.244 225.868 205.836 225.342 205.836 224.566C205.836 219.72 216.593 213.993 222.234 211.924C219.8 215.865 210.866 225.872 207.043 225.872L207.053 225.868ZM250.104 226.135C249.314 226.135 249.018 225.661 249.018 224.885C249.018 220.608 258.768 213.983 264.403 211.917C261.475 216.983 253.334 226.128 250.094 226.128L250.104 226.135ZM308.861 195.338C308.184 195.338 307.151 195.173 307.151 192.894C307.151 191.236 306.361 189.4 303.473 189.4C303.078 189.4 302.651 189.433 302.164 189.516C308.348 184.614 313.184 179.219 317.69 175.568C316.769 186.719 314.105 195.338 308.841 195.338" fill="white"/>
<path d="M303.427 159.913C303.22 161.87 301.039 162.749 300.848 164.499C300.739 165.518 301.46 166.193 302.73 166.176C305.973 166.143 314.671 161.123 315.427 153.314C315.809 149.377 313.348 145.959 309.055 145.959C304.713 145.959 300.785 150.031 300.42 153.452C300.068 156.798 303.628 158.008 303.427 159.913ZM77.3794 214.986C74.5932 214.842 73.2873 211.516 73.2873 207.486C73.2873 203.055 76.1492 193.456 77.284 188.914C78.4354 184.331 78.9288 176.92 74.784 172.67C90.5409 166.331 113.864 144.742 116.857 140.028C119.851 135.307 120.443 129.304 116.298 126.304C112.186 123.304 105.443 127.218 101.462 132.949C90.508 148.745 83.896 156.456 76.4287 162.949C70.6062 168.015 67.7772 168.097 64.9811 168.485C64.9811 168.485 75.738 150.876 79.7512 145.59C84.5704 139.268 78.6328 136.906 72.8761 140.899C71.7083 141.712 62.6061 148.005 51.5796 153.696C31.941 163.828 27.2139 168.499 27.2139 174.578C27.2139 177.275 29.0889 180.67 33.0363 180.67C40.7339 180.67 48.3459 166.913 52.073 163.489C53.5204 162.14 56.8855 159.212 58.1915 159.212C58.6191 159.212 58.9152 159.475 58.9152 160.298C58.9152 162.929 53.8066 170.397 45.8886 178.949C34.4015 191.351 25 196.351 25 204.279C25 209.444 28.8816 212.24 33.0791 212.24C41.928 212.24 47.8492 200.43 51.3887 194.575C52.8032 192.239 60.6093 177.69 62.2541 174.542C63.9647 175.453 65.0173 177.351 64.4581 181.206C63.4054 188.147 57.2211 196.555 57.2211 208.279C57.2211 217.852 66.07 220.855 69.6227 220.862C72.9056 220.862 77.2478 219.595 78.3268 216.309C78.4584 215.816 78.2939 214.983 77.4189 214.927L77.3794 214.986Z" fill="white"/>
</svg>
