<svg width="360" height="360" viewBox="0 0 360 360" fill="none" xmlns="http://www.w3.org/2000/svg">
<rect width="360" height="360" rx="82" fill="#CC0000"/>
<path d="M123.669 195.402C120.46 195.402 117.25 194.439 114.683 192.674L109.869 197.327C111.634 199.574 112.757 202.462 112.757 205.35C112.757 213.534 106.178 219.953 98.1553 219.953C90.1321 219.953 83.5531 213.373 83.5531 205.35C83.5531 202.462 84.5159 199.574 86.1205 197.327L81.3066 192.674C78.7392 194.278 75.8508 195.241 72.802 195.402C68.9508 195.562 65.2602 193.957 62.3718 191.39C59.6439 188.502 58.0393 184.811 58.0393 180.799C58.0393 172.616 64.6183 166.197 72.6415 166.197C75.8508 166.197 78.8996 167.32 81.467 169.406L86.2809 164.753C84.5158 162.186 83.5531 159.137 83.7135 155.927C83.7135 147.744 90.2925 141.325 98.3157 141.325C102.167 141.325 106.018 142.769 108.746 145.658C111.474 148.386 112.918 152.076 112.918 155.927C112.918 159.137 111.795 162.186 110.03 164.753L114.844 169.406C117.411 167.32 120.62 166.197 123.83 166.358C131.853 165.555 139.074 171.492 139.876 179.516C140.678 187.539 134.741 194.76 126.718 195.562C125.755 195.722 124.792 195.722 123.83 195.562L123.669 195.402ZM319.756 162.827H166.673C164.266 158.334 161.057 154.162 157.046 150.953C151.108 145.818 143.246 143.572 135.543 145.016L134.26 145.337L134.42 143.893C135.383 135.869 132.655 127.846 127.039 122.07C112.918 106.023 88.5274 104.579 72.6415 118.7C71.5183 119.823 70.395 120.946 69.2718 122.07C63.9765 128.007 61.4091 135.869 62.0509 143.893L62.2113 145.337L60.7672 145.016C52.9044 143.732 44.8813 145.818 38.7837 150.953C22.5768 164.432 20.3303 188.502 33.8093 204.708C35.2534 206.474 36.8581 208.078 38.7837 209.683C44.8813 214.818 52.9044 216.904 60.7672 215.62L62.2113 215.299L62.0509 216.743C61.2486 224.606 63.9765 232.629 69.2718 238.566C83.3926 254.613 107.783 256.057 123.83 241.936C124.953 240.813 126.076 239.85 127.199 238.566C132.815 232.79 135.543 224.766 134.581 216.743L134.42 215.299L135.864 215.62C143.567 216.904 151.429 214.818 157.366 209.683C162.18 205.19 165.711 199.734 167.957 193.636H245.943C250.436 193.316 254.126 196.846 254.447 201.178C254.447 201.339 254.447 201.339 254.447 201.499C254.447 206.153 250.757 209.843 246.103 209.843C246.103 209.843 246.103 209.843 245.943 209.843H238.882V251.403H269.852V218.187C269.852 213.694 273.542 209.843 278.196 209.843H278.356C283.17 209.683 287.182 213.373 287.503 218.187V251.564H318.151V210.004H311.251C306.758 210.164 302.907 206.474 302.747 201.981V201.82C302.747 197.327 306.437 193.797 310.93 193.797C311.091 193.797 311.091 193.797 311.251 193.797H319.595C328.1 193.797 335 187.057 335 178.553C335 170.048 328.1 163.148 319.595 162.988" fill="white"/>
</svg>
