<svg width="360" height="360" viewBox="0 0 360 360" fill="none" xmlns="http://www.w3.org/2000/svg">
<rect width="360" height="360" rx="82" fill="#E90029"/>
<path d="M335 184.177C332.598 183.833 327.452 181.26 323.677 167.193C317.673 144.719 314.928 125.333 304.978 125.333C295.028 125.333 290.396 144.719 284.563 167.193C281.132 180.574 277.357 184.177 271.525 184.177C266.035 184.177 260.202 181.432 251.796 146.606C244.419 116.241 239.444 61 214.568 61C189.693 61 182.488 132.882 179.228 146.778C175.282 163.933 165.504 184.177 153.323 184.177C140.971 184.177 134.624 170.109 131.021 154.841C125.36 131.681 119.012 98.0559 102.714 98.0559C86.4167 98.0559 81.0985 125.848 73.8932 156.213C69.6043 174.055 62.7421 184.177 50.9048 184.177H25V184.348C28.4311 185.377 35.1218 191.039 36.8373 201.847C40.9546 227.408 44.0426 243.191 52.9635 243.191C61.8843 243.191 65.1439 229.467 70.2905 208.194C74.4079 191.553 80.5838 184.177 88.1323 184.177C99.2833 184.177 104.43 197.558 110.434 223.291C122.443 274.415 125.017 299.118 144.402 299.118C163.616 299.118 166.704 274.415 179.571 223.291C185.232 201.161 195.697 184.177 208.049 184.177C220.401 184.177 229.151 200.474 233.611 213.512C243.218 241.819 247.678 252.455 258.315 252.455C268.951 252.455 274.956 239.76 284.391 208.88C290.224 189.495 291.253 184.177 308.581 184.177H335Z" fill="white"/>
</svg>
