<svg width="360" height="360" viewBox="0 0 360 360" fill="none" xmlns="http://www.w3.org/2000/svg">
<rect width="360" height="360" rx="82" fill="#FF0000"/>
<path d="M168.231 100.363C130.22 101.453 92.7074 108.442 62.1876 120.082C57.6398 121.836 48.7546 125.583 45.2321 127.284C44.8641 127.444 44.3646 128.002 44.128 128.507C43.2343 130.287 43.4709 131.483 46.6516 141.609C48.6232 147.88 49.5958 151.335 49.4907 151.814C49.3067 152.85 48.2289 154.258 47.2563 154.684C46.7831 154.896 44.9167 155.534 43.0503 156.145C39.4226 157.315 29.6699 161.062 27.9086 161.992C26.3314 162.789 25.7005 163.905 25.8845 165.58C26.0159 166.962 42.0776 221.521 42.7874 223.063C43.024 223.541 43.576 224.232 44.0492 224.604L44.8904 225.242H179.667C278.797 225.242 314.6 225.162 315.021 224.949C316.204 224.338 317.045 223.249 317.571 221.681C319.49 215.781 333.922 166.377 334.053 165.314C334.185 164.118 334.106 163.879 333.475 163.108C333.081 162.63 332.397 162.045 331.977 161.832C330.531 161.088 320.489 157.235 317.124 156.119C315.258 155.534 313.312 154.843 312.734 154.604C311.525 154.099 310.5 152.664 310.421 151.362C310.368 150.485 315.363 132.865 316.046 131.51C316.519 130.553 316.151 128.56 315.31 127.683C314.916 127.258 314.443 126.912 314.259 126.912C314.075 126.912 312.471 126.248 310.684 125.424C281.399 112.003 243.992 103.419 203.746 100.868C198.173 100.523 183.11 100.071 178.51 100.124C176.565 100.151 171.938 100.257 168.231 100.363ZM211.974 128.56C212.289 128.959 212.395 129.357 212.289 129.809C210.922 135.576 210.502 136.772 209.319 138.101C208.083 139.509 206.375 140.492 202.353 142.193C201.117 142.698 199.435 143.309 198.62 143.522C197.305 143.841 197.016 143.867 196.385 143.522C194.834 142.725 194.729 140.811 195.991 136.745C197.148 133.078 197.595 132.307 199.251 131.191C201.643 129.596 204.456 128.587 208.399 128.002C210.397 127.683 211.396 127.842 211.974 128.56ZM116.734 129.968C117.155 130.208 117.575 130.659 117.654 130.978C117.759 131.35 116.13 137.728 113.475 147.429C111.082 156.145 109.111 163.4 109.111 163.56C109.111 163.773 111.03 163.852 115.788 163.852H122.465L122.57 163.241C122.649 162.922 124.147 157.341 125.909 150.83C128.458 141.343 129.326 138.526 130.272 136.559C131.613 133.822 133.506 131.536 135.372 130.42L136.581 129.703L143.39 129.623C147.123 129.57 150.356 129.596 150.593 129.703C150.908 129.809 150.777 130.101 149.935 130.978C147.175 133.848 144.494 139.722 141.576 149.262C139.631 155.587 131.087 189.232 130.982 190.959C130.851 193.218 131.192 194.281 132.638 195.982L133.847 197.417L133.243 198.028C131.56 199.703 127.118 201.616 123.175 202.36C120.651 202.839 115.446 203.184 114.763 202.918C113.816 202.546 113.264 201.244 113.291 199.331C113.291 197.417 113.501 196.567 117.681 180.807C119.337 174.562 120.677 169.353 120.677 169.194C120.677 168.981 118.574 168.902 114.027 168.902H107.376L105.483 175.466C102.933 184.262 101.671 186.893 98.2804 190.561C94.9681 194.175 84.1902 200.287 77.04 202.626C72.4134 204.141 71.1516 204.353 66.9193 204.38C62.5293 204.38 61.583 204.167 58.2444 202.413C52.5926 199.463 47.4403 190.109 46.9145 181.844C46.6779 178.017 47.046 176.263 48.3078 175.12C49.701 173.871 54.5116 171.506 58.0867 170.31C62.0036 169.008 61.7933 168.716 61.6092 175.386C61.5041 179.399 61.5567 181.02 61.8984 183.119C62.7659 188.381 64.9215 193.537 67.2348 195.796C69.3641 197.895 73.3335 199.038 76.5931 198.56C80.3785 197.975 84.8474 192.315 88.2385 183.864C88.7117 182.615 90.7358 175.838 92.7074 168.795C94.6527 161.779 97.4392 151.814 98.885 146.658C100.304 141.529 101.566 136.612 101.645 135.762C101.961 132.732 101.067 132.201 95.4413 132.015C90.8936 131.882 89.3689 132.121 86.5035 133.583C83.2702 135.23 81.1935 137.808 80.0105 141.662C79.6425 142.937 79.5373 144.107 79.5636 147.375C79.5636 152.132 79.7214 152.717 82.3238 158.271C83.165 160.079 83.7696 161.673 83.6645 161.753C83.4279 162.019 78.1178 162.736 75.0159 162.949C73.3598 163.082 72.3608 163.028 71.8351 162.816C70.6259 162.311 69.4429 159.68 68.26 154.949C66.0781 146.206 68.628 138.632 75.2525 134.194C80.5888 130.606 86.7664 129.676 106.035 129.596C114.447 129.57 116.077 129.623 116.734 129.968ZM252.404 149.501C255.243 150.06 256.847 151.893 256.847 154.604C256.847 156.145 256.347 158.138 251.852 174.217C247.015 191.597 246.726 193.059 248.067 194.68C248.461 195.132 249.223 195.743 249.775 196.035C250.354 196.328 250.801 196.646 250.801 196.779C250.801 198.321 237.683 203.45 233.714 203.45C232.136 203.45 230.796 202.732 230.244 201.589C229.376 199.862 229.692 197.55 231.611 191.624C232.163 189.87 233.635 184.687 234.897 180.09C236.132 175.492 237.683 169.991 238.314 167.839C238.945 165.686 239.55 163.214 239.628 162.364C239.786 161.009 239.734 160.69 239.234 160.052C238.787 159.494 238.445 159.334 237.631 159.334C234.87 159.334 230.244 162.55 228.377 165.792C227.405 167.44 226.958 168.795 224.355 177.539C220.807 189.551 220.807 189.551 220.649 193.75C220.57 196.195 220.386 197.656 220.176 198.028C219.282 199.437 210.554 203.104 207.4 203.37C205.481 203.556 204.692 203.104 203.956 201.377C203.089 199.437 203.378 196.54 204.876 191.889C205.533 189.843 207.715 182.774 209.713 176.21C213.183 164.703 213.315 164.171 213.341 161.859C213.341 159.653 213.288 159.388 212.579 158.325C212 157.474 211.869 157.049 212.053 156.757C212.184 156.517 213.472 155.72 214.918 154.923C219.124 152.637 228.009 149.927 229.797 150.378C231.085 150.724 231.4 152.558 230.664 155.561C230.033 158.059 230.033 158.059 233.74 155.508C237.447 152.983 242.415 150.777 246.332 149.953C249.959 149.183 250.459 149.129 252.404 149.501ZM178.194 151.202C180.403 152.345 181.664 154.019 182.216 156.65C183.294 161.726 178.221 168.104 169.73 172.303C166.838 173.738 162.106 175.519 158.952 176.343C157.69 176.688 156.481 177.113 156.297 177.299C156.113 177.485 155.692 178.628 155.351 179.851C154.877 181.605 154.746 182.721 154.746 185.378C154.72 189.152 154.956 189.923 156.586 191.757C158.137 193.484 159.267 193.936 162.448 194.095C165.734 194.255 167.206 193.936 170.755 192.421C172.201 191.783 173.489 191.358 173.62 191.491C174.146 192.022 173.331 193.298 170.676 195.982C165.682 201.058 162.028 202.892 155.114 203.742C152.012 204.114 149.594 203.902 147.017 203.025C143.232 201.749 141.234 200.022 139.736 196.726C138.605 194.255 138.237 192.288 138.264 189.072C138.316 180.276 142.365 169.779 148.463 162.656C154.536 155.561 162.185 151.76 172.99 150.458C174.777 150.246 176.933 150.538 178.194 151.202ZM204.797 150.83C205.087 151.123 205.376 151.654 205.481 152.026C205.77 153.249 204.561 158.059 200.381 172.224C195.387 189.205 195.071 190.375 195.071 192.315C195.071 193.67 195.176 193.989 195.86 194.786C196.307 195.265 197.148 195.876 197.726 196.115C198.751 196.54 198.778 196.593 198.383 197.045C197.805 197.709 193.336 199.995 190.392 201.164C187.264 202.413 183.268 203.45 181.638 203.45C179.929 203.45 178.168 202.573 177.642 201.457C176.512 199.038 176.801 197.045 179.588 188.621C184.898 172.596 187.5 163.613 187.553 161.168C187.579 159.653 187.474 159.281 186.817 158.325C186.422 157.713 186.133 157.049 186.212 156.836C186.764 155.375 194.729 151.973 200.46 150.75C203.089 150.166 204.167 150.192 204.797 150.83ZM297.934 150.591C298.697 151.016 298.881 151.309 298.697 151.946C298.618 152.239 292.913 160.318 285.973 169.911C275.984 183.731 273.408 187.478 273.46 188.009L273.539 188.7L285.868 188.78C293.86 188.807 298.539 188.754 299.196 188.567C300.432 188.222 301.746 186.946 303.139 184.767C304.085 183.279 304.164 183.04 304.164 181.206C304.164 178.974 303.849 178.123 302.482 176.927C301.457 176.024 300.142 175.705 297.987 175.864L296.672 175.944L296.751 175.014C296.856 173.446 298.118 171.267 299.38 170.363C300.432 169.646 300.721 169.566 302.666 169.566C306.136 169.593 308.712 171.054 309.869 173.605C310.421 174.801 310.5 175.306 310.368 176.396C309.842 180.382 305.558 188.249 299.275 196.832C297.908 198.693 296.383 200.58 295.857 201.031L294.937 201.855H275.09C258.371 201.855 255.112 201.802 254.349 201.483C253.85 201.271 253.429 200.978 253.429 200.845C253.429 200.553 255.743 197.178 257.451 194.946C260.001 191.65 263.839 187.053 270.253 179.665C280.506 167.839 282.083 165.766 282.083 164.224V163.321H273.776H265.469L264.076 164.782C262.814 166.111 262.183 166.483 261.789 166.111C261.473 165.792 264.181 158.032 265.522 155.348C266.179 154.072 267.572 152.478 269.018 151.362C270.227 150.432 271.752 150.325 284.659 150.325C293.754 150.299 297.54 150.378 297.934 150.591Z" fill="white"/>
<path d="M164.866 156.81C162.921 158.245 160.87 161.886 158.531 167.972C156.848 172.383 156.848 172.463 158.504 172.277C159.214 172.197 160.818 171.799 162.053 171.426C164.656 170.629 164.445 170.868 166.496 165.846C168.783 160.158 169.387 157.023 168.283 156.411C167.363 155.933 165.786 156.092 164.866 156.81Z" fill="white"/>
</svg>
