<svg width="360" height="360" viewBox="0 0 360 360" fill="none" xmlns="http://www.w3.org/2000/svg">
<rect width="360" height="360" rx="82" fill="#4E497C"/>
<circle cx="180" cy="180" r="155.455" fill="#4681C7" fill-opacity="0.06"/>
<circle cx="180" cy="180" r="155.205" stroke="#2869BF" stroke-opacity="0.04" stroke-width="0.5"/>
<path d="M25 179.949C25 254.526 94.387 314.933 180.008 314.933C265.596 314.933 335 254.526 335 179.949C335 105.424 265.596 45 180.008 45C94.2012 45 25 105.424 25 179.949ZM180.046 302.52C101.111 302.52 37.4131 247.789 37.4131 179.949C37.4131 112.147 101.111 57.4097 180.046 57.4097C258.977 57.4097 322.658 112.144 322.658 179.949C322.658 247.789 258.977 302.52 180.046 302.52Z" fill="white"/>
<path d="M147.135 271.531V233.923C143.965 236.082 136.1 242.265 119.903 242.265C97.9416 242.265 56.1885 242.265 56.1885 242.265V189.899C56.1885 189.899 86.086 189.899 95.4989 189.899C105.351 189.899 105.976 184.024 105.976 182.27C105.976 167.144 79.991 146.197 51.1543 124.486L128.407 124.334C133.123 127.803 140.55 133.094 147.185 140.538V85.5333H212.852V140.538C219.471 133.094 226.897 127.803 231.614 124.334L308.863 124.486C280.05 146.197 254.079 167.144 254.079 182.27C254.079 184.024 254.704 189.899 264.522 189.899C273.952 189.899 303.829 189.899 303.829 189.899V242.265C303.829 242.265 262.113 242.265 240.152 242.265C223.931 242.265 216.069 236.082 212.903 233.923V271.531H147.135ZM200.017 258.661V199.083C211.166 223.973 230.837 229.483 246.787 229.483C261.37 229.483 291.048 229.483 291.048 229.483V202.752C291.048 202.752 276.026 202.752 260.059 202.752C244.091 202.752 239.108 190.899 239.108 184.092C239.108 167.587 252.464 154.991 272.421 137.375H237.118C221.826 147.379 206.92 163.242 200.068 181.064V98.5715H159.967V181.061C153.115 163.242 138.174 147.376 122.9 137.372H87.6165C107.537 154.988 120.927 167.583 120.927 184.088C120.927 190.896 115.926 202.748 99.9621 202.748C84.0115 202.748 68.9901 202.748 68.9901 202.748V229.48C68.9901 229.48 98.6444 229.48 113.25 229.48C129.201 229.48 148.851 223.97 160 199.079V258.661H200.017Z" fill="white"/>
</svg>
