<svg width="360" height="360" viewBox="0 0 360 360" fill="none" xmlns="http://www.w3.org/2000/svg">
<rect width="360" height="360" rx="82" fill="#FF1C1C" fill-opacity="0.15"/>
<path fill-rule="evenodd" clip-rule="evenodd" d="M233.607 171.084L135.053 335L156.768 284.572L222.78 175.445L233.607 171.084Z" fill="black" stroke="black" stroke-width="0.22489" stroke-miterlimit="10" stroke-linejoin="round"/>
<path fill-rule="evenodd" clip-rule="evenodd" d="M173.706 216.748L170.218 225.019L137.676 237.601L142.011 228.929L173.706 216.748Z" fill="black" stroke="black" stroke-width="0.22489" stroke-miterlimit="10" stroke-linejoin="round"/>
<path fill-rule="evenodd" clip-rule="evenodd" d="M201.912 27.2099L189.331 95.8843L182.818 98.0498L192.799 43.7118L201.912 27.2099Z" fill="black" stroke="black" stroke-width="0.22489" stroke-miterlimit="10" stroke-linejoin="round"/>
<path fill-rule="evenodd" clip-rule="evenodd" d="M242.253 87.2206L197.109 173.289L187.129 177.199L231.87 91.5316L242.253 87.2206Z" fill="black" stroke="black" stroke-width="0.22489" stroke-miterlimit="10" stroke-linejoin="round"/>
<path fill-rule="evenodd" clip-rule="evenodd" d="M183.685 124.154L178.947 132.836L136.827 148.927L140.698 140.656L183.685 124.154Z" fill="black" stroke="black" stroke-width="0.22489" stroke-miterlimit="10" stroke-linejoin="round"/>
<path fill-rule="evenodd" clip-rule="evenodd" d="M191.095 25.0001L190.228 28.0679L188.938 28.509L191.095 25.0001Z" fill="#FF2828" stroke="#FF2828" stroke-width="0.22489" stroke-miterlimit="10" stroke-linejoin="round"/>
<path fill-rule="evenodd" clip-rule="evenodd" d="M190.222 28.0695L189.778 32.4205L186.754 33.2827L188.932 28.5106L190.222 28.0695Z" fill="#FF3838" stroke="#FF3838" stroke-width="0.22489" stroke-miterlimit="10" stroke-linejoin="round"/>
<path fill-rule="evenodd" clip-rule="evenodd" d="M189.758 32.4232L188.911 36.7943L184.112 37.6365L186.733 33.2854L189.758 32.4232Z" fill="#FF4444" stroke="#FF4444" stroke-width="0.22489" stroke-miterlimit="10" stroke-linejoin="round"/>
<path fill-rule="evenodd" clip-rule="evenodd" d="M188.913 36.7966L188.006 41.1076L181.493 42.4109L184.114 37.6388L188.913 36.7966Z" fill="#FF5454" stroke="#FF5454" stroke-width="0.22489" stroke-miterlimit="10" stroke-linejoin="round"/>
<path fill-rule="evenodd" clip-rule="evenodd" d="M188.025 41.1054L187.158 45.4565L179.355 47.2209L181.513 42.4087L188.025 41.1054Z" fill="#FF6060" stroke="#FF6060" stroke-width="0.22489" stroke-miterlimit="10" stroke-linejoin="round"/>
<path fill-rule="evenodd" clip-rule="evenodd" d="M187.153 45.458L186.749 49.8291L176.729 51.5334L179.35 47.2225L187.153 45.458Z" fill="#FF7070" stroke="#FF7070" stroke-width="0.22489" stroke-miterlimit="10" stroke-linejoin="round"/>
<path fill-rule="evenodd" clip-rule="evenodd" d="M186.746 49.8267L185.839 54.1376L174.145 56.3433L176.725 51.531L186.746 49.8267Z" fill="#FF7C7C" stroke="#FF7C7C" stroke-width="0.22489" stroke-miterlimit="10" stroke-linejoin="round"/>
<path fill-rule="evenodd" clip-rule="evenodd" d="M185.829 54.1378L184.982 58.4888L171.514 61.0955L174.135 56.3434L185.829 54.1378Z" fill="#FF8888" stroke="#FF8888" stroke-width="0.22489" stroke-miterlimit="10" stroke-linejoin="round"/>
<path fill-rule="evenodd" clip-rule="evenodd" d="M184.993 58.4844L184.126 62.3944L169.367 65.9033L171.525 61.0911L184.993 58.4844Z" fill="#FF9898" stroke="#FF9898" stroke-width="0.22489" stroke-miterlimit="10" stroke-linejoin="round"/>
<path fill-rule="evenodd" clip-rule="evenodd" d="M184.12 62.3969L183.274 66.768L166.74 70.2168L169.361 65.9059L184.12 62.3969Z" fill="#FFA4A4" stroke="#FFA4A4" stroke-width="0.22489" stroke-miterlimit="10" stroke-linejoin="round"/>
<path fill-rule="evenodd" clip-rule="evenodd" d="M183.278 66.77L182.814 71.1211L164.184 75.031L166.744 70.2188L183.278 66.77Z" fill="#FFB4B4" stroke="#FFB4B4" stroke-width="0.22489" stroke-miterlimit="10" stroke-linejoin="round"/>
<path fill-rule="evenodd" clip-rule="evenodd" d="M182.825 71.1185L181.978 75.4294L161.573 79.8005L164.194 75.0284L182.825 71.1185Z" fill="#FFC0C0" stroke="#FFC0C0" stroke-width="0.22489" stroke-miterlimit="10" stroke-linejoin="round"/>
<path fill-rule="evenodd" clip-rule="evenodd" d="M181.963 75.4324L181.096 79.8035L159.381 84.1545L161.558 79.8035L181.963 75.4324Z" fill="#FFD0D0" stroke="#FFD0D0" stroke-width="0.22489" stroke-miterlimit="10" stroke-linejoin="round"/>
<path fill-rule="evenodd" clip-rule="evenodd" d="M181.111 79.8041L180.203 84.1551L156.774 88.9272L159.396 84.1551L181.111 79.8041Z" fill="#FFDCDC" stroke="#FFDCDC" stroke-width="0.22489" stroke-miterlimit="10" stroke-linejoin="round"/>
<path fill-rule="evenodd" clip-rule="evenodd" d="M180.181 84.1556L179.778 88.5267L154.131 93.74L156.752 88.9278L180.181 84.1556Z" fill="#FFECEC" stroke="#FFECEC" stroke-width="0.22489" stroke-miterlimit="10" stroke-linejoin="round"/>
<path fill-rule="evenodd" clip-rule="evenodd" d="M179.797 88.5256L178.951 92.8366L151.993 98.0498L154.151 93.7388L179.797 88.5256Z" fill="#FFF8F8" stroke="#FFF8F8" stroke-width="0.22489" stroke-miterlimit="10" stroke-linejoin="round"/>
<path fill-rule="evenodd" clip-rule="evenodd" d="M178.94 92.8332L178.032 96.7431L149.401 102.859L151.982 98.0464L178.94 92.8332ZM231.423 82.0057L229.265 86.3166L209.728 90.2265L231.423 82.0057Z" fill="#FFFCFC" stroke="#FFFCFC" stroke-width="0.22489" stroke-miterlimit="10" stroke-linejoin="round"/>
<path fill-rule="evenodd" clip-rule="evenodd" d="M178.029 96.7484L177.162 101.099L146.797 107.616L149.398 102.864L178.029 96.7484ZM229.262 86.3219L226.641 91.1341L186.739 99.355L209.724 90.2318L229.262 86.3219Z" fill="#FFECEC" stroke="#FFECEC" stroke-width="0.22489" stroke-miterlimit="10" stroke-linejoin="round"/>
<path fill-rule="evenodd" clip-rule="evenodd" d="M226.646 91.1324L224.488 95.4433L144.181 111.985L146.802 107.614L177.167 101.098V102.862L186.744 99.3533L226.646 91.1324Z" fill="#FFE0E0" stroke="#FFE0E0" stroke-width="0.22489" stroke-miterlimit="10" stroke-linejoin="round"/>
<path fill-rule="evenodd" clip-rule="evenodd" d="M224.501 95.4432L221.92 100.255L142.016 116.737L144.193 111.985L224.501 95.4432Z" fill="#FFD0D0" stroke="#FFD0D0" stroke-width="0.22489" stroke-miterlimit="10" stroke-linejoin="round"/>
<path fill-rule="evenodd" clip-rule="evenodd" d="M221.92 100.253L219.299 105.005L139.395 121.547L142.016 116.735L221.92 100.253Z" fill="#FFC4C4" stroke="#FFC4C4" stroke-width="0.22489" stroke-miterlimit="10" stroke-linejoin="round"/>
<path fill-rule="evenodd" clip-rule="evenodd" d="M219.292 105.005L217.135 109.376L136.827 125.858L139.388 121.547L219.292 105.005Z" fill="#FFB4B4" stroke="#FFB4B4" stroke-width="0.22489" stroke-miterlimit="10" stroke-linejoin="round"/>
<path fill-rule="evenodd" clip-rule="evenodd" d="M217.13 109.378L214.509 114.13L187.612 119.804L188.922 118.04L179.789 121.549L134.645 130.672L136.822 125.86L217.13 109.378Z" fill="#FFA8A8" stroke="#FFA8A8" stroke-width="0.22489" stroke-miterlimit="10" stroke-linejoin="round"/>
<path fill-rule="evenodd" clip-rule="evenodd" d="M179.791 121.548L156.765 130.23L132.025 135.443L134.647 130.671L179.791 121.548ZM214.51 114.129L212.333 118.941L185.436 124.555L187.614 119.803L214.51 114.129Z" fill="#FF9898" stroke="#FF9898" stroke-width="0.22489" stroke-miterlimit="10" stroke-linejoin="round"/>
<path fill-rule="evenodd" clip-rule="evenodd" d="M156.765 130.231L133.739 139.355L129.404 140.257L132.025 135.445L156.765 130.231ZM212.333 118.943L209.732 123.254L182.815 128.928L185.436 124.557L212.333 118.943Z" fill="#FF8C8C" stroke="#FF8C8C" stroke-width="0.22489" stroke-miterlimit="10" stroke-linejoin="round"/>
<path fill-rule="evenodd" clip-rule="evenodd" d="M133.738 139.349L129 141.104L129.403 140.252L133.738 139.349ZM209.731 123.248L207.15 128.061L180.657 133.735L182.814 128.923L209.731 123.248Z" fill="#FF8080" stroke="#FF8080" stroke-width="0.22489" stroke-miterlimit="10" stroke-linejoin="round"/>
<path fill-rule="evenodd" clip-rule="evenodd" d="M207.156 128.064L204.998 132.836L178.041 138.5L180.662 133.738L207.156 128.064Z" fill="#FF7070" stroke="#FF7070" stroke-width="0.22489" stroke-miterlimit="10" stroke-linejoin="round"/>
<path fill-rule="evenodd" clip-rule="evenodd" d="M204.977 132.839L202.356 137.2L175.438 142.864L178.019 138.503L204.977 132.839Z" fill="#FF6464" stroke="#FF6464" stroke-width="0.22489" stroke-miterlimit="10" stroke-linejoin="round"/>
<path fill-rule="evenodd" clip-rule="evenodd" d="M202.371 137.199L199.75 141.961L173.236 147.625L175.454 142.863L202.371 137.199Z" fill="#FF5454" stroke="#FF5454" stroke-width="0.22489" stroke-miterlimit="10" stroke-linejoin="round"/>
<path fill-rule="evenodd" clip-rule="evenodd" d="M199.75 141.958L197.573 146.771L170.676 152.385L173.236 147.623L199.75 141.958Z" fill="#FF4848" stroke="#FF4848" stroke-width="0.22489" stroke-miterlimit="10" stroke-linejoin="round"/>
<path fill-rule="evenodd" clip-rule="evenodd" d="M197.573 146.77L194.952 151.081L168.055 156.745L170.676 152.384L197.573 146.77Z" fill="#FF3838" stroke="#FF3838" stroke-width="0.22489" stroke-miterlimit="10" stroke-linejoin="round"/>
<path fill-rule="evenodd" clip-rule="evenodd" d="M194.965 151.085L192.808 155.897L165.911 161.561L168.069 156.749L194.965 151.085Z" fill="#FF2C2C" stroke="#FF2C2C" stroke-width="0.22489" stroke-miterlimit="10" stroke-linejoin="round"/>
<path fill-rule="evenodd" clip-rule="evenodd" d="M192.793 155.895L190.213 160.657L163.275 166.322L165.897 161.559L192.793 155.895Z" fill="#FF1C1C" stroke="#FF1C1C" stroke-width="0.22489" stroke-miterlimit="10" stroke-linejoin="round"/>
<path fill-rule="evenodd" clip-rule="evenodd" d="M190.207 160.659L187.606 165.02L161.092 170.684L163.269 166.323L190.207 160.659Z" fill="#FF1010" stroke="#FF1010" stroke-width="0.22489" stroke-miterlimit="10" stroke-linejoin="round"/>
<path fill-rule="evenodd" clip-rule="evenodd" d="M187.624 165.017L185.447 169.779L158.55 175.443L161.11 170.681L187.624 165.017Z" fill="#FF0000" stroke="#FF0000" stroke-width="0.22489" stroke-miterlimit="10" stroke-linejoin="round"/>
<path fill-rule="evenodd" clip-rule="evenodd" d="M185.447 169.781L182.826 174.593L155.929 180.207L158.55 175.445L185.447 169.781ZM222.788 165.871L222.324 166.322L221.014 166.773L222.788 165.871Z" fill="#FF0C0C" stroke="#FF0C0C" stroke-width="0.22489" stroke-miterlimit="10" stroke-linejoin="round"/>
<path fill-rule="evenodd" clip-rule="evenodd" d="M182.821 174.594L180.664 178.955L153.747 184.57L155.925 180.208L182.821 174.594ZM222.32 166.323L219.699 171.085L197.581 175.446L221.009 166.774L222.32 166.323Z" fill="#FF1818" stroke="#FF1818" stroke-width="0.22489" stroke-miterlimit="10" stroke-linejoin="round"/>
<path fill-rule="evenodd" clip-rule="evenodd" d="M219.676 171.087L216.652 175.9L151.104 189.384L153.725 184.572L180.642 178.957L178.464 182.867L197.558 175.448L219.676 171.087Z" fill="#FF2828" stroke="#FF2828" stroke-width="0.22489" stroke-miterlimit="10" stroke-linejoin="round"/>
<path fill-rule="evenodd" clip-rule="evenodd" d="M216.683 175.897L214.061 180.659L148.977 194.143L151.134 189.381L216.683 175.897Z" fill="#FF3434" stroke="#FF3434" stroke-width="0.22489" stroke-miterlimit="10" stroke-linejoin="round"/>
<path fill-rule="evenodd" clip-rule="evenodd" d="M214.039 180.657L211.015 185.018L146.333 198.502L148.954 194.141L214.039 180.657Z" fill="#FF4444" stroke="#FF4444" stroke-width="0.22489" stroke-miterlimit="10" stroke-linejoin="round"/>
<path fill-rule="evenodd" clip-rule="evenodd" d="M211.012 185.019L208.411 189.781L143.77 203.265L146.33 198.503L211.012 185.019Z" fill="#FF5050" stroke="#FF5050" stroke-width="0.22489" stroke-miterlimit="10" stroke-linejoin="round"/>
<path fill-rule="evenodd" clip-rule="evenodd" d="M208.404 189.782L205.38 194.594L141.545 208.078L143.763 203.266L208.404 189.782Z" fill="#FF6060" stroke="#FF6060" stroke-width="0.22489" stroke-miterlimit="10" stroke-linejoin="round"/>
<path fill-rule="evenodd" clip-rule="evenodd" d="M205.404 194.596L202.783 199.358L138.988 212.392L141.569 208.081L205.404 194.596Z" fill="#FF6C6C" stroke="#FF6C6C" stroke-width="0.22489" stroke-miterlimit="10" stroke-linejoin="round"/>
<path fill-rule="evenodd" clip-rule="evenodd" d="M202.779 199.36L199.755 204.122L136.827 217.205L138.985 212.393L202.779 199.36Z" fill="#FF7C7C" stroke="#FF7C7C" stroke-width="0.22489" stroke-miterlimit="10" stroke-linejoin="round"/>
<path fill-rule="evenodd" clip-rule="evenodd" d="M199.76 204.117L197.138 208.929L177.177 212.839L178.044 211.085L168.064 214.594L134.211 221.962L136.832 217.2L199.76 204.117Z" fill="#FF8888" stroke="#FF8888" stroke-width="0.22489" stroke-miterlimit="10" stroke-linejoin="round"/>
<path fill-rule="evenodd" clip-rule="evenodd" d="M168.066 214.59L145.04 223.713L131.592 226.319L134.213 221.958L168.066 214.59ZM197.14 208.925L194.116 213.687L175.022 217.597L177.179 212.835L197.14 208.925Z" fill="#FF9494" stroke="#FF9494" stroke-width="0.22489" stroke-miterlimit="10" stroke-linejoin="round"/>
<path fill-rule="evenodd" clip-rule="evenodd" d="M145.034 223.715L130.275 229.33L131.586 226.322L145.034 223.715ZM194.11 213.69L191.086 218.051L173.242 221.961L175.016 217.6L194.11 213.69Z" fill="#FFA4A4" stroke="#FFA4A4" stroke-width="0.22489" stroke-miterlimit="10" stroke-linejoin="round"/>
<path fill-rule="evenodd" clip-rule="evenodd" d="M191.081 218.053L188.46 222.815L171.08 226.725L173.237 221.963L191.081 218.053Z" fill="#FFB0B0" stroke="#FFB0B0" stroke-width="0.22489" stroke-miterlimit="10" stroke-linejoin="round"/>
<path fill-rule="evenodd" clip-rule="evenodd" d="M188.476 222.815L185.452 227.627L168.938 231.086L171.096 226.725L188.476 222.815Z" fill="#FFC0C0" stroke="#FFC0C0" stroke-width="0.22489" stroke-miterlimit="10" stroke-linejoin="round"/>
<path fill-rule="evenodd" clip-rule="evenodd" d="M185.438 227.628L182.817 232.39L167.211 235.448L168.925 231.086L185.438 227.628Z" fill="#FFCCCC" stroke="#FFCCCC" stroke-width="0.22489" stroke-miterlimit="10" stroke-linejoin="round"/>
<path fill-rule="evenodd" clip-rule="evenodd" d="M182.809 232.393L179.784 237.205L165.025 240.213L167.203 235.451L182.809 232.393Z" fill="#FFDCDC" stroke="#FFDCDC" stroke-width="0.22489" stroke-miterlimit="10" stroke-linejoin="round"/>
<path fill-rule="evenodd" clip-rule="evenodd" d="M179.788 237.2L177.167 241.962L163.275 244.568L165.03 240.207L179.788 237.2Z" fill="#FFE8E8" stroke="#FFE8E8" stroke-width="0.22489" stroke-miterlimit="10" stroke-linejoin="round"/>
<path fill-rule="evenodd" clip-rule="evenodd" d="M177.161 241.962L174.137 246.724L161.092 249.331L163.269 244.569L177.161 241.962Z" fill="#FFF8F8" stroke="#FFF8F8" stroke-width="0.22489" stroke-miterlimit="10" stroke-linejoin="round"/>
<path fill-rule="evenodd" clip-rule="evenodd" d="M174.14 246.724L171.519 251.085L159.381 253.692L161.095 249.331L174.14 246.724Z" fill="#FFFCFC" stroke="#FFFCFC" stroke-width="0.22489" stroke-miterlimit="10" stroke-linejoin="round"/>
<path fill-rule="evenodd" clip-rule="evenodd" d="M171.518 251.084L168.514 255.846L157.223 258.502L159.38 253.69L171.518 251.084Z" fill="#FFF0F0" stroke="#FFF0F0" stroke-width="0.22489" stroke-miterlimit="10" stroke-linejoin="round"/>
<path fill-rule="evenodd" clip-rule="evenodd" d="M168.511 255.848L165.426 260.66L155.445 262.815L157.22 258.504L168.511 255.848Z" fill="#FFE0E0" stroke="#FFE0E0" stroke-width="0.22489" stroke-miterlimit="10" stroke-linejoin="round"/>
<path fill-rule="evenodd" clip-rule="evenodd" d="M165.425 260.657L162.864 265.419L153.287 267.625L155.445 262.813L165.425 260.657Z" fill="#FFD4D4" stroke="#FFD4D4" stroke-width="0.22489" stroke-miterlimit="10" stroke-linejoin="round"/>
<path fill-rule="evenodd" clip-rule="evenodd" d="M162.858 265.422L159.773 270.234L151.104 271.938L153.281 267.628L162.858 265.422Z" fill="#FFC4C4" stroke="#FFC4C4" stroke-width="0.22489" stroke-miterlimit="10" stroke-linejoin="round"/>
<path fill-rule="evenodd" clip-rule="evenodd" d="M159.785 270.235L157.224 274.997L149.401 276.301L151.115 271.939L159.785 270.235Z" fill="#FFB8B8" stroke="#FFB8B8" stroke-width="0.22489" stroke-miterlimit="10" stroke-linejoin="round"/>
<path fill-rule="evenodd" clip-rule="evenodd" d="M157.229 274.998L154.144 279.76L147.208 281.113L149.406 276.301L157.229 274.998Z" fill="#FFA8A8" stroke="#FFA8A8" stroke-width="0.22489" stroke-miterlimit="10" stroke-linejoin="round"/>
<path fill-rule="evenodd" clip-rule="evenodd" d="M154.132 279.762L151.572 284.123L145.482 285.426L147.196 281.115L154.132 279.762Z" fill="#FF9C9C" stroke="#FF9C9C" stroke-width="0.22489" stroke-miterlimit="10" stroke-linejoin="round"/>
<path fill-rule="evenodd" clip-rule="evenodd" d="M151.572 284.122L148.508 288.934L143.306 290.237L145.483 285.425L151.572 284.122Z" fill="#FF8C8C" stroke="#FF8C8C" stroke-width="0.22489" stroke-miterlimit="10" stroke-linejoin="round"/>
<path fill-rule="evenodd" clip-rule="evenodd" d="M148.501 288.936L145.92 293.698L141.545 294.55L143.299 290.239L148.501 288.936Z" fill="#FF8080" stroke="#FF8080" stroke-width="0.22489" stroke-miterlimit="10" stroke-linejoin="round"/>
<path fill-rule="evenodd" clip-rule="evenodd" d="M145.947 293.689L142.883 298.451L139.395 299.353L141.572 294.541L145.947 293.689Z" fill="#FF7474" stroke="#FF7474" stroke-width="0.22489" stroke-miterlimit="10" stroke-linejoin="round"/>
<path fill-rule="evenodd" clip-rule="evenodd" d="M142.863 298.455L140.282 303.267L137.218 303.668L139.375 299.357L142.863 298.455Z" fill="#FF6464" stroke="#FF6464" stroke-width="0.22489" stroke-miterlimit="10" stroke-linejoin="round"/>
<path fill-rule="evenodd" clip-rule="evenodd" d="M140.271 303.269L137.206 308.032L135.492 308.483L137.206 303.67L140.271 303.269Z" fill="#FF5858" stroke="#FF5858" stroke-width="0.22489" stroke-miterlimit="10" stroke-linejoin="round"/>
<path fill-rule="evenodd" clip-rule="evenodd" d="M137.231 308.029L134.207 312.841H133.34L135.517 308.48L137.231 308.029Z" fill="#FF4848" stroke="#FF4848" stroke-width="0.22489" stroke-miterlimit="10" stroke-linejoin="round"/>
<path fill-rule="evenodd" clip-rule="evenodd" d="M134.213 312.846L131.592 317.157V317.608L133.346 312.846H134.213Z" fill="#FF3C3C" stroke="#FF3C3C" stroke-width="0.22489" stroke-miterlimit="10" stroke-linejoin="round"/>
<path fill-rule="evenodd" clip-rule="evenodd" d="M131.587 317.154L131.184 318.057L131.587 317.605V317.154Z" fill="#FF2C2C" stroke="#FF2C2C" stroke-width="0.22489" stroke-miterlimit="10" stroke-linejoin="round"/>
<path fill-rule="evenodd" clip-rule="evenodd" d="M188.923 31.5801L131.581 138.502L190.617 115.894L132.488 227.177L179.79 209.382L136.823 307.18L220.155 168.077L176.322 185.02L228.825 84.6149L175.858 104.606L188.923 31.5801ZM191.081 25.0034L177.168 102.861L231.426 82.0083L178.479 182.864L222.776 165.871L131.178 318.058L178.035 211.086L130.27 229.332L188.923 118.04L129 141.108L191.081 25.0034Z" fill="#FF0000" stroke="#FF0000" stroke-width="0.22489" stroke-miterlimit="10" stroke-linejoin="round"/>
</svg>
