<svg width="360" height="360" viewBox="0 0 360 360" fill="none" xmlns="http://www.w3.org/2000/svg">
<rect width="360" height="360" rx="82" fill="#00529F"/>
<path fill-rule="evenodd" clip-rule="evenodd" d="M38.334 211.232H84.254V224.646H38.334V211.232Z" fill="#FFD520"/>
<path fill-rule="evenodd" clip-rule="evenodd" d="M96.9609 211.232H142.883V224.646H96.9609V211.232Z" fill="#FFD520"/>
<path fill-rule="evenodd" clip-rule="evenodd" d="M156.203 211.232H202.129V224.646H156.203V211.232Z" fill="#FFD520"/>
<path fill-rule="evenodd" clip-rule="evenodd" d="M215.215 211.232H261.137V224.646H215.215V211.232Z" fill="#FFD520"/>
<path fill-rule="evenodd" clip-rule="evenodd" d="M273.836 211.232H316.594V224.646H273.836V211.232Z" fill="#FFD520"/>
<path fill-rule="evenodd" clip-rule="evenodd" d="M39.0859 194.311H62.6149V158.07C62.6149 153.433 64.654 151.584 66.881 151.584C69.121 151.584 70.9709 153.787 70.9709 157.838V194.311H94.489V158.07C94.489 153.433 96.5279 151.584 98.7699 151.584C101.004 151.584 102.844 153.787 102.844 157.838V194.311H126.375V155.645C126.375 140.239 119.273 134.457 109.461 134.457C103.914 134.457 98.0779 136.643 94.0939 144.986C91.0939 137.802 85.6489 134.457 78.1599 134.457C72.6189 134.457 66.7869 136.643 62.8049 144.986H62.6159L62.028 136.187H39.0869V194.311H39.0859Z" fill="white"/>
<path fill-rule="evenodd" clip-rule="evenodd" d="M233.172 194.396H256.703L240.574 163.451L253.707 136.859H229.195L222.684 155.164L214.828 136.859H190.316L204.594 163.451L188.863 194.396H212.66L222.684 173.275L233.172 194.396Z" fill="white"/>
<path fill-rule="evenodd" clip-rule="evenodd" d="M164.879 158.639H161.652C140.691 158.639 129.539 164.483 129.539 178.698C129.539 190.046 137.566 196.233 148.941 196.233C155.07 196.233 160.976 194.288 164.879 189.006L165.551 194.514H189.184V155.652C189.184 142.246 182.262 135.25 160.758 135.25C146.594 135.25 132.781 138.572 131.887 154.051H154.176C154.516 149.238 156.301 148.094 159.649 148.094C163.43 148.094 164.879 149.815 164.879 152.674V158.639Z" fill="white"/>
<path fill-rule="evenodd" clip-rule="evenodd" d="M163.059 174.525C163.059 179.226 161.61 182.326 156.926 182.326C152.805 182.326 150.676 180.025 150.676 176.359C150.676 173.156 152.246 169.713 159.375 169.713H163.059V174.525Z" fill="#00529F"/>
</svg>
