<svg width="360" height="360" viewBox="0 0 360 360" fill="none" xmlns="http://www.w3.org/2000/svg">
<rect width="360" height="360" rx="82" fill="#E61D2C"/>
<path fill-rule="evenodd" clip-rule="evenodd" d="M180.237 335C195.33 335 211.764 332.606 216.721 329.795C224.994 325.105 222.57 306.808 220.278 299.625C218.667 294.561 215.101 285.935 215.118 268.002C215.136 248.753 221.437 211.524 221.718 209.211C222.189 205.364 223.134 201.527 221.033 200.657C223.608 198.74 221.549 151.266 217.046 149.449C219.325 149.449 218.518 144.126 218.044 140.466C217.172 133.747 211.236 117.91 206.145 100.737C203.873 93.0701 200.304 81.5058 199.143 72.9334C198.063 64.9763 198.292 54.8231 198.292 50.4166C199.809 48.903 200.391 48.224 200.324 45.844C200.259 43.3579 197.088 37.3105 197.088 36.444C197.088 35.574 197.118 34.5343 198.234 33.5194C199.47 32.3877 199.404 30.4214 198.871 28.8088C198.22 26.8602 195.813 26.2731 194.428 25.9407C193.16 25.633 186.803 25 180.237 25C173.672 25 167.314 25.633 166.047 25.9407C164.661 26.2731 162.255 26.8602 161.603 28.8088C161.064 30.4214 160.999 32.3877 162.241 33.5194C163.356 34.5343 163.387 35.574 163.387 36.444C163.387 37.3105 160.214 43.3579 160.152 45.844C160.083 48.224 160.666 48.903 162.181 50.4166C162.181 54.8231 162.411 64.9763 161.331 72.9334C160.17 81.5058 156.601 93.0701 154.328 100.737C149.237 117.91 143.303 133.747 142.434 140.466C141.956 144.126 141.149 149.449 143.427 149.449C138.923 151.266 136.865 198.74 139.437 200.657C137.341 201.527 138.283 205.364 138.757 209.211C139.037 211.524 145.335 248.753 145.356 268.002C145.369 285.935 141.807 294.561 140.19 299.625C137.904 306.808 135.48 325.105 143.753 329.795C148.71 332.606 165.143 335 180.237 335Z" fill="white"/>
</svg>
