<svg width="360" height="360" viewBox="0 0 360 360" fill="none" xmlns="http://www.w3.org/2000/svg">
<rect width="360" height="360" rx="82" fill="#0468B3"/>
<path d="M180.004 69.6122C256.005 69.6122 317.61 119.052 317.61 180.044C317.61 241.017 256.005 290.464 180.004 290.464C103.992 290.464 42.3926 241.014 42.3926 180.044C42.3926 119.054 103.992 69.6122 180.004 69.6122Z" fill="white"/>
<path d="M180.004 64.7839C142.16 64.7839 106.527 76.6478 79.6767 98.1858C66.5226 108.744 56.1772 121.066 48.9413 134.799C41.3989 149.115 37.5742 164.336 37.5742 180.044C37.5742 195.732 41.3989 210.953 48.9413 225.281C56.1772 239.012 66.5226 251.324 79.6767 261.883C106.528 283.441 142.16 295.275 180.004 295.275C217.853 295.275 253.481 283.441 280.326 261.883C293.484 251.324 303.819 239.012 311.079 225.281C318.612 210.953 322.447 195.732 322.447 180.044C322.447 164.336 318.612 149.115 311.079 134.799C303.819 121.066 293.484 108.744 280.326 98.1858C253.481 76.6484 217.853 64.7845 180.004 64.7845" fill="#0468B3"/>
<path d="M139.45 160.277C139.45 160.277 137.757 159.402 134.711 159.45C129.32 159.528 125.572 162.983 125.572 162.983L124.195 159.402H113.991H113.752L113.689 214.876H126.686V181.29C126.686 178.233 128.142 176.745 129.32 175.674C132.775 172.54 139.45 172.443 139.45 172.443V160.277Z" fill="white"/>
<path d="M301.888 160.277C301.888 160.277 300.175 159.402 297.139 159.45C291.727 159.528 288 162.983 288 162.983L286.628 159.402H276.408H276.176L276.117 214.876H289.12V181.29C289.12 178.233 290.56 176.745 291.727 175.674C295.212 172.54 301.888 172.443 301.888 172.443V160.277Z" fill="white"/>
<path d="M151.934 187.121C151.934 177.194 154.402 170.002 160.654 170.002C166.932 170.002 169.375 177.194 169.375 187.121C169.375 197.058 166.932 204.25 160.654 204.25C154.402 204.25 151.934 197.058 151.934 187.121ZM181.94 187.17C181.94 171.821 174.675 159.404 160.611 159.404C146.878 159.404 139.287 171.821 139.287 187.17C139.287 202.488 145.822 214.937 160.611 214.937C175.122 214.937 181.94 202.488 181.94 187.17Z" fill="white"/>
<path d="M251.076 170.001C255.329 170.001 257.801 173.29 258.989 178.458H243.223C244.39 173.29 246.882 170.001 251.076 170.001ZM260.37 192.579C259.573 199.577 257.023 204.249 251.981 204.249C245.869 204.249 243.358 197.319 243.262 187.704H260.683V187.714H273.257V187.704C273.412 182.634 272.42 178.458 272.42 178.458H272.399C270.103 167.383 263.213 159.403 251.923 159.403C238.181 159.403 230.6 171.82 230.6 187.169C230.6 202.487 237.149 214.935 251.923 214.935C264.681 214.935 271.485 205.329 272.946 192.579H260.37Z" fill="white"/>
<path d="M206.339 204.292C200.073 204.292 197.562 197.07 197.562 187.094C197.562 177.11 200.073 169.869 206.339 169.869C212.646 169.869 215.099 177.11 215.099 187.094C215.099 197.07 212.646 204.292 206.339 204.292ZM227.614 216.69C227.575 212.642 227.614 159.287 227.614 159.287H213.834V162.324C212.16 160.562 208.705 159.462 206.281 159.404C192.471 159.063 184.851 171.696 184.851 187.121C184.851 202.538 191.43 214.887 206.301 214.887C209.201 214.887 211.751 213.672 214.038 212.776C214.671 223.627 215.04 259.423 191.265 260.173C165.503 260.756 168.296 223.442 168.072 222.382C166.321 222.382 154.043 222.42 154.043 222.42C154.043 222.489 152.16 269.506 189.736 269.506C230.455 269.506 227.673 220.737 227.614 216.688" fill="white"/>
<path d="M132.9 101.212C114.812 101.212 104.559 111.363 99.537 123.304L99.5029 123.294C99.4251 123.519 99.3373 123.733 99.2651 123.967C99.2254 124.014 99.2064 124.082 99.1862 124.131C96.7827 130.467 96.4962 135.791 96.4962 136.443C97.3326 166.321 83.0019 168.18 83.0019 168.18C82.763 165.631 83.0019 133.348 83.0019 133.348H69.2402V214.887H83.0506V180.902C83.0506 179.52 95.2502 180.825 96.0872 196.367C96.1644 197.749 96.0872 214.887 96.0872 214.887H110.666C110.359 212.659 113.634 176.279 95.3912 175.997C92.4903 175.948 110.418 171.851 109.877 145.018C109.741 139.024 110.427 133.622 111.732 128.951C114.744 119.354 120.184 110.722 131.367 110.576C156.578 110.255 153.712 151.326 154.038 151.967C155.795 151.967 168.073 151.958 168.073 151.958C168.085 151.898 170.566 101.212 132.903 101.212" fill="white"/>
<path d="M167.4 302.454C109.831 297.8 61.7851 268.428 40.6638 224.987C28.9284 200.857 27.1031 173.478 35.5467 148.248C41.4681 130.549 49.9381 117.188 64.3709 102.776C75.5391 91.6253 85.9708 83.9654 99.419 77.0413C116.221 68.3927 131.771 63.2153 151.553 59.6879C163.29 57.5949 196.322 57.5862 208.239 59.6731C244.383 66.0021 272.712 79.9801 295.51 102.732C306.557 113.76 312.673 122.052 318.738 134.23C334.312 165.499 333.149 201.485 315.575 232.198C297.283 264.168 261.801 288.724 219.955 298.372C206.306 301.519 180.566 303.517 167.404 302.452L167.4 302.454ZM209.895 293.045C242.928 287.146 270.206 273.453 291.299 252.183C333.426 209.7 333.235 149.693 290.828 107.368C280.122 96.6804 269.632 89.2296 254.983 81.9137C204.375 56.626 141.036 58.9696 93.8001 87.8789C46.5711 116.787 26.4633 166.416 43.157 212.887C58.2692 254.95 102.604 286.615 156.972 294.178C169.814 295.965 196.793 295.389 209.895 293.049V293.045Z" fill="white"/>
</svg>
