<svg width="360" height="360" viewBox="0 0 360 360" fill="none" xmlns="http://www.w3.org/2000/svg">
<rect width="360" height="360" rx="82" fill="#800033"/>
<path d="M31 141.236H66.9808V165.674H67.2151L94.6518 141.236H134.989L101.894 171.208L140.184 212.335H94.6518L67.2151 183.232H66.9808V212.335H31V141.236Z" fill="white"/>
<path d="M223.779 165.256C215.96 158.997 209.258 156.894 202.052 156.777C195.008 156.654 188.575 159.104 188.575 163.39C188.575 166.775 193.384 168.177 210.208 171.682C224.03 174.575 233.237 181.634 233.237 194.777C233.237 209.612 208.556 218 186.481 218C170.983 218 159.086 215.21 148.44 210.433V190.522C155.02 197.386 169.743 201.032 181.022 201.032C187.28 201.032 190.35 200.113 190.35 195.135C190.35 192.054 186.449 189.245 174.636 187.082C152.256 182.982 144.693 176.575 144.693 165.621C144.693 149.89 164.255 140.527 188.359 140.527C201.353 140.527 213.286 140.928 223.779 145.808V165.256Z" fill="white"/>
<path d="M321.543 165.256C313.723 158.997 307.022 156.894 299.815 156.777C292.772 156.654 286.339 159.104 286.339 163.39C286.339 166.775 291.148 168.177 307.972 171.682C321.794 174.575 331 181.634 331 194.777C331 209.612 306.319 218 284.244 218C268.746 218 256.85 215.21 246.203 210.433V190.522C252.783 197.386 267.507 201.032 278.786 201.032C285.044 201.032 288.114 200.113 288.114 195.135C288.114 192.054 284.213 189.245 272.4 187.082C250.02 182.982 242.457 176.575 242.457 165.621C242.457 149.89 262.018 140.527 286.123 140.527C299.117 140.527 311.05 140.928 321.543 145.808V165.256Z" fill="white"/>
</svg>
