<svg width="360" height="360" viewBox="0 0 360 360" fill="none" xmlns="http://www.w3.org/2000/svg">
<rect width="360" height="360" rx="82" fill="#BE1D24"/>
<path d="M97.1592 28L30 95.3068V264.326L96.8359 331.33H262.328L330 263.827V92.7916L328.666 91.6323L263.312 28" fill="white"/>
<path d="M321.458 97.356V260.15L258.796 322.932H101.011L39.0508 260.803V97.6792L101.011 35.5574H258.796" fill="#BE1D24"/>
<path d="M310.397 102.184V255.289L254.261 311.383H105.884L51.9403 256.807L51.0898 255.95V101.018L105.378 46.7505H253.938" fill="white"/>
<path d="M181.823 104.034V70.3733H160.199V149.281H181.823L181.735 117.45L194.198 149.281L215.737 149.352C209.823 136.044 204.545 122.101 199.166 108.599C205.475 95.7025 211.575 82.9529 217.845 69.9863H197.895L181.813 104.034" fill="#BE1D24"/>
<path d="M200.612 193.783C193.598 196.225 185.437 198.976 177.694 196.403C172.517 194.551 168.107 189.768 166.596 184.552C165.89 178.081 167.347 171.074 173.067 166.819C181.228 161.433 193.955 162.378 201.922 167.548V151.845H193.234L188.498 142.986H184.887V152.225H159.008C153.319 155.155 150.521 161.309 147.405 166.277C143.15 178.081 144.452 193.783 152.753 203.394C163.666 213.4 178.074 218.918 193.598 215.399C193.598 215.399 199.233 214.314 201.86 212.656V192.776L200.612 193.783" fill="#BE1D24"/>
<path d="M161.336 213.768C169.644 218.395 179.084 220.031 189.237 220.031L189.602 227.037C183.696 225.038 177 222.309 169.412 223.247C166.482 223.425 162.057 224.084 160.204 227.773C159.662 229.3 159.662 230.416 160.591 231.672C167.117 237.384 177.216 234.098 183.874 239.058C192.368 244.422 195.151 255.327 193.112 265.286C191.594 275.439 181.642 282.128 172.945 285.275C160.591 287.46 148.756 284.515 138.021 281.182C138.984 274.749 139.882 267.348 141.548 260.705C150.399 264.534 161.335 269.022 171.302 264.356C172.612 262.721 174.255 260.86 173.139 258.652C166.311 252.002 154.871 255.327 147.632 249.421C139.331 244.236 137.665 233.881 139.331 225.371C140.819 218.736 146.663 212.373 152.933 209.041C154.731 210.157 158.173 212.443 161.335 213.768" fill="#BE1D24"/>
</svg>
