<svg width="360" height="360" viewBox="0 0 360 360" fill="none" xmlns="http://www.w3.org/2000/svg">
<rect width="360" height="360" rx="82" fill="#2E65B0"/>
<path d="M313.999 254.648H314.999V253.648V249.305V248.305H313.999H168.5V110.454V109.454H167.5H163.154H162.154V110.454V253.648V254.648H163.154H313.999Z" fill="white" stroke="white" stroke-width="2"/>
<path d="M298.78 239.455H299.78V238.455V234.112V233.112H298.78H183.688V95.2273V94.2273H182.688H178.346H177.346V95.2273V238.455V239.455H178.346H298.78Z" fill="white" stroke="white" stroke-width="2"/>
<path d="M283.545 224.263H284.545V223.263V218.917V217.917H283.545H198.902V80V79H197.902H193.557H192.557V80V223.263V224.263H193.557H283.545Z" fill="white" stroke="white" stroke-width="2"/>
<path d="M154.571 249.306V248.306H153.571H47H46V249.306V253.651V254.651H47H153.571H154.571V253.651V249.306Z" fill="white" stroke="white" stroke-width="2"/>
<path d="M154.569 234.112V233.112H153.569H62.2246H61.2246V234.112V238.457V239.457H62.2246H153.569H154.569V238.457V234.112Z" fill="white" stroke="white" stroke-width="2"/>
<path d="M154.572 218.916V217.916H153.572H77.4531H76.4531V218.916V223.261V224.261H77.4531H153.572H154.572V223.261V218.916Z" fill="white" stroke="white" stroke-width="2"/>
</svg>
