<svg width="360" height="360" viewBox="0 0 360 360" fill="none" xmlns="http://www.w3.org/2000/svg">
<rect width="360" height="360" rx="82" fill="#100F0D"/>
<path fill-rule="evenodd" clip-rule="evenodd" d="M79.4083 242.486C80.8321 241.864 88.746 237.434 88.746 237.434C91.1443 236.017 93.3699 234.503 95.6023 232.81C94.2062 232.354 92.8169 231.939 91.4484 231.552C81.9173 227.958 48.5962 226.202 45.4514 239.417C45.0989 240.896 46.2255 242.438 47.2 243.481C52.9713 249.702 72.5243 245.458 79.4083 242.486ZM194.563 135.929C210.343 130.752 222.79 124.159 228.195 121.055C231.589 118.809 234.948 116.625 238.535 114.669C253.091 106.734 266.88 92.2682 275.395 78.2237C276.377 76.6133 278.035 72.0308 276.971 70.2615C272.105 62.1195 239.074 84.3612 233.801 88.3562C229.336 91.7498 224.525 95.6272 220.523 99.56C217.254 102.767 214.331 106.644 211.642 110.356C208.794 114.275 196.478 132.895 194.563 135.929ZM117.581 241.505C114.755 240.219 111.706 238.892 108.575 237.599C104.117 239.86 99.6733 241.836 95.8788 243.26C80.9012 248.776 59.2816 256.199 45.4514 247.214C44.781 246.211 43.5852 245.762 43.4608 244.477C42.4103 242.935 41.5117 240.938 42.2997 239.085C41.9748 237.613 43.0876 236.21 43.7926 235.015C51.0844 222.677 75.9525 223.23 88.1239 225.387C89.0639 225.552 90.1145 225.787 91.1996 226.036C94.4342 226.506 97.6827 227.356 100.917 228.428C104.124 225.594 107.601 222.263 111.789 218.171C128.405 200.795 155.036 166.651 160.261 160.058C161 159.125 162.016 157.936 163.108 156.643C165.431 153.644 168.341 149.745 171.72 145.37C164.753 146.711 159.542 147.451 157.627 147.548C156.501 147.603 155.015 147.589 153.494 147.513C145.401 147.852 137.217 148.349 129.29 146.815C110.711 143.193 86.7623 136.143 78.9798 116.68C77.8394 113.826 77.6458 110.646 77.321 107.633C77.6804 106.444 77.3348 105.366 77.5698 104.142C78.3232 100.154 80.0304 96.1802 82.8849 93.2704C98.7886 77.0418 127.299 71.9825 148.96 76.6686C150.695 77.0418 161.353 79.6268 161.747 81.0713C161.85 81.4653 161.083 82.0666 160.745 82.0666C157.406 82.0597 153.881 81.3823 150.543 81.1542C139.788 80.4216 128.868 79.9101 118.252 81.9007C104.781 84.4304 79.1802 91.0655 81.3021 109.457C81.627 112.257 83.1475 117.482 84.5368 119.922C89.444 128.485 101.726 134.436 110.608 137.761C126.055 143.546 144.329 145.094 160.662 142.903L162.445 142.689L164.643 142.537C168.195 142.163 171.693 141.638 175.128 140.988C178.086 137.222 194.771 117.827 206.327 106.036C215.796 96.3737 267.122 51.1646 280.461 65.9417C283.53 69.3491 283.475 73.9385 281.954 78.0578C275.672 95.1158 252.607 112.782 231.409 124.794L230.829 125.181C220.634 131.865 205.456 137.097 191.495 140.829C186.553 148.778 183.94 153.25 181.846 156.56C181.728 156.754 181.583 156.934 181.41 157.127C180 159.726 178.77 162.076 177.948 163.631C173.58 171.821 168.52 180.032 163.164 187.614C153.308 201.576 142.38 215.178 128.467 225.304L126.656 226.589C123.505 229.05 119.399 231.676 115.003 234.157C118.024 235.547 120.809 236.894 123.221 237.993C134.902 242.894 158.892 250.02 164.159 251.285C170.822 252.881 177.651 253.441 184.5 253.531C189.926 253.586 195.303 252.349 200.687 252.28C200.943 252.273 201.807 252.66 201.682 253.026C200.701 255.902 179.51 258.424 178.694 259.081C173.987 259.136 160.275 258.721 156.197 257.422C146.921 254.492 138.067 250.6 129.131 246.799C125.82 245.389 122.578 243.758 119.295 242.216C118.743 242.002 118.169 241.767 117.581 241.505ZM222.853 176.079C216.957 172.734 199.913 189.1 191.501 197.664C191.066 197.961 190.651 198.321 190.271 198.756C188.032 201.272 184.32 204.555 184.32 204.555C184.32 204.555 191.045 203.034 194.556 201.465C205.38 196.779 222.963 182.424 223.184 176.659L222.853 176.079ZM274.234 183.461C267.744 176.003 229.73 213.713 224.346 220.327C222.521 222.567 209.866 236.058 213.805 238.415C218.291 241.111 238.086 224.039 242.53 221.399C247.292 218.572 267.467 199.399 270.833 194.588C271.912 193.054 273.246 190.745 273.985 189.031C274.656 187.483 275.506 184.919 274.234 183.461ZM215.63 262.488C214.123 260.85 202.221 270.008 200.279 271.626C186.097 283.327 170.905 293.169 161.173 309.308C160.323 310.718 158.588 314.754 158.851 316.365C158.948 316.98 159.777 317.477 160.344 317.519C164.885 317.906 179.434 304.954 182.675 301.249C186.961 296.349 215.616 265.751 215.63 262.488ZM239.323 249.349C232.073 257.899 224.042 270.326 218.948 276.685C207.771 290.646 190.9 309.792 175.287 318.597C171.174 320.919 163.578 324.355 158.934 322.502C157.13 321.79 154.863 319.731 154.448 317.775C150.557 299.148 189.207 273.623 202.436 264.396C204.371 263.041 206.479 261.825 208.49 260.581C216.902 255.355 224.346 250.199 230.642 243.855C234.692 239.777 238.3 235.118 241.528 229.451L242.959 226.976C242.385 227.287 241.348 227.923 239.848 228.898C232.681 233.584 222.825 242.728 214.635 244.56C208.47 245.935 204.136 238.602 204.592 233.266C204.682 232.222 205.947 227.018 203.016 228.704C201.046 229.838 198.786 231.538 196.906 232.948C195.289 234.157 193.665 235.353 191.971 236.342C182.814 241.698 167.477 249.011 159.183 238.505C156.833 235.526 155.976 232.948 155.699 229.285C155.561 227.529 156.321 221.288 158.263 217.908C160.157 214.632 161.602 211.598 163.744 208.453C168.963 200.781 176.282 193.22 183.836 187.863C192.359 181.822 208.891 171.255 219.286 170.349C223.081 170.024 228.133 171.02 229.571 175.084C232.57 183.523 221.484 192.121 215.796 196.413C207.675 202.537 196.671 206.276 186.829 208.536L185.82 208.73C185.647 208.716 185.44 208.729 185.198 208.778C182.896 209.234 179.765 209.607 179.765 209.607C179.765 209.607 178.853 210.451 177.678 211.598C177.07 212.158 176.386 212.849 175.653 213.644C175.038 214.293 174.444 214.95 173.946 215.551C173.51 216.07 173.137 216.526 172.847 216.927C167.698 223.382 162.196 232.595 164.988 236.424C169.965 243.232 184.617 235.056 195.42 227.958C200.196 224.813 204.26 221.862 206.334 220.569C210.598 217.894 213.515 212.724 216.791 208.951C223.35 201.403 231.7 193.552 240.284 188.368C246.65 184.518 269.679 172.001 276.397 177.323C277.828 178.45 279.349 182.617 279.639 182.88C281.45 184.566 285.016 177.406 289.592 177.406C290.815 177.406 300.457 175.554 298.812 179.231C297.526 182.113 283.938 195.508 280.717 199.316C276.204 204.638 257.245 226.161 255.227 230.695C246.546 240.878 241.245 247.096 239.323 249.349Z" fill="white"/>
</svg>
