<svg width="360" height="360" viewBox="0 0 360 360" fill="none" xmlns="http://www.w3.org/2000/svg">
<rect width="360" height="360" rx="82" fill="#2074BA"/>
<path fill-rule="evenodd" clip-rule="evenodd" d="M119 40V103.442L205.219 40H119ZM237.757 96.9367V217.322L164.555 148.99L237.757 96.9367ZM119 135.98V165.262L141.771 148.99L119 135.98ZM119 194.544V313.302L193.83 256.365L119 194.544ZM226.368 319.813L239.378 306.79V319.813H226.368Z" fill="white"/>
<path d="M208.716 61.4426H237.345M228.104 45.7373H241.034M179.16 80.8307H241.034M147.763 103.001H212.406M128.375 122.389H180.088M146.842 136.24H163.468M144.074 164.868H160.693M131.144 181.494H179.16M153.307 200.875H208.716M180.088 223.046H234.569M205.02 248.198H234.569M194.172 271.289H238.499M173.623 287.695H237.338M151.232 303.6H221.419M131.144 320H208.716" stroke="white" stroke-width="10" stroke-miterlimit="2.613"/>
</svg>
