<svg width="360" height="360" viewBox="0 0 360 360" fill="none" xmlns="http://www.w3.org/2000/svg">
<rect width="360" height="360" rx="82" fill="#FF000A"/>
<circle cx="180" cy="180" r="155.455" fill="#4681C7" fill-opacity="0.06"/>
<circle cx="180" cy="180" r="155.205" stroke="#2869BF" stroke-opacity="0.04" stroke-width="0.5"/>
<path d="M225.002 330H135.001C134.167 330 133.336 330 132.502 329.169L60.0025 275.002C59.1685 274.171 58.3345 273.337 58.3345 272.497L30 185.001C30 184.164 30 183.336 30 182.502L58.3345 87.4998C58.3345 86.6658 59.1685 85.8349 60.0025 85.0009L134.167 30.834C135.001 30 135.832 30 136.666 30H223.334C224.168 30 225.002 30 225.833 30.834L300.001 85.0041C300.835 85.8381 301.665 86.669 301.665 87.503L330 181.668C330 182.505 330 183.336 330 184.167L302.503 272.5C302.503 273.34 301.666 274.174 300.832 275.005L228.335 329.172C226.67 330 225.833 330 225.002 330ZM139.168 320.842H213.332C184.167 292.507 155.002 267.502 125.002 245.003C127.501 269.167 132.499 295 139.168 320.842ZM128.335 235.835C160.837 259.169 190.836 285.832 222.503 315.837C230.003 275.836 234.167 237.506 235.838 200.838C195.834 209.165 158.334 221.669 128.335 235.835ZM244.169 205.005C242.501 240.005 238.337 276.667 231.668 314.163L291.67 269.995C278.335 243.338 262.501 221.669 244.169 205.005ZM70.0013 270.832L127.501 313.335C121.669 289.171 117.499 265.007 115 241.673C97.5017 250.832 82.502 260.837 70.0013 270.832ZM42.5039 193.338L65.0035 263.332C77.5011 253.337 92.5039 243.338 110.006 234.167C87.4999 219.164 65.8343 205.005 42.5039 193.338ZM250.001 197.505C267.502 214.173 283.333 234.167 295.834 259.172L318.333 189.171C296.668 189.999 273.334 193.338 250.001 197.505ZM121.669 136.669C119.167 165.837 119.167 196.668 122.503 227.504C153.337 213.335 190.005 200.838 229.172 192.504C205.839 175.005 181.671 164.169 156.673 152.506C145.003 147.502 133.333 142.504 121.669 136.669ZM42.5039 182.505C66.6683 195.006 90.0019 209.168 112.501 225.002C110.003 195.009 110.003 165.007 111.667 136.672C85.0009 149.17 61.6705 165.003 42.5039 182.505ZM240.836 105.836C244.169 132.502 245.003 160.84 245.003 188.334C269.17 183.336 293.338 180.003 315.834 178.338C293.335 151.669 269.17 128.338 240.836 105.836ZM129.169 129.172C139.168 134.17 149.167 138.334 160.837 143.338C185.835 154.171 210.837 165.837 235.838 184.167C235.838 155.842 235.001 127.504 230.837 100.004C193.335 107.507 159.169 116.671 129.169 129.172ZM65.0035 97.5049L44.1688 168.336C61.6705 153.337 83.3361 140.005 107.504 128.338C90.8359 119.17 77.5011 109.172 65.0035 97.5049ZM246.668 98.3357C271.669 117.502 294.169 139.168 314.166 162.505L294.169 93.3379C278.335 95.0028 262.501 96.6709 246.668 98.3357ZM139.168 41.673C131.665 67.5023 125.836 94.1719 122.5 121.669C152.5 109.172 185.832 99.1698 222.5 93.3379C200.001 75.8393 173.334 60.0056 139.168 41.673ZM70.0013 89.1679C82.502 101.669 96.6677 111.671 113.335 121.669C115.834 96.6677 120.835 71.6693 127.504 47.5049L70.0013 89.1679ZM230.834 45.8368C234.167 60.0056 236.666 75.0053 239.168 90.0019C254.168 87.503 269.167 85.8349 284.164 85.0041L230.834 45.8368ZM155.002 39.171C183.333 55.0016 207.504 70.0044 228.335 85.0041C225.836 70.0044 223.334 54.1707 219.167 39.171H155.002Z" fill="white"/>
</svg>
