<svg width="360" height="360" viewBox="0 0 360 360" fill="none" xmlns="http://www.w3.org/2000/svg">
<rect width="360" height="360" rx="82" fill="#46146D"/>
<path fill-rule="evenodd" clip-rule="evenodd" d="M157.102 219.676L163.415 203.834C163.564 203.478 163.684 203.09 163.684 202.701C163.684 202.374 163.356 202.106 163.057 202.106C162.671 202.106 162.313 202.374 162.045 202.614L146.769 215.628C143.791 218.159 140.575 219.945 136.585 219.945C132.028 219.945 128.217 217.385 128.217 212.56C128.217 211.844 128.275 211.1 128.335 210.387C121.724 217.413 114.547 221.731 104.69 221.731C99.0924 221.731 93.6426 220.689 88.2822 219.113L83.4272 217.683L79.0196 219.676C70.3237 223.638 60.7065 225.217 51.1755 225.217C44.7729 225.217 25 223.758 25 214.169C25 210 30.2427 206.278 33.4573 204.608C41.7654 200.261 51.3843 197.701 60.7645 197.701C67.9111 197.701 74.8804 199.339 81.8183 200.856L83.4255 201.213L87.6244 195.794C97.8082 182.749 105.164 167.085 117.642 155.919C137.445 138.23 164.515 134 190.215 134C204.717 134 219.368 135.639 232.828 141.296C239.232 143.975 248.79 150.2 248.79 158.151C248.79 165.715 241.524 171.016 235.421 174.023C226.664 178.281 216.185 179.501 206.533 179.501C197.122 179.501 165.259 177.09 165.259 163.69C165.259 151.927 183.753 147.639 192.568 147.639C200.28 147.639 207.516 149.783 214.513 152.79L216.272 153.564L213.831 156.154C209.63 153.326 204.122 152.134 199.118 152.134C193.102 152.134 183.811 156.333 183.811 163.42C183.811 172.265 196.915 175.839 203.824 175.839C213.145 175.839 228.271 170.479 228.271 159.072C228.271 151.271 220.709 145.403 214.278 142.485C206.744 139.062 198.524 137.839 190.303 137.839C178.928 137.839 167.314 140.043 157.011 144.986C148.076 149.244 141.554 156.719 136.017 164.729L129.226 174.497C122.08 184.8 114.665 195.58 105.165 203.829L101.86 206.657L107.071 208.505C109.722 209.428 112.58 209.754 115.381 209.754C122.945 209.754 126.696 207.314 130.865 201.239L136.671 187.779H156.564L150.636 203.352L150.279 204.364C150.219 204.601 150.101 204.84 150.101 205.08C150.101 205.464 150.517 205.763 150.845 205.763C151.589 205.763 152.365 205.138 152.87 204.72L168.444 191.856C171.364 189.415 174.429 187.567 178.361 187.567C183.453 187.567 186.878 190.011 187.354 195.044L187.296 195.131L187.652 194.863C192.121 191.501 196.973 188.432 202.782 188.432C207.963 188.432 213.533 191.587 213.533 197.335C213.533 198.469 213.264 199.63 212.847 200.672L210.225 206.924C210.048 207.372 209.539 208.177 209.539 208.652C209.539 209.633 210.941 209.93 211.713 209.93C213.682 209.93 215.496 208.652 216.865 207.342C217.728 202.694 219.486 198.439 222.671 194.863C226.694 190.368 232.648 187.151 238.785 187.151C244.144 187.151 247.957 190.489 250.071 195.073L259.272 173.96H278.033L265.317 205.049C265.11 205.557 264.722 206.24 264.722 206.777C264.722 207.582 265.557 208.087 266.301 208.087C268.236 208.087 270.916 206.389 272.553 205.378C273.595 202.041 274.964 198.825 277.317 196.207C282.498 190.489 290.81 187.957 298.342 187.957C304.09 187.957 313.497 190.339 313.497 197.662C313.497 204.662 305.487 208.474 299.443 208.474C296.109 208.474 293.07 207.37 290.003 206.208C289.883 206.775 289.734 207.37 289.734 207.966C289.734 212.553 294.767 215.294 298.848 215.294C304.892 215.294 311.385 211.184 316.657 208.533C322.521 205.556 328.331 202.934 335 202.843L332.589 210.021C326.362 209.991 321.211 211.572 315.346 213.715C310.579 215.443 305.877 217.317 301.11 219.073C297.577 220.345 293.849 220.99 290.094 220.979C281.489 220.979 276.424 217.763 272.583 210.381C267.579 213.983 259.214 220.979 252.631 220.979C248.611 220.979 245.721 218.059 244.381 214.517C239.943 217.882 234.853 220.86 229.105 220.86C223.415 220.86 218.861 217.019 217.551 211.658C215.791 213.382 213.842 214.9 211.741 216.185C207.572 218.745 203.107 220.919 198.132 220.919C193.695 220.919 189.647 217.942 189.647 213.294C189.647 212.074 190.003 211.002 190.449 209.87L193.518 202.278C193.695 201.831 193.786 201.324 193.786 200.818C193.786 199.595 192.653 198.941 191.491 198.941C188.543 198.941 185.478 200.727 183.838 203.171L176.752 219.666H157.102V219.676Z" fill="white"/>
<path fill-rule="evenodd" clip-rule="evenodd" d="M158.383 182.422H138.937L142.986 172.298H162.401L158.383 182.422Z" fill="white"/>
<path fill-rule="evenodd" clip-rule="evenodd" d="M71.6045 213.067L56.0006 207.138C53.4688 206.187 50.7894 205.62 48.0487 205.62C44.3271 205.62 38.1333 207.29 38.1333 211.935C38.1333 218.932 47.6328 220.155 52.8441 220.155C60.0205 220.155 66.1862 217.62 71.6045 213.067ZM234.141 205.86C234.141 208.78 236.137 211.249 239.203 211.249C243.967 211.249 247.216 206.753 247.216 202.288C247.216 199.667 245.575 196.926 242.659 196.926C238.16 196.924 234.141 201.453 234.141 205.86ZM291.317 201.928C292.719 202.437 294.145 202.851 295.633 202.851C298.879 202.851 303.824 200.797 303.824 196.957C303.824 195.287 302.187 194.275 300.665 194.275C296.707 194.275 293.789 197.88 291.912 200.977L291.317 201.928Z" fill="#46146D"/>
</svg>
