<svg width="360" height="360" viewBox="0 0 360 360" fill="none" xmlns="http://www.w3.org/2000/svg">
<rect width="360" height="360" rx="82" fill="black"/>
<mask id="mask0" mask-type="alpha" maskUnits="userSpaceOnUse" x="24" y="24" width="312" height="312">
<circle cx="179.999" cy="180" r="155.455" fill="#4681C7"/>
<circle cx="179.999" cy="180" r="155.205" stroke="#2869BF" stroke-opacity="0.04" stroke-width="0.5"/>
</mask>
<g mask="url(#mask0)">
<path d="M56 176.038V262.236L90.5375 261.946C120.431 261.656 126.236 260.204 132.621 252.658C142.779 240.469 141.908 236.986 130.009 240.178C116.658 243.661 93.1495 235.535 83.2817 225.087C74.865 215.799 73.7041 188.517 80.6696 175.457C82.7012 171.684 95.4714 161.526 109.112 153.69C122.463 145.854 144.811 131.052 158.742 120.604C172.673 110.445 189.796 99.7069 196.472 96.8046C207.5 91.8707 199.954 91.2902 132.621 91H56V176.038Z" fill="white"/>
<path d="M167.145 122.346C153.214 132.794 141.605 143.823 140.734 147.015C138.993 154.271 163.082 179.812 168.887 177.78C170.918 176.909 180.206 167.332 189.783 155.432L206.907 134.826L196.459 123.797C186.301 113.349 186.301 106.964 195.588 106.964C198.2 106.964 198.49 108.125 197.329 109.866C193.266 113.639 202.844 123.797 210.39 123.797C215.324 123.797 214.453 121.185 206.907 113.349C201.393 107.544 195.878 102.9 194.717 102.9C193.556 103.191 181.076 111.898 167.145 122.346Z" fill="white"/>
<path d="M265.853 200.997C224.35 215.799 136.991 253.529 133.508 258.463C132.638 260.204 172.109 261.365 221.738 261.946L312 262.236V224.796C312 203.9 310.839 187.066 309.098 187.066C307.066 187.066 287.621 193.451 265.853 200.997Z" fill="white"/>
</g>
</svg>
