<svg width="360" height="360" viewBox="0 0 360 360" fill="none" xmlns="http://www.w3.org/2000/svg">
<rect width="360" height="360" rx="82" fill="#CC0000"/>
<path d="M162.966 166.934C167.159 166.934 170.536 170.341 170.536 174.534C170.536 178.727 167.159 182.134 162.966 182.134C158.743 182.134 155.366 178.727 155.366 174.534C155.366 170.341 158.743 166.934 162.966 166.934ZM335 192.82C323.032 204.73 285.76 237.431 275.889 264.977L263.688 261.832C267.677 250.418 279.703 232.684 293.098 218.998C290.244 220.076 287.274 220.483 284.886 220.483C281.276 220.483 278.451 219.377 276.762 217.339C275.539 215.854 274.928 213.932 274.928 211.631C274.928 211.136 274.957 210.641 275.044 210.059C263.251 217.251 253.787 220.483 244.528 220.483C237.306 220.483 231.22 217.339 228.425 211.806C216.748 217.63 205.537 220.483 196.161 220.483C187.455 220.483 180.408 217.018 177.205 210.729C165.382 217.368 155.337 220.483 147.358 220.483C142.728 220.483 139.088 219.202 136.729 216.785C135.011 215.009 134.109 212.621 133.992 209.855C126.421 214.834 115.356 220.483 104 220.483C92.4103 220.483 84.6064 216.494 78.5787 212.534C68.9403 217.863 58.3411 220.483 47.1595 220.483C38.6858 220.483 25 216.96 25 204.817C25 195.004 35.2499 188.365 48.9358 188.365C60.554 188.365 71.7651 193.257 78.8119 198.353C85.4802 193.053 92.4977 185.599 100.767 175.087C98.9328 175.203 97.1566 175.262 95.4096 175.262C79.569 175.262 66.3781 170.574 59.1566 162.42C55.2544 157.994 53.4199 152.811 53.4199 147.249C53.4199 125.235 81.2288 108.172 105.543 105.638C107.144 109.278 108.6 112.103 110.085 115.422C86.0334 118.218 66.0285 132.457 66.0285 146.347C66.0285 155.49 76.3075 164.662 98.0883 164.662C101.816 164.662 105.572 164.313 109.27 163.789C128.518 137.232 157.986 96 183.378 96C190.861 96 194.792 100.572 194.792 106.658C194.792 119.237 183.99 132.748 176.972 139.795C165.907 150.889 145.902 167.429 117.977 172.903C107.115 188.016 98.2048 198.033 89.2654 205.283C94.6815 208.195 99.7484 209.971 105.805 209.971C120.83 209.971 135.419 196.227 146.805 184.551L147.212 184.172L156.093 191.102L155.686 191.597C150.648 197.363 145.989 203.478 145.989 206.885C145.989 209.477 148.202 210.001 150.066 210.001C155.832 210.001 164.713 206.273 175.137 199.838V199.751C176.302 173.981 211.507 134.495 232.88 134.495C238.907 134.495 242.373 137.494 242.373 142.765C242.373 155.723 220.068 183.444 187.629 204.643V204.672C189.289 208.283 193.162 210.03 199.713 210.03C204.839 210.03 214.856 207.758 226.765 201.527C228.134 188.161 235.705 173.806 245.314 163.585C254.952 153.335 265.755 146.667 275.103 146.667C280.868 146.667 284.275 149.841 284.275 154.82C284.275 166.089 271.171 185.395 239.606 205.575C241.004 208.283 243.712 210.001 247.934 210.001C257.34 210.001 273.88 199.984 286.779 187.637L296.039 194.83C292.079 199.634 288.09 204.905 288.206 207.933C288.235 208.923 288.905 209.593 290.477 209.593C299.97 209.593 314.937 197.043 326.148 185.948L335 192.82ZM127.673 159.159C141.592 154.675 154.812 145.357 164.684 135.602C173.769 126.575 181.077 115.859 181.077 110.559C181.077 109.336 180.204 108.608 179.098 108.608C174.904 108.608 166.896 114.228 156.122 125.002C147.736 133.389 137.982 144.862 127.673 159.159ZM68.1543 205.196C63.0291 201.614 55.1091 198.528 48.0037 198.528C41.1318 198.528 36.7347 201.207 36.7347 204.643C36.7347 208.545 42.0926 210.234 48.062 210.234C55.2836 210.234 61.8644 208.283 68.1543 205.196ZM187.455 192.296C206.877 177.62 227.289 156.247 229.473 147.482C229.531 147.191 229.619 146.9 229.59 146.638C229.56 146.055 229.24 145.531 228.512 145.531C222.368 145.531 193.89 171.797 187.455 192.296ZM238.966 194.626C240.771 193.345 242.722 191.86 244.528 190.433C258.476 179.28 269.133 167.05 271.259 160.265C271.317 160.062 271.492 159.421 271.492 158.926C271.492 158.227 271.171 157.732 270.531 157.732C264.125 157.732 243.567 178.203 238.587 194.771V194.83L238.966 194.626Z" fill="white"/>
</svg>
