<svg width="360" height="360" viewBox="0 0 360 360" fill="none" xmlns="http://www.w3.org/2000/svg">
<rect width="360" height="360" rx="82" fill="#2D509F"/>
<path fill-rule="evenodd" clip-rule="evenodd" d="M334 161.091H259.379C269.171 124.246 278.027 93 278.027 93C278.027 93 244.449 128.911 214.601 161.091H26.3946C24.5351 161.091 24.5351 162.027 26.3946 162.027C27.3297 162.027 209.001 167.154 209.001 167.154C185.682 191.87 173.09 205.864 172.634 206.332C171.698 207.267 172.634 207.734 173.558 206.799C174.025 206.332 190.825 190.934 214.601 167.154L251.447 167.621C249.109 178.348 247.255 188.14 244.449 199.802C199.214 224.056 125.528 263.696 125.528 263.696C124.593 264.164 125.061 265.099 125.996 264.631C126.464 264.164 195.017 229.65 243.046 205.396C235.125 241.307 229.998 266.018 229.998 266.485C229.53 266.953 230.466 267.42 230.933 266.485C230.933 266.018 237.92 241.307 248.19 203.059C291.087 181.148 334 161.091 334 161.091ZM220.663 161.091C243.047 139.17 261.706 121.446 261.706 121.446C261.706 121.446 258.444 136.838 252.849 161.091H220.663ZM257.514 167.627L302.281 168.556C302.281 168.556 279.898 180.68 249.582 197.002C252.382 186.743 254.709 177.886 257.514 167.627Z" fill="white" stroke="white" stroke-width="3"/>
</svg>
