<svg width="360" height="360" viewBox="0 0 360 360" fill="none" xmlns="http://www.w3.org/2000/svg">
<rect width="360" height="360" rx="82" fill="#960A2C"/>
<path d="M86.5074 62.0003H273.479C285.349 62.0003 295 71.6376 295 83.5077V276.46C295 288.323 285.349 297.953 273.479 297.953H230.753C225.977 293.818 220.278 288.971 218.101 287.513C215.093 285.512 212.705 284.131 214.05 281.44C216.403 276.749 218.587 270.648 220.207 271.183C221.849 271.718 229.408 272.803 231.549 273.888C232.634 274.418 236.952 274.418 241.271 272.269C248.294 269.028 249.914 263.646 250.999 263.104C252.07 262.547 254.233 259.328 254.233 259.328C254.233 259.328 255.853 257.693 255.853 255.538C256.381 252.84 256.924 247.437 254.775 244.21C253.148 241.498 249.372 237.701 246.681 236.63C242.891 235.011 241.813 233.932 241.813 231.241C241.271 229.085 246.131 228.536 246.681 224.76C246.681 222.463 245.399 220.421 243.151 220.421V219.576C245.082 219.344 248.294 218.286 247.752 215.039C247.216 211.799 245.061 209.643 245.061 209.643C245.061 209.643 244.518 206.41 246.131 205.318C248.294 204.24 253.148 205.318 256.924 204.782C260.714 204.239 264.497 203.704 264.497 199.922C264.497 193.983 260.714 190.214 256.924 184.276C253.148 178.323 249.372 174.561 248.829 173.469C248.294 171.856 248.146 169.813 248.146 169.813C248.146 169.813 251.549 166.939 252.584 165.946C254.514 164.073 256.903 161.472 255.296 158.239C254.747 156.625 252.591 156.625 251.499 155.012C249.879 153.379 250.421 150.144 248.801 148.517C247.716 146.904 247.716 143.657 246.103 140.966C245.018 137.732 243.433 132.293 243.433 132.293C243.433 132.293 249.28 128.524 249.816 126.897C252.514 120.43 252.07 115.696 252.07 115.696C252.07 115.696 254.233 107.06 248.829 101.656C247.216 99.5078 245.061 97.3451 242.891 96.2742C239.65 94.1045 236.417 91.9628 234.254 90.8709C230.478 89.2434 225.667 88.025 221.877 86.9542C218.101 85.3268 216.466 85.3268 214.853 85.3268C212.705 85.876 210.542 85.876 209.464 85.3268C207.837 85.3268 201.363 83.1713 197.573 83.7134C194.353 83.7134 190.028 85.8759 182.997 86.4043C175.995 87.4886 170.049 85.875 166.274 86.9533C162.491 88.5728 160.342 88.0238 158.172 89.1161C156.009 90.1944 153.269 90.8694 153.269 90.8694C153.269 90.8694 149.493 91.9616 147.88 92.4828C146.802 93.5671 143.562 95.7306 143.562 95.7306L140.314 98.9781C139.236 98.9781 136.003 100.591 135.46 101.655L133.298 103.825C133.298 103.825 131.684 104.368 130.6 105.444C129.508 106.515 127.352 109.762 126.281 110.291C124.654 110.84 122.914 112.454 119.131 115.694C115.355 119.484 111.037 124.88 110.487 126.493C109.945 127.578 107.254 132.989 107.254 134.059C106.704 135.687 105.633 141.083 104.556 142.14C104.006 143.224 100.773 149.713 100.773 150.797C100.237 152.403 100.237 157.814 99.6877 159.42C99.1524 161.047 96.9896 167.535 96.9896 172.396C96.9896 176.715 99.6877 179.941 99.6877 181.575C100.237 183.181 101.308 190.733 101.308 193.981C101.85 196.693 104.422 205.858 105.492 208.028C106.028 210.177 108.205 212.889 108.205 212.889C108.205 212.889 109.585 218.13 112.826 221.392C116.067 225.181 119.307 229.077 120.92 230.162C124.161 232.832 124.971 239.595 124.971 239.595C124.971 239.595 119.976 240.545 118.891 241.624C117.814 243.243 113.368 254.741 108.775 262.546C104.422 269.957 96.6797 277.333 96.1795 280.63C95.7217 283.631 99.73 286.301 98.6451 286.836C98.0253 287.16 93.4391 293.063 89.6984 297.952H86.5072C74.6441 297.952 65 288.322 65 276.459V83.5071C65 71.637 74.6441 62 86.5072 62" fill="white"/>
</svg>
