<svg width="360" height="360" viewBox="0 0 360 360" fill="none" xmlns="http://www.w3.org/2000/svg">
<rect width="360" height="360" rx="82" fill="url(#paint0_angular)" fill-opacity="0.15"/>
<path d="M209.465 130.254L221.473 159.208L250.764 171.216L279.718 100.963L209.465 130.254Z" fill="#74BE45"/>
<path d="M80.9707 100.963L110.261 171.216L139.215 159.208L151.224 130.254L80.9707 100.963Z" fill="#FAB01A"/>
<path d="M279.7 183.222L250.746 171.214L238.738 200.505L250.746 229.459L279.7 217.451L320.999 200.505L279.7 183.222Z" fill="#FEE600"/>
<path d="M262.772 258.751L250.764 229.46L238.756 200.506L221.473 241.468L209.465 270.759L238.756 282.767L279.718 299.713L262.772 258.751Z" fill="#23AAE2"/>
<path d="M110.253 171.214L80.9621 183.222L40 200.505L80.9621 217.451L110.253 229.459L122.261 200.505L110.253 171.214Z" fill="#FEE600"/>
<path d="M110.25 171.214L122.258 200.505L139.204 159.206L110.25 171.214Z" fill="#FECF0A"/>
<path d="M221.475 159.207L238.757 200.505L250.765 171.215L221.475 159.207Z" fill="#C3D830"/>
<path d="M139.215 241.468L122.269 200.506L110.261 229.46L98.2533 258.751L80.9707 299.713L122.269 282.767L151.224 270.759L139.215 241.468Z" fill="#23AAE2"/>
<path d="M151.22 270.758L180.51 200.506L209.464 270.758L221.472 241.468L238.755 200.506L221.472 159.207L209.464 130.253L180.51 60L151.22 130.253L139.212 159.207L122.266 200.506L139.212 241.468L151.22 270.758Z" fill="#0886C8"/>
<defs>
<radialGradient id="paint0_angular" cx="0" cy="0" r="1" gradientUnits="userSpaceOnUse" gradientTransform="translate(180 180) rotate(90) scale(180)">
<stop offset="0.22087" stop-color="#FEE600"/>
<stop offset="0.354557" stop-color="#FAB01A"/>
<stop offset="0.501424" stop-color="#12A4F1"/>
<stop offset="0.643741" stop-color="#74BE45"/>
<stop offset="0.77022" stop-color="#FEE600"/>
<stop offset="0.999595" stop-color="#23AAE2"/>
</radialGradient>
</defs>
</svg>
