<svg width="360" height="360" viewBox="0 0 360 360" fill="none" xmlns="http://www.w3.org/2000/svg">
<rect width="360" height="360" rx="82" fill="#004990"/>
<path d="M180.017 98L101.505 131.631H52.5314V145.351H28V237.566H332V145.351H307.481V131.631H258.525L180.017 98Z" fill="white"/>
<path d="M252.513 156.155L252.51 171.063L262.155 171.08L264.164 156.159L252.514 156.156L252.513 156.155Z" fill="#004990"/>
<path d="M76.4843 206.957V156.153H62.5898V219.055H97.9838V206.957H76.4843Z" fill="#004990"/>
<path d="M216.367 219.059H249.44V206.944H230.33V199.05H249.44V187.387H230.33V179.449H249.44V167.284H216.367V167.343V219.059Z" fill="#004990"/>
<path d="M129.752 179.451H117.531V206.895H129.752V179.451ZM143.672 212.447C143.672 216.097 140.712 219.06 137.059 219.06H110.219C106.57 219.06 103.611 216.097 103.611 212.447V173.898C103.611 170.245 106.57 167.285 110.219 167.285H137.059C140.712 167.285 143.672 170.245 143.672 173.898V212.447Z" fill="#004990"/>
<path d="M194.498 167.285V206.959H186.11V167.285H173.889V206.959H165.5V167.285H151.58V212.443C151.58 216.097 154.54 219.061 158.193 219.061H174.647C177.419 219.061 179.999 217.144 179.999 214.372C179.999 217.144 182.58 219.061 185.352 219.061H201.81C205.459 219.061 208.418 216.097 208.418 212.443V167.285H194.498Z" fill="#004990"/>
<path d="M298.23 199.494L298.234 199.497L298.148 199.318C298.093 199.208 298.038 199.101 297.983 198.991L297.897 198.82C295.696 194.405 290.765 190.717 282.828 187.54L282.547 187.434C280.975 186.817 276.193 184.947 275.661 181.907C275.516 181.055 275.861 179.718 276.811 178.905C277.812 177.887 279.344 177.364 281.367 177.364C284.603 177.364 288.282 178.688 290.19 179.476C294.206 181.14 297.727 182.627 297.761 182.648L298.11 182.793V171.491L297.995 171.419C297.919 171.368 290.326 166.582 282.657 165.483C281.776 165.406 280.903 165.372 280.064 165.372C273.004 165.372 267.656 167.936 264.173 172.995C261.247 177.15 260.924 183.729 263.411 188.639C266.608 194.187 271.735 196.504 276.696 198.748C278.74 199.668 280.856 200.63 282.836 201.805L282.857 201.819C285.097 203.165 286.238 205.221 285.765 207.048C285.275 208.943 283.108 210.216 280.37 210.216C279.995 210.216 279.616 210.196 279.246 210.144L279.114 210.127C273.846 209.394 263.167 205.417 263.06 205.375L262.72 205.247V217.638L262.894 217.698C262.993 217.732 273.331 221.155 282.508 221.155H282.511C287.519 221.155 291.3 220.146 293.744 218.162C293.804 218.119 299.412 213.61 299.659 205.941C299.727 203.82 299.246 201.649 298.228 199.494" fill="#004990"/>
</svg>
