<svg width="360" height="360" viewBox="0 0 360 360" fill="none" xmlns="http://www.w3.org/2000/svg">
<rect width="360" height="360" rx="82" fill="#003764"/>
<path fill-rule="evenodd" clip-rule="evenodd" d="M327.266 198.217C327.266 197.783 327.266 196.48 326.832 195.178C326.398 192.138 326.398 189.099 325.964 186.493C325.964 186.059 325.964 185.191 325.529 184.322C325.095 181.283 324.227 178.243 323.792 175.203C323.358 174.335 323.358 173.466 322.924 172.164C322.055 168.69 320.753 165.65 319.45 162.611C319.45 162.177 319.016 161.308 319.016 161.308C319.016 160.874 318.582 160.44 318.148 160.006C316.845 157.834 315.976 156.098 314.674 153.926C314.239 153.492 313.805 153.058 313.805 152.624L312.937 151.755C312.937 151.755 312.937 151.755 312.937 151.321C312.503 150.887 312.503 150.887 312.503 150.453C311.634 149.584 311.634 149.584 310.766 149.15C309.897 148.716 309.463 148.282 309.029 147.847C308.16 146.979 306.858 146.545 305.989 145.676L305.555 145.242C305.555 145.242 304.687 144.808 304.252 144.374C303.818 143.939 303.384 143.939 302.95 143.505C302.516 143.505 302.081 143.071 302.081 143.071L301.647 142.637C301.213 142.202 300.779 142.202 299.91 141.768C299.91 141.768 299.91 141.768 299.476 141.334C298.607 140.9 297.739 140.9 296.436 140.466C291.66 139.163 285.147 138.729 279.502 139.163C276.896 139.597 274.291 140.031 271.686 140.466C270.817 140.9 269.08 141.768 269.08 141.768C269.08 141.768 268.212 142.202 267.778 142.637C266.475 143.071 265.172 143.939 263.87 144.374C262.567 144.808 261.264 145.676 259.962 146.11C259.093 146.979 257.791 147.413 256.922 148.282C256.054 149.15 255.185 149.584 253.882 150.453C253.882 150.453 252.146 152.19 251.277 153.058C251.277 153.492 249.974 154.361 249.974 154.361C249.54 155.229 249.106 155.663 248.238 156.098C246.501 157.834 245.198 160.006 243.895 162.177C242.159 165.216 240.422 169.124 239.119 172.598C238.25 175.203 237.382 178.243 236.948 181.283C236.514 184.322 236.079 187.796 235.645 190.835C235.645 191.27 235.211 191.704 235.211 192.138C235.211 193.441 235.211 194.743 235.211 196.046C235.211 196.915 235.211 197.349 235.211 197.783C235.211 198.651 235.211 202.125 235.645 204.296C235.645 205.165 236.079 206.033 236.079 206.467C239.987 206.467 244.33 206.467 248.238 206.467C252.146 206.902 256.054 206.467 259.527 206.467C260.83 206.467 262.567 206.467 264.304 206.467C267.343 206.467 270.383 206.467 273.423 206.467C275.159 206.467 276.896 206.033 278.199 206.467C278.633 206.467 278.633 206.467 278.633 206.467C283.41 206.902 287.752 206.033 292.528 206.467H293.397C294.699 206.467 296.002 206.467 297.305 206.467C299.042 206.467 302.516 206.467 304.687 206.467C306.424 206.467 308.595 206.033 310.766 206.467C312.068 206.467 314.24 206.467 315.976 206.467C319.884 206.902 324.227 206.467 327.7 206.467C328.569 204.731 327.266 201.691 327.266 198.217Z" fill="#FFB700"/>
<path fill-rule="evenodd" clip-rule="evenodd" d="M227.843 202.993C227.843 202.125 227.843 199.954 227.843 198.651C227.843 197.782 227.843 196.48 227.843 195.177C227.409 191.703 227.409 189.098 226.975 186.058C226.106 183.887 226.106 181.716 225.238 179.111C224.804 177.808 224.369 176.506 224.369 175.203C223.935 173.9 223.501 172.163 223.067 170.861C222.198 169.124 221.764 166.953 220.896 164.782C219.593 163.045 219.159 161.742 217.856 160.005C217.856 160.005 217.422 159.571 217.422 159.137C216.553 158.268 216.119 157.4 215.251 156.531C214.816 155.229 213.948 154.794 213.08 153.926C212.211 153.492 211.343 152.189 210.474 151.755C208.737 150.018 207 148.715 204.829 147.413C203.961 146.544 203.092 146.11 201.79 145.676C200.053 144.807 198.75 143.939 196.145 143.07C196.145 143.07 195.711 142.636 195.276 142.636C194.842 142.636 194.408 142.202 193.974 142.202C193.539 142.202 193.105 141.768 192.671 141.768C191.368 141.333 190.066 140.899 189.197 140.899C188.329 140.465 187.46 140.465 186.592 140.465C185.723 140.465 185.289 140.465 184.421 140.465C183.552 140.465 182.684 140.465 181.815 140.465C180.947 140.465 180.079 140.465 179.21 140.465C176.605 140.899 173.999 140.899 171.828 141.333C169.657 142.202 167.486 142.636 165.315 143.505C163.578 144.373 162.275 145.241 160.538 146.544C158.802 147.413 157.499 148.281 155.762 149.584C153.591 152.189 151.42 154.794 149.249 157.4C149.249 157.834 148.38 158.268 148.38 158.268L147.946 158.702C146.209 161.308 144.906 163.479 143.169 166.084C142.735 166.953 142.301 167.387 142.301 168.255C141.433 170.426 140.13 172.598 139.696 175.203C139.696 176.071 139.262 176.94 139.262 177.808C138.827 179.111 138.393 180.414 137.959 181.282C137.959 181.716 137.959 182.15 137.525 182.585C137.525 183.019 137.09 183.019 137.09 183.453C137.09 183.887 137.09 183.887 137.09 184.322C137.09 184.756 137.09 184.756 136.656 185.19C136.656 185.624 136.656 185.624 136.656 186.058C136.656 186.493 136.222 187.361 136.222 187.795C136.222 189.098 135.788 190.401 135.788 191.269C135.353 193.006 135.354 194.309 135.354 195.611C135.354 196.046 135.354 196.48 135.354 197.348C135.354 198.217 135.354 198.651 135.354 199.519C135.354 202.559 135.788 205.164 135.788 208.638C138.393 209.072 140.998 208.638 143.604 208.638C144.038 208.638 144.038 208.638 144.038 208.638C145.775 208.638 147.078 208.638 148.38 208.638C150.117 208.638 151.854 208.638 153.591 208.638C156.196 208.638 158.367 208.638 160.973 209.072C163.578 209.072 166.183 209.072 168.789 209.072C169.657 209.072 170.526 209.072 171.394 209.072C171.828 209.072 171.828 209.072 172.263 209.072H172.697C177.473 209.072 181.381 209.072 185.723 209.507C187.46 209.507 188.763 209.507 190.066 209.507C191.368 209.507 193.539 209.507 194.842 209.507C195.276 209.507 195.711 209.507 196.145 209.507C197.013 209.507 198.75 209.507 199.619 209.507C205.698 209.507 212.645 209.941 219.159 209.507C220.027 209.507 221.33 209.507 222.198 209.507C223.501 209.072 224.804 209.507 226.541 209.507C227.409 206.467 227.843 204.73 227.843 202.993Z" fill="#E75300"/>
<path fill-rule="evenodd" clip-rule="evenodd" d="M127.095 198.651C127.095 197.783 127.095 196.914 126.661 196.046C126.227 194.309 126.226 191.704 125.792 189.967C125.358 187.796 124.924 185.625 124.49 183.454C124.055 181.717 123.621 180.414 123.187 178.677C122.753 176.94 121.884 175.203 121.45 173.901C120.582 172.164 119.713 170.427 118.845 168.69C118.411 167.822 117.976 167.387 117.542 166.519C117.108 165.65 116.674 164.782 116.239 163.913C115.371 162.611 114.502 160.874 113.2 159.571C112.331 158.269 111.029 156.966 109.726 155.663C108.858 154.795 106.686 153.058 106.252 152.624C104.515 151.321 102.778 150.018 101.042 149.15C100.173 148.716 99.3046 148.281 98.002 147.847C96.6993 147.413 95.3967 146.545 94.094 146.11C92.7913 145.676 91.0544 145.242 89.7518 145.242C88.0149 144.808 85.8437 144.373 84.1068 143.939C83.6726 143.939 83.2384 143.939 82.8042 143.939C79.7646 143.505 76.725 143.505 73.2512 143.505C70.6459 143.939 68.4748 144.808 65.8695 145.242C62.8299 146.545 60.6588 146.979 57.185 149.584C53.7112 152.189 53.7112 152.189 52.4085 153.492C51.9743 153.926 50.6716 155.229 50.6716 155.663C50.2374 156.097 49.8031 156.097 49.8031 156.532C48.9347 157.834 47.632 158.703 46.7636 160.005C46.3294 160.874 45.4609 161.742 45.0267 162.177C44.5925 162.611 44.1582 163.045 43.724 163.479C42.4214 165.216 41.1187 166.953 40.2502 169.124C38.9476 171.295 38.5133 173.032 38.0791 173.901C37.2107 176.072 35.908 178.677 35.4738 181.282C34.6054 183.454 34.1711 186.059 33.7369 188.23C33.3026 190.835 32.8684 193.441 32.8684 196.48C32.8684 198.651 32.4342 200.822 32.4342 202.559C32.4342 204.296 32 206.467 32 208.638C41.5529 208.204 51.9743 208.204 61.9614 208.204C65.001 208.204 67.6063 207.77 70.6459 208.204C74.5539 208.204 78.0277 208.204 81.5015 208.204C83.2384 208.204 84.9752 207.77 86.7121 208.204C87.5806 208.204 88.8833 208.204 90.1859 208.204C94.094 208.204 98.002 208.204 101.91 208.204H102.344C103.647 208.204 104.95 208.204 106.252 208.204C107.121 208.204 107.989 208.204 107.989 208.204C108.858 208.204 110.16 208.204 111.029 208.204C112.766 208.204 114.502 208.204 116.239 208.204C119.713 208.638 122.753 208.204 126.227 208.204C127.529 204.296 127.529 201.691 127.095 198.651Z" fill="white"/>
</svg>
