<svg width="360" height="360" viewBox="0 0 360 360" fill="none" xmlns="http://www.w3.org/2000/svg">
<rect width="360" height="360" rx="82" fill="#009EDB"/>
<path d="M308.535 145.552C308.535 143.321 307.324 142.306 304.331 142.306C301.336 142.306 300.116 143.409 300.116 145.552V224.962C300.116 227.199 301.336 228.196 304.331 228.196C307.324 228.196 308.535 227.102 308.535 224.962V145.552ZM328.976 145.552C328.976 143.321 327.753 142.306 324.766 142.306C321.767 142.306 320.553 143.409 320.553 145.552V224.962C320.553 227.199 321.767 228.196 324.766 228.196C327.753 228.196 328.976 227.099 328.976 224.962V145.552ZM100.205 145.552C100.205 143.321 98.9878 142.306 95.9892 142.306C92.9994 142.306 91.7764 143.409 91.7764 145.552C91.7764 146.922 91.7827 224.668 91.7827 224.962C91.7827 227.199 92.9998 228.196 95.9895 228.196C98.9882 228.196 100.205 227.102 100.205 224.962L100.205 145.552ZM205.65 145.552C205.65 143.321 204.43 142.306 201.434 142.306C198.439 142.306 197.225 143.409 197.225 145.552V224.985C197.225 227.226 198.439 228.219 201.434 228.219C204.43 228.219 205.65 227.126 205.65 224.985V145.552ZM185.024 145.552C185.024 143.321 183.81 142.306 180.814 142.306C177.822 142.306 176.608 143.409 176.608 145.552V224.962C176.608 227.199 177.822 228.196 180.814 228.196C183.81 228.196 185.024 227.102 185.024 224.962V145.552ZM164.46 145.552C164.46 143.321 163.246 142.306 160.251 142.306C157.255 142.306 156.041 143.409 156.041 145.552V224.962C156.041 227.199 157.255 228.196 160.251 228.196C163.246 228.196 164.46 227.102 164.46 224.962V145.552ZM38.4216 224.962C38.4216 227.102 37.2074 228.196 34.2088 228.196C31.222 228.196 30.002 227.199 30.002 224.962V145.552C30.002 143.409 31.222 142.306 34.2088 142.306C37.2074 142.306 38.4216 143.321 38.4216 145.552V224.962Z" fill="white"/>
</svg>
