<svg width="360" height="360" viewBox="0 0 360 360" fill="none" xmlns="http://www.w3.org/2000/svg">
<rect width="360" height="360" rx="82" fill="#003D99"/>
<path d="M226.136 104.488H133.903V255.131H226.136V104.488Z" fill="#FF5F00"/>
<path d="M143.403 179.823C143.392 165.317 146.68 150.999 153.019 137.952C159.358 124.905 168.582 113.471 179.993 104.515C165.86 93.408 148.888 86.5014 131.016 84.5842C113.144 82.6671 95.0928 85.8168 78.9261 93.6733C62.7593 101.53 49.129 113.776 39.593 129.013C30.057 144.249 25 161.861 25 179.836C25 197.811 30.057 215.423 39.593 230.66C49.129 245.896 62.7593 258.142 78.9261 265.999C95.0928 273.855 113.144 277.005 131.016 275.088C148.888 273.171 165.86 266.264 179.993 255.158C168.579 246.199 159.353 234.76 153.014 221.708C146.674 208.656 143.388 194.333 143.403 179.823Z" fill="#EB001B"/>
<path d="M335 179.823C335 197.799 329.942 215.412 320.404 230.649C310.866 245.886 297.234 258.132 281.065 265.988C264.896 273.843 246.844 276.991 228.97 275.071C211.097 273.151 194.125 266.241 179.993 255.131C191.399 246.167 200.621 234.73 206.961 221.682C213.302 208.634 216.597 194.316 216.597 179.809C216.597 165.303 213.302 150.985 206.961 137.937C200.621 124.889 191.399 113.452 179.993 104.488C194.125 93.3779 211.097 86.4679 228.97 84.548C246.844 82.6281 264.896 85.7758 281.065 93.6312C297.234 101.487 310.866 113.733 320.404 128.97C329.942 144.207 335 161.82 335 179.796V179.823Z" fill="#F79E1B"/>
</svg>
