<svg width="360" height="360" viewBox="0 0 360 360" fill="none" xmlns="http://www.w3.org/2000/svg">
<rect width="360" height="360" rx="82" fill="#377489"/>
<path d="M149.271 97H111.324C122.723 201.75 203.377 247.488 230.503 263.792H310.003C211.313 227.721 145.664 160.196 149.271 97Z" fill="black"/>
<path d="M137.872 219.786C130.081 209.542 122.867 198.72 117.384 187.899C113.2 180.685 110.17 174.048 107.14 167.411C97.4727 143.892 91.5571 120.518 90.2585 97H65.5859C73.9544 207.233 122.722 252.971 136.574 263.792H180.58C164.998 251.095 150.569 236.667 137.872 219.786Z" fill="black"/>
<path d="M53.6057 135.524C48.1229 157.167 45.2372 203.482 72.9398 263.793H108.434C74.0941 232.483 53.0286 186.168 53.6057 135.524Z" fill="black"/>
</svg>
