<svg width="360" height="360" viewBox="0 0 360 360" fill="none" xmlns="http://www.w3.org/2000/svg">
<rect width="360" height="360" rx="82" fill="#C6003D"/>
<path d="M125.45 122.638C132.146 141.106 147.768 160.188 136.609 181.614C131.588 203.374 110.943 221.005 89.1832 224.52C66.3071 226.585 45.1047 222.735 27.8083 208.953C16.0911 146.128 41.7571 87.989 91.4149 53.3401L125.45 122.638Z" fill="white"/>
<path d="M213.047 314.074C201.888 352.071 89.738 327.13 54.5869 264.751C100.897 269.884 152.788 228.93 153.904 182.229L213.047 314.074Z" fill="white"/>
<path d="M259.36 309.164C264.382 306.876 274.424 301.744 277.214 290.752L156.696 28.6246C148.326 27.6203 142.748 26.8949 132.146 34.2041L259.36 309.164Z" fill="white"/>
<path d="M313.48 252.251C364.812 174.416 321.849 46.7001 210.816 28.7898L313.48 252.251Z" fill="white"/>
</svg>
