<svg width="360" height="360" viewBox="0 0 360 360" fill="none" xmlns="http://www.w3.org/2000/svg">
<rect width="360" height="360" rx="82" fill="#486085"/>
<path fill-rule="evenodd" clip-rule="evenodd" d="M56.0983 141.16C55.2723 135.075 52.1201 130.749 45.5705 128.499L44.5111 128.172L43.5332 127.886L42.5992 127.643L41.7441 127.477L41.0057 127.317L39.9461 127.115L39.5405 127.074V125.037H78.2165L101.992 182.203L112.538 207.406L122.514 182.203L145.394 125.037H181.426V127.074L181.099 127.115L180.247 127.235L178.983 127.436L177.395 127.763C174.409 128.502 172.051 129.149 169.701 131.225L169.091 131.797L168.601 132.369L168.154 132.938L167.749 133.469L167.465 133.957L167.179 134.444L166.812 135.261L166.607 135.912L166.529 136.318L166.485 136.443V182.209V227.076V233.509L168.522 230.006L168.642 229.764L168.928 229.192L169.418 228.255L169.984 227.073L170.597 225.651C172.722 220.777 175.142 216.084 177.398 211.277C191.542 182.326 203.754 152.33 216.564 122.76L217.706 120.198L218.435 118.569L218.683 118L246.817 182.209C253.556 197.737 270.675 256.724 303.046 231.352L303.656 230.823L304.228 230.295L304.795 229.726L305.364 229.116L305.895 228.462L306.426 227.77L306.914 227.076L307.316 226.425L307.684 225.812L308.014 225.123L308.338 224.428L308.662 223.658L308.948 222.922L309.231 222.108C312.243 211.758 310.562 202.278 301.823 195.483L300.764 194.669L299.745 193.975L298.767 193.324L297.833 192.754L297.019 192.308L296.082 191.818L295.064 191.33L293.966 190.802L291.52 189.701L288.794 188.481L285.861 187.098L282.808 185.63L281.223 184.816L279.632 184.001L278.045 183.105L276.46 182.212L274.463 181.03L272.508 179.766L271.533 179.118L270.593 178.424L269.656 177.732L268.722 176.999L267.823 176.267L266.927 175.534L266.072 174.758C259.581 168.567 255.258 161.209 256.02 151.956L256.221 150.45L256.466 148.985L256.834 147.479L257.202 146.011L257.692 144.587C259.697 139.193 262.575 134.663 266.729 130.664L267.87 129.643L269.052 128.665L270.272 127.769L271.536 126.914L272.837 126.14L274.18 125.408L275.564 124.716L276.991 124.144L278.456 123.616L279.962 123.169L281.471 122.758L283.056 122.471L284.644 122.267L286.234 122.147L287.863 122.11H288.92L289.935 122.147L290.875 122.229L291.771 122.311L292.664 122.431L293.479 122.553L294.299 122.714L295.034 122.877L296.459 123.245L297.801 123.648L299.018 124.097L300.157 124.588L302.276 125.481L304.31 126.295L305.367 126.619L306.426 126.864C311.175 127.608 314.864 126.079 318.317 122.874L318.805 122.343L319.172 121.856L319.66 121.161L319.82 120.919L323.361 152.269H319.82L319.739 151.983L319.493 151.128L319.047 149.823L318.396 148.156L317.99 147.178L317.506 146.16L316.974 145.062L316.364 143.921L315.714 142.742L314.981 141.557L314.17 140.337L313.314 139.076L312.377 137.856L311.359 136.633L310.261 135.413L309.079 134.231L307.818 133.09L306.476 132.03L305.052 130.977L303.502 129.996L301.914 129.141L300.203 128.326L298.414 127.638L296.5 127.025L294.506 126.537L292.387 126.169L290.189 125.968L287.872 125.883L286.243 125.924L284.693 126.088L283.228 126.292L281.886 126.616L280.622 126.984L279.44 127.43L278.38 127.924L277.364 128.49L276.468 129.1L275.613 129.751L274.84 130.443L274.145 131.175C271.022 134.896 269.711 139.552 269.711 144.365V145.506L269.749 146.604L269.913 147.663L270.158 148.682L270.444 149.697L270.847 150.672L271.296 151.609C275.71 159.437 285.297 163.264 293.198 166.468L296.091 167.569L299.018 168.71L300.609 169.323L302.153 169.974L303.662 170.665L305.124 171.36L306.552 172.131L307.935 172.901L309.319 173.719L310.623 174.571L311.928 175.432L313.189 176.328L314.371 177.221L315.553 178.158L316.691 179.136L317.789 180.151L318.848 181.126C330.299 193.575 332.686 207.99 322.797 222.412L322.269 223.226L321.697 224.002L321.128 224.776L320.518 225.549L319.908 226.282L319.254 227.052L317.993 228.275L316.691 229.498L316 230.105L315.267 230.675L314.575 231.247L313.802 231.819L313.028 232.347L312.255 232.875L311.441 233.409L310.626 233.897L309.774 234.384L308.919 234.872L308.023 235.321L307.124 235.768L306.187 236.176L305.253 236.579L304.272 236.95L303.297 237.318C292.688 240.855 282.212 240.047 271.661 236.871L269.954 236.34L268.284 235.812L267.429 235.61L266.615 235.403C261.279 234.072 255.991 234.291 251.837 238.17L251.265 238.824L250.778 239.434L250.328 240.006L249.963 240.534L249.677 241.021L249.31 241.716L249.187 242.002L243.04 227.058L229.235 191.841H190.842L182.333 210.611L182.129 211.058L181.68 212.196L181.356 213.013L181.032 213.95L180.664 215.051L180.299 216.189L179.972 217.45L179.686 218.754L179.441 220.1C178.846 224.3 178.889 228.305 181.805 231.702L182.295 232.189L182.824 232.636L183.393 233.042L183.962 233.447L184.534 233.774L185.144 234.101L185.754 234.387L186.323 234.632L186.933 234.875L187.543 235.079L188.766 235.403L189.946 235.61L191.087 235.771L192.105 235.852L193.08 235.893L193.895 235.931L195.077 235.893L195.52 235.852V239.638H130.132V235.852L130.459 235.931L131.355 236.095C141.565 237.373 146.608 228.693 146.608 218.261L146.868 182.189V132.024L127.202 182.189L109.33 227.055L104.319 239.638L99.068 227.055L80.0115 182.189L59.5424 134.1V211.907C59.9043 222.385 61.7403 234.107 74.1916 236.299L74.7608 236.337L75.5751 236.419H75.899V239.635H36V236.419L36.4495 236.46H37.6316L38.4459 236.419L39.3799 236.337L40.3986 236.176C53.8218 233.398 56.0955 222.415 56.0955 211.747L56.0983 141.16ZM225.408 182.2L227.772 188.061H192.024L194.344 182.2L210.467 145.232L225.408 182.2Z" fill="white"/>
</svg>
