<svg width="360" height="360" viewBox="0 0 360 360" fill="none" xmlns="http://www.w3.org/2000/svg">
<rect width="360" height="360" rx="82" fill="#D52B1E"/>
<circle cx="180" cy="180" r="155.455" fill="#4681C7" fill-opacity="0.06"/>
<circle cx="180" cy="180" r="155.205" stroke="#2869BF" stroke-opacity="0.04" stroke-width="0.5"/>
<path d="M235.501 78.7636C257.363 78.7636 275.098 170.999 275.098 284.91H307C307 162.273 274.816 63 235.407 63C212.888 63 192.996 92.7444 179.859 139.472C166.723 92.7444 146.831 63 124.499 63C85.0901 63 53 162.179 53 284.816H84.9025C84.9025 170.905 102.449 78.7636 124.311 78.7636C146.174 78.7636 163.908 163.962 163.908 269.053H195.623C195.623 163.962 213.451 78.7636 235.313 78.7636" fill="#FFCC00"/>
</svg>
