<svg width="360" height="360" viewBox="0 0 360 360" fill="none" xmlns="http://www.w3.org/2000/svg">
<rect width="360" height="360" rx="82" fill="#EC1B24"/>
<path fill-rule="evenodd" clip-rule="evenodd" d="M169.642 264.608C169.642 264.608 181.923 286.193 195.816 264.608L222.735 225.409L143.467 98.6299C143.467 98.6299 131.186 81.6351 116.549 98.6299L88.8856 136.961L169.642 264.608ZM180.434 326.137C221.991 326.137 259.702 310.755 287.365 286.193L192.715 137.83L221.991 97.7615C234.272 81.6351 247.297 97.7615 247.297 97.7615L328.177 225.409C332.023 214.616 334.256 202.335 335 190.799L243.451 46.2809C224.224 38.5898 202.763 34 180.434 34C99.9259 34 25 95.7767 25 180.13C25 193.156 27.2329 206.181 30.3341 217.718L75.7363 155.445L107.369 203.948C114.936 215.485 107.369 225.409 107.369 225.409L67.3009 280.735C97.569 311.003 138.133 326.137 180.434 326.137Z" fill="white"/>
</svg>
