<svg width="360" height="360" viewBox="0 0 360 360" fill="none" xmlns="http://www.w3.org/2000/svg">
<rect width="360" height="360" rx="82" fill="#0D4BA0"/>
<path fill-rule="evenodd" clip-rule="evenodd" d="M253.183 45.1013C233.73 38.3671 215.777 35 199.323 35C130.141 35 89 74.2736 89 136.721C89 196.934 131.627 237.761 194.089 237.761C217.645 237.761 238.215 234.762 255.051 228.723L253.565 178.231C241.214 185.715 228.128 189.45 213.541 189.45C178.753 189.45 157.064 168.143 157.064 136.34C157.064 103.8 177.635 82.8617 210.542 82.8617C222.879 82.8617 235.598 86.2288 248.684 93.331L253.183 45.1013Z" fill="white"/>
<path fill-rule="evenodd" clip-rule="evenodd" d="M106.549 267.002H252.942V315H106.549V267.002Z" fill="#F15A22"/>
</svg>
