<svg width="360" height="360" viewBox="0 0 360 360" fill="none" xmlns="http://www.w3.org/2000/svg">
<rect width="360" height="360" rx="82" fill="#1C74BB"/>
<path fill-rule="evenodd" clip-rule="evenodd" d="M178.357 213.24L172.436 198.755H186.26L180.339 213.24C180.339 213.892 180.339 214.553 179.678 214.553C179.017 214.561 179.017 213.9 178.357 213.24ZM141.491 198.763H110.564V215.883H148.742L141.491 198.763ZM199.415 198.763L192.173 215.883H231.003V198.763H199.415ZM98.722 198.763H26.313C26.9737 204.032 28.2867 209.953 29.6082 215.883H98.722V198.763ZM259.313 198.763V215.883H330.4C331.722 209.961 333.035 204.04 333.695 198.763H259.313ZM150.708 220.482H110.564V236.933H157.95L150.708 220.482ZM190.199 220.482L183.617 236.933H231.003V220.482H190.199ZM259.313 220.482V236.933H323.818C325.792 231.664 327.766 226.403 329.087 220.482H259.313ZM98.722 220.482H30.2604C32.2341 226.403 34.2078 231.672 36.1816 236.933H98.7135V220.482H98.722ZM166.506 258.652L159.924 242.202H110.564V253.392C110.564 257.991 113.199 257.991 115.825 257.991H119.781C120.433 257.991 120.433 257.991 120.433 258.652H166.506ZM181.652 242.202L174.409 258.652H218.509C218.509 257.991 218.509 257.991 219.822 257.991H225.743C228.377 257.991 231.012 257.991 231.012 253.392V242.202H181.652ZM259.313 242.202V253.392C259.313 257.991 261.286 257.991 264.582 257.991H269.19C269.851 257.991 269.851 257.991 269.851 258.652H313.289C316.576 253.383 319.21 248.123 321.845 242.202H259.313ZM88.845 258.652C88.845 257.991 88.8449 257.991 90.1579 257.991H93.4531C96.7483 257.991 98.722 257.991 98.722 253.392V242.202H38.1722C40.6284 247.882 43.4876 253.379 46.7278 258.652H88.845ZM132.284 175.722H110.564V193.494H139.518L132.284 175.722ZM208.632 175.722L201.397 193.494H231.012V175.722H208.632ZM196.129 175.722H163.219L170.453 193.494H188.225L196.129 175.722ZM98.722 175.722H25V179.67C25 184.278 25.6607 188.886 25.6607 193.494H98.722V175.722ZM335 175.722H259.304V193.494H334.339C334.339 188.886 335 184.278 335 179.67V175.722ZM123.728 324.471C141.5 331.053 159.924 335.009 179.67 335.009C199.415 335.009 218.5 331.053 235.611 324.471H123.728ZM271.155 304.734H88.845C96.0876 310.655 103.991 315.254 112.538 319.21H247.462C256.018 315.254 263.912 310.655 271.155 304.734ZM98.722 131.631H32.8949C30.9296 136.9 29.6082 142.821 28.2952 148.743H98.722V131.631ZM259.313 148.734H331.713C330.392 142.813 329.079 136.892 327.105 131.623H259.313V148.734ZM113.851 131.631H110.564V148.743H121.094L113.851 131.631ZM231.012 131.631H226.403L219.169 148.743H231.012V131.631ZM213.9 131.631H144.787L152.029 148.743H206.658L213.9 131.631ZM283.667 284.336C284.98 287.614 285.64 289.596 285.64 289.596H73.7075C73.7075 289.596 73.7075 287.614 75.0205 284.336H65.8042C70.4123 290.257 76.3335 295.517 82.2546 300.117H277.737C283.658 295.517 288.927 290.257 294.187 284.336H283.667ZM86.2105 57.2486H273.789C265.895 50.6667 256.678 45.4063 247.462 40.7982H112.538C103.322 45.4063 94.1138 50.6752 86.2105 57.2486ZM236.272 35.5293C218.5 28.9475 200.076 25 179.67 25C160.585 25 141.491 28.9475 124.389 35.5293H236.272ZM73.7075 69.7601H285.64C285.64 69.7601 284.319 75.029 280.371 80.9501H298.804C293.173 74.1123 287.009 67.7307 280.371 61.8652H80.2894C73.2862 67.5512 66.8905 73.947 61.2045 80.9501H78.3157C76.3419 77.4158 74.795 73.6594 73.7075 69.7601ZM49.3538 263.912C53.3012 269.173 57.2486 274.45 61.2045 279.05H77.6549C78.9764 277.745 80.2894 276.415 81.6024 274.45C82.2631 272.468 84.8975 269.834 85.5498 267.868H273.129C274.442 269.834 276.424 273.129 277.737 274.45C279.05 276.415 279.711 277.745 281.032 279.05H298.804C302.9 274.286 306.641 269.226 309.994 263.912H49.3538ZM94.7661 99.3742H90.1579C88.8449 99.3742 88.845 99.3743 88.845 98.722V96.0791C88.845 95.4268 89.5057 95.4269 89.5057 95.4269H129.658L133.605 103.982H225.09L228.386 95.4269H269.19C269.19 95.4269 269.851 95.4268 269.851 96.0791V98.722C269.851 99.3743 269.851 99.3742 269.19 99.3742H263.269C260.626 99.3742 259.313 100.035 259.313 103.982H315.254C311.307 98.0612 307.36 91.4709 302.751 85.5583H277.085C275.772 87.532 274.45 89.5057 273.137 90.8272H85.5498C84.8891 89.5057 82.9153 87.532 82.2546 85.5583H57.2401C52.632 91.4794 48.6846 98.0612 44.7371 103.982H98.7135C98.722 100.035 97.4005 99.3742 94.7661 99.3742ZM135.579 109.251L142.813 126.362H215.874L223.108 109.251H135.579ZM259.313 126.362H325.14C323.126 120.498 320.706 114.78 317.897 109.251H259.321V126.362H259.313ZM98.722 109.251H42.1196C39.3111 114.78 36.891 120.498 34.877 126.362H98.722V109.251ZM123.076 153.342H110.564V170.462H130.31L123.076 153.342ZM259.313 170.462H334.348C334.348 164.541 333.687 159.272 332.374 153.342H259.313V170.462ZM204.684 153.342H154.003L161.245 170.462H198.102L204.684 153.342ZM231.012 153.342H217.187L210.605 170.462H231.012V153.342ZM98.722 153.342H27.6344C26.3265 158.955 25.6643 164.699 25.6607 170.462H98.722V153.342Z" fill="white"/>
</svg>
