<svg width="360" height="360" viewBox="0 0 360 360" fill="none" xmlns="http://www.w3.org/2000/svg">
<rect width="360" height="360" rx="82" fill="#472380"/>
<path d="M121.497 224.155C117.566 227.722 111.89 228.91 108.335 229.364C101.093 230.269 93.603 227.865 88.8238 222.105C84.899 217.399 82.8854 211.305 79.0536 206.433C73.0008 198.721 63.3251 193.67 53.3581 195.455C33.6558 199.029 24.7169 222.001 35.8555 237.937C51.7762 260.712 87.5791 256.768 105.954 240.991C111.676 236.085 117.018 230.626 121.497 224.155Z" fill="#E51636"/>
<path d="M246.508 197.017C250.446 200.591 256.104 201.78 259.672 202.228C266.91 203.139 274.405 200.738 279.181 194.973C283.104 190.261 285.128 184.173 288.952 179.301C295.014 171.586 304.689 166.535 314.653 168.323C334.346 171.892 343.286 194.868 332.14 210.806C316.225 233.575 280.427 229.637 262.061 213.861C256.336 208.954 250.982 203.491 246.508 197.017Z" fill="#E51636"/>
<path d="M250.358 214.589C235.548 198.349 230.915 171.343 230.003 153.394C229.217 137.886 230.056 111.03 242.276 103.214C238.185 98.0715 230.116 96 223.984 96C210.206 96 203.565 105.177 198.853 111.776C197.297 113.956 174.129 145.916 174.129 145.916C174.129 145.916 154.641 115.769 152.247 112.148C148.936 107.151 142.739 97.9678 131.846 96.3783C127.155 95.6934 114.987 95.071 108.364 104.161C119.78 113.295 119.494 136.556 117.016 152.437C109.579 200.106 89.2959 204.496 89.2959 204.496C99.6855 232.556 126.443 221.47 134.004 199.098C138.901 184.556 142.063 166.149 142.792 150.884L172.156 195.928C172.156 195.928 205.406 151.025 205.406 151.064C199.929 230.477 227.202 252.989 251.052 252.989C274.922 252.989 283.045 231.161 283.045 231.161C270.138 230.381 258.842 223.89 250.358 214.589Z" fill="white"/>
</svg>
