<svg width="360" height="360" viewBox="0 0 360 360" fill="none" xmlns="http://www.w3.org/2000/svg">
<rect width="360" height="360" rx="82" fill="#ED1C24"/>
<path fill-rule="evenodd" clip-rule="evenodd" d="M162.63 160.548C160.693 160.548 157.486 161.197 156.004 163.764L135.496 199.298L146.675 199.375L162.601 171.785L170.167 184.805L155.636 184.766L161.313 194.415L175.767 194.493L178.498 199.298H189.688L169.102 163.648C167.019 160.402 164.297 160.548 162.63 160.548ZM208.307 160.548C198.009 160.548 189.688 169.218 189.688 179.923C189.688 190.637 198.019 199.298 208.307 199.298L228.438 199.453L238.125 189.61L208.191 189.688C202.746 189.61 199.491 184.427 199.375 179.961C199.22 175.156 202.862 170.119 208.268 170.051L228.438 170.313L238.125 160.548H208.307ZM44.375 160.625C34.1159 160.625 25 169.828 25 180.533C25 191.238 34.1159 199.375 44.375 199.375H63.75C74.0091 199.375 83.125 190.705 83.125 180C83.125 169.295 74.0091 160.625 63.75 160.625H44.375ZM92.8125 160.625V199.375H102.5V170.313H114.91C118.591 170.274 121.875 171.64 121.875 175.118C121.875 178.566 118.659 180.039 115.365 180.039L102.5 180L118.92 199.453L131.562 199.375L121.652 187.721C121.652 187.721 131.485 184.844 131.562 174.963C131.601 166.796 126.641 160.703 118.32 160.625H92.8125ZM257.5 160.625H247.812V195.665C247.806 196.147 247.895 196.626 248.074 197.074C248.254 197.522 248.52 197.93 248.858 198.275C249.195 198.62 249.598 198.895 250.042 199.083C250.486 199.272 250.963 199.371 251.445 199.375L276.875 199.453L286.562 189.688H257.5V160.625ZM304 160.703C293.712 160.703 285.39 169.363 285.39 180.078C285.39 190.782 293.722 199.453 304.01 199.453H325.312L335 189.765H303.855C301.51 190.027 297.073 188.06 295.988 183.894L325.312 184.234L334.884 175.418C334.884 175.418 306.054 175.573 296.134 175.612C297.044 171.146 303.855 170.38 303.855 170.38H325.312L335 160.693L304 160.703ZM44.375 170.313H63.75C65.6875 170.351 72.5656 173.267 72.5269 179.961C72.5746 182.395 71.6937 184.755 70.0633 186.561C68.4328 188.368 66.1753 189.486 63.75 189.688H44.375C39.9478 189.649 35.4431 184.544 35.4431 180.155C35.4431 174.701 40.5872 170.235 44.375 170.313Z" fill="white"/>
</svg>
