<svg width="360" height="360" viewBox="0 0 360 360" fill="none" xmlns="http://www.w3.org/2000/svg">
<rect width="360" height="360" rx="82" fill="#016EA9"/>
<path fill-rule="evenodd" clip-rule="evenodd" d="M188.234 299.876H175.242V294.311C175.242 288.553 176.9 278.315 177.965 272.3C179.789 261.992 177.928 260.782 181.507 251.107C182.487 248.455 184.5 244.799 185.259 242.49C186.167 239.729 186.015 235.674 187.224 232.088C189.011 226.782 192.727 218.18 193.183 212.693C194.973 213.171 199.33 216.711 202.052 218.052C205.735 219.865 208.323 220.987 212.165 222.783C219.941 226.417 216.714 235.698 219.551 245.081C222.309 254.201 224.365 258.082 229.429 264.888C232.909 269.565 239.45 277.305 240.821 283.182C238.873 283.701 232.157 287.574 229.264 288.945C225.345 290.803 221.365 292.586 217.059 294.059C210.782 296.204 195.898 299.876 188.234 299.876L188.234 299.876ZM57.6971 201.564C61.732 201.228 62.8067 198.472 67.5957 198.472H69.4513C74.6715 198.472 83.2855 208.984 99.1472 208.984H104.715C115.88 208.984 142.457 200.644 144.316 200.904L157.92 202.801L162.991 202.808L162.251 217.022L162.053 218.281L163.488 232.48V237.426C163.488 248.691 156.682 257.989 156.682 265.251L156.206 272.134L160.395 298.639H157.92C149.092 298.639 127.966 289.855 121.206 286.486C111.59 281.694 99.7052 272.923 92.4956 265.715C84.0621 257.284 76.8907 248.764 70.8997 237.833C66.5693 229.933 58.0016 212.592 57.697 201.564L57.6971 201.564ZM240.821 198.472C249.185 198.658 257.4 205.274 266.186 205.274L271.773 205.394L298.356 200.946C298.356 209.968 288.841 231.369 284.993 237.673C281.498 243.397 267.654 264.486 262.473 265.869C260.101 255.69 253.671 241.096 252.55 231.268C251.817 224.852 252.212 216.872 249.705 211.852C246.605 205.643 243.157 202.887 240.821 198.472H240.821ZM194.888 175.599L195.04 171.884C198.156 172.61 208.381 179.331 211.496 181.407C219.305 186.61 219.145 187.22 224.896 193.983C229.465 199.355 232.945 202.423 237.587 207.269C242.432 212.328 243.762 217.356 243.89 226.939C244.021 236.734 252.002 259.365 254.96 267.813C260.247 282.91 270.388 284.418 290.313 284.418C288.623 286.724 277.172 290.96 273.381 292.228C269.474 293.536 266.719 293.331 263.199 294.418C260.737 295.177 256.994 298.021 254.431 298.021H253.812C250.873 298.021 250.549 286.346 249.712 283.569C247.735 277.005 246.728 275.681 243.421 270.69C238.128 262.702 232.355 257.513 228.986 247.399C227.072 241.652 226.831 239.198 225.601 232.233C224.309 224.915 225.924 222.168 220.535 218.128C219.516 217.364 195.861 204.709 195.797 204.651L194.888 175.599ZM69.9827 173.11C81.0286 178.376 87.9036 172.6 94.2066 168.183C101.051 163.386 107.965 160.755 119.564 160.755H121.42C133.425 160.755 145.633 178.116 156.065 183.633C156.182 188.929 160.143 190.998 162.251 194.144C146.626 194.144 148.868 190.662 133.423 195.011C124.823 197.432 115.291 200.327 104.715 200.327H99.1477C82.4138 200.327 78.6012 189.816 70.0704 189.816H65.1213C60.863 189.816 58.263 194.144 52.7478 194.144H46.5614C40.202 194.144 36.6627 186.916 36.6627 179.923V178.686C36.6627 166.09 43.8653 163.228 56.46 163.228C57.4192 162.586 58.7125 161.373 60.1722 161.373C61.6594 161.373 61.9907 162.375 63.2652 163.228L68.2191 163.221L70.689 164.465L70.8298 166.337L69.9828 173.11L69.9827 173.11ZM196.896 159.519C204.531 159.519 215.324 161.88 221.094 163.776C224.842 165.007 228.237 165.7 231.921 167.176C238.539 169.829 236.379 168.612 243.697 170.246C251.454 171.979 253.568 176.898 266.18 176.838C276.94 176.786 282.93 179.305 292.788 179.305H303.925C316.187 179.305 320.699 155.544 324.282 154.578L325.577 170.029C325.767 171.981 323.916 177.783 323.716 180.536C323.365 185.383 324.125 188.524 323.103 192.907C318.915 192.907 312.665 190.734 310.655 190.601L269.28 197.236C263.571 198.174 245.186 189.197 232.778 189.197C229.13 186.756 220.821 178.733 216.524 175.146C213.374 172.516 201.218 164.206 196.896 163.847V159.519L196.896 159.519ZM57.6975 150.862C57.6975 143.216 70.7213 113.548 75.0199 110.671C92.6722 114.782 85.8241 119.252 92.3376 132.317C94.3102 136.275 97.4704 140.871 100.534 143.911C103.129 146.487 109.452 151.17 110.902 153.335C95.7426 153.335 85.0169 165.701 81.8251 165.701H79.3503C79.3503 160.747 76.4056 157.905 73.0919 156.499C71.5403 155.84 62.6503 152.717 61.4091 152.717H57.6974V150.862L57.6975 150.862ZM167.818 93.3586C167.818 91.9338 168.249 91.5036 169.675 91.5036C174.452 91.5036 178.955 97.4634 178.955 103.251L179.151 108.224L177.717 120.564L177.934 121.168L180.192 151.48V155.808C180.192 162.267 178.739 178.302 179.663 182.924C180.139 185.304 190.091 194.325 190.091 200.327C190.091 201.752 189.66 202.182 188.234 202.182C186.788 202.182 186.398 200.908 183.904 200.327C184.941 202.286 186.997 209.65 186.997 212.693V214.548C186.997 215.99 185.346 217.64 183.904 217.64H182.666C174.873 217.64 168.437 206.629 168.437 200.327V193.526C168.437 192.101 168.868 191.671 170.293 191.671C173.704 191.671 170.653 213.045 182.666 213.312C182.666 206.148 178.668 201.302 180.192 194.762L183.53 194.565L175.922 184.863L175.242 177.449C174.506 170.942 176.48 161.517 176.48 153.953V150.862C176.48 150.333 174.878 142.102 174.668 140.307C174.291 137.099 174.614 131.432 174.631 127.978C174.65 123.746 173.511 120.886 174.049 116.28C174.479 112.591 175.242 109.568 175.242 105.106C175.242 95.2073 167.818 95.6971 167.818 93.3587L167.818 93.3586ZM70.0699 90.8854V90.2667C70.0699 83.2629 78.5942 73.5721 85.5369 73.5721H86.1556C91.1116 73.5721 94.7524 75.8836 97.4511 78.3589C102.609 83.0899 105.952 80.3214 105.952 86.5572C107.141 87.3526 110.283 89.7496 110.283 91.5036V92.1218C110.283 96.5445 97.2911 98.1734 97.2911 101.396V102.633C97.2911 104.058 97.7218 104.488 99.1472 104.488C102.886 104.488 104.772 102.722 107.808 102.015C114.733 115.095 121.503 107.677 134.179 112.758C142.885 116.248 148.341 125.424 156.682 127.366C157.428 136.318 161.632 137.313 161.632 150.244C157.49 148.053 155.94 144.829 152.472 142.086C149.243 139.53 144.783 137.779 141.67 134.95C137.806 131.44 128.14 118.71 122.037 118.71H117.707C115.644 118.71 109.664 120.564 109.664 123.038V125.511C109.664 127.266 111.8 128.603 113.376 128.603C114.398 128.603 116.72 126.747 120.182 126.747C124.163 126.747 134.932 140.492 139.358 143.444C143.7 146.34 145.864 147.148 149.724 151.016C151.884 153.181 156.871 158.125 159.776 158.9C159.383 163.625 154.827 165.795 154.827 173.121C150.73 170.379 148.022 166.584 144.474 163.064C140.697 159.318 135.84 158.311 130.91 155.598C123.881 151.729 111.038 143.849 105.788 138.66C94.4096 127.412 99.811 120.769 92.725 110.289C87.4381 102.47 70.0699 104.371 70.0699 90.8855V90.8854ZM152.352 100.778L152.105 101.421L153.589 115.618C151.266 114.998 143.729 107.529 138.438 105.409C133.657 103.494 123.429 101.396 117.088 101.396C116.691 99.7384 116.47 100.231 116.47 98.9231C116.47 98.1229 118.326 97.6068 118.326 94.5949V92.1217C118.326 87.2162 115.662 85.895 114.718 82.7429C112.816 76.3948 110.565 77.5619 109.664 74.1907C112.601 73.507 126.116 65.2147 131.849 62.9731C137.498 60.7641 151.362 55.8011 158.538 55.641C159.521 59.8554 162.869 62.3463 162.869 67.3893V69.2438C162.869 79.2568 152.352 86.2005 152.352 100.778L152.352 100.778ZM193.802 55.641C221.879 55.641 253.436 78.1661 267.688 93.0933C283.281 109.424 300.831 140.482 300.831 171.885C291.373 171.885 281.97 168.783 274.243 168.778C263.861 168.772 256.718 167.237 249.283 164.046C243.338 161.495 242.515 162.632 237.518 160.965C233.538 159.637 230.533 158.055 226.591 157.045C218.648 155.01 211.631 152.098 201.226 152.098H198.133V134.786C198.133 128.139 195.673 111.429 194.18 105.347C192.56 98.7405 181.429 84.6485 181.429 84.0834V82.2284C181.429 79.5275 182.666 79.9835 182.666 77.282V74.1907C180.508 74.0108 174.005 70.5558 174.005 69.2438C174.005 67.8195 174.436 67.3893 175.861 67.3893C177.706 67.3893 182.79 72.3357 188.235 72.3357H189.472C190.859 72.3357 190.83 71.8464 191.946 71.0988C191.946 66.5096 193.184 67.0294 193.184 64.2974V61.8242H195.04V59.351C195.04 57.0911 194.26 59.2039 193.802 55.641L193.802 55.641ZM179.573 34H169.056C161.165 39.0044 160.115 35.5328 157.301 47.6027C149.395 47.6027 133.104 53.7554 126.899 56.1716C117.376 59.8806 109.441 65.2475 101.622 70.4807C97.9725 68.0381 92.7501 64.9156 86.7737 64.9156C75.1258 64.9156 61.4086 78.447 61.4086 90.2667C61.4086 97.9172 65.356 100.841 68.2143 105.106C61.2899 115.441 49.7059 139.712 48.417 155.19C36.5907 156.174 28.001 165.405 28.001 178.068V183.014C28.001 192.564 34.5623 198.415 41.7998 201.376C51.2972 205.261 47.6479 198.893 50.3858 208.871C51.5319 213.05 52.9552 216.826 54.3376 220.998C59.0938 235.347 68.9114 252.397 77.9491 262.323C88.3112 273.702 99.1432 283.691 113.163 291.433C123.567 297.178 146.997 307.296 162.251 307.296V309.77C162.251 314.444 160.394 317.297 160.394 319.662V322.754C160.394 327.199 167.874 325.227 171.531 325.227L172.179 325.033L182.666 326.464L185.768 326.612L201.226 325.846C201.572 325.348 202.463 324.319 202.463 323.991C202.463 322.604 201.974 322.633 201.226 321.517C194.037 321.517 179.461 312.995 177.098 308.533C205.407 308.533 224.799 301.001 243.295 291.22C243.867 298.089 246.124 306.678 253.194 306.678H255.05C258.097 306.678 263.637 302.74 266.243 301.788C269.935 300.439 275.304 300.12 279.711 298.555C285.924 296.347 298.356 292.327 298.356 284.419V283.182C298.356 280.027 295.593 277.131 292.907 276.262C289.497 275.159 285.65 276.38 281.652 276.38C276.614 276.38 272.139 274.861 268.042 273.907C268.268 271.192 278.314 261.813 280.663 258.697C284.835 253.165 289.025 248.024 292.178 241.763C300.331 225.572 302.343 219.763 307.017 199.709H311.967C315.502 199.709 317.982 201.564 322.484 201.564C333.336 201.564 331.764 189.526 331.764 180.541V178.686C331.764 175.985 333.001 176.441 333.001 173.74V163.228C333.001 156.123 331.42 145.297 324.34 145.297H321.865C313.181 145.297 315.189 160.443 308.255 165.083C308.255 134.624 287.211 101.077 271.6 85.474C261.705 75.5845 251.347 67.1702 238.355 60.5783C229.172 55.9198 207.016 46.9847 193.802 46.9847H191.946C189.162 35.0387 186.593 38.875 179.573 34L179.573 34Z" fill="white"/>
</svg>
