<svg width="360" height="360" viewBox="0 0 360 360" fill="none" xmlns="http://www.w3.org/2000/svg">
<rect width="360" height="360" rx="82" fill="url(#paint0_linear)"/>
<path d="M180.001 141.427C204.367 173.686 218.825 213.864 218.825 257.444C218.825 267.955 217.974 278.268 216.348 288.333H286.894C293.029 288.333 298 283.346 298 277.194V82.1589C298 74.8929 291.155 69.5176 284.145 71.3672C242.018 82.4892 205.556 107.59 180.001 141.427Z" fill="#99D538"/>
<path d="M143.652 288.332C142.034 278.275 141.175 267.962 141.175 257.443C141.175 213.872 155.641 173.685 179.999 141.426C154.444 107.589 117.982 82.4882 75.855 71.3745C68.8449 69.5249 62 74.8919 62 82.1579V277.202C62 283.345 66.9789 288.332 73.1138 288.332H143.652Z" fill="#239DE0"/>
<path d="M179.987 141.427C155.621 173.686 141.163 213.864 141.163 257.444C141.163 267.955 142.014 278.268 143.64 288.333H216.334C217.96 278.268 218.811 267.955 218.811 257.444C218.811 213.864 204.353 173.686 179.987 141.427Z" fill="#1563A9"/>
<defs>
<linearGradient id="paint0_linear" x1="0" y1="180" x2="360" y2="180" gradientUnits="userSpaceOnUse">
<stop offset="0.161458" stop-color="#99D538" stop-opacity="0.15"/>
<stop offset="0.498581" stop-color="#99D538" stop-opacity="0.15"/>
<stop offset="0.501363" stop-color="#239DE0" stop-opacity="0.15"/>
<stop offset="0.965944" stop-color="#239DE0" stop-opacity="0.15"/>
</linearGradient>
</defs>
</svg>
