<svg width="360" height="360" viewBox="0 0 360 360" fill="none" xmlns="http://www.w3.org/2000/svg">
<rect width="360" height="360" rx="82" fill="#C23C40"/>
<path fill-rule="evenodd" clip-rule="evenodd" d="M179.49 335C267.763 335 339.279 265.58 339.279 180.002C339.279 94.4202 267.763 25 179.49 25C91.5159 25 20 94.4202 20 180.002C19.9983 265.58 91.5159 335 179.49 335Z" fill="white"/>
<path fill-rule="evenodd" clip-rule="evenodd" d="M230.057 133.32C234.547 135.115 239.633 136.612 242.027 133.619C244.423 130.627 244.124 133.02 243.524 133.917C242.327 137.209 231.257 139.303 227.067 135.115C223.178 130.927 229.76 133.32 230.057 133.32ZM157.944 150.975C165.125 157.258 182.78 163.842 208.215 158.156C185.172 171.621 171.707 179.101 174.701 219.499C160.637 197.953 155.251 167.433 157.944 150.975ZM161.535 325.725C193.552 304.183 196.245 280.543 193.552 257.801C189.662 223.089 199.538 183.891 214.497 168.032C221.379 160.851 223.773 165.638 217.49 171.023C196.844 189.277 192.654 220.096 221.68 249.122C244.423 271.266 247.116 334.404 161.535 325.725Z" fill="#C23C40"/>
<path fill-rule="evenodd" clip-rule="evenodd" d="M131.613 158.755C130.715 178.804 140.589 196.757 156.747 212.316C209.112 263.486 186.374 303.282 153.157 323.93C131.913 298.795 93.6107 242.242 131.613 158.755Z" fill="#C23C40"/>
<path fill-rule="evenodd" clip-rule="evenodd" d="M144.48 323.631C106.18 317.944 76.2549 288.023 69.3739 261.092C58.003 216.806 66.082 179.701 90.3205 155.463C115.754 130.327 119.346 130.028 128.323 124.343C112.463 153.668 104.683 204.237 107.975 233.262C111.267 262.288 119.643 295.503 144.48 323.631Z" fill="#C23C40"/>
<path fill-rule="evenodd" clip-rule="evenodd" d="M75.9545 288.919C48.7243 267.076 26.8818 225.185 28.0782 183.292C29.2745 141.401 64.2849 106.39 90.3188 100.706C110.965 95.9169 128.022 92.0276 147.172 104.595C127.123 113.87 99.8927 127.036 82.5368 151.872C65.1826 176.409 36.7561 217.703 75.9545 288.919Z" fill="#C23C40"/>
<path fill-rule="evenodd" clip-rule="evenodd" d="M29.875 153.968C37.0563 115.068 57.1052 89.9337 80.4443 70.7825C107.674 48.341 142.086 46.247 163.632 59.4115C183.081 71.0811 176.798 83.3497 175.898 88.7357C171.111 92.625 166.024 95.917 162.734 97.7123C159.742 99.5093 153.457 98.0126 149.269 96.2173C145.079 94.7206 125.331 86.0427 97.2029 92.0277C71.4677 97.7123 41.5446 116.565 29.875 153.968ZM227.365 79.4587C232.156 75.8681 242.627 67.7891 258.487 67.1918C276.44 66.8915 291.101 76.4671 305.464 94.4203C328.205 122.249 335.088 166.836 332.695 191.371C329.702 220.096 325.813 244.034 298.584 270.07C306.96 255.107 313.843 223.985 311.15 206.034C308.757 188.081 305.167 175.812 293.197 162.646C289.307 158.158 291.099 161.149 291.099 157.26C291.099 153.07 290.502 152.772 291.099 150.377C291.7 147.684 290.502 147.983 289.005 146.188C287.809 144.092 287.509 142.896 286.012 141.699C284.515 140.501 280.626 140.203 280.926 142.896C281.227 144.991 280.926 144.991 280.03 146.188C279.131 147.085 278.534 148.881 276.737 150.377C275.24 151.874 274.344 152.772 270.753 149.778C268.656 147.683 256.988 143.196 249.508 142.298C246.815 142 245.319 139.904 251.005 139.006C254.596 138.407 262.674 140.203 266.263 140.203C272.846 140.501 279.73 136.911 278.832 132.723C277.633 128.533 274.342 126.139 270.753 126.738C267.46 127.337 265.367 127.038 265.367 123.447C265.367 120.155 264.171 117.761 259.08 117.463C254.594 117.164 247.411 115.068 243.522 113.273C240.528 112.375 238.436 111.177 237.238 105.194C236.637 102.202 240.528 101.305 242.324 104.895C243.82 107.588 247.71 110.281 248.607 111.478C251.003 113.573 252.496 116.264 253.993 110.879C255.189 106.39 253.097 106.092 252.2 104.894C248.906 99.8062 234.543 89.6333 230.053 89.0343C226.768 88.437 222.278 83.6484 227.365 79.4587ZM215.098 34.5757C227.068 34.5757 266.566 55.2219 272.248 61.5055C259.982 56.1195 239.634 60.0105 228.265 70.4838C230.958 56.1195 227.666 41.757 215.098 34.5757Z" fill="#C23C40"/>
<path fill-rule="evenodd" clip-rule="evenodd" d="M112.461 48.0406C122.335 42.6546 157.945 27.094 197.143 34.2753C225.271 39.3626 223.476 65.6951 219.289 72.8764C218.093 74.6717 216.296 82.1534 216.893 84.546L184.878 86.3413C185.774 78.561 183.979 61.5055 166.025 52.5289C148.069 43.8509 128.621 44.7486 112.461 48.0406ZM155.851 131.825C158.842 133.021 159.74 135.416 163.93 132.124C167.819 128.832 173.804 123.447 177.395 121.352C181.284 119.256 187.569 117.162 193.552 121.352C199.539 125.243 211.506 129.431 218.091 129.132C217.791 133.021 219.288 134.817 220.185 135.714C221.382 136.911 219.289 137.51 218.388 136.313C217.192 135.416 214.499 130.927 205.222 130.028C193.853 129.132 183.977 131.525 176.495 137.209C172.905 139.902 170.212 137.209 167.519 137.209C162.133 137.209 158.542 135.714 155.549 134.815C152.857 134.218 151.361 130.328 155.851 131.825ZM169.316 133.62C169.316 135.716 170.213 136.612 172.608 136.612C175.002 136.911 175.599 136.013 175.9 133.919C175.9 131.825 175.002 130.328 172.309 130.328C170.213 130.629 169.015 131.825 169.316 133.62ZM223.474 177.008C221.38 178.804 222.278 180.898 224.971 180.599C227.363 180.3 232.454 181.795 235.742 183.592C237.239 184.19 246.815 186.586 250.105 181.2C253.697 176.112 271.951 167.733 274.344 164.143C277.037 167.134 278.233 167.434 280.327 167.434C282.723 167.434 285.713 167.733 286.909 167.434C297.681 174.317 307.258 198.255 304.265 227.581C300.975 258.4 284.216 288.921 262.073 301.79C251.004 308.369 236.638 317.049 225.868 318.545C242.325 302.686 248.607 267.078 239.034 253.013C262.374 255.409 272.547 244.336 276.436 240.746C280.626 237.153 279.429 238.053 279.429 233.863C279.429 229.673 277.933 229.673 273.743 230.87C269.553 232.066 251.301 241.343 239.632 238.053C227.962 234.462 218.09 223.69 215.096 220.098C212.403 216.209 209.41 208.729 210.907 201.546C212.403 194.366 213.6 182.696 220.184 177.01C225.271 172.52 224.971 175.81 223.474 177.008ZM249.81 221.593C249.81 219.499 249.509 219.799 248.013 219.799C246.216 219.799 245.62 220.995 245.32 223.39C244.719 225.484 245.32 231.17 245.917 232.965C246.217 235.059 248.313 235.358 250.107 235.358C251.904 235.358 271.953 227.279 273.746 226.678C275.243 226.381 275.844 226.081 275.844 224.286C275.844 222.789 276.441 217.403 276.74 214.71C277.34 212.318 274.047 212.017 273.449 212.917C272.849 214.113 272.25 215.61 271.352 217.106C270.755 218.302 271.652 218.599 269.258 218.599C264.172 218.599 255.493 223.688 252.798 224.586C250.103 225.484 250.107 223.69 249.81 221.593ZM251.904 194.064C252.204 197.057 255.194 197.655 256.691 194.665V184.789C256.691 184.789 258.788 182.695 260.88 182.096C262.978 181.795 263.273 182.096 264.471 180.899C266.268 178.206 270.157 177.01 274.647 176.71V185.388L277.938 185.087C277.938 182.99 280.035 174.315 280.631 171.023C271.654 166.535 255.795 179.701 251.905 184.188C251.904 189.277 251.303 191.071 251.904 194.064Z" fill="#C23C40"/>
</svg>
