<svg width="360" height="360" viewBox="0 0 360 360" fill="none" xmlns="http://www.w3.org/2000/svg">
<rect width="360" height="360" rx="82" fill="#E41D38"/>
<path d="M320 159.661L243.994 235.666C242.058 237.725 239.73 239.377 237.146 240.524C234.563 241.671 231.776 242.291 228.95 242.346C226.272 242.331 223.624 241.787 221.156 240.746C218.689 239.704 216.452 238.184 214.574 236.275C212.696 234.366 211.214 232.104 210.213 229.62C209.213 227.136 208.713 224.479 208.742 221.801V180.823C208.705 183.511 209.199 186.18 210.195 188.677C211.191 191.174 212.67 193.449 214.548 195.374C216.425 197.298 218.663 198.833 221.135 199.89C223.606 200.948 226.262 201.507 228.95 201.536C231.774 201.469 234.557 200.844 237.139 199.698C239.721 198.551 242.05 196.906 243.994 194.857L320 118.683V159.661Z" fill="white"/>
<path d="M251.527 178.747C251.571 176.045 251.08 173.361 250.08 170.851C249.08 168.34 247.592 166.052 245.702 164.121C243.812 162.189 241.558 160.652 239.07 159.597C236.581 158.543 233.909 157.992 231.206 157.978C228.383 158.048 225.601 158.675 223.02 159.821C220.439 160.967 218.108 162.611 216.162 164.658L145.434 235.667C143.467 237.743 141.1 239.4 138.476 240.538C135.852 241.677 133.025 242.273 130.165 242.291C124.736 242.276 119.533 240.113 115.694 236.273C111.855 232.434 109.691 227.231 109.676 221.802V180.824C109.654 183.534 110.167 186.222 111.185 188.734C112.204 191.245 113.708 193.531 115.611 195.461C117.514 197.39 119.78 198.925 122.277 199.977C124.775 201.03 127.455 201.579 130.165 201.594C132.99 201.529 135.774 200.906 138.356 199.759C140.938 198.613 143.267 196.966 145.209 194.914L216.275 123.68C220.174 119.568 225.542 117.166 231.206 117C233.894 117.029 236.55 117.589 239.022 118.646C241.493 119.704 243.732 121.239 245.609 123.163C247.486 125.087 248.966 127.363 249.962 129.86C250.958 132.357 251.452 135.025 251.415 137.713V178.747H251.527Z" fill="white"/>
<path d="M152.941 178.747C152.987 173.327 150.888 168.109 147.103 164.229C143.318 160.349 138.153 158.123 132.733 158.034C129.906 158.08 127.116 158.695 124.531 159.842C121.947 160.99 119.62 162.647 117.689 164.714L40 242.291V201.594L117.633 123.68C119.57 121.606 121.906 119.946 124.501 118.798C127.096 117.65 129.896 117.038 132.733 117C138.153 117.089 143.318 119.315 147.103 123.195C150.888 127.075 152.987 132.293 152.941 137.713V178.747Z" fill="white"/>
</svg>
