<svg width="360" height="360" viewBox="0 0 360 360" fill="none" xmlns="http://www.w3.org/2000/svg">
<rect width="360" height="360" rx="82" fill="#0D2F8B"/>
<path fill-rule="evenodd" clip-rule="evenodd" d="M47 99.6251L88.4794 65L123.048 92.7014L156.232 65L189.418 91.3158L221.218 65L255.785 92.7014V161.949L210.155 197.958V110.703C210.155 110.703 208.774 98.2395 189.415 98.2395V299.062H143.788V110.703C143.788 110.703 143.788 98.2395 124.432 98.2395V299.062H77.4189V120.401C77.4189 120.401 78.8001 95.4704 47 99.6251Z" fill="white"/>
<path fill-rule="evenodd" clip-rule="evenodd" d="M283.43 149.487L210.148 206.273V261.671L257.161 300.451L317.999 253.364L315.235 250.593C315.235 250.593 298.643 267.211 284.816 264.445C262.693 261.673 255.778 247.826 255.778 227.051V179.957C255.778 179.957 272.372 197.961 284.816 197.961C295.876 197.961 306.939 188.269 317.999 177.188L283.43 149.487Z" fill="#F41521"/>
</svg>
