<svg width="360" height="360" viewBox="0 0 360 360" fill="none" xmlns="http://www.w3.org/2000/svg">
<rect width="360" height="360" rx="82" fill="#636569"/>
<path d="M198.428 101.565L180.179 123.805L126.535 53.2235C126.254 52.8507 125.892 52.5468 125.477 52.3347C125.061 52.1227 124.602 52.0083 124.136 52H101.504C100.936 52 100.379 52.158 99.8957 52.4564C99.4123 52.7547 99.0213 53.1817 98.7666 53.6895C98.5118 54.1973 98.4033 54.766 98.4533 55.3319C98.5032 55.8979 98.7095 56.4388 99.0492 56.8942L180.203 165.005L225.921 105.268C226.261 104.813 226.467 104.272 226.517 103.706C226.567 103.14 226.459 102.571 226.204 102.063C225.949 101.556 225.558 101.129 225.075 100.83C224.591 100.532 224.035 100.374 223.466 100.374H200.907C200.429 100.366 199.957 100.47 199.526 100.676C199.096 100.883 198.72 101.188 198.428 101.565Z" fill="white"/>
<path d="M279.448 256.755L222.709 181L298.616 81.1492C298.96 80.6949 299.17 80.1539 299.223 79.5869C299.276 79.0199 299.17 78.4493 298.916 77.9393C298.663 77.4292 298.273 76.9999 297.789 76.6996C297.305 76.3993 296.747 76.2398 296.177 76.239H273.786C273.32 76.2442 272.862 76.3557 272.446 76.565C272.031 76.7743 271.668 77.0758 271.387 77.4466L192.232 181L251.802 260.458C252.088 260.837 252.457 261.145 252.882 261.357C253.306 261.569 253.774 261.68 254.249 261.681H276.993C277.566 261.686 278.129 261.529 278.618 261.229C279.107 260.929 279.502 260.498 279.758 259.985C280.014 259.471 280.12 258.896 280.066 258.325C280.011 257.754 279.797 257.21 279.448 256.755Z" fill="#3494CE"/>
<path d="M80.7836 105.253L137.562 180.929L61.5909 280.891C61.2609 281.342 61.0606 281.875 61.0117 282.432C60.9629 282.989 61.0672 283.548 61.3135 284.05C61.5598 284.551 61.9386 284.976 62.409 285.278C62.8794 285.579 63.4233 285.747 63.982 285.762H86.3735C86.8448 285.762 87.3097 285.653 87.7326 285.445C88.1555 285.238 88.525 284.935 88.8126 284.562L168.031 180.897L108.437 101.575C108.15 101.195 107.779 100.888 107.353 100.675C106.927 100.463 106.458 100.352 105.982 100.351H83.2387C82.6692 100.35 82.1107 100.508 81.6259 100.807C81.141 101.105 80.7491 101.533 80.4941 102.043C80.2391 102.552 80.1311 103.122 80.1822 103.689C80.2334 104.256 80.4416 104.798 80.7836 105.253Z" fill="#3494CE"/>
<path d="M161.83 260.435L180.119 238.195L233.699 308.777C233.985 309.157 234.356 309.465 234.782 309.678C235.208 309.89 235.678 310 236.154 310H258.746C259.314 310 259.871 309.842 260.354 309.544C260.838 309.245 261.229 308.818 261.483 308.311C261.738 307.803 261.846 307.234 261.797 306.668C261.747 306.102 261.54 305.561 261.201 305.106L180.063 196.995L134.336 256.732C133.997 257.188 133.79 257.728 133.74 258.294C133.69 258.86 133.799 259.429 134.054 259.937C134.308 260.445 134.699 260.872 135.183 261.17C135.666 261.468 136.223 261.626 136.791 261.626H159.391C159.862 261.63 160.327 261.524 160.75 261.317C161.174 261.11 161.543 260.808 161.83 260.435Z" fill="white"/>
</svg>
