<svg width="360" height="360" viewBox="0 0 360 360" fill="none" xmlns="http://www.w3.org/2000/svg">
<rect width="360" height="360" rx="82" fill="black"/>
<circle cx="180" cy="180" r="155.455" fill="#4681C7" fill-opacity="0.06"/>
<circle cx="180" cy="180" r="155.205" stroke="#2869BF" stroke-opacity="0.04" stroke-width="0.5"/>
<path d="M253.351 267.208L179.499 224.656L253.351 182.104V267.208Z" fill="#94D3E6"/>
<path d="M105.852 267.208L32 224.656L105.852 182.104V267.208Z" fill="#007EB8"/>
<path d="M179.503 224.656L253.356 182.104V97L105.855 182.104L179.503 224.656Z" fill="#00A4D1"/>
<path d="M327 224.656L253.353 182.104L327 139.552V224.656Z" fill="#007EB8"/>
<path d="M253.353 267.208L327 224.656L253.353 182.104V267.208Z" fill="#00A4D1"/>
<path d="M105.852 97L32 139.552V224.656L105.852 182.104V97Z" fill="#00A4D1"/>
<path d="M105.855 182.104L179.503 139.552L105.855 97V182.104Z" fill="#003A80"/>
<path d="M105.855 267.208L179.503 224.656L105.855 182.104V267.208Z" fill="#94D3E6"/>
<path d="M253.353 182.104L327 139.552L253.353 97V182.104Z" fill="#003A80"/>
</svg>
