<svg width="360" height="360" viewBox="0 0 360 360" fill="none" xmlns="http://www.w3.org/2000/svg">
<rect width="360" height="360" rx="82" fill="#EE1B2D"/>
<path d="M256.484 111.264L236.233 193.643L215.925 111.264H157.268V141.684C150.14 115.064 123.993 108.387 100.629 108.008C72.141 107.636 40.5763 119.98 39.4814 157.649H78.8818C78.8818 146.278 89.2937 139.766 99.1259 139.931C111.198 139.83 116.751 144.983 117.03 153.004C116.615 159.967 112.507 164.812 99.2261 164.812H85.9734V192.147H98.0024C104.836 192.147 114.347 195.868 114.719 205.6C115.177 217.2 107.112 222.295 97.1867 222.395C79.4686 221.737 74.896 208.126 74.896 196.419H34C34.1717 204.305 33.9141 255.706 98.0096 255.327C128.716 255.606 151.063 242.696 157.368 224.9V252.178H196.811V163.302L218.622 252.178H253.865L275.755 163.402V252.257H316V111.264H256.484ZM157.396 193.45C152.373 183.059 145.303 178.515 141.324 177.077C149.675 173.363 154.047 168.325 157.396 158.285V193.45Z" fill="white"/>
</svg>
