<svg width="360" height="360" viewBox="0 0 360 360" fill="none" xmlns="http://www.w3.org/2000/svg">
<rect width="360" height="360" rx="82" fill="black"/>
<path d="M185.936 54.4706C185.216 55.3024 184.161 55.8569 183.275 55.8569C181.888 55.8569 179.726 56.7442 179.115 57.5205C178.95 57.6867 176.953 58.1858 174.68 58.574C162.37 60.7366 149.45 65.0062 140.855 69.7749C138.305 71.1612 135.588 71.1612 134.589 69.7195C133.369 68.0005 131.207 67.5015 124.552 67.5015H118.342L117.122 65.838C116.457 64.9508 115.181 63.8417 114.239 63.3427C112.797 62.6219 112.354 62.6219 109.359 63.5645C107.529 64.119 104.591 65.6162 102.871 66.8916C99.6555 69.165 99.5997 69.165 94.831 69.165C92.1698 69.165 87.7891 69.5532 85.1271 69.9967C79.5823 70.9949 60.286 77.0944 60.0087 77.9816C59.8422 78.4252 62.0604 78.5916 66.8291 78.5916C72.2074 78.5916 74.0926 78.8134 75.0909 79.4233C76.1442 80.1442 77.7522 80.2551 82.7989 80.1442C88.2329 79.9778 89.342 80.1442 90.2288 80.9205C90.8391 81.475 91.726 81.9186 92.2805 81.9186C92.7793 81.9186 93.8334 82.5285 94.5537 83.3049C95.7736 84.4693 95.9401 85.1347 95.9401 88.9608C95.9401 94.3949 96.9384 96.5022 101.43 101.326C103.426 103.433 105.089 105.762 105.367 106.871C106.642 111.418 105.7 117.739 102.039 129.051C97.6038 142.748 97.8811 146.906 103.592 153.006C104.812 154.281 105.588 155.778 105.755 156.887C105.866 157.886 106.254 158.995 106.697 159.272C107.141 159.604 107.806 161.49 108.139 163.43C108.528 165.427 109.414 168.088 110.135 169.364C111.411 171.526 111.466 172.192 111.466 181.12C111.466 189.215 111.633 190.934 112.575 193.318C114.239 197.643 115.348 203.078 115.348 207.126C115.348 211.506 112.908 219.325 110.413 222.985C108.916 225.313 107.585 228.363 107.585 229.749C107.585 230.137 108.694 231.745 110.08 233.354C112.409 236.071 114.017 239.564 113.352 240.562C113.24 240.784 113.352 245.109 113.629 250.155C114.239 259.693 114.683 261.578 117.233 264.018C118.619 265.348 119.341 268.398 120.615 278.768C121.947 289.137 123 293.572 125.107 298.064C126.493 300.892 127.325 302.056 128.101 302.056C128.656 302.056 129.21 301.724 129.377 301.335C129.876 300.005 129.044 294.571 128.213 293.572C126.826 292.02 127.214 269.785 128.711 263.352C129.931 258.14 129.821 249.601 128.434 242.614C127.159 236.126 126.937 234.019 127.325 231.634C127.547 230.414 127.99 229.417 128.323 229.417C129.044 229.417 131.484 220.6 131.428 218.104C131.428 217.162 132.039 215.831 133.092 214.667C136.752 210.508 136.752 204.076 133.092 196.978L130.763 192.486L130.985 185.666C131.095 180.454 131.318 178.735 131.983 178.236C133.314 177.182 134.423 173.91 134.367 171.193C134.367 169.586 133.424 166.425 131.761 162.321C125.994 148.182 124.331 142.304 123.832 133.986C123.444 127.554 123.721 126.279 126.105 123.617C128.601 120.789 129.21 119.514 129.21 116.908C129.21 115.244 128.989 114.634 128.378 114.634C127.658 114.634 127.547 113.248 127.547 105.596L127.602 96.6129L130.209 94.9494C131.816 93.8958 133.813 93.175 135.588 93.0086C138.249 92.7314 138.305 92.676 138.803 90.5134C139.081 89.2935 139.136 86.1328 138.914 83.4157L138.582 78.5916L140.578 76.5399C141.631 75.4309 142.519 74.3219 142.519 74.0446C142.519 73.8229 144.46 73.601 146.788 73.601C149.894 73.601 151.28 73.8229 152 74.4882C152.777 75.2091 154.052 75.3755 157.767 75.32L162.536 75.2091L163.479 77.039C164.865 79.6451 167.194 81.9186 168.525 81.9186C170.798 81.9186 171.464 86.9091 169.967 92.2878C169.523 93.8958 168.802 96.5022 168.358 98.0543C167.361 101.603 167.859 103.045 170.743 104.93C173.516 106.649 173.959 108.202 173.016 112.638C171.741 118.738 171.685 121.787 172.85 123.063C173.737 124.061 173.848 125.059 173.681 132.988L173.46 141.805L175.401 143.746L177.286 145.631L176.51 149.124C175.234 154.503 175.844 166.869 177.73 175.353C180.114 186.221 181.001 191.766 180.336 192.209C179.781 192.542 178.727 195.259 172.295 213.336C170.078 219.436 169.967 219.99 169.967 226.367C169.967 232.799 170.022 233.187 171.852 237.068C173.681 240.894 173.681 241.117 172.739 242.17C171.352 243.667 171.852 248.381 173.737 252.318L175.234 255.367L175.013 273.222C174.846 283.647 174.957 292.242 175.29 293.905C175.9 297.399 179.06 304.164 181.334 307.047C183.33 309.598 183.496 312.038 181.888 317.139C181.279 319.025 180.779 321.298 180.779 322.074C180.779 322.906 180.391 323.682 179.947 323.904C179.338 324.126 179.115 325.124 179.115 328.118C179.115 330.226 179.338 332 179.67 332C180.668 332 184.161 328.506 185.271 326.399C185.825 325.235 186.325 323.627 186.325 322.851C186.325 322.074 186.546 321.464 186.823 321.464C187.877 321.464 188.099 319.135 188.043 308.545C187.933 297.842 187.933 297.621 189.042 297.621C189.707 297.621 190.206 297.565 190.206 297.454C190.206 297.399 190.816 295.513 191.592 293.295C193.034 289.081 193.477 283.037 192.424 282.371C192.147 282.206 191.869 282.316 191.869 282.594C191.869 282.926 191.648 283.203 191.315 283.203C190.483 283.203 188.654 276.216 187.933 270.45C187.267 264.739 187.599 257.585 188.819 251.319C190.539 242.614 190.927 235.571 190.261 226.034C189.374 213.058 189.43 210.619 190.76 208.456C191.371 207.458 191.869 205.906 191.869 205.018C191.869 203.91 192.147 203.355 192.701 203.355C193.977 203.355 195.085 201.137 195.529 197.532C196.029 192.986 196.582 191.766 198.413 190.989C200.408 190.157 205.066 184.946 205.51 183.06C206.175 180.509 205.289 176.572 202.349 168.976C200.131 163.209 199.411 160.547 199.189 157.442C198.967 154.226 199.078 153.283 199.799 152.729C200.464 152.229 200.686 150.788 200.852 146.962C201.019 142.36 201.185 141.749 202.46 140.308C204.235 138.367 204.956 135.317 203.847 134.097C202.516 132.489 199.411 107.481 199.355 97.722C199.355 92.5651 199.466 91.8997 201.185 88.5172C202.183 86.3546 205.066 82.4731 207.95 79.0906C210.723 75.9854 212.941 73.2683 212.941 73.0466C212.941 72.8802 212.386 72.7138 211.72 72.6584C209.946 72.492 208.504 70.4958 208.504 68.2778C208.504 66.0044 206.674 63.9527 205.122 64.3408C204.401 64.5071 203.181 63.8418 201.407 62.2337C199.91 60.9029 198.079 59.6275 197.248 59.4612C196.361 59.2394 195.751 58.6294 195.64 57.9086C195.529 57.0768 194.864 56.5223 193.644 56.1342C192.48 55.8015 191.703 55.1915 191.536 54.3597C191.038 52.4745 187.599 52.5853 185.936 54.4706Z" fill="#00FF00"/>
<path d="M251.3 63.1773C250.912 63.5655 250.635 64.1199 250.635 64.5081C250.635 65.2844 247.363 67.3361 245.311 67.8352C244.479 68.0569 243.038 69.3323 241.929 70.8849C240.876 72.382 239.433 73.7129 238.824 73.8238C238.159 73.9347 235.94 74.3228 233.889 74.6555C228.565 75.5427 217.919 79.4797 216.366 81.0878C215.646 81.8641 214.869 82.4741 214.592 82.4741C214.259 82.4741 214.037 82.6958 214.037 83.0285C214.037 83.3058 214.37 83.583 214.758 83.583C215.146 83.583 218.529 84.5811 222.3 85.8011C229.342 88.0745 233.001 88.5182 236.107 87.4091C237.548 86.91 238.047 87.0209 239.378 87.9636C240.21 88.5735 242.317 89.4607 243.981 89.9044C245.644 90.4034 247.862 91.2906 248.916 91.956C250.58 92.9541 250.745 93.2314 250.357 94.8394C248.971 101.438 248.416 107.482 248.472 115.356L248.583 124.117L246.31 125.559C241.818 128.498 241.097 132.657 244.812 134.431C247.031 135.485 247.031 135.595 245.922 141.418C244.757 147.407 244.812 153.229 246.087 155.668C246.587 156.722 247.918 158.164 248.971 158.885C252.631 161.325 253.241 164.707 251.522 172.858C250.136 179.457 250.302 182.007 252.52 185.612C254.239 188.384 254.406 189.049 254.406 193.098C254.461 195.537 254.849 198.92 255.292 200.694C256.069 203.578 256.069 203.966 255.182 205.684C254.406 207.237 254.239 209.233 254.239 218.882C254.239 228.697 254.128 230.471 253.296 231.913C252.742 232.8 252.298 233.854 252.298 234.187C252.298 234.519 251.91 235.129 251.466 235.517C250.302 236.46 250.413 239.177 251.744 243.003C253.185 247.161 253.13 248.382 251.522 250.322C247.696 254.925 247.252 258.585 249.193 268.454C250.801 276.606 250.968 279.655 249.803 281.208C248.528 282.872 248.805 287.918 250.357 292.299C251.91 296.678 252.575 297.566 253.518 296.623C253.906 296.235 254.183 293.684 254.183 289.692L254.239 283.371L256.845 278.158C258.287 275.275 260.283 271.948 261.337 270.728C264.996 266.458 265.051 266.125 265.051 253.649C265.051 247.439 264.83 241.007 264.553 239.343C264.275 237.68 263.943 233.909 263.777 230.915C263.554 225.647 263.61 225.37 265.107 223.151C266.937 220.434 267.159 217.385 265.883 213.115C265.44 211.618 265.051 208.346 265.051 205.851C265.051 201.637 265.163 201.138 266.771 198.92C267.713 197.589 268.656 195.592 268.767 194.373C268.989 193.153 269.377 192.266 269.821 192.266C272.538 192.266 273.535 182.118 271.318 177.239C270.708 175.852 269.377 174.134 268.434 173.357C262.612 168.977 262.39 167.646 265.662 157.831C268.323 149.736 268.268 148.46 265.218 146.519C263.443 145.41 263.443 145.355 263.388 140.919C263.333 128.22 267.991 114.913 277.972 99.0536C281.41 93.6196 282.63 90.2371 281.133 90.2371C280.8 90.2371 279.913 89.6271 279.192 88.8508C278.083 87.7972 277.805 86.9655 277.805 84.5811C277.805 82.8622 277.472 81.1432 276.973 80.4778C276.53 79.8124 275.255 77.2063 274.146 74.6555C270.541 66.3379 267.935 64.2309 261.281 64.1754C259.396 64.1754 256.9 63.7872 255.791 63.3437C253.407 62.3455 252.187 62.2901 251.3 63.1773Z" fill="#00FF00"/>
</svg>
