<svg width="360" height="360" viewBox="0 0 360 360" fill="none" xmlns="http://www.w3.org/2000/svg">
<rect width="360" height="360" rx="82" fill="#00458D"/>
<path d="M72 0H0V72H72V0Z" fill="#004F7F"/>
<path d="M144 0H72V72H144V0Z" fill="#0084C3"/>
<path d="M216 0H144V72H216V0Z" fill="#FAA61A"/>
<path d="M287.999 0H215.999V72H287.999V0Z" fill="#C3262D"/>
<path d="M359.999 0H287.999V72H359.999V0Z" fill="#8E181B"/>
<path d="M72 71.9998H0V144H72V71.9998Z" fill="#0084C3"/>
<path d="M144 71.9998H72V144H144V71.9998Z" fill="#68C3EE"/>
<path d="M216 71.9998H144V144H216V71.9998Z" fill="#F58020"/>
<path d="M287.999 71.9998H215.999V144H287.999V71.9998Z" fill="#ED1C24"/>
<path d="M359.999 71.9998H287.999V144H359.999V71.9998Z" fill="#C3262D"/>
<path d="M72 144H0V216H72V144Z" fill="#76CCCD"/>
<path d="M144 144H72V216H144V144Z" fill="#00B3C2"/>
<path d="M216 144H144V216H216V144Z" fill="#E2C197"/>
<path d="M287.999 144H215.999V216H287.999V144Z" fill="#DF9D88"/>
<path d="M359.999 144H287.999V216H359.999V144Z" fill="#ED1C24"/>
<path d="M72 216H0V288H72V216Z" fill="#75C043"/>
<path d="M144 216H72V288H144V216Z" fill="#C4D92D"/>
<path d="M216 216H144V288H216V216Z" fill="#EEE1C5"/>
<path d="M287.999 216H215.999V288H287.999V216Z" fill="#E2C197"/>
<path d="M359.999 216H287.999V288H359.999V216Z" fill="#D7A96F"/>
<path d="M72 288H0V360H72V288Z" fill="#00AA4F"/>
<path d="M144 288H72V360H144V288Z" fill="#75C043"/>
<path d="M216 288H144V360H216V288Z" fill="#C4D92D"/>
<path d="M287.999 288H215.999V360H287.999V288Z" fill="#D7A96F"/>
<path d="M359.999 288H287.999V360H359.999V288Z" fill="#EEE1C5"/>
</svg>
