<svg width="360" height="360" viewBox="0 0 360 360" fill="none" xmlns="http://www.w3.org/2000/svg">
<rect width="360" height="360" rx="82" fill="url(#paint0_angular)" fill-opacity="0.15"/>
<path d="M194.255 125.53C192.161 125.257 154.742 146.561 154.742 146.561C154.742 146.561 214.921 159.125 302.414 185.345C302.414 185.345 319.894 160.672 332.003 147.016C332.003 147.107 281.383 137.639 194.255 125.53Z" fill="#B85915"/>
<path d="M124.874 123.071C154.463 117.973 185.235 123.891 185.235 123.891C185.235 123.891 136.619 147.107 91.0972 175.694C91.0972 175.694 52.9502 164.223 25.0001 161.4C24.909 161.4 95.9224 128.079 124.874 123.071Z" fill="#005953"/>
<path d="M229.478 173.052C229.478 173.052 257.793 180.7 296.941 193.81C296.941 193.81 272.087 230.5 263.255 247.89C263.255 247.89 238.401 233.505 191.514 212.929C191.514 212.929 201.528 202.368 229.478 173.052Z" fill="#B1BA1D"/>
<path d="M101.848 179.336C101.848 179.336 120.602 166.043 146.823 151.385C146.823 151.385 176.958 157.394 221.023 170.504L181.601 208.56C181.601 208.56 158.476 198.91 138.902 191.808C119.328 184.707 101.848 179.336 101.848 179.336Z" fill="#C4A801"/>
<defs>
<radialGradient id="paint0_angular" cx="0" cy="0" r="1" gradientUnits="userSpaceOnUse" gradientTransform="translate(180 180) rotate(-139.248) scale(186.127)">
<stop offset="0.347921" stop-color="#FB6900"/>
<stop offset="0.492758" stop-color="#E1ED14"/>
<stop offset="0.754223" stop-color="#F4D30E"/>
<stop offset="1" stop-color="#00D9CA"/>
</radialGradient>
</defs>
</svg>
