<svg width="360" height="360" viewBox="0 0 360 360" fill="none" xmlns="http://www.w3.org/2000/svg">
<rect width="360" height="360" rx="82" fill="#005DAA"/>
<path d="M110.295 56C96.9773 56.571 84.3395 65.2158 79.5508 77.8924V77.9874C79.5356 78.0285 79.4711 78.0413 79.4559 78.0824L32.3396 186.212L32.2446 186.307L32.1495 186.497C30.2122 191.97 29.3658 198.443 30.5314 204.868V205.058L30.6265 205.248L37.1942 229.14L45.6656 260.36L45.7606 260.455V260.55L48.045 267.118V267.213V267.308C52.7424 279.3 64.7814 287.546 77.2666 288.344H77.457H77.552H283.436H283.626H283.816C296.747 287.365 308.628 277.995 312.943 265.69V265.595L313.038 265.405L329.219 205.438L329.314 205.248V205.058C330.24 199.595 330.443 193.261 328.553 187.544L328.458 187.353L328.363 187.164L306.565 138.144L279.057 76.7502C279.039 76.7094 278.979 76.696 278.962 76.6552C274.285 65.7281 263.826 58.4567 252.406 56.6665V56.0002H248.218H248.027H110.486H110.391H110.296L110.295 56Z" fill="white"/>
<path d="M245.446 64.6116C256.308 64.939 267.022 71.8343 271.34 82.0266L297.843 141.197L318.848 188.306C320.329 192.779 320.241 198.315 319.438 203.086L303.843 260.71C300.306 270.796 289.958 278.917 279.465 279.713L81.5003 279.688C71.2394 279.041 60.8872 271.937 57.0532 262.148L54.8829 255.828L46.7009 225.867L40.3692 202.829C39.406 197.541 40.1713 192.005 41.8237 187.344L87.2684 83.1482C91.1672 72.617 102.014 65.086 113.109 64.6101H245.446" fill="#005DAA"/>
<path d="M246.316 75.0643C253.451 75.6164 260.422 81.5672 262.474 88.371L304.203 180.974C306.75 186.22 311.137 192.552 309.419 199.619L307.085 209.179L294.494 255.712C292.869 262.577 285.81 268.113 279.124 269.244L83.8668 269.286C77.6532 269.168 72.0601 266.799 68.2984 261.492C64.5253 255.309 50.2781 199.9 50.2781 199.9C49.5966 194.49 51.7668 189.754 53.8227 185.246L89.0524 104.766L97.6952 85.1841C101.255 78.7878 108.005 75.4564 114.821 75.0452L246.316 75.0634" fill="white"/>
<path d="M179.873 182.746L208.742 108.311L252.6 108.289L291.515 235.154L237.827 235.146L231.849 165.494L197.034 235.146L163.068 235.187L127.858 166.078L122.095 235.147L68.4883 235.172L106.216 108.361L150.164 108.34L179.873 182.748" fill="#ED174F"/>
</svg>
