<svg width="360" height="360" viewBox="0 0 360 360" fill="none" xmlns="http://www.w3.org/2000/svg">
<rect width="360" height="360" rx="82" fill="#003F57"/>
<circle cx="180" cy="180" r="155.455" fill="#4681C7" fill-opacity="0.06"/>
<circle cx="180" cy="180" r="155.205" stroke="#2869BF" stroke-opacity="0.04" stroke-width="0.5"/>
<path d="M102.839 103.203C106.023 147.703 129.453 171.971 169.746 179.368C169.121 182.433 165.339 181.994 163.571 182.459C129.639 191.419 104.7 215.175 102.839 257.601C52.8225 255.128 14.2647 212.881 27.6978 160.844C35.6872 129.923 62.7063 105.324 102.839 103.203C104.641 59.1819 137.708 25.4031 181.072 26.008C224.202 26.6062 254.286 57.6731 257.23 100.119C257.323 101.582 257.396 103.031 256.206 103.203C205.086 103.203 153.966 103.203 102.839 103.203Z" fill="#16DEDE"/>
<path d="M259.304 257.607C255.083 279.861 250.118 296.551 237.689 310.103C225.446 323.437 206.462 333.693 185.193 334.796C140.414 337.136 105.106 304.693 102.846 257.607C154.651 257.607 206.462 257.607 258.274 257.607C254.545 212.609 229.925 188.514 189.314 180.399C229.879 172.243 254.505 148.142 258.274 103.203C300.567 105.237 340.208 137.162 334.439 190.695C330.61 226.268 300.833 255.461 259.304 257.607Z" fill="#16DEDE"/>
</svg>
