<svg width="360" height="360" viewBox="0 0 360 360" fill="none" xmlns="http://www.w3.org/2000/svg">
<rect width="360" height="360" rx="82" fill="black"/>
<path d="M92.371 133.926C90.2658 133.534 88.1283 133.342 85.987 133.352C42.555 133.352 31.0853 210.47 30 218.598H53.2375C53.7269 214.342 61.0046 154.759 92.4135 133.926" fill="#72CDF4"/>
<path d="M105.287 132.266C111.878 130.653 118.752 130.58 125.375 132.054C121.537 134.466 117.97 137.284 114.735 140.459C111.869 137.416 108.696 134.677 105.266 132.288L105.287 132.266ZM110.479 144.353C107.632 141.321 104.312 138.769 100.648 136.799C69.5371 151.695 60.706 211.64 59.791 218.598H82.8795C83.2838 215.087 88.8591 169.889 110.543 144.375" fill="#00A4E4"/>
<path d="M118.565 144.63C121.977 141.146 125.957 138.268 130.333 136.118C134.273 138.211 137.828 140.96 140.845 144.247C136.447 149.463 132.676 155.176 129.61 161.271C126.436 155.347 122.748 149.715 118.587 144.438L118.565 144.63ZM134.972 132.266C141.556 130.655 148.422 130.583 155.039 132.054C151.203 134.469 147.636 137.287 144.399 140.459C141.529 137.42 138.356 134.682 134.93 132.288L134.972 132.266ZM126.12 167.612C122.929 161.283 119.191 155.245 114.948 149.567C96.2855 172.421 90.391 211.895 89.4121 218.662H112.522C114.724 201.104 119.291 183.925 126.098 167.591" fill="#0081C6"/>
<path d="M247.565 140.502C245.374 158.064 240.799 175.246 233.967 191.573C237.181 197.935 240.947 204.002 245.224 209.703C263.929 186.785 269.781 147.375 270.76 140.587L247.565 140.502ZM162.255 180.891C155.871 166.803 150.232 156.802 144.571 149.503C140.147 155.077 136.423 161.173 133.484 167.655C135.187 171.038 136.889 174.592 138.528 178.294C154.253 212.938 166.83 225.812 185.003 225.812C187.434 225.814 189.858 225.565 192.238 225.067C181.917 217.534 172.618 203.788 162.255 180.976" fill="#72CDF4"/>
<path d="M191.917 180.891C180.511 155.717 170.936 142.587 159.998 136.799C155.933 138.818 152.218 141.476 148.996 144.672C155.274 152.525 161.572 163.505 168.148 178.209C179.575 203.383 189.13 216.513 200.068 222.301C204.152 220.294 207.883 217.635 211.112 214.427C204.728 206.554 198.514 195.595 191.96 180.912L191.917 180.891ZM205.068 227.068C208.908 224.617 212.475 221.764 215.708 218.556C218.575 221.598 221.749 224.336 225.178 226.727C221.697 227.588 218.123 228.017 214.538 228.004C211.345 228.019 208.16 227.67 205.047 226.961L205.068 227.068ZM277.228 140.502C276.824 144.034 271.291 189.147 249.564 214.725C252.397 217.771 255.711 220.33 259.374 222.301C290.315 207.405 299.082 149.588 300.274 140.502H277.228Z" fill="#00A4E4"/>
<path d="M219.217 214.747C223.619 209.534 227.39 203.819 230.453 197.723C233.638 203.639 237.326 209.271 241.476 214.555C238.079 218.047 234.105 220.926 229.729 223.067C225.771 220.921 222.215 218.106 219.217 214.747ZM254.818 226.834C251.337 227.694 247.764 228.123 244.178 228.11C240.978 228.125 237.787 227.775 234.666 227.068C238.511 224.624 242.078 221.77 245.306 218.556C248.168 221.61 251.342 224.356 254.776 226.748L254.818 226.834ZM221.579 180.891C205.853 146.247 193.256 133.352 175.104 133.352C172.673 133.349 170.249 133.599 167.869 134.096C178.19 141.651 187.489 155.376 197.852 178.209C204.236 192.275 209.854 202.277 215.536 209.618C219.962 204.045 223.685 197.949 226.623 191.467C224.92 188.083 223.218 184.529 221.579 180.827V180.891ZM306.89 140.502C306.4 144.758 298.995 204.447 267.735 225.174C269.799 225.551 271.893 225.736 273.991 225.727C317.572 225.727 328.914 148.588 330 140.48L306.89 140.502Z" fill="#0081C6"/>
</svg>
