<svg width="360" height="360" viewBox="0 0 360 360" fill="none" xmlns="http://www.w3.org/2000/svg">
<rect width="360" height="360" rx="82" fill="#0626A9"/>
<path d="M280.174 282.407C279.598 282.407 279.022 282.263 278.591 281.831L70.7532 73.8497C69.8896 72.9861 69.8896 71.6907 70.7532 70.8271C71.6168 69.9635 72.9121 69.9635 73.7757 70.8271L281.757 278.809C282.621 279.672 282.621 280.967 281.757 281.831C281.325 282.119 280.75 282.407 280.174 282.407Z" fill="white"/>
<path d="M72.4829 282.55C71.9071 282.55 71.3314 282.407 70.8996 281.975C70.0361 281.111 70.0361 279.816 70.8996 278.952L278.881 71.1147C279.745 70.2511 281.04 70.2511 281.904 71.1147C282.767 71.9783 282.767 73.2737 281.904 74.1373L74.0662 281.975C73.6344 282.407 73.0586 282.55 72.4829 282.55Z" fill="white"/>
<path d="M176.688 325.586C175.537 325.586 174.529 324.579 174.529 323.427V29.2308C174.529 28.0793 175.537 27.0718 176.688 27.0718C177.84 27.0718 178.847 28.0793 178.847 29.2308V323.427C178.847 324.579 177.84 325.586 176.688 325.586Z" fill="white"/>
<path d="M323.787 178.488H29.4461C28.2946 178.488 27.2871 177.481 27.2871 176.329C27.2871 175.178 28.2946 174.17 29.4461 174.17H323.643C324.794 174.17 325.802 175.178 325.802 176.329C325.802 177.481 324.938 178.488 323.787 178.488Z" fill="white"/>
<path d="M303.782 104.939H48.3035C47.1521 104.939 46.1445 103.931 46.1445 102.78C46.1445 101.628 47.1521 100.621 48.3035 100.621H303.782C304.934 100.621 305.941 101.628 305.941 102.78C305.941 103.931 304.934 104.939 303.782 104.939Z" fill="white"/>
<path d="M303.494 252.037H48.3035C47.1521 252.037 46.1445 251.029 46.1445 249.878C46.1445 248.726 47.1521 247.719 48.3035 247.719H303.494C304.646 247.719 305.653 248.726 305.653 249.878C305.653 251.029 304.79 252.037 303.494 252.037Z" fill="white"/>
<path d="M176.688 325.586C175.537 325.586 174.529 324.579 174.529 323.427V29.2308C174.529 28.0793 175.537 27.0718 176.688 27.0718C177.84 27.0718 178.847 28.0793 178.847 29.2308V323.427C178.847 324.579 177.84 325.586 176.688 325.586Z" fill="white"/>
<path d="M103.141 305.436C101.99 305.436 100.982 304.428 100.982 303.277V48.6614C100.982 47.51 101.99 46.5024 103.141 46.5024C104.293 46.5024 105.3 47.51 105.3 48.6614V303.277C105.3 304.572 104.293 305.436 103.141 305.436Z" fill="white"/>
<path d="M250.237 305.435C249.086 305.435 248.078 304.428 248.078 303.277V49.0931C248.078 47.9416 249.086 46.9341 250.237 46.9341C251.389 46.9341 252.396 47.9416 252.396 49.0931V303.277C252.396 304.572 251.389 305.435 250.237 305.435Z" fill="white"/>
<path d="M323.786 178.488C323.21 178.488 322.635 178.344 322.203 177.912L175.105 30.6703C174.241 29.8067 174.241 28.5113 175.105 27.6477C175.968 26.7841 177.264 26.7841 178.127 27.6477L325.226 174.746C326.089 175.61 326.089 176.905 325.226 177.769C324.794 178.2 324.362 178.488 323.786 178.488Z" fill="white"/>
<path d="M176.689 325.586C176.113 325.586 175.537 325.442 175.105 325.01L28.0071 177.912C27.1435 177.049 27.1435 175.753 28.0071 174.89C28.8707 174.026 30.166 174.026 31.0296 174.89L178.128 321.988C178.991 322.851 178.991 324.147 178.128 325.01C177.696 325.442 177.12 325.586 176.689 325.586Z" fill="white"/>
<path d="M176.688 325.586C176.112 325.586 175.537 325.442 175.105 325.01C174.241 324.147 174.241 322.851 175.105 321.988L322.203 174.89C323.066 174.026 324.362 174.026 325.226 174.89C326.089 175.753 326.089 177.049 325.226 177.912L178.127 325.01C177.695 325.442 177.12 325.586 176.688 325.586Z" fill="white"/>
<path d="M29.4478 178.488C28.8721 178.488 28.2963 178.344 27.8645 177.912C27.0009 177.049 27.0009 175.753 27.8645 174.89L175.107 27.6477C175.97 26.7841 177.266 26.7841 178.129 27.6477C178.993 28.5113 178.993 29.8067 178.129 30.6703L31.031 177.912C30.5992 178.2 30.0235 178.488 29.4478 178.488Z" fill="white"/>
<path d="M176.257 325.442C93.9283 325.442 27 258.514 27 176.329C27 94.0001 93.9283 27.2158 176.257 27.2158C258.586 27.2158 325.514 94.1441 325.514 176.329C325.514 258.514 258.586 325.442 176.257 325.442ZM176.257 31.3898C96.3751 31.3898 31.318 96.447 31.318 176.185C31.318 256.067 96.3751 320.981 176.257 320.981C256.139 320.981 321.197 256.067 321.197 176.185C321.197 96.3031 256.139 31.3898 176.257 31.3898Z" fill="white"/>
<path d="M188.923 176.185C188.923 183.094 183.31 188.707 176.401 188.707C169.492 188.707 163.879 183.094 163.879 176.185C163.879 169.276 169.492 163.663 176.401 163.663C183.454 163.807 188.923 169.276 188.923 176.185Z" fill="white"/>
<path d="M185.9 249.878C185.9 255.059 181.726 259.089 176.688 259.089C171.651 259.089 167.477 254.915 167.477 249.878C167.477 244.84 171.651 240.666 176.688 240.666C181.726 240.666 185.9 244.696 185.9 249.878Z" fill="white"/>
<path d="M112.351 102.78C112.351 107.818 108.177 111.992 103.139 111.992C98.1018 111.992 93.9277 107.818 93.9277 102.78C93.9277 97.5985 98.1018 93.5684 103.139 93.5684C108.177 93.5684 112.351 97.5985 112.351 102.78Z" fill="white"/>
<path d="M115.517 249.878C115.517 256.787 109.903 262.4 102.995 262.4C96.086 262.4 90.4727 256.787 90.4727 249.878C90.4727 242.969 96.086 237.356 102.995 237.356C110.047 237.356 115.517 242.969 115.517 249.878Z" fill="white"/>
<path d="M332.999 176.329C332.999 181.366 328.825 185.54 323.788 185.54C318.75 185.54 314.576 181.366 314.576 176.329C314.576 171.147 318.75 167.117 323.788 167.117C328.825 167.117 332.999 171.147 332.999 176.329Z" fill="white"/>
<path d="M185.9 323.427C185.9 328.465 181.726 332.639 176.688 332.639C171.651 332.639 167.477 328.465 167.477 323.427C167.477 318.389 171.651 314.215 176.688 314.215C181.726 314.215 185.9 318.389 185.9 323.427Z" fill="white"/>
<path d="M262.618 303.277C262.618 310.186 257.005 315.799 250.096 315.799C243.188 315.799 237.574 310.186 237.574 303.277C237.574 296.368 243.188 290.755 250.096 290.755C257.149 290.899 262.618 296.368 262.618 303.277Z" fill="white"/>
<path d="M57.515 249.878C57.515 255.059 53.341 259.089 48.3034 259.089C43.2658 259.089 39.0918 254.915 39.0918 249.878C39.0918 244.84 43.2658 240.666 48.3034 240.666C53.341 240.666 57.515 244.696 57.515 249.878Z" fill="white"/>
<path d="M262.618 49.0934C262.618 56.0021 257.005 61.6154 250.096 61.6154C243.188 61.6154 237.574 56.0021 237.574 49.0934C237.574 42.1846 243.188 36.5713 250.096 36.5713C257.149 36.5713 262.618 42.1846 262.618 49.0934Z" fill="white"/>
<path d="M60.6809 102.924C60.6809 109.832 55.0675 115.446 48.1588 115.446C41.2501 115.446 35.6367 109.832 35.6367 102.924C35.6367 96.0149 41.2501 90.4016 48.1588 90.4016C55.2115 90.5455 60.6809 96.1589 60.6809 102.924Z" fill="white"/>
<path d="M312.994 102.78C312.994 107.818 308.82 111.992 303.782 111.992C298.744 111.992 294.57 107.818 294.57 102.78C294.57 97.5985 298.744 93.5684 303.782 93.5684C308.82 93.5684 312.994 97.5985 312.994 102.78Z" fill="white"/>
<path d="M259.449 176.473C259.449 181.654 255.275 185.684 250.237 185.684C245.199 185.684 241.025 181.51 241.025 176.473C241.025 171.435 245.199 167.261 250.237 167.261C255.275 167.261 259.449 171.291 259.449 176.473Z" fill="white"/>
<path d="M81.5503 72.2663C81.5503 77.3039 77.3762 81.478 72.3386 81.478C67.301 81.478 63.127 77.3039 63.127 72.2663C63.127 67.2287 67.301 63.0547 72.3386 63.0547C77.3762 63.0547 81.5503 67.2287 81.5503 72.2663Z" fill="white"/>
<path d="M112.351 49.093C112.351 54.1306 108.177 58.3046 103.139 58.3046C98.1018 58.3046 93.9277 54.1306 93.9277 49.093C93.9277 43.9114 98.1018 39.8813 103.139 39.8813C108.177 39.8813 112.351 44.0554 112.351 49.093Z" fill="white"/>
</svg>
