<svg width="360" height="360" viewBox="0 0 360 360" fill="none" xmlns="http://www.w3.org/2000/svg">
<rect width="360" height="360" rx="82" fill="#0F53A4"/>
<path d="M180.003 333.149C95.3311 333.149 26.8535 264.209 26.8535 180C26.8535 95.7912 95.7938 26.8509 180.003 26.8509C264.212 26.8509 333.152 95.3285 333.152 180C333.152 264.209 264.212 333.149 180.003 333.149Z" fill="white"/>
<path d="M269.299 252.642C269.299 252.642 261.896 220.716 250.791 201.284C244.313 191.105 235.06 182.776 222.104 182.776C212.851 182.776 204.985 187.866 195.269 201.284C189.254 209.612 180 230.433 180 230.433C180 230.433 170.746 209.612 164.731 201.284C155.015 187.403 147.149 182.776 137.896 182.776C124.94 182.313 115.224 191.105 108.746 201.284C97.1791 220.716 90.2388 252.642 90.2388 252.642H80.0597L136.045 68.4925L179.537 212.388L180 212.851L180.463 212.388L223.955 68.4925L279.94 252.642H269.299ZM180 25C94.403 25 25 94.403 25 180C25 265.597 94.403 335 180 335C265.597 335 335 265.597 335 180C335 94.8657 266.522 25 180 25Z" fill="#0F53A4"/>
</svg>
