<svg width="360" height="360" viewBox="0 0 360 360" fill="none" xmlns="http://www.w3.org/2000/svg">
<rect width="360" height="360" rx="82" fill="#048566"/>
<path fill-rule="evenodd" clip-rule="evenodd" d="M267.442 243.878C269.489 247.972 273.571 255.142 261.312 255.142H98.7226C88.4876 255.142 92.5816 247.972 93.6109 243.878L141.674 116.063C142.692 109.934 146.786 110.952 147.804 116.063L173.374 178.444C175.421 182.538 176.438 187.661 169.28 185.603H162.121C154.962 187.661 155.992 187.661 153.933 181.509L147.804 165.145C146.786 161.051 143.71 161.051 142.692 165.145L119.169 231.608C118.151 233.666 118.151 238.778 125.298 236.731H165.174C169.268 236.731 170.297 235.702 170.297 229.584V219.349C170.297 215.255 168.25 214.226 164.168 214.226H138.598C133.475 214.226 133.475 211.161 135.533 208.108L138.598 201.967C139.616 199.932 139.616 196.844 144.727 196.844H216.314C221.425 196.844 221.425 199.932 223.472 201.967L226.537 208.108C227.555 211.173 226.537 214.226 221.425 214.226H197.902C193.808 214.226 190.744 215.255 190.744 219.349V229.584C190.744 235.702 192.791 236.731 195.855 236.731H234.713C243.919 238.79 243.919 233.666 241.872 231.608L219.378 165.145C218.361 161.051 215.284 161.051 213.249 165.145L207.108 181.509C205.073 187.65 205.073 187.65 198.932 185.603H192.802C184.615 187.661 186.662 182.538 187.691 178.444L213.261 116.063C215.308 110.952 219.39 109.934 221.437 116.063L267.442 243.878ZM293 275.589V84.3643C293 76.1763 286.859 68 277.665 68H82.3466C74.1703 68 67 76.1763 67 84.3643V275.589C67 284.794 74.1586 292.971 82.3466 292.971H277.665C286.859 292.971 293 284.794 293 275.589Z" fill="white"/>
</svg>
