<svg width="360" height="360" viewBox="0 0 360 360" fill="none" xmlns="http://www.w3.org/2000/svg">
<rect width="360" height="360" rx="82" fill="#449226" fill-opacity="0.15"/>
<mask id="mask0" mask-type="alpha" maskUnits="userSpaceOnUse" x="25" y="26" width="310" height="310">
<rect x="25" y="26" width="310" height="310" rx="155" fill="white"/>
</mask>
<g mask="url(#mask0)">
<path fill-rule="evenodd" clip-rule="evenodd" d="M261.063 80.3849L77.168 264.282L172.166 185.846H160.835L169.113 180.615L177.394 174.079L180.88 165.799V180.615L261.063 80.3849Z" fill="#449226"/>
<path d="M261.063 80.3849L77.168 264.282L172.166 185.846H160.835L169.113 180.615L177.394 174.079L180.88 165.799V180.615L261.063 80.3849Z" stroke="#449226" stroke-width="0.00282357" stroke-miterlimit="2.6131"/>
<path fill-rule="evenodd" clip-rule="evenodd" d="M65.4082 252.518L145.589 185.846H135.566L145.589 179.31L177.398 147.496L180.884 139.217V154.034L249.3 69.0596L65.4082 252.518Z" fill="#449226"/>
<path d="M65.4082 252.518L145.589 185.846H135.566L145.589 179.31L177.398 147.496L180.884 139.217V154.034L249.3 69.0596L65.4082 252.518V252.518Z" stroke="#449226" stroke-width="0.00282357" stroke-miterlimit="2.6131"/>
<path fill-rule="evenodd" clip-rule="evenodd" d="M40.5645 227.679L91.9832 185.847H85.449L90.6772 182.358L177.394 95.6425L180.88 90.4089V99.1296L222.279 45.5274L40.5645 227.679Z" fill="#449226"/>
<path d="M40.5645 227.679L91.9832 185.847H85.449L90.6772 182.358L177.394 95.6425L180.88 90.4089V99.1296L222.279 45.5274L40.5645 227.679V227.679Z" stroke="#449226" stroke-width="0.00282357" stroke-miterlimit="2.6131"/>
<path fill-rule="evenodd" clip-rule="evenodd" d="M27.0547 215.911L65.4057 185.846H60.6108L63.6615 184.102L177.396 70.3618L182.19 63.8259V70.3618L210.952 32.0163L27.0547 215.911Z" fill="#449226"/>
<path d="M27.0547 215.911L65.4057 185.846H60.6108L63.6615 184.102L177.396 70.3619L182.19 63.8259V70.3619L210.952 32.0163L27.0547 215.911Z" stroke="#449226" stroke-width="0.00282357" stroke-miterlimit="2.6131"/>
<path fill-rule="evenodd" clip-rule="evenodd" d="M90.6777 277.791L175.653 207.633L180.881 195.868V205.889L202.234 185.846H193.953L207.465 177.565L274.136 93.8951L90.6777 277.791Z" fill="#449226"/>
<path d="M90.6777 277.791L175.653 207.633L180.881 195.868V205.889L202.234 185.846H193.953L207.465 177.565L274.136 93.8951L90.6777 277.791Z" stroke="#449226" stroke-width="0.00282357" stroke-miterlimit="2.6131"/>
<path fill-rule="evenodd" clip-rule="evenodd" d="M102.008 290.866L177.397 227.678L180.882 219.397V229.42L224.025 185.846H215.744L227.512 179.31L285.903 107.405L102.008 290.866Z" fill="#449226"/>
<path d="M102.008 290.866L177.397 227.678L180.882 219.397V229.42L224.025 185.846H215.744L227.512 179.31L285.903 107.405L102.008 290.866V290.866Z" stroke="#449226" stroke-width="0.00282357" stroke-miterlimit="2.6131"/>
<path fill-rule="evenodd" clip-rule="evenodd" d="M113.77 302.629L177.391 250.773L180.877 242.494V250.773L245.807 185.845H241.012L249.293 180.614L299.408 119.174L113.77 302.629Z" fill="#449226"/>
<path d="M113.77 302.629L177.391 250.773L180.877 242.494V250.773L245.807 185.845H241.012L249.293 180.614L299.408 119.174L113.77 302.629V302.629Z" stroke="#449226" stroke-width="0.00282357" stroke-miterlimit="2.6131"/>
<path fill-rule="evenodd" clip-rule="evenodd" d="M127.287 314.394L179.145 272.562L180.886 266.025V272.562L269.348 185.845H262.375L271.092 180.614L311.182 130.499L127.287 314.394Z" fill="#449226"/>
<path d="M127.287 314.394L179.145 272.562L180.886 266.025V272.562L269.348 185.845H262.375L271.092 180.614L311.182 130.499L127.287 314.394V314.394Z" stroke="#449226" stroke-width="0.00282357" stroke-miterlimit="2.6131"/>
<path fill-rule="evenodd" clip-rule="evenodd" d="M139.049 327.907L179.139 296.095L180.881 289.556V296.095L291.131 185.847H285.901L294.181 180.616L322.505 144.01L139.049 327.907Z" fill="#449226"/>
<path d="M139.049 327.907L179.139 296.095L180.881 289.556V296.095L291.131 185.847H285.901L294.181 180.616L322.505 144.01L139.049 327.907Z" stroke="#449226" stroke-width="0.00282357" stroke-miterlimit="2.6131"/>
<path fill-rule="evenodd" clip-rule="evenodd" d="M152.123 339.671L179.141 317.882L180.882 312.654V317.882L312.487 185.847H309.434L314.228 184.103L336.017 155.777L152.123 339.671Z" fill="#449226"/>
<path d="M152.123 339.671L179.141 317.882L180.882 312.654V317.882L312.487 185.847H309.434L314.228 184.103L336.017 155.777L152.123 339.671V339.671Z" stroke="#449226" stroke-width="0.00282357" stroke-miterlimit="2.6131"/>
<path fill-rule="evenodd" clip-rule="evenodd" d="M163.891 352.743L179.144 339.67L180.885 336.184V339.67L336.02 185.846H332.532L336.02 184.101L347.783 169.284L163.891 352.743Z" fill="#449226"/>
<path d="M163.891 352.743L179.144 339.67L180.885 336.184V339.67L336.02 185.846H332.532L336.02 184.101L347.783 169.284L163.891 352.743V352.743Z" stroke="#449226" stroke-width="0.00282357" stroke-miterlimit="2.6131"/>
<path fill-rule="evenodd" clip-rule="evenodd" d="M15.2891 202.404L37.078 185.845H35.3339L182.189 38.9895V42.0385L197.439 20.2519L15.2891 202.404Z" fill="#449226"/>
<path d="M15.2891 202.404L37.078 185.845H35.3339L182.189 38.9895V42.0385L197.439 20.2519L15.2891 202.404V202.404Z" stroke="#449226" stroke-width="0.00282357" stroke-miterlimit="2.6131"/>
<path fill-rule="evenodd" clip-rule="evenodd" d="M51.8926 240.75L119.002 185.845H110.722L117.258 180.615L177.394 122.223L182.188 115.687V125.71L235.787 57.2895L51.8926 240.75Z" fill="#449226"/>
<path d="M51.8926 240.75L119.002 185.845H110.722L117.258 180.615L177.394 122.223L182.188 115.687V125.71L235.787 57.2895L51.8926 240.75V240.75Z" stroke="#449226" stroke-width="0.00282357" stroke-miterlimit="2.6131"/>
<path fill-rule="evenodd" clip-rule="evenodd" d="M14.0839 353.549L562.159 -193.994H559.548L12.7852 352.243L14.0839 353.549Z" fill="#449226"/>
<path fill-rule="evenodd" clip-rule="evenodd" d="M1.01737 343.527L538.537 -193.994H535.92L-0.291016 342.221L1.01737 343.527Z" fill="#449226"/>
<path fill-rule="evenodd" clip-rule="evenodd" d="M-10.7511 330.457L513.697 -193.993H511.086L-12.0547 329.147L-10.7511 330.457Z" fill="#449226"/>
<path fill-rule="evenodd" clip-rule="evenodd" d="M-22.5211 315.201L487.075 -193.994L484.464 -193.988L-23.8223 313.896L-22.5211 315.201Z" fill="#449226"/>
<path fill-rule="evenodd" clip-rule="evenodd" d="M-36.0284 305.179L463.25 -193.993H460.633L-37.332 303.873L-36.0284 305.179Z" fill="#449226"/>
<path fill-rule="evenodd" clip-rule="evenodd" d="M-49.0998 293.415L438.305 -193.994H435.694L-50.4082 292.104L-49.0998 293.415Z" fill="#449226"/>
<path fill-rule="evenodd" clip-rule="evenodd" d="M-60.8659 280.337L413.47 -193.994H410.854L-62.1719 279.038L-60.8659 280.337Z" fill="#449226"/>
<path fill-rule="evenodd" clip-rule="evenodd" d="M-74.368 268.575L388.201 -193.993L385.584 -193.987L-75.6758 267.267L-74.368 268.575Z" fill="#449226"/>
<path fill-rule="evenodd" clip-rule="evenodd" d="M-86.1431 255.069L363.275 -193.993H360.671L-87.4395 253.759L-86.1431 255.069Z" fill="#449226"/>
<path fill-rule="evenodd" clip-rule="evenodd" d="M-97.465 243.299L339.824 -193.994H337.214L-98.7734 241.993L-97.465 243.299Z" fill="#449226"/>
<path fill-rule="evenodd" clip-rule="evenodd" d="M-110.984 231.535L314.547 -193.993H311.933L-112.287 230.227L-110.984 231.535Z" fill="#449226"/>
<path fill-rule="evenodd" clip-rule="evenodd" d="M-122.744 218.464L289.709 -193.994H287.093L-124.047 217.154L-122.744 218.464Z" fill="#449226"/>
<path fill-rule="evenodd" clip-rule="evenodd" d="M-136.252 206.695L264.434 -194L261.818 -193.994L-137.561 205.387L-136.252 206.695Z" fill="#449226"/>
<path fill-rule="evenodd" clip-rule="evenodd" d="M-147.582 193.189L239.598 -193.994H236.982L-148.893 191.881L-147.582 193.189Z" fill="#449226"/>
<path fill-rule="evenodd" clip-rule="evenodd" d="M-161.094 181.422L214.635 -193.993H212.026L-162.391 180.114L-161.094 181.422Z" fill="#449226"/>
<path fill-rule="evenodd" clip-rule="evenodd" d="M-172.856 170.088L191.229 -193.994H188.61L-174.164 168.785L-172.856 170.088Z" fill="#449226"/>
<path fill-rule="evenodd" clip-rule="evenodd" d="M-186.373 156.583L164.499 -193.993H161.891L-187.674 155.278L-186.373 156.583Z" fill="#449226"/>
<path fill-rule="evenodd" clip-rule="evenodd" d="M-197.694 144.816L141.115 -193.993H138.501L-199 143.51L-197.694 144.816Z" fill="#449226"/>
<path fill-rule="evenodd" clip-rule="evenodd" d="M25.8469 367.059L586.898 -193.994H584.282L24.5391 365.753L25.8469 367.059Z" fill="#449226"/>
<path fill-rule="evenodd" clip-rule="evenodd" d="M37.6185 380.568L612.179 -193.993H609.568L36.3125 379.262L37.6185 380.568Z" fill="#449226"/>
<path fill-rule="evenodd" clip-rule="evenodd" d="M51.1292 391.9L637.011 -193.993H634.401L49.8184 390.59L51.1292 391.9Z" fill="#449226"/>
<path fill-rule="evenodd" clip-rule="evenodd" d="M62.8939 405.407L662.294 -193.993H659.677L61.5879 404.097L62.8939 405.407Z" fill="#449226"/>
<path fill-rule="evenodd" clip-rule="evenodd" d="M75.9642 417.173L687.129 -193.994H684.518L74.6582 415.865L75.9642 417.173Z" fill="#449226"/>
<path fill-rule="evenodd" clip-rule="evenodd" d="M87.7303 430.68L712.406 -193.994H709.789L86.4219 429.371L87.7303 430.68Z" fill="#449226"/>
<path fill-rule="evenodd" clip-rule="evenodd" d="M99.4984 442.012L735.975 -193.993H733.364L98.1973 440.703L99.4984 442.012Z" fill="#449226"/>
<path fill-rule="evenodd" clip-rule="evenodd" d="M113.003 453.776L760.774 -193.992H758.157L111.697 452.469L113.003 453.776Z" fill="#449226"/>
<path fill-rule="evenodd" clip-rule="evenodd" d="M124.331 467.289L785.609 -193.993H782.992L123.025 465.978L124.331 467.289Z" fill="#449226"/>
<path fill-rule="evenodd" clip-rule="evenodd" d="M137.847 479.054L810.887 -193.993H808.271L136.541 477.746L137.847 479.054Z" fill="#449226"/>
<path fill-rule="evenodd" clip-rule="evenodd" d="M149.609 492.124L835.724 -193.994H833.107L148.301 490.818L149.609 492.124Z" fill="#449226"/>
<path fill-rule="evenodd" clip-rule="evenodd" d="M163.12 503.89L861.001 -193.994H858.384L161.812 502.582L163.12 503.89Z" fill="#449226"/>
</g>
</svg>
