<svg width="360" height="360" viewBox="0 0 360 360" fill="none" xmlns="http://www.w3.org/2000/svg">
<rect width="360" height="360" rx="82" fill="#104076"/>
<path d="M266.928 172.828C302.011 136.634 316.54 102.992 305.229 86.7996C293.423 69.8897 256.74 76.7387 209.19 101.862C207.064 102.903 205.179 104.008 203.789 104.966C201.491 106.56 202.83 107.721 204.525 107.105C206.264 106.477 208.245 105.715 210.479 104.617C246.12 87.7137 273.923 84.6795 284.79 96.4796C301.351 114.45 267.436 173.342 208.708 216.906C200.869 222.72 188.77 231.232 180.893 235.961C180.36 236.291 179.833 236.615 179.319 236.945C177.237 238.31 175.383 239.579 173.923 240.722C172.501 241.826 172.774 243.585 175.339 242.48C176.9 241.814 178.798 240.804 180.817 239.567C181.274 239.287 181.724 239.033 182.2 238.741C191.055 233.365 204.201 224.288 213.183 218.017C220.908 212.621 228.208 207.143 235.076 201.646C247.054 192.042 257.698 182.343 266.928 172.828Z" fill="white"/>
<path d="M110.54 282H142.398V248.986C151.107 243.838 159.924 238.195 168.588 232.286C170.537 230.947 172.264 229.614 173.514 228.471C175.577 226.586 174.085 225.615 172.492 226.452C170.854 227.316 168.918 228.484 166.824 229.817C117.611 261.294 84.3878 270.898 72.118 254.242C61.4604 239.782 78.9289 211.828 110.54 180.255V253.537C119.509 250.491 130.109 245.635 142.392 238.805L142.386 170.816L149.393 185.726C157.074 202.192 171.013 212.037 188.735 212.037C206.452 212.037 220.391 202.192 228.071 185.726L235.079 170.816L235.073 188.164C246.473 177.106 256.204 166.068 263.586 155.391C264.506 154.071 264.424 152.96 263.922 151.742C259.009 141.49 248.555 134.425 236.406 134.425C224.39 134.425 213.954 141.395 208.952 151.475L195.623 179.753C194.245 182.508 191.706 184.038 188.735 184.038C185.771 184.038 183.219 182.508 181.842 179.753L168.512 151.475C165.973 146.352 162.025 142.036 157.182 139.027C166.932 131.29 176.409 124.377 185.739 118.715C187.86 117.427 189.599 116.138 191.065 115.014C192.506 113.916 192.239 112.158 189.669 113.237C188.107 113.891 186.082 114.888 184.057 116.119C174.523 121.895 164.78 127.805 155.462 134.171C154.332 134.94 153.214 135.714 152.097 136.488C148.67 135.155 144.95 134.425 141.059 134.425C124.174 134.425 110.54 148.066 110.54 164.951V169.153C65.5355 209.282 41.9099 249.018 54.2559 266.709C63.3202 279.683 84.8131 276.687 110.54 265.509V282Z" fill="white"/>
</svg>
