<svg width="360" height="360" viewBox="0 0 360 360" fill="none" xmlns="http://www.w3.org/2000/svg">
<rect width="360" height="360" rx="82" fill="black"/>
<path d="M179.996 335.023C94.3901 335.023 25 265.618 25 179.996C25 94.3901 94.3901 25 179.996 25C265.602 25 335 94.3901 335 179.996C335.008 265.618 265.602 335.023 179.996 335.023Z" fill="#00B2A9"/>
<path d="M155.089 172.342L172.188 141.38L156.653 113.804C154.049 109.12 148.678 106.126 143.134 106.126H99.6784C90.8825 106.126 83.7754 113.256 83.7754 122.029V255.868H116.473V135.774H134.706L155.089 172.342ZM260.343 106.118H216.879C211.344 106.118 205.965 109.12 203.377 113.796L124.51 255.86H158.983L180.007 217.815L201.039 255.86H235.511L197.137 186.524L225.316 135.766H243.556V255.86H276.246V122.021C276.238 113.248 269.139 106.118 260.343 106.118Z" fill="white"/>
</svg>
