<svg width="360" height="360" viewBox="0 0 360 360" fill="none" xmlns="http://www.w3.org/2000/svg">
<rect width="360" height="360" rx="82" fill="black"/>
<path d="M74 74V78.191C74.4074 78.191 74.5327 78.2145 75.0184 78.2145H75.0341C80.7527 78.2145 85.4138 83.9724 85.4138 88.8215L85.5 263.42C85.5 276.628 96.4359 286.647 109.996 286.647H110.161C123.118 286.647 134.829 276.432 134.829 263.42V92.1195C134.829 86.2598 139.467 81.5126 145.209 81.5126H145.248C150.951 81.5126 155.628 86.2598 155.581 92.1195L155.714 263.428C155.714 276.808 167.284 286.655 180.273 286.655H180.336C193.919 286.655 204.965 276.808 204.965 263.428V92.1195C204.965 87.2547 209.626 81.5126 215.345 81.5126H215.36C221.102 81.5126 225.717 86.2598 225.717 92.1195V263.428C225.717 276.636 236.801 286.655 250.346 286.655H250.432C263.977 286.655 275.014 276.808 275.014 263.428V88.8215C275.014 82.9775 279.668 78.2145 285.394 78.2145H285.433C285.77 78.2145 286.029 78.1597 287 78.1597V74.0078" fill="#00BBE5"/>
</svg>
