<svg width="360" height="360" viewBox="0 0 360 360" fill="none" xmlns="http://www.w3.org/2000/svg">
<rect width="360" height="360" rx="82" fill="#C41F3D"/>
<path d="M244.952 109.696C235.112 109.696 215.267 112.001 200.691 122.939C203.971 138.283 206.908 155.178 206.908 155.178C215.335 138.448 231.2 132.162 244.252 132.162C281.651 132.162 290.009 161.999 289.762 177.219H210.998L215.541 199.425H326.858C329.809 124.12 286.18 109.696 244.952 109.696Z" fill="white"/>
<path d="M83.1484 162.788C92.7416 118.761 143.947 101.688 151.193 138.153C158.192 173.493 162.131 191.115 164.094 199.35C177.667 256.278 207.243 272.116 253.356 270.537C291.071 269.288 317.956 249.127 324.42 220.43H288.134C286.24 229.159 276.729 245.298 252.162 245.765C212.87 246.492 204.553 221.418 199.736 201.134C194.891 180.849 188.962 142.367 183.939 118.692C174.017 71.9887 121.096 74.7885 87.1421 130.55C87.1421 130.55 90.038 114.438 87.9519 103.733C85.1658 89.4734 76.2725 87.3324 70.0005 87.3324L41.5639 103.376C49.524 104.625 56.9625 111.35 53.6961 130.55C50.4023 149.75 33 239.081 33 239.081H68.3262C68.3262 239.081 73.5414 207.09 83.1484 162.788Z" fill="white"/>
</svg>
