<svg width="360" height="360" viewBox="0 0 360 360" fill="none" xmlns="http://www.w3.org/2000/svg">
<rect width="360" height="360" rx="82" fill="#3D90C3"/>
<path d="M33.1747 184.436L33.1425 184.453L33.1093 184.468C32.1637 184.896 31.1976 185.445 30.1117 186.065L30.0775 186.085C29.0168 186.69 27.8571 187.352 26.586 187.958L26.5764 187.963L26.5666 187.967C26.1907 188.139 25.6764 188.297 25.1271 188.17C24.4841 188.021 24.0997 187.562 23.9194 187.113C23.7597 186.716 23.7402 186.299 23.7533 185.974C23.7672 185.63 23.8241 185.271 23.899 184.927C24.1865 183.61 24.8639 181.998 25.3465 181.271C26.5687 179.399 28.0332 177.918 29.181 176.91C29.7578 176.403 30.2612 176.01 30.6238 175.742C30.8052 175.607 30.952 175.504 31.0556 175.432C31.1074 175.397 31.1485 175.369 31.1779 175.349L31.2024 175.333C45.1195 165.436 67.2618 158.85 91.9895 156.643C116.758 154.432 144.278 156.601 169.022 164.364C195.439 172.649 223.611 181.472 250.92 184.236C278.204 186.996 304.488 183.69 327.201 167.842L327.21 167.836L327.22 167.83L327.916 168.867L327.22 167.829L327.22 167.829L327.222 167.828L327.227 167.824L327.25 167.809L327.337 167.75L327.659 167.535C327.931 167.353 328.308 167.102 328.728 166.823C329.56 166.269 330.569 165.603 331.265 165.158C332.163 164.554 333.053 164.1 333.862 164.034C334.306 163.999 334.823 164.073 335.274 164.411C335.712 164.739 335.926 165.195 336.02 165.605C336.455 167.295 336.296 169.004 335.352 170.819C334.433 172.587 332.786 174.425 330.316 176.487L330.314 176.488C329.229 177.392 328.457 178.056 327.833 178.594C326.94 179.362 326.349 179.872 325.569 180.451C324.231 181.445 322.268 182.703 317.098 186.018L317.097 186.018C297.256 198.732 270.995 209.084 224.666 201.88C201.462 198.294 183.765 192.524 167.139 187.102C162.683 185.65 158.304 184.222 153.917 182.868C133.166 176.464 112.066 171.649 81.3027 173.426C55.7704 174.904 45.1499 178.149 33.1747 184.436Z" fill="white" stroke="white" stroke-width="2"/>
</svg>
