<svg width="360" height="360" viewBox="0 0 360 360" fill="none" xmlns="http://www.w3.org/2000/svg">
<rect width="360" height="360" rx="82" fill="#092795"/>
<path d="M242.502 78L189.097 224.726C187.75 228.413 184.415 231.005 180.51 231.401V231.471H236.965C241.385 231.471 245.168 228.66 246.576 224.731L300 78H242.502Z" fill="white"/>
<path opacity="0.763904" d="M175.92 229.244C179.194 229.244 182.061 227.616 183.815 225.151C183.997 224.894 184.638 223.996 185.092 222.775L204.68 168.93L193.221 137.485C191.861 134.242 188.851 131.991 185.356 131.605C181.862 131.218 178.432 132.756 176.397 135.623C176.209 135.881 175.447 137.026 175.12 137.999L155.531 191.825L167.042 223.397C168.568 226.944 172.058 229.242 175.92 229.244Z" fill="white"/>
<path d="M180.112 129.298H123.036C118.616 129.298 114.832 132.095 113.405 136.043L60 282.769H117.498L170.908 136.047C172.325 132.143 175.962 129.483 180.112 129.317V129.298Z" fill="white"/>
</svg>
