<svg width="360" height="360" viewBox="0 0 360 360" fill="none" xmlns="http://www.w3.org/2000/svg">
<rect width="360" height="360" rx="82" fill="#0096D6"/>
<mask id="mask0" mask-type="alpha" maskUnits="userSpaceOnUse" x="24" y="24" width="312" height="312">
<circle cx="180" cy="180" r="155.455" fill="#4681C7"/>
<circle cx="180" cy="180" r="155.205" stroke="#2869BF" stroke-opacity="0.04" stroke-width="0.5"/>
</mask>
<g mask="url(#mask0)">
<path d="M213.2 42.1725C213.2 42.1725 217.976 55.2817 218.569 73.1474L139.326 165.484L248.931 82.6804L254.3 108.291C254.3 108.291 170.904 203.014 150.657 229.82C150.657 229.82 256.962 141.838 316.371 106.307C290.162 57.8835 238.941 25 180.01 25C94.4034 25 25 94.4034 25 180.015C25 182.376 25.2511 184.691 25.3666 187.037C59.7921 157.202 152.556 78.4714 213.2 42.1725ZM335 183.737C334.986 168.705 332.786 153.755 328.47 139.356C292.689 158.362 207.695 205.435 146.684 254.612C198.094 261.702 249.201 270.83 299.886 281.975C322.646 254.301 335.061 219.567 335 183.737Z" fill="white"/>
<path d="M258.293 278.593C230.619 272.585 202.692 267.808 174.595 264.274C136.142 259.446 97.4257 257.017 58.6711 257H58.6392C-185.044 257.007 -362.455 353.315 -422 390.609C-228.591 303.337 -48.244 277.987 96.0466 277.987C219.613 277.987 316.722 296.573 373 310.813C333.854 297.306 295.59 286.696 258.293 278.593Z" fill="#7AC143"/>
</g>
</svg>
