<svg width="360" height="360" viewBox="0 0 360 360" fill="none" xmlns="http://www.w3.org/2000/svg">
<rect width="360" height="360" rx="82" fill="black"/>
<path d="M200.082 53.2006L199.982 109.357L199.881 165.514L195.269 152.478V152.444L189.285 277.46C195.168 294.04 198.31 302.898 198.344 302.931C198.377 302.965 201.72 303.165 205.765 303.366C217.999 303.968 233.174 305.271 244.707 306.709C247.381 307.043 249.654 307.21 249.821 307.076C249.988 306.943 250.021 249.783 249.988 180.021L249.888 53.2006H200.082Z" fill="#B1060F" stroke="black" stroke-width="11.2613"/>
<path d="M110 53.0334V179.988C110 249.816 110.067 307.009 110.167 307.11C110.267 307.21 114.579 306.775 119.794 306.207C125.009 305.639 132.195 304.904 135.772 304.603C141.254 304.135 157.7 303.099 159.572 303.065C160.14 303.065 160.173 300.224 160.24 249.282L160.341 195.498L164.318 206.729C164.92 208.468 165.121 209.002 165.722 210.707L171.706 85.7247C170.435 82.1481 171.104 84.02 169.667 79.9419C164.786 66.1367 160.641 54.4708 160.474 53.9359L160.14 53H110V53.0334Z" fill="#B1060F" stroke="black" stroke-width="11.2613"/>
<path d="M200.082 53.2006L199.982 109.357L199.881 165.514L195.269 152.478V152.444L189.285 277.46C195.168 294.04 198.31 302.898 198.344 302.931C198.377 302.965 201.72 303.165 205.765 303.366C217.999 303.968 233.174 305.271 244.707 306.709C247.381 307.043 249.654 307.21 249.821 307.076C249.988 306.943 250.021 249.783 249.988 180.021L249.888 53.2006H200.082Z" fill="#B1060F" stroke="black" stroke-width="11.2613"/>
<path d="M110 53.0334V179.988C110 249.816 110.067 307.009 110.167 307.11C110.267 307.21 114.579 306.775 119.794 306.207C125.009 305.639 132.195 304.904 135.772 304.603C141.254 304.135 157.7 303.099 159.572 303.065C160.14 303.065 160.173 300.224 160.24 249.282L160.341 195.498L164.318 206.729C164.92 208.468 165.121 209.002 165.722 210.707L171.706 85.7247C170.435 82.1481 171.104 84.02 169.667 79.9419C164.786 66.1367 160.641 54.4708 160.474 53.9359L160.14 53H110V53.0334Z" fill="#B1060F" stroke="black" stroke-width="11.2613"/>
<path d="M110 53.0334V124.299L160.207 257.471C160.207 254.429 160.207 252.758 160.24 249.282L160.341 195.498L164.318 206.729C186.38 269.304 198.246 302.864 198.313 302.931C198.347 302.965 201.689 303.165 205.734 303.366C217.968 303.968 233.144 305.271 244.676 306.709C247.35 307.043 249.623 307.21 249.79 307.076C249.891 306.976 249.958 278.964 249.958 239.421L200.018 95.7527L199.985 109.357L199.884 165.514L195.271 152.478C190.759 139.742 187.75 131.218 169.6 79.9419C164.719 66.1367 160.575 54.4708 160.407 53.9359L160.073 53H110V53.0334Z" fill="url(#paint0_radial)"/>
<path d="M110 53.0334L160.307 195.598V195.531L164.285 206.763C186.38 269.304 198.246 302.865 198.313 302.931C198.347 302.965 201.689 303.165 205.734 303.366C217.968 303.968 233.144 305.271 244.676 306.709C247.317 307.043 249.623 307.21 249.757 307.076L199.884 165.481V165.514L195.272 152.478C190.759 139.742 187.751 131.218 169.6 79.9419C164.72 66.1367 160.575 54.4708 160.407 53.9359L160.073 53H135.037L110 53.0334Z" fill="#D8000B"/>
<defs>
<radialGradient id="paint0_radial" cx="0" cy="0" r="1" gradientUnits="userSpaceOnUse" gradientTransform="translate(177.636 178.588) rotate(-19.1007) scale(9.22407 337.889)">
<stop/>
<stop offset="1" stop-opacity="0"/>
</radialGradient>
</defs>
</svg>
