<svg width="360" height="360" viewBox="0 0 360 360" fill="none" xmlns="http://www.w3.org/2000/svg">
<rect width="360" height="360" rx="82" fill="#2F73AC"/>
<path fill-rule="evenodd" clip-rule="evenodd" d="M319.164 155.339C324.316 129.585 305.083 121 277.269 121C274.177 121 271.429 121 268.336 121.345L223.353 144.01C221.202 147.286 219.579 150.879 218.546 154.658L259.411 155.343C259.411 154.658 259.411 153.969 259.755 152.94C260.44 149.507 264.218 146.414 271.433 146.414C276.925 146.414 280.358 148.818 279.328 155.343H319.164V155.339ZM217.86 157.398C217.516 160.143 217.175 162.206 216.831 164.609C238.467 175.253 273.151 192.427 289.291 200.323C295.128 203.067 291.695 201.701 291.695 201.701L288.947 200.663L216.831 167.013C217.516 176.631 222.668 183.494 235.03 187.616L264.562 196.89C268.34 198.268 271.433 200.323 270.403 204.445C269.374 209.597 264.222 213.719 257.696 213.719C253.574 213.719 250.826 212.341 249.796 210.286C248.422 207.882 248.422 204.785 249.111 201.701H233.656C243.96 215.089 254.603 228.485 260.789 236.381C261.474 237.41 262.163 238.099 262.507 238.784C288.262 236.04 307.835 224.018 312.987 200.323C315.735 186.586 311.957 176.631 298.906 170.446C288.602 165.639 273.492 162.55 265.596 160.143C262.507 159.113 260.789 158.083 259.759 156.365L217.86 157.054V157.398ZM206.524 201.701C203.435 216.803 207.902 226.426 217.171 231.918L207.898 201.701H206.524ZM231.593 201.701H209.961C212.705 212.004 215.453 222.993 218.201 232.607C226.445 237.41 238.119 239.133 250.485 239.133C254.603 239.133 258.381 239.133 262.159 238.784L260.44 236.725L231.593 201.701ZM225.76 140.229L265.936 121.685C248.078 123.4 234.345 129.925 225.76 140.229ZM198.628 150.532L199.657 148.814L218.201 124.089H204.124L198.972 148.814L198.628 150.532ZM200.002 152.591H200.346L202.405 151.562L217.516 144.347L221.638 124.089H220.264L201.72 150.532L200.002 152.591ZM216.827 147.095L206.183 152.591H215.797L216.827 147.095ZM178.021 152.591H186.265L178.71 148.814L178.021 152.591ZM193.132 150.188L192.787 148.814L186.265 124.089H184.202L181.803 136.107L192.447 149.158L193.132 150.188ZM189.698 151.562L191.761 152.591L190.387 150.877L181.114 138.855L179.399 146.41L189.698 151.562ZM195.88 151.562L196.569 148.125L202.061 124.089H188.328L195.195 148.125L195.88 151.562ZM204.809 158.432C207.213 159.802 209.965 161.176 213.398 162.895L214.427 158.432H204.809ZM193.821 161.176C193.476 161.521 193.132 162.55 192.787 162.895C188.324 168.731 179.05 180.749 169.436 193.456L160.166 236.729H178.025L193.135 162.895L193.821 161.176ZM199.657 162.55L198.972 161.521C198.972 161.865 199.313 162.55 199.313 162.895C201.031 168.731 203.775 179.724 207.213 192.082L210.646 175.942L199.657 162.55ZM196.224 160.487C196.224 160.832 195.884 162.891 195.884 163.58C192.791 176.283 184.895 211.315 178.714 236.729H197.943L206.528 196.204L196.913 163.584L196.224 160.487ZM190.728 161.176L192.102 159.117C191.761 159.462 190.728 160.147 190.043 160.491C186.61 161.865 181.114 164.613 174.932 167.357L170.125 189.334L190.728 161.176ZM202.405 160.487L200.342 159.113C200.342 159.458 201.372 160.487 201.716 160.832C204.12 163.92 207.553 168.042 211.331 173.194L213.049 165.294L202.405 160.487ZM175.621 164.609L187.639 158.432H176.995L175.621 164.609ZM168.751 170.105C147.13 180.209 125.495 190.283 103.846 200.327C98.0092 202.73 101.442 201.356 101.442 201.356L103.501 199.986L169.436 167.357L171.499 157.054C159.822 157.054 145.056 156.709 130.975 156.369L126.167 180.06L122.734 156.369C111.401 156.024 100.757 156.024 93.8871 155.684H91.4874L93.8871 155.339L122.734 154.995L118.272 124.089H65.0399L41 236.729H83.2392L94.2276 184.872L101.438 236.729H136.122L162.566 199.986L168.751 170.105ZM176.651 133.359L169.781 124.089H137.845L137.5 126.833L174.247 144.006L176.651 133.359ZM178.71 124.089H172.184L177.336 130.61L178.71 124.089ZM151.581 236.729H154.674L161.885 203.76C153.432 214.676 145.075 225.666 136.815 236.729H151.581Z" fill="white"/>
<path fill-rule="evenodd" clip-rule="evenodd" d="M173.906 146.41L137.163 127.867L131.322 154.995L172.187 154.655L173.906 146.41Z" fill="white"/>
</svg>
