<svg width="360" height="360" viewBox="0 0 360 360" fill="none" xmlns="http://www.w3.org/2000/svg">
<rect width="360" height="360" rx="82" fill="black"/>
<path d="M80.8861 232.75C72.5432 232.418 65.7176 230.136 60.3804 225.896C59.3618 225.086 56.9347 222.657 56.1204 221.633C53.9561 218.911 52.4847 216.263 51.5033 213.324C48.4833 204.278 50.0376 192.409 55.949 179.381C61.0104 168.229 68.8204 157.167 82.4461 141.847C84.4532 139.593 90.4304 133 90.4689 133C90.4832 133 90.1575 133.564 89.7475 134.251C86.2047 140.186 83.1732 147.176 81.5218 153.227C78.869 162.937 79.1889 171.27 82.4589 177.731C84.7146 182.183 88.5818 186.039 92.9304 188.17C100.543 191.9 111.689 192.208 125.3 189.073C126.237 188.856 172.675 176.529 228.494 161.679C284.314 146.827 329.993 134.686 330 134.696C330.016 134.709 200.314 190.209 132.985 219.001C122.322 223.56 119.47 224.711 114.457 226.471C101.643 230.971 90.1646 233.118 80.8861 232.75Z" fill="white"/>
</svg>
