<svg width="360" height="360" viewBox="0 0 360 360" fill="none" xmlns="http://www.w3.org/2000/svg">
<rect width="360" height="360" rx="82" fill="black"/>
<path d="M138.867 110.643C147.191 102.346 154.217 96.3875 161.027 92.0637C167.783 87.7533 176.269 85.5913 186.457 85.5913C202.482 85.5913 213.886 91.0639 220.669 101.995C227.452 112.953 230.857 127.384 230.857 145.261V261.857C230.857 266.775 228.385 269.923 223.453 271.328C218.521 272.707 211.886 273.707 203.563 274.328V279.408H297.999V275.247C295.229 274.962 292.202 274.572 288.973 274.099C285.73 273.639 282.73 273.018 279.947 272.247C277.177 271.464 274.772 270.329 272.785 268.788C270.786 267.221 269.772 265.383 269.772 263.235V127.222C269.772 106.265 264.975 89.1451 255.436 75.8762C245.869 62.6209 232.155 56 214.265 56C205.941 56 197.928 57.6216 190.213 60.8645C182.498 64.0939 175.404 68.1881 168.932 73.1065C162.473 78.0519 156.676 83.5104 151.596 89.5367C146.501 95.5496 142.259 101.171 138.881 106.414" fill="#00ADEF"/>
<path d="M127.29 119.17V262.75C127.912 265.844 128.993 268.059 130.52 269.438C132.06 270.843 133.925 271.843 136.073 272.478C138.222 273.085 140.708 273.478 143.478 273.627C146.261 273.775 149.18 274.153 152.274 274.788V279.396H63V274.788C70.0938 274.153 76.1878 272.761 81.2683 270.627C86.3489 268.451 88.9026 264.938 88.9026 259.979V100.861C88.9026 98.3886 88.6594 96.5505 88.2 95.3074C87.7406 94.0778 86.4299 92.6727 84.2815 91.1324C81.498 89.592 78.2551 87.8217 74.5663 85.8219C70.864 83.8086 67.1617 82.0389 63.4594 80.485V77.7146L124.061 56.001H127.182L127.29 119.17Z" fill="#00ADEF"/>
</svg>
