<svg width="360" height="360" viewBox="0 0 360 360" fill="none" xmlns="http://www.w3.org/2000/svg">
<rect width="360" height="360" rx="82" fill="#2E6BAA"/>
<mask id="mask0" mask-type="alpha" maskUnits="userSpaceOnUse" x="0" y="0" width="360" height="360">
<rect width="360" height="360" rx="82" fill="white"/>
</mask>
<g mask="url(#mask0)">
<path fill-rule="evenodd" clip-rule="evenodd" d="M157.974 128.716L137.008 174.025L107.184 129.53L107.998 128.716H71.724L29 220.136H65.2737L87.0312 173.212L118.481 220.136H151.524L194.237 128.716H157.974Z" fill="white"/>
<path fill-rule="evenodd" clip-rule="evenodd" d="M282.111 219.628C274.847 221.255 270.815 222.057 262.771 222.87C253.892 223.672 248.255 223.672 240.991 223.672C233.75 223.672 228.113 222.87 222.453 222.046C216.816 220.431 211.992 218.815 207.937 216.387C200.696 211.529 196.663 205.87 195.059 199.397C192.641 192.122 194.257 184.837 197.476 175.935C200.696 169.463 204.718 162.99 210.377 157.33C215.212 151.66 222.453 146.814 229.717 141.956C237.772 137.912 246.651 134.671 254.694 132.242C263.573 129.813 272.43 129 282.111 129C289.352 129 295.803 129.813 302.264 130.615C307.901 132.242 314.341 133.857 320 136.286L310.319 158.133C305.484 155.704 300.66 154.089 295.803 152.462C290.968 151.649 286.144 150.835 280.507 150.835C270.826 150.835 261.969 153.264 253.892 157.319C245.837 162.177 240.189 168.638 236.958 175.924C233.728 183.21 233.739 189.683 236.958 193.727C240.98 198.584 246.639 201.013 254.694 201.013C256.31 201.013 257.914 201.013 259.529 200.199C261.156 200.199 261.156 200.199 262.771 199.386L268.408 188.869H253.892L264.375 170.265H305.473L282.111 219.628Z" fill="white"/>
<path d="M0 299C72.0009 237.691 288.821 246.649 360 246.249" stroke="white" stroke-width="6" stroke-miterlimit="2.613"/>
</g>
</svg>
