<svg width="360" height="360" viewBox="0 0 360 360" fill="none" xmlns="http://www.w3.org/2000/svg">
<rect width="360" height="360" rx="82" fill="#EE3229"/>
<path d="M335 180.002C335 265.599 265.599 334.993 180.002 334.993C132.1 334.993 89.2794 313.254 60.8571 279.119C81.9549 281.724 112.07 279.254 154.913 266.244C218.014 247.079 271.499 200.835 302.522 159.717C302.065 156.593 301.513 153.508 300.837 150.44C265.211 186.555 210.012 224.488 154.699 238.226C64.8889 260.558 38.3266 234.03 31.2036 222.034L30.3524 220.387C26.8843 207.5 25 193.971 25 180.002C25 94.3946 94.3946 25 180.002 25C265.599 25 335 94.3946 335 180.002Z" fill="white"/>
</svg>
