<svg width="360" height="360" viewBox="0 0 360 360" fill="none" xmlns="http://www.w3.org/2000/svg">
<rect width="360" height="360" rx="82" fill="black"/>
<circle cx="180" cy="180" r="155.455" fill="#4681C7" fill-opacity="0.06"/>
<circle cx="180" cy="180" r="155.205" stroke="#2869BF" stroke-opacity="0.04" stroke-width="0.5"/>
<path fill-rule="evenodd" clip-rule="evenodd" d="M332.879 166.31C336.869 156.52 331.979 138.018 289.251 138C256.504 137.987 241.774 144.268 233.474 152.18L237.719 138.595L205.171 138.582L189.444 181.807L169.042 138.566L135.591 138.55L135.484 138.864H39.0401L37.0401 147.118H132.657L129.073 157.574H35.0228L33.0228 165.831H126.244L123.227 174.635H29.0029V182.889H120.398L117.379 191.694H33.0228L35.0228 199.951H114.552L110.514 209.78H37.0427L39.0427 219.227H141.204L156.061 177.712L175.479 219.227H210.35L216.209 201.37C214.592 211.173 221.701 221.137 265.71 221.155C277.945 221.158 314.591 222.991 323.615 198.463C329.196 183.287 316.908 175.528 299.019 172.85L277.769 170.529C272.275 169.75 264.536 169.326 265.752 163.832C267.117 157.653 273.17 156.194 280.951 156.202C295.695 156.218 294.687 162.741 293.945 166.302L332.879 166.31Z" fill="white"/>
<path fill-rule="evenodd" clip-rule="evenodd" d="M272.378 190.543C286.329 192.552 287.504 193.458 288.239 198.802C288.784 202.771 285.202 205.763 271.633 205.284C256.576 204.752 258.491 201.22 257.727 195.671L218.313 195.66L225.493 176.165C229.472 184.153 244.748 186.318 260.434 188.536L272.378 190.543Z" fill="black"/>
</svg>
