<svg width="360" height="360" viewBox="0 0 360 360" fill="none" xmlns="http://www.w3.org/2000/svg">
<rect width="360" height="360" rx="82" fill="#115840"/>
<path d="M144.601 144.118L218.318 236.386H236.382L140.209 116.292H113.846V130.45H129.956V222.717H113.846V236.386H160.223V222.717H144.114V143.143L144.601 144.118Z" fill="white"/>
<path d="M250.537 116.292H204.16V130.45H220.269V184.638H234.427V130.45H250.537V116.292Z" fill="white"/>
<path d="M206.109 71.8678L206.598 71.3791C209.527 66.497 210.992 61.1261 210.992 55.2683C210.992 38.6706 197.323 25 180.723 25C164.124 25 150.455 38.6706 150.455 55.2683C150.455 61.128 151.919 66.497 154.848 71.3791L155.337 71.8678H97.2441V86.0236H173.401V132.403L187.559 149.978V86.0236H263.717V71.8678H206.109ZM180.723 71.8678C171.448 71.8678 164.124 64.5438 164.124 55.2683C164.124 45.9929 171.448 38.6706 180.723 38.6706C189.999 38.6706 197.321 45.9947 197.321 55.2683C196.834 64.5438 189.512 71.8678 180.723 71.8678Z" fill="white"/>
<path d="M280.317 197.333C277.875 218.811 269.088 239.317 253.955 255.425C236.868 273.976 213.435 285.205 188.049 287.156H187.56V223.693L173.403 206.117V287.156H172.914C147.53 285.205 124.095 273.976 107.008 255.425C91.875 239.315 83.0883 219.299 80.6463 197.333L66 184.638V187.078C66 208.071 71.8578 228.573 82.5995 246.637C93.3394 264.212 108.96 278.858 127.024 288.132L179.749 335L232.473 288.132C251.024 278.37 266.157 264.212 276.897 246.148C288.126 228.084 293.497 207.582 293.497 186.589V184.149L280.317 197.333ZM180.725 316.449L161.685 299.85H162.661C168.521 300.825 174.378 301.314 180.236 301.314C186.094 301.314 191.952 300.825 197.811 299.85H198.787L180.725 316.449Z" fill="white"/>
</svg>
