<svg width="360" height="360" viewBox="0 0 360 360" fill="none" xmlns="http://www.w3.org/2000/svg">
<rect width="360" height="360" rx="82" fill="#009A66"/>
<path d="M141.666 164.03H133.19V186.017C130.568 186.27 125.429 186.643 117.876 186.643C112.424 186.643 107.449 186.404 102.518 185.928C102.518 183.097 102.518 164.06 102.518 164.06H92.2246V193.599L93.61 193.942C93.9377 194.016 101.922 195.908 117.876 195.908C134.128 195.908 141.815 194.016 142.142 193.927L143.498 193.569V164.03H141.666Z" fill="white"/>
<path d="M156.069 166.011L154.684 166.354V193.614L156.099 193.942C156.441 194.016 164.53 195.849 180.067 195.908C195.604 195.968 203.618 194.076 203.901 194.001L205.316 193.674V184.14L203.052 184.706C202.978 184.706 194.889 186.687 179.844 186.687C172.395 186.687 167.539 186.33 164.947 186.062V173.951C169.957 173.467 174.989 173.238 180.022 173.266C187.782 173.117 195.535 173.781 203.156 175.247L205.421 175.783V173.459V166.339L204.05 165.996C203.722 165.922 195.783 164.03 180.112 164.03C164.441 164.03 156.397 165.937 156.069 166.011Z" fill="white"/>
<path d="M257.781 173.236L257.692 187.104C252.641 187.652 247.563 187.916 242.482 187.894C237.381 187.894 232.283 187.61 227.213 187.045V173.176C237.369 172.09 247.611 172.09 257.766 173.176L257.781 173.236ZM218.559 166.13L217.203 166.488V193.718L218.603 194.046C218.931 194.121 226.856 195.953 242.527 196.013C258.198 196.072 266.123 194.18 266.451 194.106L267.866 193.778V166.413L266.48 166.071C266.153 165.996 258.258 164.104 242.527 164.104C226.469 164.09 218.872 166.056 218.559 166.13Z" fill="white"/>
<path d="M70.6522 165.817C70.6522 165.817 70.6522 170.808 70.6522 174.055C65.9026 171.639 60.9089 169.737 55.7558 168.38C39.9806 164.164 32.1451 164.134 31.8174 164.134H30V196.117H40.353V174.368C44.7184 175.128 49.0396 176.122 53.2979 177.347C59.5353 179.065 65.4169 181.879 70.6671 185.659C70.6671 187.149 70.6671 195.595 70.6671 195.595H81.2287V164H70.6522V165.817Z" fill="white"/>
<path d="M280.096 166.562L279.068 166.816V195.357H288.498C288.498 195.357 288.498 187.909 288.498 185.972C293.719 185.899 298.934 186.353 304.064 187.328C309.419 188.251 314.631 189.863 319.572 192.124C319.572 193.003 319.572 195.878 319.572 195.878H329.999V188.43L329.403 188.028C326.516 186.245 323.438 184.791 320.227 183.693C322.979 183.449 325.715 183.046 328.42 182.487L329.478 182.233V166.816L328.45 166.562C328.107 166.473 320.048 164.477 304.318 164.477C288.587 164.477 280.439 166.473 280.096 166.562ZM319.989 178.196C314.952 178.91 309.866 179.223 304.78 179.135L288.915 178.316V173.43C294.199 172.804 299.519 172.53 304.839 172.61C309.91 172.526 314.979 172.83 320.004 173.519L319.989 178.196Z" fill="white"/>
</svg>
