<svg width="360" height="360" viewBox="0 0 360 360" fill="none" xmlns="http://www.w3.org/2000/svg">
<rect width="360" height="360" rx="82" fill="#77B900"/>
<path d="M65.7685 167.634C65.7685 167.634 89.457 132.683 136.755 129.068V116.387C84.3665 120.595 39 164.966 39 164.966C39 164.966 64.6948 239.245 136.755 246.046V232.568C83.8739 225.915 65.7685 167.634 65.7685 167.634ZM136.755 205.764V218.107C96.7887 210.982 85.6949 169.436 85.6949 169.436C85.6949 169.436 104.884 148.178 136.755 144.731V158.275C136.731 158.275 136.714 158.268 136.694 158.268C119.967 156.26 106.899 171.887 106.899 171.887C106.899 171.887 114.223 198.193 136.755 205.764ZM136.755 93V116.387C138.293 116.27 139.831 116.17 141.377 116.117C200.938 114.11 239.745 164.966 239.745 164.966C239.745 164.966 195.173 219.164 148.737 219.164C144.481 219.164 140.497 218.769 136.755 218.106V232.568C139.955 232.974 143.273 233.213 146.735 233.213C189.947 233.213 221.197 211.145 251.456 185.026C256.472 189.044 277.012 198.818 281.234 203.097C252.463 227.185 185.411 246.602 147.397 246.602C143.733 246.602 140.214 246.38 136.755 246.046V266.368H301V93H136.755ZM136.755 144.731V129.069C138.277 128.962 139.811 128.88 141.377 128.831C184.207 127.485 212.306 165.636 212.306 165.636C212.306 165.636 181.956 207.787 149.415 207.787C144.732 207.787 140.533 207.034 136.754 205.764V158.275C153.428 160.29 156.784 167.655 166.808 184.366L189.103 165.567C189.103 165.567 172.828 144.222 145.393 144.222C142.411 144.221 139.557 144.431 136.755 144.731Z" fill="black"/>
</svg>
