<svg width="360" height="360" viewBox="0 0 360 360" fill="none" xmlns="http://www.w3.org/2000/svg">
<rect width="360" height="360" rx="82" fill="#696057"/>
<path d="M265.82 141.308L179.641 85.0273L93.608 141.454C90.6767 143.36 86.866 142.48 84.9607 139.696L82.7622 136.325C80.8569 133.393 81.7363 129.583 84.521 127.677L175.097 68.3191C177.882 66.5603 181.399 66.5603 184.184 68.3191L274.907 127.531C277.838 129.436 278.571 133.247 276.666 136.178L274.467 139.549C272.562 142.48 268.751 143.213 265.82 141.308Z" fill="#288DC1"/>
<path d="M264.487 163.585C249.098 163.585 235.761 169.447 226.088 180.293C217.001 190.552 212.018 204.623 212.018 219.719V221.624C212.164 236.72 217.294 250.497 226.381 260.463C235.907 271.016 249.098 276.732 264.487 276.732C280.902 276.732 293.507 270.723 301.568 266.326C303.327 265.3 304.646 263.688 305.085 261.636C305.525 259.584 305.085 257.532 303.913 255.773L302.301 253.575C300.249 250.643 296.292 249.764 293.214 251.376C292.481 251.816 291.748 252.109 291.015 252.549C285.153 255.627 277.971 259.584 266.539 259.584C243.822 259.584 231.217 241.263 231.217 228.512L231.071 227.486C231.071 226.607 231.364 225.874 231.95 225.288C232.536 224.702 233.123 224.409 233.856 224.409H307.43C310.069 224.409 312.12 222.357 312.414 219.719C312.707 217.813 313 214.296 313 212.537C313 198.907 308.163 186.449 299.369 177.508C290.283 168.568 277.971 163.585 264.487 163.585ZM231.511 206.528C234.735 191.139 248.219 180.293 264.487 180.293C271.669 180.293 278.704 183.078 284.127 188.207C289.403 193.044 292.921 199.639 293.947 206.674C294.093 207.261 293.8 207.993 293.36 208.433C292.921 208.873 292.334 209.166 291.602 209.166H233.709C232.976 209.166 232.39 208.873 231.95 208.287C231.511 207.847 231.364 207.114 231.511 206.528Z" fill="white"/>
<path d="M189.887 163.732H185.637C182.559 163.732 179.921 165.784 179.041 168.715L159.255 240.238L129.796 168.715C128.77 166.224 126.278 164.465 123.494 164.465H119.243C116.459 164.465 113.967 166.077 112.941 168.715L83.4819 240.238L63.6958 168.862C62.8164 165.93 60.1783 163.878 57.1005 163.878H52.8501C50.6517 163.878 48.7464 164.904 47.4273 166.517C46.1082 168.275 45.6685 170.327 46.2548 172.379L73.6622 271.456C74.5415 274.387 77.1797 276.439 80.2575 276.439H82.7491C85.5338 276.439 88.0254 274.827 89.0513 272.189L121.295 193.777L153.539 272.042C154.565 274.534 157.057 276.293 159.842 276.293H162.333C165.411 276.293 168.049 274.241 168.928 271.31L196.336 172.233C196.922 170.181 196.482 167.982 195.163 166.37C193.991 164.758 191.939 163.732 189.887 163.732Z" fill="white"/>
</svg>
