<svg width="360" height="360" viewBox="0 0 360 360" fill="none" xmlns="http://www.w3.org/2000/svg">
<rect width="360" height="360" rx="82" fill="#100F0D"/>
<path d="M227.246 187.326C226.381 187.326 226.037 186.328 227.023 185.193C230.176 182.952 231.416 182.261 231.587 182.176C233.619 182.176 229.726 187.326 227.246 187.326ZM330.772 176.066C330.591 175.913 330.41 175.794 330.229 175.69C330.188 175.659 330.151 175.628 330.101 175.596C328.519 174.578 326.789 175.031 326.789 175.031C326.789 175.031 327.115 175.623 325.506 176.936C325.406 177.018 325.333 177.089 325.273 177.155C325.226 177.193 325.181 177.23 325.135 177.268C319.279 182.036 311.47 185.817 303.33 187.412C305.963 185.865 312.2 179.974 307.866 176.796C305.34 174.943 300.861 175.757 296.634 177.878C297.124 177.089 298.286 175.406 297.818 173.385C297.349 171.364 293.478 170.778 291.329 171.541C291.257 173.631 290.923 174.743 290.558 175.202C281.08 183.536 268.677 187.963 267.662 186.95C266.836 186.125 269.611 182.877 270.532 181.581C271.3 180.498 271.321 179.183 270.776 178.191C269.924 176.642 268.331 176.551 265.392 177.193C261.327 177.885 258.443 176.432 256.014 172.734C254.822 170.921 251.925 171.285 250.435 172.277C250.806 173.448 250.706 174.633 250.354 175.832C247.859 181.609 240.33 181.649 237.482 179.688C237.077 178.479 236.008 176.245 233.858 175.918C227.212 174.903 224.928 178.976 223.839 180.216C221.478 182.908 205.496 189.895 201.761 186.863C199.011 184.632 201.323 176.515 206.57 168.386C214.35 156.113 217.875 156.257 219.119 157.499C219.887 158.266 220.64 159.968 219.076 162.976C218.963 163.193 218.852 163.395 218.74 163.594C216.053 168 215.006 167.775 215.006 167.775C214.128 170.422 215.251 171.865 216.082 172.529C216.98 173.413 218.271 173.111 218.666 172.976C219.984 172.524 220.799 171.37 221.555 170.2C225.316 164.374 227.661 155.112 221.499 151.763C217.089 149.366 209.664 152.603 201.447 165.899C194.15 177.71 192.086 187.01 197.348 191.418C203.753 196.783 217.216 189.704 221.645 187.656C221.521 188.551 221.869 193.037 226.318 192.785C232.012 192.451 235.534 187.55 237.048 185.049C239.267 186.332 248.987 188.173 254.884 179.327C255.519 179.863 259.07 182.442 263.804 182.442C262.129 185.503 259.976 189.175 263.16 191.693C267.624 195.222 282.923 186.723 287.379 184.104C284.847 188.705 280.442 199.111 275.996 208.339C274.167 212.138 271.616 217.245 274.301 218.603C276.388 219.658 279.52 218.569 279.993 215.835C280.61 212.259 284.068 202.284 286.522 196.885C291.184 186.53 295.377 181.166 302.457 181.166C302.018 182.01 301.885 182.673 299.532 185.021C296.967 187.582 294.101 187.435 294.247 190.198C294.333 191.825 296.003 192.283 296.468 192.409C300.161 193.404 310.385 190.371 314.446 188.888C319.116 187.183 325.468 184.065 330.167 181.074C332.385 179.661 332.595 177.604 330.772 176.066ZM171.169 165.663C167.237 165.954 162.48 167.257 160.716 171.2C159.256 174.461 160.406 177.898 163.47 181.757C165.435 184.152 167.233 186.193 167.744 186.748C166.331 187.046 163.252 186.938 160.162 186.374C160.15 186.371 160.136 186.369 160.123 186.366C159.418 186.236 158.713 186.08 158.027 185.902C156.282 185.352 155.803 184.65 155.803 184.65L155.548 184.836C155.548 184.829 155.548 184.825 155.548 184.825L155.803 184.65C154.622 184.812 153.64 185.632 152.944 186.537C152.247 187.442 151.531 189.193 152.138 190.034C152.656 190.75 153.683 191.143 155.639 191.209C158.662 191.352 166.807 192.428 169.817 192.764C172.141 193.023 173.704 191.34 174.16 190.232C174.776 188.755 174.142 187.127 173.362 186.227C169.497 181.768 164.084 176.897 166.048 172.826C166.948 170.959 171.296 171.335 172.731 171.761C175.794 172.672 177.314 171.564 178.011 169.514C178.459 168.196 177.658 165.184 171.169 165.663ZM91.5175 170.796C92.0672 171.345 90.8939 172.581 89.8608 173.252C87.0264 175.09 84.1721 176.155 82.1359 176.907C84.3459 172.387 90.7443 169.721 91.5175 170.796ZM157.193 180.663C158.738 179.799 159.356 178.012 158.12 176.531C156.884 175.052 154.439 175.175 153.349 175.834C152.437 176.383 151.378 177.332 148.232 177.495C145.27 177.647 144.08 176.378 142.208 176.378C140.116 176.378 139.272 177.844 136.681 181.067C135.361 182.708 132.395 186.483 131.038 186.483C129.887 186.483 129.449 183.175 129.449 178.874C129.449 176.92 128.586 175.335 126.359 175.483C124.505 175.606 124.196 178.012 123.227 179.141C120.325 182.518 117.991 185.818 116.806 185.818C115.345 185.818 114.782 182.629 114.782 180.169C114.782 180.169 115.237 176.285 111.715 175.606C110.183 175.312 108.591 176.16 108.591 176.16C108.737 176.454 108.78 176.758 108.752 177.061C108.305 178.69 105.244 181.015 105.244 181.015H105.244C101.969 183.413 95.4298 187.628 89.5326 187.941C82.6435 188.306 81.4375 184.691 81.1968 183.111C87.1339 180.935 91.0925 178.452 93.6527 176.47C96.3703 174.367 98.1645 172.037 98.0065 169.755C97.7914 166.668 94.9856 165.551 92.7607 165.551C87.9719 165.551 80.0235 167.613 76.2009 178.098C75.3786 178.363 73.4278 178.376 72.3876 178.106C71.0007 177.745 71.0227 177.153 71.0227 177.153C69.7241 177.487 69.1638 178.122 68.7074 179.245C67.9762 181.043 68.9423 182.592 70.4268 183.415C71.5012 184.012 73.2007 184.39 75.6 184.108C75.9375 187.286 78.0506 193.085 89.3297 192.647C98.2877 192.299 108.774 184.941 109.715 184.366C110.113 186.202 111.377 192.788 115.186 192.788C119.76 192.788 124.451 185.971 124.451 185.971C124.451 185.971 125.644 192.833 130.242 192.833C134.076 192.833 138.889 186.871 140.09 185.451C141.089 184.269 143.028 181.998 144.088 181.998C145.125 181.822 147.181 183.195 153.072 182.021C153.204 181.995 155.866 181.404 157.193 180.663ZM84.1686 147.568C84.5808 146.48 84.2234 145.157 83.5477 144.651C81.3029 142.97 79.2659 143.908 77.743 145.573C75.9567 147.528 73.6364 151.766 72.6546 153.35C63.6353 167.901 56.7598 183.452 56.7598 183.452C56.7598 183.452 54.3726 176.21 54.0422 170.457C53.7304 165.032 53.4826 159.854 53.2498 157.318C53.1743 156.303 52.745 154.714 50.9672 154.133C49.5967 153.685 47.5989 153.51 46.1984 154.027C46.0859 155.759 46.0119 156.596 45.2892 158.644C44.568 160.69 39.9181 169.722 39.1278 171.127C35.0838 178.316 29.7498 187.258 29.4393 187.834C28.35 189.847 26.8399 192.592 29.4286 193.562C32.0167 194.533 34.2857 194.015 35.4035 192.362C35.6192 192.044 35.9154 191.449 35.9154 191.449C35.9154 191.449 35.1643 190.831 36.7748 187.079C37.2532 186.088 37.8242 184.933 38.4628 183.659C38.5867 183.432 38.7156 183.2 38.8494 182.96C39.0424 182.617 39.1777 182.315 39.2809 182.038C41.9366 176.802 45.4736 170.052 48.6298 164.132C48.6056 167.578 48.8954 171.841 49.3681 174.938C50.0886 180.978 51.5717 183.526 52.1242 188.344C52.0138 191.599 52.3363 192.161 54.7129 192.816C56.935 193.429 58.23 192.815 59.0645 190.765C62.274 182.676 71.5005 164.097 79.3371 154.017C80.1566 152.963 83.2694 149.936 84.1686 147.568Z" fill="white"/>
</svg>
