<svg width="360" height="360" viewBox="0 0 360 360" fill="none" xmlns="http://www.w3.org/2000/svg">
<rect width="360" height="360" rx="82" fill="#0097D5"/>
<path fill-rule="evenodd" clip-rule="evenodd" d="M164.194 39.8319L186.586 39.6907L175.901 28.1256L164.194 39.8319ZM142.677 61.203L189.366 61.0564L164.927 47.7374L154.975 48.6171L142.677 61.203ZM136.422 68.6742L125.405 79.3489H190.979L160.953 68.6742H136.422ZM116.772 88.2806L104.772 99.8457H190.832L153.216 85.935L116.772 88.2806ZM96.4269 107.892L84.8618 119.599H191.565L147.509 106.432L96.4269 107.892ZM75.6423 128.384L64.3703 140.096H190.686L139.902 126.185L75.6423 128.384ZM56.91 147.996L45.9313 158.975H188.639L137.85 145.802L56.91 147.996ZM34.0784 170.686L25 180.194H188.639L136.53 166.587L34.0784 170.686ZM33.6386 190.445L43.2979 199.224H188.34L138.289 186.052L33.6386 190.445ZM54.13 210.198L62.6166 218.983H185.56L141.363 207.271L54.13 210.198ZM73.4487 230.689L83.6944 240.202H187.612L142.677 227.03L73.4487 230.689ZM91.8932 248.249L101.406 258.494H186.879L146.336 246.788L91.8932 248.249ZM110.479 266.552L122.625 279.724H184.539L151.462 267.285L110.479 266.552ZM129.358 285.578L141.65 298.017L181.759 298.169L155.116 285.578H129.358ZM149.556 306.069L160.681 317.775H177.508L162.435 306.069H149.556ZM167.854 323.927L180 336.068V323.628L167.854 323.927ZM180.733 28.712H186.586L180.733 23V28.712ZM189.513 41.1513L194.638 47.7374H206.051L200.052 41.1513H189.513ZM192.298 61.7894L202.392 66.1765H224.056L219.517 61.6428L192.298 61.7894ZM196.691 79.7887L210.591 85.7938L241.616 84.1812L236.789 79.3489L196.691 79.7887ZM197.418 100.573L213.81 107.013L263.28 105.699L258.16 100.427L197.418 100.573ZM197.418 120.185L221.276 127.211L283.185 126.038L276.745 120.185H197.418ZM198.151 140.677L224.643 147.996L302.362 145.802L296.797 139.944L198.151 140.677ZM196.691 159.702L226.543 167.754L322.848 165.561L316.849 159.702H196.691ZM197.418 179.466L228.736 187.518L330.314 184.293L335 179.466H197.418ZM197.418 199.224L221.716 207.271L309.969 204.345L315.242 199.224H197.418ZM194.492 218.983L221.716 226.297L291.09 223.37L296.65 218.983H194.492ZM194.638 239.616L215.13 246.055L271.185 243.862L275.573 239.469L194.638 239.616ZM194.492 259.955L209.418 265.824L249.82 265.081L254.354 260.699L194.492 259.955ZM192.298 279.724L207.811 285.578H229.323L234.742 280.012L192.298 279.724ZM187.173 298.75L200.491 304.603H211.177L216.737 298.75H187.173ZM184.393 319.236L190.979 325.094L197.125 319.535L184.393 319.236Z" fill="white"/>
</svg>
