<svg width="360" height="360" viewBox="0 0 360 360" fill="none" xmlns="http://www.w3.org/2000/svg">
<rect width="360" height="360" rx="82" fill="#009D57"/>
<path d="M187.329 321.288C189.829 319.34 192.056 317.165 194.191 314.899C192.601 317.527 190.42 319.702 187.329 321.288ZM184.966 91.3023C184.648 87.6776 184.148 84.0982 183.512 80.5189C184.148 80.9267 184.83 81.3344 185.466 81.7422C185.375 84.9138 185.194 88.1307 184.966 91.3023ZM315.071 143.905C315.071 120.164 295.031 100.908 270.355 100.908C260.176 100.908 250.814 104.215 243.271 109.743C245.497 104.804 247.179 99.7297 247.679 94.338C251.041 88.312 252.95 81.4251 252.95 74.0851C252.95 50.3435 232.955 31.0874 208.279 31.0874C196.191 31.0874 185.284 35.7089 177.241 43.1848C169.107 35.0745 157.7 30 145.021 30C120.346 30 100.35 49.2108 100.35 72.9524C100.35 85.5934 106.031 96.9206 115.074 104.804C115.892 106.435 116.755 108.112 117.664 109.698C117.392 109.743 117.119 109.743 116.846 109.788C109.303 104.215 99.9413 100.908 89.7165 100.908C64.9952 100.908 45 120.164 45 143.905C45 156.32 50.5441 167.511 59.3147 175.349C51.862 183.052 47.2722 193.337 47.2722 204.664C47.2722 223.422 59.7692 239.325 77.1741 245.215C77.9012 245.849 78.5828 246.484 79.4008 247.027C88.2623 253.552 100.169 254.322 109.939 249.565C115.301 249.338 120.527 247.299 124.663 243.312C124.754 243.221 124.844 243.131 124.935 243.04C128.798 241.908 132.434 240.095 135.796 237.467C135.024 238.011 134.297 238.509 133.524 239.053C137.205 237.694 140.386 235.61 143.295 233.208C149.293 231.894 155.473 231.079 161.199 228.813C160.336 229.176 159.518 229.448 158.655 229.81C162.017 229.629 165.426 229.674 168.834 229.402C169.016 242.089 169.288 254.775 168.379 267.507C168.198 270.225 167.107 272.853 166.425 275.617C166.516 275.119 166.607 274.665 166.698 274.167C164.199 279.604 161.972 285.086 159.154 290.342C159.882 289.572 160.79 288.938 161.699 288.303C160.699 289.119 159.791 290.025 158.882 290.931C158.427 291.701 158.064 292.472 157.609 293.242C157.746 292.472 158.064 291.837 158.473 291.248C155.019 294.737 152.202 298.815 150.747 304.025C150.747 303.572 150.747 303.119 150.747 302.666C145.34 313.948 150.066 327.359 161.29 332.796C172.56 338.143 186.057 333.431 191.465 322.239C191.828 321.605 192.146 320.925 192.51 320.246C203.689 308.239 209.233 291.747 212.369 275.39C215.232 260.665 214.278 246.529 213.914 232.257C231.183 244.173 251.36 246.438 271.4 245.26C272.173 245.215 272.945 245.26 273.718 245.215H274.899C283.034 245.215 290.168 240.82 294.122 234.25C306.71 226.639 315.071 213.227 315.071 197.913C315.071 187.673 311.345 178.294 305.119 170.909C311.345 163.524 315.071 154.145 315.071 143.905Z" fill="white"/>
</svg>
