<svg width="360" height="360" viewBox="0 0 360 360" fill="none" xmlns="http://www.w3.org/2000/svg">
<rect width="360" height="360" rx="82" fill="#005BAB"/>
<path fill-rule="evenodd" clip-rule="evenodd" d="M122.519 236.834C138.757 265.62 169.757 294.403 222.158 295.877C258.325 295.877 287.847 281.117 309.991 254.548C313.682 249.382 318.109 242.738 320.322 237.573H323.277C299.361 294.825 244.849 334.29 183.494 335H180.09C153.519 334.259 129.163 329.093 105.544 315.808C105.544 315.808 59.0478 294.404 36.9053 237.573H123.258L122.519 236.834Z" fill="white"/>
<path d="M180.09 334.998C153.519 334.257 129.163 329.092 105.544 315.806C105.544 315.806 59.0478 294.403 36.9053 237.571H123.258M122.519 236.834C138.757 265.62 169.757 294.403 222.158 295.877C258.325 295.877 287.847 281.117 309.991 254.548C313.682 249.382 318.109 242.738 320.322 237.573H323.277C299.361 294.825 244.849 334.29 183.494 335L122.519 236.834Z" stroke="#F1EED3" stroke-width="0.0016" stroke-miterlimit="2.6131" stroke-linecap="square"/>
<path fill-rule="evenodd" clip-rule="evenodd" d="M166.067 146.052C171.972 154.907 176.401 160.814 180.09 166.718C184.519 160.076 187.469 155.648 194.115 146.052C204.448 146.052 216.996 146.052 227.327 146.052C217.733 158.599 208.137 171.884 201.495 180.004C210.352 191.811 218.47 202.884 227.327 213.956H193.376C188.947 207.312 185.258 201.407 180.09 194.027C176.401 199.929 170.496 208.049 166.067 213.956C154.997 213.956 142.449 213.956 132.854 213.956C140.973 202.884 149.83 191.072 158.687 180.004C150.569 169.671 140.235 157.122 132.854 146.052C142.449 146.052 151.306 146.052 166.067 146.052Z" fill="#ED1B2F"/>
<path d="M166.067 146.052C171.972 154.907 176.401 160.814 180.09 166.718C184.519 160.076 187.469 155.648 194.115 146.052C204.448 146.052 216.996 146.052 227.327 146.052C217.733 158.599 208.137 171.884 201.495 180.004C210.352 191.811 218.47 202.884 227.327 213.956H193.376C188.947 207.312 185.258 201.407 180.09 194.027C176.401 199.929 170.496 208.049 166.067 213.956C154.997 213.956 142.449 213.956 132.854 213.956C140.973 202.884 149.83 191.072 158.687 180.004C150.569 169.671 140.235 157.122 132.854 146.052C142.449 146.052 151.306 146.052 166.067 146.052Z" stroke="#F1EED3" stroke-width="0.0016" stroke-miterlimit="2.6131" stroke-linecap="square"/>
<path fill-rule="evenodd" clip-rule="evenodd" d="M282.679 165.979C287.846 159.336 293.014 152.694 298.179 146.052C308.513 146.052 320.32 146.052 329.916 146.052C316.629 163.027 301.869 181.48 296.702 188.12V213.956H267.917V188.12C262.014 180.004 241.346 154.17 235.441 146.052H267.176L282.679 165.979Z" fill="#ED1B2F"/>
<path d="M282.679 165.979C287.846 159.336 293.014 152.694 298.179 146.052C308.513 146.052 320.32 146.052 329.916 146.052C316.629 163.027 301.869 181.48 296.702 188.12V213.956H267.917V188.12C262.014 180.004 241.346 154.17 235.441 146.052H267.176L282.679 165.979Z" stroke="#F1EED3" stroke-width="0.0016" stroke-miterlimit="2.6131" stroke-linecap="square"/>
<path fill-rule="evenodd" clip-rule="evenodd" d="M236.92 123.171C221.421 95.1253 190.423 66.3391 138.02 64.1257C101.118 64.1257 72.3333 79.6246 50.189 105.458C46.4977 110.626 42.071 117.268 39.1186 122.433H36.9053C60.88 65.0373 115.612 25.526 177.157 25.0081C178.134 24.9992 179.11 24.9956 180.088 25.0081C206.659 26.4825 231.015 31.65 254.634 44.1965C254.634 44.1965 300.393 65.6001 323.275 122.432H236.183L236.92 123.171Z" fill="white"/>
<path d="M236.92 123.171C221.421 95.1253 190.423 66.3391 138.02 64.1257C101.118 64.1257 72.3333 79.6246 50.189 105.458C46.4977 110.626 42.071 117.268 39.1186 122.433H36.9053C60.88 65.0373 115.612 25.526 177.157 25.0081C178.134 24.9992 179.11 24.9956 180.088 25.0081C206.659 26.4825 231.015 31.65 254.634 44.1965C254.634 44.1965 300.393 65.6001 323.275 122.432H236.183" stroke="#F1EED3" stroke-width="0.0016" stroke-miterlimit="2.6131" stroke-linecap="square"/>
<path fill-rule="evenodd" clip-rule="evenodd" d="M104.807 213.956H49.4512C36.9047 213.956 31 205.095 31 198.455C31 180.004 31 173.36 31 160.814C33.2134 149.742 42.8094 146.052 49.4512 146.052H104.808C122.521 145.313 122.521 160.814 122.521 160.814C122.521 169.671 122.521 182.217 122.521 198.455C122.519 198.455 123.997 213.956 104.807 213.956ZM59.7844 180.002C59.7844 182.953 59.7844 181.478 59.7844 186.644C59.7844 186.644 59.7844 194.025 67.1652 194.025C70.8548 194.025 74.5461 194.025 77.4966 194.025C81.9251 194.025 84.1403 194.025 87.8298 194.025C92.9973 194.025 94.4735 191.81 94.4735 186.644C94.4735 182.216 95.2106 174.837 95.2106 173.359C94.4735 168.93 91.5211 165.98 87.8316 165.98C74.5479 165.98 87.8316 165.98 77.4984 165.98C74.5479 165.98 70.8566 165.98 67.167 165.98C59.7862 165.241 59.7862 172.621 59.7862 172.621C59.7844 177.787 59.7844 178.526 59.7844 180.002Z" fill="#ED1B2F"/>
<path fill-rule="evenodd" clip-rule="evenodd" d="M104.807 213.956H49.4512C36.9047 213.956 31 205.095 31 198.455C31 180.004 31 173.36 31 160.814C33.2134 149.742 42.8094 146.052 49.4512 146.052H104.808C122.521 145.313 122.521 160.814 122.521 160.814C122.521 169.671 122.521 182.217 122.521 198.455C122.519 198.455 123.997 213.956 104.807 213.956ZM59.7844 180.002C59.7844 182.953 59.7844 181.478 59.7844 186.644C59.7844 186.644 59.7844 194.025 67.1652 194.025C70.8548 194.025 74.5461 194.025 77.4966 194.025C81.9251 194.025 84.1403 194.025 87.8298 194.025C92.9973 194.025 94.4735 191.81 94.4735 186.644C94.4735 182.216 95.2106 174.837 95.2106 173.359C95.2106 168.93 91.5211 165.98 87.8316 165.98C74.5479 165.98 87.8316 165.98 77.4984 165.98C74.5479 165.98 70.8566 165.98 67.167 165.98C59.7862 165.241 59.7862 172.621 59.7862 172.621C59.7844 177.787 59.7844 178.526 59.7844 180.002Z" fill="#ED1B2F"/>
<path d="M104.807 213.956H49.4512C36.9047 213.956 31 205.095 31 198.455C31 180.004 31 173.36 31 160.814C33.2134 149.742 42.8094 146.052 49.4512 146.052H104.808C122.521 145.313 122.521 160.814 122.521 160.814C122.521 169.671 122.521 182.217 122.521 198.455C122.519 198.455 123.997 213.956 104.807 213.956ZM59.7844 180.002C59.7844 182.953 59.7844 181.478 59.7844 186.644C59.7844 186.644 59.7844 194.025 67.1652 194.025C70.8548 194.025 74.5461 194.025 77.4966 194.025C81.9251 194.025 84.1403 194.025 87.8298 194.025C92.9973 194.025 94.4735 191.81 94.4735 186.644C94.4735 182.216 95.2106 174.837 95.2106 173.359C95.2106 168.93 91.5211 165.98 87.8316 165.98C74.5479 165.98 87.8316 165.98 77.4984 165.98C74.5479 165.98 70.8566 165.98 67.167 165.98C59.7862 165.241 59.7862 172.621 59.7862 172.621C59.7844 177.787 59.7844 178.526 59.7844 180.002Z" stroke="#F1EED3" stroke-width="0.0016" stroke-miterlimit="2.6131" stroke-linecap="square"/>
</svg>
