<svg width="360" height="360" viewBox="0 0 360 360" fill="none" xmlns="http://www.w3.org/2000/svg">
<rect width="360" height="360" rx="82" fill="#004B8D"/>
<path d="M69.5492 156.417H78.7801C84.3844 156.417 90.6482 157.407 90.6482 164.329C90.6482 170.264 87.0218 174.22 76.1427 174.22H65.923L69.5492 156.417ZM29 222.022H55.7031L61.3075 195.318H79.4392C102.516 195.318 117.351 180.154 117.351 162.351C117.351 142.901 106.802 134 90.6482 134H47.4616L29 222.022Z" fill="white"/>
<path d="M150.317 164L153.614 190.373H136.801L150.317 164ZM92.625 222.022H120.317L127.24 209.494H155.922L157.24 222.022H183.943L169.768 134H143.064L92.625 222.022Z" fill="white"/>
<path d="M175.705 134H202.738L211.309 166.637L232.738 134H264.386L221.529 189.384L214.936 222.022H187.903L194.496 189.714L175.705 134Z" fill="white"/>
<path d="M297.023 134H329.001L292.078 175.538L313.507 222.022H283.177L273.617 197.297L253.177 222.022H220.209L227.463 213.78L261.419 174.879L242.298 135.978L241.288 134H241.639H270.98L279.551 156.747L297.023 134Z" fill="white"/>
</svg>
