<svg width="360" height="360" viewBox="0 0 360 360" fill="none" xmlns="http://www.w3.org/2000/svg">
<rect width="360" height="360" rx="82" fill="#9D2235"/>
<path d="M324.439 153.656C326.708 152.695 328.484 151.13 329.513 149.359C330.541 147.589 330.836 145.581 330.063 143.792C329.3 141.993 327.641 140.819 325.648 140.34C323.656 139.861 321.298 140.064 319.039 141.035C316.781 142.005 315.01 143.565 313.981 145.331C312.952 147.097 312.653 149.1 313.415 150.898C314.179 152.697 315.838 153.871 317.831 154.35C319.822 154.829 322.18 154.627 324.439 153.656ZM324.439 153.656C324.439 153.656 324.438 153.657 324.438 153.657L324.243 153.196L324.44 153.656C324.44 153.656 324.439 153.656 324.439 153.656ZM311.125 142.383L311.515 142.96L311.937 142.405C313.316 140.591 315.287 139.016 317.74 137.989L317.743 137.988C320.965 136.615 324.261 136.433 327.025 137.261L328.092 137.58L327.622 136.57C324.643 130.181 318.482 124.916 309.868 120.836C301.25 116.753 290.131 113.833 277.154 112.16C251.198 108.813 217.733 110.444 181.79 117.816L181.891 118.305L181.79 117.816C141.311 126.124 106.452 139.716 83.5656 155.046C83.4966 155.081 83.4178 155.141 83.3606 155.24C83.2899 155.362 83.2871 155.483 83.2983 155.562C83.3164 155.688 83.3788 155.772 83.3907 155.788L83.3917 155.789C83.4127 155.818 83.4323 155.838 83.4416 155.847L83.7323 156.138L83.823 156.077L83.9066 156.125L84.1512 155.992C105.872 144.221 137.041 133.593 168.835 127.101C203.57 120.02 235.408 118.269 260.447 121.092C272.967 122.503 283.773 125.057 292.386 128.649C301.003 132.243 307.39 136.862 311.125 142.383ZM274.843 196.633L274.822 196.591L274.369 196.836C252.73 208.518 223.656 220.144 192.25 226.927L192.25 226.927C154.482 235.097 118.107 237.435 90.9849 234.165C77.4199 232.529 66.206 229.494 58.2935 225.112C50.3843 220.732 45.8455 215.051 45.4371 208.125C45.2061 204.081 46.2939 199.81 48.7655 197.356L49.9263 196.204L48.3197 196.51C46.324 196.891 43.6534 196.894 41.0867 196.617C38.5146 196.34 36.1143 195.788 34.6465 195.096L34.2636 194.916L34.0224 195.264C30.1791 200.809 28.6513 208.155 29.9587 214.209L29.9588 214.209C31.6182 221.878 37.0761 228.099 45.4264 232.857C53.7735 237.613 65.0513 240.934 78.4568 242.799C105.271 246.53 140.715 244.455 178.56 236.269C217.784 227.784 252.001 213.135 274.877 197.815C275.049 197.734 275.117 197.585 275.139 197.519C275.164 197.443 275.165 197.38 275.165 197.355V196.418L274.843 196.633Z" fill="white" stroke="white"/>
</svg>
