<svg width="360" height="360" viewBox="0 0 360 360" fill="none" xmlns="http://www.w3.org/2000/svg">
<rect width="360" height="360" rx="82" fill="black"/>
<path d="M63.7552 180.374V155.512H74.9506C81.5307 155.512 86.868 161.081 86.868 167.94C86.868 174.811 81.5307 180.374 74.9506 180.374H63.7552ZM33 131.613V228.139H63.7603V204.757L83.5573 204.741C102.911 204.741 118.603 188.369 118.603 168.177C118.603 147.98 102.911 131.613 83.5573 131.613H33Z" fill="white"/>
<path d="M270.68 131.616L240.141 189.378C236.944 195.625 230.632 199.875 223.376 199.875C212.892 199.875 204.389 191.003 204.389 180.06C204.389 169.122 212.892 160.25 223.376 160.25C231.503 160.25 238.439 165.582 241.147 173.071L257.437 142.183C248.536 133.467 236.552 128.119 223.376 128.119C207.426 128.119 193.23 135.947 184.117 148.117C182.483 150.307 181.008 152.631 179.719 155.074L166.538 180.06L161.623 189.378C158.426 195.625 152.119 199.875 144.864 199.875C134.375 199.875 125.871 191.003 125.871 180.06C125.871 169.122 134.375 160.25 144.864 160.25C152.991 160.25 159.922 165.582 162.629 173.071L178.925 142.188C170.019 133.467 158.039 128.119 144.864 128.119C117.368 128.119 95.0801 151.372 95.0801 180.06C95.0801 208.747 117.368 232 144.864 232C160.809 232 175.005 224.177 184.117 212.002C193.23 224.177 207.426 232 223.376 232C242.4 232 258.927 220.868 267.307 204.507H295.716V228.142H326.002V131.616H270.68ZM296.015 180.377H279.781L296.015 149.672V180.377Z" fill="white"/>
</svg>
