<svg width="360" height="360" viewBox="0 0 360 360" fill="none" xmlns="http://www.w3.org/2000/svg">
<rect width="360" height="360" rx="82" fill="#242139"/>
<path fill-rule="evenodd" clip-rule="evenodd" d="M29 148.113C29 104.762 63.7612 70.0005 106.703 70.0005C116.971 69.9648 127.144 71.9609 136.637 75.8738C146.131 79.7867 154.756 85.539 162.017 92.7996C169.277 100.06 175.03 108.685 178.943 118.178C182.856 127.672 184.853 137.845 184.817 148.113C184.817 191.058 150.052 225.819 106.703 225.819C63.7612 225.818 29 191.056 29 148.113Z" fill="white"/>
<path fill-rule="evenodd" clip-rule="evenodd" d="M173.776 204.961C173.776 162.018 208.948 126.847 251.889 126.847C294.831 126.847 330 162.018 330 204.961C330 247.903 294.831 283.076 251.889 283.076C208.948 282.664 173.776 247.903 173.776 204.961Z" fill="white"/>
</svg>
