<svg width="360" height="360" viewBox="0 0 360 360" fill="none" xmlns="http://www.w3.org/2000/svg">
<rect width="360" height="360" rx="82" fill="url(#paint0_angular)"/>
<circle cx="180" cy="180" r="155.455" fill="#4681C7" fill-opacity="0.06"/>
<circle cx="180" cy="180" r="155.205" stroke="#2869BF" stroke-opacity="0.04" stroke-width="0.5"/>
<path fill-rule="evenodd" clip-rule="evenodd" d="M179.639 25C130.859 25 73.6611 64.7268 73.6611 101.041C73.6611 115.088 85.0484 126.954 108.616 126.954C163.328 126.954 214.158 84.5383 214.158 51.5559C214.158 34.2002 199.387 25 179.639 25ZM199.114 50.5308C199.114 78.3324 151.802 112.317 112.253 112.317C94.7797 112.317 85.3388 104.557 85.3388 91.7531C85.3388 63.5524 133.188 30.1451 170.285 30.1451C194.471 30.1451 199.114 44.0329 199.114 50.5308Z" fill="#0096D6"/>
<path fill-rule="evenodd" clip-rule="evenodd" d="M54.2304 117.855C52.8591 120.531 47.3682 132.664 47.3682 145.095C47.3682 168.151 68.0124 189.555 105.983 189.555C179.03 189.555 263.424 128.881 263.424 72.5612C263.424 47.2802 242.217 33.5352 227.492 30.6934L227.216 31.6796C231.795 33.3146 248.573 42.1157 248.573 64.636C248.573 109.511 174.06 170.655 99.837 170.655C71.422 170.655 53.5203 154.827 53.5203 131.772C53.5203 124.479 54.8658 119.675 55.2222 118.283L54.2304 117.855Z" fill="#EB7B30"/>
<path fill-rule="evenodd" clip-rule="evenodd" d="M293.541 76.772C295.545 78.4881 307.576 89.8034 307.576 111.201C307.576 184.16 206.272 255.903 116.712 255.903C63.3033 255.903 38.9562 226.145 40.0342 199.722H40.9916C43.0845 213.444 60.4255 237.999 107.171 237.999C196.843 237.999 296.965 163.765 296.965 98.7245C296.965 87.5682 294.28 80.6162 292.762 77.5246L293.541 76.772Z" fill="#00984A"/>
<path fill-rule="evenodd" clip-rule="evenodd" d="M327.397 144.884C327.817 146.438 329.999 153.423 329.999 164.362C329.999 245.522 227.479 315.003 138.316 315.003C92.4248 315.003 68.4601 289.848 63.4004 279.633L64.2168 278.952C76.915 291.483 101.926 301.005 131.115 301.005C209.862 301.005 327.366 233.398 326.317 145.179L327.397 144.884Z" fill="#DF002C"/>
<defs>
<radialGradient id="paint0_angular" cx="0" cy="0" r="1" gradientUnits="userSpaceOnUse" gradientTransform="translate(180 180) rotate(90) scale(180)">
<stop offset="0.0296337" stop-color="#DF002C" stop-opacity="0.15"/>
<stop offset="0.428727" stop-color="#0096D6" stop-opacity="0.15"/>
<stop offset="0.587985" stop-color="#EB7B30" stop-opacity="0.15"/>
<stop offset="0.715351" stop-color="#00984A" stop-opacity="0.15"/>
</radialGradient>
</defs>
</svg>
