<svg width="360" height="360" viewBox="0 0 360 360" fill="none" xmlns="http://www.w3.org/2000/svg">
<rect width="360" height="360" rx="82" fill="#0168AB"/>
<circle cx="180" cy="180" r="155.455" fill="#4681C7" fill-opacity="0.06"/>
<circle cx="180" cy="180" r="155.205" stroke="#2869BF" stroke-opacity="0.04" stroke-width="0.5"/>
<path d="M333.781 179.633C333.781 232.868 265.156 276.027 180.501 276.027C155.544 276.027 131.988 272.271 111.169 265.617L92.5828 258.594C53.061 241.167 27.2183 212.3 27.2183 179.633C27.2183 126.396 95.8428 83.2388 180.501 83.2388C265.156 83.2388 333.781 126.397 333.781 179.633Z" fill="#0168AB"/>
<path d="M333.781 179.633C333.781 232.868 265.156 276.027 180.501 276.027C155.544 276.027 131.988 272.271 111.169 265.617L138.311 164.486H151.596L139.591 209.579H159.044L172.753 158.045H140.017L150.41 118.896C151.707 113.998 157 106.612 164.213 106.608C168.487 106.604 173.798 108.741 174.035 111.463C168.575 111.463 164.071 116.667 164.071 122.366C164.071 128.064 168.575 132.772 174.035 132.772C177.546 132.772 185.558 128.806 185.087 119.983C184.806 114.532 181.619 103.782 164.211 103.384C144.004 102.937 130.052 120.976 125.07 139.21C122.129 150.063 114.81 175.957 108.561 199.518L92.5828 258.594C53.061 241.167 27.2183 212.3 27.2183 179.633C27.2183 126.396 95.8428 83.2388 180.501 83.2388C265.156 83.2388 333.781 126.397 333.781 179.633ZM65.5788 209.579L71.9381 185.795C104.53 186.288 110.84 178.408 115.345 158.045C118.523 143.773 110.649 132.772 96.4148 132.772H57.5129L55.8045 139.212H64.3448L45.6476 209.579H65.5788ZM84.2702 139.21C94.473 138.812 98.4083 141.242 94.473 158.043C89.3458 179.698 83.1338 179.349 73.6446 179.349L84.2702 139.21ZM325.139 167.161C325.139 161.314 320.773 156.558 315.413 156.558C311.098 156.558 304.978 159.382 300.613 166.42L302.744 158.045H276.18L274.467 164.486H281.582L269.587 209.579H289.038C289.038 209.579 296.339 182.378 296.296 182.324C299.189 173.907 304.548 164.092 306.115 165.428C304.454 173.409 310.241 177.767 315.411 177.767C320.771 177.767 325.139 173.009 325.139 167.161ZM235.141 185.795H267.921C268.183 184.94 268.305 184.364 268.443 183.564C272.047 166.464 263.561 155.565 250.037 155.565C235.424 155.565 221.906 160.518 216.258 183.564C212.508 198.825 220.676 211.069 235.141 211.567C248.137 212.011 260.431 208.391 266.549 190.75H246.622L245.432 195.208C243.061 204.13 239.885 205.121 236.375 205.121C232.866 205.121 231.154 200.66 232.625 195.208L235.141 185.795ZM238.795 171.919C240.262 166.464 243.54 161.758 247.854 162.005C252.074 162.005 253.075 166.466 251.603 171.919L249.753 178.858H236.947L238.795 171.919ZM209.143 203.138H192.535L221.144 158.045H179.396L177.687 164.486H194.289L166.16 209.579H207.431L209.143 203.138Z" fill="white"/>
</svg>
