<svg width="360" height="360" viewBox="0 0 360 360" fill="none" xmlns="http://www.w3.org/2000/svg">
<rect width="360" height="360" rx="82" fill="#2480FE"/>
<circle cx="180" cy="180" r="155.455" fill="#4681C7" fill-opacity="0.06"/>
<circle cx="180" cy="180" r="155.205" stroke="#2869BF" stroke-opacity="0.04" stroke-width="0.5"/>
<path d="M293.511 182.444C303.044 181.451 309.873 176.957 313.725 168.98C316.877 162.482 321.741 151.956 321.78 151.84C326.605 141.878 325.126 135.789 323.025 132.384C319.873 127.345 313.706 125.555 309.017 125.555H261.253L211.816 230.616H236.642L255.572 189.35H268.88C269.991 189.417 271.073 189.729 272.048 190.264C273.024 190.799 273.869 191.543 274.522 192.444C276.117 195.09 275.689 199.136 273.18 204.467C267.187 217.328 262.421 230.655 262.421 230.655H287.596C288.293 227.181 289.316 223.781 290.651 220.499C292.596 215.907 298.433 201.393 298.433 201.257C303.239 189.486 297.285 184.778 293.511 182.444ZM290.884 165.108C288.783 169.544 285.553 171.801 281.254 171.801H263.938L277.071 143.201H296.021C296.523 143.225 297.013 143.359 297.457 143.594C297.901 143.83 298.288 144.161 298.589 144.563C299.348 145.808 299.075 147.89 297.811 150.595L293.472 159.7L290.884 165.108Z" fill="white"/>
<path d="M186.468 172.346L178.219 189.856H191.293L183.939 205.752C181.799 210.363 180.34 211.297 175.301 211.297H162.304C158.413 211.297 157.051 209.351 159.386 204.409C162.343 198.145 185.69 149.389 185.69 149.389C188.336 143.844 189.912 143.007 193.997 143.007H207.422C210.671 143.007 212.422 144.505 210.243 148.844C209.757 149.797 204.406 161.49 204.406 161.49L228.084 161.665L233.473 150.089C241.353 133.163 234.31 125.244 218.006 125.011H192.285C186.159 124.851 180.122 126.503 174.93 129.759C169.739 133.016 165.624 137.733 163.102 143.318C158.413 153.299 136.292 199.837 136.292 199.837C128.198 216.861 132.887 230.966 155.028 230.966H174.795C190.593 231.122 198.356 228.651 205.574 212.853L223.998 172.482L186.468 172.346Z" fill="white"/>
<path d="M133.115 175.848C135.197 171.548 139.321 162.638 144.01 152.287C152.24 134.077 142.065 125.652 131.267 125.613H84.0284L35 230.83H60.487L77.608 193.981C77.608 193.981 92.0052 193.981 102.433 193.981C118.329 194.097 126.636 189.214 133.115 175.848ZM119.963 151.451C115.371 161.178 111.869 168.455 111.48 169.253C109.418 173.65 106.461 175.595 102.005 175.595H86.0128L101.13 142.851H117.161C120.683 142.871 123.193 144.641 119.963 151.451Z" fill="white"/>
</svg>
