<svg width="360" height="360" viewBox="0 0 360 360" fill="none" xmlns="http://www.w3.org/2000/svg">
<rect width="360" height="360" rx="82" fill="#2F6497"/>
<path fill-rule="evenodd" clip-rule="evenodd" d="M241.75 123.953L255.676 130.651V156.854H273.998V162.446H255.676V203.145C255.676 212.944 256.378 217.269 267.143 217.269C268.825 217.269 270.645 217.139 272.324 216.712V222.308C269.248 222.868 266.025 223.427 262.946 223.427C249.523 223.427 241.694 221.33 241.694 205.388V162.446H233.76V156.854H241.694V123.953H241.75Z" fill="white"/>
<path fill-rule="evenodd" clip-rule="evenodd" d="M288.139 176.433C288.139 171.122 291.076 160.069 301.569 160.069C313.735 160.069 314.016 173.218 314.016 176.433H288.139ZM326.741 213.495C324.364 214.476 319.463 215.879 313.595 215.879C293.874 215.879 288.137 196.014 288.137 182.029H328C328 172.657 326.042 155.315 302.124 155.315C283.383 155.315 272.756 164.97 272.756 187.06C272.756 210.425 285.626 223.427 307.023 223.427C316.671 223.427 324.083 220.631 326.741 219.653V213.495ZM225.355 123.952L211.593 130.651V221.946H225.355V123.952ZM172.947 159.793V162.589C181.342 162.868 183.715 165.243 183.715 175.032V190.419C183.715 202.029 177.561 213.921 168.474 213.921C161.761 213.921 157.005 210.138 157.005 197.41V155.315L138.214 158.714C138.214 158.578 138.224 158.453 138.224 158.318C138.224 123.505 113.211 115 89.1402 115H41V118.38C58.105 120.967 60.8895 123.951 60.8895 136.082V248.88H78.1993V201.442H83.8582C106.881 201.442 135.129 193.768 137.973 163.431C141.837 164.769 143.02 167.961 143.02 175.032V194.895C143.02 205.244 143.02 223.427 161.761 223.427C175.326 223.427 181.063 212.241 183.436 206.092H183.715V221.888H197.707V155.315L172.947 159.793ZM83.4583 193.911H78.1993V136.308C78.1993 124.772 77.1965 122.982 91.5936 122.982C109.3 122.982 118.73 138.851 118.73 158.545C118.732 184.205 101.96 193.911 83.4583 193.911Z" fill="white"/>
</svg>
