<svg width="360" height="360" viewBox="0 0 360 360" fill="none" xmlns="http://www.w3.org/2000/svg">
<rect width="360" height="360" rx="82" fill="#143174"/>
<path fill-rule="evenodd" clip-rule="evenodd" d="M70.3254 175.626V155.277H96.6142C102.261 155.277 106.838 159.853 106.838 165.5C106.838 171.099 102.261 175.626 96.6142 175.626H70.3254ZM38 123V240.034H70.3254V207.903H96.6142C109.661 207.903 121.345 201.964 129.183 192.665C134.392 219.587 158.393 240.082 186.726 240.082H226.111H247.775L263.45 217.104L279.029 205.372V240.569H311.744L311.793 178.158L330 164.77V163.553L235.117 228.058L330 157.419V156.153L242.225 215.741L329.951 149.922V148.656L249.43 203.473L330 142.424V141.207L256.83 190.864L330 134.976V133.759L311.744 146.124L311.793 123.243H279.126L229.032 207.952H186.678C172.121 207.952 160.34 196.024 160.34 181.663C160.34 167.058 172.121 155.325 186.678 155.325H238.866L238.768 123.049H186.678C165.501 123.049 146.952 134.343 136.632 151.236C130.741 134.83 114.968 123 96.6142 123H38Z" fill="white"/>
</svg>
