<svg width="360" height="360" viewBox="0 0 360 360" fill="none" xmlns="http://www.w3.org/2000/svg">
<rect width="360" height="360" rx="82" fill="url(#paint0_angular)"/>
<path d="M281.811 187.877C260.956 205.604 269.711 233.579 278.292 249.422C289.021 269.234 275.314 298.406 256.557 314.918C302.137 289.001 333.296 240.661 335.001 184.879C320.83 175.603 297.101 174.889 281.811 187.877Z" fill="#00927B"/>
<path d="M173.101 232.466C143.202 207.122 117.016 219.383 99.1658 240.327C81.0777 261.586 106.01 267.941 140.057 275.667C165.761 281.52 162.596 316.41 164.944 324.277C195.627 274.715 186.795 244.071 173.101 232.466Z" fill="#5BAC26"/>
<path d="M221.154 77.9778C272.137 117.531 227.31 137.761 227.31 137.761C256.269 162.353 285.53 115.248 316.972 142.161C325.302 149.282 330.602 157.901 334.545 167.177C329.258 102.839 284.707 49.6492 224.878 31.5997C201.419 41.9045 192.034 55.3934 221.154 77.9778Z" fill="#009EC5"/>
<path d="M98.0085 214.456C86.4494 182.846 101.135 168.296 151.366 132.538C214.822 87.3757 115.576 103.393 155.965 62.72C170.277 48.3177 190.379 37.1316 205.212 27.0584C197.024 25.7204 188.629 25 180.061 25C94.4321 25 25 94.4256 25 180.048C25 183.49 25.148 186.892 25.3796 190.276C48.7423 211.947 77.7334 226.008 98.0085 214.456Z" fill="#006455"/>
<defs>
<radialGradient id="paint0_angular" cx="0" cy="0" r="1" gradientUnits="userSpaceOnUse" gradientTransform="translate(180 180) rotate(90) scale(180)">
<stop offset="0.0870146" stop-color="#5BAC26" stop-opacity="0.15"/>
<stop offset="0.369746" stop-color="#006455" stop-opacity="0.15"/>
<stop offset="0.635198" stop-color="#009EC5" stop-opacity="0.15"/>
<stop offset="0.827568" stop-color="#00927B" stop-opacity="0.15"/>
</radialGradient>
</defs>
</svg>
