<svg width="360" height="360" viewBox="0 0 360 360" fill="none" xmlns="http://www.w3.org/2000/svg">
<rect width="360" height="360" rx="82" fill="#002FCD"/>
<rect x="25" y="25" width="310" height="310" rx="155" fill="white"/>
<path fill-rule="evenodd" clip-rule="evenodd" d="M256.586 201.408C242.071 201.408 221.742 201.408 221.742 201.408C223.192 197.782 222.473 192.706 219.566 186.892L199.963 154.23L167.294 96.87C167.294 96.87 154.955 73.6401 136.807 59.8499C148.422 64.2069 295.068 149.867 295.068 149.867C319.028 164.388 340.076 200.682 256.586 201.408ZM146.24 293.612C122.28 307.402 79.4474 307.402 120.83 234.813C128.087 222.461 138.252 204.32 138.252 204.32C141.159 207.946 145.515 210.122 152.048 210.122H190.524H256.586C256.586 210.122 282.728 210.846 303.782 202.145C294.343 209.397 146.24 293.612 146.24 293.612ZM96.1505 93.238C96.1505 65.6572 117.929 28.6259 160.037 100.501C167.294 113.572 177.459 130.994 177.459 130.994C173.102 131.714 169.47 134.626 165.844 140.434L146.966 173.827L113.572 230.45C113.572 230.45 99.7764 252.954 96.8754 276.196C95.4189 263.118 96.1505 93.238 96.1505 93.238ZM179.635 25C93.969 25 25 93.969 25 179.635C25 265.294 93.969 334.994 179.635 334.994C265.306 334.994 335 265.294 335 179.635C335 93.969 265.306 25 179.635 25Z" fill="#FF5400"/>
</svg>
