<svg width="360" height="360" viewBox="0 0 360 360" fill="none" xmlns="http://www.w3.org/2000/svg">
<rect width="360" height="360" rx="82" fill="#0272A6"/>
<path d="M180.091 192.422C166.732 192.422 158.128 186.173 158.128 186.173V114.14C158.128 108.134 165.237 104.008 171.315 103.248C177.828 102.438 207.836 97.9122 207.836 145.126C207.836 187.676 187.611 192.422 180.091 192.422ZM81.8976 187.972C73.0501 187.972 69.3884 184.124 69.3884 184.124V140.701C69.3884 137 72.058 134.459 76.0838 133.995C80.3987 133.495 100.01 130.361 100.01 159.438C100.01 186.662 88.0363 187.972 81.8976 187.972ZM283.609 139.348C295.787 135.747 308.171 139.473 318 147.632V121.453C286.233 116.417 269.587 119.844 256.881 127.727C246.578 134.312 242.202 143.295 242.202 143.295C242.202 143.295 241.974 143.774 241.595 144.63C239.929 78.3792 199.392 84.1502 151.015 84.1645C137.452 84.168 123.769 84.1645 123.769 84.1645V141.254C115.732 117.624 90.9058 120.165 64.3383 120.165C54.7163 120.165 42 120.168 42 120.168V240.946H78.5892C72.4862 238.826 69.3884 233.53 69.3884 225.842V192.661L79.9454 203.215C84.5994 204.353 88.6716 204.229 88.6716 204.229C98.7754 203.672 116.934 199.757 123.769 179.281V277H167.303C161.218 274.884 158.128 269.691 158.128 262.025V196.409L174.63 212.851C179.959 214.764 183.881 215.082 188.378 214.878C201.08 214.082 222.819 208.718 234.204 185.759C235.143 207.341 242.213 228.994 264.108 237.502C273.748 241.442 284.705 242.538 296.097 241.664C303.542 241.442 310.766 240.782 318 239.476V180.313L284.655 180.32C290.762 182.443 293.856 187.465 293.856 195.153V222.098C286.254 224.475 275.979 222.131 270.243 214.718C263.006 205.356 261.696 179.007 264.769 161.033C266.517 152.054 274.209 142.125 283.609 139.348Z" fill="white"/>
</svg>
