<svg width="360" height="360" viewBox="0 0 360 360" fill="none" xmlns="http://www.w3.org/2000/svg">
<rect width="360" height="360" rx="82" fill="black"/>
<path d="M253.204 259.507L241.643 249.618C244.546 247.053 247.288 244.311 249.857 241.408L259.746 252.969C257.66 255.242 255.476 257.421 253.204 259.507ZM270.478 274.281L258.43 263.98C260.423 262.118 262.353 260.189 264.215 258.191L274.52 270.239C273.204 271.614 271.853 272.964 270.478 274.281ZM286.5 287.987L277.427 280.23C278.455 279.232 279.466 278.216 280.465 277.192L288.226 286.261C287.655 286.84 287.079 287.416 286.5 287.987ZM252.641 228.751L239.485 222.462L246.86 209.686L258.895 217.943C257.063 221.705 254.973 225.314 252.641 228.751ZM271.452 237.739L257.715 231.175C259.856 227.959 261.799 224.604 263.53 221.125L276.081 229.737C274.646 232.475 273.102 235.145 271.452 237.739ZM291.963 247.54L277.655 240.705C279.103 238.399 280.465 236.038 281.752 233.626L294.823 242.593C293.905 244.264 292.949 245.915 291.963 247.54ZM310.989 256.634L300.215 251.488C300.951 250.261 301.667 249.021 302.365 247.768L312.212 254.522C311.81 255.233 311.404 255.936 310.989 256.634ZM262.95 208.172L248.595 205.497L252.413 191.249L266.17 196.111C265.379 200.241 264.295 204.266 262.95 208.172ZM283.44 211.984L268.476 209.2C269.7 205.556 270.702 201.811 271.477 197.981L285.827 203.051C285.158 206.081 284.358 209.06 283.44 211.984ZM305.792 216.144L290.202 213.241C290.994 210.647 291.7 208.015 292.314 205.345L307.265 210.626C306.812 212.479 306.321 214.32 305.792 216.144ZM326.524 220.004L314.785 217.82C315.175 216.445 315.542 215.061 315.894 213.673L327.15 217.651C326.947 218.438 326.74 219.221 326.524 220.004ZM267.541 185.625L253.005 186.754V172.002L267.541 173.136C267.685 175.197 267.757 177.279 267.757 179.378C267.757 181.477 267.685 183.559 267.541 185.625ZM288.315 184.004L273.144 185.184C273.263 183.263 273.322 181.329 273.322 179.378C273.322 177.428 273.263 175.494 273.144 173.572L288.315 174.757C288.379 176.289 288.413 177.83 288.413 179.378C288.413 180.927 288.379 182.472 288.315 184.004ZM310.972 182.239L295.171 183.47C295.217 182.112 295.238 180.749 295.238 179.378C295.238 178.012 295.217 176.645 295.171 175.29L310.972 176.522C310.993 177.47 311.002 178.422 311.002 179.378C311.002 180.335 310.993 181.287 310.972 182.239ZM331.991 180.601L320.091 181.528C320.104 180.813 320.108 180.098 320.108 179.378C320.108 178.663 320.104 177.944 320.091 177.233L331.991 178.16L332 179.378L331.991 180.601ZM266.17 162.65L252.413 167.508L248.595 153.26L262.95 150.589C264.295 154.491 265.379 158.52 266.17 162.65ZM285.827 155.706L271.477 160.775C270.707 156.946 269.7 153.205 268.476 149.561L283.44 146.772C284.358 149.701 285.158 152.68 285.827 155.706ZM307.265 148.135L292.314 153.416C291.7 150.746 290.998 148.11 290.202 145.516L305.792 142.613C306.321 144.441 306.812 146.277 307.265 148.135ZM327.15 141.11L315.894 145.088C315.542 143.696 315.175 142.312 314.785 140.941L326.524 138.757C326.74 139.536 326.947 140.323 327.15 141.11ZM258.895 140.814L246.86 149.074L239.485 136.299L252.645 130.01C254.973 133.446 257.063 137.056 258.895 140.814ZM276.081 129.024L263.533 137.636C261.798 134.157 259.856 130.797 257.719 127.585L271.452 121.022C273.102 123.616 274.651 126.286 276.081 129.024ZM294.823 116.164L281.752 125.135C280.469 122.723 279.103 120.362 277.655 118.055L291.963 111.217C292.949 112.842 293.905 114.492 294.823 116.164ZM312.212 104.234L302.365 110.988C301.671 109.74 300.951 108.5 300.215 107.273L310.989 102.123C311.404 102.825 311.81 103.528 312.212 104.234ZM246.2 121.623L236.725 132.702L226.294 122.27L237.373 112.795C240.517 115.525 243.471 118.479 246.2 121.623ZM259.746 105.787L249.857 117.353C247.288 114.45 244.546 111.708 241.643 109.139L253.208 99.2494C255.476 101.336 257.66 103.519 259.746 105.787ZM274.52 88.5176L264.215 100.565C262.357 98.5681 260.427 96.6383 258.43 94.7806L270.478 84.4762C271.853 85.7923 273.204 87.1423 274.52 88.5176ZM288.226 72.496L280.465 81.5689C279.471 80.5406 278.455 79.5292 277.427 78.5305L286.5 70.7694C287.079 71.3407 287.655 71.9162 288.226 72.496ZM228.985 106.35L222.697 119.511L209.921 112.135L218.177 100.1C221.939 101.932 225.549 104.023 228.985 106.35ZM237.974 87.5443L231.41 101.276C228.194 99.1394 224.838 97.197 221.36 95.4619L229.971 82.9147C232.709 84.3493 235.38 85.8939 237.974 87.5443ZM247.779 67.037L240.94 81.3404C238.634 79.8974 236.273 78.5305 233.86 77.2441L242.832 64.1721C244.503 65.0904 246.154 66.0468 247.779 67.037ZM256.873 48.0066L251.723 58.7808C250.496 58.0445 249.255 57.3293 248.007 56.631L254.761 46.7879C255.468 47.1899 256.17 47.5961 256.873 48.0066ZM208.406 96.0459L205.732 110.4L191.483 106.583L196.346 92.8255C200.476 93.6169 204.504 94.7002 208.406 96.0459ZM212.219 75.5556L209.434 90.5192C205.791 89.2962 202.046 88.2933 198.216 87.5189L203.29 73.1689C206.316 73.8375 209.295 74.6373 212.219 75.5556ZM216.379 53.2075L213.48 68.7932C210.882 68.0018 208.249 67.2951 205.579 66.6858L210.861 51.7306C212.718 52.1834 214.555 52.6742 216.379 53.2075ZM220.238 32.4759L218.055 44.2107C216.679 43.8213 215.3 43.4532 213.907 43.1062L217.885 31.8454C218.673 32.0485 219.455 32.2601 220.238 32.4759ZM121.858 112.795L132.936 122.27L122.501 132.702L113.026 121.623C115.759 118.479 118.709 115.525 121.858 112.795ZM106.022 99.2494L117.584 109.139C114.681 111.704 111.938 114.45 109.374 117.353L99.4801 105.787C101.566 103.519 103.75 101.336 106.022 99.2494ZM88.7481 84.4762L100.796 94.7806C98.8029 96.6383 96.8733 98.5681 95.0113 100.565L84.7066 88.5176C86.0269 87.1423 87.3726 85.7923 88.7481 84.4762ZM72.7266 70.7694L81.7995 78.5305C80.771 79.525 79.7599 80.5406 78.7612 81.5689L71 72.496C71.5711 71.9162 72.1467 71.3407 72.7266 70.7694ZM141.049 100.1L149.305 112.135L136.529 119.511L130.241 106.35C133.677 104.023 137.287 101.932 141.049 100.1ZM129.255 82.9147L137.866 95.4619C134.388 97.197 131.032 99.1394 127.816 101.276L121.252 87.5443C123.847 85.8939 126.517 84.3451 129.255 82.9147ZM116.394 64.1721L125.366 77.2441C122.954 78.5305 120.592 79.8931 118.286 81.3404L111.452 67.0328C113.077 66.0468 114.727 65.0904 116.394 64.1721ZM104.465 46.7879L111.219 56.631C109.97 57.3293 108.731 58.0445 107.504 58.7808L102.358 48.0066C103.056 47.5961 103.758 47.1899 104.465 46.7879ZM162.885 92.8255L167.743 106.583L153.494 110.4L150.82 96.0459C154.726 94.7002 158.754 93.6169 162.885 92.8255ZM155.941 73.1689L161.01 87.5189C157.18 88.2933 153.439 89.2962 149.792 90.5192L147.007 75.5556C149.936 74.6373 152.915 73.8375 155.941 73.1689ZM148.366 51.7306L153.651 66.6815C150.981 67.2951 148.344 68.0018 145.75 68.7932L142.847 53.2075C144.671 52.6742 146.512 52.1834 148.366 51.7306ZM141.341 31.8454L145.319 43.1062C143.931 43.4532 142.547 43.8213 141.176 44.2107L138.988 32.4759C139.771 32.2601 140.554 32.0485 141.341 31.8454ZM185.855 91.4544L186.989 105.991H172.237L173.371 91.4544C175.432 91.3106 177.514 91.2386 179.613 91.2386C181.712 91.2386 183.794 91.3106 185.855 91.4544ZM184.238 70.6805L185.419 85.8516C183.498 85.7331 181.564 85.6737 179.613 85.6737C177.662 85.6737 175.728 85.7331 173.807 85.8516L174.992 70.6805C176.524 70.6171 178.064 70.5832 179.613 70.5832C181.162 70.5832 182.706 70.6171 184.238 70.6805ZM182.474 48.0235L183.705 63.8293C182.347 63.7827 180.984 63.7574 179.613 63.7574C178.246 63.7574 176.88 63.7827 175.525 63.8293L176.752 48.0235C177.704 48.0024 178.657 47.994 179.613 47.994C180.569 47.994 181.522 48.0024 182.474 48.0235ZM180.836 27.0042L181.763 38.9041C181.047 38.8956 180.332 38.8871 179.613 38.8871C178.898 38.8871 178.178 38.8956 177.467 38.9041L178.394 27.0042L179.613 27L180.836 27.0042ZM237.369 245.966L226.294 236.486L236.725 226.055L246.2 237.134C243.466 240.282 240.517 243.232 237.369 245.966Z" fill="#00A7E2"/>
</svg>
