<svg width="360" height="360" viewBox="0 0 360 360" fill="none" xmlns="http://www.w3.org/2000/svg">
<rect width="360" height="360" rx="82" fill="#1B5EA8"/>
<path d="M326.998 170.889C326.998 195.843 308.42 211.593 284.526 211.593C260.859 211.593 242.27 195.843 242.27 170.889C242.27 145.962 260.859 130.236 284.526 130.236C308.42 130.236 326.998 145.962 326.998 170.889ZM262.609 170.889C262.609 187 271.281 199.026 284.526 199.026C296.755 199.026 306.297 187 306.297 170.889C306.297 154.805 296.755 142.771 284.526 142.771C270.215 142.771 262.609 154.625 262.609 170.889Z" fill="white"/>
<path d="M234.633 240.878C240.092 236.01 243.927 229.831 244.781 222.73C246.721 205.567 234.356 195.658 217.368 195.658H195.083C189.969 195.658 181.822 194.953 181.822 188.052C181.822 181.706 190.496 180.274 195.258 180.274H203.033C218.778 180.274 233.823 171.797 233.823 155.175C233.823 149.425 231.004 145.13 229.186 143.007C234.006 142.361 238.854 141.323 243.73 139.791L245.031 127.537C234.853 130.734 224.774 132.01 214.776 131.91C211.951 131.2 207.895 130.24 199.684 130.24C180.051 130.24 170.334 143.487 170.334 155.175C170.334 165.07 175.82 170.193 179.874 172.668C173.145 174.954 166.08 182.932 166.08 192.309C166.08 202.751 172.273 207.326 175.82 209.272C170.858 211.75 161.651 218.309 161.651 230.164C161.651 232.434 162.048 234.484 162.755 236.335C96.0905 230.164 71.677 214.867 37 229.204V234.784C79.9684 211.602 187.666 277.052 325.212 246.447V229.204C295.395 237.709 265.143 240.839 234.633 240.878ZM201.815 141.542C211.707 141.542 215.958 148.807 215.958 155.342C215.958 162.759 211.347 168.78 201.815 168.78C192.782 168.78 187.666 162.759 187.666 155.342C187.666 148.807 192.782 141.542 201.815 141.542ZM189.594 211.602H214.89C222.671 211.602 229.039 215.485 227.627 224.503C226.583 232.639 214.721 240.073 202.497 240.073C191.542 240.073 177.912 236.876 177.571 228.024C177.376 220.252 185.537 214.072 189.594 211.602Z" fill="white"/>
<path d="M42.5039 209.958V92H76.8182C104.423 92 117.687 107.745 117.687 124.172C117.687 143.28 101.04 158.678 76.0884 158.678H62.4776V209.958H42.5039ZM72.7391 105.614H62.4776V147.304C63.8345 146.482 65.8768 145.392 68.1522 145.164C70.4249 144.939 72.7391 144.878 72.7391 144.878C86.1974 144.878 96.6171 137.447 96.6171 124.538C96.6171 112.684 87.0715 105.614 72.7391 105.614Z" fill="white"/>
<path d="M171.297 131.44C169.332 130.741 167.004 130.236 164.274 130.236C154.015 130.236 146.176 137.581 143.29 142.703L142.349 131.995H124.662V209.8H143.592V156.575C147.305 148.911 155.269 141.79 165.575 147.099" fill="white"/>
</svg>
