<svg width="360" height="360" viewBox="0 0 360 360" fill="none" xmlns="http://www.w3.org/2000/svg">
<rect width="360" height="360" rx="82" fill="#007AC1"/>
<path fill-rule="evenodd" clip-rule="evenodd" d="M287.758 176.901L271.003 224.504C264.828 239.064 259.982 232.445 250.282 250.079L237.059 273.001H254.257L278.058 232.881C283.34 223.625 291.282 224.061 294.805 216.134L307.149 185.278L287.758 176.901ZM228.464 273.114H207.307C207.307 273.114 237.728 232.573 242.13 227.712C245.226 224.632 251.83 222.866 248.75 233.437L228.464 273.114ZM257.75 164.369L254.227 182.881C254.67 186.841 256.871 190.822 255.985 195.661C255.106 200.514 254.227 205.804 254.227 208.005C254.227 210.221 260.846 215.06 265.248 206.683L281.109 174.504L257.75 164.369ZM62.7314 280.439C91.0936 313.82 133.385 335 180.62 335C227.855 335 270.132 313.828 298.494 280.439H62.7314ZM304.707 272.971L273.363 272.986C274.685 264.609 295.842 230.71 301.139 224.534C306.42 218.373 311.717 195.007 313.919 187.952L334.55 196.315C331.544 224.94 321.169 251.168 304.707 272.971Z" fill="white"/>
<path fill-rule="evenodd" clip-rule="evenodd" d="M170.47 131.123L146.654 105.113L170.027 104.234L154.152 89.2449L152.829 73.8129C152.386 71.1683 155.474 69.4027 158.554 69.4027L178.832 72.9264L248.93 113.926L328.712 135.526C309.742 71.6041 250.673 25 180.605 25C95.2185 25 26 94.2186 26 179.606C26 215.225 38.036 248.02 58.2689 274.159L80.9662 212.671C84.0616 204.294 86.7062 203.851 91.9879 200.77L103.461 172.994L109.621 170.349L87.1419 243.077L70.3876 267.337C66.4282 272.618 73.0473 274.82 76.1277 270.417L107.428 230.297L118.006 185.338C120.207 173.881 126.826 182.693 126.826 186.66L125.053 217.96L89.3508 268.216C85.8272 273.497 93.3253 273.941 97.2923 271.296C97.2923 271.296 116.691 256.751 123.295 251.897C129.914 247.051 129.471 253.67 128.149 257.637L121.53 272.618H162.086L225.129 228.975L242.754 161.972C255.098 158.449 279.794 156.683 286.834 155.804L272.289 145.669L170.47 131.123ZM129.877 94.4891C126.353 96.698 124.595 98.0203 123.273 100.665L109.614 136.367C106.518 144.301 102.559 144.301 99.0353 145.624C95.4966 146.946 93.7386 149.591 92.4162 153.122L61.9954 243.039C60.8985 245.917 54.7152 255.173 48.5544 242.821C39.0053 223.106 34.0525 201.482 34.069 179.576C34.069 98.6589 99.6589 33.0691 180.576 33.0691C237.818 33.0691 287.405 65.9091 311.515 113.775C309.742 118.629 305.76 118.298 302.243 118.298L244.062 103.31L179.261 66.2772L149.283 61.4237C145.316 72.8888 136.939 90.0789 129.877 94.4891Z" fill="white"/>
</svg>
