<svg width="360" height="360" viewBox="0 0 360 360" fill="none" xmlns="http://www.w3.org/2000/svg">
<rect width="360" height="360" rx="82" fill="#F37B36"/>
<path d="M84.5314 135.602H90.5442C93.3499 135.602 99.7539 135.602 99.7539 128.679C99.7539 121.912 93.1973 121.912 89.9953 121.912H84.5314V135.602ZM70.4092 109H89.2938C99.9852 109 103.965 110.631 107.083 113.198C111.614 116.932 113.876 122.614 113.876 128.448C113.876 134.284 111.454 140.425 107.787 143.534C103.812 146.878 99.9065 148.516 90.9355 148.516H84.5314V166.564H70.4092" fill="#FEFEFE"/>
<path d="M158.063 166.531H145.812V161.938H145.659C143.006 167.46 137.695 167.924 134.416 167.924C131.766 167.924 125.522 167.306 121.699 162.478C118.268 158.204 117.796 155.095 117.796 149.183V123.359H130.749V147.235C130.749 150.191 130.749 155.873 137.695 155.873C141.441 155.873 145.108 153.923 145.108 147.08V123.359H158.063" fill="#FEFEFE"/>
<path d="M185.417 155.987C192.05 155.987 196.261 150.617 196.261 144.939C196.261 139.341 192.05 133.97 185.648 133.97C178.784 133.97 174.886 139.493 174.886 144.863C174.886 150.857 178.937 155.987 185.417 155.987ZM162.393 109H175.346V126.816C179.953 121.917 186.121 121.917 187.915 121.917C196.965 121.917 209.217 128.372 209.217 144.704C209.217 160.261 198.37 168.045 187.366 168.045C181.282 168.045 176.599 165.084 174.962 161.976H174.802V166.568H162.393" fill="#FEFEFE"/>
<path d="M226.536 109H213.58V166.561H226.536V109Z" fill="#FEFEFE"/>
<path d="M244.19 166.568H231.234V123.399H244.19V166.568ZM244.19 118.804H231.234V109H244.19V118.804Z" fill="#FEFEFE"/>
<path d="M294.08 150.114C291.735 159.918 283.076 167.926 271.368 167.926C258.263 167.926 248.196 157.659 248.196 144.827C248.196 132.146 258.103 121.881 271.056 121.881C282.532 121.881 291.818 129.425 294.004 140.007H280.891C279.485 137.05 276.908 133.935 271.528 133.935C265.361 133.623 261.226 138.682 261.226 144.904C261.226 151.204 265.361 155.875 271.528 155.875C276.908 155.875 279.485 152.759 280.891 150.114" fill="#FEFEFE"/>
<path d="M57.9065 190.449C57.5939 188.506 57.1263 184.855 52.6026 184.855C50.0208 184.855 47.5277 186.639 47.5277 189.367C47.5277 192.787 49.088 193.489 59.4669 198.15C70.2346 202.973 72.9641 207.954 72.9641 214.644C72.9641 223.047 68.1253 232.301 52.834 232.301C36.1348 232.301 32 221.408 32 214.019V212.154H46.6662C46.6662 218.842 50.801 220.015 52.6789 220.015C56.1886 220.015 58.2978 217.134 58.2978 214.485C58.2978 210.675 55.876 209.745 46.9788 206.006C42.9277 204.374 32.8565 200.329 32.8565 189.514C32.8565 178.71 43.3929 172.562 53.0703 172.562C58.763 172.562 64.9307 174.664 68.6742 179.097C72.1075 183.295 72.3438 187.181 72.4964 190.449" fill="#FEFEFE"/>
<path d="M96.3391 188.074H102.583V197.877H96.3391V231.238H83.3859V197.877H76.9893V188.074H83.3859V173.682H96.3391" fill="#FEFEFE"/>
<path d="M127.289 220.495C132.906 220.495 137.661 215.903 137.661 209.603C137.661 203.302 132.906 198.71 127.289 198.71C121.67 198.71 116.91 203.302 116.91 209.603C116.91 215.903 121.67 220.495 127.289 220.495ZM127.289 186.656C143.048 186.656 150.621 199.029 150.621 209.603C150.621 220.184 143.048 232.554 127.289 232.554C111.523 232.554 103.957 220.184 103.957 209.603C103.957 199.029 111.523 186.656 127.289 186.656Z" fill="#FEFEFE"/>
<path d="M154.809 188.048H166.989V192.633H167.142C168.234 190.538 170.496 186.568 177.986 186.568V199.559C171.98 199.711 167.767 200.96 167.767 207.496V231.212H154.809" fill="#FEFEFE"/>
<path d="M203.752 220.638C211.874 220.638 214.603 213.796 214.603 209.591C214.603 204.38 211.013 198.627 203.683 198.627C196.263 198.627 192.984 204.851 192.984 209.75C192.984 213.796 195.95 220.638 203.752 220.638ZM227.557 231.217H214.603V226.549H214.443C212.258 230.746 206.878 232.689 201.803 232.689C188.069 232.689 180.031 221.956 180.031 209.591C180.031 195.437 190.255 186.568 201.803 186.568C208.903 186.568 212.886 189.991 214.443 192.633H214.603V188.048H227.557" fill="#FEFEFE"/>
<path d="M254.927 220.572C261.171 220.572 265.542 216.062 265.542 209.838C265.542 202.915 260.782 198.717 255.003 198.717C249.463 198.717 244.548 203.15 244.548 209.451C244.548 216.369 249.547 220.572 254.927 220.572ZM278.495 226.018C278.495 232.473 278.03 236.595 275.921 240.25C272.566 245.697 264.681 250.444 253.989 250.444C238.932 250.444 233.236 241.415 232.375 235.27H247.361C249.234 239.551 254.07 239.551 254.927 239.551C256.564 239.551 265.466 239.391 265.466 227.804V226.479H265.306C263.982 228.969 260.231 232.632 253.445 232.632C241.661 232.632 231.595 223.763 231.595 209.914C231.595 195.135 242.21 186.656 253.445 186.656C258.281 186.656 263.044 188.371 265.382 192.103H265.542V188.06H278.495" fill="#FEFEFE"/>
<path d="M315.046 204.846C314.502 202.285 311.928 197.456 305.216 197.456C298.507 197.456 295.932 202.285 295.381 204.846H315.046ZM326.517 217.682C324.413 222.503 321.366 226.237 317.704 228.727C314.113 231.296 309.818 232.621 305.371 232.621C292.967 232.621 282.428 222.581 282.428 209.745C282.428 197.692 291.95 186.568 305.14 186.568C318.324 186.568 327.999 196.99 327.999 210.138C327.999 211.853 327.846 212.547 327.691 213.56H295.228C296.009 218.695 300.296 221.728 305.371 221.728C309.351 221.728 311.46 219.937 313.249 217.682" fill="#FEFEFE"/>
</svg>
