<svg width="360" height="360" viewBox="0 0 360 360" fill="none" xmlns="http://www.w3.org/2000/svg">
<rect width="360" height="360" rx="82" fill="#E20010"/>
<circle cx="180" cy="180" r="155.455" fill="#4681C7" fill-opacity="0.06"/>
<circle cx="180" cy="180" r="155.205" stroke="#2869BF" stroke-opacity="0.04" stroke-width="0.5"/>
<path d="M181.004 327.376C194.979 308.846 214.374 305.05 238.436 302.764C266.904 300.061 279.61 297.162 295.883 279.052C306.099 267.71 313.21 249.271 313.21 232.562C313.21 220.895 312.607 211.276 306.825 194.562C294.453 158.757 290.567 145.323 319 112.484L259.708 53.2264C246.958 63.8522 219.296 82.4039 181.004 52C142.402 82.7017 115.633 63.5699 102.274 53.2264L43 112.484C71.2755 145.323 68.648 158.841 55.1656 194.562C49.0929 210.666 48.7775 221.319 48.7775 232.562C48.7775 249.279 55.3142 267.651 66.1078 279.052C82.9184 296.809 95.6006 300.043 123.552 302.764C148.475 305.191 167.019 309.143 181.004 327.376Z" fill="white"/>
<path d="M181.009 320.081C195.292 303.982 216.93 300.382 238.722 298.196C266.096 295.457 276.777 292.619 291.942 276.314C301.781 265.734 308.34 249.271 308.34 232.562C308.34 221.337 306.553 207.688 301.363 193.651C287.215 155.346 290.389 139.552 312.612 112.801L259.109 59.2981C259.109 59.2981 224.764 91.2067 181.009 57.4891C137.535 91.2067 102.886 59.2981 102.886 59.2981L49.3877 112.801C72.1494 139.552 75.4017 155.641 60.6523 193.651C55.1712 207.723 53.6459 221.337 53.6459 232.562C53.6459 248.955 60.1109 266.189 70.0693 276.314C85.7629 292.301 95.98 295.162 123.249 298.196C145.147 300.636 166.731 303.982 181.009 320.081Z" fill="#161413"/>
<path d="M181.021 307.015C203.215 292.726 214.443 293.024 237.233 289.693C257.009 286.776 269.949 285.223 284.348 270.856C304.72 250.469 302.75 221.543 290.444 188.795C276.138 150.791 288.774 128.597 300.759 113.401L258.21 70.8477C258.21 70.8477 224.775 97.2827 181.021 68.7208C137.25 97.2827 103.801 70.8477 103.801 70.8477L61.2227 113.401C73.111 128.597 86.1891 150.486 71.5973 188.795C59.0672 221.66 57.6143 250.469 77.6731 270.856C91.9495 285.328 104.773 286.829 124.778 289.693C148.191 293.024 158.829 292.726 181.021 307.015Z" fill="white"/>
<path d="M180.999 293.338C205.033 280.007 219.668 281.365 246.627 277.24C292.723 270.151 289.903 231.596 286.986 216.616C286.268 212.92 284.928 207.122 283.842 203.972C280.113 193.143 271.68 172.422 273.069 151.716H88.9122C90.6418 173.348 81.4001 195.394 77.7973 205.671C77.0018 207.966 75.9622 212.12 75.4147 214.602C72.5321 227.713 67.2945 269.57 115.334 277.24C144.114 281.835 156.945 280.007 180.999 293.338Z" fill="#E20010"/>
<path d="M119.288 99.8198H126.591V115.329H134.144V99.8198H141.818V139.028H134.144V122.254H126.591V139.028H119.288V99.8198Z" fill="#161413"/>
<path d="M149.764 99.8047H157.69V139.037H149.764V99.8047Z" fill="#161413"/>
<path d="M259.917 98.4282C271.111 98.4282 271.939 105.511 271.785 111.045H264.004C263.972 102.397 255.497 103.71 255.57 109.08C255.599 112.054 261.05 115.192 265.566 117.964C269.612 120.468 272.407 124.489 272.52 128.889C272.593 132.747 270.85 139.992 259.917 139.992C248.767 139.992 247.856 131.698 247.833 126.992H255.289C255.289 136.607 264.316 135.449 264.401 129.171C264.401 129.171 264.944 126.238 259.969 123.251C254.37 119.913 248.046 117.403 248.209 109.235C248.209 106.986 248.689 98.4282 259.917 98.4282Z" fill="#161413"/>
<path d="M186.066 99.8198H193.973V132.884H202.547V139.035H186.066V99.8198Z" fill="#161413"/>
<path d="M165.631 99.7349H173.537V132.816H182.096V138.953H165.631V99.7349Z" fill="#161413"/>
<path fill-rule="evenodd" clip-rule="evenodd" d="M91.835 99.6733V139.226H99.7692V126.325C101.972 126.239 114.917 127.585 115.219 113.659C115.632 98.2104 102.503 99.6733 99.7692 99.6733H91.835ZM99.7692 105.625V119.789C100.938 119.789 107.94 121.386 107.923 112.559C107.896 104.728 101.372 105.625 99.7692 105.625Z" fill="#161413"/>
<path fill-rule="evenodd" clip-rule="evenodd" d="M222.146 99.6733V139.226H230.076V126.325C232.271 126.239 245.216 127.585 245.535 113.659C245.929 98.2104 232.808 99.6733 230.076 99.6733H222.146ZM230.076 105.625V119.789C231.241 119.789 238.23 121.386 238.218 112.559C238.186 104.728 231.681 105.625 230.076 105.625Z" fill="#161413"/>
<path d="M206.406 99.8198H214.338V139.028H206.406V99.8198Z" fill="#161413"/>
<path fill-rule="evenodd" clip-rule="evenodd" d="M237.984 200.528C254.245 206.411 250.243 227.207 242.065 240.601C231.89 257.322 209.624 259.345 196.477 254.285C175.529 246.225 181.867 222.924 188.74 203.684C198.614 176.026 217.769 162.944 242.836 171.325C256.242 175.768 258.166 189.295 256.823 193.198L235.094 191.6C235.094 191.6 236.459 182.672 230.223 182.672C220.662 182.672 214.481 203.066 214.481 203.066C214.481 203.066 223.635 195.337 237.984 200.528ZM207.743 223.572C210.403 217.532 214.514 211.062 219.903 212.183C227.173 213.695 224.674 223.376 222.122 230.252C219.562 237.188 214.423 244.724 208.109 243.015C202.246 241.46 204.684 230.512 207.743 223.572ZM157.868 200.528C174.125 206.411 170.121 227.207 161.974 240.601C151.788 257.322 129.514 259.345 116.362 254.285C95.4038 246.225 101.72 222.895 108.626 203.684C118.358 176.634 136.894 162.794 162.729 171.325C176.153 175.719 178.055 189.295 176.706 193.198L154.978 191.6C154.978 191.6 156.354 182.672 150.118 182.672C140.553 182.672 134.371 203.066 134.371 203.066C134.371 203.066 143.518 195.337 157.868 200.528ZM127.797 223.572C130.482 217.532 134.379 211.062 139.786 212.183C147.079 213.695 144.549 223.376 142.014 230.252C139.442 237.188 134.314 244.724 128.005 243.015C122.117 241.46 124.742 230.512 127.797 223.572Z" fill="white"/>
</svg>
