<svg width="360" height="360" viewBox="0 0 360 360" fill="none" xmlns="http://www.w3.org/2000/svg">
<rect width="360" height="360" rx="82" fill="black"/>
<path d="M64.7049 175.622H68.8643C77.8173 175.622 86.6332 175.622 86.6332 164.035C86.6332 152.048 78.4457 151.911 68.8643 151.911H64.7049V175.622ZM40 132H77.8172C98.2484 132 112.355 141.45 112.355 163.281C112.355 185.712 100.265 195.545 78.7085 195.545H64.7049V227.054H40" fill="white"/>
<path d="M171.243 189.757L194.309 132H221.156L180.568 227.054H161.411L121.439 132H148.293" fill="white"/>
<path d="M295.307 168.697V132H320V227.054H295.307V188.1H259.615V227.054H234.904V132H259.615V168.697" fill="white"/>
</svg>
