<svg width="360" height="360" viewBox="0 0 360 360" fill="none" xmlns="http://www.w3.org/2000/svg">
<rect width="360" height="360" rx="82" fill="black"/>
<path d="M69 79C72.1408 80.1421 74.1396 80.9987 76.9949 82.9974C110.973 100.986 144.951 118.118 179.215 136.106C183.213 139.247 188.352 140.104 193.206 143.245C180.072 146.385 167.223 149.241 153.232 153.238C158.371 157.236 164.367 159.234 169.221 163.232C178.358 168.371 187.21 174.367 197.204 179.221C218.333 191.214 239.177 204.348 261.163 216.341C263.161 217.483 265.16 219.481 267.159 220.338H268.301C262.305 221.48 256.309 222.337 249.17 222.337C235.179 224.335 222.045 225.478 208.054 227.476C233.181 243.466 258.022 258.599 282.006 274.589C285.147 276.588 289.145 278.586 292 281.727C246.886 262.597 201.772 243.752 157.8 225.763V224.621C161.798 223.479 165.795 222.622 169.793 221.48C175.789 220.338 181.785 218.339 186.924 217.483C192.064 216.341 196.918 214.342 202.914 213.485C189.78 205.49 175.789 197.495 161.798 189.501C151.804 183.504 142.667 178.365 132.674 172.369C114.685 162.375 96.6965 152.382 79.5647 141.246C96.6965 138.105 112.686 134.108 129.533 131.252C109.831 113.264 88.9872 97.274 69 79Z" fill="#FDBE57"/>
</svg>
