<svg width="360" height="360" viewBox="0 0 360 360" fill="none" xmlns="http://www.w3.org/2000/svg">
<rect width="360" height="360" rx="82" fill="#4A613E"/>
<path d="M159.681 267.892C159.681 294.671 164.36 305.534 181.142 316H100C115.206 307.856 118.322 298.533 118.322 263.634V98.7632C118.322 63.8403 115.206 54.5287 100 46.3965H139.398C151.885 46.3965 151.885 46.397 185.437 46H198.297C221.322 46 237.707 49.1036 252.528 56.093C277.875 68.4839 294.284 92.1706 294.284 117.758C294.284 160.056 253.298 194.57 203.373 194.57C190.501 194.57 184.655 193.415 173.708 189.144C199.476 186.041 213.515 180.615 226.772 169.355C241.196 156.94 248.233 142.589 248.233 125.133C248.233 93.7229 225.617 74.3186 188.552 74.3186C177.617 74.3186 170.989 75.0879 159.681 77.8187" fill="white"/>
</svg>
