<svg width="360" height="360" viewBox="0 0 360 360" fill="none" xmlns="http://www.w3.org/2000/svg">
<rect width="360" height="360" rx="82" fill="#003087"/>
<path d="M262.933 61.9983C250.038 47.301 226.729 41 196.911 41H110.368C104.267 41 99.0832 45.4369 98.128 51.4529L62.0935 279.992C61.3772 284.498 64.8666 288.581 69.4345 288.581H122.862L136.281 203.471L135.865 206.136C136.82 200.12 141.966 195.683 148.059 195.683H173.448C223.324 195.683 262.378 175.424 273.786 116.82C274.125 115.087 274.418 113.4 274.672 111.752C273.232 110.989 273.232 110.989 274.672 111.752C278.069 90.091 274.647 75.3475 262.933 61.9983Z" fill="#003087"/>
<path d="M150.703 112.039C151.273 108.419 153.599 105.453 156.726 103.951C158.151 103.273 159.738 102.895 161.402 102.895H229.25C237.284 102.895 244.779 103.419 251.627 104.521C253.591 104.836 255.494 105.199 257.342 105.615C259.191 106.023 260.986 106.485 262.727 106.993C263.597 107.247 264.452 107.51 265.292 107.787C268.658 108.912 271.793 110.221 274.674 111.754C278.071 90.0855 274.649 75.3497 262.935 62.0005C250.032 47.3032 226.731 41.0022 196.913 41.0022H110.362C104.269 41.0022 99.0851 45.4391 98.1299 51.4551L62.0955 279.987C61.3791 284.501 64.8686 288.575 69.4287 288.575H122.864L136.283 203.465L150.703 112.039Z" fill="#002F86"/>
<path d="M274.678 111.752C274.416 113.408 274.131 115.087 273.792 116.82C262.384 175.417 223.33 195.683 173.453 195.683H148.057C141.964 195.683 136.818 200.12 135.871 206.136L122.868 288.573L119.178 311.959C118.554 315.903 121.605 319.477 125.595 319.477H170.634C175.965 319.477 180.502 315.595 181.334 310.334L181.773 308.039L190.262 254.241L190.809 251.268C191.641 246.007 196.178 242.124 201.508 242.124H208.248C251.878 242.124 286.041 224.4 296.024 173.137C300.191 151.715 298.034 133.828 287.011 121.265C283.668 117.46 279.516 114.317 274.679 111.752" fill="#009CDE"/>
<path d="M262.724 106.991C260.983 106.482 259.188 106.02 257.339 105.612C255.491 105.203 253.58 104.841 251.624 104.526C244.768 103.416 237.281 102.893 229.239 102.893H161.399C159.728 102.893 158.141 103.27 156.723 103.956C153.588 105.458 151.27 108.416 150.7 112.044L136.28 203.47L135.864 206.135C136.811 200.119 141.957 195.682 148.05 195.682H173.447C223.323 195.682 262.377 175.424 273.785 116.82C274.124 115.086 274.409 113.407 274.671 111.751C271.782 110.226 268.655 108.909 265.289 107.792C264.449 107.514 263.594 107.244 262.724 106.991Z" fill="#012069"/>
<path d="M262.933 61.9983C250.038 47.301 226.729 41 196.911 41H110.368C104.267 41 99.0832 45.4369 98.128 51.4529L62.0935 279.992C61.3772 284.498 64.8666 288.581 69.4345 288.581H122.862L136.281 203.471L135.865 206.136C136.82 200.12 141.966 195.683 148.059 195.683H173.448C223.324 195.683 262.378 175.424 273.786 116.82C274.125 115.087 274.418 113.4 274.672 111.752C273.232 110.989 273.232 110.989 274.672 111.752C278.069 90.091 274.647 75.3475 262.933 61.9983Z" fill="white"/>
</svg>
