<svg width="360" height="360" viewBox="0 0 360 360" fill="none" xmlns="http://www.w3.org/2000/svg">
<rect width="360" height="360" rx="82" fill="#335DA3"/>
<path d="M179.612 50C112.288 50 58 102.342 58 172.196C58 242.245 112.288 294.392 179.612 294.392C191.092 294.392 202.183 292.835 212.691 289.917L225.922 323.968C227.284 327.665 230.008 330 234.873 330H255.887C260.946 330 264.644 326.692 262.309 320.271L245.186 275.712C278.848 254.503 301.224 216.949 301.224 172.001C301.224 102.342 246.937 50 179.612 50ZM232.538 243.218L217.166 203.329C215.804 200.021 213.08 196.908 207.243 196.908H187.201C182.142 196.908 178.25 200.215 180.585 206.637L200.821 258.978C194.206 260.73 187.006 261.508 179.612 261.508C130.384 261.508 95.3593 222.787 95.3593 172.196C95.3593 121.605 130.384 82.8839 179.612 82.8839C228.841 82.8839 263.865 121.605 263.865 172.196C263.865 201.772 251.996 227.067 232.538 243.218Z" fill="white"/>
</svg>
