<svg width="360" height="360" viewBox="0 0 360 360" fill="none" xmlns="http://www.w3.org/2000/svg">
<rect width="360" height="360" rx="82" fill="black"/>
<path d="M278.44 278.284C258.842 247.043 224.439 228.798 188.535 229.066H176.424H176.464C144.855 228.668 119.331 202.936 119.331 171.238V150.207C119.331 118.241 145.242 92.349 177.19 92.349C209.137 92.349 235.028 118.241 235.028 150.207V212.113H235.036C235.036 225.189 245.626 235.778 258.701 235.778C271.776 235.778 282.365 225.149 282.365 212.084V150.207C282.365 92.1 235.275 45 177.188 45C119.09 45 72 92.1 72 150.207V171.238C72 229.067 118.683 275.988 176.422 276.416H188.533C208.499 276.121 227.679 286.269 238.497 303.699H238.513C244.489 313.464 256.848 317.719 267.746 313.185C279.826 308.194 285.554 294.333 280.562 282.272C279.975 280.83 279.25 279.518 278.434 278.265L278.44 278.284Z" fill="white"/>
</svg>
