<svg width="360" height="360" viewBox="0 0 360 360" fill="none" xmlns="http://www.w3.org/2000/svg">
<rect width="360" height="360" rx="82" fill="#061456"/>
<path d="M179.391 70C167.767 81.2646 154.57 93.1541 143.575 104.732L156.457 121.63V122.565L121.581 137.899L98.3367 121.942L112.469 106.296V105.043C97.7025 94.7172 85.1376 84.7085 71 75.3214L77.9081 146.037H281.501L288.415 75.3214C274.277 84.7085 261.707 94.7172 246.941 105.043V106.296L261.078 121.942L237.512 137.899L202.958 122.565V121.63L215.834 104.732C204.837 93.1541 191.648 81.2646 180.023 70H179.398H179.391ZM79.4808 158.555L81.6847 182.021H156.772V263.373L120.324 263.062C112.155 263.062 103.36 254.3 105.245 248.668C107.13 240.532 114.359 235.214 121.271 231.147C120.015 231.147 94.8793 212.682 82.9405 204.546C83.5659 209.866 92.0467 276.205 92.0467 277.144L179.076 310H180.332L267.362 277.144C267.362 276.205 275.848 209.866 276.474 204.546C264.535 212.682 239.401 231.147 238.144 231.147C245.056 235.214 252.279 240.532 254.164 248.668C256.049 254.3 247.253 263.062 239.084 263.062L202.643 263.373V182.021H277.73L279.928 158.555H79.4808Z" fill="white"/>
</svg>
