<svg width="360" height="360" viewBox="0 0 360 360" fill="none" xmlns="http://www.w3.org/2000/svg">
<rect width="360" height="360" rx="82" fill="#014B85"/>
<path d="M49.6676 119.507C49.6676 119.507 53.864 229.079 54.0472 236.364C54.1241 239.68 51.7214 243.802 44.9836 243.968C39.4929 244.104 35.796 240.835 36.0087 236.364C36.3574 229.336 40.5716 119.507 40.5716 119.507H49.6676ZM65.1824 130.075C75.9629 124.114 103.567 110 129.363 110C177.698 110 169.394 157.726 209.804 157.726C228.542 157.726 238.64 150.853 260.192 150.853C291.263 150.853 312.375 163.764 323.537 170.898C305.696 169.21 286.458 172.13 270.441 182.441C291.476 184.249 315.718 193.452 330 207.779C324.967 206.41 308.253 201.239 285.545 201.239C246.761 201.239 233.073 229.801 201.195 229.801C171.158 229.801 159.843 212.554 132.602 212.554C100.633 212.554 81.956 230.652 71.7961 238.318L65.1824 130.075Z" fill="#EE3524"/>
</svg>
