<svg width="360" height="360" viewBox="0 0 360 360" fill="none" xmlns="http://www.w3.org/2000/svg">
<rect width="360" height="360" rx="82" fill="#E6602C"/>
<path d="M94.6541 157.687V166.14H68.8828V157.687H76.1733V91.4366H68.8828V83H104.555C127.366 83 133.717 94.3655 133.717 105.89C133.717 115.441 128.751 124.546 116.908 126.806C123.832 128.064 125.408 131.088 128.05 137.647L134.099 157.687H141.485V166.14H125.328L116.939 139.541C113.215 131.582 107.611 130.34 98.2834 130.34H87.2682V157.687H94.6541ZM87.3318 121.904H100.178C114.504 121.904 122.192 116.603 122.192 107.036C122.192 96.3234 114.552 91.4525 100.178 91.4525H87.2682L87.3318 121.904Z" fill="white"/>
<path d="M198.241 148.232C195.599 160.967 186.144 167.637 170.512 167.637C152.366 167.637 141.525 155.921 141.525 137.392C141.525 119.373 153.13 107.148 170.767 107.148C189.295 107.148 199.881 118.864 199.881 139.923H152.366C152.748 152.642 159.815 160.012 170.894 160.012C180.732 160.012 187.162 155.475 188.675 148.153H198.225L198.241 148.232ZM189.025 132.235C187.433 120.646 181.066 114.598 170.751 114.598C160.436 114.598 153.48 120.965 152.604 132.235H189.025Z" fill="white"/>
<path d="M233.789 167.015C217.218 167.015 206.314 155.235 206.314 137.136C206.314 118.862 217.027 107.131 234.298 107.131C243.372 107.131 250.614 111.126 254.371 119.611V108.659H271.18V116.22H264.208V162.096C264.208 180.115 255.008 188.568 235.349 188.568C218.46 188.568 210.389 183.522 209.625 171.296H219.845C221.23 178.348 225.766 181.006 234.84 181.006C248.832 181.006 253.941 175.578 253.941 162.096V155.235C249.914 162.892 245.25 167.078 233.725 167.078L233.789 167.015ZM235.508 115.345C224.366 115.281 217.218 123.399 217.218 137.136C217.218 150.619 224.509 159.103 235.858 159.103C247.001 159.103 253.527 150.396 253.527 137.296C253.527 124.195 246.539 115.281 235.572 115.281L235.508 115.345Z" fill="white"/>
<path d="M206.98 252.034C204.337 264.753 194.93 271.438 179.25 271.438C161.104 271.438 150.264 259.723 150.264 241.194C150.264 223.175 161.852 210.95 179.505 210.95C198.034 210.95 208.619 222.665 208.619 243.709H161.104C161.486 256.443 168.538 263.877 179.632 263.877C189.47 263.877 195.901 259.341 197.413 252.034H206.964H206.98ZM197.763 236.116C196.171 224.528 189.804 218.463 179.489 218.463C169.174 218.463 162.218 224.83 161.343 236.116H197.763Z" fill="#FFCD6A"/>
<path d="M214.924 262.365H220.575V220.007H214.924V212.446H230.412V222.395C233.994 213.91 241.889 210.934 250.326 210.934C264.318 210.934 273.104 217.603 273.104 231.627V262.365H278.23V269.846H257.855V262.365H262.885V231.643C262.885 222.936 256.104 218.542 247.795 218.542C237.846 218.542 230.778 225.339 230.778 236.689V262.365H236.318V269.846H214.924V262.365Z" fill="#FFCD6A"/>
<path d="M307 260.805C307 258.696 306.375 256.634 305.203 254.88C304.031 253.126 302.365 251.759 300.416 250.952C298.468 250.145 296.323 249.934 294.254 250.345C292.186 250.757 290.285 251.772 288.794 253.264C287.302 254.755 286.286 256.656 285.875 258.725C285.463 260.793 285.675 262.938 286.482 264.887C287.289 266.835 288.656 268.501 290.41 269.673C292.164 270.845 294.226 271.47 296.335 271.47C299.164 271.47 301.876 270.347 303.876 268.347C305.876 266.346 307 263.634 307 260.805Z" fill="#FFCD6A"/>
<path d="M294.266 158.928C294.266 156.818 293.64 154.756 292.468 153.002C291.296 151.248 289.631 149.882 287.682 149.074C285.733 148.267 283.589 148.056 281.52 148.467C279.451 148.879 277.551 149.895 276.059 151.386C274.568 152.878 273.552 154.778 273.14 156.847C272.729 158.916 272.94 161.06 273.747 163.009C274.555 164.958 275.922 166.623 277.675 167.795C279.429 168.967 281.491 169.593 283.601 169.593C286.429 169.593 289.142 168.469 291.142 166.469C293.142 164.469 294.266 161.756 294.266 158.928Z" fill="white"/>
<path d="M142.852 242.53C141.022 261.138 127.444 271.182 107.005 271.182C82.6344 271.182 66 255.519 66 229.795C66 204.072 82.6184 188.17 106.273 188.17C124.435 188.17 131.582 196.606 133.333 198.341V192.436H142.04V217.905H132.856C132.028 211.792 127.253 197.116 106.925 197.116C89.4154 197.116 78.2728 208.72 78.2728 228.808C78.2728 250.473 89.9407 261.074 107.705 261.074C119.707 261.074 128.622 256.044 131.582 242.514H142.836" fill="#FFCD6A"/>
</svg>
