<svg width="360" height="360" viewBox="0 0 360 360" fill="none" xmlns="http://www.w3.org/2000/svg">
<rect width="360" height="360" rx="82" fill="#005C9E"/>
<path d="M45.6109 143.5H80.7375C93.9476 143.199 102.654 148.604 102.654 162.715C102.654 172.622 95.7489 181.028 85.8415 182.529V182.83C91.846 184.631 93.3471 190.035 93.3471 195.74C93.3471 199.042 92.7468 203.846 92.7468 208.65C92.7468 211.952 93.0474 214.955 93.6477 217.056H77.7357C77.435 215.255 77.1354 213.754 77.1354 212.253C77.1354 207.449 78.0365 202.345 78.0365 197.241C78.0365 190.036 73.8332 188.234 67.5285 188.234H52.2168L46.2124 217.056H30L45.6109 143.5ZM54.9181 176.825H69.9293C78.3358 176.825 86.742 173.522 86.742 165.116C86.742 157.31 81.0378 156.109 74.7331 156.109H59.4214L54.9181 176.825Z" fill="white"/>
<path d="M164.218 203.543L161.216 217.053H104.473L120.085 143.498H176.227L173.225 157.008H133.295L129.992 172.92H166.92L164.218 185.529H127.29L123.687 203.543H164.218Z" fill="white"/>
<path d="M228.771 209.552C223.667 216.157 216.761 218.858 210.156 218.858C189.441 218.858 177.432 207.15 177.432 186.434C177.432 162.716 192.743 142 217.662 142C234.775 142 248.886 150.106 248.886 168.12H232.674C232.373 159.113 226.669 155.51 217.662 155.51C201.15 155.51 193.644 172.323 193.644 186.434C193.644 196.642 198.447 205.348 210.457 205.348C222.766 205.348 228.17 198.743 230.872 189.436H213.759L216.461 177.427H247.685L239.278 217.057H228.771V209.552Z" fill="white"/>
<path d="M278.759 165.414L268.251 217.053H252.939L268.551 143.498H285.364L305.179 195.737H305.479L315.987 143.498H330.999L315.387 217.053H299.175L279.059 165.414H278.759Z" fill="white"/>
</svg>
