<svg width="360" height="360" viewBox="0 0 360 360" fill="none" xmlns="http://www.w3.org/2000/svg">
<rect width="360" height="360" rx="82" fill="#9F1C35"/>
<path d="M151.945 155.362L135.951 154.21C120.678 154.21 110.88 159.012 106.557 168.618V267.318H58V111.416H103.532L105.117 131.444C113.281 116.17 124.664 108.534 139.265 108.534C144.452 108.534 148.967 109.11 152.809 110.263L151.945 155.362Z" fill="white"/>
<path d="M216.928 128.13C227.303 115.066 240.559 108.534 256.696 108.534C273.891 108.534 286.859 113.625 295.6 123.807C304.341 133.989 308.808 149.022 309 168.906V267.318H260.299V170.059C260.299 161.798 258.617 155.746 255.255 151.904C251.893 147.966 246.178 145.997 238.109 145.997C228.119 145.997 221.059 149.166 216.928 155.506V267.318H168.371V46H216.928V128.13Z" fill="white"/>
</svg>
