<svg width="360" height="360" viewBox="0 0 360 360" fill="none" xmlns="http://www.w3.org/2000/svg">
<rect width="360" height="360" rx="82" fill="black"/>
<path fill-rule="evenodd" clip-rule="evenodd" d="M97.3163 166.005V130.831C97.3163 128.318 97.3163 113.872 97.9401 111.983C98.5638 109.47 105.398 109.47 107.26 109.47C126.515 109.47 134.588 119.522 134.588 138.37C134.588 158.475 124.653 166.005 104.774 166.005H97.3163ZM135.836 168.528C152.605 165.382 168.144 154.082 168.144 135.866C168.144 121.411 161.31 110.111 147.642 105.085C138.945 101.316 124.038 100.692 114.718 100.059C103.536 100.059 92.3534 100.683 81.7947 100.683C69.9886 100.683 58.8062 100.059 47 100.059V107.598C66.2641 106.966 66.2641 116.394 66.2641 133.353V203.078C66.2641 219.413 66.2641 229.457 47 228.833V236.372C58.8062 235.74 69.9886 235.739 81.7947 235.107C92.9772 235.73 104.783 235.731 116.589 236.372V228.833C96.7107 229.457 97.3254 219.413 97.3254 203.078V175.443H100.435C106.031 174.819 114.727 185.486 121.552 194.915L150.128 236.381C156.962 235.749 163.796 235.749 170.63 235.116C176.841 235.74 183.675 235.74 190.509 236.381V228.842C184.913 227.586 181.813 225.696 177.464 221.303C172.492 216.277 168.144 209.37 163.796 203.711L135.836 168.528Z" fill="white"/>
<path fill-rule="evenodd" clip-rule="evenodd" d="M203.82 107.539C223.699 106.907 223.084 116.959 223.084 133.918V226.894C222.469 238.826 221.828 251.401 221.828 263.334C221.213 270.24 219.974 279.027 210.654 279.027C198.839 279.027 204.435 257.666 187.666 257.666C181.446 257.666 176.492 262.701 176.492 268.984C176.492 285.319 196.995 289.712 209.425 289.712C223.708 289.712 238.615 284.062 246.696 271.488C254.145 259.555 254.145 243.22 254.145 229.398V133.918C254.145 116.959 253.531 106.907 272.786 107.539V100C260.356 100 247.311 100.624 234.257 100.624C224.314 100.624 214.379 100 203.82 100V107.539Z" fill="white"/>
<path fill-rule="evenodd" clip-rule="evenodd" d="M272.672 196.902V238.359H279.506V213.238H321.126V207.588H279.506V196.902H272.672Z" fill="white"/>
<path fill-rule="evenodd" clip-rule="evenodd" d="M279.509 196.904V190.621H323V184.338H272.684V196.913H279.509V196.904Z" fill="white"/>
</svg>
