<svg width="360" height="360" viewBox="0 0 360 360" fill="none" xmlns="http://www.w3.org/2000/svg">
<rect width="360" height="360" rx="82" fill="#D2CA75"/>
<path d="M211.983 30.8428C210.539 32.1673 211.141 36.6222 213.067 39.3916C215.716 43.1241 214.753 44.6893 207.288 49.6259C203.796 52.034 199.823 54.9237 198.378 56.1278C197.053 57.3318 195.127 58.7767 194.043 59.4991C183.568 65.8805 160.209 82.4963 158.765 84.5432C156.477 87.7941 156.477 88.9982 158.765 88.9982C160.691 88.9982 172.972 81.8943 173.574 80.3291C173.815 79.8475 174.538 79.3658 175.14 79.3658C176.464 79.3658 183.809 74.3088 184.411 72.9844C184.652 72.5028 185.374 72.1416 185.976 72.1416C187.06 72.1416 194.043 67.0846 206.806 57.3318C208.853 55.887 211.743 53.4789 213.428 51.9136C216.92 48.6627 218.606 49.0239 219.569 52.9972C220.532 56.9706 226.793 57.9338 226.793 54.2013C226.793 52.7564 226.312 50.7096 225.589 49.5055C223.663 46.0138 219.569 36.261 219.569 35.057C219.569 33.6121 215.475 30 213.91 30C213.308 30 212.345 30.3612 211.983 30.8428Z" fill="black"/>
<path d="M140.824 88.3956C138.777 90.2017 137.693 92.4894 137.693 94.8974C137.693 97.4259 136.73 99.232 134.442 100.918C128.301 105.493 125.893 108.503 125.291 112.717C124.449 117.293 126.014 121.507 128.422 121.507C129.265 121.507 130.71 121.988 131.673 122.711C133.118 123.554 133.118 124.156 131.191 126.203C129.867 127.647 128.422 128.731 127.82 128.731C125.653 128.731 122.161 134.149 122.763 136.317C123.245 137.761 121.92 139.688 118.91 142.337C111.204 148.959 110 150.283 110 152.571C110 154.979 116.261 161.24 118.669 161.24C121.559 161.24 125.653 166.538 125.653 170.391C125.653 172.318 126.495 174.966 127.459 176.17C128.422 177.495 129.265 180.505 129.265 182.793C129.265 189.174 133.599 197.362 137.091 197.362C138.536 197.362 140.221 196.519 140.583 195.435C141.787 192.184 146.723 193.87 147.085 197.602C147.566 201.215 145.64 202.178 144.436 199.168C144.074 198.204 143.111 197.362 142.268 197.362C139.981 197.482 135.044 205.79 135.646 208.318C136.007 209.522 135.526 211.088 134.562 211.931C131.071 214.82 133.479 226.379 139.017 233.001C140.101 234.326 140.101 235.169 138.656 236.854C137.693 237.938 135.887 242.152 134.683 246.125C133.479 250.099 130.95 256.841 129.024 261.056C125.773 268.039 125.532 269.604 126.014 278.514C126.375 283.812 127.338 291.999 128.061 296.575C129.385 303.679 130.228 305.605 133.84 308.977C136.128 311.144 138.415 312.95 139.017 312.95C139.62 312.95 141.064 314.034 142.389 315.478C145.64 318.97 150.215 318.127 150.697 313.913C151.178 310.181 147.446 305.726 143.954 305.726C139.499 305.726 134.803 297.659 133.599 288.147C132.997 283.33 133.238 281.645 134.683 280.441C135.887 279.477 136.489 276.829 136.489 272.374C136.489 266.474 136.85 265.39 140.222 262.621C142.389 260.815 146.603 257.082 149.613 254.193L155.152 249.136L151.178 245.523C149.011 243.477 147.566 241.309 147.927 240.707C148.77 239.383 142.991 226.259 141.546 226.259C140.462 226.259 137.693 220.359 137.693 218.192C137.693 217.228 138.536 216.265 139.499 215.904C140.703 215.422 141.305 213.496 141.305 209.643C141.305 203.261 143.352 203.984 143.954 210.486C144.436 216.145 146.603 216.386 149.011 211.208C150.095 208.92 151.54 206.994 152.142 206.994C152.864 206.994 153.346 205.91 153.346 204.586C153.346 203.141 155.272 200.974 158.523 198.927C161.292 197.121 163.821 195.435 164.182 195.194C164.543 194.954 163.821 194.231 162.617 193.509C160.811 192.545 160.449 191.101 160.69 186.766C160.931 183.636 160.449 179.783 159.486 178.338C158.643 176.772 157.68 170.271 157.439 163.889C156.837 154.016 156.235 151.006 153.105 144.745C150.817 139.929 149.733 136.437 150.336 134.872C151.299 131.862 152.744 131.621 153.827 134.27C154.309 135.474 155.633 135.955 157.801 135.715C160.69 135.353 161.172 134.751 161.172 131.38C161.292 126.925 163.219 125.119 167.915 125.119C172.61 125.119 172.851 126.323 168.998 129.935C166.951 131.862 165.386 134.39 165.386 135.594C165.386 137.039 164.062 138.604 162.135 139.447L158.764 141.012L162.135 143.661C165.868 146.671 166.349 149.802 163.339 150.885C161.774 151.488 161.653 151.969 162.858 153.173C164.062 154.257 164.664 154.136 165.868 152.451C166.71 151.367 168.396 150.404 169.48 150.404C170.563 150.404 171.767 149.561 172.249 148.477C172.731 147.033 174.416 146.671 179.714 147.033L186.457 147.394L186.818 141.494C187.059 138.243 186.938 134.872 186.457 133.788C185.855 132.223 185.494 132.223 183.567 134.029C182.363 135.113 180.557 135.715 179.353 135.233C177.426 134.51 177.426 134.27 179.233 132.343C180.316 131.139 183.085 129.815 185.373 129.454C190.189 128.49 192.357 125.119 191.273 120.182C190.551 117.172 189.949 116.691 186.698 116.691C183.447 116.57 183.206 116.45 185.012 115.366C188.142 113.56 187.661 112.597 180.798 108.142C175.38 104.771 173.212 104.048 166.59 103.928C160.209 103.687 158.403 103.205 156.717 100.918C154.67 98.5096 154.67 98.1484 156.356 96.2219C158.041 94.2954 158.041 93.6934 156.235 89.7201C154.309 85.7467 153.707 85.3855 149.131 85.3855C145.399 85.3855 143.232 86.2283 140.824 88.3956ZM142.87 105.975C144.315 106.817 146.001 108.142 146.483 109.105C147.205 110.309 148.65 110.55 151.178 109.948C154.79 109.226 154.911 109.226 154.188 112.958C153.466 116.45 153.586 116.691 156.837 116.691C159.245 116.691 161.653 115.366 164.062 112.958C167.072 110.068 167.915 109.707 168.517 111.152C169.721 114.403 168.517 117.172 165.386 117.895C163.7 118.256 162.256 119.58 162.015 120.905C161.292 124.637 159.847 125.48 157.199 123.795C155.031 122.47 153.948 122.59 150.336 124.276C143.593 127.527 142.148 127.045 142.991 122.109C143.834 117.533 142.268 116.45 140.222 119.942C139.138 121.868 138.656 121.748 136.007 118.497C132.516 114.283 132.034 109.948 134.924 106.817C137.211 104.289 139.258 104.048 142.87 105.975ZM178.39 117.413C181.4 118.256 181.881 121.627 179.353 123.795C176.222 126.443 171.045 121.507 173.212 117.895C174.055 116.45 174.657 116.45 178.39 117.413ZM174.176 134.149C173.814 136.557 170.202 137.882 168.998 135.955C168.396 134.992 168.276 133.788 168.637 133.186C169.48 131.862 174.416 132.704 174.176 134.149ZM141.064 137.521C141.426 140.29 141.064 140.772 138.415 140.772C136.85 140.772 135.165 141.494 134.803 142.216C134.201 143.782 135.165 137.761 136.007 134.992C136.85 132.102 140.703 134.029 141.064 137.521ZM148.891 143.42C150.576 144.504 147.446 154.016 145.399 154.016C142.75 154.016 142.389 151.849 144.315 147.996C145.881 144.865 146.001 144.384 144.436 144.384C141.546 144.384 140.824 141.735 143.232 139.929C145.158 138.604 145.519 138.604 146.603 140.41C147.205 141.614 148.289 142.939 148.891 143.42ZM182.243 141.494C182.243 142.939 181.159 143.18 177.186 142.939C170.082 142.457 169.6 139.567 176.704 139.567C180.918 139.567 182.243 140.049 182.243 141.494ZM130.95 147.033C132.034 149.079 132.877 151.488 132.877 152.451C132.877 153.294 133.72 154.016 134.683 154.016C135.887 154.016 136.489 152.812 136.489 150.283C136.489 147.394 136.971 146.671 138.656 147.033C141.185 147.514 140.824 154.016 138.175 155.581C135.646 157.026 136.128 165.695 139.619 181.107C140.101 183.033 141.185 185.562 142.148 186.766C143.232 187.97 143.472 188.933 142.63 189.415C142.028 189.897 141.064 189.535 140.703 188.933C140.222 188.09 138.415 187.97 136.369 188.331C132.877 189.054 132.877 189.054 132.877 183.876C132.877 180.987 132.034 177.134 131.071 175.207C130.108 173.401 129.265 169.789 129.265 167.261C129.265 164.612 128.663 161.12 127.94 159.193C126.616 155.822 125.653 144.624 126.616 142.818C127.338 141.374 129.024 142.939 130.95 147.033Z" fill="black"/>
<path d="M175.861 151.97C168.276 154.379 167.313 155.101 164.423 160.278L161.172 165.937L163.941 168.466C165.506 169.911 166.59 172.439 166.59 174.486C166.59 178.58 168.396 179.302 169.6 175.69C170.563 172.8 172.61 173.643 172.61 176.894C172.61 178.098 173.574 180.025 174.657 181.229C178.029 184.48 179.714 188.694 180.557 195.316C182.002 206.393 190.189 218.554 194.404 215.905C196.21 214.822 195.608 212.052 193.32 211.33C192.116 210.969 190.31 208.801 189.347 206.514C187.781 203.142 187.781 202.059 189.106 200.253C189.949 199.049 190.671 196.641 190.671 194.834C190.671 192.908 191.514 190.982 192.718 190.259C195.728 188.694 198.136 177.376 195.969 175.57C195.006 174.847 194.283 172.921 194.283 171.476C194.283 167.503 193.079 164.854 191.273 164.854C189.828 164.854 189.106 162.927 187.3 154.138C186.818 151.85 185.855 149.803 185.253 149.683C184.53 149.442 180.316 150.526 175.861 151.97ZM183.447 163.048C183.447 164.011 182.724 164.854 181.761 164.854C179.714 164.854 178.39 163.168 179.473 161.964C180.918 160.519 183.447 161.242 183.447 163.048Z" fill="black"/>
<path d="M165.866 184.48C165.505 185.563 165.505 187.971 165.987 189.778L166.709 192.908L169.358 190.38L171.887 187.731L169.358 185.082C166.95 182.794 166.589 182.674 165.866 184.48ZM204.396 185.082C203.674 185.563 202.71 187.129 202.229 188.574C201.747 190.018 200.182 191.343 198.737 191.584C197.051 191.824 195.968 192.908 195.727 194.835C195.366 197.122 195.727 197.483 197.292 196.881C198.617 196.4 200.302 197.122 202.108 198.808C205.359 202.179 206.082 213.136 203.192 215.424C201.025 217.35 201.025 220.962 203.312 221.926C204.276 222.287 205.118 223.852 205.118 225.538C205.118 227.223 205.6 228.789 206.202 229.27C208.369 230.474 209.333 226.862 209.333 217.952C209.333 207.236 211.139 205.671 214.871 213.377C218.002 219.758 217.279 228.548 213.426 232.16C212.102 233.364 210.537 235.892 210.055 237.819C209.212 240.949 208.61 241.311 204.155 241.07C198.255 240.829 197.533 242.274 198.135 252.869C198.496 258.408 198.857 259.371 201.025 259.733C204.516 260.214 208.73 253.351 208.73 247.451C208.73 240.709 211.741 241.913 214.149 249.739C216.196 256.12 216.196 256.482 214.149 258.769C212.463 260.575 211.981 263.465 211.741 270.449C211.62 275.626 210.898 281.044 210.175 282.489C209.333 283.934 208.73 286.944 208.73 289.232C208.73 291.519 207.888 294.048 206.924 294.891C205.72 295.974 205.118 298.744 205.118 304.041C205.118 308.135 204.637 311.988 203.914 312.349C202.349 313.312 202.349 317.406 204.035 318.369C205.961 319.694 212.102 316.563 212.704 314.035C213.065 312.831 213.065 309.7 212.704 307.172C212.343 304.403 212.824 300.79 214.028 298.021C215.112 295.493 215.955 292.362 215.955 291.158C215.955 289.834 217.038 285.74 218.363 282.007C221.253 273.82 221.373 270.087 218.965 269.124C216.436 268.161 216.677 266.716 219.808 265.392C221.373 264.669 222.697 263.104 222.938 261.779C223.901 253.712 227.393 239.866 228.838 238.18C229.681 237.217 230.403 235.531 230.403 234.568C230.403 233.484 231.246 231.678 232.209 230.354C233.293 228.909 233.895 225.176 234.015 219.638C234.015 211.932 233.654 210.608 229.801 204.708C227.393 201.096 225.708 197.483 226.069 196.52C226.791 194.714 234.015 194.353 234.015 196.159C234.015 196.761 234.858 197.363 235.821 197.363C236.905 197.363 237.989 198.206 238.35 199.169C238.832 200.132 240.517 200.975 242.444 200.975C244.852 200.975 245.935 200.253 246.537 198.206C247.019 196.159 246.176 194.594 242.203 190.982C236.303 185.684 234.377 185.563 227.995 189.537C222.216 193.149 221.614 193.269 217.761 189.898C215.714 188.092 205.72 183.396 205.72 184.119C205.72 184.119 205.118 184.6 204.396 185.082ZM208.128 195.918C208.128 201.457 205.841 201.216 205.359 195.677C204.998 192.306 205.359 191.222 206.563 191.584C207.406 191.945 208.128 193.871 208.128 195.918ZM204.878 245.766C204.637 247.331 204.035 248.535 203.312 248.535C202.71 248.535 201.988 247.331 201.747 245.766C201.506 243.96 201.988 243.117 203.312 243.117C204.637 243.117 205.118 243.96 204.878 245.766ZM167.793 197.845C166.348 200.253 164.542 202.179 163.82 202.179C162.977 202.3 160.448 204.708 158.161 207.597C155.873 210.608 153.344 213.016 152.502 213.016C151.779 213.016 150.696 214.099 150.334 215.424C149.973 216.748 149.01 217.832 148.408 217.832C147.806 217.832 147.324 218.915 147.324 220.24C147.324 221.564 147.926 222.648 148.649 222.648C149.492 222.648 149.732 223.852 149.251 225.538C148.889 227.223 149.01 228.909 149.732 229.27C150.334 229.631 150.936 231.317 150.936 233.003C150.936 234.688 151.779 236.254 152.742 236.615C153.706 237.097 154.548 238.541 154.548 239.986C154.548 242.876 159.365 247.933 162.134 247.933C163.097 247.933 164.181 248.776 164.662 249.739C165.024 250.823 166.83 251.545 168.997 251.545H172.609V259.973C172.609 266.114 171.887 269.606 170.081 273.218C168.636 275.867 167.793 278.997 168.154 280.201C170.201 286.703 172.368 291.158 174.776 294.168C178.148 298.503 178.148 299.225 174.415 305.125C172.85 307.774 171.405 311.025 171.405 312.47C171.405 315.239 168.275 322.102 166.469 323.186C165.866 323.667 165.385 325.473 165.385 327.52C165.385 331.614 167.432 332.096 172.368 328.965C176.944 326.075 177.546 324.871 176.823 321.018C176.462 318.731 176.823 317.406 178.027 317.045C178.991 316.563 179.833 315.119 179.833 313.674C179.833 308.617 181.278 305.968 185.252 303.801C190.79 300.79 193.8 293.687 190.79 290.556C190.068 289.954 190.068 287.185 190.79 283.693C191.392 280.201 191.392 274.783 190.79 270.449C189.707 262.863 186.094 252.749 184.409 252.749C183.807 252.749 183.446 250.702 183.446 248.174C183.446 242.394 182.242 238.18 180.917 239.023C180.315 239.384 177.907 239.023 175.74 238.18C171.887 236.735 171.526 236.254 171.646 231.799C171.766 226.742 174.174 222.648 176.944 222.648C179.472 222.648 179.954 224.574 178.027 228.187C176.101 231.919 176.583 233.605 178.87 231.317C180.797 229.391 183.446 229.511 183.446 231.558C183.446 232.521 184.288 233.484 185.252 233.966C186.576 234.448 187.058 236.615 187.058 242.635C187.058 248.415 187.419 250.461 188.623 250.1C189.345 249.739 190.188 247.572 190.429 245.164C190.67 242.756 191.272 240.709 191.994 240.709C193.68 240.709 193.198 236.856 191.272 234.207C190.309 232.882 189.466 230.835 189.466 229.631C189.466 228.307 187.901 225.297 185.974 222.889C184.048 220.481 182.121 217.23 181.76 215.785C181.278 214.34 179.954 212.775 178.629 212.414C176.944 211.932 176.221 210.005 175.619 204.587C175.138 200.132 174.054 196.761 172.609 195.557C170.562 193.751 170.321 193.871 167.793 197.845ZM172.609 206.875C173.211 208.199 173.813 210.487 173.813 211.932C173.813 214.942 169.479 220.24 166.95 220.24C166.107 220.24 165.385 221.564 165.385 223.25C165.385 224.936 164.903 226.26 164.181 226.26C163.579 226.26 162.977 226.983 162.977 227.946C162.977 228.909 161.893 230.113 160.569 230.474C158.161 231.197 157.077 235.892 159.365 235.892C160.087 235.892 161.171 237.337 161.893 239.143L163.218 242.515L165.024 239.745C167.311 236.374 168.154 236.374 171.887 240.107C174.295 242.515 174.536 243.237 173.091 244.321C169.599 247.21 158.161 242.635 158.161 238.301C158.161 236.976 157.679 235.892 157.077 235.892C155.391 235.892 154.428 232.16 155.512 230.595C156.114 229.872 156.957 227.825 157.438 226.14C157.799 224.334 159.485 222.046 161.171 220.962C162.856 219.879 164.181 218.193 164.181 217.109C164.181 216.146 165.024 215.062 165.987 214.701C166.95 214.22 167.793 212.654 167.793 211.21C167.793 204.949 170.321 202.661 172.609 206.875ZM185.252 264.79C186.456 266.114 187.058 267.92 186.576 269.004C185.733 271.291 183.446 270.328 183.446 267.679C183.446 266.716 182.964 265.994 182.242 265.994C181.639 265.994 181.037 265.151 181.037 264.188C181.037 261.659 182.603 261.9 185.252 264.79ZM181.158 274.663C182.723 276.71 183.325 279.358 183.446 284.175C183.446 289.472 183.927 291.158 185.492 291.76C186.937 292.362 187.058 292.964 186.094 293.927C184.048 295.974 177.185 287.907 178.027 284.295C178.389 282.85 177.907 280.081 177.064 278.275C174.054 272.375 176.944 269.847 181.158 274.663Z" fill="black"/>
<path d="M195.491 206.03C195.491 207.716 196.334 209.402 197.297 209.883C199.585 210.726 199.585 208.318 197.297 205.308C195.611 203.02 195.491 203.02 195.491 206.03ZM192.722 218.673C192.24 219.034 191.879 220.84 191.879 222.526V225.536L194.407 223.008C195.852 221.683 196.575 219.877 196.213 219.155C195.25 217.71 193.926 217.469 192.722 218.673ZM197.658 228.907C197.297 233.603 197.538 235.65 198.983 236.734C203.438 240.466 206.327 236.613 202.595 231.917C201.391 230.232 200.307 227.462 200.307 225.777C200.307 219.997 198.14 222.526 197.658 228.907Z" fill="black"/>
</svg>
