<svg width="360" height="360" viewBox="0 0 360 360" fill="none" xmlns="http://www.w3.org/2000/svg">
<rect width="360" height="360" rx="82" fill="url(#paint0_linear)" fill-opacity="0.15"/>
<path d="M334.988 197.306C334.718 191.632 329.899 187.263 324.269 187.533C318.595 187.804 314.226 192.623 314.496 198.252C314.766 203.927 319.585 208.295 325.215 208.025C330.89 207.755 335.258 202.936 334.988 197.306Z" fill="#E60020"/>
<path d="M317.379 216.041C317.153 210.952 312.785 207.034 307.696 207.259C302.607 207.484 298.688 211.807 298.914 216.897C299.139 221.986 303.507 225.904 308.596 225.679C313.686 225.454 317.649 221.13 317.379 216.041Z" fill="#DF0428"/>
<path d="M298.056 229.868C297.831 225.274 293.958 221.762 289.364 221.987C284.771 222.212 281.258 226.085 281.483 230.679C281.708 235.273 285.581 238.786 290.175 238.605C294.724 238.335 298.282 234.462 298.056 229.868Z" fill="#D80A30"/>
<path d="M277.52 237.749C277.34 233.606 273.827 230.453 269.684 230.633C265.54 230.813 262.388 234.326 262.568 238.47C262.748 242.568 266.261 245.766 270.404 245.586C274.503 245.36 277.7 241.847 277.52 237.749Z" fill="#D00E36"/>
<path d="M257.161 239.055C256.981 235.317 253.829 232.48 250.136 232.66C246.443 232.84 243.56 235.993 243.74 239.686C243.921 243.379 247.073 246.261 250.766 246.081C254.504 245.901 257.342 242.748 257.161 239.055Z" fill="#C8113D"/>
<path d="M239.1 233.696C238.92 230.364 236.083 227.797 232.75 227.932C229.418 228.112 226.85 230.949 226.986 234.282C227.121 237.615 230.003 240.227 233.336 240.046C236.668 239.866 239.281 237.029 239.1 233.696Z" fill="#C01443"/>
<path d="M224.508 224.102C224.373 221.085 221.806 218.788 218.788 218.923C215.771 219.058 213.474 221.625 213.609 224.643C213.744 227.66 216.311 229.957 219.329 229.822C222.346 229.687 224.688 227.12 224.508 224.102Z" fill="#B81649"/>
<path d="M213.116 212.618C212.981 209.916 210.684 207.844 207.982 207.934C205.279 208.069 203.208 210.366 203.298 213.068C203.433 215.77 205.73 217.842 208.432 217.752C211.134 217.617 213.251 215.32 213.116 212.618Z" fill="#AF1654"/>
<path d="M204.07 200.505C203.935 198.073 201.909 196.181 199.432 196.316C197 196.451 195.108 198.523 195.243 200.955C195.378 203.387 197.405 205.278 199.837 205.143C202.314 205.053 204.205 202.982 204.07 200.505Z" fill="#A6165F"/>
<path d="M196.987 188.39C196.897 186.183 195.005 184.516 192.843 184.607C190.636 184.697 188.97 186.588 189.06 188.75C189.15 190.957 191.042 192.623 193.204 192.533C195.365 192.443 197.077 190.596 196.987 188.39Z" fill="#9D166A"/>
<path d="M191.505 176.59C191.505 174.609 189.883 172.987 187.902 172.987C185.92 172.987 184.299 174.609 184.299 176.59C184.299 178.572 185.92 180.193 187.902 180.193C189.883 180.193 191.505 178.572 191.505 176.59Z" fill="#931574"/>
<path d="M25 178.436C25 184.786 30.1342 189.966 36.4844 189.966C42.8346 189.966 48.0138 184.831 48.0138 178.436C48.0138 172.086 42.8796 166.907 36.4844 166.907C30.1342 166.907 25 172.041 25 178.436Z" fill="#0091DB"/>
<path d="M40.7717 155.874C41.0419 161.548 45.8608 165.917 51.4904 165.647C57.165 165.376 61.5336 160.558 61.2634 154.928C60.9932 149.253 56.1742 144.885 50.5446 145.155C44.87 145.38 40.5014 150.199 40.7717 155.874Z" fill="#0086D1"/>
<path d="M58.3686 137.092C58.5938 142.181 62.9624 146.099 68.0515 145.874C73.1407 145.649 77.0589 141.326 76.8337 136.191C76.6085 131.102 72.285 127.184 67.1508 127.409C62.0616 127.679 58.1434 132.003 58.3686 137.092Z" fill="#007BC7"/>
<path d="M77.7058 123.268C77.931 127.862 81.8042 131.375 86.3979 131.149C90.9917 130.924 94.5045 127.051 94.2794 122.457C94.0542 117.864 90.181 114.351 85.5873 114.531C81.0386 114.801 77.5257 118.674 77.7058 123.268Z" fill="#006FBC"/>
<path d="M98.2808 115.429C98.4609 119.528 101.974 122.725 106.117 122.545C110.261 122.365 113.413 118.852 113.233 114.709C113.053 110.565 109.54 107.413 105.397 107.593C101.253 107.773 98.1006 111.286 98.2808 115.429Z" fill="#0063B2"/>
<path d="M118.58 114.079C118.76 117.772 121.913 120.654 125.606 120.474C129.299 120.294 132.181 117.141 132.001 113.403C131.821 109.71 128.669 106.828 124.975 107.008C121.282 107.233 118.4 110.386 118.58 114.079Z" fill="#0D57A7"/>
<path d="M136.65 119.439C136.785 122.772 139.667 125.339 143 125.204C146.333 125.024 148.9 122.187 148.765 118.854C148.629 115.521 145.747 112.954 142.414 113.089C139.082 113.269 136.515 116.107 136.65 119.439Z" fill="#3A4A9D"/>
<path d="M151.238 129.031C151.373 132.048 153.94 134.345 156.958 134.21C159.975 134.075 162.272 131.508 162.137 128.491C162.002 125.473 159.435 123.176 156.417 123.311C153.445 123.446 151.103 126.014 151.238 129.031Z" fill="#4F3A93"/>
<path d="M162.676 140.515C162.811 143.218 165.108 145.289 167.81 145.199C170.513 145.064 172.584 142.767 172.494 140.065C172.359 137.363 170.062 135.246 167.36 135.381C164.613 135.516 162.541 137.813 162.676 140.515Z" fill="#5F258A"/>
<path d="M171.688 152.63C171.824 155.062 173.85 156.953 176.327 156.818C178.804 156.683 180.651 154.657 180.516 152.18C180.381 149.748 178.354 147.856 175.877 147.991C173.445 148.126 171.553 150.198 171.688 152.63Z" fill="#6B1685"/>
<path d="M178.804 164.745C178.894 166.951 180.786 168.618 182.948 168.528C185.155 168.438 186.821 166.546 186.731 164.384C186.641 162.177 184.749 160.511 182.587 160.601C180.381 160.691 178.669 162.538 178.804 164.745Z" fill="#80167D"/>
<defs>
<linearGradient id="paint0_linear" x1="0" y1="180" x2="360" y2="180" gradientUnits="userSpaceOnUse">
<stop stop-color="#E60020"/>
<stop offset="1" stop-color="#0091DB"/>
</linearGradient>
</defs>
</svg>
