<svg width="360" height="360" viewBox="0 0 360 360" fill="none" xmlns="http://www.w3.org/2000/svg">
<rect width="360" height="360" rx="82" fill="#560606"/>
<path d="M115.382 122.911L235.391 34.0081C237.11 32.7322 236.209 30 234.072 30H135.689C124.279 30.0008 113.336 34.5335 105.268 42.6011L42.6047 105.264C38.6081 109.258 35.4378 114 33.275 119.22C31.1122 124.44 29.9993 130.035 30 135.685V224.311C29.9993 229.961 31.1122 235.556 33.275 240.776C35.4378 245.996 38.6081 250.738 42.6047 254.732L105.26 317.392C113.33 325.46 124.274 329.993 135.685 329.993H220.912C223.287 329.993 224.008 326.781 221.864 325.768L52.4916 245.912C49.0293 244.278 46.1025 241.694 44.0522 238.46C42.0019 235.227 40.9124 231.477 40.9106 227.649V185.138C40.9106 180.701 43.012 176.524 46.5768 173.881L70.9823 155.802V122.915H115.378L115.382 122.911Z" fill="white"/>
<path d="M232.109 157.215L220.539 188.754H243.218L232.109 157.215ZM134.692 158.473C134.692 148.395 127.808 146.939 120.516 146.939H105.918V170.699H119.975C127.426 170.699 134.692 169.73 134.692 158.473Z" fill="white"/>
<path d="M319.072 106.937L260.73 48.5809C259.14 46.9904 257.041 46.0095 254.801 45.8098C252.561 45.6102 250.322 46.2045 248.475 47.4888L136.19 123.12C157.456 124.45 170.324 133.069 170.324 152.72C170.324 169.866 161.068 180.546 145.425 182.399V182.687C152.691 184.032 157.525 187.402 161.1 191.936C162.355 193.522 163.213 195.386 163.696 197.357L172.562 224.235L210.737 128.632C211.392 126.99 212.525 125.582 213.989 124.591C215.452 123.599 217.18 123.069 218.948 123.07H252.483L297.056 234.735H269.467C263.87 234.735 258.629 231.192 256.261 225.883V225.85L251.968 213.646H211.465L203.604 234.731H143.1C139.87 234.731 137.109 232.353 136.551 229.083L126.487 199.815C125.089 194.816 120.111 194.02 115.22 194.02H105.419V234.731H70.9825V167.04L50.3796 180.917C48.5161 182.215 47.4023 184.349 47.4023 186.616V229.718C47.4023 232.482 49.046 234.987 51.5835 236.087L245.84 317.403C249.445 318.971 253.64 318.174 256.423 315.409L319.014 253.067C322.495 249.601 325.258 245.48 327.142 240.943C329.027 236.406 329.997 231.542 329.997 226.629V133.317C329.997 128.418 329.033 123.566 327.159 119.038C325.284 114.511 322.536 110.398 319.072 106.933" fill="white"/>
</svg>
