<svg width="360" height="360" viewBox="0 0 360 360" fill="none" xmlns="http://www.w3.org/2000/svg">
<rect width="360" height="360" rx="82" fill="#D3C46F"/>
<path d="M239.078 228.781C239.078 228.781 240.244 228.781 241.993 228.781C245.88 228.781 252.876 228.393 257.734 225.283C261.038 223.146 265.702 219.842 270.171 216.927C274.641 214.012 279.305 211.874 281.831 211.874C284.163 211.874 286.106 211.874 287.855 211.874C288.633 211.874 289.41 211.874 290.187 211.874C296.212 211.874 300.293 211.874 309.621 210.32C310.203 210.125 310.592 209.542 310.592 208.959C310.398 208.376 309.815 207.988 309.232 207.988C299.904 209.542 296.212 209.542 290.187 209.542C289.41 209.542 288.633 209.542 287.855 209.542C286.106 209.542 284.163 209.542 281.831 209.542C278.139 209.737 273.669 212.069 269.005 214.984C264.341 217.899 259.677 221.202 256.568 223.34C252.487 226.061 245.685 226.449 241.993 226.449C240.438 226.449 239.272 226.449 239.272 226.449C238.689 226.449 238.106 226.838 238.106 227.421C237.912 228.198 238.495 228.781 239.078 228.781Z" fill="black"/>
<path d="M232.663 215.178C232.663 215.178 235.966 214.4 239.853 213.04C243.74 211.485 248.015 209.542 250.347 206.433L249.375 205.85L250.153 206.627C252.485 204.101 254.622 199.826 257.537 195.55C260.452 191.275 263.95 187.388 268.808 185.834L268.42 184.668L268.614 185.834C279.497 183.113 296.015 174.368 296.015 174.368L296.404 172.813L294.849 172.425C294.849 172.425 290.768 174.562 285.327 177.089C279.885 179.615 273.084 182.53 268.031 183.696H267.837C262.201 185.639 258.509 189.915 255.4 194.384C252.485 198.66 250.153 203.129 248.209 205.073L248.015 205.267C246.46 207.599 242.379 209.736 238.687 211.097C236.938 211.874 235.189 212.263 233.829 212.651C232.663 213.04 231.886 213.234 231.691 213.234C231.108 213.429 230.719 214.012 230.914 214.595C231.497 214.983 232.08 215.372 232.663 215.178Z" fill="black"/>
<path d="M222.946 203.129C222.946 203.129 226.25 201.575 229.748 199.437C233.246 197.105 237.327 194.19 238.881 190.886C240.242 187.777 241.991 181.947 244.323 176.506C246.655 171.065 249.958 166.012 253.845 164.457C262.201 160.959 275.416 148.522 275.61 148.522V146.968H274.055C274.055 146.968 270.752 150.077 266.477 153.575C262.201 157.073 256.954 160.959 253.068 162.514C248.015 164.652 244.906 170.093 242.379 175.729C239.853 181.364 238.104 187.389 236.938 190.109C235.772 192.635 232.08 195.55 228.776 197.688C227.027 198.854 225.473 199.631 224.112 200.214C222.946 200.797 222.169 201.186 222.169 201.186L221.586 202.741L222.946 203.129Z" fill="black"/>
<path d="M212.063 193.802C212.063 193.802 214.784 191.47 217.699 188.166C220.614 184.862 223.529 180.587 223.918 176.118C224.306 172.62 224.306 167.373 224.889 162.32C225.472 157.267 226.833 152.603 228.776 150.466L228.97 150.271C231.108 147.162 232.857 145.802 235.772 142.887C238.493 139.972 241.991 135.308 247.238 126.174L246.849 124.62L245.294 125.008C240.047 134.142 236.744 138.611 234.217 141.332C231.691 144.247 229.553 145.607 227.221 148.911L228.193 149.494L227.416 148.717C224.501 151.632 223.529 156.684 222.752 161.931C222.169 167.178 221.974 172.425 221.78 175.729C221.586 179.227 218.865 183.308 216.144 186.417C214.784 187.972 213.424 189.332 212.452 190.304C211.48 191.275 210.897 191.858 210.897 191.858L210.703 193.413L212.063 193.802Z" fill="black"/>
<path d="M137.051 113.737C137.051 113.737 138.217 117.235 139.966 121.316C141.715 125.397 144.047 130.255 146.379 132.976L147.156 132.199L146.185 132.976C152.598 141.526 154.152 149.3 154.152 156.101C154.152 159.794 153.764 163.292 153.181 166.595C153.181 167.178 152.986 167.761 152.986 168.344C152.986 173.203 155.513 177.672 157.844 180.976C160.176 184.279 162.508 186.611 162.508 186.611H164.063V185.057C164.063 185.057 163.48 184.474 162.703 183.696C160.176 180.976 155.124 174.369 155.318 168.344L155.513 166.79C155.901 163.486 156.484 159.988 156.484 156.101C156.484 148.911 154.735 140.555 147.934 131.616C145.796 129.089 143.464 124.425 141.909 120.539C140.16 116.458 138.994 113.154 138.994 113.154C138.8 112.571 138.217 112.182 137.44 112.377C137.245 112.377 136.857 113.154 137.051 113.737Z" fill="black"/>
<path d="M81.0849 150.66C81.0849 150.66 87.1092 157.073 92.7448 159.599C100.907 162.708 106.154 167.567 109.457 171.648C111.012 173.785 112.178 175.534 112.955 176.895C113.344 177.478 113.538 178.061 113.733 178.449L113.927 179.032L115.093 178.644L113.927 179.032C113.927 179.032 115.676 184.085 119.368 189.332C123.061 194.579 128.696 200.409 136.858 202.158C137.441 202.352 138.024 201.963 138.218 201.186C138.413 200.603 138.024 200.02 137.247 199.826C130.057 198.465 124.81 193.024 121.312 187.972C119.563 185.445 118.202 182.919 117.425 181.17C117.036 180.198 116.648 179.421 116.453 179.032L116.065 178.255C116.065 178.061 110.623 163.874 93.3278 157.461L92.9392 158.627L93.3278 157.656C90.8015 156.49 88.0809 154.352 85.9432 152.603C84.9716 151.632 83.9999 150.854 83.4169 150.271C82.8339 149.688 82.4453 149.3 82.4453 149.3H80.8906L81.0849 150.66Z" fill="black"/>
<path d="M214.787 114.514C214.787 114.514 213.815 117.817 211.872 122.481C210.123 127.145 207.402 133.364 204.293 139C201.572 144.052 200.795 149.688 200.795 155.129C200.795 161.348 201.961 167.178 202.349 170.287V171.453C202.349 174.757 200.795 178.449 199.24 181.364C198.463 182.724 197.686 183.89 197.103 184.862C196.52 185.639 196.131 186.222 196.131 186.222L196.325 187.777L197.88 187.583C197.88 187.388 204.487 179.615 204.487 171.647V170.093C204.098 166.789 203.127 161.153 203.127 155.129C203.127 150.077 203.904 144.635 206.43 140.166C212.843 128.506 217.119 115.291 217.119 115.291C217.313 114.708 216.924 114.125 216.341 113.931C215.564 113.542 214.981 113.931 214.787 114.514Z" fill="black"/>
<path d="M180.972 185.056C180.972 185.056 182.916 170.87 182.916 164.263C182.916 163.291 182.916 162.514 182.721 161.931C182.333 159.404 180.972 156.295 179.612 152.991C178.252 149.688 176.892 145.995 176.309 143.08C176.309 142.497 176.114 141.72 176.114 140.943C176.114 133.364 180.001 117.04 180.389 115.874V115.68V114.319C180.389 111.016 179.418 106.352 179.418 106.352C179.224 105.769 178.641 105.38 178.058 105.38C177.475 105.574 177.086 106.157 177.086 106.74C177.086 106.74 177.28 107.906 177.475 109.461C177.669 111.016 177.863 112.959 177.863 114.319V115.485L179.029 115.68L177.863 115.291C177.475 116.846 173.588 132.781 173.588 140.943C173.588 141.914 173.588 142.692 173.782 143.469C174.365 146.967 175.92 150.659 177.28 153.963C178.641 157.267 180.001 160.376 180.389 162.319C180.389 162.708 180.584 163.485 180.584 164.263C180.584 167.372 180.195 172.425 179.612 176.894C179.223 181.169 178.64 184.667 178.64 184.667C178.64 185.25 179.029 185.833 179.612 186.028C180.389 186.222 180.972 185.833 180.972 185.056Z" fill="black"/>
<path d="M107.131 113.542C107.131 113.542 107.131 114.125 107.131 115.291C107.131 119.761 107.714 132.004 116.264 138.223C125.787 145.219 127.341 150.271 129.479 154.741C130.839 157.656 132.005 162.708 132.977 167.372C133.949 172.231 134.532 176.506 135.309 178.644L136.475 178.255L135.309 178.449C135.503 180.004 136.475 181.559 137.641 183.113C141.333 187.971 147.552 193.024 147.746 193.024L149.301 192.83L149.106 191.275C149.106 191.275 148.329 190.692 147.358 189.72C145.803 188.36 143.471 186.222 141.333 183.891C139.196 181.753 137.641 179.227 137.447 178.061V177.866C136.864 176.312 136.086 171.842 135.115 166.984C134.143 162.125 133.171 157.073 131.422 153.769C129.285 149.494 127.341 143.47 117.43 136.474C110.046 131.227 109.268 119.567 109.268 115.291C109.268 114.32 109.268 113.737 109.268 113.737C109.268 113.154 108.88 112.571 108.103 112.571C107.714 112.571 107.131 112.959 107.131 113.542Z" fill="black"/>
<path d="M60.8723 177.478C60.8723 177.478 77.7791 184.668 89.0504 188.36C99.7386 191.858 103.237 200.409 107.706 206.239L107.901 206.433C115.674 214.012 127.722 214.789 127.917 214.789C128.5 214.789 129.083 214.401 129.083 213.818C129.083 213.235 128.694 212.652 128.111 212.652C128.111 212.652 127.334 212.652 126.168 212.457C122.475 211.874 114.702 210.125 109.455 205.073L108.678 205.85L109.649 205.073C105.374 199.631 101.488 190.304 89.8277 186.417C84.192 184.474 77.1961 181.753 71.5605 179.615C65.9249 177.283 61.8439 175.534 61.8439 175.534C61.2609 175.34 60.6779 175.534 60.2893 176.117C59.9006 176.506 60.2893 177.283 60.8723 177.478Z" fill="black"/>
<path d="M50.5732 214.401C50.5732 214.401 58.5408 216.538 69.812 216.538C72.144 216.538 74.6703 216.538 77.1967 216.15C77.7797 216.15 78.3627 216.15 78.9457 216.15C88.0793 216.15 96.0468 221.98 101.488 225.672H101.682C107.512 228.587 113.925 228.975 118.006 228.975C120.533 228.975 122.282 228.781 122.282 228.781C122.865 228.781 123.448 228.198 123.253 227.421C123.253 226.838 122.67 226.255 121.893 226.449C121.893 226.449 121.504 226.449 120.921 226.643C120.144 226.643 119.172 226.838 118.006 226.838C114.12 226.838 108.095 226.255 102.848 223.729L102.265 224.7L102.848 223.729C97.4071 220.036 89.0509 213.818 78.9457 213.818C78.3627 213.818 77.5853 213.818 77.0023 213.818C74.476 214.012 72.144 214.206 69.812 214.206C64.3708 214.206 59.5125 213.623 56.2088 213.235C54.4598 213.04 53.2939 212.652 52.3222 212.457C51.3505 212.263 50.9619 212.069 50.9619 212.069C50.3789 211.874 49.7959 212.263 49.6016 212.846C49.6016 213.623 49.9902 214.401 50.5732 214.401Z" fill="black"/>
<path d="M228.197 208.182H229.363C231.695 208.182 234.804 207.793 237.913 207.016C240.828 206.238 243.743 204.878 245.492 202.74C247.241 200.603 250.545 195.744 254.626 191.081C258.707 186.417 263.76 182.141 268.229 181.558H268.424C272.699 180.198 281.249 179.226 289.023 176.117C296.796 173.008 303.986 167.566 305.347 157.072L304.569 155.906L303.209 156.489C301.654 160.182 301.849 161.736 301.46 163.291C301.071 165.04 299.711 167.566 294.853 173.979C294.464 174.562 293.298 175.534 291.743 176.506C287.079 179.615 278.917 183.307 276.197 184.668C267.063 189.332 262.594 197.299 257.541 204.101C252.488 210.902 247.047 216.732 235.387 218.093C234.804 218.093 234.221 218.676 234.415 219.453C234.415 220.036 234.998 220.619 235.776 220.425C248.019 218.87 254.237 212.457 259.484 205.461C264.731 198.465 269.007 191.081 277.363 186.805C279.112 185.834 283.387 183.89 287.468 181.753C289.411 180.781 291.549 179.615 293.104 178.449C294.853 177.283 296.019 176.311 296.99 175.34C301.849 168.732 303.403 166.012 303.986 163.874C304.569 161.736 304.18 160.765 305.735 157.267L304.763 156.878L303.598 156.684C302.432 166.012 296.213 170.87 288.828 173.785C281.444 176.7 273.282 177.672 268.424 179.226L268.812 180.392L268.618 179.226C263.177 180.004 257.93 184.668 253.654 189.526C249.379 194.384 246.075 199.437 244.521 201.38C243.355 202.935 240.828 204.101 238.108 204.878C235.387 205.655 232.472 206.044 230.334 206.044H229.363C228.78 206.044 228.197 206.433 228.197 207.21C227.031 207.599 227.42 208.182 228.197 208.182Z" fill="black"/>
<path d="M234.413 220.231C236.551 221.203 239.466 221.591 242.575 221.591C245.879 221.591 249.183 221.203 252.097 220.037C256.956 218.288 262.008 215.178 266.867 212.458C271.725 209.737 276.583 207.599 280.47 207.599H281.053C285.328 207.794 292.713 209.543 300.486 209.543C309.425 209.543 318.948 207.211 324 197.105L323.612 195.551L322.057 195.745C319.336 198.66 318.948 200.215 317.976 201.575C317.004 202.935 314.867 204.879 308.065 209.348C307.482 209.737 305.927 210.32 304.178 210.709C298.737 211.875 289.798 212.652 286.883 213.041C276.583 214.401 270.948 220.037 264.729 225.089C258.51 230.142 251.514 235 237.911 235.583C237.328 235.583 236.745 236.166 236.745 236.749C236.745 237.332 237.328 237.915 237.911 237.915C251.903 237.332 259.676 232.279 266.089 227.033C272.502 221.786 277.555 216.733 287.077 215.567C289.021 215.373 293.684 214.984 298.154 214.207C300.486 213.818 302.624 213.429 304.567 213.041C306.51 212.652 308.065 212.069 309.231 211.486C316.033 207.016 318.365 204.879 319.725 203.13C321.085 201.186 321.085 200.215 323.612 197.494L322.834 196.717L321.863 196.134C317.199 205.073 309.037 207.211 300.486 207.211C293.101 207.211 285.717 205.462 281.053 205.267H280.47C275.612 205.267 270.753 207.599 265.701 210.32C260.648 213.041 255.79 216.15 251.32 217.705C248.794 218.676 245.49 219.065 242.575 219.065C239.66 219.065 236.94 218.676 235.385 217.899C234.802 217.705 234.219 217.899 233.83 218.482C233.442 219.454 233.83 220.037 234.413 220.231Z" fill="black"/>
<path d="M203.905 190.886C206.043 189.914 208.958 187.388 211.678 184.667C214.399 181.947 216.731 179.226 217.314 176.7C217.703 174.562 218.286 168.732 219.257 162.319C220.229 155.906 222.172 149.299 224.699 146.578C227.225 143.663 233.055 139.583 238.108 134.53C243.16 129.283 247.63 123.064 247.63 115.291C247.63 112.765 247.047 110.044 245.881 107.323L244.521 106.74L243.743 107.906C244.132 110.821 244.715 112.182 245.104 113.542C245.492 114.708 245.881 115.68 245.881 118.206C245.881 120.149 245.687 123.064 245.104 127.34C244.909 128.894 242.772 132.975 240.44 136.668C238.108 140.554 235.387 144.246 234.221 145.995C228.585 154.74 228.78 163.68 227.808 172.23C226.836 180.587 224.893 188.36 215.759 195.356L215.565 196.91L217.12 197.105C227.031 189.72 229.168 180.975 230.14 172.23C231.112 163.68 231.112 155.129 236.164 146.967C237.33 145.218 239.857 141.526 242.383 137.639C244.909 133.753 247.047 129.866 247.436 127.34C248.018 122.87 248.213 119.955 248.213 118.012C248.213 115.097 247.824 113.736 247.241 112.376C246.853 111.21 246.27 110.044 245.881 107.323L244.715 107.518L243.743 107.906C244.715 110.433 245.298 112.765 245.298 115.097C245.298 121.704 241.217 127.728 236.359 132.587C231.5 137.639 225.865 141.526 222.95 144.829C219.646 148.522 217.897 155.323 216.925 161.931C215.759 168.344 215.371 174.562 214.982 176.117C214.788 177.477 212.456 180.392 209.93 182.918C207.403 185.445 204.488 187.777 202.739 188.554L202.156 190.109L203.905 190.886Z" fill="black"/>
<path d="M217.31 197.299C219.641 196.911 222.751 195.356 225.666 193.607C228.581 191.858 231.301 189.72 232.662 187.777C233.439 186.805 234.216 185.056 235.382 182.53C237.131 179.032 239.269 174.368 241.795 170.093C244.322 166.012 247.042 162.32 249.569 160.765C253.261 158.627 261.034 155.907 267.836 151.826C274.637 147.55 280.662 141.332 280.662 131.809C280.662 131.032 280.662 130.255 280.467 129.478L279.301 128.506L278.135 129.478C277.941 131.032 277.747 132.198 277.747 133.17C277.747 134.336 277.941 135.113 277.941 136.085C277.941 137.834 277.552 140.36 273.86 148.522C273.277 149.882 269.973 153.186 266.67 156.101C263.172 159.016 259.674 161.931 258.119 163.291C250.152 169.898 248.208 179.032 245.099 187C242.184 194.967 238.686 201.963 227.803 206.044C227.22 206.239 226.832 207.016 227.026 207.599C227.22 208.182 227.998 208.57 228.581 208.376C240.241 204.101 244.322 196.133 247.431 187.971C250.346 179.809 252.484 171.453 259.674 165.235C261.228 163.874 264.921 161.154 268.419 158.044C271.917 154.935 275.22 152.02 276.192 149.688C279.884 141.526 280.467 138.611 280.467 136.279C280.467 135.307 280.273 134.53 280.273 133.364C280.273 132.587 280.273 131.421 280.662 130.061L279.496 129.866L278.33 130.061C278.33 130.838 278.524 131.421 278.524 132.198C278.524 140.554 273.277 146.19 266.67 150.271C260.063 154.352 252.484 156.878 248.403 159.21C244.127 161.737 240.435 167.761 237.326 173.591C235.771 176.506 234.411 179.421 233.245 181.753C232.079 184.085 231.301 186.028 230.718 186.611C229.747 187.971 227.22 190.109 224.5 191.664C221.779 193.413 218.67 194.579 216.921 194.967C216.338 195.162 215.949 195.745 215.949 196.328C216.144 196.911 216.727 197.299 217.31 197.299Z" fill="black"/>
<path d="M188.556 186.61C191.859 183.695 196.718 177.865 196.912 172.424V172.23C196.912 170.481 196.912 168.732 196.912 166.983C196.912 157.461 197.689 145.412 201.187 139.388C204.491 133.363 216.151 121.704 216.151 108.878C216.151 104.797 214.985 100.716 212.07 96.6348L210.515 96.2461L209.932 97.6064C211.292 101.493 212.458 102.27 213.236 103.825C214.013 105.38 214.79 108.1 215.762 116.262V116.651C215.762 118.594 214.596 122.87 213.041 126.951C211.681 131.031 209.932 135.112 209.349 136.861C207.794 140.942 207.406 144.829 207.406 148.521C207.406 156.1 209.349 163.096 209.349 170.092C209.349 176.311 207.989 182.335 202.353 189.137L202.548 190.691L204.102 190.497C210.126 183.501 211.681 176.505 211.681 170.092C211.681 162.708 209.738 155.712 209.738 148.521C209.738 145.023 210.126 141.331 211.487 137.639C212.07 135.89 213.819 131.809 215.179 127.728C216.734 123.453 217.9 119.372 217.9 116.651V116.068C216.928 107.906 216.151 104.991 215.179 102.853C214.207 100.716 213.236 100.327 211.875 96.8291L210.709 97.2178L209.738 97.8008C212.264 101.493 213.43 104.991 213.43 108.683C213.43 120.149 202.548 131.614 198.661 138.027C194.774 145.023 193.997 157.072 193.997 166.788C193.997 168.732 193.997 170.481 193.997 172.23V172.424C193.997 176.505 189.527 182.529 186.612 184.861L186.418 186.416L188.556 186.61Z" fill="black"/>
<path d="M142.11 194.384C137.835 193.996 131.422 193.024 127.924 186.805L126.952 187.388L127.924 186.805C123.065 177.866 116.652 165.429 108.102 160.959C103.827 158.822 95.8589 156.49 89.2516 152.409C82.6443 148.328 77.2031 142.692 77.2031 133.753V132.781H76.0371L74.8711 132.976C75.4541 135.113 75.4541 136.279 75.4541 137.445V138.223C75.4541 139.388 75.4541 140.749 76.2314 142.692C77.0087 144.83 78.1747 147.55 80.5067 152.214C81.6727 154.546 85.1707 157.267 88.863 160.182C92.5553 162.903 96.2476 165.623 97.9965 166.789C105.575 172.425 108.102 180.781 111.6 188.749C114.903 196.716 119.567 204.49 131.422 207.988C132.005 208.182 132.588 207.793 132.782 207.21C132.976 206.627 132.588 206.044 132.005 205.85C120.928 202.546 117.041 195.745 113.543 187.777C110.239 180.004 107.519 171.065 99.3569 164.846C97.6079 163.68 93.9156 160.959 90.4176 158.239C86.9197 155.518 83.4217 152.409 82.8387 151.048C80.5067 146.384 79.3407 143.664 78.7577 141.915C78.1747 139.971 78.1747 139.194 78.1747 138.028V137.251C78.1747 136.085 78.1747 134.725 77.5917 132.393L76.4258 131.421L75.4541 132.587V133.753C75.4541 143.858 81.6727 150.077 88.6687 154.352C95.6646 158.627 103.632 160.959 107.713 162.903C115.098 166.595 121.705 178.838 126.563 187.777C130.839 195.162 138.418 195.939 142.499 196.522C143.082 196.522 143.664 196.133 143.859 195.55C143.276 194.967 142.887 194.384 142.11 194.384Z" fill="black"/>
<path d="M131.419 205.85C130.642 205.85 129.67 206.045 128.504 206.045C124.229 206.045 118.593 205.073 115.873 202.158L115.095 202.935L116.067 202.158C109.46 194.19 100.132 183.891 90.8038 181.365C85.9456 180.199 77.5893 179.81 70.2047 177.089C62.6258 174.563 56.2128 170.093 54.4638 160.765L53.2978 160.96L52.3262 161.543C53.8808 164.846 53.6865 165.818 54.4638 167.956C55.2412 170.093 56.7958 172.814 62.0428 179.033C62.8201 180.004 64.3747 180.976 66.1237 181.948C71.3707 184.862 79.5326 188.166 82.2533 189.332C90.9982 193.219 95.6622 200.215 101.298 207.016C106.739 213.624 113.541 219.842 125.784 220.62C126.367 220.62 126.95 220.231 126.95 219.454C126.95 218.871 126.561 218.288 125.784 218.288C114.124 217.51 108.294 212.069 102.852 205.656C97.4111 199.243 92.5528 191.47 83.0306 187.389C81.0873 186.611 76.812 184.862 72.731 182.919C70.5933 181.948 68.65 180.976 67.0954 180.004C65.5407 179.033 64.1804 178.255 63.7918 177.672C58.5448 171.454 57.1845 168.927 56.6015 167.373C56.0185 165.818 56.2128 164.263 54.4638 160.571L53.1035 159.988L52.3262 161.348C54.2695 171.648 61.6541 176.701 69.6217 179.421C77.5893 182.142 86.1399 182.531 90.4152 183.696C98.5771 185.64 108.099 195.745 114.318 203.713C118.01 207.405 124.035 208.182 128.504 208.182C129.67 208.182 130.836 208.182 131.613 207.988C132.196 207.988 132.779 207.405 132.585 206.628C132.585 206.239 132.002 205.656 131.419 205.85Z" fill="black"/>
<path d="M125.198 218.482C123.255 219.453 119.757 220.036 116.259 220.036C113.733 220.036 111.206 219.842 109.263 219.065C104.793 217.704 99.7408 215.178 94.8825 212.652C89.8299 210.32 84.9716 208.182 80.3076 208.182H78.9473C73.8947 208.765 65.5384 211.291 57.1821 211.291C49.6032 211.291 42.2186 209.154 37.749 201.38L36.7773 201.963L36 202.741C38.7206 205.461 38.7206 206.239 40.2753 208.182C41.6356 209.931 44.1619 211.874 51.1579 215.955C52.3239 216.538 53.8785 216.927 55.8218 217.316C61.6518 218.287 70.591 218.482 73.506 218.676C82.8339 219.259 88.2752 223.728 94.6882 228.392C101.101 232.862 108.874 237.526 122.283 237.526H123.449C124.032 237.526 124.615 236.943 124.615 236.36C124.615 235.777 124.032 235.194 123.449 235.194H122.283C109.457 235.194 102.461 230.919 96.0485 226.449C89.6355 221.979 83.8056 217.121 73.7003 216.344C71.5627 216.15 67.0931 216.15 62.6234 215.761C60.2915 215.567 58.1538 215.372 56.2105 214.984C54.4615 214.595 52.9068 214.206 52.3238 213.818C45.3279 209.737 43.1903 207.988 42.0243 206.627C40.8583 205.267 40.4696 203.907 37.749 200.992H36.1943L36 202.546C41.0526 211.291 49.4089 213.623 57.5708 213.623C66.1214 213.623 74.8663 210.903 79.5303 210.514H80.6963C84.5829 210.514 89.4412 212.457 94.2995 214.789C99.1578 217.121 104.21 219.842 109.069 221.202C111.401 221.785 114.121 222.174 116.648 222.174C120.534 222.174 124.227 221.591 126.559 220.231L127.142 218.676L125.198 218.482Z" fill="black"/>
<path d="M172.029 184.474C173.001 182.919 173.973 180.198 174.75 176.7C175.527 173.397 175.916 169.51 175.916 165.818C175.916 163.097 175.722 160.571 174.944 158.627C172.224 152.409 170.863 147.745 170.863 142.887C170.863 140.36 171.252 137.834 171.835 135.113C173.195 129.672 178.248 119.178 178.248 108.879C178.248 102.466 176.11 95.8583 169.892 91H168.337L168.143 92.5547C170.475 95.8583 171.835 96.4413 173.001 97.6073C174.167 98.9676 175.722 101.3 178.831 108.879C179.219 109.656 179.414 111.793 179.414 114.32C179.414 119.955 178.636 127.534 178.442 130.449C178.442 131.421 178.248 132.587 178.248 133.364C178.248 140.943 180.58 144.83 182.717 149.688C184.855 154.546 186.993 160.571 186.993 173.202C186.993 176.7 186.798 180.587 186.41 185.057C186.41 185.64 186.798 186.223 187.381 186.223C187.964 186.223 188.547 185.834 188.547 185.251C188.936 180.781 189.13 176.7 189.13 173.202C189.13 160.376 186.798 153.769 184.661 148.716C182.329 143.664 180.385 140.36 180.385 133.364C180.385 132.393 180.385 131.615 180.58 130.449C180.774 127.729 181.746 119.955 181.746 114.125C181.746 111.599 181.551 109.267 180.968 107.907C177.859 100.328 176.304 97.6073 174.75 96.0526C173.195 94.3037 172.224 94.1093 170.086 91.1943L169.114 91.7773L168.337 92.749C173.973 97.2186 175.722 102.854 175.916 108.879C175.916 118.401 171.058 128.7 169.503 134.53C168.726 137.445 168.337 140.166 168.337 142.887C168.337 148.328 169.892 153.38 172.612 159.599L173.584 159.21L172.418 159.599C173.001 161.154 173.39 163.486 173.39 166.012C173.39 169.316 173.001 173.202 172.224 176.312C171.641 179.421 170.669 182.142 169.892 183.113L170.28 184.668L172.029 184.474Z" fill="black"/>
<path d="M155.899 187.194C153.762 186.222 151.43 186.028 149.292 184.473C147.154 183.113 145.017 180.587 143.268 174.951C139.77 163.874 140.353 153.186 131.414 145.024L130.636 145.801L131.414 145.024C128.304 142.109 122.669 138.222 117.81 133.364C112.952 128.506 109.065 122.676 109.065 115.68C109.065 113.542 109.454 111.404 110.231 109.072L109.065 108.684H107.899C107.705 111.21 107.316 112.376 106.928 113.348C106.539 114.514 106.15 115.68 106.15 117.817C106.15 119.955 106.539 123.259 107.511 128.7C108.094 131.226 110.426 134.919 113.146 138.611C115.867 142.303 118.588 145.996 119.754 147.55C125.389 155.323 125.778 163.68 127.333 172.425C128.693 180.975 131.413 189.526 141.713 196.522L143.268 196.133L142.879 194.578C133.162 188.165 131.025 180.392 129.47 172.036C128.11 163.68 127.527 154.546 121.503 146.19C120.337 144.441 117.422 140.943 114.895 137.251C112.369 133.558 109.843 129.672 109.648 128.117C108.677 122.676 108.482 119.566 108.482 117.623C108.482 115.68 108.677 114.902 109.065 113.736C109.454 112.57 109.843 111.21 110.037 108.489L109.065 107.323L107.705 108.101C106.733 110.627 106.345 113.153 106.345 115.485C106.345 123.259 110.814 129.672 115.867 134.724C120.92 139.777 126.75 143.664 129.47 146.384C137.438 153.769 137.243 163.68 140.547 175.34C142.296 181.17 144.822 184.279 147.543 186.028C150.264 187.777 152.79 188.165 154.539 188.943C155.122 189.137 155.705 188.943 156.094 188.36C156.871 188.165 156.482 187.388 155.899 187.194Z" fill="black"/>
<path d="M171.446 183.114C169.892 181.948 167.949 179.616 166.2 176.895C164.645 174.174 163.285 171.259 163.285 169.122C162.896 159.016 162.896 145.608 155.706 136.474C151.042 130.644 139.77 119.373 139.965 107.324C139.965 103.826 140.936 100.328 143.074 96.6359L142.102 96.053L140.936 95.6643C139.77 99.3566 138.993 99.7453 138.021 101.883C137.05 104.021 136.467 106.936 136.078 115.097V115.292C136.078 117.818 137.633 122.093 139.382 126.174C141.131 130.255 143.074 134.336 143.851 136.28C145.795 140.944 146.378 145.413 146.378 149.883C146.378 155.324 145.6 160.571 145.6 166.012C145.6 173.397 147.155 181.17 154.345 188.749H155.9V187.194C149.098 180.004 147.738 173.203 147.738 166.012C147.738 160.765 148.515 155.324 148.515 149.883C148.515 145.219 147.932 140.361 145.795 135.502C145.017 133.559 143.074 129.672 141.325 125.591C139.576 121.51 138.216 117.235 138.216 115.486V115.292C138.604 107.13 139.187 104.409 139.965 102.855C140.548 101.3 141.714 100.328 142.88 96.4416L142.297 95.0813L140.936 95.47C138.41 99.3566 137.438 103.438 137.438 107.324C137.438 120.733 149.293 132.199 153.762 137.834C160.37 145.996 160.564 159.016 160.758 169.122C160.953 172.037 162.313 175.146 164.062 178.061C165.811 180.976 167.949 183.502 169.892 184.863L171.446 184.668V183.114Z" fill="black"/>
<path d="M120.342 138.029C115.29 133.365 109.071 129.284 109.071 119.956C109.071 117.43 109.46 114.515 110.626 111.211C110.82 110.628 110.432 110.045 109.849 109.851C109.266 109.656 108.683 110.045 108.488 110.628C107.322 114.32 106.934 117.43 106.934 120.15C106.934 130.838 114.318 135.502 118.982 139.972H120.537L120.342 138.029Z" fill="black"/>
<path d="M321.276 237.526H40.0781C39.4951 237.526 38.9121 238.109 38.9121 238.692C38.9121 239.275 39.4951 239.858 40.0781 239.858H321.276C321.859 239.858 322.442 239.275 322.442 238.692C322.442 238.109 321.859 237.526 321.276 237.526Z" fill="black"/>
<path d="M164.064 248.797H316.032C316.615 248.797 317.198 248.214 317.198 247.631C317.198 247.048 316.615 246.465 316.032 246.465H164.064C163.481 246.465 162.898 247.048 162.898 247.631C162.898 248.214 163.287 248.797 164.064 248.797Z" fill="black"/>
<path d="M134.135 246.465H43.1875C42.6045 246.465 42.0215 247.048 42.0215 247.631C42.0215 248.214 42.6045 248.797 43.1875 248.797H134.135C134.718 248.797 135.301 248.214 135.301 247.631C135.301 246.854 134.718 246.465 134.135 246.465Z" fill="black"/>
</svg>
