<svg width="360" height="360" viewBox="0 0 360 360" fill="none" xmlns="http://www.w3.org/2000/svg">
<rect width="360" height="360" rx="82" fill="black"/>
<path fill-rule="evenodd" clip-rule="evenodd" d="M31.8034 135V144.652C50.8387 152.427 161.296 152.159 178.991 151.891C196.683 152.159 307.141 152.427 326.176 144.652V135H31.8034ZM31.8034 220.791V211.139C50.8387 203.366 161.296 203.632 178.991 203.902C196.683 203.632 307.141 203.364 326.176 211.139V220.791H31.8034ZM111.804 188.148C109.672 188.148 107.943 186.286 107.943 184.152V173.244C107.943 171.11 109.671 169.383 111.804 169.383H137.06C139.192 169.383 140.92 171.11 140.92 173.244V184.152C140.92 186.286 139.192 188.148 137.06 188.148H111.804ZM103.688 197.735H145.179C146.345 197.735 147.5 197.505 148.577 197.059C149.655 196.613 150.634 195.958 151.458 195.134C152.283 194.309 152.937 193.33 153.383 192.252C153.829 191.175 154.058 190.02 154.058 188.854V168.143C154.058 166.977 153.829 165.823 153.382 164.745C152.936 163.668 152.282 162.689 151.457 161.864C150.633 161.04 149.654 160.386 148.577 159.94C147.499 159.493 146.345 159.264 145.179 159.264H103.688C101.333 159.264 99.0742 160.199 97.4089 161.864C95.7436 163.53 94.8081 165.788 94.8081 168.143V188.854C94.8081 191.209 95.7436 193.468 97.4088 195.133C99.074 196.799 101.333 197.735 103.688 197.735ZM46.1477 177.896H70.8402C71.864 177.896 72.8457 177.489 73.5695 176.765C74.2932 176.041 74.6998 175.059 74.6998 174.035V173.309C74.6998 172.285 74.2932 171.303 73.5695 170.579C72.8457 169.855 71.864 169.448 70.8402 169.447H46.1477V177.896ZM46.1477 197.735H31V159.262H81.8046C85.96 159.262 88.6415 162.479 88.6415 165.294V177.625C88.6415 180.576 87.1485 182.113 82.7428 183.256C85.8252 183.522 88.6415 186.606 88.6415 188.217V197.735H73.4938V192.775C73.4938 190.361 72.8234 187.947 69.2054 188.084H46.1477V197.735ZM288.51 177.896H313.199C313.706 177.896 314.208 177.797 314.676 177.602C315.145 177.408 315.57 177.124 315.928 176.765C316.287 176.407 316.571 175.981 316.765 175.513C316.959 175.044 317.059 174.542 317.058 174.035V173.309C317.059 172.802 316.959 172.3 316.765 171.831C316.571 171.363 316.287 170.937 315.928 170.578C315.57 170.22 315.145 169.935 314.676 169.741C314.208 169.547 313.706 169.447 313.199 169.447H288.478L288.51 177.896ZM288.48 197.735H273.362V159.262H324.167C328.32 159.262 331 162.479 331 165.294V177.625C331 180.576 329.509 182.113 325.103 183.256C328.187 183.522 331 186.606 331 188.217V197.735H315.852V192.775C315.852 190.361 315.182 187.947 311.562 188.084H288.51L288.48 197.735ZM267.328 159.262H219.34V197.735H267.465V190.095H232.34V181.649H265.988V174.945H232.34V166.904H267.328V159.262ZM173.608 177.896H196.983C198.006 177.896 198.988 177.489 199.712 176.765C200.436 176.041 200.842 175.059 200.842 174.035V173.309C200.842 172.285 200.436 171.303 199.712 170.579C198.988 169.855 198.006 169.448 196.983 169.447H173.629L173.608 177.896ZM173.629 197.735H160.626V159.262H206.088C207.001 159.262 207.905 159.441 208.748 159.79C209.591 160.139 210.357 160.651 211.003 161.297C211.648 161.942 212.16 162.708 212.51 163.551C212.859 164.394 213.039 165.298 213.039 166.211V181.133C213.039 182.045 212.859 182.949 212.509 183.792C212.16 184.635 211.648 185.401 211.002 186.046C210.357 186.691 209.591 187.203 208.748 187.552C207.904 187.901 207.001 188.08 206.088 188.08H173.608L173.629 197.735Z" fill="white"/>
</svg>
