<svg width="360" height="360" viewBox="0 0 360 360" fill="none" xmlns="http://www.w3.org/2000/svg">
<rect width="360" height="360" rx="82" fill="#0F7FCA"/>
<path d="M136.487 286.822C136.487 301.57 124.517 313.54 109.769 313.54C94.9701 313.54 83 301.57 83 286.822V152.977C83 138.229 94.9701 126.259 109.769 126.259C124.517 126.259 136.487 138.229 136.487 152.977V286.822Z" fill="white"/>
<path d="M239.573 122.267C241.997 119.843 243.513 116.51 243.513 112.823C243.513 105.448 237.502 99.4381 230.128 99.4381H109.769C94.9701 99.4381 83 87.4677 83 72.7196C83 57.9714 94.6672 46.0517 109.466 46.0517L230.128 46C267.201 46 297 76.0014 297 113.023C297 132.822 288.363 150.651 274.676 162.925L210.683 226.918C206.743 230.504 204.824 234.847 204.824 240.605C204.824 251.414 213.36 260 224.168 260L270.282 259.948C285.03 259.948 297 272.02 297 286.717C297 301.516 285.03 313.486 270.282 313.486H224.118C183.964 313.486 151.286 280.303 151.286 240.2C151.286 219.239 161.438 200.501 172.954 188.935L239.573 122.267Z" fill="white"/>
</svg>
