<svg width="360" height="360" viewBox="0 0 360 360" fill="none" xmlns="http://www.w3.org/2000/svg">
<rect width="360" height="360" rx="82" fill="#D41E4C"/>
<path d="M329.96 151.278C329.294 140.092 325.965 129.573 321.837 119.32C317.044 107.468 308.122 96.9488 289.879 97.8809C281.757 98.2804 273.501 98.0141 265.245 98.0141C250.331 97.881 235.55 97.881 220.77 97.7478C216.109 97.7478 211.316 97.7478 206.389 97.7478C209.584 107.735 212.78 117.189 215.71 126.643C216.509 129.573 217.974 130.239 220.637 130.105C232.754 130.105 245.005 130.239 257.122 130.239C260.052 130.239 262.981 130.239 266.044 130.239C265.511 131.304 264.979 131.836 264.313 132.369C252.462 141.024 240.61 149.946 228.626 158.601C227.028 159.667 226.496 160.732 227.161 162.596C229.425 169.121 231.423 175.646 233.553 182.17C234.618 185.633 235.817 188.962 237.015 192.69C250.065 182.836 262.848 173.515 275.365 163.795C277.229 162.33 278.294 159.933 279.626 158.069C279.759 158.335 280.025 159.001 280.292 159.667C282.689 167.124 284.952 174.447 287.482 181.771C289.613 188.029 292.676 189.228 298.801 186.565C299.733 186.165 300.798 185.766 301.597 185.233C310.519 179.774 318.642 173.515 325.566 165.659C329.161 161.797 330.226 156.604 329.96 151.278ZM288.548 154.34C284.287 157.27 280.425 155.406 278.694 150.612C276.297 144.087 274.3 137.429 272.169 130.771C288.414 130.771 304.127 130.771 319.84 130.771C319.973 131.037 319.973 131.304 320.106 131.437C309.72 139.16 299.334 147.017 288.548 154.34Z" fill="white"/>
<path d="M136.744 139.291C122.763 139.291 108.914 139.158 95.0655 139.424C91.0707 139.558 86.8097 139.291 83.2144 142.088C83.4807 140.889 83.8802 139.824 84.2797 138.626C86.4102 131.968 88.6739 125.176 90.8044 118.519C92.935 111.727 91.4702 109.064 84.2797 107.466C83.6139 107.333 83.0812 107.2 82.5486 107.2C74.5591 107.2 66.7027 107.067 58.8463 107.333C46.4626 107.6 38.7394 114.391 34.3451 125.576C31.5488 133.033 28.4861 140.357 26.4888 147.947C22.8935 161.662 25.4235 174.845 38.3399 184.033C60.7106 199.879 82.6818 216.39 104.786 232.636C105.452 233.168 105.985 233.435 106.783 233.967C107.05 233.168 107.449 232.502 107.582 231.97C110.645 222.649 113.575 213.461 116.637 204.273C117.303 202.409 117.037 201.343 115.439 200.278C103.721 191.756 91.8697 182.967 80.1517 174.312C79.3528 173.779 78.5538 173.114 77.7549 172.581C78.8201 171.915 79.7523 171.915 80.6844 171.915C95.3318 171.782 109.979 171.782 124.76 171.782C126.757 171.782 127.689 171.249 128.222 169.385C129.687 164.458 131.285 159.798 132.883 154.871C134.481 149.811 136.212 144.751 137.809 139.558C137.41 139.424 137.011 139.291 136.744 139.291ZM79.4859 148.479C77.4886 155.137 75.2249 161.662 72.9612 168.719C59.9116 159.132 47.2615 149.811 34.6115 140.357C34.7446 140.09 34.7446 139.824 34.7446 139.558C36.8752 139.558 39.1388 139.558 41.2694 139.558C50.99 139.424 60.8437 139.424 70.5643 139.424C71.6296 139.424 72.828 139.424 73.8933 139.691C78.687 140.49 80.9507 143.819 79.4859 148.479Z" fill="white"/>
<path d="M291.339 262.864C283.616 239.561 276.292 215.992 268.702 192.556C267.637 189.094 266.438 185.765 265.24 182.036C256.185 188.561 247.53 194.82 238.874 201.211C238.342 201.611 238.209 203.209 238.342 204.141C241.671 214.793 245 225.446 248.462 236.232C249.793 240.493 251.125 244.754 252.457 248.882C251.125 248.616 250.326 248.083 249.527 247.551C237.676 239.028 225.692 230.373 213.841 221.851C212.509 220.786 211.577 220.652 209.979 221.718C201.989 227.577 194 233.436 185.877 239.295C185.345 239.694 184.945 240.094 184.279 240.759C185.877 241.958 187.342 243.023 188.807 244.088C199.726 251.812 210.512 259.668 221.564 267.391C223.961 268.989 226.757 269.788 229.686 270.986C228.222 272.052 226.624 273.383 224.893 274.582C219.566 278.443 214.24 282.172 208.914 286.167C205.185 288.963 204.653 291.892 207.316 295.754C208.381 297.352 209.713 299.083 211.311 300.148C217.968 304.942 224.893 309.736 231.817 314.13C239.807 319.323 248.196 318.924 256.451 314.663C265.506 310.002 274.161 304.409 281.618 297.485C291.872 288.164 295.866 276.979 291.339 262.864ZM268.436 300.814C266.705 299.616 265.107 298.417 263.376 297.352C255.652 291.759 247.796 286.3 239.94 280.707C239.54 280.441 239.141 280.041 238.741 279.775C232.749 274.981 232.749 270.853 238.874 266.326C243.801 262.731 248.728 259.135 253.788 255.54C253.921 255.407 254.055 255.407 254.587 255.274C259.381 270.321 264.175 285.368 268.968 300.415C268.702 300.548 268.569 300.681 268.436 300.814Z" fill="white"/>
<path d="M180.577 247.684C178.979 246.486 178.047 246.619 176.582 247.817C164.731 256.34 152.88 264.862 141.029 273.384C140.23 273.917 139.431 274.582 138.099 275.514C138.499 274.05 138.632 273.251 138.898 272.452C143.426 258.337 147.953 244.089 152.48 229.841C153.013 228.11 152.747 227.311 151.282 226.246C146.755 223.183 142.36 219.721 137.833 216.525C133.838 213.596 129.843 210.666 125.582 207.604C125.316 208.269 125.05 208.669 125.05 209.068C121.588 219.987 117.992 231.039 114.53 242.092C112.666 248.084 109.603 253.81 111.601 260.867C110.003 259.802 108.937 259.003 107.872 258.204C101.88 253.81 95.8879 249.415 89.8958 245.154C86.3005 242.624 83.2378 243.024 80.4415 246.619C78.8436 248.75 77.3789 251.146 76.5799 253.676C74.183 261.4 72.1857 269.256 70.1883 276.979C68.0577 285.368 70.9872 292.426 76.8462 298.418C83.9036 305.875 91.8932 312.133 100.682 317.193C113.598 324.783 126.115 324.783 138.632 315.196C158.073 300.548 178.18 286.567 198.021 272.185C200.684 270.321 203.214 268.324 206.143 266.327C197.355 260.068 188.966 253.943 180.577 247.684ZM94.8227 306.407C94.6895 306.274 94.5563 306.141 94.29 306.141C94.6895 304.943 94.9558 303.744 95.3553 302.546C98.418 292.559 101.614 282.705 104.676 272.718C104.943 271.786 105.209 270.987 105.609 270.055C108.139 264.329 112 263.264 117.06 266.859C121.854 270.321 126.514 273.65 131.308 277.246C131.974 277.778 132.507 278.178 133.306 278.843C120.389 288.031 107.606 297.219 94.8227 306.407Z" fill="white"/>
<path d="M219.993 66.1878C217.995 57.2662 214.666 48.8772 210.805 40.7545C207.609 34.0965 202.416 29.9686 195.225 28.3707C183.507 25.8407 171.656 25.3081 159.938 26.906C146.622 28.7702 137.568 35.8276 133.44 49.2766C126.515 71.6473 118.925 93.7516 111.602 116.122C110.137 120.517 108.672 125.044 107.074 129.838C117.86 129.838 128.38 129.705 138.766 129.971C140.63 129.971 141.429 129.438 142.095 127.574C145.424 117.454 148.753 107.467 152.082 97.3469C153.68 92.5532 155.278 87.8927 157.009 82.4332C157.675 84.0311 158.074 84.9632 158.34 85.8953C162.868 99.6106 167.395 113.326 171.923 127.174C172.588 129.172 173.52 129.971 175.651 129.971C184.04 129.838 192.429 129.838 200.818 129.838C202.815 129.838 204.813 129.838 206.943 129.838C206.81 129.039 206.677 128.639 206.544 128.107C202.15 114.924 197.888 101.741 193.494 88.6916C192.296 85.0963 191.097 81.2347 187.635 78.5716C188.567 78.5716 189.499 78.5716 190.432 78.5716C198.155 78.5716 205.745 78.5716 213.468 78.5716C218.395 78.5716 220.259 76.8405 220.659 71.7805C220.659 69.9162 220.392 68.052 219.993 66.1878ZM178.58 77.1068C172.056 77.1068 165.664 77.1068 158.607 77.1068C163.8 61.7936 168.594 46.8798 173.92 31.3002C174.453 32.4986 174.719 33.1644 174.985 33.8302C178.58 44.2166 182.043 54.7361 185.638 65.1225C185.904 65.7883 186.17 66.5873 186.304 67.3862C187.902 73.911 185.372 77.1068 178.58 77.1068Z" fill="white"/>
</svg>
