<svg width="360" height="360" viewBox="0 0 360 360" fill="none" xmlns="http://www.w3.org/2000/svg">
<rect width="360" height="360" rx="82" fill="#E31937"/>
<path d="M90.7806 187.923H86.9467V179.971H90.7806V187.923ZM274.227 188.982H270.581V167.782H274.227V188.982ZM233.122 174.614H229.466V167.782H233.122V174.614ZM169.697 171.67V161.541H163.808V151H146.374V161.541H132.649L127.408 180.094L122.345 161.541H105.5L118.87 196.702L113.98 209.895H131.059L146.312 169.964V196.876H163.806V171.67H169.697ZM333 196.876V170.79C333 167.841 331.763 165.31 329.293 163.193C326.935 161.186 324.346 160.189 321.463 160.245C316.689 160.304 313.158 161.597 310.858 164.071L310.796 160.772H294.138V196.874H311.45V171.67H315.039V196.876H333ZM107.738 196.876V173.671C107.738 169.08 105.914 165.547 102.383 163.014C99.0818 160.658 94.8443 159.481 89.6017 159.54C83.4771 159.598 78.7053 160.835 75.232 163.195C72.2277 165.192 70.7535 167.61 70.7535 170.495V172.088H87.1261V167.782H90.7825V174.493L82.4178 174.674C73.8233 174.846 69.4587 178.265 69.4046 184.864C69.2831 193.225 73.1114 197.407 80.8259 197.407C85.4763 197.407 89.0112 195.695 91.4271 192.226L91.4887 196.876H107.738ZM251.317 178.441C251.201 172.376 249.906 167.899 247.49 165.074C244.37 161.366 239.013 159.54 231.357 159.54C224.875 159.54 220.219 160.482 217.395 162.421C213.331 165.19 211.33 170.553 211.33 178.441C211.33 186.157 213.45 191.46 217.69 194.346C220.576 196.349 225.109 197.347 231.293 197.408C237.242 197.466 241.773 196.525 244.899 194.46C247.662 192.639 249.607 189.752 250.67 185.866C250.846 185.1 250.962 184.451 251.023 183.867H233.179V188.984H229.468V180.563H251.199C251.262 179.797 251.317 179.091 251.317 178.441ZM292.363 178.441C292.363 170.614 290.36 165.368 286.358 162.543C283.589 160.596 278.937 159.54 272.398 159.54C265.862 159.54 261.21 160.542 258.441 162.485C254.499 165.312 252.494 170.614 252.494 178.441C252.494 186.394 254.497 191.693 258.441 194.458C261.208 196.403 265.862 197.407 272.398 197.407C278.879 197.407 283.527 196.465 286.358 194.458C290.36 191.633 292.363 186.273 292.363 178.441ZM67.9323 163.251C68.05 159.836 66.9252 156.949 64.8065 154.595C62.6298 152.177 59.7395 151 56.0308 151H27V196.876H45.3736V179.797H49.4354V196.876H67.8706V182.391C67.8706 179.797 67.3979 177.914 66.3965 176.677C64.9877 174.91 63.5154 173.789 62.0394 173.262C64.0386 172.085 65.4548 170.906 66.2209 169.727C67.2204 168.196 67.809 166.014 67.9323 163.251ZM210.214 196.876V169.962C210.214 167.197 209.153 164.897 207.087 163.012C205.032 161.186 202.554 160.245 199.669 160.245C197.607 160.245 195.55 160.596 193.485 161.304C191.422 162.01 189.894 162.894 188.893 163.895V151H171.343V196.876H188.893V171.67H192.543V196.876H210.214ZM49.4971 169.783H45.4894V159.77H49.4989V169.783H49.4971Z" fill="white"/>
</svg>
