<svg width="360" height="360" viewBox="0 0 360 360" fill="none" xmlns="http://www.w3.org/2000/svg">
<rect width="360" height="360" rx="82" fill="#27B35A"/>
<path d="M97.0978 248.639C91.7064 243.248 91.6967 234.506 97.0978 229.105C124.025 202.178 124.025 158.363 97.0978 131.436C91.7065 126.045 91.6967 117.303 97.0978 111.902C102.489 106.511 111.24 106.511 116.632 111.902C154.332 149.602 154.322 210.948 116.632 248.639C111.231 254.04 102.489 254.03 97.0978 248.639ZM136.165 287.707C130.764 282.306 130.764 273.574 136.165 268.173C184.639 219.7 184.629 140.832 136.165 92.3684C130.774 86.9771 130.774 78.2259 136.165 72.8346C141.557 67.4432 150.308 67.4432 155.699 72.8346C214.936 132.071 214.936 228.47 155.699 287.707C150.298 293.108 141.567 293.108 136.165 287.707ZM175.233 326.774C169.832 321.373 169.832 312.642 175.233 307.24C245.242 237.231 245.242 123.31 175.233 53.3007C169.842 47.9094 169.842 39.1582 175.233 33.7669C180.624 28.3756 189.376 28.3756 194.767 33.7669C275.549 114.549 275.549 245.992 194.767 326.774C189.366 332.175 180.634 332.175 175.233 326.774Z" fill="white"/>
</svg>
