<svg width="360" height="360" viewBox="0 0 360 360" fill="none" xmlns="http://www.w3.org/2000/svg">
<rect width="360" height="360" rx="82" fill="#007042"/>
<path d="M178.706 79.3884C184.163 82.5335 189.951 86.581 194.357 90.8703L192.626 92.6096C183.931 91.6853 174.774 92.8389 166.532 92.966C165.613 92.0385 163.761 90.6442 165.486 89.4791L178.706 79.3884ZM332.439 187.39C332.555 191.314 332.924 194.684 331.393 198.701C315.509 203.218 305.076 186.401 289.664 188.937L291.406 197.654C305.665 198.123 314.57 211.796 329.301 211.208C327.208 215.388 330.234 226.4 320.963 221.998C311.339 219.686 304.381 211.208 293.835 211.208C292.562 213.545 293.368 216.779 293.145 219.543C304.27 221.289 312.272 230.691 323.394 232.428C322.348 236.25 321.311 240.53 318.178 242.861C309.13 240.659 302.062 232.533 292.429 232.765L290.713 240.77C299.868 241.005 305.783 249.105 314.011 251.536C314.237 254.912 311.219 257.929 309.481 260.943C302.177 258.749 296.607 252.475 288.261 252.937C288.146 249.793 290.012 246.223 289.308 242.861C279.935 245.649 273.65 236.94 266.703 231.716C266.503 214.62 248.506 203.405 247.555 187.39C247.373 184.197 247.86 180.788 249.314 177.125C255.229 163.448 253.371 145.692 246.885 132.94C244.915 129.585 241.423 126.936 238.168 124.963C242.929 135.054 248.732 146.977 245.836 159.38C245.5 168.958 239.849 178.157 239.784 187.39C239.762 190.682 240.465 193.974 242.358 197.298C249.899 210.879 263.465 223.734 258.364 240.767C256.961 245.998 252.785 250.043 251.743 255.368C260.564 262.674 268.905 270.907 280.61 271.37C284.781 268.707 282.464 256.894 291.044 262.342L303.571 268.609C302.658 271.962 299.851 274.968 297.308 277.277C292.555 274.964 287.918 272.19 281.992 272.417C280.244 274.27 278.741 276.352 278.874 279.012C283.044 279.699 286.87 281.459 290.354 283.898C288.736 287.381 285.584 289.565 282.686 292.232L272.968 288.758C271.346 291.08 267.976 293.519 269.158 296.067C271.351 297.006 273.783 298.276 275.397 299.902C271.108 304.539 265.671 307.521 260.44 310.668C255.934 295.94 241.087 285.614 242.361 268.582L241.672 267.893C238.182 271.816 239.348 278.091 239.573 283.183C243.75 293.851 253.712 302.091 255.223 313.789C253.479 316.8 249.546 317.4 246.529 318.675C246.879 297.583 214.885 281.585 235.402 260.25C242.245 249.803 253.709 239.833 249.647 225.45C245.476 211.562 230.725 202.958 230.856 187.39L230.878 186.176C234.238 169.941 244.445 152.665 236.095 135.395C233.768 128.448 228.569 120.554 221.497 117.651C232.04 129.718 236.22 149.408 230.189 165.646C227.149 172.105 222.964 179.8 222.544 187.393H222.519C222.295 191.358 223.104 195.301 225.663 199.04C233.668 212.029 247.572 226.297 239.574 243.224C230.532 256.782 214.766 270.573 223.571 288.431C229.947 299.096 239.809 309.738 237.149 322.849L226.715 326.323C233.671 301.869 199.584 287.5 213.853 263.038C222.663 249.938 238.42 237.648 229.501 220.262C224.168 209.49 213.15 203.114 213.498 189.652L213.877 187.392C217.468 168.299 231.981 150.227 221.833 129.824C219.166 123.8 213.837 117.658 207.922 114.177L207.564 114.535C219.395 126.011 222.995 144.894 216.616 160.074C213.64 168.98 207.108 177.851 205.78 187.395C205.149 191.895 205.681 196.558 208.281 201.471C215.816 213.402 229.029 226.058 220.784 241.484C212.101 254.224 197.605 266.621 203.395 283.19C209.773 297.686 223.09 311.495 215.899 329.469L205.133 331.9C213.709 314.383 200.85 297.002 193.318 281.81C184.154 260.014 213.005 249.578 213.468 229.65C213.358 216.789 199.685 209.486 196.795 197.662C190.877 192.669 184.743 199.647 177.668 198.352C172.445 199.401 164.423 191.162 161.305 200.093C157.592 213.186 140.676 222.812 148.111 238.342C155.185 252.142 172.209 262.234 166.522 280.094C161.43 296.776 144.61 312.66 155.042 331.9C150.757 330.512 142.754 333.17 142.87 326.324C136.265 303.023 164.431 289.449 155.732 266.161C151.683 251.896 133.237 244.016 137.298 226.86C140.3 212.737 156.148 202.864 153.925 187.394C153.744 186.098 153.426 184.773 152.97 183.391C147.055 166.697 134.988 150 142.18 130.516C144.155 124.952 148.099 120.2 151.565 115.226C140.088 121.368 134.298 134.356 134.535 147.568C134.035 161.937 144.649 174.246 146.159 187.394C146.753 192.7 145.884 198.134 142.18 203.898C134.651 214.115 124.804 224.887 129.318 238.34C133.611 251.909 150.535 260.129 149.492 275.901C149.377 294.558 127.698 306.175 133.842 327.04L123.052 323.539C118.768 304.998 138.472 295.512 138.698 278.357C141.487 258.628 116.325 251.309 117.835 232.077C117.727 217.466 130.589 208.212 136.269 195.921C137.244 192.931 137.568 190.104 137.438 187.395C136.741 173.806 124.497 163.181 126.529 147.903C127.212 136.659 131.038 126.802 138.344 118.346C128.264 122.395 124.1 133.999 121.315 143.739C116.483 159.356 128.018 173.403 129.175 187.396C129.687 193.575 128.177 199.718 122.363 205.999C114.012 215.84 105.543 228.258 111.572 241.486C117.957 256.08 138.017 267.44 129.316 285.644C124.57 297.123 113.203 305.812 113.67 319.371C110.658 318.095 107.534 316.824 104.975 314.512C104.975 297.242 129.541 286.455 117.836 268.254C116.8 271.845 116.577 276.726 115.765 280.783C111.703 291.337 103.011 299.786 99.7589 310.696C94.3202 308.598 88.6334 304.187 84.1096 299.551L90.3758 295.716C89.6797 293.393 87.8278 291.425 86.2084 289.454C82.1389 288.882 79.467 291.552 76.1124 292.598C73.2143 290.043 70.4173 287.723 68.1069 284.594C70.187 278.669 86.4397 283.568 78.206 273.828C72.6474 270.352 67.0679 275.317 62.2002 277.634L55.6016 269.3C61.2821 265.825 66.9481 260.945 74.0136 262.345C75.755 265.48 75.8758 270.092 79.2304 271.729C91.173 271.496 99.6349 262.463 108.79 255.39C102.409 245.895 97.2152 232.787 102.883 221.305C107.425 209.799 119.258 200.109 119.795 187.389C119.915 184.494 119.464 181.448 118.198 178.169C111.941 162.053 109.733 140.272 121.676 126.007C115.182 127.752 111.353 135.845 109.147 141.99C101.968 157.727 111.048 172.306 111.362 187.388C111.405 190.1 111.185 192.819 110.527 195.558C104.381 207.961 94.4223 218.844 92.8049 233.116C85.7311 237.629 79.9234 245.52 69.8441 242.857C69.4898 245.521 70.3016 249.581 71.2259 252.598C63.2329 252.262 57.7827 258.153 51.0528 260.936C47.4679 259.785 46.5352 255.151 45.1471 251.908C53.0244 249.247 58.7071 241.35 67.7515 241.475C68.7999 238.563 67.1638 235.894 66.7021 233.114C55.4515 228.121 37.6179 257.8 36.1183 232.068C47.3606 231.372 54.5449 220.936 65.6788 219.896L66.0112 211.561C53.3756 210.285 45.2471 223.275 32.6168 221.994L29.8312 210.872C44.4416 211.784 53.1464 198.691 67.0606 197.987C68.9093 195.556 69.1323 191.961 69.4887 188.603C54.301 186.624 43.8789 203.455 27.7595 198.343C27.7595 198.343 27.204 191.338 26.9029 187.389H26.9247C26.8153 185.844 26.7111 184.768 26.7111 184.768C41.085 190.345 53.7143 180.021 66.0112 174.692C69.1386 173.756 74.0157 175.378 75.4184 171.904C75.2964 169.237 80.16 166.119 76.1114 164.258C58.1339 161.818 46.1913 183.502 27.7574 173.642L26.3745 170.854C30.2095 118.462 59.7575 67.8095 108.79 42.8832C128.648 31.5346 153.319 25.7498 178.2 25.5445C208.226 25.2955 238.566 33.1718 261.136 49.1484C283.054 62.5926 304.019 84.749 315.397 107.241C326.279 126.947 331.287 149.06 332.782 172.601C313.766 186.97 301.008 159.064 281.644 165.309C282.687 168.329 283.264 171.454 285.478 174.004C302.64 173.883 314.459 191.853 332.424 184.771L332.439 187.39ZM114 122.864C101.942 114.979 86.6544 122.404 75.4163 126.698C74.3731 116.144 70.0869 106.528 61.1498 99.573C60.2827 99.1416 59.0843 98.2339 58.0047 98.1672C57.3586 98.1266 56.7437 98.3871 56.2664 99.2135C60.3171 124.133 44.1175 141.522 32.6376 160.426C36.4601 163.55 42.6012 163.083 47.2376 162.165C59.4074 157.299 70.9998 148.828 85.4904 151.732C89.7755 144.429 96.9755 137.355 102.879 131.559C106.486 128.437 111.441 126.455 114 122.864ZM150.872 138.515C150.641 140.015 150.988 142.69 153.302 141.657C156.901 136.672 163.274 140.616 167.213 140.967V139.564C165.051 136.17 160.605 134.465 156.089 134.635C155.047 134.671 153.988 134.823 152.969 135.06C151.458 135.396 150.407 136.778 150.872 138.515ZM207.559 123.58C204.322 116.391 196.902 113.481 190.169 111.743C186.869 111.336 183.444 111.061 180.046 111.029C179.41 111.023 178.774 111.014 178.14 111.029C168.637 111.221 159.557 113.66 154.01 121.482C153.214 123.691 149.714 126.792 152.964 128.771C160.268 128.304 168.603 127.388 173.472 133.656C173.472 139.226 177.068 146.637 171.043 149.304C166.05 144.681 160.137 151.271 154.704 147.561C152.15 146.052 150.534 147.813 149.487 150.015C147.977 164.387 155.503 180.248 168.948 188.244C174.397 190.21 181.722 192.079 187.409 189.29C201.088 182.921 206.754 168.323 209.3 154.874C208.959 152.314 209.081 147.327 205.489 147.206C201.435 149.77 195.521 148.255 191.223 147.206C188.682 148.026 188.566 151.743 185.674 152.448L183.912 151.042C182.403 144.676 181.472 135.63 187.39 131.225C194.003 128.558 201.77 127.393 208.61 129.486C209.886 127.285 207.916 125.552 207.559 123.58ZM200.58 135.011C200.121 135.023 199.673 135.045 199.221 135.06C196.792 136.681 189.713 135.515 192.268 140.967C196.676 137.48 202.821 139.924 207.226 141.657C208.854 140.848 208.501 139.224 208.609 137.825C207.194 135.193 203.815 134.946 200.58 135.011ZM251.054 85.9964C242.473 85.541 235.288 90.4118 227.403 92.6159C226.716 85.9068 231.813 78.8214 232.976 72.0863C220.228 72.9064 210.131 80.5795 199.585 86.7092C197.144 80.8119 194.696 74.8843 192.272 68.9652L206.184 55.746L206.54 54.0046L187.75 52.9583C184.513 47.2872 183.237 40.4561 179.412 35.2393C176.281 41.1512 174.178 47.408 171.051 53.3147L152.282 54.3641V55.746L166.527 68.6077C164.786 75.2189 163.167 82.4021 158.882 87.3991C150.536 82.4001 142.308 76.9592 133.158 73.4879C130.956 72.7772 127.817 71.6215 125.846 73.1315C128.74 79.5092 132.793 86.3695 132.111 93.3308C128.284 92.6263 125.275 90.1721 121.679 89.1404C117.378 87.967 112.275 85.6744 108.102 87.0687C115.059 96.801 120.738 106.987 122.702 118.699C145.782 107.56 172.697 101.433 200.636 106.194C213.733 108.278 225.775 113.612 237.485 118.007C237.943 105.726 245.71 95.8568 251.054 85.9964ZM290.687 152.779C302.503 155.906 314.356 168.78 326.867 160.427C315.971 142.345 299.753 125.648 304.263 102.002C304.735 100.388 303.692 98.7539 302.191 98.5246C295.123 101.413 289.648 108.378 286.851 115.223C285.701 119.272 285.019 123.576 283.399 127.392C274.931 122.985 265.894 118.716 255.578 119.747C251.857 120.211 246.524 120.455 245.837 124.274C257.545 130.531 267.173 140.973 274.348 152.092C279.344 151.277 285.47 151.973 290.687 152.779ZM166.878 169.12L167.212 171.216C171.742 174.234 173.135 179.349 179.406 178.884C184.968 179.214 189.141 174.004 191.912 169.833C184.386 168.794 175.228 170.402 166.878 169.12ZM173.141 159.736C173.367 160.665 172.567 162.056 173.831 162.525C177.541 161.719 184.262 164.499 186.333 160.094C184.887 158.473 182.526 157.737 180.047 157.737C177.57 157.737 174.999 158.46 173.141 159.736Z" fill="white"/>
<path d="M171.582 161.297C174.867 162.075 175.68 163.24 178.276 163.565C181.035 163.516 180.637 162.955 185.451 161.294C185.767 161.182 186.201 160.485 185.662 159.951C182.674 156.984 180.608 159.103 178.734 159.16C176.249 159.187 173.918 157.032 171.49 159.833C171.076 160.402 170.86 160.96 171.582 161.297Z" fill="white"/>
</svg>
