<svg width="360" height="360" viewBox="0 0 360 360" fill="none" xmlns="http://www.w3.org/2000/svg">
<rect width="360" height="360" rx="82" fill="#00A0DF"/>
<circle cx="180" cy="180" r="155.455" fill="#4681C7" fill-opacity="0.06"/>
<circle cx="180" cy="180" r="155.205" stroke="#2869BF" stroke-opacity="0.04" stroke-width="0.5"/>
<path d="M314.752 160.658C314.752 155.384 311.469 151.437 308.813 147.454C306.158 144.798 304.203 142.179 304.203 138.859C304.203 134.913 306.859 132.257 310.141 132.257C312.133 132.257 313.424 132.921 314.752 133.585C316.08 134.249 318.034 134.913 319.362 134.913C322.018 134.913 323.973 132.257 323.973 130.302C323.973 127.647 321.317 125.028 316.707 125.028C306.158 125.028 296.9 136.905 296.9 146.126C296.9 151.4 300.182 155.347 302.838 158.666C304.83 161.322 306.785 163.941 306.785 166.596C306.785 170.543 302.838 173.199 299.519 173.199C295.572 173.199 293.58 171.207 290.925 169.252C289.597 167.924 288.269 166.596 286.978 166.596C284.986 166.596 284.322 170.543 284.322 172.535C284.322 175.19 288.933 179.137 294.871 179.137C304.203 177.809 314.752 169.879 314.752 160.658Z" fill="white"/>
<path d="M89.7578 96C89.0939 96 89.0939 96 89.7578 96L89.0939 98.6557V99.3196H92.3766C95.0322 99.9835 95.6593 99.9835 95.6593 101.311C95.6593 103.303 93.0036 109.905 89.7209 119.126L87.0652 127.72C84.4096 134.987 80.463 145.536 77.1803 154.13C73.2336 164.679 69.9141 173.273 69.9141 174.6C69.9141 175.928 70.578 176.592 73.8607 176.592C77.1434 176.592 78.4712 175.928 79.1351 174.6C85.0735 155.457 100.897 133.696 108.827 133.696C111.483 133.696 112.11 134.36 112.11 136.978C112.11 140.925 108.827 148.855 104.843 156.785C101.561 163.388 98.9051 169.99 98.9051 173.273C98.9051 175.928 100.233 177.219 102.852 177.219C110.782 177.219 117.384 169.953 121.995 164.015L122.659 163.351L120.667 161.359H120.003C117.347 164.015 112.737 168.625 111.409 168.625H110.745V167.297C110.745 166.633 111.409 164.642 112.737 162.023C116.019 154.757 121.331 142.216 121.331 134.987C121.331 129.048 118.675 125.766 113.401 125.766C103.516 125.766 95.5855 136.978 91.6389 142.917C90.975 144.245 89.6471 145.572 89.6471 145.572C89.6471 145.572 90.3111 144.245 90.975 141.626C92.3028 138.97 93.6306 135.024 95.5855 129.749C102.852 109.942 106.134 100.057 106.134 98.7294C106.134 97.4016 104.807 97.4016 104.143 97.4016H89.6103L89.7578 96Z" fill="white"/>
<path d="M67.3351 165.932C67.9991 165.268 67.9991 165.268 67.3351 165.932C67.3351 165.268 65.3434 163.941 65.3434 163.941C62.0607 166.596 56.1223 171.871 50.811 171.871C48.8192 171.871 46.8644 171.207 45.5365 169.879C43.5448 168.551 42.8809 165.932 42.8809 162.613C42.2169 154.683 49.4831 142.142 56.0854 134.913C60.032 130.966 63.3516 128.974 65.3065 128.974C67.9622 128.974 69.917 130.966 71.9088 132.921C73.2366 134.913 74.5644 136.204 76.5193 136.204C77.1832 136.204 78.5111 135.54 78.5111 134.876C79.175 134.212 79.8389 132.884 79.8389 132.22C79.8389 128.937 76.5562 124.29 69.29 123.626C61.3599 123.626 50.811 128.237 42.8809 136.167C35.6147 143.433 31.668 152.654 32.332 161.248C32.332 168.514 36.2786 176.408 46.8644 176.408C57.4133 177.809 66.0073 168.588 67.3351 165.932Z" fill="white"/>
<path d="M200.597 147.453C200.597 148.117 199.933 148.781 199.933 148.781V148.117C199.933 147.453 200.597 145.462 201.261 142.843C202.588 137.568 203.916 130.966 203.916 128.974C203.916 126.319 202.588 125.028 199.97 125.028C194.695 125.028 186.101 134.249 183.482 138.896L184.81 140.888L185.474 140.224L186.138 139.56C188.13 136.905 192.076 132.294 194.068 132.294C195.396 132.294 196.06 133.622 196.06 135.577C196.06 140.187 190.786 154.72 187.466 164.605C185.474 169.879 184.183 173.826 184.183 174.49C184.183 175.817 184.847 175.817 185.511 175.817H190.122C190.786 175.817 191.449 175.154 192.113 173.826C192.113 173.826 194.105 168.551 195.396 165.896C204.617 147.417 209.265 138.195 213.211 134.212C215.867 131.556 217.822 130.929 219.15 130.929C220.477 130.929 220.477 131.593 221.141 132.257C221.805 132.921 222.469 134.249 223.797 134.249C224.461 134.249 225.789 134.249 226.453 133.585C227.78 132.257 228.444 130.929 228.444 128.974C228.444 125.692 225.789 124.364 223.834 124.364C214.465 125.028 208.527 130.966 200.597 147.453Z" fill="white"/>
<path d="M172.232 123.7C171.568 123.7 170.904 124.364 170.904 125.028C170.24 125.692 170.24 126.356 168.912 126.356C168.248 126.356 167.584 126.356 166.257 125.692C164.929 125.692 163.601 125.028 161.646 125.028C138.556 125.028 126.68 156.048 126.68 166.596C126.68 173.863 130.626 177.145 134.61 177.145C139.22 177.145 145.823 175.817 154.417 162.613L156.408 159.33V159.994L155.744 161.322C154.417 163.314 152.462 167.924 152.462 171.871C152.462 173.863 153.126 175.154 153.79 175.817C154.454 176.481 155.781 177.145 157.072 177.145C165.002 177.145 171.605 166.596 174.224 162.613L172.232 160.621H171.568L169.576 162.613C166.92 165.269 164.302 169.215 162.31 169.215H161.646V167.887C161.646 165.232 166.92 152.728 170.24 142.806C172.896 135.54 175.514 128.938 175.514 127.647C175.514 127.647 175.514 126.319 174.851 126.319L171.568 124.327C172.896 123.7 172.232 123.7 172.232 123.7ZM135.938 164.605C135.938 149.445 147.814 128.974 159.691 128.974C163.638 128.974 165.629 130.966 165.629 134.913C165.629 140.851 149.806 169.215 139.22 169.215C137.265 169.879 135.938 169.215 135.938 164.605Z" fill="white"/>
<path d="M246.143 163.277C246.143 171.871 251.417 177.809 259.347 177.809C268.568 177.809 278.49 168.588 281.109 165.932V165.269L279.781 163.277H279.117L277.789 163.941C274.507 166.596 269.195 170.543 264.585 170.543C259.31 170.543 255.991 167.26 255.991 161.949C255.991 155.347 259.273 150.736 261.265 146.79V146.126H266.54C275.134 146.126 290.957 142.179 290.957 132.257C290.957 128.311 287.01 123.663 280.408 123.663C267.24 125.028 246.143 144.835 246.143 163.277ZM279.781 128.311C282.437 128.311 284.392 130.302 284.392 132.921C284.392 139.523 277.125 142.806 264.585 142.806C266.576 138.232 273.843 128.311 279.781 128.311Z" fill="white"/>
<path d="M242.162 163.941C242.162 163.941 242.162 163.277 242.162 163.941C242.162 163.277 240.17 161.285 240.17 161.285L239.506 161.949C234.895 166.559 232.904 169.879 230.285 169.879H229.621C229.621 169.879 228.957 169.215 228.957 168.551C228.957 165.896 233.568 152.728 242.826 128.974L249.428 111.823C252.71 103.229 254.702 98.6186 254.702 97.9547V97.2908C254.702 96.6269 254.038 96.6269 252.71 96.6269H237.551C237.551 96.6269 236.887 96.6269 236.887 97.2908V100.574H240.17C242.162 101.237 243.453 101.901 243.453 103.229C243.453 105.221 233.568 129.638 233.568 129.638C228.293 142.843 219.035 165.932 219.035 171.207C219.035 173.863 219.699 175.817 220.363 176.481C221.691 177.809 223.019 178.473 224.974 178.473C230.912 178.473 237.514 170.543 241.461 165.269C241.498 165.269 242.162 163.941 242.162 163.941Z" fill="white"/>
<path d="M32.9918 210.157C32.9918 217.423 38.9301 221.37 44.2046 224.025L46.8602 225.353C52.1347 228.009 54.7904 231.292 54.7904 235.238C54.7904 239.849 51.5077 243.832 46.8602 243.832C39.594 243.832 35.6474 236.566 33.6557 231.956L31 232.62C31.6639 237.23 32.9918 242.504 32.9918 244.496H34.3196L37.6023 245.824C39.594 246.488 42.2128 247.152 44.8685 247.152C54.7535 247.152 62.0197 241.214 62.0197 231.992C62.0197 223.398 55.4174 219.452 50.8069 217.46L48.8151 216.796C42.8767 213.513 40.2211 210.858 40.2211 206.911C40.2211 202.965 42.8767 198.981 47.4873 198.981C53.4256 198.981 56.0813 203.592 57.3723 208.202L60.0279 207.538C59.364 203.592 58.7001 200.272 58.7001 197.653L56.7083 196.989L55.3805 196.325C53.3888 195.661 50.77 194.998 48.7782 194.998C39.594 195.625 32.9918 201.563 32.9918 210.157Z" fill="white"/>
<path d="M68 222.034C68 234.574 76.594 246.451 95.7001 246.451C100.311 246.451 106.913 245.123 109.569 244.459C110.896 241.177 112.851 235.238 113.515 231.919L110.86 231.255C106.913 239.185 103.593 243.131 95.0362 243.131C84.4873 243.131 77.2211 233.91 77.2211 220.042C77.2211 210.157 81.8316 198.944 95.0362 198.944C102.966 198.944 106.913 202.227 108.905 210.157H111.56L110.896 206.874L109.569 198.28H108.241C105.585 197.616 101.638 196.952 96.364 196.952C79.8767 195.625 68 206.173 68 222.034Z" fill="white"/>
<path d="M168.949 196.952H147.852V199.608C153.126 200.272 153.79 200.272 153.79 208.829V218.714H131.364V208.829C131.364 200.899 132.028 200.235 137.303 199.608V196.952H115.541V199.608C122.143 200.272 122.143 200.936 122.143 208.829V235.238C122.143 243.168 121.479 243.832 115.541 244.459V247.115H137.303V244.459C132.028 243.795 130.7 243.795 130.7 235.238V222.697H153.126V235.238C153.126 243.168 152.462 243.832 146.524 244.459V247.115H168.286V244.459C162.347 243.795 161.683 243.795 161.683 235.238V208.829C161.683 200.899 162.347 200.235 168.286 199.608C168.286 199.571 168.949 196.952 168.949 196.952Z" fill="white"/>
<path d="M243.493 196.952H226.342V199.608H228.997C230.325 199.608 230.989 200.272 231.653 200.272C231.653 200.936 232.317 200.936 232.317 201.6C232.317 202.263 232.317 203.591 231.653 204.882C231.653 205.546 227.706 222.033 224.387 232.582C223.723 231.255 211.182 197.616 211.182 197.616H207.9C207.9 197.616 196.687 232.582 196.687 233.246C196.023 231.918 188.093 204.218 188.093 204.218C188.093 202.891 187.429 202.227 187.429 201.563V200.235C188.093 199.571 188.757 199.571 190.084 199.571H192.74V197.579H172.232V200.235C176.179 200.899 177.507 200.899 179.499 207.501L192.039 247.078H195.322C195.322 247.078 206.535 212.775 207.199 212.112C207.863 213.439 219.739 247.078 219.739 247.078H223.022C229.624 223.988 235.563 208.165 235.563 207.501C238.218 200.899 238.845 200.235 243.493 200.235V196.952Z" fill="white"/>
<path d="M256.696 208.829C256.696 208.829 261.971 224.652 262.634 224.652H251.422C250.758 224.652 256.696 208.829 256.696 208.829ZM265.917 210.157L260.643 196.288L257.36 196.952L242.201 235.865C239.545 242.467 238.918 243.131 234.271 243.131V245.787H251.422V243.131H249.43C248.102 243.131 246.774 242.467 246.774 241.803V240.475C246.774 239.812 246.774 239.148 247.438 237.82L248.102 236.492C248.766 233.836 250.094 229.89 250.758 228.562H264.626C265.954 232.508 267.909 237.156 268.573 239.111C268.573 239.775 269.237 240.439 269.237 241.103V241.766C269.237 242.43 268.573 242.43 267.245 242.43L265.253 243.094V245.086H285.06V242.43C281.114 241.766 279.786 241.766 277.13 235.164L265.917 210.157Z" fill="white"/>
<path d="M300.882 203.554C300.882 201.563 300.882 200.272 301.546 200.272H304.829C306.821 200.272 314.05 200.936 314.05 209.493C314.05 215.431 310.103 218.714 303.501 218.714H300.845C300.882 218.714 300.882 203.554 300.882 203.554ZM287.051 196.952V199.608C292.325 200.272 292.989 200.272 292.989 208.829V235.238C292.989 243.168 292.325 243.832 286.387 244.459V247.115H304.866C310.804 247.115 316.079 245.787 319.398 243.832C324.009 241.176 326 237.23 326 232.619C326 226.017 321.39 221.406 312.796 220.079C316.742 219.415 323.345 216.132 323.345 209.53C323.345 205.583 322.017 202.927 319.398 200.936C316.742 198.944 313.46 198.28 307.521 198.28H287.051V196.952ZM303.538 220.706C312.132 220.706 316.742 224.652 316.742 231.918C316.742 239.185 311.468 242.467 306.857 242.467C304.866 242.467 303.575 242.467 302.911 241.803C301.583 240.476 301.583 238.521 301.583 234.537V221.333C301.546 220.706 303.538 220.706 303.538 220.706Z" fill="white"/>
</svg>
