<svg width="360" height="360" viewBox="0 0 360 360" fill="none" xmlns="http://www.w3.org/2000/svg">
<rect width="360" height="360" rx="82" fill="#4484BF"/>
<path fill-rule="evenodd" clip-rule="evenodd" d="M96.2852 59.4424C116.395 59.4424 132.57 75.7919 132.57 95.6807C132.57 116.012 116.395 131.919 96.2852 131.919C76.6109 131.919 60.4357 116.005 60.4357 95.6807C60.4424 75.7919 76.6176 59.4424 96.2852 59.4424ZM180.218 59.4424C200.328 59.4424 216.067 75.7919 216.067 96.1232C216.067 116.012 200.328 132.361 180.218 132.361C160.544 132.361 144.375 116.012 144.375 96.1232C144.375 75.7919 160.55 59.4424 180.218 59.4424ZM95.8495 144.287C115.96 144.287 132.135 160.636 132.135 180.525C132.135 200.856 115.96 216.763 95.8495 216.763C76.1752 216.763 60 200.856 60 180.525C60 160.636 76.1752 144.287 95.8495 144.287ZM179.782 143.851C199.456 143.851 215.632 160.2 215.632 180.089C215.632 200.421 199.456 216.77 179.782 216.77C160.115 216.77 143.939 200.421 143.939 180.089C143.939 160.194 160.115 143.851 179.782 143.851ZM95.8495 228.695C115.96 228.695 132.135 245.045 132.135 264.934C132.135 285.265 115.96 301.614 95.8495 301.614C76.1752 301.614 60 285.265 60 264.934C60 245.045 76.1752 228.695 95.8495 228.695ZM179.782 229.138C199.456 229.138 215.632 245.487 215.632 265.376C215.632 285.265 199.456 301.614 179.782 301.614C160.115 301.614 143.939 285.265 143.939 265.376C143.939 245.487 160.115 229.138 179.782 229.138ZM264.15 59C283.825 59 300 75.3495 300 95.6807C300 115.57 283.825 131.919 264.15 131.919C244.476 131.919 228.301 115.57 228.301 95.6807C228.308 75.3495 244.483 59 264.15 59ZM263.715 143.851C283.389 143.851 299.564 160.2 299.564 180.532C299.564 200.421 283.389 216.77 263.715 216.77C243.605 216.77 227.872 200.421 227.872 180.532C227.872 160.194 243.605 143.851 263.715 143.851ZM263.715 228.695C283.389 228.695 299.564 244.602 299.564 264.934C299.564 284.816 283.389 301.165 263.715 301.165C243.605 301.165 227.872 284.816 227.872 264.934C227.872 244.602 243.605 228.695 263.715 228.695Z" fill="white"/>
</svg>
