<svg width="360" height="360" viewBox="0 0 360 360" fill="none" xmlns="http://www.w3.org/2000/svg">
<rect width="360" height="360" rx="82" fill="#0067B1"/>
<circle cx="180" cy="180" r="155.455" fill="#4681C7" fill-opacity="0.06"/>
<circle cx="180" cy="180" r="155.205" stroke="#2869BF" stroke-opacity="0.04" stroke-width="0.5"/>
<path d="M41.3867 202.243L36.9193 201.951L32.6179 200.564L29.121 197.83L27.5534 195.569L26.1653 192.544L25 187.257L25.1109 182.026L26.5126 175.394L28.2606 171.162L33.1311 163.141L38.3624 157.383L41.623 154.414L51.0862 147.615L62.1866 141.69L73.4122 137.167L89.2027 133.323L97.5277 132.157L109.03 131.81L118.439 132.796L126.111 134.363L133.896 136.639L142.61 140.469L148.659 143.965L156.679 150.057L162.952 156.343L166.267 160.991L166.393 161.796L164.756 160.991L158.831 156.856L149.77 152.332L141.278 149.363L133.438 147.684L123.67 146.463L114.262 146.629L104.965 148.322L96.8891 150.75L88.8555 154.594L81.7788 158.951L77.4223 162.795L71.8438 168.997L64.6841 179.806L57.9961 191.67L53.4728 196.721L49.6982 199.509L45.2308 201.424L41.3867 202.243Z" fill="#EF4135"/>
<path d="M323.47 197.714L319.1 197.603L315.311 196.548L310.15 193.232L297.259 181.729L288.143 173.764L283.467 170.046L279.29 166.619L269.286 159.819L263.07 156.517L253.024 152.327L244.421 150.412L235.943 149.427L230.379 149.593L223.51 150.925L214.907 153.728L213.048 154.422L212.466 154.186L214.033 152.507L217.877 149.884L226.772 145.181L234.722 141.864L246.988 138.562L254.411 137.216L262.098 136.356L275.517 136.703L285.285 137.855L295.441 140.116L302.837 142.919L309.456 146.055L315.672 150.065L324.039 157.031L329.09 162.553L332.767 168.658L334.737 173.418L335.875 178.01L335.999 183.075L335.195 187.307L333.808 190.679L331.241 194.106L327.757 196.382L323.47 197.714Z" fill="#EF4135"/>
<path d="M166.554 150.293L164.751 148.961L159.45 143.786L151.611 137.333L143.66 131.755L134.821 127.398L126.454 124.429L115.756 121.82L108.152 120.835L104.142 120.488L94.0266 120.655L84.2026 122.167L71.881 125.484L60.143 129.951L55.4944 130.937L51.6088 130.645L48.2373 129.438L45.8507 127.523L44.6295 125.539L43.8809 122.223L44.4635 117.574L46.2115 113.217L48.82 109.443L52.2474 106.474L57.1314 103.158L62.4737 100.549L69.5639 98.2871L78.1667 96.4281L83.0516 95.9005L93.3194 96.0809L103.851 97.9407L112.981 101.076L125.635 107.348L135.584 113.801L144.118 120.252L153.706 129.66L159.118 136.112L164.862 145.118L166.666 149.016L166.79 149.821L166.554 150.293Z" fill="#EF4135"/>
<path d="M207.369 147.154L206.911 146.863L208.535 143.089L214.64 134.541L226.268 121.943L234.801 115.199L245.138 108.4L256.406 102.461L267.575 98.4508L276.067 96.7723L280.258 96.2446L288.971 96.425L294.077 97.41L297.741 98.9784L301.224 101.185L303.666 103.682L305.4 106.762L306.053 109.496L305.927 112.757L304.346 116.35L301.917 119.5L297.852 121.762L291.4 123.677L284.781 124.315L258.099 125.883L248.275 127.396L241.545 129.144L232.651 132.099L226.087 134.888L216.5 140.3L208.188 146.683L207.369 147.154Z" fill="#EF4135"/>
<path d="M203.164 137.742L202.762 137.506L202.929 135.008L205.565 124.324L209.034 113.224L214.625 100.667L220.897 89.1631L225.073 83.2941L232.58 74.9267L235.814 71.7906L241.239 67.6002L246.803 64.1177L253.727 61.3289L257.917 60.3295L264.189 60.5099L267.797 61.6752L270.864 64.0627L272.612 66.2688L273.722 69.6403L273.957 73.2337L272.959 76.3148L270.683 79.7413L266.687 83.5854L260.414 87.5955L251.174 92.2992L242.973 96.3643L236.868 100.374L224.727 109.435L217.234 116.762L212.349 122.812L206.939 131.415L203.927 136.937L203.164 137.742Z" fill="#EF4135"/>
<path d="M167.794 137.396L166.699 136.286L161.065 127.391L156.708 121.647L148.508 113.099L137.879 104.386L126.071 96.8931L106.562 86.3754L101.844 82.8786L98.8888 79.6316L96.7936 75.6774L95.9746 72.7073L96.0991 68.8226L97.6676 65.2707L99.8737 63.0646L102.607 61.4961L105.562 60.6916L109.739 60.5112L115.331 61.6765L122.588 65.1589L129.512 69.5162L138.975 77.8277L146.065 85.5565L153.919 96.1994L158.623 104.331L162.286 112.697L165.422 122.576L167.864 132.692L168.155 136.522L167.794 137.396Z" fill="#EF4135"/>
<path d="M256.285 188.835L259.329 191.488L262.017 195.298L264.131 200.462L265.43 206.528L266.055 215.694L265.64 227.769L264.172 237.564L262.015 244.418L259.538 249.816L256.473 254.258L252.94 257.645L248.201 261.087L241 264.4L240.019 265.854L239.349 271.364L238.989 282.452L238.499 288.402L238.089 299.286L237.402 302.139L235.701 303.544L230.452 305.497L226.372 306.605L225.054 305.898L224.612 304.701L224.675 291.648L226.747 228.994L227.575 210.797L227.802 201.211L228.105 193.95L228.602 192.622L229.763 191.389L239.123 188.027L245.12 186.834L249.182 186.781L253.078 187.477L256.285 188.835Z" fill="white"/>
<path d="M223.215 193.642L223.81 194.964L219.112 220.885L214.439 248.797L207.758 284.215L202.179 311.381L201.297 312.934L198.908 313.987L193.274 315.027L190.955 315.16L188.604 315.267L187.206 314.658L186.52 313.097L185.797 306.817L185.522 302.736L181.843 253.295L181.024 245.198L180.599 244.703L180.122 245.831L177.856 263.203L172.861 308.896L171.911 314.176L170.72 315.621L167.705 316.248L159.822 315.886L157.041 315.023L156.191 314.033L154.75 306.691L154.253 302.046L145.909 231.872L142.412 203.288L142.673 201.15L143.832 200.205L148.024 200.258L155.078 201.076L156.605 201.793L157.43 203.469L157.894 207.869L159.142 222.998L159.87 230.042L160.218 236.229L160.566 240.769L162.36 265.072L163.106 278.791L163.938 280.834L164.532 279.279L165.356 274.129L167.625 255.765L170.654 233.23L171.722 223.196L172.905 213.944L174.308 202.141L175.121 200.387L176.796 199.65L187.34 199.002L188.74 199.323L189.59 200.422L190.098 203.935L191.516 224.743L192.097 237.277L195.078 275.138L195.57 276.737L196.075 276.321L197.016 272.698L202.186 238.915L209.429 198.422L210.435 195.994L212.28 195.162L221.324 193.368L223.215 193.642Z" fill="white"/>
<path d="M131.224 201.262L134.795 205.273L137.295 209.596L139.087 214.712L141.166 227.34L141.317 232.405L140.938 233.523L139.728 234.047L136.626 233.769L129.684 232.354L128.386 231.448L127.79 229.888L127.316 225.479L126.762 221.385L125.384 217.063L123.134 213.995L121.335 213.038L119.436 212.993L117.596 214.281L116.638 216.913L116.74 221.467L117.498 225.73L120.107 233.565L124.323 242.723L132.315 258.035L138.981 272.851L141.887 282.741L142.542 289.127L142.235 295.009L140.711 299.889L138.593 303.754L135.799 306.682L132.726 308.763L128.731 310.032L124.542 310.216L120.534 309.194L115.691 306.703L111.358 303.132L108.605 299.577L105.481 293.817L102.644 284.654L101.488 276.66L101.838 274.215L103.143 273.554L107.671 274.318L112.883 275.9L114.31 276.913L115.139 279.333L116 284.985L117.735 289.601L120.089 292.826L122.365 294.105L124.402 294.028L126.131 293.029L127.342 291.294L127.878 288.714L127.493 284.305L125.459 277.397L122.469 270.155L120.729 267.128L119.885 265.672L119.201 263.822L111.068 248.394L107.243 239.794L104.042 230.548L102.653 223.955L102.236 218.38L102.682 212.612L103.742 208.471L105.848 204.072L108.143 201.113L110.715 198.98L114.152 197.578L118.082 196.872L122.315 197.248L126.637 198.548L129.471 200.052L131.224 201.262Z" fill="white"/>
<path d="M248.172 207.92L250.143 209.702L251.721 212.846L252.502 216.713L252.778 222.359L252.011 232.352L250.974 237.168L249.345 241.279L248.582 242.587L246.657 244.71L244.598 245.984L243.656 246.136L242.757 245.381L242.611 242.927L243.749 210.965L244.28 208.408L245.031 207.761L246.564 207.514L248.172 207.92Z" fill="#0469B2"/>
</svg>
