<svg width="360" height="360" viewBox="0 0 360 360" fill="none" xmlns="http://www.w3.org/2000/svg">
<rect width="360" height="360" rx="82" fill="#0095DB"/>
<path d="M286.303 132.506C274.776 132.506 264.736 138.827 258.415 145.892V89H222.346V102.758L234.988 105.361V239.969H252.837L255.812 229.558C262.133 236.623 272.173 242.944 284.072 242.944C306.383 242.944 322 231.789 322 186.424C321.629 144.033 305.639 132.506 286.303 132.506ZM277.379 226.583C269.942 226.583 262.877 222.493 258.415 218.031V158.907C263.992 153.701 270.314 150.355 278.494 150.355C292.253 150.355 296.343 160.766 296.343 187.539C296.343 215.428 291.881 226.583 277.379 226.583Z" fill="white"/>
<path d="M194.458 151.098L180.7 197.579C178.469 205.388 176.238 213.94 175.122 222.121H174.75C173.263 213.94 172.147 206.504 169.172 197.951L154.67 151.47L165.082 149.983V135.481H121.576V149.611L130.5 151.098L160.992 240.342H183.303L213.794 151.47L223.462 149.983V135.481H183.303V149.611L194.458 151.098Z" fill="white"/>
<path d="M82.903 176.012C68.0292 171.922 62.8234 168.204 62.8234 159.651C62.8234 151.471 68.7729 146.637 79.1846 146.637C84.0186 146.637 87.737 147.38 90.7118 148.868L94.4303 164.113H110.048V138.456C102.239 134.366 92.571 132.135 78.8127 132.135C54.6428 132.135 42.3718 145.521 42.3718 162.626C42.3718 183.077 54.2709 190.886 72.1195 195.72C86.9934 199.81 92.571 203.529 92.571 213.569C92.571 223.237 87.737 228.071 75.0943 228.071C68.4011 228.071 65.7981 227.327 61.7078 225.468L58.3612 209.107H42V235.136C49.8088 239.598 60.9641 242.945 75.0943 242.945C98.8924 242.945 114.138 232.533 114.138 210.966C114.138 187.54 101.495 180.846 82.903 176.012Z" fill="white"/>
</svg>
