<svg width="360" height="360" viewBox="0 0 360 360" fill="none" xmlns="http://www.w3.org/2000/svg">
<rect width="360" height="360" rx="82" fill="#231F20"/>
<path d="M179.999 133C130.691 133 82.9256 142.737 29.956 171.601L35.446 182.113C30.3821 184.547 27 189.717 27 195.662C27 203.958 33.7977 210.684 42.1852 210.684C44.9281 210.684 47.4976 209.81 49.7162 208.554L55.3545 218.792C103.521 193.781 140.723 186.752 179.999 186.752C219.275 186.752 256.476 193.781 304.643 218.792L310.28 208.554C312.5 209.81 315.072 210.684 317.813 210.684C326.2 210.684 333 203.958 333 195.662C333 189.717 329.618 184.547 324.552 182.113L330.042 171.601C277.07 142.737 229.306 133 179.999 133Z" fill="white"/>
<path d="M179.999 133C130.691 133 82.9256 142.737 29.956 171.601L35.446 182.113C30.3821 184.547 27 189.717 27 195.662C27 203.958 33.7977 210.684 42.1852 210.684C44.9281 210.684 47.4976 209.81 49.7162 208.554L55.3545 218.792C103.521 193.781 140.723 186.752 179.999 186.752C219.275 186.752 256.476 193.781 304.643 218.792L310.28 208.554C312.5 209.81 315.072 210.684 317.813 210.684C326.2 210.684 333 203.958 333 195.662C333 189.717 329.618 184.547 324.552 182.113L330.042 171.601C277.07 142.737 229.306 133 179.999 133Z" stroke="#EF3E42" stroke-width="1.945" stroke-miterlimit="3.864"/>
<path d="M39.6328 195.662C39.6328 194.267 40.7755 193.137 42.1877 193.137C43.5978 193.137 44.7405 194.267 44.7405 195.662C44.7405 197.056 43.5978 198.187 42.1877 198.187C40.7755 198.187 39.6328 197.056 39.6328 195.662Z" fill="#EF3E42"/>
<path d="M315.254 195.662C315.254 194.267 316.397 193.137 317.807 193.137C319.217 193.137 320.36 194.267 320.36 195.662C320.36 197.056 319.217 198.187 317.807 198.187C316.397 198.187 315.254 197.056 315.254 195.662Z" fill="#EF3E42"/>
<path d="M69.2704 165.861L73.672 175.686L69.6088 177.472C68.5392 175.228 67.0142 173.916 64.5303 173.564C61.3696 173.118 55.3866 176.914 56.1763 179.371C56.9827 181.875 58.2089 182.274 60.3544 182.274C64.9419 182.274 67.6931 181.693 72.0927 181.491C76.9455 181.268 79.868 185.772 80.1062 190.423C80.4446 197.011 68.8191 201.699 64.5303 201.365C59.9658 201.007 57.4193 198.685 55.2738 194.219L60.1287 191.874C61.144 193.661 62.5834 195.98 65.2072 196.116C67.3526 196.23 74.1253 194.331 73.3335 190.423C72.9868 188.702 72.7695 186.962 70.06 187.297C65.7817 187.826 63.5046 187.888 58.9986 188.19C52.3408 188.636 49.7441 183.613 49.7441 179.036C49.7441 173.453 57.8705 168.876 63.6279 168.987C64.3319 169.002 64.733 169.022 65.4328 169.099L65.6584 167.425L69.2704 165.861Z" fill="#231F20"/>
<path d="M77.75 162.549L90.2591 158.604L100.08 172.783L100.193 155.701L111.789 152.566L113.285 157.265C113.285 157.265 109.898 157.488 111.367 161.061L117.573 174.234C119.155 177.249 122.315 176.021 122.315 176.021L123.556 181.045L110.913 184.394L109.56 179.706C109.56 179.706 113.397 178.364 112.044 175.352L105.609 162.846L105.835 185.845L101.885 186.851L89.5823 167.872L90.4848 181.602C90.8232 184.84 95.4504 183.836 95.4504 183.836L96.8062 188.525L85.1786 192.655L83.3737 187.967C83.3737 187.967 85.6319 187.074 85.5191 184.729L83.8249 169.322C83.3737 165.192 79.4233 166.754 79.4233 166.754L77.75 162.549Z" fill="#231F20"/>
<path d="M118.824 150.901L130.675 148.444L131.352 152.909C131.352 152.909 128.191 152.686 129.322 157.265L132.482 171.444C133.159 173.788 135.729 174.19 138.576 173.788C140.947 173.453 142.978 172.002 142.639 169.992L140.383 153.804C140.045 151.347 137.222 151.682 137.222 151.682L136.42 147.376L147.991 145.644L148.664 150.436C148.664 150.436 145.687 150.12 146.477 154.474L148.284 167.425C149.073 172.672 147.607 177.249 140.045 178.699C132.133 180.218 127.853 177.807 126.612 172.783L123.113 157.711C122.436 154.697 119.614 155.143 119.614 155.143L118.824 150.901Z" fill="#231F20"/>
<path d="M178.976 144.313L178.751 155.812L173.672 155.701C173.772 152.068 171.75 148.884 167.125 149.002C162.724 149.115 160.465 151.012 160.691 154.697L161.144 165.638C161.37 169.657 164.328 171.004 167.576 170.884C170.225 170.789 172.993 170.326 173.108 166.977L173.447 162.846H179.427L179.204 168.318C178.751 174.903 172.883 176.244 167.351 176.244C158.096 176.244 154.71 171.665 154.484 161.73V152.798C154.484 146.099 160.578 143.532 167.351 143.532C170.121 143.532 171.819 144.134 174.123 145.652L174.8 144.202L178.976 144.313Z" fill="#231F20"/>
<path d="M184.296 144.313L196.936 144.76L196.713 149.45C196.713 149.45 193.778 149.339 193.55 151.905C193.55 151.905 193.214 156.259 194.003 157.042C195.47 157.153 201.566 152.574 201.566 152.574C203.258 151.347 203.258 149.673 201.338 149.45L201.453 145.094L215.109 146.099L214.658 151.012C214.658 151.012 212.965 150.231 209.241 152.686L202.581 157.6L208.338 168.206C210.594 171.777 212.965 171.889 212.965 171.889L212.514 176.468L203.258 175.798C203.596 170.215 202.017 168.429 202.017 168.429L197.39 161.173C195.246 161.842 193.214 164.074 193.214 164.074C192.535 166.307 192.988 167.872 192.988 167.872C192.988 170.55 196.036 170.438 196.036 170.438L195.921 175.129L183.278 174.792L183.055 170.326C183.055 170.326 186.667 170.438 186.892 166.977L187.343 151.682C187.231 149.45 184.296 149.339 184.296 149.339V144.313Z" fill="#231F20"/>
<path d="M221.086 147.105L246.257 151.459L243.886 161.73L239.71 160.949C240.274 158.269 240.048 155.143 234.519 154.25L230.681 153.804C230.681 153.804 228.987 153.915 228.649 155.701L228.197 158.492C227.746 160.726 229.777 161.172 229.777 161.172L236.888 162.288L235.872 167.425L229.1 166.309C229.1 166.309 227.069 165.973 226.616 168.095L226.165 170.886C226.165 170.886 226.165 173.787 228.31 174.122L231.696 174.682C234.178 175.128 236.775 173.899 237.565 170.215L241.853 171.109L239.597 181.491L216.008 177.249L216.91 172.225C216.91 172.225 220.297 172.895 220.748 169.992L222.893 153.804C223.117 151.682 220.297 151.235 220.297 151.235L221.086 147.105Z" fill="#231F20"/>
<path d="M283.337 156.294L290.334 159.222C289.093 164.136 285.353 168.14 284.28 168.806C284.411 168.806 281.992 167.607 281.992 167.607L283.202 164.946C284.952 160.687 281.453 160.819 281.453 160.819L283.337 156.294Z" fill="#231F20"/>
<path d="M311.98 174.821L307.269 184.501L303.262 182.598C304.296 180.338 304.319 178.342 302.98 176.242C301.273 173.573 294.478 171.529 293.099 173.715C291.693 175.945 292.182 177.127 293.571 178.74C296.544 182.195 298.662 183.997 301.777 187.074C304.948 190.2 303.521 195.699 300.097 198.893C295.248 203.417 284.106 197.701 281.584 194.255C278.9 190.587 279.04 187.165 281.087 182.656L286.036 184.791C285.319 186.712 284.467 189.302 286.061 191.366C287.364 193.052 293.214 196.92 295.71 193.794C296.809 192.418 298.008 191.126 295.994 189.306C292.815 186.425 291.29 184.751 288.139 181.555C283.481 176.829 285.664 171.62 289.188 168.655C293.483 165.037 302.272 168.19 305.917 172.597C306.362 173.137 306.615 173.444 307.001 174.029L308.434 173.114L311.98 174.821Z" fill="#231F20"/>
<path d="M252.906 153.023L271.08 158.16C274.795 159.238 277.778 161.817 277.512 165.64C276.948 173.789 273.614 175.874 268.258 175.686L271.08 183.615C271.983 186.628 274.239 187.185 274.239 187.185L272.208 191.653L264.533 188.861C264.533 188.861 266.451 176.469 257.986 173.566C257.038 173.24 256.292 174.124 255.954 175.128L255.502 177.139C254.6 180.152 257.761 181.158 257.761 181.158L255.954 185.958L244.779 182.497L246.02 177.585C246.02 177.585 248.842 178.924 250.198 175.017L253.585 162.737C254.825 157.825 251.778 157.711 251.778 157.711L252.906 153.023Z" fill="#231F20"/>
<path d="M258.96 168.303C258.757 166.495 260.28 162.274 261.093 161.673C262.008 161.17 267.188 162.978 267.188 162.978C269.727 163.782 271.149 164.888 270.236 168.103C269.244 171.591 266.883 170.715 264.241 170.111C264.241 170.111 259.57 169.006 258.96 168.303Z" fill="white"/>
</svg>
