<svg width="360" height="360" viewBox="0 0 360 360" fill="none" xmlns="http://www.w3.org/2000/svg">
<rect width="360" height="360" rx="82" fill="#003366"/>
<path fill-rule="evenodd" clip-rule="evenodd" d="M183.634 121.368H202.037V230.251H183.634V121.368Z" fill="white"/>
<path fill-rule="evenodd" clip-rule="evenodd" d="M111.816 160.679C111.816 158.103 110.045 156.7 108.012 156.7C105.989 156.7 104.173 158.062 104.173 160.679V213.119C104.173 215.732 105.988 217.098 108.012 217.098C110.046 217.098 111.816 215.671 111.816 213.119V195.934H130.2V211.775C130.2 224.624 120.096 231.321 107.927 231.321C96.2883 231.321 85.7842 224.839 85.7842 211.775V162.013C85.7842 148.976 96.2892 142.476 107.927 142.476C119.89 142.476 130.2 149.178 130.2 162.013V176.198H111.816V160.679Z" fill="white"/>
<path fill-rule="evenodd" clip-rule="evenodd" d="M153.073 163.041C153.073 160.424 154.883 159.062 156.907 159.062C158.938 159.062 160.717 160.473 160.717 163.041V230.26H179.119V158.24C179.119 146.504 171.513 142.461 165.708 142.461C159.223 142.461 154.666 147.148 153.409 149.528H153.111V121.368H134.709V230.26H153.072V163.041H153.073Z" fill="white"/>
<path fill-rule="evenodd" clip-rule="evenodd" d="M232.555 211.552C232.555 214.114 230.777 215.533 228.746 215.533C226.728 215.533 224.911 214.168 224.911 211.552V143.488H206.519V215.763C206.519 225.346 213.128 231.322 220.219 231.322C227.406 231.322 231.306 226.113 232.41 224.205H232.825L233.154 230.26H250.949V143.488H232.556V211.552H232.555Z" fill="white"/>
<path fill-rule="evenodd" clip-rule="evenodd" d="M273.832 230.26H255.438V143.488H273.656L273.84 149.541H274.208C275.558 146.878 279.935 142.461 286.568 142.461C293.438 142.461 297.854 147.752 298.797 150.865H299.058C300.431 147.7 305.247 142.461 312.215 142.461C319.255 142.461 326 147.236 326 159.047V230.26H307.599V162.182C307.599 159.559 305.799 158.194 303.772 158.194C301.739 158.194 299.946 159.602 299.946 162.182V230.26H281.46V162.213C281.46 159.59 279.627 158.226 277.604 158.226C275.572 158.226 273.831 159.639 273.831 162.213V230.26H273.832Z" fill="white"/>
<path fill-rule="evenodd" clip-rule="evenodd" d="M52.7111 211.76C52.7111 214.383 54.5348 215.748 56.5604 215.748C58.5896 215.748 60.3559 214.327 60.3559 211.76V201.471C60.3559 193.26 58.5977 190.277 52.5011 184.548C47.3047 179.658 44.6823 177.143 41.3248 173.977C37.0295 169.915 32.0745 164.258 32.0745 153.688V140.645C32.0691 126.328 43.9831 121 56.5353 121C69.0479 121 80.8642 126.445 80.8642 140.543V157.36H60.355V141.043C60.355 138.473 58.5833 137.061 56.5514 137.061C54.5267 137.061 52.7111 138.429 52.7111 141.043V148.877C52.7111 155.663 54.8355 158.647 60.4609 164.019C62.7234 166.184 67.8444 171.166 71.7862 175.01C78.8341 181.915 81.2707 188.142 81.2707 196.707V211.284C81.2707 226.44 69.0713 231.762 56.5353 231.762C43.8378 231.763 32 226.44 32 212.005V191.125H52.7111V211.76Z" fill="white"/>
</svg>
