<svg width="360" height="360" viewBox="0 0 360 360" fill="none" xmlns="http://www.w3.org/2000/svg">
<rect width="360" height="360" rx="82" fill="#FF0000"/>
<path d="M311 94.0302L286.906 138.955C282.522 134.817 265.697 133.563 258.175 133.563H184.027C179.897 133.563 176.814 133.889 174.856 134.547C172.871 135.214 170.906 136.476 169.098 138.437C168.027 139.598 165.57 144.597 163.281 148.198C159.529 154.1 164.912 156.508 171.803 156.508H224.67C233.933 156.508 246.838 157.42 250.426 160.019C255.899 163.984 260.903 174.246 258.471 181.171C250.833 202.918 236.745 229.328 220.815 246.701C212.601 255.661 200.828 261.474 188.89 263.546C183.833 264.425 174.54 265.105 160.989 264.999L48 264.125L74.5716 219.097C89.2303 229.883 130.192 223.719 148.1 223.719C158.034 223.719 159.711 236.145 180.873 238.551C191.385 239.744 195.488 236.737 195.798 233.879C196.353 228.75 181.331 230.332 179.69 227.236C173.765 216.059 177.971 204.867 183.293 201.438C190.137 197.028 204.865 204.057 206.248 202.585C211.4 197.105 182.372 181.517 174.339 188.128L163.28 197.231C159.176 200.609 134.578 200.568 122.193 200.926C100.465 201.556 92.3492 193.06 97.8597 177.369C104.577 158.245 119.441 139.075 130.098 121.48C140.319 104.605 149.676 99.2125 169.865 94.9091C175.312 93.7481 181.524 94.0302 188.567 94.0302H311Z" fill="white"/>
</svg>
