<svg width="360" height="360" viewBox="0 0 360 360" fill="none" xmlns="http://www.w3.org/2000/svg">
<rect width="360" height="360" rx="82" fill="#47237F"/>
<path d="M77.7143 140.73C77.7143 136.534 75.6206 133.391 66.3575 133.391C57.0944 133.391 55.0007 136.534 55.0007 140.716V152.1C55.0007 155.544 56.1427 158.988 59.4419 161.844L90.9111 188.793C95.4158 192.538 98.0805 197.184 98.0805 201.981V219.05C98.0805 229.231 86.0892 234.93 66.3575 234.916C44.4686 234.916 34 229.983 34 219.05V204.222H53.7952V218.449C53.7952 223.546 57.6654 226.539 66.3575 226.539C74.4151 226.539 78.3488 223.546 78.3488 218.449V203.32C78.3488 199.576 76.8261 196.733 72.6387 192.989L43.5804 167.679C38.1874 163.033 35.2055 159.439 35.2055 153.904V140.866C35.2055 130.234 46.3085 125 66.3575 125C88.5002 125 97.5095 130.234 97.5095 140.129V153.904H77.7143V140.73Z" fill="white"/>
<path d="M191.092 125.817H222.498C248.003 125.817 255.49 130.013 255.49 142.298V168.797C255.49 181.083 248.003 185.278 222.498 185.278H210.824V233.943H191.092V125.817ZM220.404 176.887C229.413 176.887 235.694 175.685 235.694 170.15V140.945C235.694 135.397 229.413 134.208 220.404 134.208H210.824V176.887H220.404Z" fill="white"/>
<path d="M305.421 140.736C305.421 136.54 303.328 133.397 294.001 133.397C284.738 133.397 282.644 136.54 282.644 140.736V152.119C282.644 155.563 283.85 159.007 287.149 161.85L318.618 188.813C323.059 192.557 325.788 197.19 325.788 201.987V219.056C325.788 229.251 313.796 234.936 294.001 234.936C272.176 234.936 261.707 229.989 261.707 219.056V204.228H281.439V218.468C281.439 223.552 285.372 226.545 294.001 226.545C302.122 226.545 305.992 223.552 305.992 218.468V203.34C305.992 199.595 304.533 196.753 300.346 193.008L271.287 167.699C265.894 163.052 262.913 159.458 262.913 153.91V140.886C262.913 130.254 273.952 125.006 294.001 125.006C316.207 125.006 325.153 130.254 325.153 140.134V153.91H305.421V140.736Z" fill="white"/>
<path d="M179.465 233.737H179.592V142.106C179.592 129.833 172.105 125.638 146.6 125.638H108.469V233.764H128.264V233.737V134.015H144.506C153.515 134.015 159.797 135.218 159.797 140.766V233.737H179.465Z" fill="white"/>
</svg>
