<svg width="360" height="360" viewBox="0 0 360 360" fill="none" xmlns="http://www.w3.org/2000/svg">
<rect width="360" height="360" rx="82" fill="black"/>
<path d="M128.652 216.343C128.652 221.13 127.863 225.238 126.285 228.682C124.706 232.126 122.673 235.095 120.185 237.583C116.266 241.503 111.504 244.304 105.907 245.971C100.309 247.644 94.3565 248.48 88.043 248.48C82.5867 248.48 77.2087 247.691 71.8986 246.112C66.5886 244.534 61.8273 241.832 57.6201 238.006C54.5574 235.231 52.0226 231.808 50.0156 227.747C48.0035 223.686 47 219.212 47 214.336H65.9458C65.9458 216.829 66.4423 219.144 67.451 221.292C68.4544 223.445 69.7192 225.29 71.2558 226.816C73.4509 229.027 76.1059 230.475 79.2156 231.201C82.3253 231.917 85.3619 232.273 88.3305 232.273C91.8688 232.273 95.2189 231.87 98.3757 231.055C101.532 230.245 104.067 228.834 105.98 226.816C107.13 225.583 108.081 224.266 108.849 222.871C109.618 221.486 109.994 219.552 109.994 217.064C109.994 213.338 108.781 210.536 106.341 208.67C103.9 206.81 101.104 205.587 97.9419 205.012C94.4977 204.343 90.719 203.862 86.6058 203.58C82.4926 203.298 78.7609 202.853 75.416 202.278C71.8725 201.704 68.5485 200.7 65.444 199.268C62.3343 197.831 59.6061 195.944 57.2595 193.597C54.918 191.256 53.0522 188.434 51.6672 185.131C50.277 181.833 49.5818 178.08 49.5818 173.868C49.5818 169.849 50.3972 166.169 52.0226 162.819C53.648 159.469 55.8013 156.458 58.4824 153.777C61.8273 150.427 66.1339 147.798 71.3969 145.885C76.6599 143.973 82.3044 143.016 88.3305 143.016C93.7816 143.016 99.0185 143.852 104.041 145.525C109.064 147.202 113.302 149.664 116.741 152.915C119.804 155.784 122.266 159.04 124.131 162.673C125.997 166.31 126.975 170.277 127.074 174.584H108.133C108.034 172.77 107.579 170.972 106.769 169.206C105.954 167.434 104.924 165.882 103.686 164.538C102.055 162.819 99.7607 161.481 96.7973 160.519C93.8287 159.568 90.9594 159.087 88.1841 159.087C85.3148 159.087 82.3724 159.469 79.362 160.232C76.3463 161 73.7854 162.485 71.6844 164.685C70.6286 165.829 69.7924 167.073 69.1705 168.416C68.5485 169.754 68.2401 171.38 68.2401 173.293C68.2401 176.643 69.1966 179.199 71.1094 180.97C73.0223 182.742 75.5101 183.866 78.5728 184.341C81.8236 184.827 85.4821 185.256 89.5482 185.632C93.6144 186.019 97.3199 186.448 100.67 186.923C104.496 187.498 108.107 188.533 111.504 190.012C114.902 191.496 117.865 193.456 120.405 195.892C122.935 198.338 124.947 201.275 126.431 204.719C127.905 208.163 128.652 212.036 128.652 216.343Z" fill="#D6002A"/>
<path d="M208.763 246.763L201.592 238.725C197.474 242.363 192.953 245.039 188.03 246.763C183.101 248.483 178.005 249.345 172.742 249.345C168.248 249.345 163.941 248.629 159.828 247.192C155.715 245.765 152.129 243.727 149.067 241.093C146.009 238.464 143.568 235.234 141.75 231.408C139.931 227.582 139.021 223.271 139.021 218.488C139.021 212.175 140.673 206.776 143.976 202.271C147.274 197.776 151.654 193.856 157.105 190.506C155.474 188.781 153.995 187.088 152.657 185.405C151.314 183.738 150.169 182.034 149.213 180.309C148.251 178.59 147.514 176.771 146.987 174.858C146.464 172.945 146.197 170.792 146.197 168.404C146.197 164.385 146.939 160.794 148.424 157.637C149.903 154.48 151.889 151.778 154.377 149.531C156.864 147.284 159.807 145.585 163.204 144.435C166.596 143.291 170.207 142.716 174.038 142.716C177.77 142.716 181.329 143.265 184.726 144.367C188.124 145.465 191.113 147.09 193.7 149.244C196.282 151.397 198.336 154.031 199.867 157.135C201.399 160.245 202.167 163.81 202.167 167.829C202.167 171.179 201.686 174.163 200.725 176.797C199.773 179.426 198.43 181.82 196.711 183.973C194.991 186.121 192.953 188.107 190.611 189.926C188.265 191.75 185.709 193.464 182.934 195.09L200.583 214.323C201.446 212.698 202.042 210.806 202.376 208.652C202.711 206.499 202.972 204.231 203.165 201.837C203.359 199.543 203.458 197.295 203.458 195.09V189.367H229.715V203.572H217.951C217.752 207.591 217.23 211.558 216.372 215.478C215.51 219.408 213.979 223.035 211.778 226.391L230.573 246.763H208.763ZM167.579 201.701C165.859 202.757 164.281 203.766 162.843 204.717C161.411 205.673 160.136 206.781 159.039 208.02C157.941 209.264 157.079 210.67 156.457 212.253C155.835 213.837 155.526 215.671 155.526 217.783C155.526 220.365 156.028 222.659 157.032 224.671C158.04 226.678 159.378 228.351 161.051 229.694C162.723 231.032 164.657 232.03 166.863 232.704C169.063 233.373 171.357 233.702 173.751 233.702C176.808 233.702 179.871 233.274 182.934 232.412C185.996 231.549 188.625 229.882 190.826 227.389L167.579 201.701ZM185.375 168.555C185.375 165.017 184.298 162.289 182.145 160.376C179.997 158.463 177.289 157.507 174.038 157.507C171.075 157.507 168.441 158.39 166.147 160.162C163.852 161.933 162.702 164.588 162.702 168.127C162.702 169.752 163.011 171.283 163.633 172.715C164.255 174.153 165.018 175.517 165.932 176.808C166.836 178.099 167.866 179.311 169.016 180.466C170.16 181.611 171.263 182.714 172.319 183.764C173.845 182.907 175.397 182.018 176.981 181.109C178.554 180.205 179.965 179.175 181.209 178.02C182.453 176.87 183.456 175.532 184.225 174.001C184.993 172.48 185.375 170.661 185.375 168.555Z" fill="#D6002A"/>
<path d="M319.875 177.451C319.875 182.332 319.112 186.775 317.581 190.799C316.049 194.818 313.776 198.262 310.76 201.132C307.75 204.001 303.997 206.233 299.497 207.806C295.003 209.384 289.834 210.173 284.001 210.173H262.479V246.623H244.108V144.88H284.001C289.834 144.88 295.003 145.669 299.497 147.247C303.997 148.826 307.75 151.026 310.76 153.848C313.776 156.671 316.049 160.089 317.581 164.108C319.112 168.127 319.875 172.575 319.875 177.451ZM301.227 177.597C301.227 172.716 299.79 168.749 296.921 165.686C294.052 162.629 289.505 161.097 283.29 161.097H262.484V193.956H283.29C289.505 193.956 294.052 192.451 296.921 189.435C299.785 186.425 301.227 182.479 301.227 177.597Z" fill="#D6002A"/>
<path d="M324 104H47V119.679H324V104Z" fill="white"/>
</svg>
