<svg width="360" height="360" viewBox="0 0 360 360" fill="none" xmlns="http://www.w3.org/2000/svg">
<rect width="360" height="360" rx="82" fill="#284890"/>
<path fill-rule="evenodd" clip-rule="evenodd" d="M257.616 34C276.502 71.2122 263.561 104.24 257.06 116.896C270.375 101.364 271.266 86.2988 271.266 86.2988C271.266 86.2988 273.711 91.0889 274.509 96.4813C281.359 77.6061 274.064 61.8067 274.064 61.8067C274.064 61.8067 290.373 87.0865 272.624 109.486C272.365 107.374 271.979 105.28 271.469 103.214C267.912 109.836 260.296 119.159 252.027 125.624C272.15 120.015 281.313 110.082 285.287 96.9803C295.373 63.7919 257.616 34 257.616 34Z" fill="#BF1A4C"/>
<path fill-rule="evenodd" clip-rule="evenodd" d="M283.082 116.38C282.665 116.07 282.213 116.273 282.017 116.49C281.543 116.911 258.594 141.449 214.432 135.551C200.015 133.633 187.637 130.28 177.708 127.799C180.915 121.295 183.214 112.021 173.727 106.661C160.133 98.9623 141.65 112.228 140.606 113.992C140.192 114.698 140.745 115.054 141.333 115.118C143.717 115.357 161.944 114.844 169.778 125.882C150.407 121.084 148.076 129.356 150.927 137.889C152.617 142.978 157.011 152.405 163.305 161.64C163.305 161.64 163.74 162.206 163.33 162.741C163.068 163.016 162.739 163.219 162.375 163.329C131.753 173.572 109.032 203.824 94.5227 229.759C87.3087 215.88 83.5504 200.465 83.5668 184.824C83.5668 130.647 127.772 86.7269 182.302 86.7269C192.769 86.7269 202.848 88.3592 212.3 91.3459L212.375 91.1356C200.47 86.5623 187.824 84.2232 175.07 84.2356C117.6 84.2356 71 130.846 71 188.32C71 208.778 76.9199 227.863 87.1059 243.955C79.707 259.191 75.8043 270.642 75.5121 271.519C74.2183 275.522 74.0045 278.868 76.4886 279.969C78.6948 280.964 80.6051 279.699 84.1549 274.798C95.4672 259.269 143.432 188.099 176.756 210.606C193.318 221.797 198.532 232.179 188.874 241.87C183.784 246.981 171.642 254.173 164.293 257.644C152.966 262.997 146.822 264.07 147.77 268.073C148.636 271.747 153.383 271.74 172.476 266.807C194.402 261.119 244.206 248.171 218.48 205.983C206.861 186.902 194.972 172.492 186.999 160.667C186.789 160.364 186.721 160.036 186.963 159.697C187.224 159.316 187.94 159.366 187.94 159.366C272.508 153.097 282.815 118.835 283.136 117.684C283.193 117.438 283.485 116.729 283.082 116.38Z" fill="white"/>
<path fill-rule="evenodd" clip-rule="evenodd" d="M271.361 227.251C263.248 243.959 250.591 258.042 234.84 267.886C219.089 277.729 200.883 282.934 182.31 282.904C169.112 282.93 156.043 280.31 143.876 275.198C131.709 270.087 120.69 262.587 111.471 253.144C108.666 256.585 105.922 260.076 103.241 263.615C121.931 281.435 147.222 292.377 175.082 292.377C218.756 292.377 256.15 265.479 271.582 227.333L271.361 227.251Z" fill="white"/>
</svg>
