<svg width="360" height="360" viewBox="0 0 360 360" fill="none" xmlns="http://www.w3.org/2000/svg">
<rect width="360" height="360" rx="82" fill="#004A97"/>
<path fill-rule="evenodd" clip-rule="evenodd" d="M187.189 249C201.776 246 232.894 239 232.894 239V217C224.142 221 206.638 239 199.831 245C218.307 222 248.453 197 202.748 146C209.556 150 223.17 151 230.949 153L229.977 138L202.748 146C207.611 143 218.307 132 218.307 123C219.28 112 209.556 102 204.693 97L229.004 103C229.977 92 228.032 82 228.032 73C228.032 74 232.894 101 232.894 104C288.323 113 289.295 149 264.984 155C260.122 157 242.618 158 238.729 154C238.729 154 236.784 142 236.784 136C254.288 135 264.984 137 264.984 155C267.902 159 269.847 159 273.736 163C275.681 166 277.626 167 279.571 171C299.02 203 266.929 227 263.04 233L243.591 238L241.646 215C266.929 206 267.902 221 263.04 233C278.599 230 319.441 197 335 186C328.193 195 276.654 239 276.654 239C265.957 261 241.646 268 234.839 299H107.45C77.304 281 95.7803 262 70.4969 260C56.8828 259 55.9103 251 50.0757 241C45.2135 233 -7.29813 219 55.9103 227L81.1937 230C78.2764 194 75.3591 158 72.4418 120C72.4418 120 83.1386 213 85.0835 231L101.615 232C104.532 268 165.796 252 165.796 252L159.961 209C140.512 212 122.036 219 104.532 228C146.347 205 112.312 133 84.111 108C97.7252 117 133.705 127 152.182 131L150.237 108C141.485 107 116.201 111 104.532 113C148.292 99 103.56 71 96.7527 59L145.375 72L144.402 55L147.319 73C188.162 82 212.473 100 171.63 134L156.071 131C156.071 131 153.154 116 153.154 109C168.713 111 177.465 116 171.63 134C214.418 139 219.28 220 187.189 249L173.575 251L167.741 208C190.107 210 207.611 216 187.189 249Z" fill="white"/>
</svg>
