<svg width="360" height="360" viewBox="0 0 360 360" fill="none" xmlns="http://www.w3.org/2000/svg">
<rect width="360" height="360" rx="82" fill="#535852"/>
<path d="M129.142 55.5537C132.611 53.469 136.086 51.3898 139.555 50C140.945 53.469 143.024 56.9437 144.414 60.4127C136.775 64.5766 129.142 68.0511 122.199 72.9099C102.764 84.7123 84.7125 98.594 69.4411 115.95C57.6387 129.832 47.921 146.493 45.8363 165.239C45.1414 176.346 47.2261 188.149 54.1641 197.172C60.4128 204.81 70.1304 210.364 79.8481 211.748C90.9556 213.833 102.758 212.443 113.171 209.663C134.691 204.11 154.132 193.697 172.872 182.59C183.979 175.646 195.087 168.708 204.11 158.985C207.579 154.821 210.358 149.962 210.358 144.408C210.358 140.244 207.584 136.08 204.11 134.691C200.641 132.606 195.782 131.916 191.612 132.606C186.059 133.996 180.505 136.77 174.951 139.549C158.985 147.877 145.098 158.985 129.131 167.318C119.414 172.177 109.001 177.036 97.8936 177.036C90.95 177.036 84.0121 174.262 79.8426 168.708C76.3736 164.544 74.9837 159.685 75.6786 154.132C76.3735 145.804 79.8425 137.47 84.7014 131.222C93.7241 118.724 106.221 109.702 119.414 102.063C141.629 87.4865 165.923 75.684 191.612 68.7404C205.494 65.2714 219.381 63.1867 233.263 63.8816C253.393 64.5766 273.529 70.8253 290.19 82.6277C309.625 96.5093 324.207 118.724 325.597 143.024C327.682 163.154 321.433 183.29 312.405 201.336C305.461 215.217 295.744 227.714 285.331 238.822C277.003 247.845 267.975 256.178 258.952 263.811C247.15 274.224 233.963 283.246 220.771 291.58C207.579 299.913 193.002 306.851 178.426 313.1C174.262 315.185 169.403 317.264 165.234 318.654C162.459 306.156 158.29 293.664 155.516 281.167C167.318 275.613 179.121 270.755 190.923 264.506C204.115 257.562 216.607 248.54 228.409 239.517C238.822 231.189 248.54 222.856 257.568 213.138C272.839 197.172 285.337 176.347 288.111 154.132C288.806 145.804 288.806 138.165 286.721 129.832C281.862 113.171 270.06 98.5939 254.093 90.2605C240.901 83.317 225.63 80.5429 211.053 81.9328C189.533 83.3226 169.403 91.6505 150.657 101.368C141.634 106.227 133.301 111.086 124.973 116.639C116.645 121.498 109.007 127.052 102.758 134.691C99.9839 138.16 97.8992 142.329 97.8992 146.493C97.8992 149.273 99.9839 152.742 102.758 153.437C107.617 155.521 113.171 153.437 118.029 151.352C140.939 140.244 160.375 122.888 184.674 114.56C196.477 110.396 210.358 109.701 222.161 114.56C231.878 118.724 239.517 127.753 241.596 138.165C242.291 144.414 242.291 150.662 240.206 156.216C236.737 165.239 231.184 172.878 224.24 179.821C215.912 188.149 206.189 195.092 196.471 201.341C182.59 208.98 169.397 218.002 154.821 224.251C142.324 229.805 128.442 234.664 115.25 238.133C99.9783 242.296 84.0121 242.991 68.7351 239.522C53.4637 236.053 40.9663 227.72 34.0228 215.918C27.7741 206.2 25 194.398 25 183.29C25.6949 170.098 28.469 156.911 34.0228 145.109C43.7404 124.978 58.3225 106.927 75.6731 92.3509C92.3343 77.7744 110.385 65.277 129.821 54.8644L129.142 55.5537Z" fill="#72C04F"/>
</svg>
