<svg width="360" height="360" viewBox="0 0 360 360" fill="none" xmlns="http://www.w3.org/2000/svg">
<rect width="360" height="360" fill="white"/>
<mask id="mask0" mask-type="alpha" maskUnits="userSpaceOnUse" x="0" y="0" width="360" height="360">
<rect width="360" height="360" fill="url(#paint0_linear)"/>
</mask>
<g mask="url(#mask0)">
<path d="M360 0C294.599 0 229.197 0 163.504 0C109.197 0 54.3066 0 0 0C0 99.562 0 198.54 0 298.102C14.5985 268.029 34.4526 240.584 58.3942 216.934C82.3358 193.577 109.781 174.015 139.854 159.416C110.073 181.898 84.0876 209.635 63.9416 240.876C41.1679 276.788 26.2774 317.664 21.0219 360C28.0292 360 35.3285 360 42.3358 360C47.5912 313.869 63.9416 268.905 89.635 230.365C109.489 200.584 135.182 174.599 164.38 153.869C187.445 137.81 212.847 124.964 239.124 115.62C234.745 118.54 230.365 121.168 225.985 124.088C195.328 144.234 167.591 169.927 146.861 200C140.438 208.175 135.182 217.518 130.219 226.569C107.737 267.153 95.7664 313.577 94.5985 359.708C116.204 359.416 138.394 360 160 359.416C163.212 359.708 166.715 359.416 170.219 359.416C233.577 359.416 296.642 359.416 360 359.416C360 239.708 360 120 360 0ZM322.044 135.766C309.197 129.635 296.35 124.088 283.796 117.956C282.628 117.372 282.044 119.124 280.876 119.416C272.117 129.343 262.774 139.27 253.723 149.197C255.474 134.891 257.226 120.876 258.686 106.569C245.547 101.022 232.409 94.8905 219.562 89.0511C233.285 86.1314 247.591 83.5036 261.606 80.8759C263.358 66.5693 264.817 52.5547 266.277 37.9562C273.285 50.511 280 62.7737 287.299 75.6204C301.022 72.7007 315.328 69.489 329.343 66.8613C319.708 77.6642 309.781 87.8832 300.146 98.1022C307.445 110.949 314.453 123.212 322.044 135.766Z" fill="url(#paint1_linear)"/>
</g>
<defs>
<linearGradient id="paint0_linear" x1="0" y1="180" x2="360" y2="180" gradientUnits="userSpaceOnUse">
<stop stop-color="#1278BC"/>
<stop offset="1" stop-color="#021F5D"/>
</linearGradient>
<linearGradient id="paint1_linear" x1="0.0200876" y1="179.935" x2="359.997" y2="179.935" gradientUnits="userSpaceOnUse">
<stop stop-color="#0076BF"/>
<stop offset="1" stop-color="#021E5C"/>
</linearGradient>
</defs>
</svg>
