<svg width="360" height="360" viewBox="0 0 360 360" fill="none" xmlns="http://www.w3.org/2000/svg">
<rect width="360" height="360" rx="82" fill="#002856"/>
<path d="M318.804 95.8808C318.804 95.8808 254.906 127.624 200.723 155.821H173.169C163.675 148.908 153.735 141.747 144.695 135.404C114.509 114.184 72.404 86.5961 72.404 86.5961C70.7963 85.5708 70.5385 85.9504 72.0521 87.1085C72.0521 87.1085 112.273 117.356 142.484 138.571C151.281 144.765 161.108 151.508 170.603 157.944L166.323 174.008C159.995 177.399 153.641 180.842 147.004 184.458H132.374C106.983 167.153 81.7707 150.625 81.7707 150.625C79.9386 149.396 79.5928 149.793 81.4006 151.143C81.4006 151.143 103.747 167.932 127.579 185.231L124.464 196.806C79.2258 221.724 36.4569 245.999 36.4569 245.999C34.3761 247.179 34.5793 247.567 36.7147 246.478C36.7147 246.478 82.5078 223.726 129.447 199.632H147.629C149.051 200.636 150.45 201.635 151.83 202.599C158.6 207.361 166.016 212.439 173.375 217.453L171.528 224.384C165.091 227.915 158.6 231.545 152.661 234.928H141.216L139.178 242.656C132.247 246.639 127.764 249.278 127.764 249.278C125.149 250.719 125.465 251.283 128.152 250.009C128.152 250.009 133.673 247.382 141.835 243.381H152.512L154.153 237.305C160.538 234.13 167.469 230.629 174.297 227.123H187.61C207.475 240.496 224.127 251.416 224.127 251.416C226.214 252.799 226.508 252.366 224.476 250.9C224.476 250.9 209.076 239.313 190.173 225.454L192.272 217.574C214.937 205.232 239.394 190.866 239.394 190.866C242.084 189.286 241.808 188.804 239.008 190.132C239.008 190.132 211.879 203.084 188.496 215.299H176.25C168.743 209.839 161.127 204.391 154.062 199.429C152.403 198.276 150.726 197.09 149.027 195.901L151.002 188.494C158.015 184.866 164.888 181.275 171.455 177.805H200.265C209.019 183.616 214.776 187.381 214.776 187.381C216.295 188.367 216.608 187.96 215.122 186.871C215.122 186.871 209.556 182.682 201.035 176.345L205.537 159.526C258.685 130.634 319.047 96.3585 319.047 96.3585C321.777 94.7934 321.598 94.4687 318.804 95.8795" fill="white"/>
</svg>
