<svg width="360" height="360" viewBox="0 0 360 360" fill="none" xmlns="http://www.w3.org/2000/svg">
<rect width="360" height="360" rx="82" fill="black"/>
<path d="M202.627 95C197.921 94.9999 176.805 95.2436 176.805 95.2436V130.81H87.8884C87.8884 130.81 66.9284 130.81 58.1683 145.67C52.1073 154.888 52.8966 163.668 53.0525 164.915C52.8966 166.182 52.3412 174.971 58.4119 184.16C67.1916 199.03 87.8884 199.02 87.8884 199.02H134.661C142.261 199.02 143.402 204.818 143.431 207.303C143.402 209.778 142.232 215.342 134.661 215.342C126.934 215.342 45.7443 215.342 45.7443 215.342H36C36 220.117 36 241.408 36 241.408H133.686C133.686 241.408 154.461 241.486 163.163 226.548C169.214 217.379 168.639 208.54 168.522 207.303C168.6 205.997 169.243 196.964 163.163 187.814C154.442 172.886 133.686 172.954 133.686 172.954L86.9139 173.198C79.3524 173.217 78.222 167.39 78.1441 164.915C78.2025 162.421 79.3036 156.905 86.9139 156.876C94.6607 156.905 175.831 156.876 175.831 156.876H176.805V206.816C176.805 206.816 176.747 227.824 191.665 236.536C200.474 242.324 208.932 241.983 210.666 241.895H238.438V216.073H210.423C207.782 215.888 202.696 214.416 202.627 207.303C202.695 203.21 202.598 178.986 202.627 156.876L238.194 156.633C238.194 151.897 237.95 130.81 237.95 130.81H202.627C202.627 123.658 202.627 118.874 202.627 118.874V95ZM248.669 131.785L249.156 242.626H274.979V157.607H296.903C305.78 157.636 306.95 164.204 307.135 166.864V181.724H332.957V165.646C333.064 163.853 333.396 155.463 327.598 146.645C318.838 131.775 297.878 131.785 297.878 131.785H249.156H248.669Z" fill="white"/>
</svg>
