<svg width="360" height="360" viewBox="0 0 360 360" fill="none" xmlns="http://www.w3.org/2000/svg">
<rect width="360" height="360" rx="82" fill="#FDB511"/>
<path d="M299.497 44V51.5021H306.999V44H299.497ZM299.497 59.0042V66.5063H306.999V59.0042H299.497ZM276.99 66.5063V74.0084H284.492V66.5063H276.99Z" fill="#FDB511"/>
<path d="M178.843 72.1331C119.273 72.1331 71 120.407 71 179.976C71 239.545 119.273 287.819 178.843 287.819C238.412 287.819 286.686 239.545 286.686 179.976C286.686 120.407 238.412 72.1331 178.843 72.1331ZM178.843 106.518C219.375 106.518 252.301 139.444 252.301 179.976C252.301 220.508 219.375 253.434 178.843 253.434C138.311 253.434 105.697 220.508 105.697 179.976C105.697 139.444 138.311 106.518 178.843 106.518Z" fill="white"/>
<path d="M209.472 126.523C189.89 150.997 184.955 161.743 177.154 181.531C168.303 163.629 157.74 151.273 139.452 143.09C135.988 142.206 134.284 141.693 131.95 144.966C129.616 148.239 131.031 151.183 133.826 154.656C141.148 163.757 149.377 172.166 155.081 182.476C161.769 194.564 170.095 214.487 172.899 219.674C175.129 223.8 180.523 225.614 182.589 225.614C193.656 224.304 193.66 218.677 195.77 208.924C199.191 192.931 203.622 176.396 224.476 156.532V126.523H209.472Z" fill="black"/>
<path d="M291.99 51.5023V59.0044H299.492V51.5023H291.99ZM291.99 59.0044H276.986V66.5065H291.99V59.0044ZM276.986 66.5065H269.484V81.5108H276.986V66.5065ZM276.986 81.5108V89.0129H284.488V81.5108H276.986ZM284.488 81.5108H291.99V74.0086H284.488V81.5108ZM276.986 89.0129H269.484V96.515H261.981V89.0129H246.977V96.515H239.475V104.017H246.977V111.519H239.475V104.017H231.973V111.519H224.471V119.021H216.969V149.03H231.973V141.528H239.475V134.026H246.977V126.523H239.475V119.021H246.977V126.523H254.479V119.021H261.981V111.519H269.484V104.017H276.986V89.0129ZM261.981 89.0129H269.484V81.5108H261.981V89.0129ZM261.981 81.5108V74.0086H254.479V81.5108H261.981Z" fill="black"/>
</svg>
