<svg width="360" height="360" viewBox="0 0 360 360" fill="none" xmlns="http://www.w3.org/2000/svg">
<rect width="360" height="360" rx="82" fill="black"/>
<path d="M84.951 302.31C111.229 322.651 144.213 334.873 179.999 334.873C219.16 334.873 254.862 320.334 282.109 296.467C282.439 296.175 282.276 295.982 281.95 296.175C269.724 304.341 234.877 322.166 180 322.166C132.311 322.166 102.173 311.525 85.1531 302.025C84.8274 301.865 84.7068 302.109 84.951 302.31ZM190.52 310.229C228.663 310.229 270.578 299.832 295.646 279.249C302.506 273.642 309.041 266.178 314.893 256.147C318.262 250.376 321.557 243.519 324.24 236.778C324.359 236.45 324.157 236.29 323.909 236.659C300.598 270.965 233.091 292.363 163.388 292.363C114.119 292.363 61.1062 276.608 40.3513 246.524C40.147 246.246 39.9427 246.365 40.0671 246.685C59.4017 287.78 118.058 310.229 190.52 310.229ZM148.845 242.055C69.5153 242.055 32.1095 205.107 25.3242 179.893C25.2405 179.528 25 179.608 25 179.936C25 188.425 25.8496 199.379 27.3113 206.65C28.0086 210.189 30.889 215.743 35.1121 220.171C54.3216 240.193 102.213 268.25 185.154 268.25C298.158 268.25 323.996 230.608 329.272 218.229C333.045 209.375 335 193.377 335 179.937C335 176.685 334.919 174.087 334.796 171.537C334.796 171.123 334.556 171.089 334.473 171.492C328.826 201.783 232.277 242.055 148.845 242.055ZM39.9427 113.468C35.397 122.49 30.3583 137.709 28.8604 145.586C28.2038 148.961 28.4835 150.582 29.6671 153.1C39.1753 173.274 87.2699 205.552 199.456 205.552C267.897 205.552 321.064 188.737 329.678 158.054C331.264 152.405 331.349 146.441 329.311 138.405C327.035 129.426 322.771 118.954 319.162 111.601C319.043 111.361 318.833 111.397 318.876 111.68C320.216 151.925 207.986 177.862 151.36 177.862C90.0229 177.862 38.8512 153.424 38.8512 122.566C38.8512 119.602 39.4648 116.636 40.2307 113.55C40.3076 113.268 40.0663 113.221 39.9427 113.468ZM282.36 64.056C283.011 65.0767 283.336 66.166 283.336 67.6322C283.336 84.847 230.649 115.301 146.778 115.301C85.1531 115.301 73.6155 92.4398 73.6155 77.9011C73.6155 72.7041 75.6086 67.3865 79.9983 61.9859C80.238 61.6648 80.0345 61.5411 79.7578 61.7801C71.752 68.5647 64.396 76.1989 57.943 84.4399C54.8598 88.3373 52.9458 91.7899 52.9458 93.8585C52.9458 123.987 128.493 145.832 199.132 145.832C274.399 145.832 307.99 121.262 307.99 99.6684C307.99 91.9513 304.986 87.4463 297.302 78.7122C292.314 73.0305 287.595 68.4041 282.601 63.8502C282.36 63.6512 282.192 63.8132 282.36 64.056ZM259.285 46.8449C236.056 32.9214 209.081 25 180 25C150.716 25 122.929 33.1981 99.6164 47.4902C92.6237 51.7939 88.6879 55.2428 88.6879 59.6761C88.6879 72.7448 119.23 86.7965 173.416 86.7965C227.039 86.7965 268.63 71.4052 268.63 56.5899C268.63 53.0536 265.539 50.5795 259.285 46.8449Z" fill="#00A8E0"/>
</svg>
