<svg width="360" height="360" viewBox="0 0 360 360" fill="none" xmlns="http://www.w3.org/2000/svg">
<rect width="360" height="360" rx="82" fill="#ED1C24"/>
<path d="M188.511 51.068C187.858 50.4915 187.198 49.98 186.531 49.5352C187.373 49.6618 188.211 49.8126 189.046 49.9872L188.511 51.068ZM188.511 51.068C189.25 51.2175 189.987 51.3863 190.72 51.5741M188.511 51.068L190.72 51.5741M190.72 51.5741C202.816 54.6716 214.06 62.9418 223.654 75.1808H203.31C201.105 68.7523 198.677 63.2394 196.058 58.8062C194.372 55.9514 192.592 53.5187 190.72 51.5741ZM70.5806 123.624H69.3C69.4758 123.234 69.6535 122.845 69.8328 122.457L70.5806 123.624ZM70.5806 123.624C70.7584 123.234 70.9379 122.845 71.1191 122.457M70.5806 123.624L71.1191 122.457M71.1191 122.457C78.9882 105.625 90.1444 90.8714 103.672 79.153H128.635C120.612 91.1337 114.018 105.862 109.36 122.457M71.1191 122.457H109.36M109.36 122.457H110.247V123.624L109.122 123.314C109.201 123.028 109.28 122.742 109.36 122.457ZM25.0098 182.097H23.8434V180.93C23.8434 106.509 94.0676 46.2317 180.031 46.2317C265.954 46.2317 336.166 106.509 336.166 180.93V182.097H335H333.372H332.206V180.93C332.206 161.489 327.224 143.028 318.319 126.429H295.002C301.901 143.101 305.759 161.552 305.759 180.93V182.097H304.593H302.953H301.787V180.93C301.787 161.482 297.806 143.02 290.681 126.429H251.742C256.031 143.1 258.43 161.553 258.43 180.93V182.097H257.264H255.624H254.458V180.93C254.458 161.482 252.004 143.021 247.642 126.429H213.94C215.863 143.001 216.933 161.423 216.933 180.93V182.097H215.767H214.127H212.961V180.93C212.961 161.804 211.889 143.318 209.873 126.429H182V180.93V182.097H180.833H179.194H178.028V180.93V126.429H150.143C148.121 143.317 147.055 161.804 147.055 180.93V182.097H145.888H144.249H143.083V180.93C143.083 161.429 144.141 143.007 146.086 126.429H112.373C108.007 143.021 105.569 161.481 105.569 180.93V182.097H104.403H102.758H101.591V180.93C101.591 161.553 103.979 143.106 108.279 126.429H69.3402C62.2212 143.02 58.2344 161.482 58.2344 180.93V182.097H57.068H55.4285H54.2622V180.93C54.2622 161.553 58.1095 143.106 65.0292 126.429H41.7025C32.8033 143.028 27.8273 161.489 27.8273 180.93V182.097H26.661H25.0098ZM293.257 122.457H316.07C306.24 105.644 292.305 90.8812 275.368 79.153H262.265C275.152 91.1205 285.758 105.849 293.257 122.457ZM269.323 75.1808C257.591 67.8409 244.591 61.9095 230.664 57.6729C240.419 62.2893 249.524 68.1929 257.78 75.1808H269.323ZM251.493 75.1808C237.647 64.3729 221.628 56.6129 204.273 52.826C213.205 57.8176 221.398 65.4686 228.56 75.1808H251.493ZM256.326 79.153H231.359C239.391 91.1297 245.981 105.863 250.638 122.457H288.879C281.009 105.63 269.848 90.8714 256.326 79.153ZM178.016 77.9866H179.182V79.153H178.016V77.9866ZM159.925 78.3501C159.838 78.6161 159.751 78.8837 159.665 79.153H158.817V77.9866L159.925 78.3501ZM178.016 122.457H179.182V123.624H178.016V122.457ZM150.627 122.457C150.577 122.845 150.527 123.234 150.478 123.624H149.302C149.351 123.234 149.401 122.845 149.451 122.457H150.627ZM130.846 77.9866C130.576 78.3723 130.309 78.7611 130.042 79.153L130.846 77.9866ZM84.6187 79.153C67.7087 90.8817 53.7589 105.64 43.9281 122.457H66.753C74.2568 105.849 84.8431 91.1254 97.7236 79.153H84.6187ZM129.327 57.6755C115.398 61.913 102.4 67.8451 90.6656 75.1808H102.212C110.47 68.1942 119.573 62.2915 129.327 57.6755ZM169.27 51.5758C157.174 54.6746 145.937 62.9442 136.36 75.1808H156.686C158.884 68.7496 161.31 63.2365 163.929 58.8038C165.615 55.9505 167.397 53.5194 169.27 51.5758ZM155.724 52.8173C138.367 56.6107 122.348 64.3708 108.51 75.1749H131.437C138.593 65.4646 146.79 57.8135 155.724 52.8173ZM202.776 87.5953L202.775 87.5913C201.999 84.6185 201.18 81.8058 200.327 79.153H181.988V122.457H209.37C207.708 109.687 205.512 97.9252 202.776 87.5953ZM181.988 75.1808H198.992C196.295 67.5497 193.353 61.5518 190.302 57.3388C187.479 53.4416 184.669 51.2119 181.988 50.4779V75.1808ZM161.007 75.1808H178.016V50.4779C175.336 51.2119 172.526 53.4415 169.703 57.3388C166.652 61.5518 163.709 67.5497 161.007 75.1808ZM246.547 122.457C241.714 105.615 234.874 90.8616 226.6 79.153H204.606C208.313 91.0688 211.323 105.77 213.441 122.457H246.547ZM133.398 79.153C125.129 90.862 118.284 105.61 113.451 122.457H146.557C148.676 105.775 151.696 91.0686 155.398 79.153H133.398Z" fill="url(#paint0_linear)" stroke="#F3D221"/>
<path d="M332.173 180.474V179.307H333.339H334.955H336.121V180.474C336.121 254.9 265.909 315.166 179.986 315.166C94.0578 315.166 23.8337 254.895 23.8337 180.474V179.307H25H26.6512H27.8176V180.474C27.8176 199.921 32.7879 218.371 41.6929 234.986H65.0133C58.0936 218.314 54.2465 199.862 54.2465 180.474V179.307H55.4129H57.0524H58.2187V180.474C58.2187 199.927 62.2111 218.378 69.3251 234.986H108.263C103.969 218.315 101.576 199.862 101.576 180.474V179.307H102.742H104.387H105.554V180.474C105.554 199.929 107.991 218.378 112.358 234.986H146.07C144.125 218.398 143.067 199.992 143.067 180.474V179.307H144.233H145.873H147.039V180.474C147.039 199.6 148.111 218.087 150.127 234.986H178.006V180.474V179.307H179.172H180.812H181.978V180.474V234.986H209.851C211.873 218.087 212.939 199.6 212.939 180.474V179.307H214.106H215.745H216.911V180.474C216.911 199.994 215.836 218.399 213.912 234.986H247.615C251.982 218.383 254.431 199.928 254.431 180.474V179.307H255.597H257.236H258.403V180.474C258.403 199.862 256.01 218.315 251.71 234.986H290.648C297.773 218.384 301.754 199.928 301.754 180.474V179.307H302.92H304.56H305.726V180.474C305.726 199.863 301.873 218.315 294.975 234.986H318.286C327.191 218.376 332.173 199.92 332.173 180.474ZM66.7492 238.958H43.9251C53.7612 255.771 67.7108 270.528 84.6149 282.257H97.7197C84.8392 270.284 74.2529 255.561 66.7492 238.958ZM159.669 282.257H178.018V238.958H150.628C152.276 251.711 154.493 263.483 157.218 273.803L157.219 273.805C158 276.784 158.82 279.594 159.669 282.257ZM90.6675 286.229C102.406 293.568 115.411 299.502 129.346 303.744C119.585 299.122 110.477 293.216 102.214 286.229H90.6675ZM136.362 286.229C145.937 298.464 157.171 306.735 169.263 309.825C167.391 307.885 165.612 305.456 163.929 302.606C161.31 298.173 158.886 292.657 156.688 286.229H136.362ZM108.511 286.229C122.342 297.032 138.352 304.786 155.695 308.573C146.77 303.586 138.583 295.938 131.439 286.229H108.511ZM209.372 238.958H181.99V282.257H200.33C201.186 279.597 202 276.792 202.777 273.808L202.778 273.802C205.52 263.478 207.715 251.712 209.372 238.958ZM250.639 238.958C245.983 255.548 239.393 270.276 231.355 282.257H256.323C269.85 270.538 281.011 255.785 288.875 238.958H250.639ZM293.259 238.958C285.759 255.562 275.153 270.285 262.266 282.257H275.37C292.307 270.529 306.241 255.771 316.077 238.958H293.259ZM204.287 308.577C221.638 304.793 237.653 297.034 251.495 286.229H228.557C221.402 295.941 213.214 303.59 204.287 308.577ZM190.728 309.827C202.821 306.739 214.063 298.467 223.65 286.229H203.307C201.104 292.657 198.677 298.173 196.059 302.606C194.376 305.457 192.598 307.887 190.728 309.827ZM230.646 303.747C244.579 299.505 257.585 293.568 269.328 286.229H257.788C249.523 293.218 240.41 299.125 230.646 303.747ZM103.674 282.257H128.638C120.62 270.276 114.02 255.549 109.362 238.958H71.1213C78.9904 255.785 90.1465 270.538 103.674 282.257ZM204.613 282.257H226.608C234.882 270.548 241.722 255.801 246.555 238.958H213.442C211.324 255.635 208.314 270.332 204.613 282.257ZM155.4 282.257C151.699 270.332 148.678 255.636 146.559 238.958H113.453C118.286 255.8 125.131 270.548 133.4 282.257H155.4ZM190.304 304.06C193.355 299.847 196.297 293.852 198.994 286.229H181.99V310.929C184.671 310.191 187.482 307.957 190.304 304.06ZM178.018 310.928V286.229H161.009C163.711 293.851 166.654 299.845 169.705 304.058C172.527 307.954 175.337 310.188 178.018 310.928Z" fill="url(#paint1_linear)" stroke="#F3D221"/>
<defs>
<linearGradient id="paint0_linear" x1="180.024" y1="45.7479" x2="180.024" y2="713.628" gradientUnits="userSpaceOnUse">
<stop stop-color="#F1CB00"/>
<stop offset="1" stop-color="white"/>
</linearGradient>
<linearGradient id="paint1_linear" x1="179.951" y1="315.726" x2="179.951" y2="-352.436" gradientUnits="userSpaceOnUse">
<stop stop-color="#F1CB00"/>
<stop offset="1" stop-color="white"/>
</linearGradient>
</defs>
</svg>
