<svg width="360" height="360" viewBox="0 0 360 360" fill="none" xmlns="http://www.w3.org/2000/svg">
<rect width="360" height="360" rx="82" fill="black"/>
<path d="M40.6758 126.97H39.8644L39.6972 127.764L36.0215 145.224L35.7676 146.43H37H67.0086L48.6247 232.653L48.367 233.861H49.6027H72.1826H72.9931L73.1609 233.069L91.5033 146.43H122.068H122.88L123.047 145.636L126.723 128.176L126.977 126.97H125.744H40.6758Z" fill="#41779A" stroke="#41779A" stroke-width="2"/>
<path d="M139.938 126.97H139.127L138.96 127.763L116.774 232.786L116.519 233.993H117.752H152.672H152.692L152.713 233.992C162.415 233.599 173.145 232.946 182.961 227.432C200.586 217.552 211.234 200.87 215.483 180.687C219.723 160.546 216.335 143.642 202.624 133.596L202.623 133.596C194.987 128.005 184.568 127.232 174.885 126.97L174.872 126.97H174.858H139.938ZM184.485 207.775L184.482 207.778C179.274 213.622 170.481 219.39 156.085 219.39H136.054L152.694 141.31H173.151C187.396 141.31 193.701 147.176 196.269 152.679L196.273 152.688C200.471 161.465 200.244 170.533 198.167 180.139L198.165 180.146L198.164 180.154C196.224 189.854 192.486 198.871 184.485 207.775Z" fill="white" stroke="white" stroke-width="2"/>
<mask id="path-6-outside-1" maskUnits="userSpaceOnUse" x="223.471" y="124" width="102" height="114" fill="black">
<rect fill="white" x="223.471" y="124" width="102" height="114"/>
<path d="M307.582 154.225C307.582 141.753 297.474 138.34 286.184 138.34C260.453 138.34 246.407 160.92 242.731 180.48C238.136 207.393 243.256 222.096 273.187 222.621C280.276 222.621 287.628 221.439 294.848 219.339L301.15 189.67H277.257L279.883 177.199H318.216L307.188 229.053C294.323 232.729 281.72 235.224 269.774 235.224C254.94 235.224 243.256 233.386 233.935 223.146C224.483 212.906 224.089 195.446 227.24 180.612C229.603 169.716 235.773 157.769 243.125 148.317C255.727 132.301 272.4 126 290.385 126C308.107 126 326.093 134.139 322.548 154.356H307.582"/>
</mask>
<path d="M307.582 154.225C307.582 141.753 297.474 138.34 286.184 138.34C260.453 138.34 246.407 160.92 242.731 180.48C238.136 207.393 243.256 222.096 273.187 222.621C280.276 222.621 287.628 221.439 294.848 219.339L301.15 189.67H277.257L279.883 177.199H318.216L307.188 229.053C294.323 232.729 281.72 235.224 269.774 235.224C254.94 235.224 243.256 233.386 233.935 223.146C224.483 212.906 224.089 195.446 227.24 180.612C229.603 169.716 235.773 157.769 243.125 148.317C255.727 132.301 272.4 126 290.385 126C308.107 126 326.093 134.139 322.548 154.356H307.582" fill="white"/>
<path d="M242.731 180.48L240.765 180.111L240.762 180.127L240.759 180.144L242.731 180.48ZM273.187 222.621L273.152 224.621L273.17 224.621H273.187V222.621ZM294.848 219.339L295.407 221.259L296.556 220.925L296.805 219.754L294.848 219.339ZM301.15 189.67L303.106 190.085L303.619 187.67H301.15V189.67ZM277.257 189.67L275.3 189.258L274.792 191.67H277.257V189.67ZM279.883 177.199V175.199H278.26L277.925 176.787L279.883 177.199ZM318.216 177.199L320.172 177.615L320.686 175.199H318.216V177.199ZM307.188 229.053L307.738 230.977L308.894 230.646L309.145 229.469L307.188 229.053ZM233.935 223.146L235.414 221.8L235.405 221.789L233.935 223.146ZM227.24 180.612L225.285 180.188L225.284 180.196L227.24 180.612ZM243.125 148.317L241.553 147.081L241.546 147.089L243.125 148.317ZM322.548 154.356V156.356H324.228L324.518 154.702L322.548 154.356ZM309.582 154.225C309.582 147.336 306.729 142.698 302.161 139.9C297.756 137.202 291.964 136.34 286.184 136.34V140.34C291.693 140.34 296.601 141.185 300.072 143.311C303.381 145.338 305.582 148.642 305.582 154.225H309.582ZM286.184 136.34C259.015 136.34 244.513 160.168 240.765 180.111L244.696 180.85C248.3 161.673 261.892 140.34 286.184 140.34V136.34ZM240.759 180.144C238.457 193.631 238.439 204.715 243.316 212.507C248.305 220.478 257.947 224.354 273.152 224.621L273.222 220.621C258.496 220.363 250.612 216.625 246.707 210.385C242.69 203.966 242.41 194.242 244.702 180.817L240.759 180.144ZM273.187 224.621C280.494 224.621 288.035 223.404 295.407 221.259L294.29 217.418C287.221 219.475 280.059 220.621 273.187 220.621V224.621ZM296.805 219.754L303.106 190.085L299.193 189.254L292.892 218.923L296.805 219.754ZM301.15 187.67H277.257V191.67H301.15V187.67ZM279.214 190.082L281.84 177.611L277.925 176.787L275.3 189.258L279.214 190.082ZM279.883 179.199H318.216V175.199H279.883V179.199ZM316.26 176.783L305.232 228.637L309.145 229.469L320.172 177.615L316.26 176.783ZM306.639 227.13C293.859 230.782 281.457 233.224 269.774 233.224V237.224C281.983 237.224 294.787 234.677 307.738 230.977L306.639 227.13ZM269.774 233.224C255.064 233.224 244.137 231.383 235.414 221.8L232.456 224.492C242.375 235.389 254.815 237.224 269.774 237.224V233.224ZM235.405 221.789C231.057 217.079 228.703 210.606 227.848 203.367C226.993 196.137 227.654 188.289 229.196 181.027L225.284 180.196C223.675 187.769 222.957 196.068 223.875 203.837C224.792 211.596 227.361 218.973 232.466 224.503L235.405 221.789ZM229.194 181.036C231.48 170.496 237.491 158.818 244.703 149.545L241.546 147.089C234.055 156.721 227.726 168.936 225.285 180.188L229.194 181.036ZM244.696 149.554C256.865 134.09 272.918 128 290.385 128V124C271.882 124 254.59 130.512 241.553 147.081L244.696 149.554ZM290.385 128C299.002 128 307.459 129.989 313.265 134.214C316.143 136.309 318.353 138.937 319.657 142.149C320.961 145.359 321.409 149.271 320.578 154.011L324.518 154.702C325.459 149.333 324.989 144.646 323.363 140.644C321.738 136.643 319.009 133.447 315.618 130.98C308.887 126.081 299.49 124 290.385 124V128ZM322.548 152.356H307.582V156.356H322.548V152.356Z" fill="white" mask="url(#path-6-outside-1)"/>
</svg>
