<svg width="360" height="360" viewBox="0 0 360 360" fill="none" xmlns="http://www.w3.org/2000/svg">
<rect width="360" height="360" rx="82" fill="#E98300"/>
<path d="M294.809 141.352H130.067C116.708 141.352 105.877 130.52 105.877 117.161C105.877 103.832 116.708 93 130.067 93H294.809C308.168 93 319 103.832 319 117.161C319 130.52 308.168 141.352 294.809 141.352ZM286.676 238.197C286.676 224.808 275.845 213.977 262.485 213.977H97.7138C84.3546 213.977 73.5527 224.808 73.5527 238.167C73.5527 251.497 84.3546 262.329 97.7138 262.329H262.485C275.815 262.329 286.646 251.527 286.676 238.197ZM25 177.475C25 183.898 27.5276 190.083 32.0848 194.611C36.6196 199.168 42.7752 201.725 49.2206 201.725H213.962C227.322 201.725 238.153 190.893 238.153 177.564C238.153 164.205 227.322 153.373 213.962 153.373H49.2206C42.8049 153.373 36.6419 155.901 32.1145 160.428C27.5871 164.933 25.0297 171.059 25 177.475Z" fill="white"/>
</svg>
