<svg width="360" height="360" viewBox="0 0 360 360" fill="none" xmlns="http://www.w3.org/2000/svg">
<rect width="360" height="360" rx="82" fill="#CC0000"/>
<path d="M179.927 283.323C122.859 283.323 76.5468 237.085 76.5468 180.007C76.5468 122.826 122.859 76.6213 179.927 76.6213C237.045 76.6213 283.299 122.826 283.299 180.007C283.299 237.085 237.045 283.323 179.927 283.323ZM179.927 25C94.3755 25 25 94.3931 25 180.007C25 265.556 94.3755 334.927 179.927 334.927C265.516 334.927 335 265.556 335 180.007C335 94.3931 265.516 25 179.927 25Z" fill="white"/>
<path d="M179.927 126.89C150.602 126.89 126.842 150.593 126.842 180.007C126.842 209.324 150.602 233.098 179.927 233.098C209.28 233.098 233.092 209.323 233.092 180.007C233.092 150.594 209.28 126.89 179.927 126.89Z" fill="white"/>
</svg>
