<svg width="360" height="360" viewBox="0 0 360 360" fill="none" xmlns="http://www.w3.org/2000/svg">
<rect width="360" height="360" rx="82" fill="#8BCBCB"/>
<path d="M156.216 104.765L156.416 140.941C155.937 141.286 153.775 141.543 153.663 141.242C145.071 119.944 138.195 108.855 112.439 108.855H109.464V221.049C109.464 226.666 110.099 230.6 112.963 233.23C114.936 235.046 122.191 235.893 128.075 235.893C128.399 235.893 128.432 239.058 128.075 239.058H72.3409C71.9843 239.058 72.0288 235.893 72.3409 235.893C78.2141 235.893 85.4804 235.046 87.4419 233.23C90.3172 230.6 90.9525 226.666 90.9525 221.049V108.855H87.9769C62.2327 108.855 55.3453 119.944 46.7527 141.242C46.6301 141.543 44.4792 141.286 44 140.941L44.2006 104.765H156.216Z" fill="black"/>
<path d="M189.638 222.353C189.638 227.513 189.003 231.614 186.406 233.787C184.233 235.604 179.742 236.094 173.278 236.094C172.933 236.094 172.888 239.058 173.278 239.058H223.775C224.165 239.058 224.131 236.094 223.775 236.094C217.311 236.094 212.819 235.604 210.646 233.787C208.038 231.614 207.414 227.513 207.414 222.353V150.202C207.414 145.031 208.038 140.941 210.646 138.768C212.819 136.951 217.311 136.472 223.775 136.472C224.131 136.472 224.165 133.496 223.775 133.496H173.278C172.888 133.496 172.933 136.472 173.278 136.472C179.742 136.472 184.233 136.951 186.406 138.768C189.003 140.941 189.638 145.031 189.638 150.202V222.353Z" fill="black"/>
<path d="M323.42 133.496H245.095C244.738 133.496 244.772 136.472 245.095 136.472C250.968 136.472 255.203 136.951 257.176 138.768C259.538 140.941 260.118 145.031 260.118 150.202V222.353C260.118 227.513 259.538 231.614 257.176 233.787C255.203 235.604 250.968 236.094 245.095 236.094C244.772 236.094 244.738 239.058 245.095 239.058H295.224C295.603 239.058 295.569 236.094 295.224 236.094C288.749 236.094 283.288 235.604 281.126 233.787C278.518 231.614 277.883 227.513 277.883 222.353V188.083H285.929C294.053 188.083 297.976 189.353 301.398 191.961C304.24 194.134 306.491 198.626 306.491 202.894C306.491 203.24 308.085 203.306 309.01 202.894V169.282C308.085 168.892 306.491 168.936 306.491 169.282C306.491 173.561 304.24 178.454 301.398 180.627C297.976 183.235 294.053 184.65 285.929 184.65H277.883V137.341H287.144C311.071 137.341 318.304 148.731 321.904 161.971C321.982 162.272 324.077 161.993 323.999 161.659L323.42 133.496Z" fill="black"/>
</svg>
