<svg width="360" height="360" viewBox="0 0 360 360" fill="none" xmlns="http://www.w3.org/2000/svg">
<rect width="360" height="360" rx="82" fill="#C31230"/>
<path d="M258.967 145.376L279.799 108.023H318L281.273 171.979L313.668 227.811H277.044L258.831 196.12L222.055 263.299H183.049L235.742 172.119L198.826 108.023H238.27L258.967 145.376Z" fill="white"/>
<path d="M85.9705 139.022H59.3241H46.9938H46V108H92.7331H113.81H162.725V139.022H161.928H150.001H122.76V193.509V262.718V263.116H104.462H85.9705V262.718V193.509V139.022Z" fill="white"/>
<path d="M165.595 108.069H200.674V204.914C200.674 249.219 179.444 264.696 145.292 264.696C137.211 264.696 132.472 264.454 125.549 262.137L125.565 234.668C136.601 234.901 139.196 234.494 141.212 234.345C152.407 233.51 165.597 228.689 165.597 204.45V108.069H165.595Z" fill="white"/>
</svg>
