<svg width="360" height="360" viewBox="0 0 360 360" fill="none" xmlns="http://www.w3.org/2000/svg">
<rect width="360" height="360" rx="82" fill="black"/>
<path fill-rule="evenodd" clip-rule="evenodd" d="M54.8218 153.637V147.004H25V153.637H35.2208V182.478H44.4578V153.637H54.8218ZM169.772 182.478C169.527 180.122 169.375 178.303 169.375 177.074V165.134C169.375 160.174 165.743 157.079 160.927 157.079C157.435 157.126 154.393 158.7 152.72 161.45C151.689 158.7 148.644 157.225 145.792 157.225C142.353 157.225 139.454 158.355 137.828 161.45L137.635 157.765H129.187V182.478H137.93V167.595C137.93 166.809 137.586 162.582 141.617 162.582C144.318 162.582 144.96 164.991 144.96 167.347V182.478H153.654V167.595C153.654 166.809 153.31 162.582 157.339 162.582C160.042 162.582 160.678 164.991 160.678 167.347V182.478H169.772ZM127.178 165.038V157.52C123.394 157.468 120.492 158.7 119.365 162.483L119.17 157.765H110.423C110.619 159.78 110.619 162.483 110.619 164.103V182.478H119.365V171.67C119.365 167.595 120.545 165.084 125.362 164.988C125.949 164.988 126.538 164.988 127.178 165.038ZM184.84 157.079C176.783 157.079 171.525 161.549 171.525 170.047C171.525 178.794 176.832 183.167 184.84 183.167C192.848 183.167 198.156 178.794 198.156 170.047C198.156 161.549 192.898 157.079 184.84 157.079ZM184.84 162.287C188.525 162.287 189.213 166.068 189.213 169.951C189.213 174.473 188.428 178.008 184.84 178.008C181.252 178.008 180.467 174.473 180.467 169.951C180.467 166.019 181.156 162.238 184.84 162.238V162.287ZM81.7587 182.478C81.5134 180.122 81.4142 178.449 81.4142 177.074V165.134C81.4142 160.174 77.7299 157.079 72.9157 157.079C71.4414 157.079 70.0139 157.324 68.7876 157.864C67.6578 158.405 66.5776 159.187 65.6434 160.369V147.002H56.8968V182.476H65.6434V167.592C65.6434 166.807 65.299 162.579 69.3278 162.579C72.078 162.579 72.6703 164.988 72.6703 167.344V182.476H81.7587V182.478ZM108.489 171.817C108.538 162.924 105.885 157.079 96.0082 157.079C88.1958 157.079 83.5333 161.893 83.5333 169.411C83.5333 178.651 86.8208 183.167 96.4519 183.167C99.4473 183.167 102.101 182.478 104.115 181.103C106.279 179.679 108.048 177.419 108.293 174.322H100.037C99.7918 176.584 98.469 178.105 95.8622 178.105C92.5195 178.105 91.8334 174.911 91.8831 171.817H108.489ZM100.136 167.055H92.0317C92.2246 164.451 92.8144 161.797 96.0606 161.651C97.5322 161.598 98.5187 162.287 99.1552 163.37C99.8441 164.401 100.136 165.776 100.136 167.102V167.055Z" fill="#EF4135"/>
<path fill-rule="evenodd" clip-rule="evenodd" d="M335 164.598V157.078C331.217 157.028 328.318 158.26 327.188 162.043L326.992 157.767H318.246C318.441 159.781 318.441 162.481 318.441 164.107V182.482H327.188V171.669C327.188 167.593 328.367 164.645 333.181 164.545C333.771 164.545 334.364 164.546 335 164.598ZM289.507 182.482C289.261 180.123 289.162 178.451 289.162 177.075V165.135C289.162 160.172 285.478 157.078 280.664 157.078C279.189 157.078 277.858 157.323 276.635 157.863C275.505 158.403 274.326 159.191 273.392 160.371V147.006H264.642V182.479H273.392V167.593C273.392 166.805 273.047 162.581 277.076 162.581C279.829 162.581 280.419 164.989 280.419 167.348V182.479H289.507V182.482ZM262.501 175.111C262.501 171.277 260.484 169.412 257.684 168.381C252.429 166.51 248.497 166.416 248.497 164.446C248.497 162.977 249.332 162.14 250.754 162.14C251.883 162.14 252.625 162.432 253.113 162.925C253.556 163.418 253.749 164.201 253.749 165.284H262.055C261.859 158.797 256.75 157.075 251.148 157.075C246.38 157.075 240.188 158.745 240.188 164.694C240.188 173.342 254.19 171.079 254.19 175.7C254.19 177.321 252.867 178.054 251.148 178.054C250.164 178.054 249.376 177.563 248.888 176.874C248.395 176.238 248.199 175.304 248.348 174.469H239.998C239.847 181.837 245.303 183.166 251.349 183.166C256.998 183.171 262.501 181.107 262.501 175.111ZM316.284 171.82C316.336 162.925 313.679 157.078 303.803 157.078C295.991 157.078 291.326 161.892 291.326 169.412C291.326 178.649 294.616 183.171 304.247 183.171C307.242 183.171 309.896 182.482 311.91 181.107C314.071 179.68 315.84 177.42 316.085 174.325H307.835C307.587 176.582 306.261 178.106 303.657 178.106C300.315 178.106 299.628 174.915 299.675 171.82H316.284ZM307.931 167.056H299.827C300.02 164.449 300.612 161.798 303.856 161.649C305.33 161.6 306.311 162.289 306.95 163.369C307.639 164.402 307.931 165.777 307.931 167.103V167.056ZM237.766 157.767H229.02V182.482H237.766V157.767ZM226.3 153.542L228.364 147.008H204.863V182.482H214.1V168.527H221.563L223.619 161.994H214.1V153.545H226.3V153.542ZM237.761 153.523L239.838 147H231.197L229.122 153.523H237.761Z" fill="#EF4135"/>
<path d="M108.456 192.874H105.248V212.985H108.456V192.874Z" fill="white"/>
<path fill-rule="evenodd" clip-rule="evenodd" d="M321.189 213.329C314.49 213.329 309.477 209.614 309.477 203.083C309.477 196.473 315.101 192.455 321.398 192.455C323.649 192.455 326.127 193.193 327.709 194.219L326.066 196.175C324.644 195.392 323.112 194.872 321.437 194.858C319.031 194.839 316.664 195.561 315.063 197.316C313.757 198.749 313.029 200.601 313.029 203.199C313.029 206.021 313.9 207.57 315.416 209.069C316.951 210.587 319.301 211.003 321.607 211.003C323.448 211.003 325.27 210.32 326.694 209.568L328.257 211.45C326.628 212.541 323.856 213.329 321.189 213.329Z" fill="white"/>
<path d="M290.672 192.874H287.462V212.985H290.672V192.874Z" fill="white"/>
<path fill-rule="evenodd" clip-rule="evenodd" d="M214.94 195.279H207.448V212.985H204.317V195.279H196.882V192.874H215.29L214.94 195.279Z" fill="white"/>
<path fill-rule="evenodd" clip-rule="evenodd" d="M47.8528 212.271C46.3207 213.032 44.4027 213.404 42.1844 213.404C39.3378 213.404 36.4498 212.773 34.0469 211.59L35.378 209.314C37.712 210.477 39.9302 211.001 42.3938 211.001C44.0004 211.001 45.0641 210.722 46.0507 210.185C47.1998 209.557 47.8197 208.697 47.8197 207.586C47.8197 205.908 46.5302 204.858 43.4218 204.133L40.1479 203.373C36.8935 202.612 34.8461 200.579 34.8461 198.198C34.8461 194.767 38.2163 192.339 43.0222 192.339C45.8247 192.339 48.8201 193.042 50.738 194.254L49.2912 196.354C47.3264 195.268 45.279 194.745 43.1902 194.745C40.3326 194.745 38.3513 195.855 38.3513 197.74C38.3513 199.193 39.5582 200.058 42.3718 200.733L45.3947 201.458C47.1115 201.871 48.8532 202.596 49.8453 203.497C50.7905 204.359 51.4076 205.743 51.4076 207.09C51.4104 209.143 50.096 211.147 47.8528 212.271Z" fill="white"/>
<path fill-rule="evenodd" clip-rule="evenodd" d="M176.678 212.985L168.689 202.257C167.19 200.248 164.66 196.327 164.66 196.327C164.66 196.327 164.944 199.722 164.966 202.698L165.041 212.985H161.847V192.871H165.652L173.726 203.822C175.297 205.958 177.485 209.339 177.485 209.339C177.485 209.339 177.008 205.63 176.984 202.965L176.912 192.871H180.075V212.985H176.678Z" fill="white"/>
<path d="M234.985 192.874H231.778V212.985H234.985V192.874Z" fill="white"/>
<path fill-rule="evenodd" clip-rule="evenodd" d="M269.957 195.238H258.929V201.19H268.26V203.56H258.929V212.985H255.719V192.874H270.385L269.957 195.238Z" fill="white"/>
<path fill-rule="evenodd" clip-rule="evenodd" d="M129.187 212.985V192.874H144.015L143.588 195.279H132.397V201.27H141.937V203.673H132.436V210.463H144.414V212.985H129.187Z" fill="white"/>
<path fill-rule="evenodd" clip-rule="evenodd" d="M80.4553 213.329C73.7535 213.329 68.7437 209.614 68.7437 203.083C68.7437 196.473 74.368 192.455 80.662 192.455C82.9134 192.455 85.3934 193.193 86.9724 194.219L85.33 196.175C83.9109 195.392 82.3761 194.872 80.7034 194.858C78.2977 194.839 75.9277 195.561 74.3267 197.316C73.0205 198.749 72.293 200.601 72.293 203.199C72.293 206.021 73.1637 207.57 74.6794 209.069C76.217 210.587 78.5649 211.003 80.8714 211.003C82.7122 211.003 84.5336 210.32 85.9611 209.568L87.5209 211.45C85.8923 212.541 83.1228 213.329 80.4553 213.329Z" fill="white"/>
</svg>
