<svg width="360" height="360" viewBox="0 0 360 360" fill="none" xmlns="http://www.w3.org/2000/svg">
<rect width="360" height="360" rx="82" fill="#999B9E"/>
<path d="M275.002 178.222H227.949V226.238H275.002V178.222Z" fill="white"/>
<path d="M131.053 178.222H84V226.238H131.053V178.222Z" fill="white"/>
<path d="M197.005 82.3779H202.587C238.643 82.3779 255.449 101.666 262.471 153.105L273.636 152.612L272.146 71H88.6734L86.8652 152.612L97.6093 153.105C99.4701 133.817 101.702 123.429 106.545 113.041C115.107 93.7501 132.976 82.3779 154.937 82.3779H162.754V259.938C162.754 278.733 161.638 284.669 157.175 289.121C153.45 292.582 146.004 294.066 137.439 294.066H128.877V305.935H230.882V294.066H222.267C213.758 294.066 206.259 292.58 202.59 289.121C198.124 284.669 197.008 278.73 197.008 259.938V82.3779" fill="#ED008C"/>
</svg>
