<svg width="360" height="360" viewBox="0 0 360 360" fill="none" xmlns="http://www.w3.org/2000/svg">
<rect width="360" height="360" rx="82" fill="#28170B"/>
<path d="M45.9339 196.143C34.5489 194.064 26.4905 188.585 25.2694 182.094C23.0326 170.203 34.9147 161.703 53.7747 161.703C58.5059 161.703 64.4264 162.44 67.0178 163.352C70.2983 164.506 72.3196 164.673 73.7552 163.907C77.5587 161.876 78.1759 162.652 78.1759 169.465C78.1759 177.309 76.3395 178.28 72.805 172.306C67.2629 162.938 51.1766 161.476 44.23 169.71C41.5653 172.868 41.3023 173.933 41.7302 179.833C42.1404 185.488 42.6947 186.86 45.6257 189.471C49.5575 192.975 56.0539 194.404 62.8887 193.268C66.3373 192.695 68.7281 191.321 71.7386 188.181C75.4566 184.303 78.1759 182.765 78.1759 184.54C78.1759 186.711 73.8913 191.764 70.3837 193.731C65.6622 196.377 53.685 197.559 45.9339 196.143ZM103.986 195.567C90.1439 192.427 82.7187 185.748 84.2165 177.786C86.0721 167.921 96.0257 162.617 113.988 161.922C127.856 161.385 138.442 163.879 144.632 169.142C154.265 177.332 149.231 190.059 134.65 194.377C126.11 196.907 112.258 197.444 103.986 195.567ZM125.451 192.11C131.864 189.075 134.399 180.211 131.103 172.346C128.729 166.679 125.518 165.03 116.859 165.03C110.164 165.03 108.953 165.376 105.793 168.191C102.692 170.955 102.183 172.21 101.751 178.162C101.175 186.113 102.964 189.815 108.556 192.241C113.311 194.303 120.941 194.244 125.451 192.11ZM228.268 195.469C213.312 191.328 207.99 178.734 217.341 169.616C223.7 163.415 240.179 160.054 250.504 162.852C256.43 164.457 261.435 164.68 264.123 163.459C265.861 162.669 266.069 163.3 266.069 169.346C266.069 175.072 265.769 176.111 264.123 176.075C263.053 176.053 261.174 174.43 259.948 172.471C254.22 163.322 237.069 162.336 231.115 170.814C228.892 173.979 228.865 182.997 231.066 187.242C233.372 191.689 238.101 193.858 245.49 193.858C252.601 193.858 259.944 190.73 261.06 187.224C261.465 185.952 262.742 184.988 264.022 184.988C266.249 184.988 266.25 185.027 264.186 188.552C260.713 194.483 255.903 196.505 244.437 196.855C237.934 197.054 232.223 196.564 228.268 195.469ZM146.736 195.337C145.196 193.8 146.098 192.75 148.959 192.75C151.248 192.75 153.843 190.669 160.355 183.611C164.993 178.584 171.582 171.53 174.999 167.933L181.211 161.395L194.455 177.042C205.505 190.096 208.206 192.694 210.757 192.719C212.745 192.737 213.815 193.342 213.815 194.444C213.815 195.897 211.645 196.095 198.619 195.83C187.677 195.608 183.293 195.134 182.961 194.136C182.67 193.263 183.575 192.75 185.404 192.75H188.31L185.844 189.423C183.403 186.13 183.271 186.097 172.737 186.097C163.229 186.097 161.944 186.338 160.678 188.36C158.893 191.211 159.809 192.75 163.294 192.75C164.965 192.75 166.008 193.389 166.008 194.413C166.008 195.758 164.237 196.076 156.743 196.076C151.647 196.076 147.144 195.744 146.736 195.337ZM177.125 178.335C175.188 175.896 173.479 173.9 173.327 173.9C173.175 173.9 171.442 175.896 169.477 178.335L165.903 182.77H173.275H180.648L177.125 178.335ZM272.74 194.413C272.74 193.378 273.79 192.75 275.519 192.75H278.299V178.89V165.03H275.519C273.79 165.03 272.74 164.401 272.74 163.366C272.74 161.98 274.963 161.703 286.081 161.703C297.199 161.703 299.423 161.981 299.423 163.366C299.423 164.401 298.373 165.03 296.643 165.03C294.049 165.03 293.864 165.399 293.864 170.574V176.118H303.87H313.876V170.574C313.876 165.399 313.691 165.03 311.096 165.03C309.367 165.03 308.317 164.401 308.317 163.366C308.317 161.98 310.541 161.703 321.658 161.703C332.776 161.703 335 161.981 335 163.366C335 164.475 333.888 165.03 331.665 165.03H328.329V178.89V192.75H331.665C333.888 192.75 335 193.304 335 194.413C335 195.799 332.776 196.076 321.658 196.076C310.541 196.076 308.317 195.799 308.317 194.413C308.317 193.378 309.367 192.75 311.096 192.75C313.724 192.75 313.876 192.417 313.876 186.651V180.553H303.87H293.864V186.651C293.864 192.417 294.015 192.75 296.643 192.75C298.373 192.75 299.423 193.378 299.423 194.413C299.423 195.799 297.199 196.076 286.081 196.076C274.963 196.076 272.74 195.799 272.74 194.413Z" fill="white"/>
</svg>
