<svg width="360" height="360" viewBox="0 0 360 360" fill="none" xmlns="http://www.w3.org/2000/svg">
<rect width="360" height="360" rx="82" fill="black"/>
<path d="M162.223 271.82H163.723V270.32V265.441V264.744V263.244H162.223H56.3791V87V85.5H54.8791H50H48.5V87V270.32V271.82H50H162.223Z" fill="#005EAC" stroke="#005EAC" stroke-width="3"/>
<path d="M199.868 272.518H201.368V271.018V240.751C209.847 261.057 228.154 275.306 253.539 275.306C271.77 275.306 286.321 267.779 296.279 255.13C306.208 242.517 311.499 224.912 311.499 204.8C311.499 186.074 306.379 168.484 296.557 155.536C286.706 142.552 272.159 134.293 253.539 134.293C239.299 134.293 227.463 138.393 218.285 145.591C210.793 151.467 205.13 159.362 201.368 168.652V87.6978V86.1978H199.868H194.988H193.488V87.6978V271.018V272.518H194.988H199.868ZM202.761 204.83L202.762 204.815V204.8C202.762 184.476 207.929 168.827 216.869 158.284C225.785 147.771 238.588 142.172 254.236 142.172C271.815 142.172 284.088 150.25 292.025 162.071C300.005 173.956 303.62 189.671 303.62 204.8C303.62 221.303 299.491 236.827 291.271 248.182C283.089 259.486 270.811 266.73 254.236 266.73C237.634 266.73 224.647 259.634 215.861 248.399C207.05 237.131 202.418 221.629 202.761 204.83Z" fill="white" stroke="white" stroke-width="3"/>
</svg>
