<svg width="360" height="360" viewBox="0 0 360 360" fill="none" xmlns="http://www.w3.org/2000/svg">
<rect width="360" height="360" rx="82" fill="#08808A"/>
<path d="M107.571 161.401C87.4749 161.401 71.2285 177.647 71.2285 197.686C71.2285 217.725 87.4749 233.972 107.514 233.972C127.553 233.972 143.799 217.725 143.799 197.686C143.856 177.647 127.61 161.401 107.571 161.401ZM107.571 223.669C93.2488 223.669 81.5877 212.065 81.5877 197.686C81.5877 183.308 93.1922 171.703 107.571 171.703C121.949 171.703 133.497 183.365 133.497 197.686C133.497 212.008 121.892 223.669 107.571 223.669Z" fill="white"/>
<path d="M107.685 215.688C117.658 215.688 125.743 207.603 125.743 197.63C125.743 187.657 117.658 179.572 107.685 179.572C97.7117 179.572 89.627 187.657 89.627 197.63C89.627 207.603 97.7117 215.688 107.685 215.688Z" fill="white"/>
<path d="M252.487 161.401C232.448 161.401 216.201 177.647 216.201 197.686C216.201 217.725 232.448 233.972 252.487 233.972C272.526 233.972 288.772 217.725 288.772 197.686C288.772 177.647 272.526 161.401 252.487 161.401ZM252.487 223.669C238.165 223.669 226.504 212.065 226.504 197.686C226.504 183.308 238.108 171.703 252.487 171.703C266.865 171.703 278.413 183.365 278.413 197.686C278.413 212.008 266.808 223.669 252.487 223.669Z" fill="white"/>
<path d="M252.599 215.688C262.572 215.688 270.657 207.603 270.657 197.63C270.657 187.657 262.572 179.572 252.599 179.572C242.626 179.572 234.541 187.657 234.541 197.63C234.541 207.603 242.626 215.688 252.599 215.688Z" fill="white"/>
<path d="M303.546 146.287L324.887 125.116H281.639C257.411 105.416 217.163 89 179.858 89C142.498 89 102.589 105.416 78.3613 125.116H35L56.341 146.287C43.1515 159.42 35 177.591 35 197.686C35 237.764 67.4927 270.257 107.571 270.257C125.968 270.257 142.781 263.408 155.574 252.086L180.142 270.144L204.426 252.482L204.143 251.803C216.993 263.238 233.862 270.2 252.429 270.2C292.507 270.2 325 237.708 325 197.63C324.943 177.591 316.735 159.42 303.546 146.287ZM243.315 125.682C208.955 129.984 182.01 158.288 179.972 193.328C177.877 158.231 150.875 129.871 116.402 125.682C133.723 113.228 155.8 107.114 179.858 107.114C203.917 107.114 225.994 113.228 243.315 125.682ZM107.571 252.143C77.4556 252.143 53.1144 227.745 53.1144 197.686C53.1144 167.628 77.5122 143.23 107.571 143.23C137.629 143.23 162.027 167.628 162.027 197.686C161.971 227.745 137.629 252.143 107.571 252.143ZM252.486 252.143C222.427 252.143 198.029 227.745 198.029 197.686C198.029 167.628 222.427 143.23 252.486 143.23C282.544 143.23 306.942 167.628 306.942 197.686C306.886 227.745 282.544 252.143 252.486 252.143Z" fill="white"/>
</svg>
