<svg width="360" height="360" viewBox="0 0 360 360" fill="none" xmlns="http://www.w3.org/2000/svg">
<rect width="360" height="360" rx="82" fill="#005981"/>
<path fill-rule="evenodd" clip-rule="evenodd" d="M104.187 240.622L103.258 238.316C99.5699 228.159 95.8713 215.242 97.2641 207.406C102.794 187.103 96.7998 162.652 112.951 147.429C117.103 143.276 119.409 138.665 118.481 131.742C115.246 119.749 97.264 128.972 94.494 115.132L94.0297 113.744C88.0356 116.974 82.9597 122.973 81.5772 129.431C80.6487 135.89 81.113 140.501 86.194 140.501C88.9538 140.966 91.2597 138.66 92.1882 136.349C92.6524 133.12 90.8057 128.967 94.9583 128.967C98.1823 128.967 100.952 131.737 101.881 134.502C102.986 137.595 103.269 140.922 102.702 144.158C102.135 147.393 100.738 150.426 98.6466 152.959C93.5707 159.417 85.7298 161.723 77.8838 160.341C69.5839 158.958 61.2788 152.041 58.0444 144.195C50.6678 127.584 53.8919 105.898 63.5846 91.5992C70.9715 81.9116 80.6539 74.5298 91.7239 71.7598C89.4181 73.6065 84.8013 75.4532 86.648 79.6058L87.5766 80.5291C93.1064 77.2999 97.2693 71.3007 103.263 69.4591C104.646 69 106.487 69.4591 108.793 69C105.105 72.2292 97.2693 74.535 98.1823 80.5343C98.6466 81.4577 99.575 81.9219 99.575 81.9219L115.716 70.8519C117.568 70.8519 119.414 70.8519 121.256 71.311C116.639 74.5402 109.257 77.7694 108.339 83.3096C108.793 84.2329 108.793 84.2329 109.722 85.1511C110.65 84.2277 111.104 84.2277 112.028 83.7686L127.25 73.6168C129.556 73.6168 130.484 74.5402 131.867 74.9993C127.25 78.6927 116.644 82.8453 117.573 88.3803C117.573 88.8394 118.955 89.3036 118.955 89.3036L137.412 78.2285C139.254 78.2285 140.172 79.6161 141.565 80.0752C136.489 84.692 126.796 86.5336 127.26 93.9153C127.725 94.8387 128.189 95.3029 129.566 95.3029C135.106 90.227 142.019 87.4569 147.559 83.7686C150.329 85.1511 153.553 88.3803 156.323 85.1511C164.169 86.9927 171.546 90.227 178.468 94.8386C179.397 93.4562 179.397 91.6095 178.933 89.7679C173.392 84.2329 166.934 82.8453 160.011 81.4628C160.94 79.6161 160.94 79.6161 162.317 78.6927C171.081 79.1518 178.468 83.3095 185.391 87.9212C186.319 86.5387 186.773 85.1511 185.855 83.7686C181.703 78.6927 174.785 77.3103 168.776 74.9993C170.628 74.0759 171.546 73.6168 172.938 73.1577C176.162 73.6168 180.779 75.9278 183.549 77.3103C186.32 78.6979 189.079 80.0803 192.314 81.9271C193.696 81.0037 193.232 78.6979 192.778 77.7745C189.544 74.0811 185.391 72.6986 181.244 71.3161C188.63 70.857 196.002 73.1628 200.619 80.0803C208.465 97.1548 201.083 117.912 205.236 136.828C205.7 139.134 208.47 139.134 210.311 138.675C217.234 135.905 211.694 123.447 221.381 125.758C225.998 128.988 225.07 136.828 223.687 141.904C222.295 148.363 215.841 155.285 208.919 156.204C203.389 157.591 197.849 156.663 191.849 153.433C184.008 146.975 182.621 138.67 181.238 129.901C180.31 128.054 177.086 127.595 176.162 128.977C178.004 138.206 182.621 147.434 185.391 156.658C199.695 188.49 195.084 230.934 179.397 260.93C177.091 265.083 174.78 269.23 171.087 273.847C177.091 272.919 185.855 263.69 190.926 256.778C194.16 258.619 192.778 262.308 194.16 266.925C199.236 261.849 200.619 252.62 201.083 244.779C201.547 225.404 202.011 205.106 198.777 187.108C211.694 205.565 217.234 230.016 215.393 254.921C219.545 252.615 222.769 248.009 223.692 242.468C226.452 229.087 220.458 218.017 215.393 207.406C234.768 220.323 255.52 239.698 260.601 263.231C261.53 266.455 261.53 269.225 261.994 272.449C263.376 270.608 263.376 268.761 263.835 266.919C264.754 255.385 259.673 237.852 247.684 228.159C267.988 236.469 292.903 254.921 291.975 279.836V287.682H109.273C109.737 269.689 96.8205 277.989 94.5147 253.538C93.5861 247.08 94.5146 240.157 95.4328 234.163C97.718 237.852 104.187 240.622 104.187 240.622ZM168.765 108.204C171.071 110.974 171.535 115.586 174.77 114.663C176.611 113.28 178.458 111.893 178.458 109.128C178.458 107.74 177.53 106.822 176.617 105.439C169.694 98.0575 161.394 91.594 151.701 90.6758C145.707 95.2926 135.096 99.44 135.55 108.668C135.55 110.051 138.32 112.821 140.626 113.285C152.625 116.514 146.166 105.898 154.93 104.516C155.384 102.669 153.538 99.9042 154.93 98.0575C155.849 97.1342 156.772 96.6699 158.154 98.5167C159.996 103.593 159.547 104.052 160.46 104.052C164.164 104.516 166.924 105.898 168.765 108.204ZM102.33 106.822C100.488 107.281 101.411 108.668 101.411 109.592C103.253 115.127 109.711 116.514 114.328 114.668L113.864 113.285C111.094 109.592 107.411 106.363 102.33 106.822ZM157.241 107.286C148.013 114.209 163.7 119.744 160.001 128.972C158.619 131.278 157.241 130.36 155.384 131.278C149.854 133.584 147.543 138.66 147.543 144.195C147.543 146.036 148.008 147.424 149.385 147.883C150.314 148.806 157.685 147.883 160.919 148.342C163.689 148.342 166.459 148.806 165.995 143.725C164.602 139.573 159.991 142.802 157.231 142.343C155.379 141.419 155.379 140.037 155.838 138.19C158.608 132.65 165.995 135.879 172.454 136.344C174.295 136.803 174.295 138.649 174.295 140.496C173.831 143.725 172.454 141.419 171.061 141.884C170.143 142.343 169.219 148.342 169.678 148.342C171.061 149.265 171.984 149.265 174.295 149.265C176.606 149.265 177.983 139.119 175.678 137.272C165.531 131.273 166.46 120.203 164.154 110.974C163.235 108.668 160.001 105.898 157.241 107.286ZM127.245 110.515C125.863 110.979 124.475 111.903 124.021 113.285C122.169 119.279 125.863 123.432 129.087 127.125C131.392 129.431 133.703 131.278 136.933 130.355C139.703 128.508 141.085 125.738 141.549 122.509C136.933 122.968 130.479 123.891 127.245 119.739C125.863 117.892 126.781 115.586 128.627 114.663C130.479 113.739 133.244 114.663 135.096 115.122L134.168 113.734C132.326 111.439 130.479 110.051 127.245 110.515ZM178.922 116.514C177.994 117.438 178.458 118.356 179.387 118.82C181.228 119.279 182.611 118.82 184.452 118.356C186.304 117.433 191.375 116.514 189.528 112.821C186.309 110.051 182.146 114.209 178.922 116.514ZM151.701 152.5V153.423C154.936 158.04 161.394 157.576 166.47 157.576C168.311 156.652 171.535 155.27 171.076 152.959C165.541 150.194 158.154 152.5 151.701 152.5Z" fill="white"/>
</svg>
