<svg width="360" height="360" viewBox="0 0 360 360" fill="none" xmlns="http://www.w3.org/2000/svg">
<rect width="360" height="360" rx="82" fill="#CB2D2F"/>
<path d="M26.5098 145.722H25.9906C25.4583 145.722 25.0256 145.29 25.0256 144.757C24.9915 144.61 24.9915 144.458 25.0256 144.311C62.5326 58.7347 162.312 19.7645 247.886 57.2715C286.799 74.3271 317.87 105.399 334.926 144.311C335.13 144.804 334.897 145.368 334.407 145.573C334.289 145.623 334.16 145.646 334.032 145.646H333.586C319.074 137.782 302.761 133.841 286.258 134.205C267.629 133.573 249.268 138.768 233.731 149.066C233.537 149.129 233.329 149.129 233.133 149.066H232.537C200.349 129.157 159.669 129.157 127.48 149.066C127.288 149.129 127.081 149.129 126.884 149.066H126.365C110.828 138.77 92.4638 133.576 73.8374 134.205C57.3535 133.883 41.069 137.853 26.5806 145.722H26.5098Z" fill="white"/>
<path d="M188.853 146.837C188.855 146.412 188.533 146.058 188.111 146.018C185.349 145.685 182.572 145.512 179.79 145.499C177.44 145.381 175.083 145.381 172.733 145.499C172.311 145.538 171.989 145.893 171.989 146.317V284.736C171.986 292.614 165.598 298.997 157.721 298.997C151.679 298.994 146.295 295.186 144.276 289.488C142.506 285.159 137.56 283.084 133.231 284.852C129.434 286.404 127.294 290.456 128.154 294.465C133.399 310.839 150.926 319.86 167.3 314.612C180.27 310.456 189.031 298.354 188.929 284.734L188.853 146.837Z" fill="white"/>
</svg>
