<svg width="360" height="360" viewBox="0 0 360 360" fill="none" xmlns="http://www.w3.org/2000/svg">
<rect width="360" height="360" rx="82" fill="#E50038"/>
<path d="M118.554 99.1935H124.559V113.273H143.193V70H67V113.273H85.6341V99.1935H91.4314V206.029L84.5989 210.17V230.875H125.18V210.17L118.554 206.029V99.1935Z" fill="white"/>
<path d="M148.553 261.104H162.425L166.566 255.514C191.204 283.465 235.098 244.54 204.662 184.083C193.275 161.515 180.024 140.603 178.988 134.599C176.711 120.934 196.38 120.52 196.38 138.74V145.572H217.292V100.229H202.178L198.037 106.027C197.83 106.027 193.068 100.229 181.887 100.022C166.98 99.6083 144.205 113.895 155.178 146.194C159.319 158.202 164.081 166.484 175.883 187.81C207.768 245.576 169.257 242.47 170.085 224.457V211.827H148.553V261.104Z" fill="white"/>
<path d="M282.123 138.74C280.881 132.735 231.604 112.445 229.326 206.65C227.463 288.019 247.339 300.028 269.079 300.028C283.572 300.028 302 285.742 302 257.584V242.469H280.053V260.275C280.053 260.275 280.053 272.077 271.15 272.077C257.692 272.077 256.657 254.271 255.828 209.342C254.793 149.92 278.396 149.506 280.053 171.039V179.113H301.171V133.77H286.264L282.123 138.74Z" fill="white"/>
</svg>
