<svg width="360" height="360" viewBox="0 0 360 360" fill="none" xmlns="http://www.w3.org/2000/svg">
<rect width="360" height="360" rx="82" fill="#00205B"/>
<path d="M158.525 185.971H141.534C137.363 185.971 133.943 182.569 133.943 178.362H123.344C123.344 181.889 124.347 185.147 126.101 187.94H124.365C119.083 187.94 114.786 183.643 114.786 178.362H104.187C104.187 183.608 106.39 188.334 109.952 191.628C106.39 194.941 104.187 199.667 104.187 204.913H114.786C114.786 199.631 119.083 195.334 124.365 195.334H126.101C124.347 198.074 123.344 201.386 123.344 204.913H133.943C133.943 200.705 137.363 197.304 141.534 197.304H158.525V185.971ZM224.141 266.232V251.283H191.449V122.628H211.09C234.83 122.628 239.878 125.242 244.05 148.499H255.83V107.625H104.187V148.499H115.95C120.122 125.242 125.188 122.628 148.91 122.628H168.551V251.283H135.859V266.232H224.141ZM241.884 176.894H233.755V185.971H201.457V197.304H233.755V206.381H241.884C243.907 200.616 249.403 196.534 255.83 196.534V186.741C249.403 186.741 243.907 182.659 241.884 176.894ZM179.991 41.7219C103.65 41.7219 41.7577 103.632 41.7577 179.991C41.7577 256.35 103.65 318.26 179.991 318.26C256.368 318.26 318.242 256.35 318.242 179.991C318.242 103.632 256.368 41.7219 179.991 41.7219ZM335 179.991C335 265.588 265.588 334.982 179.991 334.982C94.412 334.982 25 265.588 25 179.991C25 94.3941 94.412 25 179.991 25C265.588 25 335 94.3941 335 179.991Z" fill="white"/>
</svg>
