<svg width="360" height="360" viewBox="0 0 360 360" fill="none" xmlns="http://www.w3.org/2000/svg">
<rect width="360" height="360" rx="82" fill="#1C3960"/>
<path d="M163.379 132.259L183.118 165.705L202.651 132.259H239.798L198.95 190.653V233.009H167.012V190.653L126.301 132.259H163.379Z" fill="white"/>
<path d="M315.669 113C314.299 113 313.202 114.097 313.202 115.262V136.988C312.311 136.508 311.214 135.891 310.186 135.275C301.825 131.162 291.133 128.832 279.55 128.832C261.251 128.832 244.185 134.795 237.674 149.667C235.824 153.643 234.795 158.235 234.795 162.689C234.795 183.936 253.095 189.625 262.347 192.023C266.46 193.12 285.17 196.273 288.734 197.506C294.354 199.494 294.354 203.195 294.354 203.812C294.354 211.145 281.743 211.488 279.139 211.488C274.273 211.488 269.064 210.597 265.02 209.226C256.179 206.348 253.712 202.647 250.833 198.192L226.297 213.955C231.026 219.438 238.359 228.485 254.466 233.077C262.416 235.339 270.435 235.956 278.111 235.956C283.114 235.956 300.66 235.956 313.271 226.018V248.498C313.271 249.869 314.299 250.965 315.738 250.965C316.972 250.965 318 249.869 318 248.498V115.262C317.931 114.028 316.903 113 315.669 113ZM280.784 167.418C272.08 165.911 266.939 164.677 266.939 159.742C266.939 154.534 273.039 153.163 278.385 153.163C283.594 153.163 291.339 154.054 297.301 156.864C301.688 159.126 303.401 161.456 305.046 163.443L313.271 156.59V176.945C304.703 171.736 292.778 169.543 280.784 167.418Z" fill="white"/>
<path d="M85.1784 167.418C76.4742 165.911 71.3339 164.677 71.3339 159.742C71.3339 154.534 77.2966 153.163 82.7796 153.163C87.9884 153.163 95.7331 154.054 101.696 156.864C106.082 159.126 107.796 161.456 109.303 163.443L129.385 146.789C125.889 143.088 122.051 139.113 114.444 135.343C106.219 131.231 95.5275 128.901 84.0133 128.901C69.0722 128.901 54.9535 132.876 46.7291 142.334V115.262C46.7291 114.028 45.6325 113 44.2617 113C43.0281 113 42 114.097 42 115.262V248.498C42 249.869 43.0966 250.965 44.2617 250.965C45.6325 250.965 46.7291 249.869 46.7291 248.498V228.005C50.0874 229.993 54.0625 231.706 58.9287 233.077C66.879 235.339 74.7608 235.956 82.3684 235.956C87.9884 235.956 108.412 235.956 121.229 223.139C125.821 218.41 130.207 210.871 130.207 200.316C130.139 175.369 107.727 171.394 85.1784 167.418ZM83.5335 211.488C78.6674 211.488 73.4586 210.597 69.3463 209.226C60.505 206.348 58.1062 202.647 55.1591 198.192L46.6605 203.675V181.948C52.7603 188.048 61.2589 190.653 66.7419 192.023C70.8541 193.12 89.4277 196.273 93.0602 197.506C98.6802 199.494 98.6802 203.195 98.6802 203.812C98.7488 211.145 86.1379 211.488 83.5335 211.488Z" fill="white"/>
</svg>
