<svg width="360" height="360" viewBox="0 0 360 360" fill="none" xmlns="http://www.w3.org/2000/svg">
<rect width="360" height="360" rx="82" fill="black"/>
<path d="M152.296 270.664L98.7635 270.729L98.5966 131.274L60.0522 131.32L60 87.1555L189.815 87L189.87 131.165L152.129 131.209L152.296 270.664Z" fill="#1476C6"/>
<path d="M297.961 270.753L161.512 270.917L161.463 229.877L222.313 184.057C233.28 174.634 246.338 163.64 246.318 147.956C246.306 137.5 239.76 129.143 228.782 129.157C212.052 129.177 207.368 146.435 206.6 160.289L161.369 151.456C166.29 113.025 193.968 88.9426 232.654 88.8967C268.466 88.8539 298.811 108.161 298.858 146.848C298.882 166.191 290.012 180.579 275.911 193.143L234.386 224.301L230.207 226.919L299.999 226.836L297.961 270.753Z" fill="white"/>
</svg>
