<svg width="360" height="360" viewBox="0 0 360 360" fill="none" xmlns="http://www.w3.org/2000/svg">
<rect width="360" height="360" rx="82" fill="black"/>
<path fill-rule="evenodd" clip-rule="evenodd" d="M311 100.115C301.382 104.359 291.064 107.24 280.239 108.525C291.297 101.906 299.786 91.3928 303.758 78.8938C293.4 85.0459 281.952 89.4849 269.765 91.899C259.991 81.5026 246.091 75 230.671 75C201.118 75 177.132 98.9857 177.132 128.539C177.132 132.745 177.599 136.833 178.534 140.727C134.028 138.508 94.5838 117.17 68.1839 84.7734C63.5893 92.6778 60.9415 101.867 60.9415 111.679C60.9415 130.253 70.4034 146.646 84.7714 156.224C76.0104 155.952 67.7556 153.538 60.5132 149.527C60.5132 149.761 60.5132 149.955 60.5132 150.189C60.5132 176.121 78.9697 197.771 103.462 202.677C98.9837 203.884 94.2333 204.546 89.3661 204.546C85.9006 204.546 82.552 204.196 79.2812 203.573C86.0953 224.833 105.876 240.33 129.277 240.758C110.938 255.126 87.8865 263.692 62.7716 263.692C58.4495 263.692 54.2053 263.42 50 262.953C73.6742 278.138 101.826 287.016 132.081 287.016C230.555 287.016 284.405 205.442 284.405 134.692C284.405 132.355 284.367 130.058 284.25 127.761C294.724 120.207 303.797 110.784 310.961 100.037L311 100.115Z" fill="#41ABE1"/>
</svg>
