<svg width="360" height="360" viewBox="0 0 360 360" fill="none" xmlns="http://www.w3.org/2000/svg">
<rect width="360" height="360" rx="82" fill="black"/>
<path fill-rule="evenodd" clip-rule="evenodd" d="M252.429 94.433C274.243 94.433 300.225 96.639 308.068 100.561C308.068 106.443 308.068 126.297 308.068 128.258C308.068 156.2 324 160.122 324 160.122C324 160.122 324 172.132 324 185.858C324 203.75 320.078 215.761 320.078 215.761C311.99 217.721 292.136 223.604 270.321 239.536C254.389 251.546 240.419 269.439 240.419 287.332C240.419 299.097 242.379 307.185 246.546 315.029C246.546 315.029 238.458 318.95 224.487 318.95C206.839 316.989 186.986 303.018 174.975 281.204C159.043 253.507 151.2 219.682 133.307 219.682C115.415 219.682 115.415 237.575 101.443 237.575C85.5115 237.575 75.7069 211.839 71.7853 199.829C61.7362 181.936 37.9611 176.053 36 148.111H111.492C111.492 106.443 111.492 82.668 111.492 41C139.19 41 155.122 41 182.819 41V86.5897C185.024 88.5505 190.907 90.5114 198.751 92.4722L190.907 128.258H169.093L161.004 160.122H182.819L174.975 199.829C174.975 205.711 173.014 219.682 174.975 225.565C178.897 241.497 188.946 247.379 202.672 247.379C222.526 247.379 240.419 237.575 240.419 237.575L248.507 211.839C244.586 211.839 238.458 211.839 234.536 211.839C230.614 211.839 226.693 211.839 228.653 201.79L238.458 160.122H260.272L268.361 128.258H246.546L252.429 94.433Z" fill="#BE372F"/>
</svg>
