<svg width="360" height="360" viewBox="0 0 360 360" fill="none" xmlns="http://www.w3.org/2000/svg">
<rect width="360" height="360" rx="82" fill="black"/>
<path d="M271.328 180.577C303.093 166.603 323.835 145.617 324.965 122.336C324.965 122.336 316.579 115.876 289.503 105.913C265.726 97.1642 247.587 95.1619 247.587 95.1619L247.67 147.034C247.67 154.785 244.559 162.696 238.684 169.701C220.712 165.361 200.85 162.926 180.017 162.919H180.003C159.157 162.926 139.274 165.368 121.281 169.715C115.406 162.71 112.288 154.792 112.288 147.034L112.364 95.1619C112.364 95.1619 94.2391 97.1642 70.4486 105.913C43.372 115.876 35 122.336 35 122.336C36.1232 145.624 56.8719 166.617 88.6717 180.591C56.8998 194.566 36.1581 215.552 35.0349 238.826C35.0349 238.826 43.4139 245.293 70.4904 255.249C94.2739 263.998 112.406 266 112.406 266L112.323 214.128C112.323 206.377 115.434 198.459 121.316 191.461C139.288 195.808 159.143 198.235 179.976 198.235H179.983C200.836 198.235 220.726 195.801 238.712 191.44C244.587 198.445 247.698 206.377 247.698 214.128L247.629 266C247.629 266 265.761 263.998 289.544 255.249C316.621 245.293 325 238.826 325 238.826C323.87 215.538 303.121 194.545 271.328 180.577ZM179.99 192.249H179.969L179.376 192.235C160.566 192.235 145.232 187.631 133.985 180.591C145.232 173.538 160.573 168.926 179.417 168.926L179.997 168.919H180.024L180.617 168.926C199.434 168.926 214.761 173.531 226.008 180.57C214.761 187.617 199.42 192.235 180.583 192.235" fill="white"/>
</svg>
