<svg width="360" height="360" viewBox="0 0 360 360" fill="none" xmlns="http://www.w3.org/2000/svg">
<rect width="360" height="360" rx="82" fill="#005DAA"/>
<mask id="mask0" mask-type="alpha" maskUnits="userSpaceOnUse" x="25" y="25" width="310" height="310">
<rect x="25" y="25" width="310" height="310" rx="155" fill="#C4C4C4"/>
</mask>
<g mask="url(#mask0)">
<rect x="25" y="25" width="310" height="310" rx="155" fill="white"/>
<path d="M335 25V334.812H270.787C284.386 299.21 287.415 255.177 277.805 216.576C266.233 167.559 234.138 120.946 188.64 92.1699C145.643 64.7911 91.0322 54.0476 37.3521 65.0925L25.0075 68.1325V25H335ZM110.342 73.5721C93.85 64.4634 72.1782 63.1336 52.7554 66.4637L59.6039 67.2472L60.5758 66.7651C69.5752 66.1021 79.0681 66.4185 87.4649 68.2681C84.7149 69.0253 79.976 70.566 76.661 71.9372C78.5483 72.6454 80.9441 73.8471 82.579 74.9056C86.1426 73.606 93.6314 71.6207 97.2779 70.8937C100.54 71.8468 108.914 75.723 114.109 79.524C107.939 80.1794 99.5533 81.3924 92.7914 82.9595C94.3887 84.3533 95.741 86.007 96.9502 87.8114C103.505 86.6173 113.096 85.5173 121.394 85.2009C125.583 88.8248 129.023 93.1983 131.351 97.7263C122.231 97.1198 110.112 97.2704 102.687 98.0766C103.452 99.4063 104.503 102.8 104.951 104.835C114.177 104.443 129.211 105.125 135.521 106.04C137.589 111.005 138.779 116.373 139.258 121.978C128.729 119.903 116.324 118.155 106.635 117.688C106.741 120.803 106.613 123.783 106.326 126.702C117.85 127.9 129.026 129.983 139.834 132.771C139.687 138.263 138.885 145.104 137.442 150.393C128.868 147.331 115.149 143.27 103.55 140.915C102.39 145.673 100.842 150.359 98.7999 154.849C110.157 158.647 121.368 163.589 132.1 168.912C130.334 174.001 127.772 179.708 125.399 183.935C114.648 177.892 103.576 171.982 92.6257 167.307C89.3069 173.364 85.0916 179.829 81.1325 185.136C91.8158 191.631 101.9 198.668 111.924 206.217C108.918 210.62 104.597 215.902 102.002 219.047C92.3883 211.054 72.6641 195.36 72.6641 195.36C66.8629 202.344 61.9017 207.565 54.5899 213.227C62.6853 221.507 73.2744 233.347 79.8893 241.544C76.4839 245.115 73.1426 247.952 69.1157 250.728C61.0844 240.866 51.4219 228.397 45.7977 220.573C37.9021 226.766 33.0802 230.122 25.0113 234.289V245.884L37.8267 271.514C34.9186 273.379 32.5491 274.513 28.816 276.121L25.0075 268.648V282.119C74.4271 260.172 124.732 211.773 139.356 159.219C144.712 141.055 145.643 117.68 136.888 100.747C131.75 89.6083 121.368 79.2188 110.342 73.5721ZM102.97 65.9325C105.121 66.637 107.178 67.5938 109.238 68.4904L110.398 68.2907C120.954 70.0386 131.038 73.557 140.09 78.4918C135.178 78.5332 130.1 78.4579 125.195 78.8647C127.241 80.6918 129.407 82.8352 131.185 84.8054C137.822 84.6773 144.253 84.8204 150.581 85.2386C156.865 89.8494 163.25 96.0236 166.821 102.394C159.475 100.706 149.383 99.2632 140.376 98.4834C141.544 101.162 142.735 103.923 143.725 106.786C153.734 108.255 163.642 110.082 173.297 112.523C176.48 119.112 178.898 126.054 179.938 133.396C169.296 129.603 158.39 125.998 147.199 123.723C147.481 127.335 147.508 131.046 147.53 134.703C159.069 138.037 170.324 141.91 181.245 146.852C181.294 154.266 180.507 161.329 178.842 168.038C167.872 162.564 156.673 157.147 145.021 153.196C143.545 159.732 141.608 166.075 139.348 172.249C150.525 177.987 161.607 183.825 172.185 190.73C170.193 196.407 167.281 202.574 163.905 208.093C153.52 200.988 143.119 194.083 132.281 188.071C128.593 195.737 123.918 203.595 118.388 210.752C128.043 218.354 137.932 226.276 147.236 234.688C144.177 239.299 140.071 244.625 135.457 249.5C128.665 242.342 117.319 232.149 107.878 224.189C101.207 232.247 93.315 241.145 85.3666 247.812C91.4315 254.186 109.438 275.88 109.438 275.88C105.84 279.47 101.346 283.17 96.743 286.477C96.743 286.477 78.3562 262.895 73.8282 257.211C62.9566 265.834 54.2623 271.868 41.5335 278.63C46.5738 287.219 59.0916 310.503 59.0916 310.503C55.8745 312.473 52.5181 314.323 49.1617 315.555C43.2513 305.745 36.1391 291.536 32.3532 283.43C28.6954 285.441 25.0113 286.741 25.0113 286.741V329.139C63.3408 316.685 98.6604 294.678 128.552 262.82C155.791 233.298 177.342 201.425 183.739 163.337C188.843 132.978 178.785 104.371 154.676 85.0427C140.056 72.5173 121.933 68.1589 102.97 65.9325ZM90.2072 86.1539C73.4327 69.1986 47.7039 67.7784 25.0038 73.1163C25.0113 73.1087 25.0038 75.1768 25.0038 75.1768C29.7465 74.171 35.8905 73.1991 41.5259 73.218C37.8493 75.4405 34.3121 78.1339 31.1176 80.7633C32.4775 81.0572 33.9203 81.5205 35.2463 82.078C40.3657 78.4202 45.3193 75.2522 49.448 72.9995C54.8085 73.0447 61.7285 74.0392 66.2414 75.8474C58.7789 78.5295 49.7381 82.6732 43.918 86.5947C44.9879 87.1673 46.1216 88.1128 46.9579 88.9792C54.1228 85.1557 64.4106 80.737 72.8562 78.0398C76.8606 79.6408 81.1701 82.4811 83.6111 84.8732C72.8148 87.431 62.4743 90.2562 52.0736 94.4904C53.0756 95.6732 54.1718 97.4626 54.6917 98.5738C62.2107 95.8992 76.9548 91.6048 88.5196 89.3974C90.6405 91.6613 93.1756 95.2664 94.4715 98.6379C81.6937 99.9676 67.1229 102.19 57.2797 104.993C57.8975 106.647 58.2817 108.263 58.5454 109.807C70.6601 107.483 83.9917 105.746 97.0293 105.226C98.1896 108.971 98.8412 112.983 98.8676 117.093C85.8713 116.271 70.9878 116.84 59.1518 118.023C59.1518 119.564 58.9333 122.645 58.7337 124.551C70.7317 124.186 84.1461 124.318 98.4721 125.93C97.9598 129.818 97.0293 134.843 95.7787 139.175C82.3869 136.12 70.1893 134.632 56.6958 133.743C56.2136 136.35 55.091 139.54 53.8366 142.264C66.4448 144.554 79.038 148.05 91.198 152.42C89.5216 156.349 87.574 160.187 85.4419 163.939C76.3408 159.656 60.1877 153.618 49.5911 150.653C47.8432 154.186 44.9125 159.001 41.993 162.572C49.6062 166.282 64.2035 174.521 74.2162 180.993C71.8242 184.198 69.1307 187.521 66.3092 190.463C56.6167 182.91 46.9994 175.813 36.4705 169.115C33.1066 172.976 28.9328 177.15 25 180.45V181.671L49.1918 207.422C46.5059 209.867 43.771 212.123 40.9043 214.203L25 193.872V229.749C49.561 215.337 74.4196 191.68 88.399 166.614C99.8018 146.547 108.436 119.383 97.3872 96.3099C95.4397 92.7425 93.3678 89.2768 90.2072 86.1539ZM162.474 86.4101L169.616 87.2841C176.743 90.9833 183.306 96.2006 189.201 102.446C191.374 104.82 193.718 107.219 195.228 109.811C189.337 108.142 183.629 106.115 177.542 104.797C179.603 108.033 181.068 111.19 182.582 114.885C189.378 116.84 196.121 119.187 202.721 121.534C206.951 129.565 210.04 138.184 211.517 147.312C203.904 143.499 196.268 139.789 188.429 136.711C189.035 141.186 189.205 145.778 189.035 150.22C197.647 154.145 207.294 159.434 213.261 163.265C213.483 169.567 212.854 180.77 211.004 187.909C204.133 182.903 194.238 176.48 186.206 172.34C185.114 178.529 182.16 188.169 179.098 194.968C187.472 200.653 195.854 206.473 203.783 213.306C201.357 220.008 198.242 226.446 194.874 232.71C186.926 225.881 178.838 219.345 170.426 213.035C165.653 222.471 160.376 230.977 153.169 239.826C161.253 247.281 168.961 254.574 176.683 262.564C172.901 268.041 168.667 273.481 163.725 278.589C156.371 270.704 148.807 262.613 141.126 255.056C133.121 264.282 124.084 273.963 114.659 281.896C119.002 286.428 128.394 297.386 135.223 307.23C130.526 311.253 126.145 315.039 121.455 318.482L101.587 292.84C89.322 302.408 76.2918 310.292 63.2616 317.408L73.685 334.8H105.999C155.381 301.082 199.986 251.01 213.732 195.115C222.031 160.937 214.15 125.9 190.595 100.45C178.005 86.8885 164.052 82.353 154.202 79.3093C156.722 80.9856 159.618 83.5133 162.474 86.4101ZM25.0151 83.5622V89.533L28.3564 87.2162C31.144 87.8566 34.3158 89.2655 36.4442 90.6442C32.5868 92.9082 28.6201 95.1383 25.0564 97.5793V101.324C29.818 98.4194 35.4196 95.0215 39.8534 92.7726C41.6389 93.9178 43.2474 95.6167 44.4943 97.3119C38.0941 99.8659 29.1663 104.217 25.0075 106.417V110.278C32.1083 106.812 39.9664 103.343 47.4402 101.022C48.4008 102.725 49.3764 104.861 49.7192 106.831C41.7783 108.368 32.5755 111.721 25.0528 114.636V118.162C33.0125 115.39 43.707 112.583 50.7175 111.457C51.2373 113.714 51.3051 116.629 51.3126 118.686C40.7574 119.699 33.6528 120.931 25.0715 122.66V126.687C32.7186 125.666 45.3984 124.736 50.8907 124.939C50.3633 127.701 49.7606 130.563 48.7021 133.072C42.3886 132.492 32.1649 132.025 25.049 132.217C25 132.217 25 137.593 25 137.615C31.9615 138 39.5972 139.706 45.7111 140.863C44.8823 142.998 43.3265 145.967 41.993 148.114C37.2277 146.502 30.2023 144.291 25 143.462V154.058C28.3489 155.565 33.2045 157.972 34.8507 159.042C33.7432 160.673 31.5433 163.333 30.0629 164.67C27.8403 163.19 25 161.54 25 161.54V175.086C30.5903 169.59 36.0863 163.83 40.4523 157.758C51.2674 142.166 59.7884 121.944 52.0246 102.446C47.3309 91.7518 35.9244 85.0389 25.0151 83.5622ZM206.066 113.408C208.322 117.239 210.473 121.168 212.259 125.18L220.874 129.151C226.988 139.118 231.862 149.602 234.53 161.024C229.776 158.025 224.939 154.91 220.091 152.277C220.855 157.456 221.029 162.127 221.16 167.575C226.608 171.391 232.299 175.414 237.573 180.1C238.078 189.676 237.385 199.116 235.935 207.976C230.149 202.348 224.125 197.387 218.199 193.247C216.757 201.436 213.788 210.703 210.349 218.919C216.406 223.748 223.036 230.039 228.841 236.394C226.31 243.74 223.296 250.551 219.672 257.173C213.807 250.86 207.407 244.301 201.014 238.685C197.089 246.324 189.118 258.673 182.13 268.173C188.519 274.72 194.43 281.572 200.28 288.443C196.136 294.252 191.39 299.79 186.508 305.169C180.582 298.339 175.029 291.325 168.84 284.665C159.468 295.582 151.625 304.061 140.425 313.468C147.04 321.495 157.061 334.819 157.061 334.819H162.707C173.18 325.518 183.275 315.046 192.452 304.457C215.05 276.803 232.925 247.266 239.163 212.948C245.925 176.958 236.492 141.921 212.673 115.887L206.066 113.408ZM228.668 131.43L228.563 131.694C238.888 144.392 247.111 158.018 251.349 173.18L251.27 173.342L243.303 167.311C244.324 173.47 245.126 179.192 245.348 185.611C249.104 188.448 253.21 192.158 256.416 196.046C256.962 206.499 256.962 217.646 255.169 227.919C251.594 223.161 248.407 219.703 242.817 214.131C241.585 221.733 238.73 233.716 235.294 241.706C240.203 247.006 245.186 253.711 248.347 258.605C246.505 264.907 242.953 273.368 239.163 280.435C234.665 274.63 231.478 269.932 225.609 263.023C219.785 273.775 212.948 284.703 205.384 294.738C210.511 300.784 215.235 307.09 219.699 313.468C215.48 319.405 210.914 325.266 205.968 330.807C201.301 324.385 196.324 318.007 191.469 311.663C184.692 319.563 177.87 327.587 169.62 334.816H207.659C232.156 306.397 249.925 274.942 257.181 239.374C264.662 203.546 258.744 165.619 235.656 138.606C233.497 136.214 231.256 133.197 228.668 131.43ZM261.132 181.249C262.624 188.09 263.253 193.752 264.116 202.759C266.934 205.821 270.316 211.031 270.316 211.031C270.67 221.503 270.079 232.059 267.89 242.889L262.116 235.773C260.383 245.729 257.919 254.988 254.299 265.133L260.684 276.227C258.793 282.887 255.162 292.079 251.613 299.402C249.217 295.525 246.991 291.25 244.527 287.863C238.779 299.044 231.889 309.923 224.43 320.41L233.362 334.812H235.43C256.97 302.86 271.401 267.604 272.882 227.523C273.62 210.745 268.354 196.121 262.025 182.127L261.132 181.249ZM278.227 238.726C277.496 244.113 277.127 249.56 276.151 254.664L274.449 252.344C272.618 263.329 269.955 273.534 266.15 283.704L268.806 291.058C266.647 298.434 263.894 306.337 260.353 314.624C259.535 312.1 257.949 309.102 256.525 306.778C251.756 316.278 246.098 326.392 240.425 334.812H254.687C262.477 319.819 268.523 303.866 273.021 287.419C276.769 272.023 280.186 255.584 278.291 238.722H278.227V238.726ZM279.105 277.986C276.114 293.702 270.701 313.072 266.176 326.901C265.63 325.824 265.103 324.773 264.662 323.627C262.53 327.926 259.294 334.812 259.294 334.812H266.606C272.908 319.958 277.346 298.501 279.105 277.986ZM52.1753 322.682C43.2512 326.75 34.3611 330.137 25.0038 333.117V334.785H58.9372L52.1753 322.682ZM126.472 324.957C122.939 327.485 118.46 331.467 113.073 334.865H132.959C132.963 334.865 128.661 328.396 126.472 324.957Z" fill="#005DAA"/>
</g>
</svg>
