<svg width="360" height="360" viewBox="0 0 360 360" fill="none" xmlns="http://www.w3.org/2000/svg">
<rect width="360" height="360" rx="82" fill="url(#paint0_linear)"/>
<path d="M102.04 236.401C88.1349 236.401 77.4852 232.483 70.0911 224.648C62.697 216.702 59 205.832 59 192.037V124H68.6013V191.871C68.6013 203.128 71.4706 211.956 77.2093 218.357C83.0584 224.648 91.3353 227.793 102.04 227.793C112.855 227.793 121.132 224.648 126.871 218.357C132.61 212.067 135.479 203.238 135.479 191.871V124H145.08V192.037C145.08 205.942 141.383 216.812 133.989 224.648C126.706 232.483 116.056 236.401 102.04 236.401Z" fill="#F9FCF7"/>
<path d="M177.12 234.415H141.86V124H177.12C193.784 124 207.248 129.352 217.512 140.057C227.775 150.652 232.907 163.729 232.907 179.29C232.907 194.961 227.775 208.094 217.512 218.688C207.359 229.173 193.895 234.415 177.12 234.415ZM177.12 225.807C191.246 225.807 202.392 221.392 210.559 212.563C218.836 203.735 222.974 192.644 222.974 179.29C222.974 165.937 218.891 154.845 210.724 146.017C202.558 137.078 191.356 132.608 177.12 132.608H151.296V225.807H177.12Z" fill="#F9FCF7"/>
<path d="M302 234.415H290.578L259.622 188.726H235.288V234.415H225.852V124H267.071C276.783 124 284.784 126.925 291.074 132.774C297.475 138.623 300.676 146.458 300.676 156.28C300.676 165.881 297.696 173.496 291.737 179.125C285.887 184.753 278.659 187.733 270.051 188.064L302 234.415ZM266.243 180.118C273.527 180.118 279.431 177.911 283.956 173.496C288.481 168.971 290.743 163.233 290.743 156.28C290.743 149.327 288.481 143.644 283.956 139.23C279.431 134.815 273.527 132.608 266.243 132.608H235.288V180.118H266.243Z" fill="#F9FCF7"/>
<defs>
<linearGradient id="paint0_linear" x1="0" y1="180" x2="360" y2="180" gradientUnits="userSpaceOnUse">
<stop stop-color="#017C3D"/>
<stop offset="1" stop-color="#8CC03A"/>
</linearGradient>
</defs>
</svg>
