<svg width="360" height="360" viewBox="0 0 360 360" fill="none" xmlns="http://www.w3.org/2000/svg">
<rect width="360" height="360" rx="82" fill="#8F3843"/>
<path d="M316.791 133.729C320.91 140.632 322.753 148.054 322.413 156.644H308.795C308.968 146.372 305.333 135.419 295.061 131.542C286.468 128.254 276.36 128.254 267.265 130.276C259.684 132.215 252.193 138.618 250.17 146.364C247.892 154.873 248.399 165.313 254.884 171.973C258.083 175.256 261.96 177.194 265.921 178.787C275.267 182.413 285.542 183.93 294.637 188.479C299.774 191.926 301.199 197.568 301.041 203.384C300.703 209.615 296.999 215.594 291.184 218.378C282.086 222.414 271.142 222.249 260.95 220.484C253.874 218.793 246.204 213.913 244.023 206.499C242.922 202.96 242.757 198.587 243.005 194.874L256.485 194.791C256.906 196.729 256.817 199.34 257.238 201.535C257.662 204.65 260.61 207.509 263.477 208.521C270.04 210.203 276.948 210.708 283.352 208.438C284.87 207.592 286.384 206.075 286.719 204.393C287.14 202.117 286.967 199.591 285.291 197.906C281.919 195.463 277.704 194.874 273.749 193.781C260.021 190.749 244.271 185.612 238.208 170.955C232.566 155.802 235.257 137.185 247.56 126.148C261.282 114.526 280.82 114.194 297.836 118.651C305.417 121.094 312.741 126.572 316.791 133.729Z" fill="white"/>
<path d="M71.9144 119.955L71.8943 199.354C72.226 201.036 72.5634 202.81 74.248 203.987C77.6173 205.925 83.0058 206.182 86.1269 203.82C87.6442 202.47 88.3971 200.788 88.4808 198.849L88.599 119.955H125.291V149.378L112.489 149.413L112.449 132.062H101.392L101.363 199.605C101.536 205.752 99.0933 211.905 93.1135 214.767C85.6221 218.724 74.2481 218.724 66.9212 214.351C59.8481 210.391 58.6711 202.213 59.0028 194.724L59.0866 132.062H48.223L48.0558 203.231C48.0558 211.4 53.2769 219.065 60.601 222.936C73.7404 229.928 91.4289 228.999 103.475 220.158C108.275 216.197 111.737 211.028 112.152 204.97H125.291C124.619 217.937 115.184 229.844 103.302 235.063C91.4289 240.373 76.2673 240.962 63.4682 237.342C51.5952 234.22 39.125 223.862 36.2606 211.4C34.6596 205.164 35.1673 197.92 35 191.941L35.2567 119.955" fill="white"/>
<path d="M178.577 160.061H195.109V119.95C195.109 119.95 219.519 120.031 231.897 119.95L231.862 195.472C231.773 205.415 234.216 215.266 242.469 221.835C256.877 232.531 278.607 232.45 294.94 227.14C304.208 223.94 312.04 214.006 312.545 204.065C313.223 194.719 311.111 186.293 303.366 180.735C292.329 173.491 278.775 172.315 267.15 166.672C262.012 163.64 259.736 157.915 260.414 151.935C260.662 146.036 264.874 140.731 270.438 138.876C278.858 136.946 290.648 136.69 295.866 145.196C297.092 148.147 299.316 150.071 298.511 156.648H285.426C285.17 154.294 285.005 151.594 283.231 149.74C280.797 148.395 277.001 148.312 274.73 149.829C273.132 151.006 272.959 153.201 273.297 154.966C275.824 160.104 282.054 159.432 286.52 161.618C301.093 165.911 320.042 171.305 324.086 188.91C328.211 204.403 323.913 221.165 310.863 231.521C295.361 242.806 273.548 243.146 254.939 239.858C240.282 237.164 224.78 227.14 220.745 211.819C219.562 207.775 219.227 203.31 219.147 198.928L219.112 132.057H208.11V171.637H165.574L165.45 131.552H154.56L154.575 171.464H125.255L125.241 182.269L154.546 182.304L154.629 226.71L165.47 226.715V182.327H208.11V239.973L195.054 239.884L195.109 194.489H178.577V239.913H141.995V194.512H112.344L112.393 159.596L141.975 159.556V119.442H178.563" fill="white"/>
</svg>
