<svg width="360" height="360" viewBox="0 0 360 360" fill="none" xmlns="http://www.w3.org/2000/svg">
<rect width="360" height="360" rx="82" fill="#5A5758"/>
<path d="M87.3905 139.571C87.0389 148.224 87.039 159.165 87.039 168.959C87.039 187.082 87.2692 191.186 90.6784 195.631C94.0876 200.069 100.429 202.569 108.65 202.569C118.166 202.569 125.679 197.793 128.26 190.841C129.203 188.334 129.785 184.801 129.785 175.462C129.785 160.643 129.674 145.717 128.734 130.911C130.377 131.13 137.774 131.13 139.538 130.911L139.182 136.372C138.598 146.178 138.242 169.645 138.008 181.156C137.774 194.595 133.785 200.758 126.033 205.542C120.512 208.966 112.639 210.442 106.301 210.442C92.2062 210.442 75.2899 206.112 72.7134 188.445C72.477 186.849 72.477 183.432 72.477 182.406V151.415C72.477 145.61 72.2405 136.719 71.8848 130.911C74.5887 131.246 85.394 131.246 87.7483 130.911L87.3905 139.571Z" fill="white"/>
<path d="M157.154 162.208C157.154 157.225 157.154 156.084 156.807 145.992C156.683 143.605 156.455 133.396 156.338 131.243C159.27 131.805 169.724 131.692 172.658 131.243C171.844 148.367 171.486 162.666 171.486 180.142C171.486 188.083 171.716 195.465 171.844 201.703H173.957C177.358 201.703 194.269 201.703 201.192 200.679C200.855 201.927 200.731 207.592 201.192 209.083C195.206 208.848 185.112 208.394 178.767 208.394C171.254 208.394 164.908 208.618 156.338 209.083C156.338 207.265 157.154 180.94 157.154 178.102V162.208Z" fill="white"/>
<path d="M233.978 193.529C233.978 202.16 234.45 205.899 234.804 209.084C231.395 208.74 222.471 208.617 218.244 209.084C218.715 200.46 219.418 191.713 219.418 183.093L219.301 151.436C219.301 147.237 219.187 143.261 219.066 138.834H213.196C212.137 138.834 200.871 139.072 194.875 139.632C195.231 138.277 195.475 131.925 195.12 130.562C204.393 131.135 217.172 131.123 226.222 131.123C235.966 131.123 246.43 130.944 257.708 130.375C257.35 132.307 257.233 137.806 257.589 139.632C250.663 138.955 242.319 138.834 234.22 138.834C234.103 142.921 233.978 147.237 233.978 151.545L233.978 193.529Z" fill="white"/>
<path d="M303.289 196.607L298.378 184.621C293.345 184.399 274.037 184.399 269.357 184.621C265.613 193.325 261.86 202.705 259.989 209.16C258.466 208.927 250.759 208.927 249.102 209.16L262.685 179.98C274.502 154.436 281.275 139.74 284.077 130.919H291.714C297.346 145.954 304.345 161.783 308.561 171.284C313.004 181.123 320.725 198.186 325.999 209.16C324.241 209.046 310.31 209.046 308.215 209.16L303.289 196.607ZM283.979 149.789L272.043 177.615C276.143 177.728 280.132 177.932 284.226 177.932C286.528 177.932 290.022 177.92 294.986 177.615L283.979 149.789Z" fill="white"/>
<path d="M55.0458 119C36.7477 131.409 26 147.012 26 166.075C26 209.347 78.2521 241.331 152.756 241.331C186.151 241.331 214.041 232.697 234.71 222.05L233.423 222.068C208.481 229.575 183.256 232.661 157.327 232.661C82.4405 232.661 30.8752 197.515 30.8033 165.029C30.7642 147.011 39.1535 131.457 55.05 120.089L55.0458 119Z" fill="white"/>
</svg>
