<svg width="360" height="360" viewBox="0 0 360 360" fill="none" xmlns="http://www.w3.org/2000/svg">
<rect width="360" height="360" rx="82" fill="url(#paint0_angular)"/>
<circle cx="180" cy="180" r="155.455" fill="#4681C7" fill-opacity="0.06"/>
<circle cx="180" cy="180" r="155.205" stroke="#2869BF" stroke-opacity="0.04" stroke-width="0.5"/>
<path d="M133.047 299.083H133.281C133.514 299.083 133.514 299.083 133.514 299.083C133.748 299.083 133.748 299.083 133.981 299.083C134.214 299.083 134.214 299.083 134.214 299.083C134.448 299.083 134.448 299.083 134.681 299.083C134.915 299.083 134.915 299.083 135.148 299.083H135.382C135.615 299.083 135.615 299.083 135.849 299.083H136.082C136.316 299.083 136.549 299.083 136.549 299.083H136.783C137.016 299.083 137.25 299.083 137.25 299.083C137.483 299.083 137.483 299.083 137.483 299.083C137.717 299.083 137.95 299.083 138.183 298.849H138.417C138.65 298.849 138.884 298.849 139.117 298.616C139.117 298.616 139.351 298.616 139.351 298.382C139.584 298.382 139.818 298.149 140.051 298.149C140.051 298.149 140.285 298.149 140.285 297.915C140.518 297.915 140.752 297.682 140.985 297.682C141.219 297.682 141.219 297.682 141.219 297.448C141.452 297.448 141.685 297.215 141.919 297.215C141.919 297.215 142.152 297.215 142.152 296.982C142.386 296.748 142.619 296.748 142.853 296.515C142.853 296.515 143.086 296.515 143.086 296.281C143.32 296.281 143.553 296.048 143.787 295.814L144.02 295.581C144.254 295.347 144.487 295.347 144.721 295.114L144.954 294.88C145.187 294.647 145.421 294.647 145.654 294.413C145.654 294.413 145.888 294.18 146.121 294.18C146.355 293.946 146.588 293.713 146.822 293.48C147.055 293.48 147.055 293.246 147.055 293.246C147.289 293.013 147.522 292.779 147.756 292.546C147.989 292.312 147.989 292.312 148.223 292.079C148.456 291.845 148.689 291.612 148.923 291.378C149.156 291.145 149.156 291.145 149.39 290.911C149.623 290.678 149.857 290.444 150.09 290.211C150.324 289.978 150.324 289.978 150.557 289.744C150.791 289.511 151.024 289.277 151.258 289.044C151.491 288.81 151.491 288.81 151.725 288.577C151.958 288.343 152.191 288.11 152.425 287.643C152.658 287.409 152.658 287.176 152.892 287.176C153.125 286.942 153.359 286.476 153.592 286.242C153.826 286.009 153.826 285.775 154.059 285.542C154.293 285.308 154.526 284.841 154.76 284.608C154.993 284.374 154.993 284.141 155.227 283.907C155.46 283.674 155.693 283.207 155.927 282.974C156.16 282.74 156.16 282.507 156.394 282.273C156.627 281.806 156.861 281.573 157.094 281.106C157.328 280.872 157.328 280.639 157.561 280.172C157.795 279.705 158.028 279.471 158.262 279.005C158.495 278.771 158.495 278.304 158.729 278.071C158.962 277.604 159.196 277.37 159.196 276.903C159.429 276.436 159.429 276.203 159.662 275.736C159.896 275.269 159.896 275.036 160.129 274.569C160.363 274.102 160.363 273.868 160.596 273.401C160.83 272.934 160.83 272.467 161.063 272.234C161.297 271.767 161.297 271.534 161.53 271.067C161.764 270.6 161.997 270.133 161.997 269.666C162.231 269.199 162.464 268.499 162.464 268.032C162.464 267.565 162.698 267.331 162.698 267.098C162.931 266.164 163.164 265.23 163.631 264.296C167.6 250.055 168.534 221.338 168.534 202.427V80.5572L109 112.309V237.914C109 285.775 117.638 297.215 128.378 299.316C128.378 299.316 128.378 299.316 128.144 299.316L133.047 299.083Z" fill="#060E9F"/>
<path d="M147.992 312.157C171.572 309.122 185.113 282.974 188.382 270.133C193.518 252.389 194.685 230.443 194.685 205.696V66.7828L169.471 80.3239L182.779 83.359V194.723C182.779 223.439 182.078 248.654 177.409 265.23C170.872 288.81 158.965 298.383 150.56 301.418L129.315 299.083C129.315 299.083 129.315 299.083 129.081 299.083C131.416 305.853 136.552 310.99 142.622 311.924L147.992 312.157Z" fill="#778692"/>
<path d="M142.62 311.69C144.721 317.293 150.091 322.429 155.928 323.596L161.298 324.063C185.812 323.83 201.921 300.016 207.524 287.409C215.929 268.732 219.898 242.35 219.898 204.528V53.0079L194.45 66.7824L207.991 69.8175V199.158C207.991 231.377 206.59 258.926 198.886 279.238C192.115 296.748 179.741 310.522 164.566 314.258L147.99 312.39L142.62 311.69Z" fill="#778692"/>
<path d="M219.891 53.008L233.666 56.0431V198.925C233.666 242.817 229.23 272.701 219.424 293.012C210.319 311.923 194.91 324.064 180.202 326.632L161.291 324.297L155.921 323.83C160.59 331.535 168.528 335.504 177.166 335.97C189.073 336.437 198.645 331.301 207.751 325.231C236.701 305.153 245.806 260.561 245.806 200.092V39L219.891 53.008Z" fill="#778692"/>
<defs>
<radialGradient id="paint0_angular" cx="0" cy="0" r="1" gradientUnits="userSpaceOnUse" gradientTransform="translate(180 180) rotate(90) scale(180)">
<stop offset="0.248964" stop-color="#060E9F" stop-opacity="0.1"/>
<stop offset="0.744146" stop-color="#778692" stop-opacity="0.1"/>
</radialGradient>
</defs>
</svg>
