<svg width="360" height="360" viewBox="0 0 360 360" fill="none" xmlns="http://www.w3.org/2000/svg">
<rect width="360" height="360" rx="82" fill="#547083"/>
<path d="M25 179.944C25 194.05 36.2644 204.908 50.4566 204.908C64.5117 204.908 75.5732 194.05 75.5732 179.944C75.5732 165.853 64.5117 155.005 50.4566 155.005C36.2593 155.005 25 165.863 25 179.949" fill="white"/>
<path d="M140.078 179.944C140.078 194.05 151.353 204.908 165.55 204.908C179.605 204.908 190.667 194.05 190.667 179.944C190.667 165.853 179.605 155.005 165.55 155.005C151.353 155.005 140.078 165.863 140.078 179.949" fill="white"/>
<path d="M284.412 179.944C284.412 194.05 295.687 204.908 309.884 204.908C323.939 204.908 335.001 194.05 335.001 179.944C334.991 165.858 323.929 155 309.874 155C295.677 155 284.402 165.858 284.402 179.944" fill="white"/>
</svg>
