<svg width="360" height="360" viewBox="0 0 360 360" fill="none" xmlns="http://www.w3.org/2000/svg">
<rect width="360" height="360" rx="82" fill="#00529B"/>
<path fill-rule="evenodd" clip-rule="evenodd" d="M218.617 312.747C189.05 314.732 180.067 332.397 180.067 332.397C180.067 332.397 171.149 312.747 141.517 312.747C124.684 312.747 101.929 309.652 79.9791 290.983C61.7217 275.455 50 252.301 50 226.352C50 204.901 56.7202 187.748 62.596 173.471C65.3715 166.73 68.1656 160.237 70.2466 153.67C72.1829 147.561 73.3005 141.93 73.3005 136.258C73.3005 124.969 68.7065 114.797 61.2475 107.431L52.5312 98.8228L114.229 33L122.805 37.7711C139.732 47.1894 159.232 52.5691 180.006 52.5691C200.779 52.5691 220.268 47.1894 237.196 37.7711L245.772 33L307.468 98.8239L298.753 107.432C291.293 114.798 286.7 124.97 286.7 136.259C286.7 141.931 287.816 147.562 289.754 153.671C291.834 160.238 294.628 166.731 297.404 173.472C303.28 187.749 310 204.902 310 226.353C310 252.302 298.279 275.456 280.021 290.984C258.072 309.653 235.415 311.619 218.617 312.747Z" fill="white"/>
<path fill-rule="evenodd" clip-rule="evenodd" d="M180.006 65.1427C157.033 65.1427 135.436 59.1874 116.691 48.7593L70.0809 98.4846C79.8321 108.114 85.8728 121.468 85.8728 136.259C85.8728 165.686 62.5723 188.798 62.5723 226.352C62.5723 248.425 72.5283 268.141 88.1249 281.406C125.421 313.125 164.83 288.732 179.993 314.619C195.155 288.733 234.578 313.125 271.873 281.406C287.469 268.141 297.426 248.425 297.426 226.352C297.426 188.798 274.125 165.686 274.125 136.259C274.125 121.468 280.166 108.114 289.916 98.4846L243.307 48.7593C224.562 59.188 202.979 65.1427 180.006 65.1427Z" fill="#00529B"/>
<path fill-rule="evenodd" clip-rule="evenodd" d="M81.3491 270.295C71.4949 258.333 65.5327 243.043 65.5327 226.352C65.5327 208.202 71.1477 193.505 76.9605 179.384C78.4563 175.75 79.9499 172.181 81.3491 168.636L81.3496 270.276L81.3491 270.295Z" fill="#EF3E42"/>
<path fill-rule="evenodd" clip-rule="evenodd" d="M99.2871 285.782V168.636H117.262V293.596C111.296 291.955 105.34 289.493 99.2871 285.782Z" fill="#EF3E42"/>
<path fill-rule="evenodd" clip-rule="evenodd" d="M135.165 296.769V168.636H153.118V298.025C149.761 297.706 146.227 297.494 142.56 297.247C140.163 297.088 137.64 297 135.165 296.769Z" fill="#EF3E42"/>
<path fill-rule="evenodd" clip-rule="evenodd" d="M278.641 270.295C288.494 258.333 294.456 243.043 294.456 226.352C294.456 208.202 288.841 193.505 283.029 179.384C281.533 175.75 280.039 172.181 278.64 168.636L278.639 270.276L278.641 270.295Z" fill="#EF3E42"/>
<path fill-rule="evenodd" clip-rule="evenodd" d="M260.701 285.782V168.636H242.726V293.596C248.693 291.955 254.649 289.493 260.701 285.782Z" fill="#EF3E42"/>
<path fill-rule="evenodd" clip-rule="evenodd" d="M224.827 296.769V168.636H206.872V298.025C210.23 297.706 213.764 297.494 217.431 297.247C219.827 297.088 222.351 297 224.827 296.769Z" fill="#EF3E42"/>
<path fill-rule="evenodd" clip-rule="evenodd" d="M179.994 309.428C177.442 306.286 174.442 304.017 171.113 302.364V168.637H188.873V302.364C185.546 304.017 182.545 306.286 179.994 309.428Z" fill="#EF3E42"/>
<path fill-rule="evenodd" clip-rule="evenodd" d="M99.2876 285.807C96.2337 283.935 93.0827 281.738 90.0421 279.153C86.8665 276.449 83.9337 273.47 81.2847 270.251L81.3487 270.276L81.3481 168.636H99.2876V285.807Z" fill="white"/>
<path fill-rule="evenodd" clip-rule="evenodd" d="M135.163 296.678C129.347 296.134 123.369 295.284 117.262 293.605V168.636H135.163V296.678Z" fill="white"/>
<path fill-rule="evenodd" clip-rule="evenodd" d="M153.117 298.025V168.636H171.114V302.351C169.273 301.438 167.33 300.71 165.308 300.126C161.946 299.157 158.295 298.566 154.409 298.157L153.117 298.025Z" fill="white"/>
<path fill-rule="evenodd" clip-rule="evenodd" d="M260.701 285.807C263.755 283.935 266.906 281.738 269.947 279.153C273.122 276.449 276.054 273.47 278.703 270.251L278.639 270.276L278.641 168.636H260.701V285.807Z" fill="white"/>
<path fill-rule="evenodd" clip-rule="evenodd" d="M224.825 296.678C230.64 296.134 236.618 295.284 242.726 293.605V168.636H224.825V296.678Z" fill="white"/>
<path fill-rule="evenodd" clip-rule="evenodd" d="M206.871 298.025V168.636H188.874V302.351C190.716 301.438 192.659 300.71 194.681 300.126C198.043 299.157 201.694 298.566 205.58 298.157L206.871 298.025Z" fill="white"/>
<path fill-rule="evenodd" clip-rule="evenodd" d="M227.939 122.5H219.806V150.151H227.939V122.5Z" fill="white"/>
<path fill-rule="evenodd" clip-rule="evenodd" d="M214.607 128.691V122.501H195.811V150.152H204.005V140.525H214.607V134.048H204.005V128.691H214.607Z" fill="white"/>
<path fill-rule="evenodd" clip-rule="evenodd" d="M190.021 122.5H181.889V150.151H190.021V122.5Z" fill="white"/>
<path fill-rule="evenodd" clip-rule="evenodd" d="M119.473 122.496C124.634 122.496 128.781 126.68 128.781 131.841C128.781 137.002 124.597 141.185 119.436 141.185H114.081V150.16H106.485V122.497H119.473V122.496Z" fill="white"/>
<path fill-rule="evenodd" clip-rule="evenodd" d="M135.795 145.398L134.115 150.16H126.417L136.396 122.496H145.558L155.537 150.16H147.839L146.159 145.398H135.795Z" fill="white"/>
<path fill-rule="evenodd" clip-rule="evenodd" d="M162.558 136.727C162.452 132.579 165.503 129.734 169.315 129.639C171.226 129.591 173.698 130.59 176.262 131.257V123.636C175.032 122.873 171.698 121.919 169.594 121.919C161.813 121.919 154.924 127.819 154.924 136.65C154.924 145.48 161.813 151.399 169.594 151.399C171.698 151.399 175.032 150.445 176.262 149.683V142.061C173.698 142.728 171.226 143.726 169.315 143.679C165.504 143.584 162.453 140.74 162.558 136.591V136.727Z" fill="white"/>
<path fill-rule="evenodd" clip-rule="evenodd" d="M239.81 136.727C239.705 132.579 242.755 129.734 246.566 129.639C248.477 129.591 250.95 130.59 253.514 131.257V123.636C252.284 122.873 248.949 121.919 246.847 121.919C239.064 121.919 232.175 127.819 232.175 136.65C232.175 145.48 239.064 151.399 246.847 151.399C248.949 151.399 252.284 150.445 253.514 149.683V142.061C250.949 142.728 248.477 143.726 246.566 143.679C242.755 143.584 239.705 140.74 239.81 136.591V136.727Z" fill="white"/>
<path fill-rule="evenodd" clip-rule="evenodd" d="M143.842 139.116L140.99 130.249H140.926L138.042 139.116H143.842Z" fill="#00529B"/>
<path fill-rule="evenodd" clip-rule="evenodd" d="M114.083 128.663H118.939C120.543 128.663 121.832 129.964 121.832 131.568C121.832 133.173 120.531 134.898 118.927 134.898H114.083V128.663Z" fill="#00529B"/>
<path fill-rule="evenodd" clip-rule="evenodd" d="M183.664 83.8818H175.533V111.533H183.664V83.8818Z" fill="white"/>
<path fill-rule="evenodd" clip-rule="evenodd" d="M188.374 97.7548C188.374 89.7266 194.947 83.2197 203.054 83.2197C211.161 83.2197 217.734 89.7266 217.734 97.7548C217.734 105.782 211.161 112.29 203.054 112.29C194.948 112.289 188.374 105.782 188.374 97.7548Z" fill="white"/>
<path fill-rule="evenodd" clip-rule="evenodd" d="M222.795 111.529H230.624V97.5959H230.697L240.08 111.533H248.958V83.8818H240.541V98.4847H240.468L231.056 83.8818H222.795V111.529Z" fill="white"/>
<path fill-rule="evenodd" clip-rule="evenodd" d="M142.441 111.529H150.269V97.5959H150.342L159.725 111.533H168.604V83.8818H160.187V98.4847H160.114L150.702 83.8818H142.441V111.529Z" fill="white"/>
<path fill-rule="evenodd" clip-rule="evenodd" d="M196.134 97.7549C196.134 93.9713 199.231 90.9045 203.052 90.9045C206.873 90.9045 209.971 93.9718 209.971 97.7549C209.971 101.538 206.873 104.605 203.052 104.605C199.231 104.605 196.134 101.538 196.134 97.7549Z" fill="#00529B"/>
<path fill-rule="evenodd" clip-rule="evenodd" d="M127.329 83.8584H135.338V99.2576C135.338 102.781 135.19 106.268 132.421 108.919C130.095 111.17 126.44 111.969 123.19 111.969C119.941 111.969 116.286 111.17 113.959 108.919C111.19 106.268 111.042 102.781 111.042 99.2576V83.8584H119.051V97.2781C119.051 100.838 118.538 104.724 123.19 104.724C127.842 104.724 127.329 100.838 127.329 97.2781V83.8584H127.329Z" fill="white"/>
<path d="M153.118 298.025C149.761 297.706 146.227 297.494 142.559 297.247C140.163 297.088 137.64 296.91 135.165 296.679M135.165 296.678C129.349 296.134 123.371 295.275 117.264 293.596C111.297 291.955 105.341 289.493 99.2886 285.783C96.2346 283.91 93.0836 281.738 90.043 279.153C86.8675 276.45 83.9347 273.471 81.2856 270.251L135.165 296.678ZM81.2856 270.251L81.3496 270.276L81.3491 270.295L81.2856 270.251ZM81.3491 270.295C71.4949 258.333 65.5327 243.043 65.5327 226.352C65.5327 208.202 71.1477 193.505 76.9605 179.384C78.4563 175.75 79.9499 172.181 81.3491 168.636V270.295ZM81.3491 168.636H278.642H81.3491ZM278.642 168.636C280.04 172.181 281.534 175.75 283.03 179.384C288.842 193.505 294.457 208.202 294.457 226.352C294.457 243.043 288.495 258.333 278.642 270.295L278.642 168.636ZM278.642 270.295L278.64 270.276L278.704 270.251L278.642 270.295ZM278.704 270.251C276.055 273.47 273.123 276.449 269.948 279.153C266.906 281.738 263.756 283.935 260.702 285.808C254.649 289.518 248.693 291.955 242.727 293.597C236.62 295.275 230.642 296.135 224.826 296.679C222.351 296.91 219.827 297.088 217.431 297.247C213.763 297.494 210.23 297.706 206.871 298.025L278.704 270.251ZM206.871 298.025L205.581 298.182L206.871 298.025ZM205.581 298.182C201.694 298.591 198.043 299.182 194.681 300.151C192.659 300.735 190.716 301.46 188.874 302.376C185.547 304.03 182.546 306.286 179.995 309.428C177.443 306.286 174.443 304.017 171.114 302.364C169.273 301.448 167.33 300.71 165.308 300.126C161.946 299.157 158.296 298.566 154.409 298.157L205.581 298.182ZM154.41 298.157L153.118 298.025L154.41 298.157Z" stroke="#00529B" stroke-width="0.648" stroke-miterlimit="2.6131"/>
</svg>
