<svg width="360" height="360" viewBox="0 0 360 360" fill="none" xmlns="http://www.w3.org/2000/svg">
<rect width="360" height="360" rx="82" fill="#5C2B0F"/>
<path fill-rule="evenodd" clip-rule="evenodd" d="M70.0547 131.428L71.0629 245.865L96.7736 277.626L173.909 318.46L268.686 272.08L288.347 225.196L286.331 73.4494L214.743 71.4328L140.132 83.5321L72.0742 122.854L70.0547 131.428Z" fill="#301506"/>
<path d="M180.491 48.7274C135.561 48.7274 96.3704 57.4259 64 74.5796V211.718C64 240.575 74.8424 264.705 95.3496 281.515C114.39 297.135 173.277 322.874 180.493 326C187.336 323.022 246.921 296.884 265.659 281.515C286.155 264.714 297 240.577 297 211.718V74.5796C264.625 57.4236 225.434 48.7251 180.487 48.7251L180.491 48.7274ZM247.018 75.2812C260.417 75.4564 273.573 76.284 286.29 77.4659V211.717C286.29 237.516 276.928 258.356 258.866 273.234C242.729 286.523 194.07 308.324 180.493 314.309C166.734 308.243 117.953 286.167 102.106 273.24C84.1507 258.616 74.6992 237.282 74.6992 211.723V133.277C126.299 85.9561 188.957 74.5249 247.014 75.2842L247.018 75.2812ZM183.528 137.794C172.473 137.794 163.554 140.265 156.21 145.005V277.092H176.486V234.419C178.509 235.016 181.446 235.574 185.607 235.574C208.097 235.574 221.024 215.299 221.024 185.697C221.024 156.153 207.713 137.794 183.529 137.794L183.528 137.794ZM252.807 137.794C239.473 138.18 225.528 147.84 225.613 164.214C225.647 174.996 228.636 183.06 245.346 192.864C254.264 198.099 257.857 201.548 258.011 207.909C258.181 214.979 253.296 219.243 245.862 219.214C239.394 219.163 231.661 215.573 226.484 210.964V229.622C232.832 233.408 240.754 235.91 248.757 235.91C268.786 235.91 277.731 221.761 278.117 208.796C278.498 196.98 275.232 188.038 258.295 178.086C250.735 173.653 244.765 170.739 244.965 163.361C245.163 156.16 251.142 153.63 256.883 153.681C263.965 153.744 270.815 157.666 275.044 162.003V144.383C271.48 141.638 263.935 137.452 252.806 137.793L252.807 137.794ZM85.0528 139.845V203.559C85.0528 225.038 95.2132 235.912 115.266 235.912C127.674 235.912 138.066 233.04 145.807 227.777V139.846H125.576V216.241C123.371 217.753 120.1 218.718 115.985 218.718C106.698 218.718 105.31 210.202 105.31 204.456V139.847H85.0523L85.0528 139.845ZM183.664 154.117C195.424 154.117 200.298 163.506 200.298 186.213C200.298 208.368 194.724 219.073 183.061 219.073C180.315 219.073 177.929 218.393 176.48 217.847V155.584C178.122 154.766 180.913 154.119 183.664 154.119V154.117Z" fill="#FAB80A"/>
</svg>
