<svg width="360" height="360" viewBox="0 0 360 360" fill="none" xmlns="http://www.w3.org/2000/svg">
<rect width="360" height="360" rx="82" fill="#0068B2"/>
<path d="M170.077 94.9935C154.504 86.0312 136.44 80.9092 117.186 80.9092C69.0061 80.9092 25 118.867 25 177.513C25 236.164 72.5448 283.709 131.196 283.709H237.393C178.742 283.709 131.196 236.164 131.196 177.513C131.196 138.269 152.345 108.693 170.129 95.1987L170.077 94.9935Z" fill="black"/>
<path d="M189.919 264.723C205.495 273.682 223.554 278.809 242.814 278.809C290.988 278.809 334.999 240.847 334.999 182.196C334.999 123.549 287.451 76 228.8 76H122.609C181.256 76 228.8 123.549 228.8 182.196C228.8 221.444 207.653 251.02 189.867 264.519L189.919 264.723Z" fill="white"/>
</svg>
