<svg width="360" height="360" viewBox="0 0 360 360" fill="none" xmlns="http://www.w3.org/2000/svg">
<rect width="360" height="360" rx="82" fill="#00458D"/>
<path d="M55 91V238.583L180.001 281.115L305 238.583V91H55Z" fill="#D62A43"/>
<path d="M179.932 233.948H141.713V220.742H141.322C133.922 231.151 123.308 236.548 107.5 236.548C88.901 236.548 71.8818 225.143 71.8818 201.33V130.093H111.504V184.523C111.504 196.537 112.892 204.928 124.506 204.928C131.31 204.928 140.312 201.529 140.312 184.924V130.095H179.932V233.948Z" fill="white"/>
<path d="M253.763 160.314C253.565 156.907 251.771 154.306 249.168 152.506C246.763 150.506 243.554 149.504 240.364 149.504C234.746 149.504 228.348 150.711 228.348 157.512C228.348 160.519 230.753 161.913 232.953 162.905C239.56 165.711 254.562 166.51 267.771 170.905C280.978 175.111 292.585 182.917 292.585 199.93C292.585 228.733 264.974 236.545 239.755 236.545C215.343 236.545 188.527 226.744 187.936 199.93H225.742C225.947 203.531 227.548 206.529 230.556 209.124C232.55 210.93 236.362 212.134 241.153 212.134C246.358 212.134 254.56 210.139 254.56 204.122C254.56 198.124 251.158 196.324 232.748 193.122C202.538 187.924 190.333 178.322 190.333 160.519C190.333 134.304 218.55 127.485 239.358 127.485C261.769 127.485 288.782 133.707 289.769 160.316H253.763" fill="white"/>
</svg>
