<svg width="360" height="360" viewBox="0 0 360 360" fill="none" xmlns="http://www.w3.org/2000/svg">
<rect width="360" height="360" rx="82" fill="#0C3D91"/>
<path fill-rule="evenodd" clip-rule="evenodd" d="M239.317 170.372L332.095 149.966C331.492 146.662 330.705 143.381 329.885 140.167L236.89 160.619C237.961 163.798 238.735 167.045 239.317 170.372Z" fill="white"/>
<path fill-rule="evenodd" clip-rule="evenodd" d="M235.51 156.985L318.32 109.906C316.736 106.898 315.129 103.959 313.409 101.065L230.85 148.041C232.628 150.878 234.234 153.829 235.51 156.985Z" fill="white"/>
<path fill-rule="evenodd" clip-rule="evenodd" d="M216.892 132.602L265.099 50.4424C261.271 47.8674 257.363 45.4975 253.295 43.3555L205.077 125.436C209.316 127.373 213.281 129.765 216.892 132.602Z" fill="white"/>
<path fill-rule="evenodd" clip-rule="evenodd" d="M228.229 144.19L295.349 76.4312C292.558 73.332 289.664 70.3697 286.701 67.5212L219.854 135.086C222.954 137.82 225.734 140.851 228.229 144.19Z" fill="white"/>
<path fill-rule="evenodd" clip-rule="evenodd" d="M203.459 124.638L227.887 32.4971C223.318 31.0387 218.692 29.8195 213.975 28.7485L189.604 120.719C194.389 121.539 199.061 122.826 203.459 124.638Z" fill="white"/>
<path fill-rule="evenodd" clip-rule="evenodd" d="M240.136 179.954C240.136 213.167 213.235 240.068 180.068 240.068C146.901 240.068 120.001 213.167 120.001 179.954C120.001 146.799 146.901 119.898 180.068 119.898C182.279 119.898 184.512 120.08 186.745 120.286L186.643 119.898V25.1139C184.421 25.0569 182.245 25 180.068 25C177.334 25 174.645 25.057 171.99 25.2051V119.898L147.437 28.4865C141.956 29.6145 136.601 31.107 131.36 32.8275L154.41 118.474L109.94 41.7602C104.357 44.5516 98.9338 47.7076 93.7838 51.1827L135.337 122.826L76.2831 64.8438C71.4635 69.1962 66.963 73.822 62.7018 78.7099L120.001 133.833L50.5333 94.7864C46.8645 100.347 43.5717 106.146 40.6094 112.15L105.326 149.966L33.1579 130.472C30.9931 136.898 29.2157 143.597 27.8598 150.411L95.8233 168.299L25.433 168.982C25.2165 172.617 25 176.263 25 179.954C25 183.68 25.2165 187.372 25.433 191.006H93.6129L27.7573 208.883C29.1701 216.437 31.1868 223.889 33.6934 231.021L94.3193 215.845L40.1764 246.915C43.6287 254.048 47.5937 260.907 52.0031 267.333L102.352 239.327L61.3573 279.661C66.9061 286.303 73.0359 292.388 79.61 298.027L117.768 262.046L91.3228 307.097C98.3869 311.973 105.964 316.462 113.825 320.165L139.005 279.592L127.099 325.691C135.565 328.79 144.429 331.081 153.498 332.687L165.348 292.034L166.111 334.35C170.703 334.749 175.351 335 180.068 335C185.252 335 190.391 334.749 195.461 334.18V294.279L208.142 332.425C218.135 330.613 227.774 327.799 236.991 324.165L227.671 287.693L248.385 319.14C258.206 314.263 267.424 308.43 275.924 301.73L257.705 272.312L284.389 294.541C292.843 286.884 300.431 278.259 306.994 268.825L283.341 246.665L312.703 260.223C319.129 249.604 324.313 238.188 328.061 226.156L303.143 213.668L330.705 216.38C333.519 204.656 335.057 192.51 335.057 179.954H240.136Z" fill="white"/>
</svg>
