<svg width="360" height="360" viewBox="0 0 360 360" fill="none" xmlns="http://www.w3.org/2000/svg">
<rect width="360" height="360" rx="82" fill="black"/>
<path fill-rule="evenodd" clip-rule="evenodd" d="M57.1915 137.543H35L77.6475 235.782L77.6456 235.787H100.531L100.534 235.787L100.532 235.782L143.064 137.543H120.873L89.0747 209.811L57.1915 137.543Z" fill="white"/>
<rect x="229.062" y="137.543" width="20.1111" height="98.2437" fill="white"/>
<path fill-rule="evenodd" clip-rule="evenodd" d="M193.807 238.098C220.554 238.098 242.236 215.019 242.236 186.549C242.236 158.079 220.554 135 193.807 135C167.061 135 145.379 158.079 145.379 186.549C145.379 215.019 167.061 238.098 193.807 238.098ZM197.975 219.605C215.529 219.605 229.76 204.857 229.76 186.665C229.76 168.472 215.529 153.724 197.975 153.724C180.421 153.724 166.19 168.472 166.19 186.665C166.19 204.857 180.421 219.605 197.975 219.605Z" fill="white"/>
<path d="M327.999 137.543V156.498H315.401C301.421 156.498 290.088 167.831 290.088 181.81L289.857 235.787H269.746V181.81C269.746 157.362 289.565 137.543 314.014 137.543H327.999Z" fill="white"/>
</svg>
