<svg width="360" height="360" viewBox="0 0 360 360" fill="none" xmlns="http://www.w3.org/2000/svg">
<rect width="360" height="360" rx="82" fill="#004C97"/>
<path fill-rule="evenodd" clip-rule="evenodd" d="M25 179.903C25 179.936 25 179.968 25 180C25 196.051 27.4397 211.532 31.9685 226.092C27.4398 211.532 25.0001 196.051 25.0001 180C25.0001 179.968 25 179.936 25 179.903ZM26.7233 156.809C29.0671 141.257 33.7813 126.108 40.7412 111.903C54.1401 114.79 60.6501 118.723 65.1933 129.356L135.281 302.763H158.086L195.452 211.461L271.85 211.434L284.119 181.502H207.711L238.128 107.171H225.832C195.76 107.171 191.526 118.437 186.388 132.111C185.68 133.994 184.955 135.923 184.144 137.874L151.456 221.612L147.14 233.843L143.403 222.112L106.396 117.428C104.522 111.452 99.0212 107.171 90.0071 107.171H43.1696C69.244 58.2836 120.725 25 180 25C102.278 25 37.9162 82.2054 26.7233 156.809ZM180.251 25.0002C239.424 25.0939 290.8 58.3629 316.837 107.181H255.154L243.078 137.137L305.274 137.099L317.213 107.915C326.028 124.644 331.667 142.803 333.904 161.475C324.759 84.6851 259.473 25.1256 180.251 25.0002Z" fill="white"/>
</svg>
