<svg width="360" height="360" viewBox="0 0 360 360" fill="none" xmlns="http://www.w3.org/2000/svg">
<rect width="360" height="360" rx="82" fill="#FFCF00"/>
<path d="M70.3639 97H139.608L155.546 140.135L155.563 140.172L156.841 140.69L160.916 151.551C160.934 151.551 160.951 151.551 160.951 151.551C175.318 151.88 179.048 155.989 179.998 158.424C180.723 160.272 180.377 162.413 178.996 164.83C176.855 162.62 172.072 160.738 163.041 160.392C165.994 168.353 169.05 176.711 169.05 176.711C161.936 184.101 152.801 195.152 157.377 204.114C160.641 210.504 169.672 213.75 184.228 213.767C231.145 213.767 316.05 181.148 326.48 176.521C328.483 175.622 329.778 173.775 329.899 171.668C332.955 172.359 335.148 175.139 334.993 178.386C334.872 180.993 333.232 183.117 330.987 184.118C320.609 188.729 268.443 208.362 225.429 217.497L207.229 262.894H153.785C142.855 262.894 137.485 262.221 130.077 245.54C126.191 236.802 113.206 203.665 99.9617 170.77C79.6894 177.073 53.1315 186.381 37.3661 194.652C36.4164 195.187 35.3284 195.498 34.1542 195.48C30.6316 195.405 27.8688 192.562 27.9206 189.039C27.9382 188.365 28.0586 187.71 28.2659 187.105C29.1119 187.692 30.1307 188.038 31.2531 188.055H31.3396C32.2549 188.055 33.17 187.813 33.9643 187.365C52.1127 177.833 84.0062 167.42 96.4045 163.518L92.4674 153.848L92.8471 153.105L70.3639 97ZM190.599 154.553C193.414 162.134 190.737 169.645 182.483 177.554C180.757 179.143 165.768 193.164 167.771 199.208C168.704 201.988 172.969 203.352 180.826 203.352C192.551 203.352 211.873 200.296 234.494 194.856L273.726 97H204.483L185.488 148.354C187.975 150.116 189.701 152.101 190.599 154.553Z" fill="#006EAB"/>
<path d="M97.3181 164.241C77.0112 170.543 50.2807 179.885 34.4461 188.191C33.4964 188.744 32.4086 189.037 31.2343 189.019C27.7117 188.969 24.9489 186.101 25.0007 182.579C25.0521 180.075 26.5375 177.951 28.6787 176.966C46.948 168.453 72.7632 159.353 92.8457 153.12C94.3134 156.781 95.7985 160.493 97.3181 164.24V164.241ZM324.596 164.775C323.387 164.725 322.231 164.999 321.229 165.535C260.032 191.782 172.709 210.569 168.703 198.913C166.769 193.301 183.139 178.278 183.139 178.278C190.875 170.87 194.725 162.91 191.514 154.207C187.974 144.623 170.948 139.996 155.562 140.151C156.356 142.327 158.014 146.816 160.121 152.498C160.38 152.51 160.673 152.51 160.915 152.51C173.106 152.786 177.941 155.808 179.098 158.761C180.445 162.249 176.957 166.359 175.299 168.172C174.091 169.484 168.081 176.305 168.081 176.305C161.986 182.625 151.366 194.471 156.512 204.555C172.502 235.913 308.693 185.491 326.876 177.393C329.103 176.392 330.744 174.285 330.882 171.677C331.055 168.016 328.257 164.943 324.596 164.77" fill="white"/>
</svg>
