<svg width="360" height="360" viewBox="0 0 360 360" fill="none" xmlns="http://www.w3.org/2000/svg">
<rect width="360" height="360" rx="82" fill="black"/>
<path d="M30 128V128.761C30 128.761 30 153.862 30 174.574C30 195.58 45.0684 221.453 45.0684 221.453L45.5247 221.148V221.605H73.8345H74.139L74.2914 221.453C74.2914 221.453 78.1542 214.956 82.0535 205.928C85.9533 196.901 89.9681 185.109 89.9681 174.574C89.9681 153.82 89.9681 128.761 89.9681 128.761V128H89.3593H65.3112H64.7024V128.761C64.7024 128.761 64.7024 165.667 64.7024 174.574C64.7024 178.948 63.8218 184.236 62.7239 188.273C62.1746 190.291 61.5506 192.081 61.0495 193.295C60.7991 193.902 60.4679 194.371 60.2887 194.665C60.1065 194.37 59.9351 193.903 59.6799 193.295C59.1695 192.079 58.5679 190.292 58.0054 188.273C56.8808 184.233 55.8746 178.933 55.8746 174.574C55.8746 165.692 55.8746 128.761 55.8746 128.761V128H55.2657H30.6088H30ZM150.089 128V128.761V221.148H150.545V221.605H172.767H173.224V221.148V128.761V128H172.767H150.545H150.089ZM227.104 147.786C221.635 147.786 218.764 150.422 217.362 153.114C215.96 155.805 215.992 158.441 215.992 158.441V208.516C215.992 208.516 216.054 211.963 217.21 215.365C217.788 217.066 218.597 218.757 219.95 220.083C221.302 221.409 223.199 222.366 225.581 222.366C234.512 222.366 233.879 222.366 239.28 222.366C244.472 222.366 246.98 218.495 247.955 217.039C248.024 217.383 248.211 217.901 248.26 218.409C248.384 219.711 248.412 221.148 248.412 221.148V221.605H249.021H270.786H271.394V221.148V149.156V148.547H270.786H249.477H249.021V149.156C249.021 149.156 249.003 150.103 248.868 151.287C248.755 152.28 248.492 153.34 248.26 154.179C247.897 153.667 247.48 152.937 246.737 152.048C245.1 150.088 242.318 147.786 237.91 147.786C231.712 147.786 236.022 147.786 227.104 147.786ZM308.228 147.786C304.687 147.786 301.889 149.741 300.161 151.439C299.453 152.135 299.056 152.767 298.639 153.266C298.597 152.669 298.498 152.188 298.487 151.439C298.469 150.244 298.487 149.156 298.487 149.156V148.547H297.726H274.743H274.134V149.156V221.148V221.605H274.743H297.726H298.487V221.148V169.856C298.487 169.856 298.372 169.33 298.791 168.79C299.21 168.251 300.16 167.573 302.139 167.573C304.13 167.573 304.92 168.259 305.336 168.79C305.752 169.322 305.64 169.856 305.64 169.856V221.148H306.249V221.605H329.536H329.993V221.148V158.441C329.993 158.441 330.155 155.921 328.927 153.266C327.699 150.611 324.916 147.786 319.948 147.786C310.426 147.786 312.021 147.786 308.228 147.786ZM91.7945 148.547V149.156C91.7945 149.156 91.7945 192.534 91.7945 205.015C91.7945 211.39 93.8587 215.721 96.3606 218.257C98.8631 220.792 101.675 221.605 103.362 221.605C106.254 221.605 133.401 221.605 135.933 221.605C137.493 221.605 140.352 220.805 142.935 218.257C145.518 215.708 147.805 211.321 147.805 205.015C147.805 192.686 147.805 149.156 147.805 149.156V148.547H147.197H124.518H124.062V149.156C124.062 149.156 124.062 194.714 124.062 199.231C124.062 201.254 122.781 201.933 121.626 202.427C120.472 202.922 119.496 203.036 119.496 203.036C119.496 203.036 118.444 202.909 117.517 202.427C116.59 201.945 115.538 201.27 115.538 199.231C115.538 194.769 115.538 149.156 115.538 149.156V148.547H115.082H92.4033H91.7945ZM186.922 148.547C182.353 148.547 179.52 150.68 177.942 152.961C177.153 154.102 176.719 155.317 176.42 156.31C176.12 157.302 175.963 157.969 175.963 158.441C175.963 159.89 175.963 210.811 175.963 212.016C175.963 212.467 176.103 213.034 176.42 213.995C176.736 214.956 177.141 216.064 177.942 217.191C179.543 219.445 182.451 221.605 186.922 221.605C195.506 221.605 212.34 221.605 212.34 221.605H212.948V221.148V203.797V203.188H212.34C212.34 203.188 207.061 203.188 203.512 203.188C201.935 203.188 201.453 202.537 201.076 201.819C200.7 201.1 200.468 200.297 200.468 200.297V171.226C200.468 171.226 200.416 170.469 200.772 169.856C201.129 169.243 201.883 168.79 203.512 168.79C207.116 168.79 212.34 168.79 212.34 168.79H212.948V168.029V149.156V148.547H212.34C212.34 148.547 195.701 148.547 186.922 148.547ZM243.693 166.964C245.891 166.964 246.559 167.719 247.042 168.486C247.525 169.253 247.651 170.008 247.651 170.008V200.297C247.651 200.297 247.812 200.959 247.346 201.666C246.881 202.374 245.814 203.188 243.693 203.188C242.776 203.188 242.082 202.824 241.563 202.275C241.043 201.726 240.604 200.952 240.345 200.144C239.828 198.53 240.041 196.948 240.041 196.948V170.313C240.041 170.313 239.896 169.319 240.345 168.486C240.794 167.654 241.766 166.964 243.693 166.964Z" fill="white"/>
</svg>
