<svg width="360" height="360" viewBox="0 0 360 360" fill="none" xmlns="http://www.w3.org/2000/svg">
<rect width="360" height="360" rx="82" fill="#231F20"/>
<path d="M66 85C81.8543 85 104.709 85 120.563 85C123.926 92.2065 127.77 98.9326 131.133 106.139C138.339 120.072 145.065 132.563 150.35 146.496C158.998 163.791 168.126 181.567 176.774 198.863C178.696 202.226 180.137 206.07 182.059 211.354C183.98 207.991 185.422 202.707 187.343 198.863C195.991 181.567 205.12 161.87 215.209 144.574C222.415 130.641 229.141 114.787 237.789 100.854C239.711 97.4913 243.074 92.2065 244.996 88.363C260.85 88.363 278.146 88.363 294 88.363C290.637 93.6478 288.715 98.9326 285.352 105.659C281.989 110.943 280.067 118.15 276.704 123.435C273.341 128.72 271.42 134.004 268.057 139.289C264.693 144.574 262.772 151.78 259.409 156.585C257.487 161.87 254.124 167.154 252.202 170.517C248.839 175.802 246.917 181.087 243.554 186.372C240.191 191.657 238.27 196.941 236.348 202.226C232.985 207.511 231.063 212.796 227.7 218.08C224.337 223.365 222.415 228.65 220.493 233.935C217.13 239.22 215.209 244.504 211.846 249.789C208.483 255.074 206.561 260.359 203.198 265.644C201.276 269.007 197.913 274.291 195.991 278.135C190.707 286.783 187.343 295.431 182.059 304.559C176.774 295.911 173.411 287.263 168.126 278.135C164.763 272.85 162.841 267.565 159.478 264.202C136.898 221.924 115.759 180.126 92.6978 137.848C89.3348 132.563 87.4131 127.278 84.05 121.993C77 106.139 71.2848 95.5696 66 85Z" fill="white"/>
</svg>
