<svg width="360" height="360" viewBox="0 0 360 360" fill="none" xmlns="http://www.w3.org/2000/svg">
<rect width="360" height="360" rx="82" fill="black"/>
<path d="M311.209 98.3615C303.536 86.8516 295.095 76.109 285.12 66.9011C216.828 48.4852 143.164 48.4852 74.8723 67.6684C64.8971 76.8763 56.4565 86.8516 48.7832 98.3615C132.422 77.6437 227.57 77.6437 311.209 98.3615Z" fill="#0090E4"/>
<path d="M199.182 120.614C209.157 106.802 215.296 96.8267 219.132 92.2227C159.281 87.6187 98.662 92.99 43.4144 108.337C39.5778 116.01 35.7412 124.45 32.6719 132.124C84.8501 123.683 142.4 119.079 199.182 120.614Z" fill="#0090E4"/>
<path d="M175.398 240.317C169.259 249.525 161.586 259.5 154.68 269.475C209.927 271.777 265.942 266.406 317.353 252.594C321.19 244.921 325.026 237.247 328.096 228.807C282.056 237.247 231.412 241.084 180.769 241.084C178.467 241.084 176.932 240.317 175.398 240.317Z" fill="#0090E4"/>
<path d="M193.812 128.287C137.798 127.52 81.7827 131.356 30.3718 141.332C28.8371 148.238 27.3025 155.144 26.5352 162.817C72.5748 159.748 123.218 158.213 174.629 158.213C181.535 146.703 187.674 136.728 193.812 128.287Z" fill="#0090E4"/>
<path d="M148.542 277.149C140.101 288.658 132.428 299.401 127.824 304.005C180.002 310.911 233.715 307.074 284.359 293.262C294.334 284.054 303.542 273.312 310.448 261.802C269.012 272.545 224.507 277.916 180.002 277.916C169.26 277.916 159.285 277.916 148.542 277.149Z" fill="#0090E4"/>
<path d="M269.777 55.3911C244.455 37.7426 213.762 27 180 27C146.238 27 115.544 37.7426 90.2227 55.3911C149.307 41.5792 210.693 41.5792 269.777 55.3911Z" fill="#0090E4"/>
<path d="M205.32 195.045C249.825 194.277 293.563 193.51 334.231 190.441V180.465V170.49C298.934 168.188 262.102 166.654 223.736 166.654C217.598 175.861 212.226 184.302 205.32 195.045Z" fill="#0090E4"/>
<path d="M229.105 158.213C265.17 158.98 300.467 160.515 334.229 162.05C333.462 155.144 331.927 147.47 330.393 140.564C303.536 135.96 275.912 132.124 247.521 130.589C239.848 141.332 233.709 150.54 229.105 158.213Z" fill="#0090E4"/>
<path d="M168.491 165.886C138.565 165.886 109.406 166.653 80.248 167.421C83.3174 173.559 88.6886 184.302 94.0599 193.51C112.476 194.277 130.892 194.277 149.307 195.045C155.446 186.604 161.585 176.629 168.491 165.886Z" fill="#0090E4"/>
<path d="M99.4316 201.95C99.4316 202.718 100.199 203.485 100.199 203.485C104.803 211.158 110.174 218.832 114.011 224.97C115.546 226.505 116.313 228.807 117.08 230.341C119.382 234.178 121.684 236.48 121.684 236.48C121.684 236.48 123.219 234.178 125.521 230.341C126.288 228.807 127.823 227.272 129.357 224.97C133.194 219.599 137.798 211.926 143.937 202.718C129.357 202.718 114.011 202.718 99.4316 201.95Z" fill="#0090E4"/>
<path d="M180.766 232.643C232.177 232.643 282.82 228.04 329.627 219.599C331.162 212.693 332.696 205.787 333.464 198.114C291.261 200.416 245.988 201.95 199.949 202.718C195.345 211.158 188.439 221.134 180.766 232.643Z" fill="#0090E4"/>
<path d="M54.1548 200.416C44.9468 199.648 34.9716 199.648 25.7637 198.881C26.531 205.787 28.0657 213.46 29.6003 220.366C41.8775 222.668 54.1548 224.203 67.1993 226.505C61.828 216.53 57.9914 207.322 54.1548 200.416Z" fill="#0090E4"/>
<path d="M92.5217 262.569C84.8484 252.594 80.2444 246.455 73.3385 234.945C59.5266 233.411 46.4821 231.109 33.4375 228.807C36.5068 237.247 39.5761 244.921 44.1801 252.594C60.2939 257.198 77.1751 260.267 94.0563 263.337C93.289 262.569 92.5217 262.569 92.5217 262.569Z" fill="#0090E4"/>
<path d="M100.194 272.545C82.5456 270.243 65.6644 266.406 48.7832 262.569C56.4565 274.079 64.8971 284.822 74.8723 294.03C90.9862 298.634 107.867 302.47 124.749 304.772C114.773 291.728 107.1 281.753 100.194 272.545Z" fill="#0090E4"/>
<path d="M90.2227 305.539C115.544 323.188 146.238 333.931 180 333.931C213.762 333.931 244.455 323.188 269.777 305.539C240.619 312.445 209.926 315.515 180 315.515C150.074 315.515 119.381 312.445 90.2227 305.539Z" fill="#0090E4"/>
</svg>
