<svg width="360" height="360" viewBox="0 0 360 360" fill="none" xmlns="http://www.w3.org/2000/svg">
<rect width="360" height="360" rx="82" fill="black"/>
<path d="M168.505 25H175.416H168.505ZM166.63 25H168.505H166.63ZM162.765 25H166.63H162.765ZM25 180.219C25 221.231 41.2917 260.563 70.2912 289.562C99.2906 318.561 138.622 334.853 179.634 334.853C210.499 334.84 240.656 325.597 266.228 308.313C291.8 291.028 311.619 266.491 323.138 237.856C314.284 259.86 300.497 279.538 282.84 295.375C308.31 267.038 322.375 230.269 322.318 192.168C322.318 151.157 306.027 111.825 277.027 82.8259C248.028 53.8264 208.696 37.5347 167.685 37.5347C129.786 37.6229 93.2503 51.6784 65.0642 77.0132C88.0339 51.364 118.918 34.1284 152.807 28.0458C117.029 34.3718 84.6172 53.0849 61.25 80.9071C37.8828 108.729 25.0502 143.886 25 180.219ZM334.267 185.374C334.267 184.671 334.267 184.085 334.267 183.382C334.267 183.968 334.267 184.671 334.267 185.374ZM325.716 231.178C330.874 216.433 333.758 200.988 334.267 185.374C333.758 200.988 330.874 216.433 325.716 231.178ZM325.716 231.998V231.178V231.998ZM325.716 232.936V232.115V232.936ZM325.716 233.638V232.936V233.638ZM325.716 234.224V233.638V234.224Z" fill="url(#paint0_radial)"/>
<path d="M179.097 26.0001H177.808C156.331 26.1906 135.131 30.8632 115.563 39.7188C95.9961 48.5745 78.4935 61.4181 64.1758 77.4275C92.5121 51.9579 129.282 37.8928 167.382 37.949C208.393 37.949 247.725 54.2408 276.725 83.2402C305.724 112.24 322.016 151.571 322.016 192.583C322.072 230.683 308.007 267.453 282.537 295.789C298.336 281.675 311.057 264.457 319.905 245.209C328.753 225.96 333.539 205.094 333.965 183.914C334.402 163.323 330.721 142.852 323.138 123.703C315.556 104.554 304.224 87.1127 289.809 72.4028C275.394 57.6929 258.185 46.0109 239.193 38.0425C220.202 30.0741 199.81 25.9798 179.214 26.0001H179.097Z" fill="url(#paint1_radial)"/>
<path d="M253.083 172.371H182.092L216.416 112.861H287.524L253.083 172.371Z" fill="white"/>
<path d="M146.241 112.861H75.9531L180.448 293.853L215.592 232.702L146.241 112.861Z" fill="white"/>
<defs>
<radialGradient id="paint0_radial" cx="0" cy="0" r="1" gradientUnits="userSpaceOnUse" gradientTransform="translate(449.16 400.76) scale(155.695)">
<stop stop-color="#1761A8"/>
<stop offset="1" stop-color="#14477B"/>
</radialGradient>
<radialGradient id="paint1_radial" cx="0" cy="0" r="1" gradientUnits="userSpaceOnUse" gradientTransform="translate(448.155 401.76) scale(155.695)">
<stop stop-color="#165DA1"/>
<stop offset="1" stop-color="#164375"/>
</radialGradient>
</defs>
</svg>
