<svg width="360" height="360" viewBox="0 0 360 360" fill="none" xmlns="http://www.w3.org/2000/svg">
<rect width="360" height="360" rx="82" fill="#ED2027"/>
<path fill-rule="evenodd" clip-rule="evenodd" d="M145.422 297.404L151.944 298.212L157.651 299.028L164.173 299.843H176.401L182.108 299.028H187.815L193.521 298.212L200.043 296.575L204.935 294.952L210.641 293.321L222.054 288.43L231.837 283.538L237.544 280.277L241.62 277.023L246.512 273.755L251.403 269.679L263.631 257.451L266.892 252.559L270.969 247.668L277.49 237.885L279.936 232.994L284.828 221.58L286.458 215.881L288.904 209.352L289.719 203.645L291.35 197.123L292.165 191.417L292.98 184.895V173.481L292.165 166.959L289.719 149.84L288.089 144.133L285.643 138.426L284.012 132.72L281.567 127.013L279.121 122.122L275.86 117.23L273.414 112.339L269.338 107.447L262.816 97.6645L254.664 89.5121L249.773 85.4359L245.696 82.1751L240.805 78.0988L235.913 74.8378L230.207 72.3922L225.315 69.1312L213.902 64.2398L202.489 60.9789L195.967 59.3483L202.489 30L209.826 31.6304L217.163 34.076L224.5 36.5218L231.837 39.7828L238.359 42.2285L244.881 46.3047L251.403 49.5655L257.925 53.6417L263.631 58.5331L269.338 62.6094L275.045 67.5008L279.936 73.2074L284.828 78.0988L289.719 83.8055L293.795 89.5121L297.871 96.0341L301.948 101.741L311.73 121.306L314.176 128.643L316.622 135.165L321.513 157.177L322.328 164.514V171.851L323.144 179.188L322.328 187.334L320.698 202.015L319.883 210.167L317.437 217.504L315.807 224.841L313.361 232.178L310.1 238.7L306.839 246.037L303.578 252.559L299.502 259.081L295.426 264.788L291.35 271.31L286.458 277.023L281.567 281.908L276.675 287.614L265.262 297.404L253.849 305.55L247.327 309.619L234.283 316.148L227.761 318.593L221.239 321.854L213.902 323.485L206.565 325.931L199.228 327.561L192.706 328.376L184.554 329.191L177.217 330H162.542L154.39 329.191L147.053 328.376L138.9 326.746L145.422 297.404Z" fill="white"/>
<path fill-rule="evenodd" clip-rule="evenodd" d="M40.2609 150.654L38.6305 157.176L37.8152 163.698L37 171.035V184.079L39.4457 203.644L41.0762 210.166L42.7066 215.88L44.3371 222.395L46.7828 228.095L49.2286 234.623L52.4895 240.33L54.9352 245.221L59.0114 250.928L62.2723 256.641L74.5009 271.309L79.3923 275.385L84.2837 280.276L89.1751 284.359L94.0665 287.613L99.7732 291.69L111.186 298.212L116.893 300.657L129.937 305.549L149.503 310.44L156.84 311.255L163.362 312.071H176.405L195.971 309.618L209.015 306.364L214.721 304.74L221.243 302.288L226.95 299.842L232.657 296.574L238.363 294.135L244.07 290.059L248.961 286.798L263.635 274.57L268.527 269.678L280.756 255.004L293.799 232.177L296.245 225.656L297.875 219.134L300.321 212.612L301.952 206.09L302.767 199.568L304.397 192.231V166.143L302.767 153.1L299.506 140.056L297.06 134.349L295.43 128.642L292.169 122.121L289.723 116.414L286.462 110.707L283.201 105.816L279.125 100.109L275.864 95.2177L271.788 90.3263L257.929 76.4674L253.037 72.3912L247.331 68.315L230.211 58.5321L224.504 56.0865L211.46 51.1951L204.939 49.5645L198.417 47.9341L195.971 59.3473L202.493 60.9779L213.906 64.2388L225.32 69.1302L230.211 72.3912L235.918 74.8368L240.809 78.0978L245.7 82.1741L249.777 85.4349L254.668 89.5111L262.82 97.6635L269.342 107.446L273.418 112.338L275.864 117.229L279.125 122.121L281.571 127.012L284.016 132.719L285.647 138.425L288.093 144.132L289.723 149.839L292.169 166.958L292.984 173.481V184.894L292.169 191.416L291.354 197.122L289.723 203.644L288.908 209.351L286.462 215.88L284.832 221.579L279.94 232.993L277.495 237.884L270.973 247.667L266.897 252.558L263.635 257.45L251.407 269.678L246.516 273.754L241.624 277.022L237.548 280.276L231.841 283.537L222.058 288.429L210.645 293.32L204.939 294.951L200.047 296.574L193.525 298.212L187.819 299.027H182.112L176.405 299.842H164.177L157.655 299.027L151.948 298.212L145.426 297.403L139.72 295.766L133.198 294.135L127.491 291.69L121.785 290.059L116.078 287.613L96.5122 274.57L91.6208 270.494L87.5446 267.233L83.4684 263.156L79.3923 258.265L75.3161 254.189L65.5332 239.515L63.0875 234.623L59.8266 228.917L57.3809 224.025L50.859 201.198L49.2286 189.785V165.328L50.0438 159.621L51.6743 153.1L40.2609 150.654Z" fill="white"/>
<path fill-rule="evenodd" clip-rule="evenodd" d="M151.946 268.05L160.914 269.68H179.664L187.817 268.05L196.784 266.419L213.089 259.897L221.241 255.006L227.763 250.114L234.285 244.408L240.807 237.886L246.514 230.549L251.405 223.218L254.666 215.052L257.927 206.092L260.373 197.124L262.003 188.157L262.818 179.189L261.188 161.254L258.742 152.286L256.296 144.134L252.22 135.981L248.144 128.644L242.437 121.307L236.731 114.785L230.209 108.263L223.687 103.372L215.535 98.4805L207.382 94.4043L199.23 91.1435L190.262 88.6977L180.479 87.0673L171.512 86.2521L162.544 87.0673L153.577 88.6977L144.609 90.3281L128.304 96.8501L113.63 106.633L107.108 112.34L101.402 118.861L95.6949 126.198L90.8035 133.536L86.7274 141.688L83.4664 149.84L81.0207 159.623L69.6074 156.362L70.4226 151.471L73.6835 141.688L76.1293 136.797L77.7598 131.905L80.2055 127.829L82.6512 122.938L85.9121 118.861L88.3578 114.785L91.6187 110.709L102.217 100.111L106.293 96.8501L110.369 94.4043L114.445 91.1435L122.598 86.2521L127.489 83.8063L132.381 82.1759L136.457 80.5455L146.239 77.2844L156.022 75.654L161.729 74.8386H182.11L187.001 75.654L192.708 76.4692L212.274 82.9911L222.056 87.8825L226.133 90.3281L230.209 93.5891L234.285 96.0349L238.361 99.2957L248.959 109.894L255.481 118.046L262.818 130.275L265.264 135.166L266.894 139.242L269.34 144.134L270.155 149.025L271.786 153.917L275.047 173.482V179.189L274.232 184.08V188.972L273.416 194.672L272.601 199.57L270.971 205.276L266.079 219.951L263.633 224.027L258.742 233.81L256.296 237.886L253.035 241.962L249.775 245.223L246.514 249.299L243.253 252.56L235.1 259.082L231.839 262.343L227.763 265.604L222.872 268.05L218.796 270.495L213.904 272.126L209.828 274.572L204.937 276.195L200.045 277.832L195.154 279.463L180.479 281.909H164.99L160.099 281.093H154.392L149.5 279.463L151.946 268.05Z" fill="white"/>
<path fill-rule="evenodd" clip-rule="evenodd" d="M243.253 193.863L244.068 186.526L244.883 178.374L244.068 171.852L243.253 164.515L241.622 157.178L239.177 150.656L235.915 144.134L232.654 138.427L228.578 132.721L223.687 127.014L218.796 122.122L213.089 118.046L206.567 113.97L200.045 110.709L193.523 108.263L178.849 105.002L171.512 104.187L156.838 105.818L149.5 107.448L142.979 109.894L136.457 113.155L130.75 116.416L125.043 120.492L119.337 125.383L114.445 130.275L110.369 135.981L106.293 142.503L103.032 149.025L100.586 155.547L98.9559 162.884L69.6074 156.362L70.4226 151.471L73.6835 141.688L76.1293 136.797L77.7598 131.905L80.2055 127.829L82.6512 122.938L85.9121 118.861L88.3578 114.785L91.6187 110.709L102.217 100.111L106.293 96.8501L110.369 94.4043L114.445 91.1435L122.598 86.2521L127.489 83.8063L132.381 82.1759L136.457 80.5455L146.239 77.2844L156.022 75.654L161.729 74.8386H182.11L187.001 75.654L192.708 76.4692L212.274 82.9911L222.056 87.8825L226.133 90.3281L230.209 93.5891L234.285 96.0349L238.361 99.2957L248.959 109.894L255.481 118.046L262.818 130.275L265.264 135.166L266.894 139.242L269.34 144.134L270.155 149.025L271.786 153.917L275.047 173.482V179.189L274.232 184.08V188.972L273.416 194.672L272.601 199.57L243.253 193.863Z" fill="white"/>
<path fill-rule="evenodd" clip-rule="evenodd" d="M161.732 220.765L157.656 219.95L149.504 216.689L145.427 214.243L142.167 211.797L139.721 208.536L136.46 205.275L134.014 202.014L132.384 198.753L129.123 190.601L127.492 182.449V173.481L129.123 165.329L132.384 157.176L134.829 153.1L137.275 149.839L140.536 146.578L150.319 139.241L154.395 137.611L158.471 136.796L162.547 135.165H166.623L170.7 134.35L175.591 135.165L179.667 135.98L184.559 136.796L192.711 140.056L199.233 144.948L202.494 148.209L209.831 157.992L213.092 166.144L214.722 174.296V178.373L213.907 182.449V187.333L213.092 189.786L212.277 191.416L211.461 193.862L210.646 195.499L209.831 197.938L208.201 201.199L206.57 202.836L204.94 205.275L204.124 206.906L202.494 208.536L200.863 209.352L197.603 212.612L195.972 213.428L194.342 215.051L200.863 224.841L203.309 223.217L205.755 222.395L207.385 219.95L209.831 218.319L211.461 216.689L213.092 214.243L214.722 212.612L219.614 205.275L220.429 202.836L222.059 200.384L223.69 195.499L224.505 192.231L225.321 189.786L226.951 178.373L226.136 173.481L225.321 167.775L224.505 162.883L222.875 157.176L220.429 152.285L217.983 148.209L214.722 143.317L207.385 135.98L202.494 132.719L198.418 129.458L193.526 127.013L187.82 125.382L182.928 123.752L177.222 122.937H165.808L160.102 123.752L155.21 124.567L150.319 126.197L145.427 128.643L140.536 131.904L132.384 138.426L128.307 142.502L125.047 146.578L122.601 150.654L119.34 156.361L117.709 161.253L116.079 166.959L115.264 172.666V183.264L116.079 188.971L119.34 198.753L124.231 208.536L130.753 216.689L134.829 220.765L138.905 224.026L143.797 227.287L148.688 229.732L153.58 231.363L159.286 232.993L161.732 220.765Z" fill="white"/>
<path fill-rule="evenodd" clip-rule="evenodd" d="M165.808 203.645L160.917 202.014L158.471 200.384L156.025 199.569L152.765 196.308L150.319 194.67L149.504 192.231L147.873 190.601L145.427 183.264V172.666L147.058 167.775L148.688 166.144L149.504 163.698L151.134 161.253L152.765 159.622L155.21 157.992L156.841 156.361L159.286 155.546L161.732 154.731L163.363 153.915L165.808 153.1H168.254L170.7 152.285L173.961 153.1H176.406L182.928 123.752L177.222 122.937H165.808L160.102 123.752L155.21 124.567L150.319 126.197L145.427 128.643L140.536 131.904L132.384 138.426L128.307 142.502L125.047 146.578L122.601 150.654L119.34 156.361L117.709 161.253L116.079 166.959L115.264 172.666V183.264L116.079 188.971L119.34 198.753L124.231 208.536L130.753 216.689L134.829 220.765L138.905 224.026L143.797 227.287L148.688 229.732L153.58 231.363L159.286 232.993L165.808 203.645Z" fill="white"/>
</svg>
