<svg width="360" height="360" viewBox="0 0 360 360" fill="none" xmlns="http://www.w3.org/2000/svg">
<rect width="360" height="360" rx="82" fill="url(#paint0_diamond)"/>
<circle cx="180" cy="180" r="155.455" fill="#4681C7" fill-opacity="0.06"/>
<circle cx="180" cy="180" r="155.205" stroke="#2869BF" stroke-opacity="0.04" stroke-width="0.5"/>
<path fill-rule="evenodd" clip-rule="evenodd" d="M279.321 201.812C279.714 194.521 279.914 187.164 279.914 179.939C279.914 172.703 279.714 165.347 279.321 158.056C286.792 158.432 294.151 158.845 301.253 159.311C301.701 166.192 301.921 173.124 301.921 179.939C301.921 186.74 301.701 193.683 301.253 200.557C294.151 201.019 286.795 201.446 279.321 201.812ZM259.579 291.464C261.885 284.679 263.985 277.554 265.846 270.246C254.998 272.8 243.667 274.889 232.098 276.441C231.35 283.759 230.498 290.981 229.578 297.944C239.84 296.293 249.913 294.114 259.576 291.467L259.579 291.464ZM220.977 330.92C222.728 321.771 224.331 312.019 225.738 301.847C218.512 302.894 211.118 303.708 203.713 304.253C202.996 315.008 202.176 325.298 201.276 334.912C207.912 334.002 214.527 332.661 220.974 330.92H220.977ZM80.0962 179.942C80.0962 172.707 80.2996 165.35 80.6925 158.06C73.2293 158.435 65.8626 158.849 58.7613 159.314C58.3132 166.195 58.0926 173.127 58.0926 179.942C58.0926 186.744 58.3132 193.687 58.7613 200.56C65.8626 201.022 73.2259 201.45 80.6925 201.815C80.2996 194.524 80.0962 187.168 80.0962 179.942ZM203.583 233.209C203.796 224.732 203.965 216.042 204.072 207.317C196.023 207.406 187.936 207.455 180.004 207.455C172.071 207.455 163.984 207.406 155.935 207.317C156.042 216.045 156.204 224.736 156.418 233.209C164.243 233.385 172.175 233.478 180.004 233.478C187.832 233.478 195.764 233.385 203.583 233.209ZM229.095 86.3539C221.325 85.368 213.352 84.6165 205.337 84.1097C205.94 96.7921 206.43 110.019 206.785 123.477C215.293 123.691 223.766 124.022 232.032 124.449C231.312 111.488 230.323 98.6812 229.095 86.3539ZM127.913 83.441C128.668 76.1087 129.516 68.8903 130.432 61.9373C120.174 63.585 110.087 65.7636 100.435 68.4111C98.1389 75.1952 96.0327 82.3103 94.1677 89.6287C105.016 87.0606 116.347 84.9784 127.916 83.441H127.913ZM203.589 126.676C195.75 126.493 187.818 126.4 180.01 126.4C172.196 126.4 164.27 126.49 156.425 126.676C156.211 135.139 156.049 143.829 155.942 152.558C163.912 152.472 171.999 152.423 180.01 152.423C188.018 152.423 196.109 152.472 204.079 152.558C203.972 143.836 203.803 135.139 203.589 126.676ZM65.7937 262.055C57.0722 259.025 48.7989 255.647 41.1426 251.976C45.1724 259.725 49.8744 267.171 55.1762 274.172C60.5953 276.937 66.3245 279.543 72.2606 281.949C69.8717 275.51 67.7034 268.836 65.7937 262.055ZM304.841 85.7024C299.422 82.9446 293.693 80.342 287.764 77.9324C290.146 84.3683 292.317 91.0387 294.227 97.8263C302.949 100.849 311.222 104.235 318.882 107.909C314.845 100.153 310.143 92.7071 304.841 85.7024Z" fill="#54C4A6"/>
<path fill-rule="evenodd" clip-rule="evenodd" d="M301.935 225.694C302.99 218.451 303.8 211.057 304.345 203.676C315.076 202.956 325.37 202.132 335.001 201.239C334.098 207.875 332.757 214.48 331.016 220.933C321.884 222.677 312.112 224.28 301.935 225.694ZM291.556 259.535C294.214 249.873 296.382 239.793 298.04 229.53C291.07 230.451 283.851 231.289 276.533 232.05C274.988 243.623 272.899 254.95 270.338 265.799C277.657 263.937 284.779 261.838 291.556 259.535ZM229.127 273.545C230.354 261.228 231.343 248.425 232.064 235.453C223.776 235.877 215.303 236.211 206.813 236.425C206.461 249.876 205.972 263.11 205.365 275.792C213.383 275.285 221.357 274.527 229.127 273.545ZM123.562 206.744C110.056 206.389 96.8326 205.903 84.2054 205.297C84.7122 213.308 85.4637 221.288 86.4427 229.051C98.7768 230.279 111.576 231.275 124.538 231.985C124.107 223.708 123.786 215.235 123.559 206.744H123.562ZM156.325 304.277C148.92 303.722 141.526 302.922 134.3 301.867C135.717 312.036 137.31 321.799 139.061 330.948C145.507 332.692 152.116 334.023 158.752 334.929C157.852 325.325 157.045 315.035 156.325 304.28V304.277ZM291.552 100.398C284.761 98.0914 277.643 95.9783 270.335 94.1306C272.896 104.979 274.981 116.31 276.529 127.875C283.848 128.627 291.07 129.475 298.033 130.399C296.382 120.136 294.207 110.057 291.552 100.401V100.398ZM221.005 28.9919C214.559 27.2407 207.94 25.9032 201.304 25C202.204 34.6074 203.021 44.9111 203.741 55.6596C211.136 56.2042 218.526 57.0109 225.766 58.0589C224.349 47.893 222.753 38.127 221.005 28.9919ZM55.7176 156.26C56.2623 148.866 57.0792 141.475 58.1272 134.232C47.9682 135.652 38.2023 137.252 29.0499 138.993C27.3056 145.442 25.9715 152.058 25.0684 158.694C34.6896 157.794 44.9898 156.984 55.7176 156.26ZM123.559 153.181C123.786 144.698 124.107 136.214 124.538 127.944C111.58 128.661 98.7803 129.647 86.4427 130.871C85.4637 138.648 84.7087 146.628 84.2054 154.633C96.8877 154.029 110.111 153.54 123.562 153.178L123.559 153.181ZM200.656 58.7207C193.779 58.2691 186.846 58.0485 180.038 58.0485C173.226 58.0485 166.294 58.2691 159.407 58.7207C158.955 65.822 158.531 73.1853 158.159 80.6554C165.439 80.2624 172.796 80.059 180.038 80.059C187.281 80.059 194.627 80.2624 201.918 80.6554C201.545 73.1853 201.121 65.8254 200.659 58.7207H200.656ZM97.9323 294.18C91.1481 292.27 84.4743 290.105 78.028 287.716C80.4342 293.645 83.0437 299.375 85.8084 304.794C92.8097 310.095 100.259 314.801 108.005 318.834C104.33 311.178 100.945 302.905 97.9323 294.18ZM274.271 55.1287C267.267 49.8269 259.824 45.1249 252.075 41.0951C255.746 48.7583 259.128 57.0281 262.147 65.7496C268.921 67.6525 275.605 69.8173 282.052 72.2131C279.642 66.2839 277.036 60.5581 274.271 55.1287Z" fill="#77B5E6"/>
<path fill-rule="evenodd" clip-rule="evenodd" d="M89.5146 265.836C82.203 263.964 75.0811 261.865 68.3038 259.569C65.6529 249.91 63.4777 239.827 61.83 229.572C68.7933 230.489 76.0153 231.33 83.3337 232.091C84.8712 243.66 86.9567 254.988 89.518 265.84L89.5146 265.836ZM152.313 180.004C152.313 172.031 152.354 163.943 152.447 155.929C143.784 156.035 135.094 156.204 126.565 156.418C126.383 164.254 126.29 172.175 126.29 180.004C126.29 187.822 126.383 195.747 126.565 203.59C135.073 203.804 143.763 203.966 152.447 204.069C152.354 196.058 152.313 187.974 152.313 180.004ZM200.456 301.246C200.915 294.145 201.339 286.778 201.708 279.308C194.407 279.708 187.054 279.904 179.828 279.904C172.596 279.904 165.25 279.704 157.942 279.308C158.325 286.778 158.735 294.141 159.197 301.246C166.084 301.698 173.017 301.915 179.828 301.915C186.637 301.915 193.572 301.701 200.453 301.246H200.456ZM273.413 130.909C261.076 129.688 248.269 128.692 235.318 127.982C235.749 136.255 236.07 144.732 236.29 153.222C249.748 153.578 262.968 154.067 275.651 154.663C275.144 146.656 274.392 138.675 273.413 130.909ZM156.122 55.6903C156.842 44.9384 157.656 34.6381 158.552 25.0342C151.916 25.9408 145.304 27.2783 138.851 29.0191C137.107 38.1612 135.5 47.9237 134.091 58.0999C141.333 57.0451 148.727 56.2315 156.118 55.6903H156.122ZM304.659 274.241C309.961 267.239 314.656 259.783 318.693 252.044C311.036 255.708 302.76 259.094 294.042 262.117C292.135 268.901 289.964 275.575 287.575 282.007C293.511 279.598 299.233 276.998 304.659 274.237V274.241ZM65.6115 97.8877C67.5178 91.1036 69.6896 84.4298 72.0751 77.9904C66.139 80.4 60.4131 82.9992 54.9907 85.7638C49.6992 92.7686 44.9868 100.211 40.957 107.961C48.6202 104.289 56.8901 100.911 65.6115 97.8877Z" fill="#A5AADC"/>
<path fill-rule="evenodd" clip-rule="evenodd" d="M235.463 231.981C235.887 223.704 236.211 215.231 236.432 206.734C249.945 206.386 263.172 205.896 275.796 205.286C275.289 213.297 274.534 221.278 273.555 229.048C261.224 230.275 248.428 231.264 235.463 231.981ZM233.236 203.542C233.415 195.703 233.505 187.781 233.505 179.959C233.505 172.127 233.415 164.209 233.236 156.373C224.708 156.16 216.014 155.991 207.355 155.884C207.434 163.895 207.482 171.979 207.482 179.959C207.482 187.929 207.434 196.009 207.355 204.028C216.024 203.921 224.718 203.759 233.236 203.545V203.542ZM55.6561 203.669C44.9284 202.949 34.635 202.135 25 201.239C25.9032 207.875 27.2442 214.48 28.9885 220.933C38.1201 222.681 47.8861 224.273 58.0692 225.693C57.0143 218.451 56.2008 211.057 55.6561 203.669ZM127.879 276.467C116.31 274.92 104.976 272.831 94.1306 270.269C95.9921 277.584 98.0949 284.703 100.398 291.487C110.06 294.135 120.133 296.32 130.395 297.961C129.475 291.008 128.623 283.782 127.875 276.467H127.879ZM153.188 236.425C144.698 236.211 136.221 235.88 127.937 235.452C128.658 248.421 129.647 261.22 130.874 273.548C138.645 274.527 146.618 275.285 154.633 275.792C154.029 263.103 153.54 249.883 153.192 236.425H153.188ZM330.944 138.985C321.795 137.238 312.029 135.638 301.87 134.225C302.918 141.474 303.739 148.855 304.28 156.249C315.011 156.97 325.308 157.787 334.929 158.686C334.026 152.05 332.689 145.439 330.941 138.985H330.944ZM259.535 68.4381C249.879 65.7872 239.796 63.612 229.537 61.9574C230.451 68.9139 231.302 76.1323 232.061 83.4611C243.626 85.0054 254.964 87.0876 265.806 89.6488C263.937 82.3373 261.834 75.2222 259.539 68.4381H259.535ZM83.4683 127.875C85.0127 116.299 87.0879 104.968 89.6492 94.1268C82.3514 95.9814 75.2329 98.0911 68.4419 100.39C65.791 110.053 63.6158 120.126 61.9645 130.395C68.9279 129.468 76.1499 128.623 83.4683 127.875ZM153.188 123.501C153.54 110.043 154.029 96.8088 154.629 84.1333C146.618 84.6401 138.641 85.3916 130.871 86.3775C129.644 98.7013 128.654 111.501 127.934 124.473C136.197 124.042 144.674 123.714 153.185 123.501H153.188ZM274.193 304.8C276.957 299.371 279.563 293.645 281.973 287.709C275.527 290.105 268.856 292.273 262.079 294.172C259.056 302.901 255.671 311.171 251.996 318.834C259.738 314.804 267.191 310.099 274.193 304.8ZM97.8536 65.7424C100.873 57.0209 104.252 48.751 107.926 41.0913C100.184 45.1211 92.7379 49.83 85.7297 55.1249C82.965 60.5509 80.3589 66.2801 77.9493 72.2059C84.3956 69.817 91.0729 67.6521 97.8536 65.7424Z" fill="#82CD27"/>
<defs>
<radialGradient id="paint0_diamond" cx="0" cy="0" r="1" gradientUnits="userSpaceOnUse" gradientTransform="translate(180 180) rotate(44.5517) scale(225.928)">
<stop stop-color="#82CD27" stop-opacity="0.15"/>
<stop offset="0.318816" stop-color="#54C4A6" stop-opacity="0.15"/>
<stop offset="0.702672" stop-color="#A5AADC" stop-opacity="0.15"/>
<stop offset="0.906302" stop-color="#77B5E6" stop-opacity="0.15"/>
</radialGradient>
</defs>
</svg>
