<svg width="360" height="360" viewBox="0 0 360 360" fill="none" xmlns="http://www.w3.org/2000/svg">
<rect width="360" height="360" rx="82" fill="#005DAA"/>
<path d="M42.9292 110.234C86.6411 111.989 139.819 101.723 164.089 141.201C166.633 145.339 173.791 159.07 177.885 167.983C191.295 197.164 202.602 229.334 231.9 248.48C201.416 251.866 163.317 252.713 138.327 231.963C97.3464 195.951 105.336 123.907 43.1814 110.835C41.7594 110.534 41.5555 110.186 42.9292 110.234Z" fill="white"/>
<path d="M260.27 152.796C276.787 185.401 285.244 221.804 317 248.484C287.787 251.87 250.944 252.718 227.66 231.967C192.105 195.14 190.409 140.095 146.381 110.04C192.105 106.224 237.411 111.301 260.27 152.796Z" fill="white"/>
</svg>
