<svg width="360" height="360" viewBox="0 0 360 360" fill="none" xmlns="http://www.w3.org/2000/svg">
<rect width="360" height="360" rx="82" fill="#2C4592"/>
<path opacity="0.98" d="M38.2249 236.948C36.4333 236.709 35 235.992 35 235.395C35 234.798 37.1499 215.688 39.6582 192.874C42.2859 170.061 44.3164 150.712 44.3164 149.756C44.3164 148.442 47.183 148.204 59.8437 148.562C68.324 148.801 75.8487 149.517 76.4459 149.995C77.0431 150.592 76.6848 158.117 75.371 168.628C74.1766 178.303 73.5794 186.544 73.9377 186.902C74.296 187.261 77.6403 181.886 81.343 174.839C85.0457 167.911 89.5844 159.431 91.4955 156.087L94.9593 149.995H103.32C112.398 149.995 142.736 152.026 143.333 152.503C143.572 152.742 144.527 160.267 145.602 169.225C147.752 188.216 148.23 190.844 149.544 190.844C150.021 190.844 151.096 188.574 151.932 185.827C152.769 183.08 155.277 174.719 157.546 167.075L161.727 153.339H195.17L193.498 158.953C192.542 162.059 186.451 180.572 179.762 200.16C168.893 232.409 167.46 235.754 164.832 236.47C163.279 236.948 153.605 237.306 143.452 237.426C129.478 237.545 125.058 237.187 125.058 236.112C125.058 235.276 123.506 219.868 121.595 201.952C119.683 184.036 118.131 168.508 118.131 167.792C118.131 163.253 114.548 169.703 98.7813 201.952L81.343 237.665L61.3964 237.545C50.4079 237.426 40.0165 237.187 38.2249 236.948Z" fill="white"/>
<path opacity="0.98" d="M45.5059 138.888C45.5059 137.933 46.1031 132.08 46.8197 125.989L48.1336 115H65.4524C81.2186 115 82.7713 115.239 82.7713 117.03C82.7713 118.464 80.1437 136.738 79.3076 140.441C79.3076 140.56 71.6634 140.68 62.347 140.68C47.8947 140.68 45.5059 140.441 45.5059 138.888Z" fill="white"/>
<path opacity="0.98" d="M104.983 130.409C107.969 124.795 110.955 119.301 111.672 118.226C112.627 116.673 115.374 116.196 125.646 115.837C138.426 115.36 138.546 115.479 139.86 118.346C140.576 119.898 141.532 125.631 141.771 130.887L142.368 140.562H99.3691L104.983 130.409Z" fill="white"/>
<path opacity="0.98" d="M166.977 140.083C166.618 139.725 167.932 134.23 169.963 127.781L173.546 116.075H190.865C200.42 116.075 208.184 116.434 208.184 116.912C208.184 117.389 206.512 122.884 204.481 129.214L200.779 140.68H184.296C174.979 140.68 167.216 140.441 166.977 140.083Z" fill="white"/>
<path opacity="0.98" d="M181.557 236.95C180.124 236.711 178.93 236.114 178.93 235.636C178.93 235.159 185.021 216.526 192.546 194.071L206.162 153.342L222.167 154.058C244.622 155.014 250.714 155.731 250.116 157.403C248.922 160.628 237.695 197.654 237.097 200.76L236.381 204.104L246.055 203.507C262.538 202.432 270.063 199.326 280.096 189.054C287.143 181.888 291.443 173.049 292.279 164.091C292.876 158 292.518 156.447 289.89 152.028C288.099 148.922 284.993 145.817 281.888 144.145C276.871 141.278 276.154 141.278 246.414 140.92C229.692 140.681 214.881 140.323 213.448 139.964C210.94 139.367 210.94 139.367 214.881 127.423L218.942 115.479L260.03 115.837L301.118 116.196L308.045 119.659C322.259 126.826 330.022 138.173 330.858 153.461C331.575 165.286 329.664 173.766 323.214 186.546C318.795 195.504 315.928 199.207 306.612 208.523C287.621 227.514 272.571 234.681 247.13 236.472C232.2 237.667 186.574 237.906 181.557 236.95Z" fill="white"/>
</svg>
