<svg width="360" height="360" viewBox="0 0 360 360" fill="none" xmlns="http://www.w3.org/2000/svg">
<rect width="360" height="360" rx="82" fill="#1188C9"/>
<path d="M70 72H130.708V168.435L70 229.143V72Z" fill="white"/>
<path d="M70 236.127V265.406L204.31 131.902C204.31 131.902 211.025 127.067 210.757 115.516V72.2686H146.557V149.9C146.557 149.9 147.362 156.884 142.527 163.599L70 236.127Z" fill="white"/>
<path d="M131.783 287.165H290V226.188H192.223L131.783 287.165Z" fill="white"/>
<path d="M124.798 287.165H95.5186L229.291 152.586C229.291 152.586 234.126 145.871 245.677 146.139H289.999V210.339H209.145C209.145 210.339 203.504 210.071 197.863 214.369L124.798 287.165Z" fill="white"/>
<path d="M87.1917 287.164H70V273.196L218.815 126.261C218.815 126.261 223.919 122.769 223.919 112.293V72H290V133.245H249.975C249.975 133.245 241.917 132.977 238.156 136.469L87.1917 287.164Z" fill="white"/>
</svg>
