<svg width="360" height="360" viewBox="0 0 360 360" fill="none" xmlns="http://www.w3.org/2000/svg">
<rect width="360" height="360" rx="82" fill="#3797B6"/>
<path d="M89.626 172.148L75.3047 218.776L62.9816 172.481H41L64.5359 249.417H83.9641L98.9516 202.567L113.606 249.417H133.145L156.903 172.481H135.366L122.82 218.887L108.277 172.148H89.626Z" fill="white"/>
<path d="M158.793 211.117V210.784C158.793 189.024 174.336 171.039 196.539 171.039C222.073 171.039 233.73 190.801 233.73 212.56C233.73 214.225 233.619 216.224 233.397 218.222H180.22C182.329 228.103 189.212 233.21 198.871 233.21C206.198 233.21 211.416 230.878 217.411 225.327L229.845 236.318C222.74 245.2 212.415 250.528 198.649 250.528C175.779 250.528 158.793 234.431 158.793 211.117ZM212.748 204.678C211.416 195.019 205.754 188.469 196.65 188.469C187.658 188.469 181.774 194.908 180.109 204.678H212.748Z" fill="white"/>
<path d="M266.92 118.416H245.271V248.862H266.92V118.416Z" fill="white"/>
<path d="M306 84H284.352V248.862H306V84Z" fill="white"/>
</svg>
