<svg width="360" height="360" viewBox="0 0 360 360" fill="none" xmlns="http://www.w3.org/2000/svg">
<rect width="360" height="360" rx="82" fill="#B31E30"/>
<circle cx="180" cy="180" r="155.455" fill="#4681C7" fill-opacity="0.06"/>
<circle cx="180" cy="180" r="155.205" stroke="#2869BF" stroke-opacity="0.04" stroke-width="0.5"/>
<path d="M136.212 122.239V138.344H139.895C144.544 138.344 146.652 136.083 146.652 129.758V128.768H152.063V153.763H146.652V152.696C146.652 146.422 144.544 144.034 139.895 144.034H136.212V162.044H151.656C158.693 162.044 161.233 157.395 162.071 148.505H167.685V167.785H116.958V162.044H121.25C123.918 162.044 125.34 161.307 125.34 156.659V126.609C125.34 123.256 123.816 122.239 120.234 122.239H118.659C114.976 122.239 113.224 123.103 111.928 126.939L97.9317 167.785H87.2884L79.1853 141.164H79.0331L70.0409 167.785H59.2705L44.7408 124.983C44.1055 122.875 43.0134 122.239 40.0669 122.239H39V116.524H61.4043V122.239H58.1529C56.451 122.239 55.7651 123.256 55.7651 124.272C55.7651 125.034 56.0447 125.999 56.451 127.066L66.1544 155.668H66.3066L75.5528 128.768L74.2573 125.11C73.4699 122.824 71.9204 122.239 69.6596 122.239H67.8307V116.524H90.9717V122.239H86.882C85.3071 122.239 84.6974 122.925 84.6974 123.941C84.6974 124.729 85.0784 125.821 85.3327 126.558L93.8168 155.16H93.9691L103.825 127.218C104.13 126.304 104.409 125.542 104.409 124.576C104.409 123.357 103.825 122.239 101.107 122.239H97.3727V116.524H167.684V134.051H161.918C160.75 126.634 160.089 122.239 149.802 122.239H136.212ZM220.469 167.785V148.505H214.551C213.763 157.319 212.163 162.044 204.136 162.044H192.477V125.796C192.477 122.951 193.645 122.239 197.049 122.239H201.393V116.524H173.07V122.239H177.541C180.64 122.239 181.681 123.256 181.681 125.593V158.615C181.681 161.307 180.208 162.044 178.023 162.044H173.07V167.785H220.469ZM273.076 167.785V148.505H267.132C266.345 157.319 264.694 162.044 256.768 162.044H245.084V125.796C245.084 122.951 246.252 122.239 249.656 122.239H253.974V116.524H225.626V122.239H230.122C233.246 122.239 234.288 123.256 234.288 125.593V158.615C234.288 161.307 232.789 162.044 230.63 162.044H225.626V167.785H273.076ZM312.093 120.385C311.611 119.903 306.886 115 297.665 115C287.987 115 278.207 119.903 278.207 130.419C278.207 139.944 285.803 144.288 294.541 146.168C297.437 146.778 299.164 147.108 301.806 147.667C308.359 149.064 312.728 151.045 312.728 155.592C312.728 159.047 309.071 162.755 301.831 162.755C291.721 162.755 285.726 157.116 284.482 148.505H278.538V167.785H283.796L285.498 163.187C286.742 164.279 291.67 169.309 301.044 169.309C312.982 169.309 322 164 322 153.509C322 143.348 313.592 138.979 303.33 136.922C301.501 136.464 299.824 136.185 297.945 135.753C291.569 134.381 287.479 132.807 287.479 128.234C287.479 124.272 291.67 121.554 297.97 121.554C307.445 121.554 311.103 127.574 313.059 134.051H318.825V116.524H314.659L312.093 120.385ZM76.8229 247.698V241.932H72.9619C69.3802 241.932 68.0593 240.865 68.0593 237.97V223.999H71.2345C76.0355 223.999 78.1184 226.082 78.1184 231.518V233.219H83.5036V209.621H78.1184V210.637C78.1184 214.625 76.6705 218.283 71.6918 218.283H68.0593V202.128H78.1438C89.4983 202.128 90.6922 207.843 91.4543 213.914H96.9919V196.412H48.4746V202.128H53.6058C55.9173 202.128 57.2128 203.169 57.2128 205.024V238.147C57.2128 240.307 56.0444 241.932 53.301 241.932H48.4746V247.698H76.8229ZM291.493 194.863C274.677 194.863 263.551 206.624 263.551 222.043C263.551 237.436 274.677 249.299 291.493 249.299C308.258 249.299 319.409 237.436 319.409 222.043C319.409 206.624 308.258 194.863 291.493 194.863ZM291.493 200.909C303.635 200.909 307.267 210.993 307.267 222.043C307.267 233.092 303.635 243.202 291.493 243.202C279.274 243.202 275.667 233.092 275.667 222.043C275.667 210.993 279.274 200.909 291.493 200.909ZM244.195 200.604C243.077 199.613 238.276 194.863 228.801 194.863C213.636 194.863 204.111 206.421 204.111 222.043C204.111 237.792 213.789 249.299 228.801 249.299C238.454 249.299 243.687 244.879 244.88 243.787L247.751 247.698H253.009V229.917C253.009 226.894 254.127 226.082 257.124 226.082H258.547V220.341H234.872V226.082H238.378C240.918 226.082 242.467 227.225 242.467 229.714V232.711C242.467 238.579 238.86 242.669 231.011 242.669C221.181 242.669 216.253 233.829 216.253 222.043C216.253 210.434 221.181 201.544 230.706 201.544C240.638 201.544 244.017 210.79 245.16 213.914H251.51V196.412H246.1L244.195 200.604ZM201.545 235.658V237.055C201.545 245.895 197.328 249.299 190.927 249.299C183.434 249.299 180.919 245.692 180.919 238.706V236.039C180.919 227.225 177.16 223.668 168.574 223.668H164.51V239.164C164.51 241.221 165.449 241.932 167.685 241.932H173.324V247.698H122.114V241.932H127.804C129.379 241.932 129.963 241.551 129.963 240.637C129.963 240.154 129.811 239.367 129.506 238.528C129.226 237.843 126.814 231.238 126.814 231.238H108.524C108.524 231.238 106.264 237.335 105.883 238.351C105.628 239.113 105.425 239.748 105.425 240.484C105.425 241.577 106.34 241.932 107.864 241.932H113.3V247.698H89.1683V241.932C93.258 241.932 95.8489 241.348 97.2969 237.766L113.656 196.412H123.486L140.251 237.766C141.648 241.399 144.29 241.932 148.38 241.932H150.463C152.673 241.932 153.663 241.221 153.663 239.164V204.922C153.663 202.864 152.876 202.128 150.463 202.128H145.077V196.412H178.76C189.937 196.412 195.195 201.696 195.195 209.698C195.195 219.63 185.314 221.586 180.691 221.84V221.967C186.101 222.373 190.673 224.608 190.673 232.508V235.506C190.673 240.764 191.791 241.932 193.646 241.932C195.475 241.932 196.439 240.484 196.439 237.055V235.658H201.545ZM124.705 225.548L117.796 206.878H117.568L110.658 225.548H124.705ZM184.424 210.028C184.424 205.532 181.198 202.128 174.035 202.128H164.51V217.953H174.035C180.64 217.953 184.424 214.981 184.424 210.028Z" fill="#FFCC02"/>
</svg>
