<svg width="360" height="360" viewBox="0 0 360 360" fill="none" xmlns="http://www.w3.org/2000/svg">
<rect width="360" height="360" rx="82" fill="black"/>
<path d="M260.307 197.306C261.595 196.117 262.586 194.928 262.784 193.045C262.982 191.162 261.892 189.873 260.208 189.18C256.937 187.99 252.874 189.08 250 190.072C248.414 190.666 246.828 191.162 245.144 191.657C241.576 192.648 238.008 193.54 234.44 194.333C230.476 195.126 226.611 195.82 222.647 196.315C218.583 196.811 214.322 197.306 210.159 197.604C204.61 198 199.06 198.198 193.51 198.198C189.744 198.198 185.978 198.099 182.212 198C176.959 197.802 171.707 197.604 166.751 197.207C161.994 196.811 157.237 196.414 152.381 195.82C148.12 195.324 143.858 194.63 139.597 193.838C135.93 193.144 132.263 192.351 128.695 191.36C125.92 190.666 123.145 189.774 120.469 188.783C119.181 188.288 117.992 187.99 116.703 187.99C115.514 187.99 113.928 188.288 113.334 189.477C112.64 190.666 113.433 192.054 114.226 192.846C115.118 193.838 116.208 194.432 117.397 195.027C120.866 196.414 124.434 197.703 128.001 198.694C131.272 199.586 134.641 200.478 138.308 201.27C141.975 202.063 145.84 202.757 149.804 203.352C153.868 203.946 158.03 204.541 162.292 204.937C166.652 205.433 171.112 205.73 175.572 206.027C180.131 206.325 184.789 206.424 189.347 206.523C198.762 206.622 208.078 206.325 217.493 205.631C220.863 205.334 224.232 205.036 227.503 204.64C228.296 204.541 229.089 204.442 229.98 204.343C229.98 206.027 232.161 207.118 233.548 207.514C235.233 208.01 236.918 208.208 238.702 208.109C245.936 207.613 252.973 206.82 259.712 206.027C266.649 205.136 273.19 204.144 279.533 202.955C285.777 201.766 291.723 200.378 297.075 198.892C302.129 197.604 306.985 195.919 311.841 194.036C316.202 192.351 320.067 190.468 323.337 188.585C326.509 186.702 329.185 184.621 331.068 182.639C332.951 180.557 334.239 178.476 334.735 176.296C335.23 174.116 335.032 172.034 334.14 169.854C333.248 167.674 331.563 165.593 329.185 163.511C326.806 161.43 323.734 159.349 319.869 157.367C316.103 155.385 311.643 153.502 306.49 151.718C300.841 149.736 295.093 148.051 289.344 146.664C282.605 144.979 275.767 143.591 268.929 142.501C261.595 141.213 253.865 140.123 245.738 139.231C237.314 138.339 228.89 137.546 220.466 137.05C211.646 136.456 202.727 136.158 193.807 136.059C184.789 135.96 175.671 135.96 166.652 136.257C157.634 136.555 148.615 137.05 139.795 137.744C131.173 138.636 122.551 139.528 114.226 140.618C105.901 141.708 97.9725 142.997 90.4405 144.483C83.404 145.871 76.3676 147.456 69.4302 149.438C62.9884 151.222 57.0421 153.204 51.8886 155.286C46.636 157.367 42.1763 159.547 38.3112 161.926C34.5452 164.205 31.473 166.683 29.2926 169.061C27.1123 171.539 25.7249 174.017 25.2293 176.593C24.7338 179.17 25.0311 181.747 26.2204 184.323C27.4097 186.9 29.4909 189.477 32.464 191.955C35.4372 194.432 39.2032 196.91 43.762 199.189C48.3208 201.568 53.7716 203.748 59.9161 205.928C66.0606 208.01 72.8989 209.992 80.4309 211.875C87.9629 213.659 96.0895 215.343 104.811 216.83C113.532 218.316 122.749 219.605 132.362 220.596C141.975 221.686 151.985 222.479 162.292 223.074L166.751 223.371C168.139 223.47 169.427 223.272 170.716 222.677C171.905 222.182 173.094 221.191 173.193 219.803C173.292 218.416 172.202 217.325 171.013 216.731C169.725 216.136 168.535 215.839 167.148 215.74C161.994 215.442 156.742 215.046 151.588 214.55C145.047 213.956 138.705 213.163 132.461 212.271C126.515 211.478 120.668 210.487 114.82 209.298C109.568 208.307 104.315 207.118 99.0626 205.829C95.1975 204.838 91.4315 203.748 87.6656 202.559C78.0524 199.387 70.3222 195.919 64.8714 192.054C62.4929 190.369 60.6099 188.684 59.1233 186.999C57.6367 185.315 56.6457 183.531 56.1501 181.846C55.6546 180.161 55.5555 178.377 55.9519 176.593C56.3483 174.908 57.2403 173.224 58.5287 171.539C59.817 169.854 61.6009 168.268 63.6821 166.584C65.7633 164.998 68.3401 163.511 71.3132 161.926C74.5837 160.34 77.8541 158.853 81.3228 157.664C83.404 156.871 85.5843 156.178 87.6656 155.484C91.9271 154.196 96.2877 153.006 100.648 151.916C103.126 151.321 105.703 150.826 108.379 150.231C113.235 149.24 118.289 148.348 123.641 147.555C128.992 146.763 134.443 146.069 140.092 145.474C145.642 144.88 151.39 144.483 157.237 144.087C163.085 143.789 168.932 143.492 174.878 143.393C180.725 143.294 186.572 143.294 192.42 143.393C198.267 143.492 204.015 143.69 209.664 143.988C215.313 144.285 220.863 144.681 226.214 145.276C231.566 145.772 236.819 146.366 241.873 147.159C246.828 147.853 251.684 148.646 256.243 149.538C265.262 151.321 273.289 153.304 280.029 155.682C286.669 157.961 292.119 160.538 296.084 163.214C299.949 165.89 302.426 168.665 303.417 171.44C304.309 174.215 303.814 176.99 301.832 179.666C299.85 182.341 296.48 184.918 291.822 187.297C287.263 189.675 281.416 191.855 274.578 193.738C270.118 195.324 265.262 196.414 260.307 197.306Z" fill="#EEB111"/>
<path d="M113.038 173.323C111.551 173.917 110.164 174.314 108.578 174.314C107.29 174.314 105.209 174.116 104.515 172.827C103.722 171.44 104.911 169.854 105.902 168.962C106.993 167.872 108.281 167.079 109.668 166.485C128.895 157.367 155.158 154.196 175.97 154.196H178.249C185.88 154.295 193.412 154.592 200.647 155.187C207.287 155.781 213.828 156.574 220.369 157.763C226.216 158.853 231.469 160.142 235.928 161.628C240.289 163.016 243.758 164.602 246.433 166.286C249.01 167.872 250.695 169.656 251.488 171.341C251.785 172.034 251.983 172.728 251.983 173.422C251.983 174.413 251.686 175.404 250.992 176.395C249.902 177.981 248.019 179.566 245.244 180.954C242.667 182.341 239.298 183.63 235.235 184.72C231.369 185.81 227.009 186.702 222.153 187.495C217.197 188.288 212.242 188.783 207.287 189.081C204.809 189.279 202.233 189.378 199.656 189.477C197.674 189.477 195.592 189.576 193.61 189.576C193.115 189.576 192.718 189.576 192.223 189.576C189.943 189.576 187.664 189.477 185.385 189.378C183.204 189.279 181.024 189.081 178.943 188.882C175.078 188.585 171.312 187.99 167.546 187.297C164.275 186.702 161.302 185.909 158.725 185.116C156.347 184.324 154.464 183.432 152.977 182.54C151.689 181.648 150.797 180.756 150.401 179.765C150.103 178.873 150.202 177.981 150.797 177.188C151.293 176.395 152.284 175.602 153.572 174.909C154.761 174.215 156.347 173.62 158.131 173.125C160.014 172.629 161.798 172.233 163.78 171.935C165.762 171.638 167.645 171.44 169.627 171.341C172.501 171.143 175.375 171.143 178.15 171.341C180.231 171.44 182.213 171.737 183.997 171.935C186.078 172.233 187.961 172.629 189.646 173.125C191.232 173.521 192.718 174.116 194.205 174.909C195.493 175.602 196.484 176.395 196.98 177.188C197.575 178.08 197.674 178.972 197.376 179.765C197.178 180.359 196.782 180.855 196.187 181.449C196.98 181.449 197.872 181.35 198.665 181.251C201.241 181.053 203.719 180.558 206.197 179.963C207.386 179.666 208.476 179.269 209.467 178.873C210.458 178.476 211.35 178.08 212.143 177.584C212.936 177.089 213.63 176.593 214.125 176.098C214.621 175.602 215.017 175.008 215.215 174.413C215.413 173.818 215.413 173.224 215.314 172.629C215.116 171.935 214.72 171.341 214.224 170.845C213.53 170.151 212.837 169.557 212.044 169.061C210.954 168.368 209.864 167.773 208.674 167.377C207.188 166.782 205.701 166.286 204.116 165.791C202.431 165.295 200.548 164.899 198.566 164.502C196.385 164.106 194.205 163.71 192.025 163.412C186.772 162.818 181.42 162.421 176.069 162.52C155.95 162.52 131.769 165.394 113.038 173.323Z" fill="#EEB111"/>
</svg>
