<svg width="360" height="360" viewBox="0 0 360 360" fill="none" xmlns="http://www.w3.org/2000/svg">
<rect width="360" height="360" rx="82" fill="#EDAC09"/>
<circle cx="180" cy="180" r="155.455" fill="#4681C7" fill-opacity="0.06"/>
<circle cx="180" cy="180" r="155.205" stroke="#2869BF" stroke-opacity="0.04" stroke-width="0.5"/>
<path d="M32 135.103L53.5549 225.943H102.781L119.366 170.713H119.746L136.198 225.943H185.049L206.859 135.103L172.038 135.104L159.923 191.846L159.54 191.848L142.575 135.105L99.3395 135.104L82.1229 191.847L81.7384 191.849L69.4979 135.106L32 135.105V135.103Z" fill="#006838"/>
<path d="M175.692 135.159H224.924L241.505 190.393H241.89L258.336 135.159H307.188L329 226H294.178L282.064 169.257H281.677L264.72 226H221.483L204.262 169.257H203.884L191.633 226H154.14" fill="#006838"/>
</svg>
