<svg width="360" height="360" viewBox="0 0 360 360" fill="none" xmlns="http://www.w3.org/2000/svg">
<rect width="360" height="360" rx="82" fill="#1478C7"/>
<path fill-rule="evenodd" clip-rule="evenodd" d="M200.676 187.502C121.627 219.872 56.7587 227.792 55.7887 205.194C55.5278 199.179 59.8564 191.606 67.7814 183.124H56.2462C39.0511 199.593 30.1698 213.704 32.3157 223.429C38.4288 251.118 131.68 233.003 242.369 183.124H211.062C207.626 184.607 204.171 186.073 200.676 187.502Z" fill="white"/>
<path fill-rule="evenodd" clip-rule="evenodd" d="M318.66 110.549C312.826 83.3413 225.354 98.4677 118.312 143.765L123.052 146.268C188.401 120.249 244.891 104.398 274.514 105.58C309.865 106.988 298.234 132.304 251.599 169.112H273.7C304.356 144.988 321.515 123.851 318.66 110.549Z" fill="white"/>
<path fill-rule="evenodd" clip-rule="evenodd" d="M327.524 137.684C326.449 133.794 323.571 130.843 319.123 128.784C316.332 134.205 311.889 140.199 305.936 146.653C305.186 152.52 300.235 160.146 291.473 169.112H312.928C324.33 156.411 329.702 145.555 327.524 137.684Z" fill="white"/>
<path fill-rule="evenodd" clip-rule="evenodd" d="M138.532 168.381L143.199 170.849C201.278 147.99 253.321 133.566 282.596 133.559C284.641 130.695 286.238 128.016 287.363 125.538C252.698 128.038 198.972 143.138 138.532 168.381Z" fill="white"/>
<path fill-rule="evenodd" clip-rule="evenodd" d="M276.622 183.124C259.116 192.449 239.944 201.589 219.784 210.046C148.981 239.759 88.958 251.538 71.5935 240.704C56.8691 241.993 47.8277 240.462 43.0553 239.073C42.1905 241.099 41.5911 243.034 41.2983 244.868C36.4527 275.288 114.742 266.495 216.146 225.236C247.737 212.387 277.844 197.9 304.465 183.124H276.622Z" fill="white"/>
<path fill-rule="evenodd" clip-rule="evenodd" d="M112.263 183.124H102.654C88.3738 192.684 76.1111 202.025 66.333 210.788C68.5247 212.091 73.1781 213.251 76.1111 213.452C84.004 204.356 96.4314 193.97 112.263 183.124Z" fill="white"/>
</svg>
