<svg width="360" height="360" viewBox="0 0 360 360" fill="none" xmlns="http://www.w3.org/2000/svg">
<rect width="360" height="360" rx="82" fill="#007DC6"/>
<circle cx="180" cy="180" r="155.455" fill="#4681C7" fill-opacity="0.06"/>
<circle cx="180" cy="180" r="155.205" stroke="#2869BF" stroke-opacity="0.04" stroke-width="0.5"/>
<path d="M179.98 23C168.024 23 158.521 29.6767 158.521 37.8048L165.782 120.023C166.583 124.977 172.651 128.798 179.987 128.798C187.337 128.788 193.383 124.971 194.202 120.023L201.497 37.8048C201.497 29.6774 191.968 23.0007 179.994 23.0007L179.98 23ZM61.6533 88.9519C55.4462 89.0992 48.3951 93.7986 43.9099 101.575C37.9115 111.93 38.9744 123.502 45.9929 127.562L120.818 162.408C125.492 164.146 131.841 160.827 135.517 154.489C135.518 154.488 135.517 154.486 135.517 154.485C139.211 148.116 138.925 140.955 135.037 137.778L67.4564 90.3778C65.7012 89.3613 63.7268 88.9038 61.6577 88.9529L61.6533 88.9519ZM298.306 88.9519C296.238 88.9028 294.266 89.3602 292.515 90.3768L224.925 137.777C221.06 140.954 220.774 148.115 224.448 154.484L224.452 154.488C228.142 160.826 234.47 164.145 239.144 162.407L314.003 127.562C321.05 123.503 322.06 111.931 316.102 101.576C311.597 93.7991 304.534 89.0999 298.328 88.9526L298.306 88.9519ZM123.613 197.428C122.645 197.415 121.707 197.564 120.828 197.895L46.0031 232.699C38.9848 236.776 37.922 248.353 43.9202 258.719C49.9005 269.053 60.4416 273.967 67.4616 269.914L135.047 222.55C138.936 219.335 139.223 212.175 135.528 205.812L135.558 205.826C132.571 200.643 127.808 197.484 123.614 197.427L123.613 197.428ZM236.379 197.428C232.189 197.485 227.436 200.644 224.441 205.827L224.469 205.813C220.792 212.176 221.076 219.336 224.942 222.551L292.531 269.915C299.538 273.968 310.09 269.055 316.097 258.72C322.055 248.353 321.045 236.777 313.997 232.7L239.162 197.896C238.283 197.565 237.347 197.416 236.38 197.429L236.379 197.428ZM179.969 231.502C172.646 231.511 166.592 235.316 165.792 240.256L158.531 322.471C158.531 330.613 168.034 337.276 179.99 337.276C191.968 337.276 201.489 330.613 201.489 322.471L194.211 240.256C193.393 235.316 187.346 231.512 179.996 231.502H179.969H179.969Z" fill="#FFC220"/>
</svg>
