<svg width="360" height="360" viewBox="0 0 360 360" fill="none" xmlns="http://www.w3.org/2000/svg">
<rect width="360" height="360" rx="82" fill="#0D0D0D"/>
<path d="M213.292 125.188H204.314L194.261 199.859H193.936L182.927 125.188H134.284L123.247 199.859H122.929L112.904 125.188H70.8418L96.4824 243.851H147.453L158.452 166.978H158.787L169.782 243.851H220.753L223.307 231.984C216.789 225.06 213.292 215.782 213.292 204.068V125.188Z" fill="#FDDF12"/>
<path d="M213.305 125.186V204.066C213.305 215.78 216.801 225.058 223.319 231.981L246.378 125.186H213.305Z" fill="white"/>
<path d="M278.995 125.186V202.104C278.995 211.467 274.553 215.113 269.626 215.113C264.698 215.113 260.256 211.467 260.256 202.104V125.186H250.228L226.541 234.933C236.151 242.928 250.702 247 269.626 247C305.448 247 325.998 232.679 325.998 204.066V125.186H278.995Z" fill="#FDDF12"/>
<path d="M39.9999 125.188H33L58.1905 243.851H65.1973L39.9999 125.188Z" fill="#FDDF12"/>
<path d="M77.2886 243.849H84.2919L59.0979 125.186H52.1016L77.2886 243.849Z" fill="#FDDF12"/>
</svg>
