<svg width="360" height="360" viewBox="0 0 360 360" fill="none" xmlns="http://www.w3.org/2000/svg">
<rect width="360" height="360" rx="82" fill="#008147"/>
<path d="M180.053 50L54 267.988L140.317 268.007C140.317 268.007 158.803 269.061 162.554 252.412C165.918 237.446 171.439 201.857 171.439 201.857H167.552C167.552 201.857 165.338 208.151 164.13 210.81C163.279 212.686 159.238 222.025 139.872 221.658C139.872 221.658 132.476 221.619 129.247 221.658L179.908 134.442L230.434 221.667C230.434 221.667 220.698 221.716 217.382 221.667C209.038 221.551 198.432 219.666 194.497 207.948C193.066 203.714 192.225 201.857 192.274 201.857H188.377L196.624 250.092C196.624 250.092 199.312 268.017 218.136 268.017C231.807 268.026 306 268.036 306 268.036L180.053 50Z" fill="white"/>
</svg>
