<svg width="360" height="360" viewBox="0 0 360 360" fill="none" xmlns="http://www.w3.org/2000/svg">
<rect width="360" height="360" rx="82" fill="black"/>
<path d="M120.393 110.061C120.314 109.758 117.646 110.604 117.835 112.086C118.367 114.731 118.614 118.749 117.643 121.017C115.399 126.228 111.67 130.795 108.92 135.943C97.0016 158.244 82.8305 171.22 69.1921 179.976C68.1727 180.632 63.0244 182.45 62.0917 180.565C59.2444 174.841 72.1501 161.943 73.9914 156.763C74.0528 156.025 74.1103 155.276 74.1724 154.524C73.9179 153.983 73.6558 153.434 73.4018 152.891C72.6744 152.255 71.5793 152.193 70.56 152.277C70.3975 152.307 70.2219 152.33 70.0464 152.355C69.8709 152.409 69.6815 152.468 69.4976 152.525C65.8149 153.972 63.8709 158.079 60.9237 160.667C57.1598 163.952 52.993 167.034 48.8723 169.665C46.5091 171.171 42.9562 173.829 41.7179 174.778C40.4794 175.727 36.3046 178.688 33.4764 177.842C32.0784 177.431 31.9216 175.635 32.2326 174.397C33.3304 169.914 38.1784 165.891 41.4203 162.776C44.8354 159.48 48.0503 154.975 50.4162 150.968C51.4329 149.218 52.8822 147.369 52.8417 145.244C52.6631 136.678 42.0612 147.701 40.5659 150.132C39.9466 151.084 39.4492 151.614 38.3433 153.204C33.3087 161.459 17.0691 177.728 29.7152 185.891C31.5998 187.024 34.3551 187.47 38.9193 184.775C42.356 182.744 53.1688 175.135 56.4378 175.881C55.9427 175.92 56.435 176.99 56.2945 177.579C56.1542 178.166 55.8079 180.724 55.7534 181.27C55.1855 186.862 59.6227 186.013 63.2432 187.132C65.3847 187.41 74.6104 186.013 86.0019 175.27C90.6769 170.868 95.1275 167.137 101.655 158.79C109.35 148.942 106.716 149.962 113.776 140.174C115.501 137.502 117.221 134.825 118.938 132.151C121.404 128.601 124.773 124.678 125.898 120.587C126.92 116.842 124.346 110.323 120.393 110.06" fill="white"/>
<path d="M115.389 199.629C112.436 219.197 105.955 231.821 86.6007 238.813C85.3028 239.303 80.7602 240.565 80.1005 240.592C70.1231 241.366 62.7604 241.579 55.3517 236.539C53.7889 235.477 52.1908 231.935 52.5315 229.717C53.5211 223.023 58.9479 218.642 63.6689 213.951C70.2799 207.359 77.1209 201.302 84.3889 195.748C88.7773 192.479 93.1603 189.194 97.5487 185.925C99.0413 185.809 100.526 186.369 102.245 186.123C105.663 185.628 112.588 182.757 115.256 180.72C115.381 180.369 117.293 179.72 117.536 180.545C117.739 181.545 117.928 182.54 118.125 183.538C118.095 189.211 116.184 194.305 115.389 199.629V199.629ZM237.054 186.823C238.584 186.561 260.191 180.65 270.141 181.694C274.67 181.694 288.027 185.839 292.308 186.088C295.861 186.507 308.734 186.778 309.007 186.778C313.252 186.783 317.746 187.073 320.512 183.184C321.107 182.333 320.406 181.654 319.63 181.405C316.018 180.215 309.023 180.605 307.174 180.913C289.888 182.257 285.237 178.079 268.957 176.922C264.582 176.609 237.475 181.822 236.637 181.979C236.637 181.979 233.179 182.671 229.577 183.636C225.976 184.607 225.705 181.148 225.559 180.04C225.421 178.934 226.952 171.979 227.366 170.352C228.193 167.029 226.533 164.674 225.008 164.533C223.348 164.386 220.165 166.474 218.919 167.583C217.672 168.689 208.538 174.916 205.91 177.133C203.274 179.348 202.446 176.441 203.141 175.335C203.831 174.226 205.353 170.211 206.186 167.859C207.016 165.504 205.353 163.981 203.969 163.292C202.584 162.597 199.68 164.398 198.85 165.231C198.017 166.058 193.586 169.105 190.684 171.182C187.775 173.256 180.026 177.544 176.559 179.21C173.101 180.867 173.101 176.717 173.377 174.778C173.658 172.845 174.477 169.735 174.904 166.334C175.456 161.907 171.162 162.875 169.505 163.708C167.839 164.533 154.414 173.948 152.616 175.335C150.818 176.717 150.818 174.364 150.956 173.532C151.094 172.701 151.37 171.041 152.892 167.721C154.414 164.398 153.17 163.43 152.892 161.907C152.616 160.382 149.296 161.077 146.665 162.18C145.21 162.797 129.206 168.58 128.614 168.716C128.111 168.762 127.597 168.797 127.091 168.834C127.089 168.758 126.815 168.683 126.808 168.345C126.754 166.587 126.005 165.273 124.023 165.557C119.867 166.122 117.615 169.902 114.578 172.338C110.319 175.756 105.953 179.441 101.059 181.821C99.5607 182.619 99.8473 179.157 100.91 177.887C107.61 169.894 105.06 172.622 108.246 169.21C110.647 166.106 113.886 162.707 115.103 159.054C116.201 155.704 114.559 150.258 110.985 149.831C109.665 149.77 108.692 150.88 108.7 151.837C108.873 154.19 108.532 156.975 107.589 159.049C105.452 163.737 102.408 168.142 98.9767 172.179C94.015 178.019 93.7501 182.943 93.7501 182.943C93.7501 182.943 86.0981 187.994 83.1156 190.611C78.2919 194.597 73.4573 198.582 68.6228 202.571C60.2812 210.098 39.7424 224.002 46.5643 237.527C48.0055 240.395 50.3985 242.961 53.3268 244.527C57.8099 246.925 63.7422 249.516 69.2852 249.086C69.6477 249.194 70.1478 249.261 70.5615 249.264C74.9364 249.341 79.7357 248.774 83.7158 247.501C110.117 239.033 126.729 210.217 124.545 182.043C124.421 180.456 125.313 178.587 126.505 177.519C129.212 175.094 139.749 168.429 143.066 167.858C147.082 167.166 145.281 173.255 144.727 175.194C144.175 177.132 142.512 179.901 142.236 182.256C141.96 184.606 144.37 185.652 146.111 186.266C148.466 187.096 151.924 184.052 153.036 183.084C154.139 182.113 164.241 173.396 166.044 172.146C167.845 170.903 168.121 173.671 167.845 174.915C167.567 176.164 166.736 179.485 166.596 181.561C166.461 183.635 166.877 185.85 168.672 186.958C170.47 188.067 172.271 187.237 174.348 185.988C176.427 184.747 189.433 176.164 190.541 175.61C191.653 175.058 194.835 172.566 196.912 172.011C198.986 171.454 198.85 173.809 197.882 175.886C197.525 176.651 196.636 180.593 196.22 182.532C195.803 184.468 195.665 186.545 198.018 188.481C199.837 189.981 204.107 185.85 205.215 184.882C206.324 183.917 215.869 175.334 217.672 174.226C219.468 173.117 220.303 175.837 219.614 178.379C218.778 181.424 218.6 184.273 219.152 185.312C220.395 187.664 222.834 188.908 228.607 188.343C229.583 188.251 237.054 186.823 237.054 186.823" fill="white"/>
<path d="M326.564 184.277C327.169 186.03 328.194 187.384 331.071 187.92C332.385 188.163 334.051 187.376 334.283 186.514C334.595 185.375 335.203 184.786 334.935 183.347C334.597 181.541 333.299 180.241 330.422 179.705C329.113 179.465 327.445 180.249 327.218 181.114C326.907 182.25 326.082 182.885 326.563 184.277" fill="white"/>
</svg>
