<svg width="360" height="360" viewBox="0 0 360 360" fill="none" xmlns="http://www.w3.org/2000/svg">
<rect width="360" height="360" rx="82" fill="#D73F37"/>
<path fill-rule="evenodd" clip-rule="evenodd" d="M320.271 243.281C309.587 256.636 293.559 269.993 271.52 284.684C200.061 332.774 107.898 332.774 69.8289 284.684C54.4672 264.648 49.1239 240.604 53.1331 215.224C59.8105 173.823 91.868 132.413 143.292 98.3529C159.32 87.6686 172.009 87.6686 179.354 89.6731C188.704 92.3415 194.05 98.3529 196.054 102.366C199.393 109.037 208.073 125.733 175.347 151.781C109.234 202.539 86.5225 248.624 110.568 281.339C135.28 314.74 216.089 313.397 270.183 278C286.879 266.652 301.573 257.304 315.598 240.602C316.93 238.606 318.937 238.606 319.603 239.27C320.941 240.604 321.61 242.608 320.271 243.281Z" fill="white"/>
<path fill-rule="evenodd" clip-rule="evenodd" d="M37.7699 118.391C48.4543 105.034 64.482 91.6743 85.8551 76.9808C157.984 28.8956 250.147 28.8956 288.212 77.649C303.574 97.0198 308.919 121.061 304.912 147.11C298.235 187.842 266.177 229.252 214.753 263.312C198.726 273.994 186.037 273.994 178.689 271.996C169.343 269.994 163.998 263.312 161.993 259.976C157.988 252.628 149.972 235.932 182.7 210.552C248.813 159.126 271.521 113.05 247.479 80.9921C222.767 46.93 141.959 48.9346 87.8641 84.3308C71.1638 95.0152 56.4703 105.036 42.4472 121.059C40.4427 123.064 39.1085 123.064 37.7699 122.4C37.104 121.059 36.4358 119.725 37.7699 118.391Z" fill="white"/>
</svg>
