<svg width="360" height="360" viewBox="0 0 360 360" fill="none" xmlns="http://www.w3.org/2000/svg">
<rect width="360" height="360" rx="82" fill="#8E0027"/>
<path d="M93.7476 70.9361L49.312 115.372L113.594 179.965L49 244.497L93.7476 288.932H164.957L121.083 244.871L185.49 180.277L120.147 114.997L164.208 70.9361H93.7476Z" fill="white" stroke="white" stroke-width="4.2314"/>
<path d="M168.639 70L189.234 90.5951L224.058 125.607L278.729 70.9362L209.018 70.749L189.234 90.5951" fill="white"/>
<path d="M168.639 70L189.234 90.5951L224.058 125.607L278.729 70.9362L209.018 70.749L189.234 90.5951" stroke="white" stroke-width="4.40677"/>
<path d="M169.225 289.557L225.019 233.763L281.999 290.743L210.602 290.556L189.196 269.399" fill="white"/>
<path d="M169.225 289.557L225.019 233.763L281.999 290.743L210.602 290.556L189.196 269.399" stroke="white" stroke-width="4.40677"/>
</svg>
