<svg width="360" height="360" viewBox="0 0 360 360" fill="none" xmlns="http://www.w3.org/2000/svg">
<rect width="360" height="360" rx="82" fill="#5D5D5F"/>
<path d="M100 52.0448C120.192 51.9991 140.384 52.0448 160.577 52.0105C189.74 51.702 219.348 58.1812 244.705 72.8882C268.132 86.3153 287.181 107.49 297.157 132.665C308.07 160.25 309.019 191.538 300.437 219.89C295.832 207.617 287.672 196.761 277.136 188.967C262.075 177.654 244.02 171.346 226.09 166.227C209.737 161.53 192.882 158.913 176.541 154.217C158.943 149.28 141.127 143.669 125.86 133.339C118.238 128.162 111.587 121.363 107.394 113.101C101.988 102.736 100.64 90.8863 100 79.3789V52.0448Z" fill="white"/>
<path d="M100 175.378C113.199 183.274 127.083 190.131 141.63 195.193C169.399 205.158 198.984 208.54 226.856 218.139C238.603 222.265 250.899 226.915 259.458 236.354C267.412 245.085 268.543 257.849 266.989 269.048C264.406 284.875 252.259 297.434 238.409 304.541C217.36 315.409 193.019 317.911 169.65 316.734C153.469 315.146 137.688 310.598 122.558 304.77C114.799 301.582 106.994 298.302 100 293.628V175.378Z" fill="white"/>
</svg>
