<svg width="360" height="360" viewBox="0 0 360 360" fill="none" xmlns="http://www.w3.org/2000/svg">
<rect width="360" height="360" rx="82" fill="#D40E2A"/>
<path d="M182.649 141.19C190.52 133.049 208.801 110.466 229.109 72.1674C232.489 65.5958 235.546 64 240.118 64H277.824C281.197 64 285.264 65.6294 283.062 72.1674C268.114 116.6 233.903 155.512 215.029 175.657C235.64 195.177 272.181 241.387 289.358 286.662C290.906 290.735 290.146 295.408 281.527 295.408H236.495C231.816 295.408 228.193 294.95 225.062 287.254C213.885 259.419 196.446 230.237 176.515 211.047C154.774 234.129 138.196 262.59 127.033 287.254C124.306 293.294 121.579 295.408 115.633 295.408H74.3316C71.571 295.408 68.7631 292.169 70.5745 287.214C82.8558 253.514 107.331 211.573 142.331 180.041C114.866 146.792 88.3771 106.285 77.9338 72.1674C76.365 67.0367 79.1054 64 82.9164 64H131.429C136.675 64 139.415 66.1344 142.007 72.1674C153.939 99.9757 170.247 126.464 182.649 141.19Z" fill="white"/>
</svg>
