<svg width="360" height="360" viewBox="0 0 360 360" fill="none" xmlns="http://www.w3.org/2000/svg">
<rect width="360" height="360" rx="82" fill="#007FA8"/>
<path d="M207.353 217.126H206.492C200.052 217.126 196.448 207.5 190.054 190.109L179.475 160.837C169.524 133.588 159.434 121.335 136.369 121.335C117.002 121.335 107.051 133.006 95.077 149.258L86.3348 161.023L58.202 123.195H28.0697L71.385 179.972L54.4588 202.664C45.8097 214.312 40.4621 217.777 33.0686 217.777H28V239.004H38.7881C51.2735 239.004 59.9459 234.773 67.3627 224.333L85.8932 198.34L115.63 239.027H145.949L100.843 179.437L112.143 164.533C122.35 150.839 127.209 144.329 135.858 144.329C145.019 144.329 149.576 152.816 157.341 172.602L170.222 205.547C177.616 224.775 184.87 239.004 197.96 239.004H199.634L192.961 255.744C187.776 268.857 182.847 276.948 169.199 276.948H163.224V298.548C163.224 298.548 167.897 298.548 171.896 298.548C192.147 298.548 206.585 288.55 216.002 262.371L266.013 123.195H238.95L207.353 217.126ZM278.219 203.919C278.219 228.728 288.38 239.004 309.491 239.004H321V217.196H315.583C307.817 217.196 303.493 213.359 303.493 203.919V61H278.219V203.919Z" fill="white"/>
</svg>
