<svg width="360" height="360" viewBox="0 0 360 360" fill="none" xmlns="http://www.w3.org/2000/svg">
<rect width="360" height="360" rx="82" fill="#ED1C24"/>
<path fill-rule="evenodd" clip-rule="evenodd" d="M58.7928 302.659L164.208 246.881C170.472 247.484 176.496 247.847 182.76 247.847C256.247 247.847 316 210.258 316 164.245C316 118.219 256.247 81 182.76 81C109.39 81 50 118.219 50 164.245C50 195.564 77.3509 222.909 117.826 237.006L58.7928 302.659Z" fill="white"/>
<path fill-rule="evenodd" clip-rule="evenodd" d="M136.375 126.294H110.477L111.437 133.641H113.966C117.097 133.641 118.187 134.003 118.543 134.003C119.147 134.366 119.147 134.73 119.147 135.087C119.147 135.449 119.147 136.894 117.824 139.663C116.741 141.111 115.295 143.523 113.609 146.653C113.609 146.653 109.751 152.678 106.859 156.892C104.09 150.868 98.0661 137.862 98.0661 137.862C97.7029 137.499 97.7029 137.135 97.463 136.176C97.0998 135.087 96.7432 134.73 96.7432 134.73C96.7432 134.366 96.7432 134.366 96.7432 134.366C96.7432 134.366 96.7432 134.366 97.0998 134.366C97.0998 134.003 98.0661 134.003 101.321 133.641H104.453L103.364 126.294H71.4414L72.7642 133.284L74.9365 133.641C78.0684 134.003 79.1512 134.73 79.5144 134.73C79.5144 134.73 80.2342 135.449 81.9201 139.308C81.9201 139.308 94.934 166.651 95.6538 168.097C95.2972 169.543 92.8851 190.624 92.8851 190.624C92.5219 193.036 91.8021 194.839 90.7193 195.202C90.3561 195.565 89.0334 196.168 85.4152 196.168L82.2831 196.531L83.3661 203.638H120.956L119.51 196.531L117.461 196.168C112.883 196.168 111.074 195.928 110.477 195.565C110.114 195.565 109.751 194.839 109.388 193.756C109.388 193.4 109.388 192.673 109.388 191.707C109.388 190.987 109.388 189.541 109.751 188.095C109.751 188.095 111.437 171.593 111.8 168.461C112.52 167.378 130.475 138.945 130.475 138.945C132.161 136.176 133.243 135.087 133.607 134.73C133.963 134.366 135.053 134.003 137.095 133.641L139.987 133.284L138.541 126.294H136.375Z" fill="#ED1C24"/>
<path fill-rule="evenodd" clip-rule="evenodd" d="M145.17 149.546L137.097 151.231L126.981 153.397L127.948 159.667H130.477C132.882 159.667 133.965 159.667 134.328 160.024C134.328 160.024 134.691 160.387 134.691 160.751V161.106C134.691 161.106 134.691 161.833 134.691 162.197L132.519 191.953V194.119C132.519 194.838 132.519 195.564 132.519 196.531C133.608 200.745 136.014 202.911 137.823 203.994C139.269 204.597 140.955 204.96 142.401 204.96C148.062 204.96 152.88 201.465 157.101 194.838C157.821 193.755 158.904 191.953 159.987 190.26C159.63 191.35 159.63 192.309 159.63 193.399V193.755C159.63 194.838 159.987 196.167 159.987 197.25C160.35 199.779 161.679 201.828 163.119 202.911C164.928 204.357 166.977 204.96 169.143 204.96C173.001 204.96 176.852 202.548 179.984 197.613C181.794 195.564 183.123 193.036 184.206 190.26L185.288 188.094L179.265 184.243L175.413 190.26C174.324 191.706 173.967 192.309 173.967 192.309L173.72 192.673C173.72 191.953 173.72 191.706 173.72 191.706L177.215 153.761L177.579 150.512H164.208L163.482 153.04C162.399 158.941 161.679 163.156 161.076 166.048C159.987 170.263 158.904 174.12 157.101 177.616C155.409 181.468 153.243 185.326 151.194 188.821C148.425 193.036 146.616 193.399 146.253 193.399V193.036V192.309V190.623L149.391 153.761V153.04C149.391 151.958 149.028 151.231 148.425 150.512C146.979 149.182 145.896 149.546 145.17 149.546Z" fill="#ED1C24"/>
<path fill-rule="evenodd" clip-rule="evenodd" d="M203.234 149.546C195.764 151.231 190.227 152.677 186.609 153.04L183.84 153.761L184.923 160.387H187.335C190.584 160.387 191.55 160.387 191.913 160.751C191.913 160.751 192.27 160.751 192.27 161.106V161.47C192.27 161.833 192.27 162.436 192.27 162.436L188.055 203.637H201.788L202.152 201.109C203.234 195.201 203.837 190.623 204.2 187.492C205.284 182.55 206.367 178.336 207.696 175.443C209.142 172.311 211.307 168.817 213.714 165.327C216.851 161.106 218.297 160.751 219.017 160.751C219.017 161.106 219.017 161.106 219.017 161.47V161.833V162.436C219.017 162.799 215.521 203.637 215.521 203.637H229.14L229.495 201.109C230.222 192.309 230.943 187.128 231.305 184.599C231.668 182.194 232.75 179.062 234.073 175.443C235.519 171.956 237.569 168.46 240.098 165.327C241.784 162.436 243.955 161.106 245.401 160.751C245.401 161.106 245.401 161.106 245.401 161.106V162.436L242.873 192.673V194.838C242.873 195.564 242.873 196.167 242.873 196.887C243.593 200.142 245.039 202.191 246.724 203.637C248.17 204.357 249.857 204.96 251.302 204.96C254.798 204.96 257.69 203.637 260.459 200.745C262.871 198.333 265.399 195.201 267.449 191.35L267.806 190.623L268.895 188.458L262.624 184.243L258.409 190.623L258.047 191.35C257.69 191.706 257.327 192.309 256.963 192.673C256.963 192.673 256.963 192.673 256.963 193.036C257.327 189.54 259.375 165.684 259.375 165.684V165.327C259.375 163.52 259.375 162.436 259.375 161.47C259.375 160.024 259.375 159.303 259.375 158.941C258.65 155.809 257.327 153.397 255.16 151.594C253.112 150.149 250.939 149.546 248.534 149.546C243.593 149.546 239.015 152.677 234.073 159.303C233.717 160.024 233.355 160.387 232.75 161.106C232.75 160.387 232.75 159.667 232.75 158.941C232.025 155.446 230.222 152.677 227.81 151.231C226.008 150.149 224.314 149.546 222.15 149.546C217.572 149.546 212.993 152.315 208.415 158.578C207.696 159.667 207.092 160.751 206.367 161.833C206.73 157.618 207.449 151.231 207.449 151.231L204.564 149.182L203.234 149.546Z" fill="#ED1C24"/>
<path fill-rule="evenodd" clip-rule="evenodd" d="M278.412 129.424C277.33 131.596 276.966 135.448 276.966 140.389V150.148C276.966 150.867 276.966 154 276.609 164.602L276.247 183.277L278.412 183.88L282.99 184.599L286.848 167.014C288.171 159.667 288.898 156.891 289.255 155.809C291.783 146.291 293.113 140.753 293.476 138.944C293.831 136.532 293.831 134.365 293.476 132.317C293.113 130.507 292.147 128.705 290.701 127.018C289.255 125.572 287.205 124.847 285.039 124.847C282.271 124.847 279.742 126.293 278.412 129.424ZM271.669 190.623C270.339 192.309 269.619 194.481 269.982 196.531C270.703 199.416 271.669 201.465 273.834 202.911C275.52 204.357 277.693 204.96 279.742 204.96C282.271 204.96 284.32 203.994 285.766 202.191C287.205 200.382 287.932 198.333 287.205 195.928C286.848 193.399 285.766 191.706 283.717 189.904C281.908 188.458 279.742 187.731 277.693 187.731C274.561 187.731 272.388 189.177 271.669 190.623Z" fill="#ED1C24"/>
</svg>
