<svg width="360" height="360" viewBox="0 0 360 360" fill="none" xmlns="http://www.w3.org/2000/svg">
<rect width="360" height="360" rx="82" fill="#00A4E6"/>
<path d="M179.911 25C133.924 25 95.0225 40.6217 67.7341 67.9121C40.4456 95.2025 25 134.109 25 180.089C25 265.652 94.3545 335 179.911 335C265.474 335 335 265.652 335 180.089C335 94.5329 265.474 25 179.911 25ZM179.911 34.259C219.36 34.259 255.165 49.9566 281.404 75.3906H79.3079V171.008C83.5599 119.969 126.529 79.6639 178.665 79.664H179.733L74.1442 280.158C49.4906 254.095 34.259 218.897 34.259 180.089C34.259 136.192 49.0781 99.7462 74.5003 74.3222C99.9224 48.8983 136.007 34.259 179.911 34.259ZM284.075 78.0615C309.822 104.351 325.741 140.369 325.741 180.089C325.741 260.633 260.455 325.563 179.911 325.563C139.551 325.563 103.153 309.257 76.815 282.829H277.309V192.553C270.764 240.786 229.632 278.206 179.733 278.733L284.075 78.0615Z" fill="white"/>
</svg>
