<svg width="360" height="360" viewBox="0 0 360 360" fill="none" xmlns="http://www.w3.org/2000/svg">
<rect width="360" height="360" rx="82" fill="#5F7383"/>
<path d="M36.7794 138V160.759H38.1449C41.3312 151.428 42.4692 150.973 45.4278 150.973H85.4838L32 219.933H86.3941C91.6287 219.933 94.1322 220.615 97.7737 222.664C99.5944 214.243 103.919 204.684 105.512 200.815H103.919C95.0426 212.195 93.2219 212.65 87.7597 212.65H53.6211L105.512 145.283L106.422 143.917H44.7451C41.3312 143.69 41.3312 142.779 36.7794 138Z" fill="white"/>
<path d="M137.385 210.828V152.109C137.385 148.468 137.385 148.696 149.674 145.282V143.461H112.35V145.282C124.412 148.24 124.64 148.24 124.64 152.109V210.828C124.64 214.697 124.412 214.924 112.35 218.111V219.704H149.902V218.111C137.385 215.152 137.385 215.152 137.385 210.828Z" fill="white"/>
<path d="M297.593 144.826C309.883 148.467 309.655 148.695 309.655 152.108V199.447C309.655 199.447 309.427 200.13 308.517 199.447L251.619 143.232H245.247V210.827C245.247 214.468 245.019 214.468 232.957 217.882V219.475H264.365V217.882C252.53 214.241 252.53 214.241 252.53 210.827V164.626C252.53 163.716 252.757 163.716 253.668 164.626L309.883 219.475H316.938V152.336C316.938 148.695 316.938 148.467 329 145.053V143.232H297.593V144.826Z" fill="white"/>
<path d="M193.833 141.188C171.53 141.188 148.998 153.934 148.998 181.927C148.998 207.417 171.074 220.845 192.24 220.845C214.317 221.073 235.71 204.914 235.71 182.155C235.71 156.209 215.227 141.188 193.833 141.188ZM192.923 213.562C172.212 213.562 162.198 195.355 162.198 182.382C162.198 165.085 172.667 148.016 193.378 148.244C213.861 148.471 222.737 165.768 222.737 182.382C222.737 198.996 209.765 213.562 192.923 213.562Z" fill="white"/>
</svg>
