<svg width="360" height="360" viewBox="0 0 360 360" fill="none" xmlns="http://www.w3.org/2000/svg">
<rect width="360" height="360" rx="82" fill="#022428"/>
<path d="M304.718 226.45L320 248.172C309.849 258.324 274.373 290.415 221.106 290.415C146.116 290.415 141.423 235.074 66.6514 235.074H44.8204L41 212.588L125.377 126.574H59.993L65.0141 100.158H172.095L167.511 124.391L85.6444 207.894C148.408 207.894 163.908 264.546 225.472 264.546C263.13 264.436 293.912 238.13 304.718 226.45Z" fill="#EA5E00"/>
<path d="M230.374 213.141C214.001 213.141 204.068 200.151 204.068 181.595C204.068 156.38 219.022 121.997 244.782 121.997C264.43 121.997 270.543 139.134 270.543 152.996C270.543 179.849 254.497 213.141 230.374 213.141ZM248.603 97C202.649 97 170.775 136.623 170.775 182.359C170.775 214.56 191.842 238.028 225.899 238.028C271.853 238.028 304.054 198.732 304.054 152.996C304.054 123.088 284.951 97 248.603 97Z" fill="#EA5E00"/>
</svg>
